<svg width="183" height="40" viewBox="0 0 183 40" fill="none" xmlns="http://www.w3.org/2000/svg">
<path d="M3.63987 5.4561C4.00609 4.84181 4.18919 4.53466 5.17292 3.68682C5.61139 3.3089 6.89275 2.53114 7.43037 2.31657C8.63653 1.83519 9.31307 1.79599 10.6662 1.7176C20.1821 1.16626 45.7218 5.58182e-08 91.5 3.16496e-08C136.296 7.99957e-09 161.713 1.11675 171.699 1.68128C173.368 1.77562 174.203 1.8228 175.452 2.3379C176.057 2.58746 177.287 3.36452 177.772 3.80395C178.774 4.71095 179.028 5.17565 179.536 6.10505C181.209 9.16666 183 13.8739 183 20C183 26.1771 181.179 30.9116 179.494 33.971C178.996 34.8742 178.748 35.3258 177.752 36.2255C177.274 36.6576 176.043 37.4357 175.447 37.6822C174.207 38.1954 173.404 38.2436 171.798 38.3401C162.296 38.9109 138.066 40 91.5 40C43.9037 40 19.6424 38.8622 10.5926 38.303C9.28368 38.2221 8.62923 38.1817 7.43334 37.7025C6.90548 37.4911 5.62468 36.7136 5.19347 36.3429C4.21652 35.5031 4.03828 35.2067 3.68178 34.6139C1.94982 31.7338 0 26.9483 0 20C0 13.1077 1.91852 8.34351 3.63987 5.4561Z" fill="#FF0000"/>
<path d="M46.9791 27L44.9391 12.46H47.3491L48.3091 23.03C48.3424 23.3767 48.3891 23.69 48.4491 23.97C48.5157 24.2433 48.5624 24.6167 48.5891 25.09H48.6591L48.9691 21.8L49.8491 15.95H52.2291L53.1091 21.8L53.4191 25.09H53.4991C53.5257 24.6167 53.5691 24.2433 53.6291 23.97C53.6957 23.69 53.7424 23.3767 53.7691 23.03L54.7391 12.46H57.1391L55.1191 27H52.3591L51.6291 22.36C51.5024 21.58 51.3957 20.8533 51.3091 20.18C51.2224 19.5 51.1424 18.77 51.0691 17.99H51.0091C50.9357 18.77 50.8524 19.5 50.7591 20.18C50.6724 20.86 50.5691 21.5867 50.4491 22.36L49.7391 27H46.9791ZM56.9412 27L61.6013 12.46H64.4813L69.1213 27H66.7713L65.4813 22.68L66.7613 23.57H59.8113L60.5613 21.67H66.1813L65.4713 22.65L63.9413 17.49L63.0713 14.16H62.9913L62.1413 17.49L59.3013 27H56.9412ZM73.9034 27V15.29C73.9034 15.0767 73.9501 14.9 74.0434 14.76C74.1368 14.6133 74.2668 14.5133 74.4334 14.46H70.0234V12.46H80.0234V14.46H76.1434V27H73.9034ZM87.0956 27.29C86.0423 27.29 85.1256 26.9767 84.3456 26.35C83.5723 25.7167 82.9723 24.8333 82.5456 23.7C82.1256 22.5667 81.9156 21.2367 81.9156 19.71C81.9156 18.1567 82.1356 16.82 82.5756 15.7C83.0223 14.5733 83.6456 13.7067 84.4456 13.1C85.2523 12.4867 86.1923 12.18 87.2656 12.18C88.1923 12.18 88.999 12.3633 89.6856 12.73C90.379 13.0967 90.919 13.6767 91.3056 14.47C91.699 15.2633 91.909 16.3 91.9356 17.58H89.5856C89.5456 16.76 89.4356 16.1067 89.2556 15.62C89.0823 15.1267 88.8356 14.7733 88.5156 14.56C88.1956 14.34 87.7923 14.23 87.3056 14.23C86.6123 14.23 86.0356 14.4233 85.5756 14.81C85.1156 15.1967 84.7723 15.7933 84.5456 16.6C84.319 17.4067 84.2056 18.4433 84.2056 19.71C84.2056 21.3833 84.4656 22.7267 84.9856 23.74C85.5056 24.7467 86.259 25.25 87.2456 25.25C87.7923 25.25 88.2323 25.1567 88.5656 24.97C88.899 24.7833 89.149 24.5133 89.3156 24.16C89.4823 23.8067 89.5823 23.3767 89.6156 22.87H91.8656C91.8256 23.7167 91.6723 24.4267 91.4056 25C91.1456 25.5667 90.7956 26.02 90.3556 26.36C89.9223 26.6933 89.4256 26.93 88.8656 27.07C88.3123 27.2167 87.7223 27.29 87.0956 27.29ZM101.468 27V12.46H103.708V27H101.468ZM94.3078 27V12.46H96.5478V27H94.3078ZM95.8778 20.53V18.53H101.828L101.798 20.53H95.8778ZM120.562 27L120.112 24.92H122.082C122.856 24.92 123.539 24.7333 124.132 24.36C124.732 23.9867 125.199 23.4133 125.532 22.64C125.872 21.86 126.042 20.8667 126.042 19.66C126.042 18.3867 125.886 17.3767 125.572 16.63C125.266 15.8833 124.816 15.35 124.222 15.03C123.636 14.7033 122.919 14.54 122.072 14.54H120.032L120.562 12.46H121.912C123.919 12.46 125.486 13.0333 126.612 14.18C127.746 15.32 128.312 17.14 128.312 19.64C128.312 21.26 128.029 22.6167 127.462 23.71C126.902 24.7967 126.142 25.6167 125.182 26.17C124.222 26.7233 123.139 27 121.932 27H120.562ZM118.342 27V12.46H120.562V27H118.342ZM130.514 27V12.46H139.094V14.36H131.734L132.734 13.43V19.11L131.734 18.42H138.324V20.32H132.184L132.734 19.54V26.22L131.734 25.05H139.454V27H130.514ZM141.757 27L142.027 12.46H145.147L146.527 18.24L146.967 20.67H147.007L147.457 18.24L148.797 12.46H151.927L152.197 27H150.207L150.077 22.88L150.187 14.26H150.027L149.297 17.46L147.727 23.3H146.287L144.637 17.46L143.907 14.26H143.747L143.887 22.88L143.747 27H141.757ZM158.969 27.3C157.909 27.3 156.989 27.01 156.209 26.43C155.429 25.8433 154.825 24.9833 154.399 23.85C153.972 22.71 153.759 21.31 153.759 19.65C153.759 17.2367 154.229 15.3867 155.169 14.1C156.115 12.8133 157.382 12.17 158.969 12.17C160.575 12.17 161.845 12.8133 162.779 14.1C163.712 15.3867 164.179 17.2367 164.179 19.65C164.179 21.31 163.965 22.71 163.539 23.85C163.119 24.9833 162.519 25.8433 161.739 26.43C160.965 27.01 160.042 27.3 158.969 27.3ZM158.969 25.23C159.909 25.23 160.632 24.8033 161.139 23.95C161.652 23.09 161.909 21.6567 161.909 19.65C161.909 17.69 161.652 16.3 161.139 15.48C160.632 14.6533 159.909 14.24 158.969 14.24C158.042 14.24 157.319 14.6533 156.799 15.48C156.285 16.3 156.029 17.69 156.029 19.65C156.029 21.6567 156.285 23.09 156.799 23.95C157.319 24.8033 158.042 25.23 158.969 25.23Z" fill="white"/>
<path d="M21.582 28.2445L36.4206 19.8034L21.582 11.3613V28.2445Z" fill="white"/>
</svg>
