<svg width="38" height="27" viewBox="0 0 38 27" fill="none" xmlns="http://www.w3.org/2000/svg">
<path d="M37.0588 4.16407C36.6235 2.52502 35.3411 1.2342 33.7124 0.796136C30.7609 0 18.9248 0 18.9248 0C18.9248 0 7.08893 0 4.13729 0.796136C2.50857 1.2342 1.22582 2.52502 0.790813 4.16407C0 7.1349 0 13.3335 0 13.3335C0 13.3335 0 19.5318 0.790813 22.5029C1.22582 24.1421 2.50857 25.4326 4.13713 25.8712C7.08877 26.667 18.9247 26.667 18.9247 26.667C18.9247 26.667 30.7607 26.667 33.7122 25.8712C35.3409 25.4328 36.6234 24.1421 37.0587 22.5031C37.8497 19.5319 37.8497 13.3337 37.8497 13.3337C37.8497 13.3337 37.8497 7.13506 37.0587 4.16423" fill="#FF0000"/>
<path d="M15.0547 18.9616L24.9472 13.3342L15.0547 7.70605V18.9616Z" fill="white"/>
</svg>
