<svg width="120" height="100" viewBox="0 0 120 101" fill="none" xmlns="http://www.w3.org/2000/svg">
<path opacity="0.55" d="M34.9721 79.1124L80.0676 76.2692C86.5068 75.8633 89.7264 75.6603 92.0114 74.0805C93.3532 73.1529 94.4477 71.9111 95.1994 70.4634C96.4797 67.9981 96.2767 64.7785 95.8707 58.3393L94.2907 33.2781C93.8847 26.8389 93.6817 23.6193 92.102 21.3343C91.1743 19.9925 89.9325 18.898 88.4849 18.1463C86.0195 16.866 82.7999 17.069 76.3608 17.475L49.3649 19.177C47.8159 19.2746 47.0415 19.3235 46.3575 19.4638C42.9543 20.1621 40.1574 22.5767 38.9699 25.8415C38.7312 26.4977 38.5699 27.2568 38.2472 28.7749L35.5957 41.2493C35.1265 43.4566 34.892 44.5603 34.4482 45.5429C33.7959 46.987 32.8098 48.2555 31.571 49.2438C30.7282 49.9161 29.7025 50.4225 27.6511 51.4353C24.9728 52.7575 23.6336 53.4187 22.6206 54.3225C21.0266 55.7445 19.9298 57.6397 19.491 59.7302C19.2121 61.0588 19.3048 62.5281 19.4901 65.4667C19.7592 69.7357 19.8938 71.8702 20.6434 73.5323C21.8252 76.1527 24.0775 78.1378 26.8255 78.9812C28.5687 79.5161 30.7032 79.3815 34.9721 79.1124Z" fill="var(--clr-scale-ntrl-70)"/>
<path opacity="0.7" d="M73.1589 25.9354L73.8241 27.4312L74.2831 25.8598C74.957 23.5528 76.8961 21.7657 79.3509 21.3471C79.6774 21.2915 80.0757 21.2655 80.966 21.2094C81.8564 21.1532 82.2547 21.129 82.5856 21.1432C85.5989 21.2727 88.1129 23.4884 88.6198 26.4616L89.2113 26.3608L88.6198 26.4616C88.6755 26.7881 88.7014 27.1864 88.7576 28.0767L90.3829 53.8568C90.4391 54.7471 90.4633 55.1455 90.4491 55.4764C90.3196 58.4897 88.1039 61.0036 85.1307 61.5106C84.8042 61.5662 84.4059 61.5922 83.5156 61.6483C82.6253 61.7045 82.2269 61.7287 81.896 61.7145C79.4262 61.6084 77.2913 60.1006 76.3227 57.9224L75.6576 56.4265L75.1986 57.9979C74.5246 60.305 72.5856 62.092 70.1307 62.5106L70.2316 63.102L70.1307 62.5106C69.8042 62.5662 69.4059 62.5922 68.5156 62.6483C67.6253 62.7045 67.2269 62.7287 66.896 62.7145C64.456 62.6096 62.3428 61.1367 61.3582 59.0007L60.6653 57.4975L60.234 59.0955C59.595 61.4634 57.6302 63.3083 55.1307 63.7344C54.8042 63.7901 54.4059 63.8161 53.5156 63.8722C52.6253 63.9283 52.2269 63.9526 51.896 63.9384C48.8827 63.8089 46.3688 61.5932 45.8618 58.62C45.8062 58.2935 45.7802 57.8952 45.7241 57.0049L44.0987 31.2248C44.0426 30.3345 44.0183 29.9361 44.0325 29.6052C44.162 26.5919 46.3777 24.078 49.3509 23.571C49.6774 23.5153 50.0757 23.4894 50.966 23.4333C51.8564 23.3771 52.2547 23.3529 52.5856 23.3671C55.0256 23.4719 57.1389 24.9449 58.1234 27.0809L58.8163 28.5841L59.2476 26.9861C59.8867 24.6182 61.8514 22.7733 64.3509 22.3471C64.6774 22.2915 65.0757 22.2655 65.966 22.2094C66.8564 22.1532 67.2547 22.129 67.5856 22.1432C70.0554 22.2493 72.1903 23.7572 73.1589 25.9354Z" fill="var(--clr-bg-1)" stroke="var(--clr-scale-ntrl-50)" stroke-width="1.2"/>
<ellipse opacity="0.7" cx="53" cy="44.6106" rx="4" ry="11.5" transform="rotate(-9.76668 53 44.6106)" fill="var(--clr-scale-ntrl-50)"/>
<ellipse opacity="0.7" cx="66.8928" cy="44.1225" rx="4" ry="11.5" transform="rotate(-9.76668 66.8928 44.1225)" fill="var(--clr-scale-ntrl-50)"/>
<ellipse opacity="0.7" cx="79.8928" cy="44.1225" rx="4" ry="11.5" transform="rotate(-9.76668 79.8928 44.1225)" fill="var(--clr-scale-ntrl-50)"/>
<path opacity="0.3" d="M36.1051 91.2212L47.659 78.3124L66.8838 77.1003L82.7672 88.2793L36.1051 91.2212Z" fill="var(--clr-scale-ntrl-70)"/>
<path opacity="0.47" d="M1.9933 22.3852L6.56951 18.4965C9.20709 16.2552 10.6359 12.9032 10.4264 9.44826L10.0437 3.13835L14.0383 8.03779C16.2255 10.7204 19.5478 12.2171 23.0062 12.0779L29.0067 11.8363L24.4304 15.725C21.7929 17.9663 20.364 21.3184 20.5736 24.7733L20.9563 31.0832L16.9617 26.1838C14.7745 23.5011 11.4522 22.0044 7.99373 22.1436L1.9933 22.3852Z" fill="var(--clr-scale-pop-60)"/>
<path opacity="0.47" d="M114.049 76.4248L119.746 88.6743L108.951 96.7965L103.254 84.547L114.049 76.4248Z" fill="var(--clr-scale-pop-60)"/>
<path opacity="0.7" d="M59 69.1876L60.9459 67.6491M62.8919 66.1107L60.9459 67.6491M60.9459 67.6491C64.8378 72.2645 73.5946 72.2645 77 67.6491" stroke="var(--clr-scale-ntrl-50)" stroke-width="1.2"/>
</svg>
