<svg width="120" height="100" viewBox="0 0 120 100" fill="none" xmlns="http://www.w3.org/2000/svg">

<path opacity="0.55" d="M34.9722 79.0019L80.0677 76.1588C86.5068 75.7528 89.7264 75.5498 92.0115 73.9701C93.3533 73.0424 94.4477 71.8007 95.1995 70.353C96.4797 67.8876 96.2767 64.668 95.8708 58.2289L94.2907 33.1676C93.8848 26.7285 93.6818 23.5089 92.102 21.2238C91.1744 19.882 89.9326 18.7876 88.4849 18.0358C86.0196 16.7556 82.8 16.9586 76.3608 17.3645L49.365 19.0665C47.816 19.1642 47.0415 19.213 46.3576 19.3534C42.9544 20.0517 40.1574 22.4662 38.9699 25.7311C38.7313 26.3872 38.5699 27.1463 38.2472 28.6644L35.5958 41.1388C35.1266 43.3462 34.892 44.4498 34.4482 45.4324C33.796 46.8766 32.8098 48.1451 31.5711 49.1333C30.7283 49.8057 29.7026 50.3121 27.6511 51.3248C24.9729 52.6471 23.6337 53.3082 22.6206 54.212C21.0266 55.6341 19.9299 57.5292 19.4911 59.6198C19.2122 60.9484 19.3048 62.4177 19.4901 65.3563C19.7593 69.6252 19.8938 71.7597 20.6435 73.4219C21.8252 76.0423 24.0775 78.0274 26.8256 78.8707C28.5687 79.4056 30.7032 79.2711 34.9722 79.0019Z" fill="var(--clr-scale-ntrl-70)"/>
<path opacity="0.7" d="M75.2023 70.7381L67.9005 71.1984C64.6695 71.4021 62.2877 71.5517 60.4044 71.4942C58.5298 71.437 57.2104 71.1749 56.0907 70.5935C54.7299 69.8868 53.5626 68.858 52.6906 67.5967C51.9732 66.5589 51.5475 65.2829 51.2553 63.4303C50.9617 61.5691 50.8109 59.1874 50.6072 55.9564L49.6274 40.4159C49.4237 37.1849 49.2742 34.8031 49.3316 32.9197C49.3888 31.0452 49.6509 29.7258 50.2324 28.6061C50.939 27.2453 51.9678 26.078 53.2291 25.206C54.2669 24.4885 55.543 24.0628 57.3955 23.7706C59.2567 23.4771 61.6385 23.3263 64.8695 23.1226L72.1712 22.6622C75.4023 22.4585 77.7841 22.309 79.6674 22.3664C81.542 22.4236 82.8614 22.6857 83.9811 23.2672C85.3419 23.9738 86.5092 25.0026 87.3812 26.2639C88.0986 27.3017 88.5243 28.5778 88.8165 30.4303C89.1101 32.2915 89.2609 34.6733 89.4646 37.9043L90.4444 53.4447C90.6481 56.6757 90.7976 59.0576 90.7402 60.9409C90.6829 62.8155 90.4209 64.1349 89.8394 65.2546C89.1328 66.6154 88.104 67.7827 86.8427 68.6546C85.8049 69.3721 84.5288 69.7978 82.6763 70.09C80.8151 70.3836 78.4333 70.5343 75.2023 70.7381Z" fill="var(--clr-bg-1)" stroke="var(--clr-scale-ntrl-50)" stroke-width="1.2"/>
<path d="M61.104 41.7887L77.4709 56.1778L99.5917 28.08" stroke="var(--clr-scale-pop-60)" stroke-width="6"/>
<path opacity="0.3" d="M36.1051 91.1107L47.659 78.2018L66.8838 76.9898L82.7672 88.1687L36.1051 91.1107Z" fill="var(--clr-scale-ntrl-70)"/>
<path opacity="0.47" d="M1.99331 22.2747L6.56952 18.386C9.20711 16.1447 10.6359 12.7926 10.4264 9.33772L10.0437 3.02781L14.0383 7.92725C16.2255 10.6099 19.5478 12.1066 23.0062 11.9674L29.0067 11.7258L24.4305 15.6145C21.7929 17.8558 20.3641 21.2078 20.5736 24.6628L20.9563 30.9727L16.9617 26.0732C14.7745 23.3906 11.4522 21.8939 7.99375 22.0331L1.99331 22.2747Z" fill="var(--clr-scale-pop-60)"/>
<path opacity="0.47" d="M114.049 76.3141L119.746 88.5636L108.951 96.6858L103.254 84.4363L114.049 76.3141Z" fill="var(--clr-scale-pop-60)"/>

</svg>
