<svg xmlns="http://www.w3.org/2000/svg" width="120" height="100" viewBox="0 0 120 100" fill="none">
  <g clip-path="url(#clip0_9160_5951)">
    <path opacity="0.35"
      d="M78.7065 11.2345C85.6158 10.7988 89.0707 10.5807 91.716 11.9544C93.2694 12.761 94.6018 13.9355 95.5972 15.3752C97.2923 17.827 97.5098 21.282 97.9454 28.1913L99.6408 55.0822C100.076 61.9915 100.294 65.4464 98.9208 68.0918C98.1142 69.6451 96.9398 70.9776 95.5001 71.9729C93.0482 73.668 89.5934 73.8865 82.684 74.3221L31.2906 77.9606C26.7103 78.2493 24.42 78.3937 22.5496 77.8199C19.601 76.915 17.1838 74.7853 15.9157 71.9737C15.1113 70.1902 14.967 67.8993 14.6782 63.3186C14.4794 60.1658 14.3804 58.5893 14.6796 57.1638C15.1504 54.9207 16.3267 52.8868 18.0369 51.361C19.1239 50.3912 20.5612 49.6819 23.4347 48.2632C25.6358 47.1765 26.7365 46.6323 27.6408 45.9109C28.9699 44.8505 30.0282 43.4897 30.7281 41.9402C31.2043 40.8859 31.4567 39.7015 31.9602 37.333L34.8052 23.9478C35.1514 22.3188 35.3243 21.5041 35.5803 20.8C36.8546 17.2969 39.8556 14.7059 43.5072 13.9566C44.2412 13.806 45.0724 13.7533 46.7345 13.6485L78.7065 11.2345ZM52.2736 19.1702C47.4112 19.4768 44.9797 19.6302 43.2542 20.8231C42.2411 21.5235 41.4147 22.4611 40.8471 23.5542C39.8804 25.4158 40.0336 27.8473 40.3401 32.7097L41.8725 57.0149C42.1791 61.8769 42.3325 64.3079 43.5253 66.0333C44.2257 67.0464 45.1633 67.8728 46.2564 68.4404C48.118 69.4072 50.5496 69.2539 55.4119 68.9474L81.1021 67.3277C85.9641 67.0211 88.3951 66.8678 90.1205 65.6749C91.1336 64.9745 91.96 64.0369 92.5276 62.9438C93.4943 61.0822 93.3412 58.6513 93.0346 53.7893L91.5022 29.484C91.1957 24.6217 91.0423 22.1902 89.8494 20.4647C89.149 19.4516 88.2113 18.6252 87.1183 18.0575C85.2567 17.0909 82.8257 17.244 77.9638 17.5505L52.2736 19.1702Z"
      fill="var(--clr-art-spot-fill)" />
    <path opacity="0.87" d="M32.5062 90.9537L45 77L66 75.5L82.5755 87.797L32.5062 90.9537Z"
      fill="var(--clr-art-spot-fill)" />
    <text opacity="0.6" transform="translate(44 28.1799) rotate(-4.00989)" fill="var(--clr-text-2)"
      xml:space="preserve" style="white-space: pre" font-family="PT Mono" font-size="15.4842"
      font-weight="bold" letter-spacing="0.07em">
      <tspan x="2.54255" y="8.35548">0110</tspan>
      <tspan x="2.54255" y="22.3555">1010</tspan>
      <tspan x="2.54255" y="36.3555">0110</tspan>
    </text>
    <g opacity="0.5">
      <path d="M114 61H117.201V64.2012H114V61Z" fill="var(--clr-art-spot-fill)" />
      <path d="M106 34H109.201V37.2012H106V34Z" fill="var(--clr-art-spot-fill)" />
      <path d="M117 44H120.201V47.2012H117V44Z" fill="var(--clr-art-spot-fill)" />
      <path d="M106 51H109.201V54.2012H106V51Z" fill="var(--clr-art-spot-fill)" />
      <path d="M11 12H14.2012V15.2012H11V12Z" fill="var(--clr-art-spot-fill)" />
      <path d="M17 26H20.2012V29.2012H17V26Z" fill="var(--clr-art-spot-fill)" />
      <path d="M6 37H9.20122V40.2012H6V37Z" fill="var(--clr-art-spot-fill)" />
    </g>
  </g>
  <defs>
    <clipPath>
      <rect width="120" height="100" fill="white" />
    </clipPath>
  </defs>
</svg>