<svg xmlns="http://www.w3.org/2000/svg" width="223" height="152" viewBox="0 0 223 152" fill="none">
  <g>
    <path opacity="0.34" d="M70.0388 151V23M70.0388 1V23M70.0388 23C43.468 23 27.5708 23 1 23M70.0388 23H165.5M1 23V130.973C1 142.034 9.9599 151 21.0125 151H165.5M1 23V21.027C1 9.96639 9.95992 1 21.0125 1L165.5 1M165.5 23V1M165.5 23V107M165.5 1L201.987 1C213.04 1 222 9.96639 222 21.027V107M165.5 151H201.987C213.04 151 222 142.034 222 130.973V107M165.5 151V107M165.5 107H222" stroke="var(--clr-core-ntrl-50)" stroke-width="1.2"/>
    <g>
      <g>
        <path opacity="0.34" d="M9 65C9 62.7909 10.7909 61 13 61H58C60.2091 61 62 62.7909 62 65V83C62 85.2091 60.2091 87 58 87H13C10.7909 87 9 85.2091 9 83V65Z" stroke="var(--clr-core-ntrl-50)" stroke-width="1.2"/>
        <path opacity="0.3" d="M17 71C17 69.8954 17.8954 69 19 69H52C53.1046 69 54 69.8954 54 71V71C54 72.1046 53.1046 73 52 73H19C17.8954 73 17 72.1046 17 71V71Z" fill="var(--clr-core-ntrl-50)"/>
        <path opacity="0.3" d="M17 78C17 77.4477 17.4477 77 18 77H35C35.5523 77 36 77.4477 36 78V78C36 78.5523 35.5523 79 35 79H18C17.4477 79 17 78.5523 17 78V78Z" fill="var(--clr-core-ntrl-50)"/>
      </g>
    </g>
    <path opacity="0.38" d="M58 31C60.2091 31 62 32.7909 62 35V51C62 53.2091 60.2091 55 58 55H13C10.7909 55 9 53.2091 9 51V35C9 32.7909 10.7909 31 13 31H58ZM18 46C17.4477 46 17 46.4477 17 47C17 47.5523 17.4477 48 18 48H35C35.5523 48 36 47.5523 36 47C36 46.4477 35.5523 46 35 46H18ZM19 38C17.8954 38 17 38.8954 17 40C17 41.1046 17.8954 42 19 42H52C53.1046 42 54 41.1046 54 40C54 38.8954 53.1046 38 52 38H19Z" fill="var(--clr-core-pop-50)"/>
    <path opacity="0.3" d="M176 18.5C176 17.1193 177.119 16 178.5 16V16C179.881 16 181 17.1193 181 18.5V18.5C181 19.8807 179.881 21 178.5 21V21C177.119 21 176 19.8807 176 18.5V18.5Z" fill="var(--clr-core-ntrl-50)"/>
    <path opacity="0.3" d="M185 18.5C185 17.6716 185.672 17 186.5 17H208.5C209.328 17 210 17.6716 210 18.5V18.5C210 19.3284 209.328 20 208.5 20H186.5C185.672 20 185 19.3284 185 18.5V18.5Z" fill="var(--clr-core-ntrl-50)"/>
    <path opacity="0.3" d="M176 28.5C176 27.1193 177.119 26 178.5 26V26C179.881 26 181 27.1193 181 28.5V28.5C181 29.8807 179.881 31 178.5 31V31C177.119 31 176 29.8807 176 28.5V28.5Z" fill="var(--clr-core-ntrl-50)"/>
    <path opacity="0.3" d="M185 28.5C185 27.6716 185.672 27 186.5 27H208.5C209.328 27 210 27.6716 210 28.5V28.5C210 29.3284 209.328 30 208.5 30H186.5C185.672 30 185 29.3284 185 28.5V28.5Z" fill="var(--clr-core-ntrl-50)"/>
    <path opacity="0.2" d="M176 119C176 117.895 176.895 117 178 117H210C211.105 117 212 117.895 212 119V119C212 120.105 211.105 121 210 121H178C176.895 121 176 120.105 176 119V119Z" fill="var(--clr-core-ntrl-50)"/>
    <path opacity="0.3" d="M176 38.5C176 37.1193 177.119 36 178.5 36V36C179.881 36 181 37.1193 181 38.5V38.5C181 39.8807 179.881 41 178.5 41V41C177.119 41 176 39.8807 176 38.5V38.5Z" fill="var(--clr-core-ntrl-50)"/>
    <path opacity="0.3" d="M185 38.5C185 37.6716 185.672 37 186.5 37H208.5C209.328 37 210 37.6716 210 38.5V38.5C210 39.3284 209.328 40 208.5 40H186.5C185.672 40 185 39.3284 185 38.5V38.5Z" fill="var(--clr-core-ntrl-50)"/>
    <path opacity="0.2" d="M14 12.5C14 11.1193 15.1193 10 16.5 10H36.5C37.8807 10 39 11.1193 39 12.5V12.5C39 13.8807 37.8807 15 36.5 15H16.5C15.1193 15 14 13.8807 14 12.5V12.5Z" fill="var(--clr-core-ntrl-50)"/>
    <path opacity="0.2" d="M80 12.5C80 11.1193 81.1193 10 82.5 10H132.5C133.881 10 135 11.1193 135 12.5V12.5C135 13.8807 133.881 15 132.5 15H82.5C81.1193 15 80 13.8807 80 12.5V12.5Z" fill="var(--clr-core-ntrl-50)"/>
    <path opacity="0.2" d="M176 129C176 127.895 176.895 127 178 127H210C211.105 127 212 127.895 212 129V129C212 130.105 211.105 131 210 131H178C176.895 131 176 130.105 176 129V129Z" fill="var(--clr-core-ntrl-50)"/>
    <g>
      <path opacity="0.34" d="M9 97C9 94.7909 10.7909 93 13 93H58C60.2091 93 62 94.7909 62 97V115C62 117.209 60.2091 119 58 119H13C10.7909 119 9 117.209 9 115V97Z" stroke="var(--clr-core-ntrl-50)" stroke-width="1.2"/>
      <path opacity="0.3" d="M17 103C17 101.895 17.8954 101 19 101H52C53.1046 101 54 101.895 54 103V103C54 104.105 53.1046 105 52 105H19C17.8954 105 17 104.105 17 103V103Z" fill="var(--clr-core-ntrl-50)"/>
      <path opacity="0.3" d="M17 110C17 109.448 17.4477 109 18 109H35C35.5523 109 36 109.448 36 110V110C36 110.552 35.5523 111 35 111H18C17.4477 111 17 110.552 17 110V110Z" fill="var(--clr-core-ntrl-50)"/>
    </g>
    <path opacity="0.3" d="M90 75.5C90 74.6716 90.6716 74 91.5 74H125.5C126.328 74 127 74.6716 127 75.5V75.5C127 76.3284 126.328 77 125.5 77H91.5C90.6716 77 90 76.3284 90 75.5V75.5Z" fill="var(--clr-core-ntrl-50)"/>
    <path opacity="0.3" d="M90 82.5C90 81.6716 90.6716 81 91.5 81H105.5C106.328 81 107 81.6716 107 82.5V82.5C107 83.3284 106.328 84 105.5 84H91.5C90.6716 84 90 83.3284 90 82.5V82.5Z" fill="var(--clr-core-ntrl-50)"/>
    <path opacity="0.3" d="M118 46C118 40.4772 122.477 36 128 36H147C152.523 36 157 40.4772 157 46V58H128C122.477 58 118 53.5228 118 48V46Z" fill="var(--clr-core-ntrl-50)"/>
    <path opacity="0.34" d="M137 76C137 70.4772 132.523 66 127 66H90C84.4772 66 80 70.4772 80 76V92H127C132.523 92 137 87.5228 137 82V76Z" stroke="var(--clr-core-ntrl-50)" stroke-width="1.2"/>
    <path opacity="0.34" d="M80 112C80 109.791 81.7909 108 84 108H149C151.209 108 153 109.791 153 112V136C153 138.209 151.209 140 149 140H84C81.7909 140 80 138.209 80 136V112Z" stroke="var(--clr-core-ntrl-50)" stroke-width="1.2"/>
    <g>
      <circle opacity="0.38" cx="139" cy="125" r="9" fill="var(--clr-core-pop-50)"/>
      <path opacity="0.6" d="M139 131V120M139 120L134 125.133M139 120L144 125.133" stroke="black" stroke-width="1.2"/>
    </g>
  </g>
</svg>