<svg width="52" height="19" viewBox="0 0 52 19" fill="none" xmlns="http://www.w3.org/2000/svg">
<path opacity="0.27" d="M6.55211 4.63293L6.94893 3.73981C7.3872 2.7534 8.9086 2.7534 9.12223 3.73981L9.31564 4.63293C9.78195 6.78611 11.3386 8.51755 13.5344 9.32527L13.6717 9.37576C14.6032 9.71842 14.4339 10.9877 13.4243 11.3303C10.9947 12.155 8.98036 13.953 8.04643 16.1631L7.59063 17.2418C7.16345 18.2527 5.60253 18.2527 5.40558 17.2418L5.19543 16.1631C4.76485 13.953 3.15994 12.155 0.918145 11.3303C-0.0133752 10.9877 0.106365 9.71842 1.11592 9.37576L1.26469 9.32527C3.64443 8.51755 5.59544 6.78611 6.55211 4.63293Z" fill="var(--clr-scale-ntrl-60)"/>
<path opacity="0.27" fill-rule="evenodd" clip-rule="evenodd" d="M34 5.78842L23.9212 15.9692L17 8.97796L19.7909 6.15878L23.9212 10.3309L31.2091 2.96924L34 5.78842Z" fill="var(--clr-scale-pop-50)"/>
<path opacity="0.24" fill-rule="evenodd" clip-rule="evenodd" d="M41.1521 7.01939L39.8672 2.16203L42.0557 1.58311L43.3406 6.44047L45.5376 2.40866L47.5559 3.0727L44.9499 7.85514L49.7801 6.57741L50.2601 8.39186L45.4299 9.66959L50.0598 12.5379L48.6338 14.1131L44.7306 11.695L46.0155 16.5523L43.827 17.1312L42.5421 12.2739L40.3451 16.3057L38.3267 15.6417L40.9328 10.8592L36.1026 12.1369L35.6226 10.3225L40.4528 9.04477L35.8229 6.17644L37.2489 4.60127L41.1521 7.01939Z" fill="var(--clr-scale-ntrl-60)"/>
</svg>
