<svg xmlns="http://www.w3.org/2000/svg" width="120" height="100" viewBox="0 0 120 100" fill="none">
  <g id="6795:11633" clip-path="url(#clip0_6795_11633)">
    <g id="6800:8933" opacity="0.25">
      <path
        d="M18.918 72.3539C19.4878 71.1457 20.2972 70.0566 21.3058 69.1568C22.3188 68.2531 23.658 67.5919 26.3362 66.2697C28.3876 65.2569 29.4134 64.7505 30.2562 64.0781C31.4949 63.0899 32.4811 61.8214 33.1334 60.3772C33.5771 59.3946 33.8117 58.291 34.2809 56.0837L35.6945 49.4332C16.9397 51.7764 3.99994 56.7469 3.99994 62.5C3.99994 66.3048 9.65963 69.7673 18.918 72.3539Z"
        fill="var(--clr-core-ntrl-60)" />
      <path
        d="M94.6017 73.9016C107.632 71.2467 116 67.1264 116 62.5C116 57.7035 107.006 53.451 93.146 50.8116L94.6017 73.9016Z"
        fill="var(--clr-core-ntrl-60)" />
    </g>
    <path id="6799:8269" opacity="0.8"
      d="M94.5934 73.7696C94.5812 73.5741 94.5686 73.3755 94.5559 73.1737L92.9759 48.1125C92.5699 41.6733 92.3669 38.4537 90.7872 36.1687C89.8595 34.8269 88.6177 33.7324 87.1701 32.9806C84.7047 31.7004 81.4851 31.9034 75.046 32.3094L48.0501 34.0113C46.5011 34.109 45.7267 34.1578 45.0427 34.2982C41.6395 34.9965 38.8426 37.411 37.6551 40.6759C37.4164 41.3321 37.2551 42.0911 36.9324 43.6092L34.2809 56.0837C33.8117 58.291 33.5772 59.3947 33.1334 60.3772C32.4811 61.8214 31.495 63.0899 30.2562 64.0781C29.4134 64.7505 28.3877 65.2569 26.3363 66.2697C23.658 67.5919 22.3188 68.2531 21.3058 69.1568C20.3162 70.0396 19.5183 71.1048 18.9505 72.2858"
      stroke="var(--clr-scale-ntrl-60)" stroke-width="1.2" />
    <path id="6799:8792" opacity="0.7"
      d="M90.0352 74.7402C81.3557 76.1711 71.0517 77 60 77C54.0995 77 48.4121 76.7637 43.0713 76.3257C42.9584 75.1407 42.8707 73.75 42.7662 72.0927L41.501 52.0254C41.1762 46.8741 41.0139 44.2984 42.038 42.3261C42.6394 41.168 43.515 40.1746 44.5885 39.4325C46.4165 38.1687 48.9922 38.0063 54.1435 37.6815L74.18 36.4183C79.3313 36.0935 81.907 35.9311 83.8793 36.9553C85.0374 37.5567 86.0309 38.4323 86.773 39.5057C88.0368 41.3337 88.1991 43.9094 88.5239 49.0607L89.7891 69.128C89.9367 71.4689 90.0508 73.278 90.0352 74.7402Z"
      fill="var(--clr-core-ntrl-80)" />
    <path id="6799:8611" opacity="0.5"
      d="M43.0268 76.2252L41.501 52.0254C41.1763 46.8741 41.0139 44.2984 42.0381 42.3261C42.6395 41.168 43.5151 40.1746 44.5885 39.4325C46.4165 38.1687 48.9922 38.0063 54.1436 37.6815L74.18 36.4183C79.3314 36.0935 81.907 35.9311 83.8793 36.9553C85.0375 37.5567 86.0309 38.4323 86.773 39.5057C88.0368 41.3337 88.1992 43.9094 88.5239 49.0607L90.1374 74.6513"
      stroke="var(--clr-core-ntrl-50)" stroke-width="1.2" />
    <g id="6795:11607">
      <path id="6795:11608"
        d="M69.2072 57.1906C69.7444 63.8446 70.8286 71.0342 76.9301 71.0059C83.0315 70.9775 82.2312 62.4719 81.8933 55.7826C81.5554 49.0932 80.4547 41.6955 74.2113 42.3819C67.9679 43.0682 68.6701 50.5366 69.2072 57.1906Z"
        fill="var(--clr-core-ntrl-100)" stroke="var(--clr-scale-ntrl-50)" stroke-width="1.2" />
      <path id="6795:11609"
        d="M74.0909 42.4454C74.293 46.1975 75.1237 55.8424 75.3274 60.4813L81.9879 57.6231C81.9879 57.6231 81.9115 56.1413 81.8934 55.7826C81.5636 49.2521 80.5501 41.8869 74.0909 42.4454Z"
        fill="var(--clr-scale-ntrl-50)" />
    </g>
    <g id="6795:11611">
      <path id="6795:11612"
        d="M50.8836 59.1466C51.4207 65.8007 52.505 72.9903 58.6064 72.9619C64.7078 72.9335 63.9075 64.428 63.5696 57.7386C63.2317 51.0492 62.131 43.6516 55.8876 44.3379C49.6442 45.0243 50.3464 52.4926 50.8836 59.1466Z"
        fill="var(--clr-core-ntrl-100)" stroke="var(--clr-scale-ntrl-50)" stroke-width="1.2" />
      <path id="6795:11613"
        d="M55.7673 44.4015C55.9694 48.1535 56.8001 57.7984 57.0038 62.4373L63.6642 59.5791C63.6642 59.5791 63.5879 58.0973 63.5698 57.7386C63.2399 51.2081 62.2265 43.8429 55.7673 44.4015Z"
        fill="var(--clr-scale-ntrl-50)" />
    </g>
    <g id="6795:11800" opacity="0.27">
      <rect id="6795:11801" x="101" y="18" width="3.20122" height="3.20122"
        fill="var(--clr-core-ntrl-60)" />
      <rect id="6795:11802" x="107" y="86" width="3.20122" height="3.20122"
        fill="var(--clr-core-ntrl-60)" />
      <rect id="6795:11804" x="45" y="8" width="3.20122" height="3.20122"
        fill="var(--clr-core-ntrl-60)" />
      <rect id="6795:11805" x="60" y="15" width="3.20122" height="3.20122"
        fill="var(--clr-core-ntrl-60)" />
      <rect id="6795:12048" x="18" y="91" width="3.20122" height="3.20122"
        fill="var(--clr-core-ntrl-60)" />
      <rect id="6795:11965" x="54" y="97" width="3.20122" height="3.20122"
        fill="var(--clr-core-ntrl-60)" />
      <rect id="6795:11807" x="32" y="23" width="3.20122" height="3.20122"
        fill="var(--clr-core-ntrl-60)" />
      <rect id="6795:11810" x="83" y="9" width="3.20122" height="3.20122"
        fill="var(--clr-core-ntrl-60)" />
      <rect id="6795:12136" x="4" y="29" width="3.20122" height="3.20122"
        fill="var(--clr-core-ntrl-60)" />
      <rect id="6795:11812" x="21" y="7" width="3.20122" height="3.20122"
        fill="var(--clr-core-ntrl-60)" />
    </g>
  </g>
</svg>