<svg xmlns="http://www.w3.org/2000/svg" width="7.5rem" height="6.25rem" viewBox="0 0 120 100"
  fill="none">
  <g id="4183:13924">
    <path id="6862:1891" opacity="0.5" d="M83.5 7V21M112.5 35H98M105.976 13.3333L94.2381 24.6667"
      stroke="var(--clr-core-ntrl-50)" stroke-width="1.2" />
    <g id="6881:1927">
      <path id="6862:1892" opacity="0.3"
        d="M43.1866 23C45.9647 23 48.5441 24.4416 50.0001 26.8076L51.9425 29.9639C53.3984 32.3298 55.978 33.7714 58.756 33.7715H75.128C79.2753 33.7715 82.7353 36.9408 83.0978 41.0723L83.548 46.2002H47.2706C42.64 46.2002 38.6146 49.3791 37.5421 53.8838L32.0011 77.1582C31.5098 79.2216 29.779 80.7275 27.712 80.9658C25.3511 80.6961 23.4702 78.7799 23.297 76.3564L20.0978 31.5703C19.767 26.9395 23.4347 23.0002 28.0773 23H43.1866Z"
        fill="var(--clr-core-ntrl-60)" />
      <path id="6862:1894" opacity="0.4" d="M85.7715 76.8571L84.1144 50.3428"
        stroke="var(--clr-core-ntrl-50)" stroke-width="1.2" />
      <path id="6879:1907" opacity="0.4"
        d="M52.7198 46.7996H90.8165C92.8211 46.7996 94.2794 46.8004 95.4015 46.9139C96.378 47.0126 97.0386 47.1921 97.5431 47.4901L97.7501 47.6258C98.3372 48.0473 98.8103 48.6057 99.129 49.2508L99.256 49.532C99.503 50.135 99.5521 50.8697 99.4034 51.9813C99.2539 53.0992 98.9166 54.5184 98.4523 56.4686L95.7365 67.8758C95.1322 70.4138 94.6874 72.2817 94.2081 73.742C93.7911 75.0124 93.3583 75.9407 92.798 76.7029L92.5499 77.0193C91.8196 77.8953 90.9366 78.6307 89.9454 79.1893L89.5138 79.4178C88.5563 79.8936 87.4641 80.144 85.9415 80.2713C84.4097 80.3994 82.4894 80.4002 79.88 80.4002H30.5997C30.8383 80.2124 31.0621 80.0058 31.2677 79.7811L31.465 79.5526C31.8962 79.0271 32.1821 78.4164 32.4337 77.6463C32.6826 76.8845 32.9115 75.9236 33.2052 74.6902L36.8634 59.325C37.4678 56.7866 37.9133 54.9183 38.3927 53.4578C38.8097 52.1875 39.2415 51.2592 39.8019 50.4969L40.0509 50.1805C40.8856 49.1794 41.9189 48.3622 43.0861 47.782C44.0435 47.3062 45.1358 47.0558 46.6583 46.9285C48.1901 46.8005 50.1106 46.7996 52.7198 46.7996Z"
        stroke="var(--clr-core-ntrl-50)" stroke-width="1.2" />
    </g>
  </g>
</svg>