<svg xmlns="http://www.w3.org/2000/svg" width="120" height="100" viewBox="0 0 120 100" fill="none">
  <path d="M83.5 7V21M112.5 35H98M105.976 13.3333L94.2381 24.6667" stroke="var(--clr-art-spot-fill)"
    stroke-width="1.2" />
  <path opacity="0.7"
    d="M43.1867 23C45.9648 23 48.5442 24.4416 50.0002 26.8076L51.9426 29.9639C53.3985 32.3298 55.9781 33.7714 58.7561 33.7715H75.1281C79.2754 33.7715 82.7354 36.9408 83.0979 41.0723L83.5481 46.2002H47.2707C42.6401 46.2002 38.6147 49.3791 37.5422 53.8838L32.0012 77.1582C31.5099 79.2216 29.7791 80.7275 27.7121 80.9658C25.3512 80.6961 23.4703 78.7799 23.2971 76.3564L20.0979 31.5703C19.7671 26.9395 23.4348 23.0002 28.0774 23H43.1867Z"
    fill="var(--clr-art-spot-fill)" />
  <path d="M85.7716 76.8572L84.1145 50.3429" stroke="var(--clr-art-spot-fill)" stroke-width="1.2" />
  <path
    d="M52.7199 46.7996H90.8166C92.8212 46.7996 94.2794 46.8004 95.4015 46.9138C96.5175 47.0267 97.2208 47.2458 97.7502 47.6258C98.4209 48.1073 98.943 48.7679 99.256 49.532C99.503 50.135 99.5522 50.8696 99.4035 51.9812C99.254 53.0992 98.9167 54.5183 98.4523 56.4685L95.7365 67.8758C95.1322 70.4137 94.6875 72.2816 94.2082 73.742C93.7317 75.1935 93.2345 76.1982 92.55 77.0193C91.7153 78.0204 90.681 78.8376 89.5138 79.4178C88.5564 79.8936 87.4641 80.144 85.9416 80.2713C84.4098 80.3993 82.4894 80.4002 79.8801 80.4002H30.5998C30.917 80.1505 31.2074 79.8664 31.465 79.5525C31.8963 79.027 32.1822 78.4163 32.4338 77.6463C32.6827 76.8845 32.9116 75.9236 33.2052 74.6902L36.8635 59.325C37.4678 56.7866 37.9134 54.9183 38.3927 53.4578C38.8693 52.006 39.3662 51.0017 40.051 50.1805C40.8856 49.1794 41.919 48.3621 43.0861 47.782C44.0435 47.3062 45.1359 47.0558 46.6584 46.9285C48.1901 46.8004 50.1106 46.7996 52.7199 46.7996Z"
    stroke="var(--clr-art-spot-fill)" stroke-width="1.2" />
</svg>