<svg xmlns="http://www.w3.org/2000/svg" width="120" height="100" viewBox="0 0 120 100" fill="none">
  <g>
    <g>
      <path opacity="0.17"
        d="M13 18.0002C13 10.2682 19.268 4.00016 27 4.00016H67.9781C75.7101 4.00016 81.9781 10.2682 81.9781 18.0002V38.7249H65.5C61.0817 38.7249 57.5 42.3066 57.5 46.7249V67.4497H27C19.268 67.4497 13 61.1817 13 53.4497V18.0002Z"
        fill="var(--clr-core-ntrl-60)" />
      <path opacity="0.5"
        d="M37.6919 21.6271L27.6178 38.1684L37.6919 54.7097M42.4892 54.7097L53.5227 21.6271M58.3199 21.6271L68.3941 38.1684"
        stroke="var(--clr-core-ntrl-50)" stroke-width="1.2" />
    </g>
    <g>
      <rect opacity="0.2" x="28" y="75" width="22" height="21" rx="7" fill="var(--clr-core-ntrl-55)" />
      <path d="M34 83.5L37.8975 87.5193C38.6833 88.3296 39.9834 88.3296 40.7691 87.5193L50 78"
        stroke="var(--clr-core-ntrl-55)" stroke-width="2.2" />
    </g>
    <g>
      <path
        d="M65 38.5996H86.6914C88.8851 38.5997 90.9661 39.5739 92.3721 41.2578L104.681 56C105.792 57.3307 106.4 59.0097 106.4 60.7432V88C106.4 92.0869 103.087 95.4004 99 95.4004H65C60.9131 95.4004 57.5996 92.0869 57.5996 88V46C57.5996 41.9131 60.9131 38.5996 65 38.5996Z"
        stroke="var(--clr-border-2)" stroke-width="1.2" />
      <g>
        <circle cx="69.5" cy="63.5" r="2.5" fill="var(--clr-scale-ntrl-60)" />
        <rect x="78" y="63" width="18" height="1" fill="var(--clr-scale-ntrl-60)" />
      </g>
      <g>
        <circle cx="69.5" cy="73.5" r="2.5" fill="var(--clr-scale-ntrl-60)" />
        <rect x="78" y="73" width="18" height="1" fill="var(--clr-scale-ntrl-60)" />
      </g>
      <g>
        <circle cx="69.5" cy="83.5" r="2.5" fill="var(--clr-scale-ntrl-60)" />
        <rect x="78" y="83" width="18" height="1" fill="var(--clr-scale-ntrl-60)" />
      </g>
    </g>
  </g>
</svg>