<svg xmlns="http://www.w3.org/2000/svg" width="120" height="100" viewBox="0 0 120 100" fill="none">
  <path
    d="M42.5343 9C41.7567 9 41.0056 9.53614 40.7388 10.2816L32.641 32.9072C31.0074 37.4715 26.7569 40.9989 21.9453 41.7834L8.56654 43.9649C7.78625 44.0922 7.13197 44.7373 7.01745 45.4924C6.90441 46.2378 7.34999 46.8776 8.0781 47.0153L20.9131 49.4435C25.4316 50.2983 28.5882 53.7737 28.9448 58.2859L30.4808 77.7246C30.5397 78.4703 31.1367 79 31.9183 79C32.7 79 33.4576 78.4703 33.7428 77.7246L41.1748 58.2859C42.8999 53.7737 47.1107 50.2983 51.8884 49.4435L65.46 47.0153C66.2299 46.8776 66.8695 46.2378 66.9825 45.4924C67.097 44.7373 66.6384 44.0922 65.8968 43.9649L53.1796 41.7834C48.606 40.9989 45.4254 37.4715 45.1763 32.9072L43.9411 10.2816C43.9004 9.53614 43.3119 9 42.5343 9Z"
    fill="var(--clr-art-spot-fill-1)" />
  <path
    d="M77.5827 4C77.2198 4 76.8693 4.26807 76.7448 4.64082L72.9658 15.9536C72.2035 18.2357 70.2199 19.9994 67.9745 20.3917L61.7311 21.4825C61.3669 21.5461 61.0616 21.8687 61.0081 22.2462C60.9554 22.6189 61.1633 22.9388 61.5031 23.0077L67.4928 24.2218C69.6014 24.6492 71.0745 26.3868 71.2409 28.643L71.9577 38.3623C71.9852 38.7352 72.2638 39 72.6286 39C72.9933 39 73.3469 38.7352 73.48 38.3623L76.9482 28.643C77.7533 26.3868 79.7183 24.6492 81.9479 24.2218L88.2813 23.0077C88.6406 22.9388 88.9391 22.6189 88.9919 22.2462C89.0453 21.8687 88.8313 21.5461 88.4852 21.4825L82.5505 20.3917C80.4161 19.9994 78.9319 18.2357 78.8156 15.9536L78.2392 4.64082C78.2202 4.26807 77.9456 4 77.5827 4Z"
    fill="var(--clr-art-spot-fill-pop-1)" />
  <path
    d="M97.9768 33.3239C102.873 32.5178 106.96 32.3412 110.009 32.7994C113.098 33.2633 114.865 34.3321 115.564 35.7602C116.318 37.3008 115.974 39.5655 114.127 42.5881C112.31 45.5625 109.187 49.0102 104.955 52.7098C101.75 55.5105 97.936 58.4336 93.6201 61.3824C94.0891 61.9362 94.5043 62.3178 95.1331 62.7701C99.3522 59.869 103.099 56.9883 106.271 54.2156C110.575 50.4531 113.866 46.8512 115.834 43.6308C117.772 40.4586 118.585 37.3834 117.36 34.881C116.222 32.5549 113.61 31.3178 110.306 30.8216C106.964 30.3195 102.646 30.5283 97.6519 31.3505L97.9768 33.3239Z"
    fill="var(--clr-art-spot-fill-1)" />
  <path
    d="M78.8983 72.7036C78.5715 72.2261 78.0388 71.6063 77.5361 71.1688C74.7406 72.6928 71.839 74.1939 68.8474 75.658C53.8973 82.9747 39.595 87.9495 28.5732 90.0915C23.0549 91.164 18.4165 91.5148 14.9526 91.1251C11.4327 90.729 9.43356 89.6108 8.67958 88.0702L6.88318 88.9494C8.10788 91.4518 11.0349 92.6968 14.729 93.1125C18.4792 93.5345 23.3427 93.1455 28.9548 92.0548C40.1936 89.8705 54.6655 84.8255 69.7266 77.4544C72.8869 75.9077 75.9505 74.3187 78.8983 72.7036Z"
    fill="var(--clr-art-spot-fill-1)" />
  <path
    d="M88.7418 39.9704C88.9375 39.4059 89.4883 39 90.0585 39C90.6287 39 91.0603 39.4059 91.0901 39.9704L91.9959 57.1012C92.1311 59.6568 93.6308 61.405 93.6149 61.3857C88.8189 64.6623 83.4039 67.9706 77.5195 71.1777C76.6012 70.4115 75.4758 69.8701 74.203 69.6215L64.7906 67.783C64.2567 67.6787 63.9299 67.1943 64.0128 66.6299C64.0968 66.0582 64.5766 65.5698 65.1488 65.4734L74.9599 63.8217C78.4884 63.2277 81.6054 60.557 82.8034 57.1012L88.7418 39.9704Z"
    fill="var(--clr-art-spot-fill-1)" />
  <path
    d="M78.8869 72.7096C79.5659 73.7402 79.9896 74.9671 80.0928 76.3165L81.2192 91.0343C81.2624 91.599 81.7002 92 82.2735 92C82.8467 92 83.4023 91.599 83.6114 91.0343L89.0615 76.3165C90.3266 72.9001 93.4145 70.2687 96.9182 69.6215L106.871 67.783C107.435 67.6787 107.904 67.1943 107.987 66.6299C108.071 66.0582 107.735 65.5698 107.191 65.4734L97.8651 63.8217C96.8573 63.6433 95.9418 63.2773 95.1491 62.7589C90.3013 66.0931 84.829 69.4544 78.8869 72.7096Z"
    fill="var(--clr-art-spot-fill-1)" />
  <path fill-rule="evenodd" clip-rule="evenodd"
    d="M17.53 71.348C13.6703 73.7603 10.104 77.6552 8.35339 80.5212L6.64661 79.4787C8.54831 76.3653 12.3297 72.2396 16.47 69.652L17.53 71.348Z"
    fill="var(--clr-art-spot-fill-1)" />
  <circle cx="51" cy="71" r="3" fill="var(--clr-art-spot-fill-1)" />
</svg>