<svg width="7.5rem" height="6.25rem" viewBox="0 0 120 100" fill="none"
  xmlns="http://www.w3.org/2000/svg">
  <path opacity="0.51"
    d="M82.704 16.6898C83.1784 18.3664 82.6488 20.3379 81.079 22.5277C79.5136 24.7113 76.9709 27.0258 73.6152 29.3264C66.909 33.9242 57.0708 38.389 45.6906 41.6093C34.3105 44.8295 23.5914 46.1817 15.4705 45.7796C11.4068 45.5784 8.02838 44.9395 5.55096 43.8999C3.06645 42.8573 1.58231 41.4556 1.10789 39.779C0.633476 38.1025 1.16307 36.1309 2.73293 33.9411C4.2983 31.7575 6.841 29.4431 10.1967 27.1424C16.9029 22.5447 26.7411 18.0798 38.1213 14.8596C49.5014 11.6393 60.2205 10.2871 68.3414 10.6892C72.4051 10.8904 75.7835 11.5294 78.261 12.569C80.7455 13.6115 82.2296 15.0132 82.704 16.6898Z"
    stroke="var(--clr-core-ntrl-50)" stroke-width="1.2" />
  <path opacity="0.4"
    d="M23.7969 19.3298C21.5413 11.3585 26.1748 3.06793 34.146 0.812305C42.1173 -1.44333 50.4079 3.19012 52.6635 11.1614L54.5695 17.8969C54.5695 17.8969 53.0442 23.5249 41.4976 26.7922C29.9509 30.0595 25.7029 26.0653 25.7029 26.0653L23.7969 19.3298Z"
    fill="var(--clr-core-ntrl-50)" />
  <path opacity="0.7"
    d="M30.6594 21.544L29.5331 17.5639C28.2003 12.8536 30.997 7.93803 35.7797 6.58465"
    stroke="white" stroke-width="2" stroke-linecap="round" />
  <path opacity="0.15" d="M31 99L38 43.5L54.5 39L121 99H31Z" fill="var(--clr-core-pop-50)" />
  <path opacity="0.35"
    d="M102.567 82.3696C102.954 81.5209 103.273 80.353 103.773 78.5241C104.249 76.7826 104.487 75.9118 104.484 75.0794C104.481 73.7696 104.057 72.4955 103.277 71.4437C102.781 70.7753 102.058 70.2121 100.614 69.0856C99.5084 68.2229 98.9552 67.7914 98.5327 67.283C97.9115 66.5359 97.4768 65.6518 97.2645 64.7036C97.12 64.0585 97.1161 63.3667 97.1084 61.9831L97.0649 54.1634C97.0596 53.2118 97.0569 52.7359 96.9951 52.3123C96.6873 50.2045 95.3076 48.4074 93.3508 47.5656C92.9575 47.3964 92.4985 47.2709 91.5806 47.02L75.5818 42.6467C71.7657 41.6036 69.8576 41.082 68.2183 41.5447C67.2557 41.8164 66.3742 42.3194 65.6506 43.01C64.7504 43.8691 64.2295 45.1189 63.6074 47.2179L102.567 82.3696Z"
    fill="var(--clr-core-ntrl-60)" />
  <path opacity="0.4"
    d="M63.6075 47.2168L102.567 82.3685C102.419 82.6938 102.261 82.9722 102.079 83.223C101.044 84.6497 99.4454 85.5621 97.6906 85.7274C96.5775 85.8322 95.3125 85.4864 92.7825 84.7948L66.0572 77.4894C62.2411 76.4463 60.333 75.9247 59.1571 74.6924C58.4665 73.9689 57.9635 73.0873 57.6918 72.1247C57.2291 70.4855 57.7507 68.5774 58.7938 64.7613L62.8537 49.909C63.1348 48.8808 63.378 47.991 63.6075 47.2168Z"
    fill="var(--clr-core-pop-50)" />
  <rect opacity="0.4" x="44.8945" y="82.9434" width="11" height="10" rx="5"
    transform="rotate(-28.8031 44.8945 82.9434)" fill="var(--clr-core-pop-50)" />
  <rect opacity="0.35" x="116.229" y="54.1934" width="5.24741" height="10.6081" rx="2.62371"
    transform="rotate(77.3362 116.229 54.1934)" fill="var(--clr-core-ntrl-60)" />
  <path opacity="0.4" fill-rule="evenodd" clip-rule="evenodd"
    d="M34.2371 73.3345L36.5758 54.7919L38.5771 53.4266C40.8583 51.8705 43.9691 52.4583 45.5253 54.7395L47.7794 58.0439C49.3355 60.3251 48.7478 63.4358 46.4666 64.992L34.2371 73.3345Z"
    fill="var(--clr-core-pop-50)" />
  <path opacity="0.35"
    d="M36.5757 54.793L24.5335 63.0077C22.2523 64.5638 21.6645 67.6746 23.2207 69.9558L25.4748 73.2602C27.0309 75.5414 30.1417 76.1292 32.4229 74.573L34.237 73.3355L36.5757 54.793Z"
    fill="var(--clr-core-ntrl-60)" />
</svg>