<svg xmlns="http://www.w3.org/2000/svg" width="120" height="100" viewBox="0 0 120 100" fill="none">
  <path
    d="M86 45.3445C82.241 49.0221 72.4782 52.3225 59.7717 52.3225C47.0653 52.3225 37.3885 48.929 33.307 45.2513M79.3053 55.1795C78.0143 58.3957 70.8234 61.0001 59.9163 61.0001C49.0093 61.0001 41.3396 58.8338 40.0968 55.4234M76.8662 65.0001C76.1707 68.0001 69.0674 70.0001 59.5 70.0001C49.9326 70.0001 43.2565 68.0001 42.2792 65.0001M108.5 30.5001C82.5089 45.4801 76 48.9167 76 81.0001M43 81.0001C43 50.1667 38.7343 45.7071 9.5 30.0001M64.4378 86.4807C64.4378 58.1858 66.3638 49.761 70.9341 39.5001M54.5622 86.4807C54.5622 58.8613 53.1907 50.4939 48.2454 39.5001"
    stroke="var(--clr-art-spot-fill)" stroke-width="1.2" />
  <g opacity="0.6">
    <path
      d="M59.0654 40.92C56.3837 40.913 53.7465 40.8417 51.166 40.71C50.9166 38.3784 50.6202 36.2211 50.2676 34.2042C53.0301 33.93 55.9872 33.7734 59.0654 33.755V40.92Z"
      fill="var(--clr-art-spot-fill)" />
    <path
      d="M60.2656 33.755C63.3117 33.7724 66.2394 33.9244 68.9775 34.1925C68.6068 36.2027 68.286 38.3616 68.0107 40.7012C65.4802 40.8332 62.8946 40.906 60.2656 40.918V33.755Z"
      fill="var(--clr-art-spot-fill)" />
    <path
      d="M49.0723 34.3311C49.4163 36.2863 49.7062 38.3794 49.9521 40.6436C46.7291 40.4543 43.5993 40.1701 40.5869 39.8009C40.1071 38.5714 39.5804 37.3973 38.998 36.2716C40.0602 35.9549 41.2189 35.6603 42.4639 35.3927C44.4749 34.9603 46.6945 34.6018 49.0723 34.3311Z"
      fill="var(--clr-art-spot-fill)" />
    <path
      d="M70.1729 34.3184C72.5926 34.5905 74.8502 34.9536 76.8926 35.3927C78.2045 35.6747 79.4198 35.9881 80.5283 36.3243C79.9523 37.4106 79.421 38.5465 78.9297 39.7384C75.8146 40.1321 72.571 40.4326 69.2266 40.6329C69.4977 38.3615 69.8112 36.267 70.1729 34.3184Z"
      fill="var(--clr-art-spot-fill)" />
    <path
      d="M37.835 36.6407C38.3372 37.5969 38.7988 38.5905 39.2246 39.627C37.2128 39.36 35.2566 39.0545 33.3633 38.713C34.4589 37.9694 35.97 37.2687 37.835 36.6407Z"
      fill="var(--clr-art-spot-fill)" />
    <path
      d="M81.6885 36.6973C83.434 37.296 84.8603 37.9602 85.916 38.6622C84.1028 38.9938 82.2312 39.2926 80.3076 39.5557C80.7377 38.5622 81.1971 37.6109 81.6885 36.6973Z"
      fill="var(--clr-art-spot-fill)" />
    <path
      d="M25.8936 23.3311C30.4997 26.8032 33.9763 30.2995 36.5732 34.4405C36.8058 34.8113 37.0283 35.1894 37.2471 35.5714C34.8846 36.3846 33.0064 37.3431 31.7842 38.4171C23.0856 36.7238 15.8176 34.2585 10.7607 31.2901C13.5667 28.3655 18.882 25.5594 25.8936 23.3311Z"
      fill="var(--clr-art-spot-fill)" />
    <path
      d="M92.6562 24.1065C99.1646 26.4293 104.162 29.2313 106.96 32.005C102.05 34.6223 95.3718 36.8084 87.5088 38.3604C86.3164 37.3363 84.5241 36.4203 82.2852 35.6348C82.6988 34.9252 83.131 34.2369 83.585 33.5694C86.0024 30.0148 89.0039 27.001 92.6562 24.1065Z"
      fill="var(--clr-art-spot-fill)" />
    <path
      d="M74.7617 19.754C80.0604 20.533 85.0139 21.6668 89.4287 23.0323C90.0709 23.231 90.7014 23.4349 91.3193 23.6427C87.8541 26.4569 84.9544 29.422 82.5928 32.8946C82.0758 33.6549 81.5844 34.4389 81.1191 35.2501C79.8979 34.8707 78.5662 34.5255 77.1445 34.2198C75.0873 33.7775 72.822 33.413 70.4004 33.1378C70.8739 30.7862 71.4201 28.6499 72.04 26.668C72.8244 24.1606 73.7283 21.897 74.7617 19.754Z"
      fill="var(--clr-art-spot-fill)" />
    <path
      d="M44.3936 19.463C45.6436 21.9972 46.6797 24.6387 47.5303 27.5753C48.0343 29.3155 48.4732 31.1605 48.8555 33.1485C46.4716 33.4224 44.2407 33.7836 42.2119 34.2198C40.8589 34.5107 39.5874 34.8385 38.415 35.1964C38.1493 34.7244 37.876 34.2591 37.5898 33.8028C35.0333 29.7263 31.6611 26.2702 27.3027 22.8985C27.715 22.776 28.1329 22.6547 28.5557 22.5362C33.2933 21.2079 38.6521 20.1473 44.3936 19.463Z"
      fill="var(--clr-art-spot-fill)" />
    <path
      d="M59.0654 18.5997V32.5548C55.9153 32.5734 52.8854 32.7352 50.0527 33.0196C49.6597 30.9599 49.2066 29.0468 48.6836 27.2413C47.8546 24.3792 46.8532 21.7909 45.6592 19.3175C49.9384 18.8534 54.4177 18.5997 59 18.5997C59.0217 18.5997 59.0437 18.5997 59.0654 18.5997Z"
      fill="var(--clr-art-spot-fill)" />
    <path
      d="M60.2656 18.6075C64.8271 18.6616 69.2769 19.0051 73.5186 19.5782C72.5302 21.6673 71.6566 23.8764 70.8955 26.3096C70.2528 28.3642 69.6904 30.5769 69.2041 33.0098C66.3924 32.7308 63.388 32.5725 60.2656 32.5548V18.6075Z"
      fill="var(--clr-art-spot-fill)" />
    <path
      d="M110.023 12.6866C113.846 15.3148 116 18.2808 116 21.422C116 25.0691 113.098 28.4809 108.049 31.4005C105.218 28.469 100.199 25.6017 93.7803 23.2364C98.2437 19.8454 103.621 16.5589 110.023 12.6866Z"
      fill="var(--clr-art-spot-fill)" />
    <path
      d="M8.98242 12.6817C15.2534 16.2526 20.4349 19.3651 24.7051 22.4552C17.878 24.7107 12.5712 27.5598 9.71582 30.6495C5.43165 27.9022 3 24.7605 3 21.422C3.00019 18.2791 5.15545 15.311 8.98242 12.6817Z"
      fill="var(--clr-art-spot-fill)" />
    <path
      d="M85.041 4.02449C95.1059 5.78796 103.434 8.56246 108.908 11.9591C102.461 15.8606 96.9898 19.2172 92.4365 22.7559C91.5745 22.4566 90.6893 22.1661 89.7832 21.8858C85.4179 20.5356 80.5385 19.4107 75.3252 18.6251C77.8274 13.7467 81.0298 9.39497 85.041 4.02449Z"
      fill="var(--clr-art-spot-fill)" />
    <path
      d="M33.9883 4.01863C38.1675 9.3016 41.3732 13.6739 43.8154 18.3243C38.1789 19.0168 32.9104 20.0691 28.2314 21.3809C27.5144 21.582 26.81 21.7897 26.1201 22.003C21.7616 18.773 16.4767 15.5789 10.1123 11.9454C15.5921 8.5514 23.9231 5.77961 33.9883 4.01863Z"
      fill="var(--clr-art-spot-fill)" />
    <path
      d="M60.2656 1.92488C68.6481 1.9633 76.59 2.63137 83.7119 3.7989C79.7736 9.07623 76.5776 13.4605 74.0703 18.4444C69.6584 17.8322 65.0216 17.464 60.2656 17.4083V1.92488Z"
      fill="var(--clr-art-spot-fill)" />
    <path
      d="M59.0654 17.4005C59.0437 17.4005 59.0217 17.4005 59 17.4005C54.2184 17.4005 49.546 17.6753 45.0898 18.1749C42.6472 13.4224 39.4532 9.01636 35.3369 3.79109C42.54 2.61317 50.5801 1.94597 59.0654 1.9239V17.4005Z"
      fill="var(--clr-art-spot-fill)" />
  </g>
  <ellipse cx="59.5" cy="82" rx="16.5" ry="17" fill="var(--clr-art-spot-fill)" />
</svg>