<svg width="100%" height="auto" viewBox="0 0 219 148" fill="none" xmlns="http://www.w3.org/2000/svg">
<path fill-rule="evenodd" clip-rule="evenodd" d="M144.446 91.0235L153.027 86.3516C164.318 108.543 175.981 98.8099 184.546 86.3516L195.434 93.8895C179.371 114.215 159.035 118.379 144.446 91.0235Z" fill="var(--clr-theme-component-illustration-outline)"/>
<path d="M216.125 70.8527C209.313 81.4851 201.741 90.4328 197.394 92.9685C197.445 99.6163 189.151 94.8702 186.882 93.3578C184.245 91.5077 179.358 88.0172 183.884 84.8413C183.15 84.4485 180.213 82.7804 178.902 79.7894C176.171 73.5574 179.655 69.3402 182.276 70.4669C185.714 71.9449 182.842 76.1432 185.325 78.1741C186.732 79.3247 190.386 79.3421 191.324 76.9898C192.13 74.9665 192.353 72.2472 189.608 70.777C186.862 69.3067 184.588 71.7175 182.6 70.3876C179.622 68.3954 182.83 63.0672 188.297 63.5778C190.994 63.8296 194.626 65.5091 195.983 69.0181C197.461 64.5534 197.946 63.1057 199.183 59.4935C199.697 57.991 201.342 57.1979 202.838 57.7321C204.339 58.2682 205.107 59.9334 204.552 61.4276C202.678 66.472 201.754 69.1324 199.869 73.3072C202.019 69.5861 203.093 67.5667 205.279 63.155C206.083 61.5327 208.098 60.9333 209.652 61.8627C211.072 62.7118 211.571 64.5277 210.8 65.9913C208.585 70.1991 208.192 71.1308 204.791 76.6168C207.914 72.8697 209.033 70.3749 211.161 67.3244C212.119 65.9524 214.023 65.7291 215.362 66.733C216.652 67.7008 216.995 69.4946 216.125 70.8527Z" fill="var(--clr-theme-component-illustration-fill)" stroke="var(--clr-theme-component-illustration-outline)" stroke-width="1.2"/>
<path d="M197.783 76.6162C196.213 79.2888 195.369 80.5112 193.89 82.4561M202.065 79.3415C200.508 81.6774 198.562 84.0134 197.394 85.1813" stroke="var(--clr-theme-component-illustration-outline)" stroke-width="1.2"/>
<path fill-rule="evenodd" clip-rule="evenodd" d="M74.5533 91.0235L65.9718 86.3516C54.6814 108.543 43.0181 98.8099 34.453 86.3516L23.5645 93.8895C39.6279 114.215 59.9635 118.379 74.5533 91.0235Z" fill="var(--clr-theme-component-illustration-outline)"/>
<path d="M2.87464 70.8527C9.68713 81.4851 17.2588 90.4328 21.6056 92.9685C21.5543 99.6163 29.8488 94.8702 32.1174 93.3578C34.755 91.5077 39.6419 88.0172 35.1163 84.8413C35.8498 84.4485 38.7865 82.7804 40.0973 79.7894C42.8284 73.5574 39.3446 69.3402 36.7236 70.4669C33.2853 71.9449 36.1574 76.1432 33.6747 78.1741C32.2682 79.3247 28.6134 79.3421 27.6758 76.9898C26.8694 74.9665 26.6464 72.2472 29.3921 70.777C32.1379 69.3067 34.4117 71.7175 36.3999 70.3876C39.3782 68.3954 36.1702 63.0672 30.7025 63.5778C28.0053 63.8296 24.374 65.5091 23.0167 69.0181C21.5392 64.5534 21.0539 63.1057 19.8171 59.4935C19.3026 57.991 17.6578 57.1979 16.1621 57.7321C14.661 58.2682 13.8925 59.9334 14.4477 61.4276C16.3219 66.472 17.2458 69.1324 19.1304 73.3072C16.981 69.5861 15.9071 67.5667 13.7211 63.155C12.9172 61.5327 10.9013 60.9333 9.34753 61.8627C7.92807 62.7118 7.42883 64.5277 8.19934 65.9913C10.4145 70.1991 10.8076 71.1308 14.2085 76.6168C11.086 72.8697 9.96694 70.3749 7.83835 67.3244C6.88095 65.9524 4.97661 65.7291 3.63817 66.733C2.34778 67.7008 2.00445 69.4946 2.87464 70.8527Z" fill="var(--clr-theme-component-illustration-fill)" stroke="var(--clr-theme-component-illustration-outline)" stroke-width="1.2"/>
<path d="M21.2161 76.6162C22.7861 79.2888 23.6301 80.5112 25.1094 82.4561M16.9336 79.3415C18.4909 81.6774 20.4375 84.0134 21.6055 85.1813" stroke="var(--clr-theme-component-illustration-outline)" stroke-width="1.2"/>
<path d="M150.809 122.557L113.434 94.1361L120.442 88.6855C137.312 95.0445 169.652 111.889 164.046 128.397C158.44 144.904 117.344 135.551 96.5797 128.673C89.6712 142.308 80.6172 146.971 68.159 146.971L83.732 106.481L150.809 122.557Z" fill="var(--clr-theme-component-illustration-fill)" stroke="var(--clr-theme-component-illustration-outline)" stroke-width="1.2"/>
<path d="M134.436 105.523L67.3591 123.529L81.4088 112.421L83.6939 106.569L87.7625 107.461L105.699 93.1781L98.6913 87.7275C81.8206 94.0865 48.5157 113.827 54.1219 130.334C59.7282 146.841 99.9326 135.485 120.697 128.607C127.605 142.241 136.659 146.905 149.117 146.905L134.436 105.523Z" fill="var(--clr-theme-component-illustration-fill)" stroke="var(--clr-theme-component-illustration-outline)" stroke-width="1.2"/>
<rect x="59.8346" y="1.17285" width="99.4038" height="92.6482" rx="12" fill="var(--clr-theme-component-illustration-fill)" stroke="var(--clr-theme-component-illustration-outline)" stroke-width="1.2"/>
<path d="M98.4368 88.9934V76.4473L109.835 81.2727L120.634 76.4473V88.9934L109.835 83.6854L98.4368 88.9934Z" fill="var(--clr-theme-component-illustration-outline)"/>
<rect opacity="0.13" x="66.5891" y="7.9248" width="85.8926" height="64.6607" rx="7.86364" fill="var(--clr-theme-component-illustration-outline)"/>
<path d="M84.4904 29.21C90.0107 32.9685 97.2682 32.9685 102.789 29.21" stroke="var(--clr-theme-component-illustration-outline)" stroke-width="1.2"/>
<path d="M83.322 42.834L91.2091 50.004C101.307 59.1838 116.728 59.1838 126.826 50.004L134.713 42.834" stroke="var(--clr-theme-component-illustration-outline)" stroke-width="1.2"/>
<path d="M114.468 29.21C119.988 32.9685 127.246 32.9685 132.766 29.21" stroke="var(--clr-theme-component-illustration-outline)" stroke-width="1.2"/>
</svg>
