<svg xmlns="http://www.w3.org/2000/svg" width="64" height="64"><switch><g><path d="M64 17.5c-.1-4.1-1.4-5-2.4-5.1-10.4.6-16.6.8-22 .9v12.2l-1.6-.9V13.3c-5.8 0-10.8-.3-19.9-.8l-1.8-.1c-.5 0-1.2-.1-1.9-.1-.9-.1-2-.1-3.1-.2-3.1 0-6.1 1.3-8.2 3.4-2.2 2.2-3.2 5.4-3.1 9 .2 6 2.8 10.3 7.5 12.8 2.8 1.5 6.4 2.3 10.6 2.5.8 2.8 6.5 11.4 10.9 11.9h19c2.3-.2 6.9-2.2 11.5-13.6 2.8-6.8 4.6-15.3 4.5-20.6zM16.3 34.3c-5.3-.7-10.1-2.5-11-9.5-.3-2.1.2-4 1.4-5.3 1.2-1.3 3.1-2 5.6-2h.2c.6 6.9 1.7 11 3.8 16.8zm30.5-4.5c1.4.7 2 2.4 1.3 3.7l-5.3 10.9c-.7 1.4-2.4 2-3.7 1.3l-10.9-5.3c-1.4-.7-2-2.4-1.3-3.7l5.3-10.9c.7-1.4 2.4-2 3.7-1.3l2 1-1.4 2.9c-.2 0-.4 0-.6.1-.9.3-1.4 1.4-1.1 2.3.1.2.2.4.3.5l-2.4 5c-.2 0-.4 0-.6.1-.9.3-1.4 1.4-1.1 2.3.3.9 1.4 1.4 2.3 1.1.9-.3 1.4-1.4 1.1-2.3-.1-.3-.2-.5-.4-.7l2.4-4.9c.3 0 .5 0 .8-.1l.6-.3c.1 0 .2.1.3.1 1.8.9 2.9 1.4 3.1 2 .3.8-.5 2.4-2 5.4v.1c-.2 0-.4 0-.7.1-.9.3-1.4 1.4-1.1 2.3.3.9 1.4 1.4 2.3 1.1.9-.3 1.4-1.4 1.1-2.3-.1-.2-.2-.4-.4-.6v-.1c1.8-3.6 2.5-5.2 2.1-6.5-.4-1.1-1.6-1.7-3.8-2.8-.1 0-.2-.1-.3-.1 0-.2 0-.5-.1-.7-.1-.2-.2-.4-.4-.6L39 26l7.8 3.8z" fill="#609926"/></g></switch></svg>