<svg width="100%" height="100%" viewBox="0 0 21 21" fill="none" xmlns="http://www.w3.org/2000/svg">
  <path fill-rule="evenodd" clip-rule="evenodd"
    d="M10.5087 0C4.69766 0 0 4.81248 0 10.7662C0 15.5253 3.00995 19.5538 7.18555 20.9796C7.7076 21.0868 7.89883 20.7479 7.89883 20.4629C7.89883 20.2133 7.88162 19.3578 7.88162 18.4664C4.95836 19.1082 4.34962 17.183 4.34962 17.183C3.87983 15.9352 3.18375 15.6145 3.18375 15.6145C2.22697 14.955 3.25345 14.955 3.25345 14.955C4.31477 15.0263 4.87167 16.0601 4.87167 16.0601C5.81103 17.6999 7.32472 17.2366 7.93368 16.9513C8.02058 16.2561 8.29914 15.7749 8.59491 15.5076C6.2634 15.258 3.81035 14.3311 3.81035 10.1957C3.81035 9.01924 4.22765 8.05675 4.88888 7.30819C4.78456 7.04088 4.4191 5.93554 4.99342 4.45614C4.99342 4.45614 5.88073 4.17089 7.88141 5.56126C8.73797 5.32559 9.62133 5.20571 10.5087 5.2047C11.396 5.2047 12.3005 5.3296 13.1358 5.56126C15.1366 4.17089 16.024 4.45614 16.024 4.45614C16.5983 5.93554 16.2326 7.04088 16.1283 7.30819C16.8069 8.05675 17.207 9.01924 17.207 10.1957C17.207 14.3311 14.754 15.24 12.405 15.5076C12.7879 15.8462 13.1183 16.4878 13.1183 17.5039C13.1183 18.9476 13.1011 20.1063 13.1011 20.4627C13.1011 20.7479 13.2926 21.0868 13.8144 20.9798C17.99 19.5535 21 15.5253 21 10.7662C21.0172 4.81248 16.3023 0 10.5087 0Z"
    fill="var(--clr-text-1)" />
</svg>