<svg width="100%" height="100%" viewBox="0 0 20 20" fill="none" xmlns="http://www.w3.org/2000/svg">
  <path fill-rule="evenodd" clip-rule="evenodd"
    d="M13.0722 1.95289C12.6696 1.56103 12.1299 1.34176 11.568 1.34176C11.0062 1.34176 10.4665 1.56103 10.0639 1.95289L2.04221 9.81956C1.90798 9.95003 1.72816 10.023 1.54096 10.023C1.35376 10.023 1.17395 9.95003 1.03971 9.81956C0.973991 9.75564 0.921752 9.6792 0.886081 9.59475C0.85041 9.5103 0.832031 9.41956 0.832031 9.32789C0.832031 9.23622 0.85041 9.14547 0.886081 9.06102C0.921752 8.97658 0.973991 8.90013 1.03971 8.83622L9.06138 0.969556C9.73239 0.31655 10.6317 -0.0488281 11.568 -0.0488281C12.5044 -0.0488281 13.4037 0.31655 14.0747 0.969556C14.463 1.34714 14.7563 1.8113 14.9307 2.32405C15.1051 2.83679 15.1556 3.38355 15.078 3.91956C15.6212 3.84231 16.1748 3.8908 16.6962 4.06128C17.2176 4.23177 17.693 4.5197 18.0855 4.90289L18.1272 4.94456C18.4558 5.26412 18.717 5.64632 18.8954 6.06857C19.0737 6.49081 19.1656 6.94452 19.1656 7.40289C19.1656 7.86125 19.0737 8.31497 18.8954 8.73721C18.717 9.15945 18.4558 9.54166 18.1272 9.86122L10.8722 16.9754C10.8503 16.9967 10.8329 17.0221 10.821 17.0503C10.8091 17.0784 10.803 17.1086 10.803 17.1391C10.803 17.1697 10.8091 17.1999 10.821 17.228C10.8329 17.2562 10.8503 17.2816 10.8722 17.3029L12.3622 18.7646C12.4279 18.8285 12.4802 18.9049 12.5158 18.9894C12.5515 19.0738 12.5699 19.1645 12.5699 19.2562C12.5699 19.3479 12.5515 19.4386 12.5158 19.5231C12.4802 19.6075 12.4279 19.684 12.3622 19.7479C12.228 19.8784 12.0482 19.9514 11.861 19.9514C11.6738 19.9514 11.4939 19.8784 11.3597 19.7479L9.86971 18.2871C9.71624 18.1379 9.59425 17.9595 9.51095 17.7624C9.42764 17.5653 9.38472 17.3535 9.38472 17.1396C9.38472 16.9256 9.42764 16.7138 9.51095 16.5167C9.59425 16.3196 9.71624 16.1412 9.86971 15.9921L17.1247 8.87706C17.3218 8.68526 17.4784 8.45592 17.5853 8.20258C17.6923 7.94924 17.7474 7.67704 17.7474 7.40206C17.7474 7.12707 17.6923 6.85487 17.5853 6.60153C17.4784 6.34819 17.3218 6.11885 17.1247 5.92706L17.083 5.88622C16.6808 5.49477 16.1419 5.27553 15.5806 5.27506C15.0194 5.27459 14.4801 5.49294 14.0772 5.88372L8.10054 11.7454L8.09888 11.7471L8.01721 11.8279C7.88294 11.9586 7.70294 12.0318 7.51554 12.0318C7.32815 12.0318 7.14815 11.9586 7.01388 11.8279C6.94816 11.764 6.89592 11.6875 6.86025 11.6031C6.82458 11.5186 6.8062 11.4279 6.8062 11.3362C6.8062 11.2445 6.82458 11.1538 6.86025 11.0694C6.89592 10.9849 6.94816 10.9085 7.01388 10.8446L13.0747 4.90039C13.2712 4.70846 13.4273 4.47914 13.5338 4.22595C13.6403 3.97275 13.6951 3.7008 13.6949 3.42611C13.6946 3.15143 13.6394 2.87957 13.5325 2.62655C13.4255 2.37354 13.269 2.14448 13.0722 1.95289Z"
    fill="var(--clr-text-1)" />
  <path fill-rule="evenodd" clip-rule="evenodd"
    d="M12.0719 3.91962C12.1376 3.85571 12.1898 3.77927 12.2255 3.69482C12.2612 3.61037 12.2796 3.51963 12.2796 3.42796C12.2796 3.33628 12.2612 3.24554 12.2255 3.16109C12.1898 3.07664 12.1376 3.0002 12.0719 2.93629C11.9376 2.80557 11.7576 2.73242 11.5702 2.73242C11.3828 2.73242 11.2028 2.80557 11.0686 2.93629L5.13605 8.75462C4.80746 9.07419 4.54626 9.45639 4.3679 9.87863C4.18955 10.3009 4.09766 10.7546 4.09766 11.213C4.09766 11.6713 4.18955 12.125 4.3679 12.5473C4.54626 12.9695 4.80746 13.3517 5.13605 13.6713C5.80717 14.3241 6.70648 14.6893 7.64272 14.6893C8.57896 14.6893 9.47827 14.3241 10.1494 13.6713L16.0827 7.85296C16.1484 7.78904 16.2007 7.7126 16.2364 7.62816C16.272 7.54371 16.2904 7.45296 16.2904 7.36129C16.2904 7.26962 16.272 7.17887 16.2364 7.09443C16.2007 7.00998 16.1484 6.93354 16.0827 6.86962C15.9484 6.7389 15.7685 6.66575 15.5811 6.66575C15.3937 6.66575 15.2137 6.7389 15.0794 6.86962L9.14689 12.688C8.74425 13.0798 8.20457 13.2991 7.64272 13.2991C7.08087 13.2991 6.5412 13.0798 6.13855 12.688C5.9415 12.4962 5.78487 12.2668 5.67792 12.0135C5.57098 11.7601 5.51588 11.4879 5.51588 11.213C5.51588 10.938 5.57098 10.6658 5.67792 10.4124C5.78487 10.1591 5.9415 9.92976 6.13855 9.73796L12.0719 3.91962Z"
    fill="var(--clr-text-1)" />
</svg>