<svg width="55" height="52" viewBox="0 0 55 52" fill="none" xmlns="http://www.w3.org/2000/svg">
<path d="M11.228 50.5L21.8008 42.3301H28.0484L39.1018 50.5H11.228Z" stroke="black" stroke-width="1.2"/>
<path d="M23.2424 1H40.3786L45.6513 21.665H53.9997V42.3301H23.2424V1Z" fill="#98DAD7" stroke="black" stroke-width="1.2"/>
<path d="M1.13574 1H33.8154V42.3301H1.13574V1Z" fill="white"/>
<path d="M33.8154 1H1.13574V42.3301H33.8154" stroke="black" stroke-width="1.2"/>
<path d="M8.24164 11.4292C1.55499 15.2136 11.0269 27.8408 16.5974 33.6795C24.9532 27.053 33.3074 15.2175 26.5198 11.4292C22.2781 9.06189 18.164 14.1108 17.6418 17.1086C17.1196 13.7948 13.2579 8.5903 8.24164 11.4292Z" fill="#FFB3B3"/>
<path d="M6.83467 19.6C6.15617 17.8527 5.81368 16.2064 5.98563 14.8H7.83333V19.6H6.83467Z" fill="#FF6262"/>
<path d="M7.83333 21.804V19.6H12.6667V24.4H9.31459C8.77417 23.5348 8.274 22.6645 7.83333 21.804Z" fill="#FF6262"/>
<path d="M27.1667 11.8479C28.1914 12.6168 28.7541 13.6257 28.9398 14.8H27.1667V11.8479Z" fill="#FF6262"/>
<path d="M12.6667 10.8608C11.3611 10.4345 9.86158 10.5124 8.24164 11.4292C8.09816 11.5104 7.96213 11.5957 7.83333 11.6849V14.8H12.6667V19.6H17.5V24.4H12.6667V29.1325C12.6844 29.155 12.7021 29.1775 12.7199 29.2H17.5V32.9435C18.8616 31.8026 20.2085 30.5355 21.4749 29.2H17.5V24.4H22.3333V28.2703C23.4643 27.0121 24.5138 25.7069 25.43 24.4H22.3333V19.6H27.1667V21.6209C27.5393 20.9363 27.8637 20.2604 28.1322 19.6H27.1667V14.8H22.3333V11.2316C20.7472 11.914 19.3975 13.3432 18.5473 14.8H22.3333V19.6H17.5V16.4478C17.3573 15.9157 17.1413 15.355 16.8596 14.8H12.6667V10.8608Z" fill="#FF6262"/>
</svg>
