<svg width="335" height="352" viewBox="0 0 335 352" fill="none" xmlns="http://www.w3.org/2000/svg">
<path d="M282.756 312.492L185.032 320.187C173.218 321.117 160.963 320.023 150.992 313.621C134.411 302.974 128.042 288.976 135.247 276.912C144.452 261.499 167.09 275.801 177.794 287.616L279.211 279.855C287.15 268.438 308.378 252.294 320.152 262.997C329.544 271.535 325.865 285.457 317.584 296.853C309.74 307.647 296.058 311.445 282.756 312.492Z" fill="black"/>
<path d="M282.756 309.281L185.032 316.976C173.218 317.906 160.963 316.812 150.992 310.41C134.411 299.764 128.042 285.765 135.247 273.701C144.452 258.288 167.09 272.59 177.794 284.405L279.211 276.644C287.15 265.227 308.378 249.083 320.152 259.786C329.544 268.324 325.865 282.246 317.584 293.642C309.74 304.436 296.058 308.234 282.756 309.281Z" fill="#8FD6D2" stroke="black" stroke-width="1.2"/>
<path d="M212.044 139.104L177.391 148.336L146.956 155.398L137.383 137.766L130.964 139.104L119.832 129.724L145.548 120.507L206.692 83.9805L270.894 85.7094C275.841 85.8426 279.091 90.9271 277.136 95.473L266.367 120.507L270.78 122.38L259.541 137.766L222.748 124.788L227.029 114.084L196.39 120.507L212.044 139.104Z" fill="black"/>
<path d="M175.179 180.476L150.566 124.185L162.25 123.858C177.319 144.1 189.482 166.014 194.422 174.348C197.009 178.712 202.843 199.65 206.58 212.643C209.979 224.462 214.166 236.455 215.618 242.44C221.107 242.297 229.629 242.246 238.994 243.206C250.821 244.419 263.992 247.242 274.1 253.526C289.646 263.19 297.817 284.632 299.969 294.941L177.944 296.885L178.417 275.374L176.919 214.15L175.179 180.476Z" fill="#FCFCF1"/>
<path d="M274.1 253.526C289.646 263.19 297.817 284.632 299.969 294.941L177.944 296.885L178.417 275.374M274.1 253.526C256.15 253.337 244.837 264.281 240.33 273.781L178.417 275.374M274.1 253.526C263.992 247.242 250.821 244.419 238.994 243.206M176.919 214.15L175.179 180.476L150.566 124.185L162.25 123.858C177.319 144.1 189.482 166.014 194.422 174.348C197.009 178.712 202.843 199.65 206.58 212.643M176.919 214.15L178.417 275.374M176.919 214.15L196.712 213.199M206.58 212.643C209.979 224.462 214.166 236.455 215.618 242.44C221.107 242.297 229.629 242.246 238.994 243.206M206.58 212.643L196.712 213.199M196.712 213.199L203.577 246.514C204.551 251.238 208.759 254.594 213.581 254.493L229.217 254.165C234.715 254.049 239.088 249.517 239.006 244.019L238.994 243.206" stroke="black" stroke-width="1.2"/>
<path d="M198.182 219.311L207.797 217.996L199.908 228.105L210.427 225.886L202.127 238.131L213.879 236.981L206.318 251.527L220.125 242.816L222.097 254.568L229.165 242.816L232.864 252.513" stroke="black" stroke-width="1.2" stroke-linejoin="bevel"/>
<ellipse cx="193.557" cy="257.242" rx="6.43222" ry="8.42727" transform="rotate(-30.4125 193.557 257.242)" stroke="black" stroke-width="1.2"/>
<path d="M151.074 191.739L137.567 129.898L148.371 127.29C157.685 151.506 174.468 199.058 166.925 207.86C163.12 212.299 151.123 218.29 138.232 223.644C129.565 227.244 120.494 230.556 113.238 232.914C112.482 241.133 111.241 248.498 109.421 255.043C106.818 264.403 103.031 272.086 97.7819 278.195C88.7156 288.746 75.2893 294.599 56.0773 296.275L60.2847 198.934L77.3221 197.584L131.402 193.298L151.074 191.739Z" fill="#FCFCF1"/>
<path d="M138.232 223.644C129.565 227.244 120.494 230.556 113.238 232.914C112.482 241.133 111.241 248.498 109.421 255.043M138.232 223.644C151.123 218.29 163.12 212.299 166.925 207.86C174.468 199.058 157.685 151.506 148.371 127.29L137.567 129.898L151.074 191.739L131.402 193.298M138.232 223.644L135.682 212.313M131.402 193.298L135.682 212.313M131.402 193.298L77.3221 197.584M135.682 212.313L107.269 220.181C103.597 221.198 100.822 224.213 100.113 227.957L97.2904 242.852C96.2086 248.562 100.205 253.988 105.979 254.649L109.421 255.043M109.421 255.043C106.818 264.403 103.031 272.086 97.7819 278.195M77.3221 197.584L60.2847 198.934L56.0773 296.275C75.2893 294.599 88.7156 288.746 97.7819 278.195M77.3221 197.584L75.3396 255.043C87.8526 259.639 92.7694 264.764 97.7819 278.195" stroke="black" stroke-width="1.2"/>
<path d="M131.265 225.88L127.214 215.172L123.596 229.209L117.952 217.198L115.058 232.248L104.494 221.828L112.453 238.47L99.4295 232.248L111.73 245.995L97.9824 247.297" stroke="black" stroke-width="1.2" stroke-linejoin="bevel"/>
<ellipse cx="92.8185" cy="213.54" rx="6.43222" ry="8.42727" transform="rotate(-131.492 92.8185 213.54)" stroke="black" stroke-width="1.2"/>
<path d="M224.748 118.169L229.396 108.032L235.493 110.138M269.824 121.628L235.493 110.138M235.493 110.138C236.839 108.729 238.938 106.636 241.262 104.497M250.712 95.0827L241.262 104.497M241.262 104.497L238.089 93.8398L234.167 103.858L226.762 95.0827M189.323 145.123L181.571 121.628M177.039 122.821L184.433 146.793" stroke="white" stroke-width="1.2" stroke-linejoin="bevel"/>
<path d="M158.965 126.504L163.38 137.709L175.255 125.584L191.061 128.427L188.134 119.145" stroke="white" stroke-width="1.2" stroke-linejoin="bevel"/>
<path d="M118.479 2.23161C103.714 7.27831 106.08 25.4683 111.666 35.5992C127.008 39.8806 153.478 45.4392 146.988 28.6418C142.305 6.69996 132.491 -2.55791 118.479 2.23161Z" fill="#8FD6D2" stroke="black" stroke-width="1.2" stroke-linejoin="bevel"/>
<path d="M123.15 2.23161C115.889 7.27831 117.053 25.4683 119.799 35.5992C127.345 39.8806 140.363 45.4392 137.171 28.6418C134.868 6.69996 130.041 -2.55791 123.15 2.23161Z" fill="#8FD6D2" stroke="black" stroke-width="1.2" stroke-linejoin="bevel"/>
<path d="M104.727 36.882L117.648 33.3516L141.19 131.888L118.432 138.247C110.927 140.344 103.153 135.909 101.14 128.381L94.3594 103.028C93.1877 98.6461 94.2414 93.9687 97.1788 90.513C99.9577 87.2436 101.059 82.8685 100.16 78.6729L94.7277 53.3204C93.171 46.0557 97.5601 38.8402 104.727 36.882Z" fill="#FCFCF1" stroke="black" stroke-width="1.2"/>
<path d="M102.864 103.468L110.302 97.9867M104.083 108.359L111.521 102.878M105.303 113.25L112.741 107.768" stroke="black" stroke-width="1.2"/>
<path d="M202.359 115.591L140.623 131.955C133.014 133.972 125.238 129.32 123.416 121.661L106.463 50.3797C104.661 42.8056 109.385 35.2167 116.976 33.4893L179.079 19.3582C186.554 17.6572 194.007 22.2849 195.798 29.7391L212.385 98.7881C214.161 106.182 209.71 113.643 202.359 115.591Z" fill="#FCFCF1" stroke="black" stroke-width="1.2"/>
<path d="M133.78 34.02C128.209 36.5594 123.813 33.4645 121.672 32.3941L139.076 28.4451C144.116 19.6595 146.586 4.91616 157.692 7.23664C166.179 9.00964 163.03 19.3195 159.641 23.7793L139.076 28.4451C137.617 30.9895 135.942 33.0342 133.78 34.02Z" fill="black"/>
<path d="M121.672 32.3941C123.813 33.4645 128.209 36.5594 133.78 34.02C143.409 29.6302 143.369 4.24413 157.692 7.23664C166.179 9.00964 163.03 19.3195 159.641 23.7793L121.672 32.3941Z" stroke="black" stroke-width="1.2" stroke-linejoin="bevel"/>
<path opacity="0.13" d="M199.378 109.717L140.612 125.501C135.234 126.946 129.727 123.653 128.455 118.232L112.41 49.8695C111.163 44.5534 114.473 39.2356 119.794 38.0087L178.909 24.3776C184.193 23.1594 189.468 26.4355 190.719 31.7112L206.414 97.92C207.644 103.108 204.527 108.334 199.378 109.717Z" fill="#475050"/>
<path d="M162.314 100.185C159.286 117.529 170.803 117.818 174.826 99.7186" stroke="black" stroke-width="1.2"/>
<path d="M160.975 68.9762C163.771 83.0347 168.056 98.0164 183.347 95.4315C198.638 92.8466 194.779 74.9233 192.474 60.7064C190.17 46.4896 185.798 31.0683 170.295 35.124C154.791 39.1797 158.178 54.9177 160.975 68.9762Z" fill="#FCFCF1" stroke="black" stroke-width="1.2"/>
<path d="M124.584 77.5387C127.38 91.5972 131.665 106.579 146.956 103.994C162.247 101.409 158.388 83.4858 156.083 69.2689C153.779 55.0521 149.408 39.6308 133.904 43.6865C118.4 47.7422 121.788 63.4802 124.584 77.5387Z" fill="#FCFCF1" stroke="black" stroke-width="1.2"/>
<path d="M148.537 53.7895L152.204 54.0143C154.089 58.5623 155.229 63.998 156.083 69.2687C156.373 71.06 156.688 72.9104 156.987 74.7812L148.296 75.1177L139.435 80.7601L135.805 70.9027L127.701 64.2193L135.954 57.7217L139.806 47.9488L148.537 53.7895Z" fill="black"/>
<path d="M185.246 46.2719L189.211 46.3283C191.017 50.8096 192.124 56.1139 192.958 61.2609C193.244 63.0251 193.553 64.8467 193.848 66.6886L185.017 66.6158L176.31 72.7523L173.103 62.5959L164.576 56.2115L173.245 50.0223L176.681 39.941L185.246 46.2719Z" fill="black"/>
<path d="M163.507 136.704L157.246 117.936L173.524 120.525L184.167 108.875L190.427 127.644L174.776 125.055L163.507 136.704Z" fill="black"/>
<path d="M181.926 65.8672C193.892 60.6766 205.631 61.167 208.146 66.9629C210.66 72.759 202.997 81.6657 191.03 86.8564C181.628 90.9348 172.367 91.5048 167.609 88.751C163.56 93.1292 152.95 96.2539 140.499 96.2539C124.557 96.2539 111.633 91.1323 111.633 84.8145C111.633 78.4966 124.557 73.375 140.499 73.375C151.19 73.375 160.524 75.6779 165.513 79.1006C167.952 74.3824 173.993 69.3082 181.926 65.8672Z" fill="#FCFCF1"/>
<path d="M181.926 65.8672L181.687 65.3167L181.687 65.3167L181.926 65.8672ZM208.146 66.9629L208.696 66.7241L208.696 66.7241L208.146 66.9629ZM191.03 86.8564L191.269 87.4069L191.269 87.4069L191.03 86.8564ZM167.609 88.751L167.91 88.2317L167.495 87.9913L167.169 88.3436L167.609 88.751ZM140.499 96.2539L140.499 96.8539L140.499 96.8539L140.499 96.2539ZM111.633 84.8145L111.033 84.8144V84.8145H111.633ZM140.499 73.375L140.499 72.775H140.499V73.375ZM165.513 79.1006L165.173 79.5953L165.734 79.9798L166.046 79.3761L165.513 79.1006ZM181.926 65.8672L182.165 66.4176C188.083 63.8503 193.919 62.7009 198.555 62.8946C203.237 63.0902 206.481 64.6338 207.595 67.2017L208.146 66.9629L208.696 66.7241C207.296 63.4961 203.413 61.8965 198.605 61.6956C193.752 61.4928 187.735 62.6934 181.687 65.3167L181.926 65.8672ZM208.146 66.9629L207.595 67.2017C208.709 69.7696 207.62 73.1928 204.563 76.7454C201.537 80.2629 196.71 83.7386 190.792 86.306L191.03 86.8564L191.269 87.4069C197.317 84.7835 202.305 81.2105 205.473 77.528C208.611 73.8804 210.096 69.9522 208.696 66.7241L208.146 66.9629ZM191.03 86.8564L190.792 86.306C186.144 88.3219 181.543 89.4651 177.533 89.7675C173.507 90.071 170.141 89.5234 167.91 88.2317L167.609 88.751L167.309 89.2702C169.835 90.7324 173.478 91.2767 177.623 90.9641C181.783 90.6504 186.514 89.4694 191.269 87.4069L191.03 86.8564ZM167.609 88.751L167.169 88.3436C165.255 90.4129 161.716 92.2499 157.042 93.5668C152.387 94.8783 146.678 95.6539 140.499 95.6539L140.499 96.2539L140.499 96.8539C146.772 96.8539 152.593 96.0671 157.368 94.7218C162.124 93.3818 165.914 91.4673 168.05 89.1584L167.609 88.751ZM140.499 96.2539V95.6539C132.584 95.6539 125.446 94.3815 120.309 92.3456C117.738 91.327 115.699 90.129 114.312 88.8294C112.925 87.5308 112.233 86.1737 112.233 84.8145H111.633H111.033C111.033 86.6142 111.956 88.2665 113.491 89.7051C115.025 91.1427 117.213 92.4097 119.866 93.4612C125.177 95.5656 132.472 96.8539 140.499 96.8539V96.2539ZM111.633 84.8145L112.233 84.8145C112.233 83.4553 112.926 82.0982 114.312 80.7995C115.699 79.4999 117.738 78.302 120.309 77.2833C125.446 75.2475 132.584 73.975 140.499 73.975V73.375V72.775C132.472 72.775 125.177 74.0633 119.867 76.1677C117.213 77.2192 115.025 78.4863 113.491 79.9239C111.956 81.3624 111.033 83.0147 111.033 84.8144L111.633 84.8145ZM140.499 73.375L140.499 73.975C151.135 73.975 160.328 76.271 165.173 79.5953L165.513 79.1006L165.852 78.6058C160.72 75.0848 151.245 72.775 140.499 72.775L140.499 73.375ZM165.513 79.1006L166.046 79.3761C168.398 74.8267 174.301 69.8285 182.165 66.4176L181.926 65.8672L181.687 65.3167C173.685 68.7878 167.506 73.938 164.98 78.825L165.513 79.1006Z" fill="black"/>
<ellipse cx="140.498" cy="84.8141" rx="20.662" ry="6.77114" fill="black"/>
<ellipse cx="186.478" cy="76.3608" rx="16.7361" ry="7.22271" transform="rotate(-23.4493 186.478 76.3608)" fill="black"/>
<path d="M98.3056 118.201L95.7599 109.336L89.559 111.85C87.5144 112.679 86.527 115.006 87.3521 117.053L92.5488 129.94L92.0549 151.629L86.6618 141.714L53.748 160.981L61.7758 178.91L73.0146 173.558L88.327 186.746C90.7919 188.869 94.4995 188.641 96.6857 186.232L106.731 175.163L154.362 164.995L144.997 136.095L138.842 137.968L98.3056 118.201Z" fill="black"/>
<path d="M139.158 137.668L148.339 166.23" stroke="white" stroke-width="1.2"/>
<path d="M88.2919 120.098L95.8948 137.487C96.9679 139.941 100.103 140.668 102.147 138.935L111.32 131.158V143.883C111.32 146.542 113.865 148.461 116.421 147.729L140.198 140.919M135.464 150.916L126.38 165.152M102.104 180.526L122.03 156.918M108.36 162.688C104.321 155.548 95.5986 150.758 95.7378 149.792C95.9215 148.516 104.874 152.014 108.792 153.889C107.281 151.7 100.858 146.928 95.7378 145.895M66.3652 176.727L98.0395 161.149L91.9089 151.7" stroke="white" stroke-width="1.2"/>
<path d="M153.792 167.988L154.365 181.128L144.227 179.04L149.944 167.195L153.792 167.988ZM151.494 175.092C150.964 174.29 149.963 174.018 149.257 174.484C148.551 174.951 148.408 175.979 148.938 176.781C149.468 177.583 150.47 177.856 151.176 177.39C151.882 176.923 152.024 175.894 151.494 175.092Z" fill="black"/>
<path d="M225.554 140.801C222.373 138.032 223.717 132.284 235.587 132.994C250.318 133.874 251.862 141.685 245.101 143.06C247.676 144.199 248.901 148.191 249.293 151.84C250.394 149.353 252.271 147.215 255.044 147.59C263.427 148.723 260.114 164.904 256.561 168.003C252.374 171.656 244.088 168.003 238.092 161.952C239.352 164.55 242.612 169.988 248.558 173.516C259.027 179.727 254.416 193.151 242.596 187.072C237.454 184.427 233.465 178.584 229.253 169.451C229.253 175.059 230.361 180.961 232.458 185.422C236.272 193.533 227.595 200.706 220.873 193.246C216.872 188.807 213.614 172.84 218.63 153.221C216.912 159.944 213.44 172.549 208.328 171.656C196.61 169.608 207 139.668 225.554 140.801Z" fill="#FCFCF1"/>
<path d="M225.934 159.266L226.472 150.719M232.05 149.611V157.465M237.861 148.194L238.255 155.581M225.554 140.801C222.373 138.032 223.717 132.284 235.587 132.994C250.318 133.874 251.862 141.685 245.101 143.06C250.165 145.3 250.009 158.573 248.558 158.573C247.108 158.573 248.819 146.749 255.044 147.59C263.427 148.723 260.114 164.904 256.561 168.003C252.374 171.656 244.088 168.003 238.092 161.952C239.352 164.55 242.612 169.988 248.558 173.516C259.027 179.727 254.416 193.151 242.596 187.072C237.454 184.427 233.465 178.584 229.253 169.451C229.253 175.059 230.361 180.961 232.458 185.422C236.272 193.533 227.595 200.706 220.873 193.246C216.872 188.807 213.614 172.84 218.63 153.221C216.912 159.944 213.44 172.549 208.328 171.656C196.61 169.608 207 139.668 225.554 140.801Z" stroke="black" stroke-width="1.2"/>
<path d="M181.709 323.984C188.724 323.985 193.831 328.751 193.831 333.973C193.831 339.194 188.724 343.962 181.709 343.962C174.694 343.962 169.586 339.195 169.586 333.973C169.586 328.751 174.694 323.984 181.709 323.984Z" fill="#FCFCF1" stroke="black" stroke-width="4"/>
<ellipse cx="181.708" cy="333.974" rx="4.86059" ry="4.1261" fill="black"/>
<path d="M282.986 316.125C290.001 316.125 295.108 320.892 295.108 326.113C295.108 331.335 290.001 336.102 282.986 336.103C275.971 336.103 270.863 331.335 270.863 326.113C270.864 320.892 275.972 316.125 282.986 316.125Z" fill="#FCFCF1" stroke="black" stroke-width="4"/>
<ellipse cx="282.986" cy="326.114" rx="4.86059" ry="4.1261" fill="black"/>
<ellipse cx="151.048" cy="289.955" rx="1.58129" ry="2.04788" transform="rotate(-52.029 151.048 289.955)" fill="black"/>
<ellipse cx="158.263" cy="295.584" rx="1.58129" ry="2.04788" transform="rotate(-52.029 158.263 295.584)" fill="black"/>
<ellipse cx="155.65" cy="284.064" rx="1.58129" ry="2.04788" transform="rotate(-52.029 155.65 284.064)" fill="black"/>
<ellipse cx="162.861" cy="289.693" rx="1.58129" ry="2.04788" transform="rotate(-52.029 162.861 289.693)" fill="black"/>
<path d="M135.786 333.411L97.7554 330.551M132.01 320.241L113.366 314.038" stroke="black" stroke-width="1.2"/>
<path d="M72.0175 134.23C83.3278 137.35 74.6176 150.35 57.9772 153.47L72.0175 161.141L26.2566 164.001L44.717 151.61V150.35C24.5629 154.092 18.3078 146.47 23.1437 138.586C15.3435 138.586 12.0863 129.29 18.9764 122.79C16.8531 122.833 12.2267 119.898 12.7362 114.21C13.5162 105.499 30.0265 101.729 44.717 109.009V101.729C24.8602 99.0453 22.2955 88.9325 22.7465 65.8485C33.6865 58.5927 55.1698 57.4862 69.8076 65.8485C70.6544 88.5731 67.5655 97.939 49.6571 102.899V110.959C57.1972 103.549 73.4216 97.6731 79.0377 106.409C85.2005 115.996 76.6977 128.596 72.0175 134.23Z" fill="#FCFCF1"/>
<path d="M57.9772 153.47C74.6176 150.35 83.3278 137.35 72.0175 134.23C76.6977 128.596 85.2005 115.996 79.0377 106.409C73.4216 97.6731 57.1972 103.549 49.6571 110.959M57.9772 153.47L72.0175 161.141L26.2566 164.001L44.717 151.61V150.35M57.9772 153.47L51.5281 150.35L50.8759 139.063M49.6571 110.959V102.899C67.5655 97.939 70.6544 88.5731 69.8076 65.8485M49.6571 110.959C49.1579 111.45 48.793 111.854 48.4183 112.409M69.8076 65.8485C55.1698 57.4862 33.6865 58.5927 22.7465 65.8485M69.8076 65.8485C57.2436 74.4782 36.4649 74.465 22.7465 65.8485M22.7465 65.8485C22.2955 88.9325 24.8602 99.0453 44.717 101.729V109.009M44.717 109.009C30.0265 101.729 13.5162 105.499 12.7362 114.21C12.2267 119.898 16.8531 122.833 18.9764 122.79M44.717 109.009C45.5628 109.51 47.6573 111.148 48.4183 112.409M18.9764 122.79C12.0863 129.29 15.3435 138.586 23.1437 138.586M18.9764 122.79C29.3988 115.51 45.5619 117.776 48.4183 124.183C49.6864 127.028 48.4183 129.439 46.5589 130.589M23.1437 138.586C18.3078 146.47 24.5629 154.092 44.717 150.35M23.1437 138.586C28.1898 129.807 48.2697 127.292 51.7915 134.23M44.717 150.35V143.181M70.7175 117.59C50.2016 133.371 43.1344 120.234 48.4183 112.409M51.7915 134.23C53.6499 137.891 49.3586 141.011 44.717 143.181M51.7915 134.23C52.0459 132.28 53.9161 128.263 59.3616 127.791M35.2333 145.997C37.6183 145.298 41.4749 144.697 44.717 143.181M50.5841 132.69L50.3815 124.129" stroke="black" stroke-width="1.2"/>
<path d="M28.3984 78.9031C43.4922 75.8736 60.6442 81.3433 63.4087 86.8512C56.1683 102.26 27.5115 99.3331 28.3984 78.9031Z" fill="#D56262"/>
</svg>
