<svg width="120" height="100" viewBox="0 0 120 100" fill="none" xmlns="http://www.w3.org/2000/svg">
<g clip-path="url(#clip0_3044_13588)">
<rect opacity="0.32" x="9.9397" y="62.8136" width="91.1362" height="7" transform="rotate(-11.7556 9.9397 62.8136)" fill="var(--clr-theme-scale-ntrl-60)"/>
<path opacity="0.27" d="M41.2719 20.5983C42.0166 22.7014 40.15 25.4704 36.6371 28.074C41.0057 27.887 44.1988 28.8645 44.9434 30.9675C45.6881 33.0705 43.8215 35.8395 40.3087 38.4432C44.6772 38.2562 47.8703 39.2337 48.615 41.3367C49.9053 44.981 43.3547 50.6251 33.9836 53.9432C24.6126 57.2613 15.9698 56.9969 14.6794 53.3526C13.9348 51.2495 15.8014 48.4805 19.3142 45.8769C14.9457 46.0639 11.7526 45.0864 11.0079 42.9834C10.2633 40.8804 12.1298 38.1114 15.6427 35.5077C11.2742 35.6947 8.08106 34.7172 7.33642 32.6142C6.04605 28.9699 12.5967 23.3258 21.9678 20.0077C31.3388 16.6896 39.9816 16.954 41.2719 20.5983Z" fill="var(--clr-theme-scale-ntrl-60)"/>
<path opacity="0.17" d="M46.97 7.26501L87.0563 2.14758L89.1848 18.8209L101.011 25.4781L102.714 40.8168L52.0784 47.2809L46.97 7.26501Z" fill="var(--clr-theme-scale-pop-50)"/>
<path opacity="0.5" d="M58.7361 27.0385L69.2679 33.475L78.6941 18.0709" stroke="var(--clr-theme-scale-pop-50)" stroke-width="4"/>
<ellipse opacity="0.17" cx="31.386" cy="81.3788" rx="11.999" ry="15.4123" transform="rotate(-134.891 31.386 81.3788)" fill="var(--clr-theme-scale-ntrl-60)"/>
<path opacity="0.21" d="M97.4642 62.4342L116.948 92.8499L82.0197 95.087L97.4642 62.4342Z" fill="var(--clr-theme-scale-ntrl-60)"/>
<path opacity="0.32" fill-rule="evenodd" clip-rule="evenodd" d="M63.1736 95.5492L68.2287 77.4483C68.5396 76.3351 67.8892 75.1806 66.776 74.8697C65.6628 74.5588 64.5083 75.2093 64.1974 76.3225L59.1422 94.4233L45.6582 90.6575L50.7134 72.5567C53.1041 63.9965 61.9815 58.995 70.5418 61.3857C79.102 63.7764 84.1034 72.6539 81.7128 81.2141L76.6576 99.3149L63.1736 95.5492Z" fill="var(--clr-theme-scale-ntrl-60)"/>
</g>
</svg>
