<svg xmlns="http://www.w3.org/2000/svg" width="7.5625rem" height="6.25rem" viewBox="0 0 121 100"
  fill="none">
  <g clip-path="url(#clip0_14731_73005)">
    <path opacity="0.39"
      d="M94.5 22.9C94.5 16.448 94.5 13.2221 93.0672 10.8421C92.2258 9.44464 91.0554 8.27419 89.6579 7.43282C87.2779 6 84.052 6 77.6 6H23.4C16.948 6 13.7221 6 11.3421 7.43282C9.94464 8.27419 8.77419 9.44464 7.93282 10.8421C6.5 13.2221 6.5 16.448 6.5 22.9V68.1C6.5 74.552 6.5 77.7779 7.93282 80.1579C8.77419 81.5554 9.94464 82.7258 11.3421 83.5672C13.7221 85 16.948 85 23.4 85H79.6M94.5 56.1V36"
      stroke="var(--clr-core-ntrl-50)" stroke-width="1.2" />
    <g opacity="0.59">
      <rect opacity="0.53" x="15.5" y="15" width="26" height="5" rx="2.5"
        fill="var(--clr-core-ntrl-60)" />
      <rect opacity="0.53" x="15.5" y="24" width="26" height="37" rx="4"
        fill="var(--clr-core-ntrl-60)" />
      <rect opacity="0.53" x="15.5" y="66" width="26" height="10" rx="4"
        fill="var(--clr-core-ntrl-60)" />
    </g>
    <path opacity="0.39"
      d="M115.343 75.2149L102.763 78.3083L101.978 78.5017L102.391 79.1978L110.962 93.6276L101.861 98.9755L93.0851 84.202L92.7106 83.5709L92.1667 84.0637L83.153 92.2311L81.2967 52.4127L115.343 75.2149Z"
      stroke="#867E79" stroke-width="1.2" />
    <path opacity="0.38"
      d="M54.8157 36.2259L59.7538 32.8085C62.5999 30.8388 64.353 27.6443 64.4859 24.1856L64.7286 17.8688L68.2195 23.139C70.1309 26.0246 73.289 27.8423 76.7443 28.0455L82.7392 28.3981L77.8012 31.8155C74.955 33.7852 73.2019 36.9797 73.0691 40.4384L72.8264 46.7552L69.3354 41.485C67.424 38.5994 64.2659 36.7817 60.8106 36.5785L54.8157 36.2259Z"
      fill="var(--clr-core-pop-50)" />
    <path opacity="0.37"
      d="M68.4023 60.7761L71.8777 70.7172L62.878 76.1864L59.4027 66.2452L68.4023 60.7761Z"
      fill="var(--clr-core-pop-50)" />
    <path opacity="0.6" d="M85 39.5L100 24" stroke="var(--clr-core-pop-50)" stroke-width="2" />
    <path opacity="0.6" d="M69.005 52.2059L50.4955 53.5835" stroke="var(--clr-core-pop-50)"
      stroke-width="2" />
    <ellipse opacity="0.37" cx="106.193" cy="47.908" rx="5" ry="7.5"
      transform="rotate(24.8976 106.193 47.908)" fill="var(--clr-core-pop-50)" />
  </g>
  <defs>
    <clipPath>
      <rect width="120" height="100" fill="white" transform="translate(0.5)" />
    </clipPath>
  </defs>
</svg>