<svg xmlns="http://www.w3.org/2000/svg" width="7.5rem" height="6.25rem" viewBox="0 0 120 100"
  fill="none">
  <g id="I8774:23540;5736:93340;6796:7620;4807:10036" clip-path="url(#clip0_8795_37803)">
    <g id="I8774:23540;5736:93340;6796:7620;4807:10036;6796:7657">
      <path id="I8774:23540;5736:93340;6796:7620;4807:10036;6796:7658" opacity="0.2"
        d="M31.2906 77.9607L79.6789 74.9099C86.5883 74.4743 90.0429 74.2565 92.4948 72.5614C93.9346 71.5661 95.109 70.2336 95.9156 68.6802C97.2894 66.0348 97.0715 62.5802 96.6359 55.6708L94.9405 28.7796C94.5049 21.8703 94.2871 18.4156 92.592 15.9637C91.5966 14.5239 90.2642 13.3495 88.7108 12.5429C86.0654 11.1692 82.6107 11.387 75.7014 11.8226L46.7343 13.6489C45.0722 13.7536 44.2412 13.806 43.5073 13.9566C39.8556 14.7059 36.8545 17.2968 35.5802 20.8001C35.3241 21.5041 35.151 22.3186 34.8048 23.9476L31.9597 37.3329C31.4563 39.7014 31.2046 40.8856 30.7284 41.9399C30.0285 43.4896 28.9703 44.8507 27.6411 45.9111C26.7368 46.6325 25.6362 47.1759 23.435 48.2626C20.5612 49.6814 19.1241 50.3909 18.0371 51.3606C16.3267 52.8865 15.1499 54.92 14.6791 57.1633C14.3798 58.5889 14.4792 60.1655 14.678 63.3187C14.9668 67.8993 15.1112 70.1897 15.9156 71.9732C17.1837 74.7849 19.6004 76.915 22.5491 77.8199C24.4196 78.3939 26.7099 78.2495 31.2906 77.9607Z"
        fill="var(--clr-core-ntrl-60)" />
      <path id="I8774:23540;5736:93340;6796:7620;4807:10036;6796:7679" opacity="0.7"
        d="M80.469 68.2519L54.7456 69.8737C52.1585 70.0368 50.2595 70.1559 48.7598 70.1102C47.2688 70.0646 46.2337 69.8564 45.3605 69.403C44.2892 68.8467 43.3703 68.0368 42.6839 67.0439C42.1244 66.2346 41.7878 65.2338 41.5554 63.7603C41.3216 62.2782 41.2013 60.3794 41.0382 57.7923L39.4147 32.0426C39.2516 29.4555 39.1325 27.5566 39.1783 26.0569C39.2238 24.5659 39.432 23.5307 39.8854 22.6576C40.4417 21.5863 41.2517 20.6674 42.2446 19.9809C43.0539 19.4214 44.0547 19.0849 45.5281 18.8525C47.0102 18.6187 48.9091 18.4984 51.4962 18.3353L77.2197 16.7134C79.8068 16.5503 81.7057 16.4312 83.2054 16.477C84.6964 16.5225 85.7315 16.7307 86.6047 17.1841C87.676 17.7404 88.5949 18.5504 89.2813 19.5433C89.8408 20.3526 90.1774 21.3534 90.4098 22.8268C90.6436 24.309 90.7639 26.2078 90.927 28.7949L92.5505 54.5445C92.7136 57.1316 92.8327 59.0306 92.7869 60.5303C92.7414 62.0213 92.5332 63.0564 92.0798 63.9296C91.5235 65.0008 90.7136 65.9198 89.7206 66.6062C88.9113 67.1657 87.9105 67.5023 86.4371 67.7347C84.955 67.9685 83.0561 68.0888 80.469 68.2519Z"
        stroke="var(--clr-core-ntrl-50)" stroke-width="1.2" />
      <path id="I8774:23540;5736:93340;6796:7620;4807:10036;6796:7664" opacity="0.4"
        d="M32.5062 90.9537L44.9037 77.1023L65.5323 75.8017L82.5755 87.797L32.5062 90.9537Z"
        fill="var(--clr-core-ntrl-50)" />
      <path id="I8774:23540;5736:93340;6796:7620;4807:10036;6796:7674" opacity="0.4"
        d="M51.172 39.8922C49.8231 39.9867 48.7573 39.5749 47.9747 38.6565C47.192 37.7382 46.7364 36.3625 46.6079 34.5294C46.4794 32.6962 46.7386 31.2704 47.3855 30.2519C48.0324 29.2333 49.0303 28.6768 50.3792 28.5822C51.7281 28.4876 52.7939 28.8995 53.5766 29.8179C54.3593 30.7362 54.8149 32.1119 54.9434 33.945C55.0719 35.7782 54.8127 37.204 54.1657 38.2225C53.5188 39.2411 52.5209 39.7976 51.172 39.8922ZM51.0678 38.4049C51.9094 38.3459 52.5192 37.9556 52.8973 37.234C53.2861 36.5 53.432 35.4413 53.3351 34.0578C53.3141 33.758 53.2831 33.4821 53.2423 33.2301C53.2006 32.9666 53.1487 32.7211 53.0864 32.4938L48.9954 37.3511C49.4777 38.1167 50.1685 38.468 51.0678 38.4049ZM48.4648 35.9806L52.5559 31.1233C52.0735 30.3577 51.3827 30.0064 50.4835 30.0694C49.6418 30.1284 49.0266 30.5249 48.6378 31.2589C48.2597 31.9806 48.1192 33.0331 48.2162 34.4166C48.2364 34.7048 48.2673 34.9807 48.3089 35.2443C48.3506 35.5078 48.4026 35.7533 48.4648 35.9806ZM57.2289 39.2591L57.127 37.8064L60.3264 37.5821L59.839 30.6301L57.6144 32.6108L56.819 31.676L60.1587 28.0009L61.2482 27.9245L61.9174 37.4706L65.1167 37.2463L65.2185 38.699L57.2289 39.2591ZM67.2605 38.5558L67.1587 37.1032L70.358 36.8789L69.8706 29.9269L67.646 31.9076L66.8506 30.9728L70.1903 27.2977L71.2798 27.2213L71.949 36.7674L75.1483 36.5431L75.2501 37.9958L67.2605 38.5558ZM81.2669 37.7825C79.918 37.8771 78.8522 37.4652 78.0695 36.5469C77.2868 35.6285 76.8312 34.2528 76.7027 32.4197C76.5742 30.5866 76.8334 29.1607 77.4803 28.1422C78.1273 27.1236 79.1252 26.5671 80.4741 26.4725C81.823 26.378 82.8888 26.7899 83.6714 27.7082C84.4541 28.6265 84.9097 30.0023 85.0382 31.8354C85.1667 33.6685 84.9075 35.0943 84.2606 36.1129C83.6137 37.1314 82.6158 37.688 81.2669 37.7825ZM81.1626 36.2953C82.0043 36.2363 82.6141 35.846 82.9922 35.1243C83.381 34.3903 83.5269 33.3316 83.4299 31.9481C83.4089 31.6484 83.378 31.3725 83.3371 31.1204C83.2955 30.8569 83.2435 30.6114 83.1813 30.3841L79.0902 35.2414C79.5726 36.007 80.2634 36.3583 81.1626 36.2953ZM78.5597 33.871L82.6507 29.0136C82.1684 28.248 81.4776 27.8967 80.5783 27.9598C79.7367 28.0188 79.1215 28.4153 78.7327 29.1493C78.3546 29.8709 78.214 30.9235 78.311 32.307C78.3312 32.5952 78.3622 32.8711 78.4038 33.1346C78.4455 33.3982 78.4974 33.6436 78.5597 33.871ZM48.6658 60.9109L48.5639 59.4582L51.7632 59.2339L51.2759 52.2819L49.0513 54.2626L48.2558 53.3278L51.5956 49.6527L52.6851 49.5764L53.3542 59.1224L56.5536 58.8981L56.6554 60.3508L48.6658 60.9109ZM62.6722 60.1376C61.3233 60.2321 60.2575 59.8202 59.4748 58.9019C58.6921 57.9836 58.2365 56.6078 58.108 54.7747C57.9795 52.9416 58.2387 51.5158 58.8856 50.4972C59.5325 49.4787 60.5304 48.9221 61.8793 48.8276C63.2282 48.733 64.294 49.1449 65.0767 50.0632C65.8594 50.9816 66.315 52.3573 66.4435 54.1904C66.572 56.0235 66.3128 57.4494 65.6659 58.4679C65.019 59.4865 64.0211 60.043 62.6722 60.1376ZM62.5679 58.6503C63.4095 58.5913 64.0194 58.201 64.3975 57.4793C64.7863 56.7454 64.9322 55.6866 64.8352 54.3031C64.8142 54.0034 64.7832 53.7275 64.7424 53.4755C64.7008 53.2119 64.6488 52.9665 64.5865 52.7391L60.4955 57.5965C60.9778 58.3621 61.6686 58.7134 62.5679 58.6503ZM59.965 56.226L64.056 51.3687C63.5736 50.6031 62.8828 50.2518 61.9836 50.3148C61.142 50.3738 60.5267 50.7703 60.1379 51.5043C59.7599 52.2259 59.6193 53.2785 59.7163 54.662C59.7365 54.9502 59.7674 55.2261 59.8091 55.4896C59.8507 55.7532 59.9027 55.9987 59.965 56.226ZM68.729 59.5044L68.6272 58.0518L71.8265 57.8275L71.3391 50.8755L69.1145 52.8562L68.3191 51.9214L71.6588 48.2463L72.7483 48.1699L73.4175 57.716L76.6168 57.4917L76.7186 58.9444L68.729 59.5044ZM82.7354 58.7311C81.3865 58.8257 80.3207 58.4138 79.538 57.4955C78.7553 56.5771 78.2997 55.2014 78.1712 53.3683C78.0427 51.5352 78.3019 50.1093 78.9488 49.0908C79.5958 48.0722 80.5937 47.5157 81.9426 47.4211C83.2915 47.3266 84.3573 47.7385 85.1399 48.6568C85.9226 49.5751 86.3782 50.9508 86.5067 52.784C86.6352 54.6171 86.376 56.0429 85.7291 57.0615C85.0822 58.08 84.0843 58.6366 82.7354 58.7311ZM82.6311 57.2439C83.4728 57.1849 84.0826 56.7946 84.4607 56.0729C84.8495 55.3389 84.9954 54.2802 84.8984 52.8967C84.8774 52.597 84.8465 52.3211 84.8057 52.069C84.764 51.8055 84.712 51.56 84.6498 51.3327L80.5587 56.19C81.0411 56.9556 81.7319 57.3069 82.6311 57.2439ZM80.0282 54.8196L84.1192 49.9622C83.6369 49.1966 82.9461 48.8453 82.0468 48.9084C81.2052 48.9674 80.59 49.3639 80.2012 50.0978C79.8231 50.8195 79.6825 51.8721 79.7795 53.2555C79.7997 53.5438 79.8307 53.8197 79.8723 54.0832C79.914 54.3468 79.9659 54.5922 80.0282 54.8196Z"
        fill="var(--clr-scale-ntrl-20)" />
    </g>
    <g id="I8774:23540;5736:93340;6796:7620;4807:10036;6797:7855" opacity="0.3">
      <g id="I8774:23540;5736:93340;6796:7620;4807:10036;6797:8147">
        <rect id="I8774:23540;5736:93340;6796:7620;4807:10036;6797:7720" x="114" y="61"
          width="3.20122" height="3.20122" fill="var(--clr-core-ntrl-60)" />
        <rect id="I8774:23540;5736:93340;6796:7620;4807:10036;6797:7767" x="106" y="34"
          width="3.20122" height="3.20122" fill="var(--clr-core-ntrl-60)" />
        <rect id="I8774:23540;5736:93340;6796:7620;4807:10036;6797:7786" x="117" y="44"
          width="3.20122" height="3.20122" fill="var(--clr-core-ntrl-60)" />
        <rect id="I8774:23540;5736:93340;6796:7620;4807:10036;6797:7807" x="106" y="51"
          width="3.20122" height="3.20122" fill="var(--clr-core-ntrl-60)" />
      </g>
      <g id="I8774:23540;5736:93340;6796:7620;4807:10036;6797:8130">
        <rect id="I8774:23540;5736:93340;6796:7620;4807:10036;6797:7691" x="11" y="12"
          width="3.20122" height="3.20122" fill="var(--clr-core-ntrl-60)" />
        <rect id="I8774:23540;5736:93340;6796:7620;4807:10036;6797:7705" x="17" y="26"
          width="3.20122" height="3.20122" fill="var(--clr-core-ntrl-60)" />
        <rect id="I8774:23540;5736:93340;6796:7620;4807:10036;6797:7830" x="6" y="37"
          width="3.20122" height="3.20122" fill="var(--clr-core-ntrl-60)" />
      </g>
    </g>
  </g>
</svg>