<svg width="7.5rem" height="6.25rem" viewBox="0 0 120 100" fill="none"
  xmlns="http://www.w3.org/2000/svg">
  <rect opacity="0.32" x="9.9397" y="62.8135" width="91.1362" height="7"
    transform="rotate(-11.7556 9.9397 62.8135)" fill="var(--clr-core-ntrl-60)" />
  <path opacity="0.21"
    d="M41.2719 20.5983C42.0166 22.7014 40.15 25.4704 36.6371 28.074C41.0057 27.887 44.1988 28.8645 44.9434 30.9675C45.6881 33.0705 43.8215 35.8395 40.3087 38.4432C44.6772 38.2562 47.8703 39.2337 48.615 41.3367C49.9053 44.981 43.3547 50.6251 33.9836 53.9432C24.6126 57.2613 15.9698 56.9969 14.6794 53.3526C13.9348 51.2495 15.8014 48.4805 19.3142 45.8769C14.9457 46.0639 11.7526 45.0864 11.0079 42.9834C10.2633 40.8804 12.1298 38.1114 15.6427 35.5077C11.2742 35.6947 8.08106 34.7172 7.33642 32.6142C6.04605 28.9699 12.5967 23.3258 21.9678 20.0077C31.3388 16.6896 39.9816 16.954 41.2719 20.5983Z"
    fill="var(--clr-core-ntrl-60)" />
  <path opacity="0.24"
    d="M48.2363 17.1845C47.5369 11.7061 51.4111 6.698 56.8895 5.99863L77.1368 3.41385C82.6152 2.71448 87.6232 6.58863 88.3226 12.067L88.5486 13.8374C88.9489 16.9729 90.8081 19.7346 93.5627 21.2852L96.5431 22.963C99.3481 24.542 101.221 27.3746 101.577 30.5738L101.628 31.0395C102.231 36.4651 98.3706 41.3711 92.9557 42.0624L61.9979 46.0145C56.5195 46.7139 51.5115 42.8397 50.8121 37.3613L48.2363 17.1845Z"
    fill="var(--clr-core-pop-50)" />
  <path opacity="0.68" d="M58.7361 26.0386L69.2679 32.475L78.6941 17.0709"
    stroke="var(--clr-core-pop-50)" stroke-width="4" />
  <ellipse opacity="0.17" cx="31.386" cy="81.3788" rx="11.999" ry="15.4123"
    transform="rotate(-134.891 31.386 81.3788)" fill="var(--clr-core-ntrl-60)" />
  <path opacity="0.19" d="M97.4642 62.4342L116.948 92.8499L82.0197 95.087L97.4642 62.4342Z"
    fill="var(--clr-core-ntrl-60)" />
  <path opacity="0.32" fill-rule="evenodd" clip-rule="evenodd"
    d="M63.1736 95.5492L68.2287 77.4483C68.5396 76.3351 67.8892 75.1806 66.776 74.8697C65.6628 74.5588 64.5083 75.2093 64.1974 76.3225L59.1422 94.4233L45.6582 90.6575L50.7134 72.5567C53.1041 63.9965 61.9815 58.995 70.5418 61.3857C79.102 63.7764 84.1034 72.6539 81.7128 81.2141L76.6576 99.3149L63.1736 95.5492Z"
    fill="var(--clr-core-ntrl-60)" />
</svg>