<svg xmlns="http://www.w3.org/2000/svg" width="180" height="120" viewBox="0 0 180 120" fill="none">
  <g id="6485:16494" clip-path="url(#clip0_6485_16494)">
    <g id="6485:16490">
      <path id="6485:16481" opacity="0.27"
        d="M83 57V24H65L87 119.5H2V49C2 24.6995 21.6995 5 46 5H63C81.7777 5 97 20.2223 97 39V57"
        stroke="var(--clr-scale-ntrl-10)" />
      <path id="6485:16488" opacity="0.15"
        d="M46 13H44C25.2223 13 10 28.2223 10 47V51.4902M67.5 77.1634L70 87.5M65.5 15.4542H73.5"
        stroke="var(--clr-scale-ntrl-10)" />
    </g>
    <g id="6485:16422">
      <circle id="6485:16424" cx="21" cy="72" r="11" fill="var(--clr-scale-pop-70)" />
      <circle id="6485:16425" cx="65.5" cy="60.5" r="11.5" fill="var(--clr-scale-pop-70)" />
      <circle id="6485:16426" cx="42.5" cy="34.5" r="14.5" fill="var(--clr-scale-pop-70)" />
      <path id="6485:16427"
        d="M42.2449 100V87.718M42.2449 27V36.7844M42.2449 87.718L25.7449 75.1213M42.2449 87.718V75.0647M16.5 68L23.051 73.0647M42.2449 41.8009L51 36.2654M42.2449 41.8009V36.7844M42.2449 41.8009V75.0647M42.2449 36.7844L34.5 30M23.051 73.0647L24.5 64.5M23.051 73.0647L25.7449 75.1213M25.7449 75.1213L17 78M42.2449 75.0647L60 63.9012M69.5 58L63.5 61.7006M60 63.9012L67 67M60 63.9012L63.5 61.7006M63.5 61.7006V55"
        stroke="var(--clr-core-pop-55)" stroke-width="2" />
      <path id="6485:16423" d="M21.7949 120H61.2051L68 96H15L21.7949 120Z"
        fill="var(--clr-scale-pop-70)" />
      <path id="6485:16491" d="M15 93H68V102H15V93Z" fill="var(--clr-scale-pop-60)" />
    </g>
    <g id="6485:16473">
      <path id="6485:16474" opacity="0.5"
        d="M157.288 60.1731H164.851C171.343 60.1731 176.606 65.4359 176.606 71.9279C176.606 78.4199 171.343 83.6827 164.851 83.6827H157.288V60.1731Z"
        stroke="var(--clr-core-ntrl-55)" stroke-width="6" />
      <path id="6485:16475" opacity="0.32" fill-rule="evenodd" clip-rule="evenodd"
        d="M109.077 110.651V120H110.961L113.411 110.633L109.077 110.651ZM112.201 120H132.544L135.018 110.542L114.653 110.628L112.201 120ZM133.784 120H154.126L154.288 119.38V110.461L136.26 110.537L133.784 120ZM154.288 89.4416V109.261L136.574 109.336L141.765 89.4943L154.288 89.4416ZM154.288 68.4222V88.2416L142.079 88.293L147.269 68.4518L154.288 68.4222ZM150.22 57.1731H154.288V67.2222L147.584 67.2504L150.22 57.1731ZM128.637 57.1731H148.98L146.342 67.2557L125.977 67.3414L128.637 57.1731ZM109.077 67.4126V57.1731H127.397L124.736 67.3466L109.077 67.4126ZM109.077 88.432V68.6126L124.421 68.548L119.231 88.3892L109.077 88.432ZM109.077 109.451V89.632L118.916 89.5906L113.726 109.432L109.077 109.451ZM125.663 68.5427L146.028 68.457L140.837 88.2982L120.472 88.384L125.663 68.5427ZM120.158 89.5853L140.523 89.4996L135.332 109.341L114.968 109.427L120.158 89.5853Z"
        fill="var(--clr-core-ntrl-60)" />
      <path id="6485:16478" d="M82 57H98.0385L109.077 88.5866V120H100.038L82 57Z"
        fill="var(--clr-scale-ntrl-60)" />
      <path id="6485:16479" opacity="0.5"
        d="M154.337 57.1731V50.3062C154.337 34.2191 137.731 23.4956 123.068 30.1142V30.1142C115.131 33.697 110.029 41.5977 110.029 50.3062V57.1731"
        stroke="var(--clr-core-ntrl-55)" stroke-width="2" />
    </g>
    <g id="6485:16487">
      <path id="6485:16483" opacity="0.18"
        d="M107.051 0.15361C117.396 11.4615 123.508 14.1046 134.849 11.3293C127.877 19.4336 126.306 25.4575 131.254 41.0733C120.718 28.7494 114.815 26.5954 103.456 29.8976C111.621 20.6743 112.251 14.1651 107.051 0.15361Z"
        fill="var(--clr-core-ntrl-55)" />
      <path id="6485:16484" opacity="0.3"
        d="M173.826 22.9035C172.678 31.1501 173.665 34.6093 178.667 38.3405C172.952 38.2856 169.931 39.7427 165.169 47.2592C166.673 38.5776 165.554 35.376 160.329 31.8221C166.911 31.9796 169.812 29.9632 173.826 22.9035Z"
        fill="var(--clr-core-ntrl-50)" />
      <ellipse id="6485:16485" opacity="0.2" cx="155.721" cy="15.1478" rx="8.66779" ry="10.1618"
        transform="rotate(42.4492 155.721 15.1478)" fill="var(--clr-core-ntrl-60)" />
    </g>
  </g>
</svg>