<svg xmlns="http://www.w3.org/2000/svg" fill="none" viewBox="0 0 14 14"><path fill="var(--file-icon-green, #16a34a)" d="M3.826 4.054c.227 0 .45.03.662.08a3.812 3.812 0 0 0 4.205 6.281c.304.108.65.171 1.07.224q.237.029.51.029a7 7 0 0 0 1.635-.218A6 6 0 0 1 1.001 7c0-.218-.01-.402.035-.645.492-1.672 1.672-2.29 2.79-2.301m2.926 3.054c.376 1.34.614 2.136 1.04 2.68q.097.12.209.222c-.314.104-.65.162-1 .163a3.2 3.2 0 0 1-1.093-.195 3 3 0 0 1-.012-.257c0-.209.022-.397.057-.548.098-.426.364-1.09.605-1.636.068-.154.134-.3.194-.429m-1.574-2.7c.178.102.34.223.472.363.262.267.554.858.757 1.367q.084.207.149.386c-.732 1.49-1.22 2.232-1.415 3.043A3.17 3.17 0 0 1 3.828 7a3.17 3.17 0 0 1 1.35-2.593"/><path fill="var(--file-icon-blue, #0ea5e9)" d="M7 1a6 6 0 0 1 5.95 6.766c-.163.649-.458 1.082-.809 1.378-.538.452-1.256.6-1.92.6q-.283-.002-.543-.032A3.812 3.812 0 0 0 5.466 3.51q-.087-.061-.182-.116a3.2 3.2 0 0 0-1.509-.367 3.05 3.05 0 0 0-1.65.478A5.99 5.99 0 0 1 7 1m0 2.827A3.18 3.18 0 0 1 10.175 7a3.17 3.17 0 0 1-1.3 2.558 2 2 0 0 1-.238-.081c-.124-.054-.306-.237-.471-.492-.253-.38-.484-.9-.647-1.322s-.259-.74-.26-.741V6.92c-.3-1.148-.61-2.197-1.253-2.932.313-.104.648-.161.996-.162"/></svg>