<svg xmlns="http://www.w3.org/2000/svg" fill="none" viewBox="0 0 14 14"><path fill="var(--file-icon-blue, #0ea5e9)" d="M8.367 5.869h-1.87a1.7 1.7 0 0 0-.209-.626 1.6 1.6 0 0 0-.405-.472 1.8 1.8 0 0 0-.572-.299 2.3 2.3 0 0 0-.696-.103q-.68 0-1.182.327-.504.323-.782.945-.277.617-.277 1.5 0 .907.277 1.525.282.617.786.932t1.165.315q.372 0 .687-.095.32-.095.568-.278.248-.186.41-.452.166-.264.23-.605l1.87.009q-.073.585-.363 1.127-.286.538-.772.965a3.7 3.7 0 0 1-1.153.672 4.4 4.4 0 0 1-1.507.244q-1.17 0-2.091-.514A3.7 3.7 0 0 1 1.029 9.5Q.5 8.525.5 7.14q0-1.389.538-2.362a3.7 3.7 0 0 1 1.46-1.483q.922-.514 2.074-.514.76 0 1.409.207.652.207 1.157.605.503.393.82.965.32.572.409 1.31m4.817-.848v1.325H9.138V5.02zm-3.12 6.364V4.559q0-.691.277-1.147.282-.456.769-.684a2.6 2.6 0 0 1 1.105-.228q.419 0 .764.062.35.063.521.112L13.176 4a2 2 0 0 0-.265-.062 1.7 1.7 0 0 0-.316-.03q-.4 0-.56.183-.156.178-.157.502v6.791z"/></svg>