<svg xmlns="http://www.w3.org/2000/svg" fill="none" viewBox="0 0 14 14"><path fill="var(--file-icon-pink, #f472b6)" d="m2.768 2.39-.061.066q-1.54 1.725-1.54 4.687 0 2.863 1.494 4.467h8.39c1.102-.497 1.782-1.482 1.782-1.482l-1.36-1.089-.628.597c-.374.334-.365.402-1 .769a4.8 4.8 0 0 1-2.002.417c-1.087 0-1.911-.393-2.473-.89-.556-.496-.858-1.949-.906-2.886l7.544.03-.08-.637s-.365-3.08-1.097-4.05zm3.785.365c.677 0 1.392.231 1.712.636s.402.72.42 1.522h-4.23c.048-.844.188-1.214.593-1.597.405-.384.877-.56 1.505-.56"/></svg>