<svg xmlns="http://www.w3.org/2000/svg" fill="none" viewBox="0 0 14 14"><path fill="var(--file-icon-pink, #f472b6)" d="M6.372 1.362a.713.713 0 0 1 1.241 0l1.427 2.53c.176.312.48.533.833.604l2.85.574a.71.71 0 0 1 .382 1.178l-1.967 2.136a1.24 1.24 0 0 0-.318.979l.334 2.884a.712.712 0 0 1-1.004.728l-2.643-1.208a1.24 1.24 0 0 0-1.03 0l-2.642 1.208a.712.712 0 0 1-1.004-.728l.334-2.884a1.24 1.24 0 0 0-.319-.979L.88 6.248a.71.71 0 0 1 .382-1.178l2.85-.574c.352-.071.657-.292.833-.605zm.098 6.094a.6.6 0 0 0-.105.032l-.098.052a.6.6 0 0 0-.085.069l-.07.085a.6.6 0 0 0-.053.097l-.032.106a.6.6 0 0 0 0 .22 1 1 0 0 0 .417.627l.083.05q.128.069.272.098l.095.014a1 1 0 0 0 .644-.16 1 1 0 0 0 .42-.625.564.564 0 0 0-.335-.63l-.106-.033-.11-.01a.57.57 0 0 0-.313.093.6.6 0 0 0-.101.09.6.6 0 0 0-.197-.142l-.106-.032-.11-.011zm-1.587-1.21a.816.816 0 1 0 0 1.631.816.816 0 0 0 0-1.631m4.22 0a.816.816 0 1 0 0 1.631.816.816 0 0 0 0-1.631"/></svg>