<svg xmlns="http://www.w3.org/2000/svg" fill="none" viewBox="0 0 14 14"><path fill="var(--file-icon-blue, #0ea5e9)" d="M12.714 10.078c-.014 3.875-11.428 3.875-11.428 0V9.53l1.881.168.07.969q.029.14.197.182l2.274.155q.168 0 .226-.155l.14-.913h1.853l.14.913q.057.155.225.155l2.274-.155q.169-.042.197-.182l.07-.969 1.88-.168zM8.334.7a8 8 0 0 1 1.726.589q-.013.716-.112 1.432.674.38 1.236.899a8 8 0 0 1 1.151-.66q.674.687 1.165 1.516-.364.59-.786 1.137v3.454l-2.134.196q-.168.015-.21.198l-.056.94-1.854.14-.112-.856q-.03-.155-.21-.21H5.863q-.182.056-.21.21l-.113.857-1.853-.14-.056-.941q-.042-.183-.211-.198l-2.134-.196V5.613Q.866 5.065.5 4.476A8 8 0 0 1 1.665 2.96q.604.28 1.151.66a6.5 6.5 0 0 1 1.236-.899 12 12 0 0 1-.113-1.432A8 8 0 0 1 5.666.7q.366.604.646 1.249a4.8 4.8 0 0 1 1.376 0Q7.97 1.304 8.334.7m-.927 6.135c0-.477-.814-.477-.814 0v1.208c0 .477.814.477.814 0zM4.01 5.74a1.264 1.264 0 1 0 0 2.528 1.264 1.264 0 0 0 0-2.528m5.906 0a1.264 1.264 0 1 0 0 2.528 1.264 1.264 0 0 0 0-2.528"/><path fill="var(--file-icon-blue, #0ea5e9)" d="M4.01 7.783a.78.78 0 1 0 0-1.559.78.78 0 0 0 0 1.559m5.906 0a.78.78 0 1 0 0-1.559.78.78 0 0 0 0 1.559"/></svg>