<svg xmlns="http://www.w3.org/2000/svg" fill="none" viewBox="0 0 14 14"><path fill="var(--file-icon-blue, #0ea5e9)" d="M13.24 2.633A2.25 2.25 0 0 0 11.707 2a2.26 2.26 0 0 0-1.553.581.2.2 0 0 0-.068.148c0 .056.023.11.063.15l.276.278a.214.214 0 0 0 .277.019c.219-.161.486-.248.761-.247.252-.001.499.07.709.206s.373.33.47.556a1.205 1.205 0 0 1-.277 1.35c-1.762 1.715-4.114-3.09-9.453-.618a.73.73 0 0 0-.384.426.7.7 0 0 0 .06.563l.916 1.54a.74.74 0 0 0 .981.263l.023-.013-.018.013.406-.222q.68-.41 1.277-.928a.23.23 0 0 1 .293 0 .202.202 0 0 1 .01.315q-.63.543-1.347.972h-.013l-.406.22a1.19 1.19 0 0 1-1.143-.007 1.15 1.15 0 0 1-.427-.411l-.865-1.455C.614 6.84-.394 9.04.147 11.833q.016.072.073.12.059.045.134.047h.986q.078 0 .14-.051a.2.2 0 0 0 .069-.128 1.4 1.4 0 0 1 .477-.878c.264-.227.604-.351.955-.351.352 0 .691.124.955.35.264.227.434.54.478.879q.01.077.07.128a.22.22 0 0 0 .14.051h.96q.078 0 .14-.051a.2.2 0 0 0 .069-.128c.045-.339.215-.65.48-.875.263-.226.602-.35.953-.35.35 0 .69.124.953.35.264.225.435.536.48.875q.01.077.07.128a.2.2 0 0 0 .139.051h.949a.2.2 0 0 0 .147-.059.2.2 0 0 0 .063-.142c.022-1.301.383-2.796 1.411-3.544C15 5.662 14.064 3.44 13.24 2.633m-4.313 3.59a.4.4 0 0 1 .203-.355.435.435 0 0 1 .578.12.41.41 0 0 1-.102.568z"/></svg>