<svg xmlns="http://www.w3.org/2000/svg" fill="none" viewBox="0 0 14 14"><path fill="var(--file-icon-gray, #807976)" d="M12.6 13.1H3.5A2.1 2.1 0 0 1 1.4 11V4.72c0-.56 0-1.016.03-1.385.032-.377.098-.717.262-1.033a2.6 2.6 0 0 1 1.11-1.11c.316-.164.656-.23 1.033-.261C4.205.9 4.66.9 5.22.9h7.38zm-9.1-3a.9.9 0 0 0 0 1.8h7.9v-1.8zm1.72-8c-.58 0-.977 0-1.285.026-.302.025-.464.071-.58.132a1.4 1.4 0 0 0-.597.596c-.06.117-.107.28-.132.58-.026.309-.026.707-.026 1.286v4.384a2.1 2.1 0 0 1 .9-.204h7.9V2.1z"/></svg>