<svg xmlns="http://www.w3.org/2000/svg" fill="none" viewBox="0 0 14 14"><path fill="var(--file-icon-red, #ef4444)" d="M2.512 1a1.5 1.5 0 0 0-.578.12 1.5 1.5 0 0 0-.491.345c-.14.148-.252.323-.328.516s-.115.4-.115.61v3.468c.216-.082.527-.566.625-.684.17-.206.202-.468.286-.634.194-.376.227-.636.667-.636.205 0 .287.05.426.246.095.136.262.387.34.556.09.193.237.456.301.509q.073.06.14.086c.071.028.13-.023.178-.063.061-.051.087-.155.144-.294.08-.2.17-.44.22-.523.087-.145.116-.316.21-.399.14-.123.321-.131.37-.142.28-.058.406.142.544.271.09.084.213.254.3.482.068.179.156.343.191.446.036.1.122.258.174.45.046.172.171.305.218.387 0 0 .073.215.514.41.096.042.29.11.404.155.192.073.378.064.614.034.169 0 .26-.257.337-.462.045-.122.089-.47.118-.569.029-.096-.038-.17.019-.255.067-.098.106-.104.145-.232.082-.275.56-.289.829-.289.224 0 .196.229.575.15.218-.045.428.03.66.095.193.054.377.116.486.25.071.088.247.526.067.544.018.023.03.063.063.085-.04.165-.214.047-.31.026-.13-.029-.222.004-.35.063-.217.103-.536.09-.725.257-.162.14-.161.454-.236.63 0 0-.208.564-.663.91-.116.088-.344.3-.838.38q-.33.05-.66.028a9 9 0 0 0-.328-.013c-.066 0-.288-.008-.277.014l-.024.065.014.087a1 1 0 0 1 .013.142c.004.099-.007.202-.003.301.01.207.083.395.093.604.01.232.119.478.224.667.04.072.102.081.128.17.031.101.002.21.017.318a4.4 4.4 0 0 0 .36 1.25c.221-.039.444-.123.734-.168.53-.083 1.267-.04 1.74-.087 1.2-.118 1.85.517 2.926.257V2.59c0-.422-.16-.826-.443-1.124A1.48 1.48 0 0 0 11.488 1zM1.97 8.023l-.028.002c-.095.016-.187.05-.247.151-.048.082-.064.224-.098.319-.038.11-.105.213-.164.318-.108.192-.302.366-.386.554a1 1 0 0 0-.045.126v2.144c.097.018.2.039.314.071.843.236 1.048.257 1.875.158l.078-.012c.063-.138.112-.61.153-.756.032-.112.076-.202.092-.315.016-.11-.001-.213-.01-.31-.024-.248.171-.337.264-.55.084-.19.132-.41.201-.606.066-.188.17-.454.347-.55-.021-.025-.37-.037-.462-.047q-.15-.015-.3-.045c-.188-.04-.393-.079-.578-.126a6 6 0 0 1-.568-.206c-.178-.087-.3-.314-.438-.32m3.437.523c-.443.094-.58.552-.79.915-.116.2-.238.372-.329.585-.084.196-.077.414-.22.582a1.6 1.6 0 0 0-.317.58c-.014.043-.053.49-.095.595l.66-.049c.615.044.438.293 1.397.238l1.516-.049a5 5 0 0 0-.137-.37c-.042-.093-.096-.274-.13-.353a2.3 2.3 0 0 0-.186-.332c-.11-.135-.136-.145-.167-.317a6 6 0 0 0-.382-1.212c-.09-.193-.242-.354-.38-.494-.12-.123-.392-.329-.44-.318"/></svg>