<svg xmlns="http://www.w3.org/2000/svg" fill="none" viewBox="0 0 14 14"><path fill="var(--file-icon-red, #ef4444)" d="M5.571 12.429H2.143a.286.286 0 1 0 0 .571H5.57a.286.286 0 0 0 0-.572"/><path fill="var(--file-icon-yellow, #eab308)" d="M5.571 11.286H4.43a.286.286 0 1 0 0 .571h1.14a.286.286 0 1 0 0-.571"/><path fill="var(--file-icon-teal, #14b8a6)" d="M3.286 11.286H2.143a.286.286 0 1 0 0 .571h1.143a.286.286 0 1 0 0-.571"/><path fill="var(--file-icon-pink, #f472b6)" d="M5.571 10.143H2.143a.286.286 0 1 0 0 .571H5.57a.286.286 0 1 0 0-.571"/><path fill="var(--file-icon-yellow, #eab308)" d="M9 9H3.857a.286.286 0 1 0 0 .571H9a.286.286 0 0 0 0-.57"/><path fill="var(--file-icon-pink, #f472b6)" d="M2.714 9h-.571a.286.286 0 1 0 0 .571h.571a.286.286 0 0 0 0-.57m8-1.144H9a.286.286 0 1 0 0 .572h1.714a.286.286 0 0 0 0-.572"/><path fill="var(--file-icon-red, #ef4444)" d="M7.857 7.857H5.571a.286.286 0 1 0 0 .572h2.286a.286.286 0 1 0 0-.572"/><path fill="var(--file-icon-teal, #14b8a6)" d="M4.429 7.857H2.143a.286.286 0 1 0 0 .572h2.286a.286.286 0 1 0 0-.572m6.857-1.143H6.714a.286.286 0 1 0 0 .572h4.572a.286.286 0 1 0 0-.572"/><path fill="var(--file-icon-yellow, #eab308)" d="M5.571 6.714H3.857a.286.286 0 1 0 0 .572h1.714a.286.286 0 1 0 0-.572"/><path fill="var(--file-icon-red, #ef4444)" d="M2.714 6.714h-.571a.286.286 0 1 0 0 .572h.571a.286.286 0 0 0 0-.572"/><path fill="var(--file-icon-yellow, #eab308)" d="M11.857 5.571H9a.286.286 0 1 0 0 .572h2.857a.286.286 0 1 0 0-.572"/><path fill="var(--file-icon-pink, #f472b6)" d="M4.429 5.571H2.143a.286.286 0 1 0 0 .572h2.286a.286.286 0 1 0 0-.572"/><path fill="var(--file-icon-red, #ef4444)" d="M11.857 4.429H9A.286.286 0 1 0 9 5h2.857a.286.286 0 1 0 0-.571"/><path fill="var(--file-icon-yellow, #eab308)" d="M4.429 4.429H2.143a.286.286 0 1 0 0 .571h2.286a.286.286 0 1 0 0-.571"/><path fill="var(--file-icon-teal, #14b8a6)" d="M11.286 3.286h-.572a.286.286 0 1 0 0 .571h.572a.286.286 0 1 0 0-.571"/><path fill="var(--file-icon-pink, #f472b6)" d="M9.571 3.286H7.286a.286.286 0 1 0 0 .571H9.57a.286.286 0 1 0 0-.571"/><path fill="var(--file-icon-teal, #14b8a6)" d="M6.143 3.286h-4a.286.286 0 1 0 0 .571h4a.286.286 0 1 0 0-.571"/><path fill="var(--file-icon-yellow, #eab308)" d="M10.714 2.143H5a.286.286 0 0 0 0 .571h5.714a.286.286 0 1 0 0-.571"/><path fill="var(--file-icon-red, #ef4444)" d="M3.857 2.143H2.143a.286.286 0 1 0 0 .571h1.714a.286.286 0 1 0 0-.571"/><path fill="var(--file-icon-teal, #14b8a6)" d="M9 1H2.143a.286.286 0 1 0 0 .571H9A.286.286 0 0 0 9 1"/></svg>