<svg xmlns="http://www.w3.org/2000/svg" fill="none" viewBox="0 0 14 14"><g fill-rule="evenodd" clip-path="url(#a)" clip-rule="evenodd"><path fill="var(--file-icon-red, #ef4444)" d="M5.942 3.911c.275.503.112 1.147-.364 1.437L1.557 7.803c-.476.29-1.085.118-1.36-.385-.274-.503-.111-1.146.365-1.437l4.02-2.455c.477-.29 1.085-.118 1.36.385"/><path fill="var(--file-icon-blue, #0ea5e9)" d="M.197 6.368c.275-.503.884-.675 1.36-.385l4.02 2.455c.477.29.64.934.365 1.438s-.883.675-1.36.385L.563 7.806c-.476-.29-.64-.934-.365-1.438"/><path fill="var(--file-icon-yellow, #eab308)" d="M13.803 6.368c-.275-.503-.884-.675-1.36-.385l-4.02 2.455c-.477.29-.64.934-.365 1.438s.883.675 1.36.385l4.02-2.455c.476-.29.64-.934.364-1.438"/><path fill="var(--file-icon-green, #16a34a)" d="M8.058 3.911c-.275.503-.112 1.147.364 1.437l4.021 2.455c.476.29 1.085.118 1.36-.385.274-.503.111-1.146-.365-1.437l-4.02-2.455c-.477-.29-1.085-.118-1.36.385"/></g><defs><clipPath id="a"><path fill="#fff" d="M0 0h14v14H0z"/></clipPath></defs></svg>