<svg xmlns="http://www.w3.org/2000/svg" fill="none" viewBox="0 0 14 14"><g clip-path="url(#a)"><path fill="var(--file-icon-dark-blue, #0e7ce9)" d="M7 8.146c.618 0 1.118-.513 1.118-1.146S7.618 5.854 7 5.854 5.882 6.367 5.882 7 6.382 8.146 7 8.146"/><path stroke="var(--file-icon-dark-blue, #0e7ce9)" stroke-width="1.2" d="M7 9.348c3.314 0 6-1.051 6-2.348s-2.686-2.348-6-2.348S1 5.703 1 7s2.686 2.348 6 2.348Z"/><path stroke="var(--file-icon-dark-blue, #0e7ce9)" stroke-width="1.2" d="M5.016 8.174c1.657 2.942 3.888 4.8 4.984 4.152 1.096-.649.64-3.559-1.016-6.5S5.096 1.026 4 1.674s-.64 3.559 1.016 6.5Z"/><path stroke="var(--file-icon-dark-blue, #0e7ce9)" stroke-width="1.2" d="M5.016 5.826C3.359 8.767 2.904 11.678 4 12.326s3.327-1.21 4.984-4.152c1.657-2.941 2.112-5.851 1.016-6.5-1.096-.648-3.327 1.21-4.984 4.152Z"/></g><defs><clipPath id="a"><path fill="#fff" d="M0 0h14v14H0z"/></clipPath></defs></svg>