<svg xmlns="http://www.w3.org/2000/svg" fill="none" viewBox="0 0 14 14"><path fill="var(--file-icon-orange, #f5700b)" d="M7 1c.06 0 .115.03.146.081l.316.512q.07.005.139.012l.41-.438a.172.172 0 0 1 .287.057l.21.563q.067.018.133.04l.489-.351a.172.172 0 0 1 .27.112l.097.596.12.063.55-.25a.172.172 0 0 1 .243.163l-.022.605.103.085.591-.14a.172.172 0 0 1 .207.208l-.14.589q.044.051.084.103l.607-.02a.172.172 0 0 1 .163.243l-.251.549.063.12.597.098a.172.172 0 0 1 .112.27l-.351.488.039.132.563.212a.172.172 0 0 1 .058.287l-.44.41q.009.068.013.138l.513.317a.172.172 0 0 1 0 .292l-.513.316q-.005.07-.012.139l.439.41a.173.173 0 0 1-.058.287l-.563.21q-.019.067-.04.133l.352.489a.172.172 0 0 1-.112.27l-.597.097-.063.12.25.55a.173.173 0 0 1-.162.243l-.607-.021q-.04.052-.084.103l.14.59a.173.173 0 0 1-.207.207l-.59-.14-.104.085.022.606a.172.172 0 0 1-.243.163l-.55-.251-.12.063-.097.597a.172.172 0 0 1-.27.112l-.49-.351-.131.039-.211.564a.173.173 0 0 1-.287.057l-.41-.44q-.07.009-.14.013l-.315.513a.172.172 0 0 1-.292 0l-.317-.513q-.07-.005-.139-.012l-.409.439a.173.173 0 0 1-.287-.057l-.212-.564-.132-.04-.488.352a.172.172 0 0 1-.27-.112l-.098-.597-.12-.063-.549.25a.172.172 0 0 1-.243-.162l.021-.606-.103-.085-.59.14a.172.172 0 0 1-.207-.207l.139-.59-.084-.103-.606.021a.172.172 0 0 1-.163-.243l.25-.55-.063-.12-.596-.097a.172.172 0 0 1-.112-.27l.35-.488-.04-.133-.561-.211a.172.172 0 0 1-.058-.287l.438-.41-.012-.14-.512-.315a.172.172 0 0 1 0-.292l.512-.317q.005-.07.012-.139l-.438-.409a.173.173 0 0 1 .058-.287l.561-.212.04-.133-.35-.487a.172.172 0 0 1 .112-.27l.596-.098.063-.12-.25-.549a.172.172 0 0 1 .163-.243l.605.02.085-.103-.14-.589a.172.172 0 0 1 .208-.207l.59.139q.05-.044.103-.085L3.59 2.16a.172.172 0 0 1 .243-.163l.549.25.12-.063.098-.596a.172.172 0 0 1 .27-.112l.488.35q.066-.021.132-.039l.212-.563a.172.172 0 0 1 .287-.057l.41.438q.068-.007.138-.012l.317-.512A.17.17 0 0 1 7 1m-.997 7.21h1.05c.04 0 .069.008.07.045v1.27c-.001.038-.03.045-.07.045h-3.59q.176.24.382.45l.738-.159a.326.326 0 0 1 .386.251l.178.836a4.4 4.4 0 0 0 3.665.018l.18-.837a.326.326 0 0 1 .386-.25l.755.162q.22-.22.406-.47H8.686c-.293 0-.567-.414-.635-.62-.068-.186-.168-.762-.213-.94-.144-.576-.595-.606-.698-.606H6.005zm3.633 2.12a.358.358 0 0 0-.263.61.357.357 0 1 0 .263-.61m-5.288-.015a.36.36 0 0 0-.34.217.358.358 0 1 0 .34-.217m2.846-7.086a.325.325 0 0 1-.46-.01l-.55-.577c-.95.18-1.813.667-2.457 1.387h4.662c.117 0 .55.052.943.31.28.185.69.562.69 1.16 0 .553-.46.968-.902 1.248.356.281.581.444.717 1.205.032.14.285.263.515.236.24-.026.515-.133.515-.62v-.207c0-.043.02-.073.064-.073h.45q.03-.382-.008-.763l-.81-.359a.33.33 0 0 1-.167-.43l.422-.95A4.4 4.4 0 0 0 7.81 2.641zM3.565 5.716a.326.326 0 0 1-.165.43l-.77.342a4.4 4.4 0 0 0 .143 1.678H4.03V5.359h-.622zm2.438.5h1.376c.293 0 .648-.103.648-.39 0-.348-.462-.437-.54-.437H6.005zm5.246-.914a.36.36 0 0 0-.34.218.358.358 0 0 0 .582.391.358.358 0 0 0-.242-.61m-8.515-.017a.36.36 0 0 0-.34.219.357.357 0 1 0 .34-.219m4.258-3.231a.358.358 0 1 0-.01.715.359.359 0 0 0 .256-.607.36.36 0 0 0-.246-.108"/></svg>