<svg xmlns="http://www.w3.org/2000/svg" fill="none" viewBox="0 0 14 14"><path fill="var(--file-icon-yellow, #eab308)" d="M1.327 4.5c-.001.002-.033.005-.07.01a1 1 0 0 0-.15.024 1 1 0 0 0-.158.045c-.013.004-.056.022-.098.039a1.4 1.4 0 0 0-.564.456l-.07.096a2 2 0 0 0-.185.46c-.038.2-.042.422-.012.57.05.246.123.411.263.601.035.048.288.316.563.595.358.365.503.523.52.56a.266.266 0 0 1-.134.345c-.041.018-.084.022-.311.023-.145 0-.288.006-.317.012a.58.58 0 0 0-.452.552.6.6 0 0 0 .258.514c.117.082.202.097.55.097.26 0 .354-.007.464-.032l.064-.013c.107-.02.414-.165.465-.22l.05-.04a1.6 1.6 0 0 0 .268-.284 1.6 1.6 0 0 0 .264-.682c.01-.084.01-.298.001-.347-.003-.017-.011-.064-.02-.105a1.5 1.5 0 0 0-.266-.593 17 17 0 0 0-.563-.592c-.542-.554-.543-.554-.53-.673.022-.184.198-.29.359-.215.037.016.466.447 1.721 1.725.919.938 1.689 1.72 1.711 1.739s.082.062.134.097c.494.33 1.132.31 1.614-.046a2 2 0 0 0 .282-.285l.041-.056.135.136c.119.119.15.149.206.194.007.005.045.033.087.06.467.316 1.125.31 1.593-.017.082-.057.109-.08.197-.166a1.5 1.5 0 0 0 .398-.778c.018-.091.02-.408.005-.485l-.013-.072a1.5 1.5 0 0 0-.25-.546 12 12 0 0 0-.552-.587c-.27-.275-.504-.52-.52-.541a.3.3 0 0 1-.02-.23.3.3 0 0 1 .117-.139c.033-.02.078-.022.388-.025l.35-.004-.01.064c-.011.075-.01.358 0 .416l.014.078c.015.082.058.21.101.304.108.236.094.219 1.29 1.442.61.624 1.152 1.169 1.204 1.21.2.159.384.242.634.288.108.02.297.025.388.012.124-.019.19-.034.273-.061.521-.171.902-.648.96-1.2.029-.28-.042-.475-.222-.618a.56.56 0 0 0-.636-.041.6.6 0 0 0-.289.495c-.009.18-.144.287-.31.245-.056-.013-.098-.055-1.13-1.105-.59-.6-1.086-1.115-1.103-1.142a.27.27 0 0 1 .047-.315c.064-.062.102-.07.355-.07.283 0 .365-.017.487-.102a.592.592 0 0 0-.06-1.014c-.12-.063-.104-.061-1.425-.063-1.31 0-1.376.003-1.526.044-.026.006-.056.014-.065.015a2 2 0 0 0-.223.09c-.156.08-.367.255-.478.396-.078.1-.18.297-.226.429-.145.433-.085.888.166 1.271.06.092.164.206.588.64.283.289.524.542.535.562.042.084.02.214-.05.29-.058.065-.095.08-.2.08-.077 0-.103-.005-.136-.027a168 168 0 0 1-1.825-1.844c-1.345-1.37-1.803-1.83-1.854-1.862a.58.58 0 0 0-.432-.067.61.61 0 0 0-.429.455.63.63 0 0 0 .092.449c.017.026.573.6 1.235 1.275 1.097 1.12 1.204 1.232 1.217 1.28a.28.28 0 0 1-.048.255c-.058.082-.212.113-.31.062-.022-.013-.803-.8-1.735-1.748-1.344-1.37-1.712-1.738-1.785-1.787a1.4 1.4 0 0 0-.774-.256z"/></svg>