<svg xmlns="http://www.w3.org/2000/svg" fill="none" viewBox="0 0 14 14"><path fill="var(--file-icon-orange, #f5700b)" d="m12 9.442-.002-.001q.027-.1.052-.202C12.71 6.3 11.1 2.829 8.374 1c1.194 1.809 1.722 4 1.253 5.916q-.063.256-.147.494a4 4 0 0 0-.239-.157s-2.71-1.87-5.648-5.178C3.516 1.988 5.16 4.7 7.025 6.902c-.879-.55-3.328-2.542-4.878-4.128A8 8 0 0 0 2.813 3.8c1.295 1.835 2.983 4.099 5.006 5.838-1.421.972-3.43 1.047-5.43 0A8 8 0 0 1 1 8.713c.846 1.513 2.15 2.818 3.737 3.58 1.892.91 3.773.848 5.174.015v.002l.02-.014q.087-.051.171-.107c.673-.39 2.003-.787 2.717.765.175.38.546-1.633-.82-3.51"/></svg>