<svg xmlns="http://www.w3.org/2000/svg" fill="none" viewBox="0 0 14 14"><path fill="var(--file-icon-blue, #0ea5e9)" fill-rule="evenodd" d="M7 2.5q-2.8 0-3.5 3Q4.55 4 5.95 4.375c.532.143.913.557 1.334 1.015C7.971 6.136 8.765 7 10.5 7q2.8 0 3.5-3-1.05 1.5-2.45 1.125c-.533-.143-.913-.557-1.334-1.015C9.529 3.363 8.735 2.5 7 2.5M3.5 7Q.7 7 0 10q1.05-1.5 2.45-1.125c.533.143.913.557 1.334 1.015.687.746 1.481 1.61 3.216 1.61q2.8 0 3.5-3Q9.45 10 8.05 9.625c-.532-.143-.913-.557-1.334-1.015C6.029 7.864 5.235 7 3.5 7" clip-rule="evenodd"/></svg>