<svg xmlns="http://www.w3.org/2000/svg" fill="none" viewBox="0 0 14 14"><path fill="var(--file-icon-blue, #0ea5e9)" d="M9.784 8.694c.155.559-.168 1.14-.712 1.28l-.288.073a3 3 0 0 0 .003.926l.266.067c.55.137.876.724.716 1.286l-.092.323c.217.198.464.359.733.473l.244-.266a.963.963 0 0 1 1.432 0l.246.269c.268-.113.515-.272.732-.468l-.098-.351c-.155-.559.168-1.14.712-1.28l.288-.073a3 3 0 0 0-.003-.926l-.266-.067c-.55-.137-.876-.724-.716-1.286l.092-.323a2.6 2.6 0 0 0-.733-.473l-.244.266a.963.963 0 0 1-1.431 0l-.247-.269a2.6 2.6 0 0 0-.732.468zm1.591 2.575c-.395 0-.716-.345-.716-.769s.32-.769.716-.769.716.345.716.769-.32.769-.716.769m-4.65-6.806h-2.32v6.427H2.82V4.463H.5V3.106h6.225zm1.742 3.983a3.5 3.5 0 0 0-.598 1.357q-.346-.555-.364-1.357zM10.577 3q.843 0 1.473.297.632.296.984.824.351.528.362 1.224H11.86a.97.97 0 0 0-.38-.714q-.337-.255-.915-.255-.392 0-.662.114a.94.94 0 0 0-.415.308.76.76 0 0 0-.14.448.66.66 0 0 0 .085.365.9.9 0 0 0 .263.27q.167.11.385.193.218.08.466.137l.68.168q.497.114.912.304.414.19.717.467.197.182.335.406A3.5 3.5 0 0 0 11.3 7c-.612 0-1.187.158-1.688.434q-.847-.24-1.356-.705-.555-.51-.55-1.373a2.08 2.08 0 0 1 .365-1.235q.374-.528 1.026-.824A3.5 3.5 0 0 1 10.577 3"/></svg>