<svg xmlns="http://www.w3.org/2000/svg" fill="none" viewBox="0 0 14 14"><path fill="#48a2ad" d="m12.171 7.48-.077.042c-.001-.16-.088-.237-.149-.322-.293-.408-.857-.253-1.024.122-.022.051.344.517.329.568-.243.106-.478.35-.525.564.049-.22-.12-.323-.376-.24-.255.081-.497.318-.532.538.036-.22-.146-.34-.407-.278-.262.062-.495.28-.518.498.023-.218-.172-.355-.436-.317-.263.038-.488.238-.5.455.01-.218-.196-.373-.462-.358-.266.014-.48.194-.478.412-.003-.217-.22-.393-.486-.401-.266-.01-.47.15-.456.368-.015-.218-.244-.412-.508-.445s-.457.107-.43.325c-.027-.218-.265-.432-.526-.487-.262-.056-.442.066-.402.286-.04-.218-.286-.45-.544-.529-.258-.077-.424.03-.371.25-.052-.22-.62-1.147-.682-1.284-.167-.375-.488-.493-.762-.25-.113.1-.182.281-.125.547-.179-.048-.268.037-.203.222a52 52 0 0 1 1.002 3.086c.125.444.254 1.02.621 1.351.264.237.592.402.908.534.945.395 1.993.516 2.968.522 1.045.007 2.373-.239 3.297-.75.35-.194.683-.419.84-.797.257-.627.444-1.285.64-1.914.225-.715.393-1.474.684-2.142.072-.22-.065-.295-.31-.176"/><path fill="#854d0e" d="M6.985 10.362c2.798 0 5.066-.888 5.066-1.983S9.783 6.395 6.985 6.395 1.92 7.283 1.92 8.38c0 1.095 2.268 1.983 5.065 1.983"/><path fill="var(--file-icon-pink, #f472b6)" d="M11.287 5.547a1.6 1.6 0 0 0-.35-.258S7.71 6.312 5.465 6.2s-1.916-.35-3.057.359c0 0-.312.434.069.698.497.346 1.125.63 1.814.848a.44.44 0 0 1 .237-.097c2.142-.724 6.309.194 6.76-2.462"/><path fill="#db2777" d="M11.287 5.547c-.452 2.656-4.618 1.738-6.758 2.462a.43.43 0 0 0-.238.097c1.728.544 3.841.654 5.252.197 1.773-.572 2.573-1.937 1.744-2.756"/><path fill="var(--file-icon-pink, #f472b6)" d="M11.287 5.547c-.452 2.656-4.618 1.738-6.758 2.462a.43.43 0 0 0-.238.097c1.728.544 3.841.654 5.252.197 1.773-.572 2.573-1.937 1.744-2.756" opacity=".5"/><path fill="#f9a8d4" d="M10.372 3.59s.61.353.61 1.266-.779 2.097-4.24 1.759c-3.43-.337-4.316-.052-4.316-.052s-1.05-1.39 1.146-1.383c1.966.007 4.89.233 5.579-.193 1.025-.635 1.063-.653 1.22-1.398"/><path fill="var(--file-icon-pink, #f472b6)" d="M6.377 2.91c1.064-.647 1.007-1.59.5-2.39-.056.03-.089.095-.06.162.111.26.21.629.03.877-.305.419-.87.525-1.794 1.027-.881.478-1.22.934-1.282 1.507a.13.13 0 0 0 .078.13c.099.048.288.127.574.2.31-.75 1.246-1.168 1.954-1.512"/><path fill="#f9a8d4" d="M8.7 1.706A5.2 5.2 0 0 0 7.008.513a.15.15 0 0 0-.134.006c.508.8.565 1.743-.5 2.392-.706.344-1.642.763-1.953 1.512.31.079.736.15 1.29.166 1.357.04 3.185-.033 3.496-.551.312-.518.052-1.744-.509-2.332"/><path fill="var(--file-icon-pink, #f472b6)" d="M10.276 3.41q.038-.095.059-.194c-.365-.544-1.218-.71-1.218-.71.925 1.918-3.89 1.5-5.254 1.58-.58.033-.913.282-1.106.558.285-.144.618-.225.952-.333 2.154-.5 5.643 1.6 6.567-.9"/><path fill="#db2777" d="M10.47 3.516a.9.9 0 0 0-.135-.3 1 1 0 0 1-.059.195c-.924 2.5-4.413.4-6.568.9-.333.108-.667.187-.952.333-.26.372-.261.79-.261.79 1.403-.414 2.439.003 5.136.041 2.698.037 3.032-1.174 2.839-1.959"/><path fill="var(--file-icon-pink, #f472b6)" d="M10.47 3.516a.9.9 0 0 0-.135-.3 1 1 0 0 1-.059.195c-.924 2.5-4.413.4-6.568.9-.333.108-.667.187-.952.333-.26.372-.261.79-.261.79 1.403-.414 2.439.003 5.136.041 2.698.037 3.032-1.174 2.839-1.959" opacity=".5"/><path fill="#22d3ee" d="M12.174 8.24c-.247.111-.505.368-.569.582.066-.214-.086-.305-.338-.214-.254.09-.506.327-.559.536.053-.21-.113-.313-.371-.243s-.504.286-.544.492c.04-.206-.14-.325-.4-.275-.261.05-.5.246-.527.45.028-.203-.166-.337-.429-.309-.264.029-.493.209-.507.41.014-.201-.19-.352-.455-.344-.266.008-.484.17-.486.372.002-.202-.213-.369-.479-.382-.264-.013-.472.133-.461.336-.01-.203-.235-.386-.5-.42-.263-.034-.459.096-.435.3-.024-.204-.257-.407-.518-.46s-.442.06-.407.267c-.036-.207-.277-.427-.534-.503-.256-.076-.424.026-.376.237-.048-.21-.296-.452-.547-.547-.25-.096-.404-.008-.343.207-.06-.215-.313-.477-.557-.593-.244-.117-.382-.04-.31.18.29.664.46 1.408.685 2.097.198.606.385 1.235.643 1.819.157.353.488.54.841.695 1.012.444 2.194.56 3.29.57.99.01 2.017-.075 2.96-.381.318-.103.647-.232.91-.437.368-.286.498-.833.624-1.256.3-1.013.655-2.001 1.004-2.999.076-.221-.059-.3-.305-.187"/></svg>