<svg xmlns="http://www.w3.org/2000/svg" fill="none" viewBox="0 0 14 14"><path fill="var(--file-icon-dark-blue, #0e7ce9)" fill-rule="evenodd" d="M7.304 9.666c0 .236.254.383.457.265l1.986-1.155a.31.31 0 0 0 .152-.266V6.198a.304.304 0 0 0-.457-.265L7.456 7.089a.31.31 0 0 0-.152.265zm1.834-4.264a.308.308 0 0 0 0-.532L7.152 3.715a.3.3 0 0 0-.304 0l-2.02 1.174a.308.308 0 0 0 0 .532l1.987 1.155a.3.3 0 0 0 .304 0zm-4.58.57a.304.304 0 0 0-.457.265V8.51c0 .11.058.21.152.266L6.239 9.93a.304.304 0 0 0 .457-.265V7.392c0-.11-.058-.21-.153-.265z" clip-rule="evenodd"/><path fill="var(--file-icon-blue, #0ea5e9)" d="m2.26 3.888.909.528a.3.3 0 0 0 .304 0l3.07-1.786a.31.31 0 0 0 .153-.266V1.307a.304.304 0 0 0-.457-.265L2.261 3.357a.308.308 0 0 0 0 .531m5.043-2.581v1.057c0 .11.058.211.152.266l3.07 1.786c.095.055.21.055.305 0l.908-.528a.308.308 0 0 0 0-.531L7.761 1.042a.304.304 0 0 0-.457.265m3.679 3.906v3.574c0 .11.058.21.152.265l.909.529a.304.304 0 0 0 .456-.266v-4.63a.304.304 0 0 0-.457-.266l-.908.529a.31.31 0 0 0-.152.265m-.456 4.371-3.07 1.786a.31.31 0 0 0-.153.266v1.057c0 .236.254.383.457.265l3.978-2.315a.308.308 0 0 0 0-.531l-.908-.528a.3.3 0 0 0-.304 0M6.543 11.37l-3.07-1.786a.3.3 0 0 0-.304 0l-.908.528a.308.308 0 0 0 0 .531l3.978 2.315a.304.304 0 0 0 .457-.265v-1.057a.31.31 0 0 0-.153-.266M3.017 8.787V5.213c0-.11-.058-.21-.152-.265l-.909-.529a.304.304 0 0 0-.456.266v4.63c0 .236.254.384.456.266l.909-.529a.31.31 0 0 0 .152-.265"/></svg>