<svg xmlns="http://www.w3.org/2000/svg" width="260" height="160" viewBox="0 0 260 160" fill="none">
  <g id="I5736:30026;5735:28763;5446:51311">
    <path id="I5736:30026;5735:28763;5446:51311;6349:6997"
      d="M21 0.6H239C249.714 0.6 258.4 9.28568 258.4 20V139C258.4 149.714 249.714 158.4 239 158.4H21C10.2857 158.4 1.6 149.714 1.6 139V20C1.6 9.28568 10.2857 0.6 21 0.6Z"
      fill="var(--clr-bg-1)" stroke="var(--clr-border-2)" stroke-width="1.2" />
    <rect id="I5736:30026;5735:28763;5446:51311;6457:15944" opacity="0.12" x="11" y="10" width="55"
      height="139" rx="10" fill="var(--clr-core-ntrl-60)" />
    <rect id="I5736:30026;5735:28763;5446:51311;6457:15945" opacity="0.12" x="72" y="10" width="74"
      height="139" rx="10" fill="var(--clr-core-ntrl-60)" />
    <g id="I5736:30026;5735:28763;5446:51311;6349:7001">
      <path id="I5736:30026;5735:28763;5446:51311;6349:7002"
        d="M152.6 31.6H239C244.191 31.6 248.4 35.8085 248.4 41V139C248.4 144.191 244.191 148.4 239 148.4H162C156.809 148.4 152.6 144.191 152.6 139V31.6Z"
        fill="var(--clr-bg-1)" stroke="var(--clr-border-2)" stroke-width="1.2" />
      <g id="I5736:30026;5735:28763;5446:51311;6456:15757">
        <text opacity="0.7" fill="var(--clr-text-2)" xml:space="preserve" style="white-space: pre"
          font-family="Inter" font-size="13" font-weight="500" letter-spacing="0em"><tspan x="166.101" y="55.7273">Branch</tspan></text>
        <g id="I5736:30026;5735:28763;5446:51311;6349:7007">
          <path id="I5736:30026;5735:28763;5446:51311;6349:7009" d="M160 99H241"
            stroke="var(--clr-border-2)" stroke-width="1.2" />
          <rect id="I5736:30026;5735:28763;5446:51311;6349:7010" opacity="0.3" x="160.6" y="117.6"
            width="79.8" height="17.8" stroke="var(--clr-theme-pop-element)" stroke-width="1.2" />
          <path id="I5736:30026;5735:28763;5446:51311;6349:7011" opacity="0.13"
            d="M160 117H241V136H160V117Z" fill="var(--clr-theme-pop-element)" />
        </g>
        <rect id="I5736:30026;5735:28763;5446:51311;6349:7012" x="160.6" y="39.6" width="79.8"
          height="100.8" rx="5.4" stroke="var(--clr-border-1)" stroke-width="1.2" />
        <rect id="I5736:30026;5735:28763;5446:51311;6349:7008" x="160.6" y="63.6" width="79.8"
          height="17.8" fill="var(--clr-theme-pop-soft-hover)" stroke="var(--clr-theme-pop-element)"
          stroke-width="1.2" />
      </g>
      <path id="I5736:30026;5735:28763;5446:51311;6457:16000"
        d="M162 10.6H179C184.191 10.6 188.4 14.8085 188.4 20V31.4H152.6V20C152.6 14.8085 156.809 10.6 162 10.6Z"
        fill="var(--clr-bg-1)" stroke="var(--clr-border-2)" stroke-width="1.2" />
      <path id="I5736:30026;5735:28763;5446:51311;6457:16001"
        d="M198 10.6H215C220.191 10.6 224.4 14.8085 224.4 20V31.4H188.6V20C188.6 14.8085 192.809 10.6 198 10.6Z"
        fill="var(--clr-bg-1)" stroke="var(--clr-border-2)" stroke-width="1.2" />
    </g>
    <path id="I5736:30026;5735:28763;5446:51311;6349:7018"
      d="M147.5 67.2128L123.5 67.2128C117.977 67.2128 113.5 71.6899 113.5 77.2128L113.5 116.5C113.5 122.023 117.977 126.5 123.5 126.5L178 126.5M147.5 67.2128L132.5 82.4255M147.5 67.2128L132.5 52"
      stroke="var(--clr-theme-pop-element)" stroke-width="1.2" />
    <g id="I5736:30026;5735:28763;5446:51311;6457:15896">
      <g id="I5736:30026;5735:28763;5446:51311;6457:15897">
        <rect x="148.616" y="74.6613" width="73.8" height="18.8" rx="3.4"
          transform="rotate(-1.58774 148.616 74.6613)" fill="#F3FCFB" stroke="#24B4AD"
          stroke-width="1.2" />
        <path opacity="0.38"
          d="M155.274 83.8804C155.228 82.2242 156.534 80.8444 158.19 80.7985L179.182 80.2166C180.838 80.1707 182.218 81.4761 182.264 83.1323V83.1323C182.31 84.7886 181.005 86.1684 179.348 86.2143L158.356 86.7962C156.7 86.8421 155.32 85.5367 155.274 83.8804V83.8804Z"
          fill="#24B4AD" />
        <path
          d="M208.289 92.7579V99.7579M212.289 92.7579V99.7579M216.289 92.7579V99.7579M205.407 107.258H211C211.188 107.258 211.376 107.208 211.525 107.093C212.201 106.573 212.642 105.802 213.024 104.977C213.361 104.25 214.3 104.209 214.694 104.906C215.175 105.756 215.724 106.561 216.562 107.118C216.707 107.214 216.881 107.258 217.055 107.258H218.812C219.519 107.258 220.02 106.535 219.868 105.844C219.662 104.902 219.543 103.742 219.789 102.758C220.289 100.758 223.289 99.2578 224.289 94.2579C225.219 89.6066 226.045 83.9092 222.789 83.2579C220.789 82.8579 219.622 85.4246 219.289 86.7579C219.455 84.9245 219.789 81.7578 216.789 81.2578C214.062 80.8033 213.152 83.7578 212.789 85.7578C212.789 83.7578 212.489 80.7578 209.289 80.7578C206.089 80.7578 205.955 84.4245 206.289 86.2578C205.622 84.7578 204.617 81.6484 201.289 82.7578C197.789 83.9245 200.289 88.7578 201.789 91.7578C201.122 90.4245 199.189 88.1578 196.789 89.7578C193.789 91.7578 195.789 95.7578 197.789 97.7578C199.556 99.5256 203.289 102.258 203.789 104.258C203.921 104.789 203.984 105.262 204.003 105.668C204.038 106.411 204.663 107.258 205.407 107.258Z"
          stroke="#A19A96" fill="white" stroke-width="1.2" stroke-linecap="round" />
      </g>
    </g>
  </g>
</svg>