<svg xmlns="http://www.w3.org/2000/svg" width="260" height="160" viewBox="0 0 260 160" fill="none">
  <g id="6350:7046">
    <path id="6349:7020"
      d="M1.6 20C1.6 9.28568 10.2857 0.6 21 0.6H239C249.714 0.6 258.4 9.28568 258.4 20V139C258.4 149.714 249.714 158.4 239 158.4H21C10.2857 158.4 1.6 149.714 1.6 139V20Z"
      fill="var(--clr-bg-1)" stroke="var(--clr-border-2)" stroke-width="1.2" />
    <rect id="6457:16052" opacity="0.12" x="11" y="10" width="55" height="139" rx="10"
      fill="var(--clr-core-ntrl-60)" />
    <rect id="6457:16053" opacity="0.12" x="72" y="10" width="74" height="139" rx="10"
      fill="var(--clr-core-ntrl-60)" />
    <g id="6349:7024">
      <path id="6349:7025"
        d="M150.6 41.6H248.4V139C248.4 144.191 244.191 148.4 239 148.4H160C154.809 148.4 150.6 144.191 150.6 139V41.6Z"
        fill="var(--clr-bg-1)" stroke="var(--clr-border-2)" stroke-width="1.2" />
      <g id="6349:7027">
        <path id="6349:7030"
          d="M209 10.6H239C244.191 10.6 248.4 14.8085 248.4 20V41.4H199.6V20C199.6 14.8085 203.809 10.6 209 10.6Z"
          fill="var(--clr-bg-1)" stroke="var(--clr-border-2)" stroke-width="1.2" />
        <path id="6349:7028"
          d="M160 10.6H190C195.191 10.6 199.4 14.8085 199.4 20V41.4H150.6V20C150.6 14.8085 154.809 10.6 160 10.6Z"
          fill="var(--clr-theme-pop-soft-hover)" stroke="var(--clr-theme-pop-element)"
          stroke-width="1.2" />
      </g>
    </g>
    <g id="6349:7031">
      <text opacity="0.7" fill="var(--clr-text-2)" xml:space="preserve" style="white-space: pre"
        font-family="Inter" font-size="13" font-weight="500" letter-spacing="0em"><tspan x="164.101" y="65.7273">Branch</tspan></text>
      <g id="6349:7033">
        <path id="6349:7034" d="M158 74H241" stroke="var(--clr-border-2)" stroke-width="1.2" />
        <path id="6349:7035" d="M158 96H241" stroke="var(--clr-theme-pop-element)" opacity="0.3"
          stroke-width="1.2" />
        <path id="6349:7036" d="M158 118H241" stroke="var(--clr-theme-pop-element)" opacity="0.3"
          stroke-width="1.2" />
      </g>
      <rect id="6349:7037" x="158.6" y="49.6" width="81.8" height="90.8" rx="5.4"
        stroke="var(--clr-border-1)" stroke-width="1.2" />
      <rect id="6349:7038" opacity="0.17" x="158" y="96" width="83" height="22"
        fill="var(--clr-theme-pop-element)" />
    </g>
    <g id="6457:16120">
      <g id="6457:16121">
        <g id="6457:16122">
          <rect id="6457:16123" x="158.616" y="25.6613" width="73.8" height="18.8" rx="3.4"
            transform="rotate(-1.58774 158.616 25.6613)" fill="var(--clr-theme-pop-bg)"
            stroke="var(--clr-theme-pop-element)" stroke-width="1.2" />
          <path id="6457:16124" opacity="0.38"
            d="M165.274 34.8804C165.228 33.2242 166.534 31.8444 168.19 31.7985L189.182 31.2166C190.838 31.1707 192.218 32.4761 192.264 34.1323V34.1323C192.31 35.7886 191.005 37.1684 189.348 37.2143L168.356 37.7962C166.7 37.8421 165.32 36.5367 165.274 34.8804V34.8804Z"
            fill="var(--clr-theme-pop-element)" />
        </g>
        <path id="6457:16125"
          d="M218.289 43.7579V50.7579M222.289 43.7579V50.7579M226.289 43.7579V50.7579M215.407 58.2579H221C221.188 58.2579 221.376 58.2076 221.526 58.0925C222.201 57.5729 222.642 56.8023 223.024 55.9766C223.361 55.2496 224.3 55.209 224.694 55.9064C225.175 56.7563 225.724 57.5613 226.562 58.1176C226.707 58.2142 226.881 58.2579 227.055 58.2579H228.812C229.519 58.2579 230.02 57.535 229.868 56.8438C229.662 55.9023 229.543 54.7419 229.789 53.7579C230.289 51.7579 233.289 50.2578 234.289 45.2579C235.219 40.6066 236.045 34.9092 232.789 34.2579C230.789 33.8579 229.622 36.4246 229.289 37.7579C229.455 35.9245 229.789 32.7578 226.789 32.2578C224.062 31.8033 223.152 34.7578 222.789 36.7578C222.789 34.7578 222.489 31.7578 219.289 31.7578C216.089 31.7578 215.955 35.4245 216.289 37.2578C215.622 35.7578 214.617 32.6484 211.289 33.7578C207.789 34.9245 210.289 39.7578 211.789 42.7578C211.122 41.4245 209.189 39.1578 206.789 40.7578C203.789 42.7578 205.789 46.7578 207.789 48.7578C209.556 50.5256 213.289 53.258 213.789 55.2579C213.921 55.7893 213.984 56.2618 214.003 56.6682C214.038 57.4108 214.663 58.2579 215.407 58.2579Z"
          stroke="#A19A96" fill="white" stroke-width="1.2" stroke-linecap="round" />
      </g>
    </g>
    <path id="6457:16221"
      d="M141.5 26.2128L123.5 26.2128C117.977 26.2128 113.5 30.6899 113.5 36.2128L113.5 97.5C113.5 103.023 117.977 107.5 123.5 107.5L178 107.5M141.5 26.2128L131 36.7128M141.5 26.2128L131 15.7128"
      stroke="var(--clr-theme-pop-element)" stroke-width="1.2" />
  </g>
</svg>