<svg width="100%" height="100%" viewBox="0 0 400 400" fill="none" xmlns="http://www.w3.org/2000/svg">
<path d="M26.037 210.207L82.6731 315.381C128.529 284.572 161.355 239.715 272.703 213.994L269.557 205.709C209.501 213.028 177.237 223.761 121.252 242.643C88.6568 214.681 68.8792 204.014 26.037 210.207Z" fill="var(--clr-illustration-fill)" stroke="var(--clr-illustration-outline)" stroke-width="1.2"/>
<path d="M224.202 254.922L286.404 208.548L275.258 204.931C257.457 214.356 221.182 232.959 207.111 246.054C193.041 259.148 176.473 292.588 171.248 307.263C124.67 308.39 102.061 316.546 76.526 351.259L210.721 383.903L224.202 254.922Z" fill="var(--clr-illustration-fill)" stroke="var(--clr-illustration-outline)" stroke-width="1.2"/>
<path d="M177.206 201.68L174.574 207.072L177.206 201.68ZM147.063 157.235C145.024 154.622 141.254 154.158 138.641 156.196C136.029 158.235 135.564 162.006 137.603 164.618L147.063 157.235ZM230.199 182.595C216.929 189.077 206.435 193.721 197.918 196.086C189.381 198.456 183.841 198.242 179.838 196.288L174.574 207.072C182.448 210.914 191.455 210.334 201.128 207.648C210.823 204.957 222.203 199.856 235.466 193.377L230.199 182.595ZM179.838 196.288C175.039 193.945 170.945 189.751 165.833 182.972C163.29 179.599 160.652 175.809 157.56 171.449C154.498 167.132 151.064 162.362 147.063 157.235L137.603 164.618C141.435 169.528 144.743 174.122 147.771 178.391C150.769 182.618 153.569 186.639 156.252 190.197C161.591 197.278 167.101 203.424 174.574 207.072L179.838 196.288Z" fill="var(--clr-illustration-outline)"/>
<path d="M350.726 106.472C359.992 109.911 364.752 120.178 361.389 129.472L348.923 163.918C346.893 169.53 347.775 175.783 351.279 180.613L357.13 188.677C360.61 193.475 361.506 199.678 359.524 205.264L352.15 226.055C348.795 235.513 338.354 240.401 328.942 236.921L206.442 191.621C196.975 188.12 192.237 177.521 195.941 168.132L230.462 80.642C234.059 71.5279 244.284 66.9641 253.47 70.3735L350.726 106.472Z" fill="var(--clr-illustration-fill)" stroke="var(--clr-illustration-outline)" stroke-width="1.2"/>
<path d="M329.451 203.856C328.492 200.684 325.143 198.891 321.971 199.85C318.799 200.809 317.005 204.158 317.965 207.33L329.451 203.856ZM321.36 305.249C337.786 281.047 343.519 265.479 342.678 250.309C342.266 242.895 340.299 235.947 337.85 228.673C335.335 221.204 332.411 213.645 329.451 203.856L317.965 207.33C320.978 217.293 324.179 225.676 326.477 232.502C328.842 239.524 330.377 245.224 330.696 250.974C331.315 262.132 327.418 274.956 311.431 298.51L321.36 305.249Z" fill="var(--clr-illustration-outline)"/>
<path d="M334.425 209.061L348.421 209.937M332.005 215.259L346 216.134M329.585 221.453L343.581 222.328" stroke="var(--clr-illustration-outline)" stroke-width="1.2"/>
<rect opacity="0.13" x="242.277" y="75.5479" width="93.5302" height="104.822" rx="9.86" transform="rotate(20.555 242.277 75.5479)" fill="var(--clr-illustration-outline)"/>
<path d="M235.125 120.928C228.964 135.954 223.301 152.725 235.369 159.141C247.437 165.558 255.088 146.23 261.681 131.338C268.274 116.447 274.13 99.2071 261.068 94.0694C248.006 88.9317 241.286 105.902 235.125 120.928Z" fill="var(--clr-illustration-fill)" stroke="var(--clr-illustration-outline)" stroke-width="1.2"/>
<path fill-rule="evenodd" clip-rule="evenodd" d="M229.095 138.921L240.969 146.776L254.235 115.025L242.579 104.504C239.927 109.211 237.626 114.827 235.408 120.239C235.313 120.469 235.219 120.699 235.125 120.928C232.675 126.904 230.304 133.155 229.095 138.921Z" fill="var(--clr-illustration-outline)"/>
<path d="M278.774 138.318C272.613 153.344 266.95 170.115 279.017 176.531C291.085 182.948 298.737 163.62 305.33 148.728C311.922 133.837 317.779 116.597 304.717 111.459C291.655 106.322 284.935 123.292 278.774 138.318Z" fill="var(--clr-illustration-fill)" stroke="var(--clr-illustration-outline)" stroke-width="1.2"/>
<path fill-rule="evenodd" clip-rule="evenodd" d="M272.744 156.311L284.618 164.166L297.883 132.415L286.228 121.894C283.576 126.601 281.274 132.216 279.057 137.629C278.962 137.859 278.868 138.089 278.774 138.318C276.324 144.294 273.952 150.545 272.744 156.311Z" fill="var(--clr-illustration-outline)"/>
<path d="M235.043 174.526L228.471 191.772L246.586 190.804L259.158 203.4L265.989 186.597L247.941 186.33L235.043 174.526Z" fill="var(--clr-illustration-outline)"/>
<path d="M275.592 217.177L280.145 218.88C289.45 222.359 299.815 217.642 303.304 208.34L336.29 120.376C339.826 110.948 334.94 100.453 325.448 97.0894L324.115 96.617" stroke="var(--clr-illustration-outline)" stroke-width="1.2"/>
<path fill-rule="evenodd" clip-rule="evenodd" d="M238.645 282.505C231.865 291.069 233.048 303.532 241.439 310.657C249.199 317.246 260.465 317.011 267.93 310.548L325.36 359.314C319.966 367.762 321.505 379.106 329.358 385.775C337.749 392.9 350.239 392.047 357.591 383.968L338.679 367.909L351.398 352.93L370.308 368.987C377.032 360.425 375.835 348.006 367.465 340.898C359.515 334.148 347.886 334.559 340.433 341.491L283.143 292.844C289.008 284.341 287.587 272.609 279.545 265.78C271.175 258.672 258.726 259.504 251.367 267.527L270.277 283.584L257.557 298.564L238.645 282.505Z" fill="var(--clr-illustration-fill)"/>
<path d="M238.645 282.505L239.034 282.047L238.56 281.645L238.175 282.132L238.645 282.505ZM267.93 310.548L268.319 310.091L267.927 309.758L267.538 310.095L267.93 310.548ZM325.36 359.314L325.866 359.637L326.148 359.196L325.749 358.857L325.36 359.314ZM357.591 383.968L358.034 384.372L358.452 383.913L357.979 383.511L357.591 383.968ZM338.679 367.909L338.221 367.521L337.833 367.978L338.29 368.367L338.679 367.909ZM351.398 352.93L351.787 352.473L351.329 352.084L350.941 352.542L351.398 352.93ZM370.308 368.987L369.92 369.444L370.395 369.848L370.78 369.358L370.308 368.987ZM340.433 341.491L340.045 341.949L340.451 342.294L340.842 341.931L340.433 341.491ZM283.143 292.844L282.649 292.504L282.341 292.95L282.754 293.302L283.143 292.844ZM251.367 267.527L250.925 267.122L250.503 267.581L250.979 267.985L251.367 267.527ZM270.277 283.584L270.734 283.973L271.123 283.515L270.665 283.127L270.277 283.584ZM257.557 298.564L257.169 299.021L257.626 299.409L258.015 298.952L257.557 298.564ZM241.827 310.199C233.683 303.284 232.536 291.189 239.116 282.877L238.175 282.132C231.195 290.949 232.412 303.779 241.05 311.114L241.827 310.199ZM267.538 310.095C260.293 316.367 249.358 316.594 241.827 310.199L241.05 311.114C249.04 317.898 260.637 317.656 268.323 311.002L267.538 310.095ZM325.749 358.857L268.319 310.091L267.542 311.006L324.972 359.771L325.749 358.857ZM329.747 385.318C322.125 378.846 320.631 367.835 325.866 359.637L324.855 358.991C319.301 367.688 320.884 379.367 328.97 386.233L329.747 385.318ZM357.147 383.564C350.012 391.405 337.89 392.233 329.747 385.318L328.97 386.233C337.608 393.568 350.466 392.689 358.034 384.372L357.147 383.564ZM338.29 368.367L357.202 384.426L357.979 383.511L339.067 367.452L338.29 368.367ZM350.941 352.542L338.221 367.521L339.136 368.298L351.856 353.318L350.941 352.542ZM370.696 368.53L351.787 352.473L351.01 353.387L369.92 369.444L370.696 368.53ZM367.076 341.356C375.2 348.254 376.362 360.307 369.836 368.616L370.78 369.358C377.702 360.543 376.47 347.758 367.853 340.441L367.076 341.356ZM340.842 341.931C348.075 335.203 359.361 334.804 367.076 341.356L367.853 340.441C359.669 333.491 347.697 333.915 340.024 341.052L340.842 341.931ZM282.754 293.302L340.045 341.949L340.821 341.034L283.531 292.387L282.754 293.302ZM279.157 266.237C286.962 272.865 288.341 284.251 282.649 292.504L283.637 293.185C289.675 284.43 288.213 272.353 279.933 265.322L279.157 266.237ZM251.809 267.933C258.951 260.146 271.033 259.339 279.157 266.237L279.933 265.322C271.316 258.005 258.501 258.862 250.925 267.122L251.809 267.933ZM270.665 283.127L251.755 267.07L250.979 267.985L269.888 284.042L270.665 283.127ZM258.015 298.952L270.734 283.973L269.819 283.196L257.1 298.175L258.015 298.952ZM238.257 282.962L257.169 299.021L257.946 298.106L239.034 282.047L238.257 282.962Z" fill="var(--clr-illustration-outline)"/>
<path d="M252.233 164.087C250.275 166.437 247.447 171.847 251.805 174.685C256.162 177.522 261.023 172.486 262.908 169.614" stroke="var(--clr-illustration-outline)" stroke-width="1.2"/>
<path d="M319.149 288.995C308.01 283.874 301.899 289.807 302.166 294.971C296.311 296.292 285.963 298.988 277.165 308.253C263.905 320.862 259.907 335.036 265.472 342.516C268.288 346.3 273.171 344.534 274.359 344.128C274.501 346.882 272.23 353.041 279.674 356.799C285.443 359.711 291.95 357.2 294.028 353.986C295.301 358.58 296.321 360.288 300.189 362.988C304.057 365.688 311.844 368.082 322.672 357.166L311.293 347.397C316.707 341.939 324.016 332.58 326.238 327.494C328.461 322.408 327.741 314.96 326.031 311.941C335.603 306.786 330.288 294.115 319.149 288.995Z" fill="var(--clr-illustration-fill)"/>
<path d="M326.031 311.941C335.603 306.786 330.288 294.115 319.149 288.995C308.01 283.874 301.899 289.807 302.166 294.971C296.311 296.292 285.963 298.988 277.165 308.253C263.905 320.862 259.907 335.036 265.472 342.516C268.288 346.3 273.171 344.534 274.359 344.128C274.501 346.882 272.23 353.041 279.674 356.799C285.443 359.711 291.95 357.2 294.028 353.986C295.301 358.58 296.321 360.288 300.189 362.988C304.057 365.688 311.844 368.082 322.672 357.166L311.293 347.397C316.707 341.939 324.016 332.58 326.238 327.494C328.461 322.408 327.741 314.96 326.031 311.941ZM326.031 311.941C324.675 309.077 321.255 303.696 311.91 299.208M306.603 326.717L295.24 339.206M299.79 320.754L287.714 333.215M293.487 315.33L281.242 326.748" stroke="var(--clr-illustration-outline)" stroke-width="1.2"/>
<path d="M145.416 169.986C137.791 176.75 126.813 174.337 125.517 168.15C115.978 172.326 110.118 168.922 105.076 162.065C96.233 162.001 86.0937 157.163 80.5203 149.999C74.2617 141.954 75.5356 133.204 81.3449 130.94C77.5565 119.389 84.3672 115.039 88.5628 113.404C86.6878 110.12 86.604 99.2221 96.7064 95.9535C108.252 92.218 125.769 104.701 134.548 115.779C135.188 108.837 136.839 101.055 141.182 94.4554C150.067 80.9505 166.71 81.3589 170.249 87.7143C175.454 97.0619 159.939 105.053 155.622 120.056C153.871 126.141 153.202 136.168 149.487 146.093C156.421 151.866 154.388 162.027 145.416 169.986Z" fill="var(--clr-illustration-fill)"/>
<path d="M149.487 146.093C156.421 151.866 154.388 162.027 145.416 169.986C137.791 176.75 126.813 174.337 125.517 168.15C115.978 172.326 110.118 168.922 105.076 162.065M149.487 146.093C153.202 136.168 153.871 126.141 155.622 120.056C159.939 105.053 175.454 97.0619 170.249 87.7143C166.71 81.3589 150.067 80.9505 141.182 94.4554C136.839 101.055 135.188 108.837 134.548 115.779C125.769 104.701 108.252 92.218 96.7064 95.9535C86.604 99.2221 86.6878 110.12 88.5628 113.404M149.487 146.093C148.163 150.326 143.165 159.978 133.768 164.711M88.5628 113.404C84.3672 115.039 77.5565 119.389 81.3449 130.94M88.5628 113.404C94.3685 127.263 114.855 139.421 123.882 140.333M81.3449 130.94C75.5356 133.204 74.2617 141.954 80.5203 149.999C86.0937 157.163 96.233 162.001 105.076 162.065M81.3449 130.94C87.6155 142.713 108.032 155.329 118.368 153.49C123.113 152.645 126.975 147.283 123.882 140.333M105.076 162.065C110.653 162.105 116.902 160.355 116.111 153.748M112.214 109.985C123.722 114.104 137.268 126.764 132.712 135.678C131.276 138.026 128.654 140.815 123.882 140.333" stroke="var(--clr-illustration-outline)" stroke-width="1.2"/>
<path d="M165.295 32.685L197.519 21.8417L200.354 17.7227L215.837 13.5677L220.302 26.8367L205.457 32.8872L200.709 31.3195L168.484 42.1628L165.295 32.685Z" fill="var(--clr-illustration-outline)"/>
<path fill-rule="evenodd" clip-rule="evenodd" d="M163.099 53.4707L129.178 64.8849C122.112 67.2627 114.455 63.4618 112.078 56.3953C109.7 49.3287 113.501 41.6726 120.567 39.2948L154.488 27.8806C154.382 24.8657 156.248 22.013 159.253 21.0017C162.917 19.7688 166.887 21.7396 168.12 25.4037L175.455 47.2027C176.688 50.8668 174.718 54.8367 171.053 56.0696C168.048 57.0809 164.837 55.9368 163.099 53.4707Z" fill="var(--clr-illustration-fill)"/>
<path d="M163.099 53.4707L163.59 53.1251L163.332 52.7593L162.908 52.902L163.099 53.4707ZM154.488 27.8806L154.68 28.4493L155.104 28.3066L155.088 27.8594L154.488 27.8806ZM162.908 52.902L128.987 64.3162L129.369 65.4535L163.29 54.0394L162.908 52.902ZM128.987 64.3162C122.234 66.5883 114.918 62.9563 112.646 56.2039L111.509 56.5866C113.992 63.9672 121.989 67.937 129.369 65.4535L128.987 64.3162ZM112.646 56.2039C110.374 49.4515 114.006 42.1356 120.759 39.8634L120.376 38.7261C112.995 41.2096 109.025 49.206 111.509 56.5866L112.646 56.2039ZM120.759 39.8634L154.68 28.4493L154.297 27.312L120.376 38.7261L120.759 39.8634ZM155.088 27.8594C154.99 25.1025 156.698 22.4947 159.445 21.5704L159.062 20.433C155.798 21.5313 153.773 24.6289 153.889 27.9018L155.088 27.8594ZM159.445 21.5704C162.795 20.4431 166.424 22.245 167.552 25.5951L168.689 25.2124C167.35 21.2342 163.04 19.0944 159.062 20.433L159.445 21.5704ZM167.552 25.5951L174.887 47.3941L176.024 47.0114L168.689 25.2124L167.552 25.5951ZM174.887 47.3941C176.014 50.7441 174.212 54.3737 170.862 55.501L171.245 56.6383C175.223 55.2997 177.363 50.9895 176.024 47.0114L174.887 47.3941ZM170.862 55.501C168.115 56.4253 165.179 55.3801 163.59 53.1251L162.609 53.8163C164.495 56.4934 167.981 57.7366 171.245 56.6383L170.862 55.501Z" fill="var(--clr-illustration-outline)"/>
<path d="M155.011 30.3425L161.708 50.2459M122.64 45.4553L152.021 35.5688M124.873 52.0898L154.254 42.2033M156.486 48.8377L127.105 58.7243" stroke="var(--clr-illustration-outline)" stroke-width="1.2"/>
<path d="M391.207 69.3495L389.907 51.2637L384.083 41.4711L366.521 37.0961L350.083 50.6274L351.239 68.8461L357.313 78.6871L374.91 83.0613L391.207 69.3495Z" fill="var(--clr-illustration-fill)" stroke="var(--clr-illustration-outline)" stroke-width="1.2"/>
<path d="M383.907 41.2636L385.207 59.3495L368.91 73.0613L351.313 68.6871M373.042 50.4048L373.476 56.4334L368.043 61.004L362.178 59.5459L361.744 53.5173L367.177 48.9467L373.042 50.4048Z" stroke="var(--clr-illustration-outline)" stroke-width="1.2"/>
<path fill-rule="evenodd" clip-rule="evenodd" d="M46.6381 378.725L59.4695 375.812L64.7687 367.989L65.7687 355.435L54.2687 345.114L41.5812 348.052L36.2269 355.435L35.0168 368.537L46.6381 378.725Z" fill="var(--clr-illustration-fill)" stroke="var(--clr-illustration-outline)" stroke-width="1.2"/>
<path fill-rule="evenodd" clip-rule="evenodd" d="M52.6324 362.366L56.9095 361.394L57.3129 357.027L53.4391 353.631L49.162 354.602L48.7586 358.969L52.6324 362.366Z" fill="var(--clr-illustration-fill)"/>
<path d="M64.657 368.187L51.8256 371.1L40.2044 360.912L41.4145 347.81M56.9095 361.394L52.6324 362.366L48.7586 358.969L49.162 354.602L53.4391 353.631L57.3129 357.027L56.9095 361.394Z" stroke="var(--clr-illustration-outline)" stroke-width="1.2"/>
<circle opacity="0.7" cx="313.5" cy="54.5" r="3.5" fill="var(--clr-core-pop-50)"/>
<circle opacity="0.7" cx="40.5" cy="312.5" r="3.5" fill="var(--clr-core-pop-50)"/>
<path opacity="0.7" d="M270 34.6562C279.229 36.0563 281.867 39.8963 282.781 51.3125C283.009 41.7502 285.225 36.0875 293.562 33.6562C284.78 31.798 284.026 29.105 282.781 18C280.787 30.1051 278.098 33.9564 270 34.6562Z" fill="var(--clr-core-pop-50)"/>
<path opacity="0.7" d="M230 376C243.71 378.101 247.628 383.865 248.985 401C249.323 386.648 252.615 378.148 265 374.499C251.955 371.71 250.834 367.668 248.985 351C246.023 369.169 242.028 374.95 230 376Z" fill="var(--clr-core-pop-50)"/>
<path opacity="0.7" d="M44.7812 72.2247C54.0719 73.634 56.7271 77.4995 57.6473 88.9914C57.8763 79.3657 60.1068 73.6655 68.5 71.218C59.6597 69.3475 58.8998 66.6367 57.6473 55.458C55.6395 67.6434 52.9326 71.5202 44.7812 72.2247Z" fill="var(--clr-core-pop-50)"/>
</svg>
