<svg width="100%" height="100%" viewBox="0 0 25 24" fill="none" xmlns="http://www.w3.org/2000/svg">
  <path
    d="M24.5013 9.49959L24.4672 9.41027L21.0753 0.56082C21.0075 0.387445 20.8857 0.241394 20.727 0.140518C20.5689 0.0391216 20.3834 -0.00868645 20.1953 0.00129595C20.0083 0.0112783 19.8286 0.0795757 19.682 0.196209C19.5365 0.313896 19.4314 0.473085 19.382 0.652763L17.0919 7.66182H7.82636L5.53624 0.652763C5.48686 0.473085 5.38178 0.313897 5.23625 0.196209C5.08967 0.0795773 4.91 0.0112783 4.72296 0.00129595C4.53488 -0.00868645 4.34941 0.0391216 4.19128 0.140518C4.03262 0.241394 3.91073 0.387445 3.84295 0.56082L0.451125 9.4108L0.416968 9.49959C-0.588085 12.1212 0.268282 15.0849 2.50639 16.7776C2.51059 16.7803 2.51427 16.7834 2.51848 16.7866L2.54843 16.8092L7.71498 20.677L10.2704 22.6114L11.8255 23.7872C12.2001 24.0709 12.7181 24.0709 13.0927 23.7872L14.6479 22.6114L17.2028 20.677L22.3998 16.7866C22.4045 16.7829 22.4087 16.7797 22.4135 16.7761C24.65 15.0833 25.5058 12.1207 24.5013 9.49959Z"
    fill="#E24329" />
  <path
    d="M24.5012 9.49947L24.467 9.41016C22.7842 9.75586 21.2344 10.4677 19.9073 11.4607C19.8857 11.4765 15.8745 14.51 12.459 17.0922C14.995 19.0099 17.2026 20.6769 17.2026 20.6769L22.3996 16.7865C22.4044 16.7828 22.4086 16.7796 22.4133 16.7759C24.6498 15.0832 25.5057 12.1206 24.5012 9.49947Z"
    fill="#FC6D26" />
  <path
    d="M7.71484 20.6769L10.2703 22.6114L11.8254 23.7872C12.2 24.0709 12.718 24.0709 13.0926 23.7872L14.6477 22.6114L17.2026 20.6769C17.2026 20.6769 14.995 19.0099 12.459 17.0923C9.92248 19.0099 7.71484 20.6769 7.71484 20.6769Z"
    fill="#FCA326" />
  <path
    d="M5.01033 11.4607C3.68376 10.4682 2.13442 9.75582 0.451125 9.41064L0.416968 9.49943C-0.588084 12.1211 0.268282 15.0847 2.50639 16.7775C2.51059 16.7801 2.51427 16.7833 2.51848 16.7864L2.54843 16.809L7.71498 20.6768C7.71498 20.6768 9.92261 19.0098 12.4591 17.0922C9.04366 14.51 5.03188 11.4764 5.01033 11.4607Z"
    fill="#FC6D26" />
</svg>