<svg version="1.1" id="Layer_1" xmlns:x="ns_extend;" xmlns:i="ns_ai;" xmlns:graph="ns_graphs;" xmlns="http://www.w3.org/2000/svg" xmlns:xlink="http://www.w3.org/1999/xlink" x="0px" y="0px" viewBox="0 0 85.6 96.6" style="enable-background:new 0 0 85.6 96.6;" xml:space="preserve">
 <style type="text/css">
  .st0{fill:#FFFFFF;}
	.st1{display:none;}
	.st2{display:inline;}
	.st3{fill:none;stroke:#ED1C24;stroke-width:0.3175;stroke-miterlimit:10;stroke-dasharray:2.1169;}
	.st4{display:inline;fill:none;stroke:#ED1C24;stroke-width:0.3175;stroke-miterlimit:10;stroke-dasharray:2.1169;}
	.st5{display:inline;fill:none;stroke:#ED1C24;stroke-width:0.3;stroke-miterlimit:10;stroke-dasharray:2;}
	.st6{display:inline;fill:none;stroke:#ED1C24;stroke-width:0.3;stroke-miterlimit:10;stroke-dasharray:1.9999;}
	.st7{fill:none;stroke:#ED1C24;stroke-width:0.3;stroke-miterlimit:10;}
	.st8{fill:#ED1C24;}
	.st9{display:inline;fill:#ED1C24;}
	.st10{display:inline;opacity:0.15;fill:#ED1C24;enable-background:new    ;}
	.st11{display:inline;fill:none;stroke:#ED1C24;stroke-width:0.317;stroke-miterlimit:10;stroke-dasharray:2.1132;}
 </style>
 <metadata>
  <sfw xmlns="ns_sfw;">
   <slices>
   </slices>
   <sliceSourceBounds bottomLeftOrigin="true" height="185.9" width="366.8" x="-44.6" y="-44.7">
   </sliceSourceBounds>
  </sfw>
 </metadata>
 <g id="Logo">
  <g>
   <path class="st0" d="M46.5,17.3l15.3,8.8c0.6,0.3,0.6,1.2,0,1.5L43.6,38.1c-0.6,0.3-1.2,0.3-1.7,0L23.8,27.6
			c-0.6-0.3-0.6-1.2,0-1.5L39,17.3V0L0,22.5v45.1v-0.2v0.2L15,59V41.3c0-0.6,0.7-1.1,1.3-0.7l18.2,10.5c0.6,0.3,0.9,0.9,0.9,1.5v21
			c0,0.6-0.7,1.1-1.3,0.7l-15.3-8.8l-15,8.6l39,22.5l39-22.5l-15-8.6l-15.3,8.8c-0.5,0.3-1.3-0.1-1.3-0.7v-21c0-0.6,0.3-1.2,0.9-1.5
			l18.2-10.5c0.5-0.3,1.3,0.1,1.3,0.7V59l15,8.6V22.5L46.5,0V17.3z">
   </path>
  </g>
 </g>
 <g id="Guides" class="st1">
  <g class="st2">
   <line class="st3" x1="-44.6" y1="22.5" x2="322.2" y2="22.5">
   </line>
  </g>
  <line class="st4" x1="-44.6" y1="69" x2="322.2" y2="69">
  </line>
  <line class="st5" x1="0" y1="141.3" x2="0" y2="-44.6">
  </line>
  <line class="st5" x1="70.6" y1="141.3" x2="70.6" y2="-44.6">
  </line>
  <line class="st6" x1="152.3" y1="141.2" x2="152.3" y2="-44.6">
  </line>
  <line class="st6" x1="184.5" y1="141.2" x2="184.5" y2="-44.6">
  </line>
  <line class="st6" x1="189.9" y1="141.2" x2="189.9" y2="-44.6">
  </line>
  <line class="st5" x1="262.7" y1="141.2" x2="262.7" y2="-44.6">
  </line>
  <line class="st5" x1="269.1" y1="-44.6" x2="269.1" y2="141.2">
  </line>
  <line class="st5" x1="277.6" y1="-44.6" x2="277.6" y2="141.2">
  </line>
  <g class="st2">
   <g>
    <line class="st7" x1="-6" y1="1.7" x2="-6" y2="93.8">
    </line>
    <g>
     <rect x="-7" y="1.6" class="st8" width="2" height="0.3">
     </rect>
    </g>
    <g>
     <rect x="-7" y="93.6" class="st8" width="2" height="0.3">
     </rect>
    </g>
   </g>
  </g>
  <path class="st9" d="M263.8,119.8h0.1c0.1,0,0.1,0,0.2-0.1l0.1-0.1l0.5-1.6v-0.1c0,0,0,0,0-0.1v-0.1h-0.1h-0.2v-0.1l0,0
		c0,0,0.1,0,0.2-0.1s0.2,0,0.3-0.1l0,0l0,0l0,0l0,0l0,0l-0.5,2l0,0l0,0c0,0,0,0.1,0.1,0.1s0.1,0,0.2,0v0.1L263.8,119.8L263.8,119.8
		L263.8,119.8z">
  </path>
  <path class="st9" d="M266.1,117.6h0.2l-0.8,2.2h-0.2L266.1,117.6z">
  </path>
  <path class="st9" d="M266.4,119.8c-0.1,0-0.1-0.1-0.1-0.2v-0.1h0.1c0,0,0.1,0,0.2,0.1s0.2,0.1,0.2,0.1c0.1,0,0.3-0.1,0.4-0.2
		s0.2-0.3,0.2-0.5s-0.1-0.4-0.2-0.5s-0.3-0.1-0.5-0.1v-0.1l0.4-0.7h0.9l-0.1,0.2H267l-0.1,0.3c0.2,0,0.4,0.1,0.6,0.2
		s0.2,0.3,0.2,0.5s-0.1,0.5-0.3,0.7c-0.2,0.2-0.4,0.3-0.7,0.3C266.5,119.9,266.5,119.8,266.4,119.8z">
  </path>
  <path class="st9" d="M264.9,121.6c-0.1,0.1-0.2,0.2-0.2,0.3c-0.1,0.2-0.2,0.4-0.3,0.6c-0.1,0.2-0.1,0.4-0.1,0.6s0,0.3,0,0.4
		c0,0.2,0,0.3,0,0.4s0.1,0.3,0.1,0.5h-0.1c-0.1-0.2-0.2-0.4-0.2-0.6s-0.1-0.4-0.1-0.6c0-0.3,0-0.5,0.1-0.7
		C264.3,122.2,264.5,121.9,264.9,121.6L264.9,121.6z">
  </path>
  <path class="st9" d="M264.9,124.3C265,124.2,265,124.2,264.9,124.3c0.1,0,0.1,0,0.2,0c0,0,0,0,0.1,0l0,0l0,0l0,0
		c0,0,0.1-0.1,0.3-0.2s0.2-0.2,0.2-0.3s0-0.2-0.1-0.4c0-0.2-0.1-0.3-0.1-0.5s-0.1-0.3-0.1-0.4s-0.1-0.1-0.2-0.1l0,0c0,0,0,0-0.1,0
		v-0.1l0.4-0.1l0,0c0,0,0.1,0.1,0.2,0.4c0.1,0.2,0.1,0.4,0.1,0.5l0.1,0.4c0.1-0.2,0.2-0.3,0.2-0.4c0.1-0.2,0.2-0.3,0.2-0.4
		c0,0,0,0,0-0.1c0,0,0,0,0-0.1l0,0c0,0,0,0-0.1-0.1s0-0.1,0-0.1v-0.1c0,0,0,0,0.1,0c0,0,0.1,0,0.1,0.1s0,0.1,0,0.2s-0.1,0.3-0.2,0.6
		c-0.1,0.2-0.2,0.4-0.3,0.6c-0.1,0.2-0.3,0.4-0.4,0.5c-0.2,0.2-0.3,0.3-0.4,0.3H265v-0.1C264.9,124.3,264.9,124.3,264.9,124.3z">
  </path>
  <path class="st9" d="M266.5,124.4c0.1-0.1,0.2-0.2,0.3-0.3c0.1-0.2,0.2-0.3,0.2-0.6c0.1-0.2,0.1-0.4,0.1-0.5s0-0.3,0-0.5
		s0-0.4,0-0.5s-0.1-0.3-0.1-0.4h0.1c0.1,0.2,0.2,0.4,0.2,0.6c0.1,0.2,0.1,0.4,0.1,0.6s0,0.5-0.1,0.6
		C267.2,123.8,266.9,124.1,266.5,124.4L266.5,124.4z">
  </path>
  <path class="st9" d="M185.1,119.8h0.1c0.1,0,0.1,0,0.2-0.1l0.1-0.1l0.4-1.6v-0.1c0,0,0,0,0-0.1v-0.1h-0.1h-0.2v-0.1l0,0
		c0,0,0.1,0,0.2-0.1s0.2,0,0.3-0.1h0.1l0,0l0,0l0,0l0,0l-0.5,2l0,0l0,0c0,0,0,0.1,0.1,0.1s0.1,0,0.2,0v0.1L185.1,119.8L185.1,119.8
		L185.1,119.8z">
  </path>
  <path class="st9" d="M187.4,117.6h0.2l-0.8,2.2h-0.2L187.4,117.6z">
  </path>
  <path class="st9" d="M186.2,121.6c-0.1,0.1-0.2,0.2-0.2,0.3c-0.1,0.2-0.2,0.4-0.3,0.6s-0.1,0.4-0.1,0.6s0,0.3,0,0.4
		c0,0.2,0,0.3,0,0.4s0.1,0.3,0.1,0.5h-0.1c-0.1-0.2-0.2-0.4-0.2-0.6c-0.1-0.2-0.1-0.4-0.1-0.6c0-0.3,0-0.5,0.1-0.7
		C185.6,122.2,185.8,121.9,186.2,121.6L186.2,121.6z">
  </path>
  <path class="st9" d="M186.2,124.3C186.3,124.2,186.3,124.2,186.2,124.3c0.1,0,0.1,0,0.2,0c0,0,0,0,0.1,0l0,0l0,0l0,0
		c0.1,0,0.1-0.1,0.3-0.2s0.2-0.2,0.2-0.3s0-0.2-0.1-0.4c0-0.2-0.1-0.3-0.1-0.5c-0.1-0.2-0.1-0.3-0.1-0.4s-0.1-0.1-0.2-0.1l0,0
		c0,0,0,0-0.1,0v-0.1l0.4-0.1l0,0c0,0,0.1,0.1,0.2,0.4c0.1,0.2,0.1,0.4,0.1,0.5l0.1,0.4c0.1-0.2,0.2-0.3,0.2-0.4
		c0.1-0.2,0.2-0.3,0.2-0.4c0,0,0,0,0-0.1c0,0,0,0-0.1-0.1l0,0c0,0,0,0-0.1-0.1s0-0.1,0-0.1v-0.1h0.1c0,0,0.1,0,0.1,0.1
		s0.1,0.1,0.1,0.2s-0.1,0.3-0.2,0.6c-0.1,0.2-0.2,0.4-0.3,0.6s-0.3,0.4-0.4,0.5c-0.2,0.2-0.3,0.3-0.4,0.3h-0.1l-0.1-0.1
		C186.2,124.3,186.2,124.3,186.2,124.3z">
  </path>
  <path class="st9" d="M187.8,124.4c0.1-0.1,0.2-0.2,0.3-0.3c0.1-0.2,0.2-0.3,0.2-0.6c0.1-0.2,0.1-0.4,0.1-0.5s0-0.3,0-0.5
		s0-0.4-0.1-0.5s-0.1-0.3-0.1-0.4h0.1c0.1,0.2,0.2,0.4,0.2,0.6c0.1,0.2,0.1,0.4,0.1,0.6s0,0.5-0.1,0.6
		C188.5,123.8,188.3,124.1,187.8,124.4L187.8,124.4z">
  </path>
  <path class="st9" d="M76.9,117.7c-0.1,0.1-0.2,0.2-0.2,0.3c-0.1,0.2-0.2,0.4-0.3,0.6c-0.1,0.2-0.1,0.4-0.1,0.6s0,0.3,0,0.4
		c0,0.2,0,0.3,0,0.4s0.1,0.3,0.1,0.5h-0.1c-0.1-0.2-0.2-0.4-0.2-0.6c-0.1-0.2-0.1-0.4-0.1-0.6c0-0.3,0-0.5,0.1-0.7
		C76.2,118.2,76.4,117.9,76.9,117.7L76.9,117.7z">
  </path>
  <path class="st9" d="M76.9,119.6L76.9,119.6C77,119.6,77,119.6,76.9,119.6L76.9,119.6h0.2l0,0l0,0h0.1l0.1-0.1
		c0-0.1,0.1-0.2,0.3-0.4c0,0,0-0.1,0-0.2s-0.1-0.2-0.1-0.3c0-0.1,0-0.1-0.1-0.1h-0.1c0,0,0,0-0.1,0h-0.1v-0.1l0.2-0.1
		c0.1,0,0.1,0,0.1,0h0.1c0.1,0,0.1,0,0.1,0s0.1,0.1,0.1,0.3v0.2c0.1-0.1,0.2-0.2,0.2-0.3c0.1-0.1,0.1-0.1,0.1-0.1h0.1h0.1l0.1,0.1
		v0.1h-0.1l0,0l0,0l0,0l0,0l0,0c-0.1,0-0.1,0.1-0.2,0.2s-0.1,0.2-0.1,0.2s0,0.1,0,0.2s0,0.2,0.1,0.3c0,0.1,0,0.2,0.1,0.2
		c0,0.1,0.1,0.1,0.1,0.1s0.1,0,0.1-0.1s0.1-0.1,0.1-0.2l0,0c-0.1,0.1-0.1,0.2-0.1,0.2c-0.1,0.1-0.2,0.2-0.3,0.2
		c-0.1,0-0.1,0-0.1-0.1c0,0,0-0.1-0.1-0.1l-0.1-0.4l-0.3,0.4c-0.1,0.1-0.1,0.1-0.2,0.1h-0.1C77,119.8,77,119.8,76.9,119.6
		L76.9,119.6C76.8,119.7,76.8,119.6,76.9,119.6z">
  </path>
  <path class="st9" d="M78.4,120.4c0.1-0.1,0.2-0.2,0.3-0.3c0.1-0.2,0.2-0.3,0.2-0.6c0.1-0.2,0.1-0.4,0.1-0.5s0-0.3,0-0.5
		s0-0.4-0.1-0.5c0-0.1-0.1-0.3-0.1-0.4h0.1c0.1,0.2,0.2,0.4,0.2,0.6c0.1,0.2,0.1,0.4,0.1,0.6s0,0.5-0.1,0.6
		C79.1,119.8,78.9,120.1,78.4,120.4L78.4,120.4z">
  </path>
  <path class="st9" d="M93.6,119.8L93.6,119.8c0.2,0,0.2,0,0.3-0.1l0.1-0.1l0.4-1.6v-0.1c0,0,0,0,0-0.1v-0.1h-0.1h-0.2v-0.1l0,0
		c0,0,0.1,0,0.2-0.1s0.2,0,0.3-0.1h0.1l0,0l0,0l0,0l0,0l-0.5,2l0,0l0,0c0,0,0,0.1,0.1,0.1s0.1,0,0.2,0v0.1L93.6,119.8L93.6,119.8
		L93.6,119.8z">
  </path>
  <path class="st9" d="M95.5,119.8L95.5,119.8c-0.1-0.1-0.1-0.2,0-0.2s0.1-0.1,0.1-0.1s0.1,0,0.1,0.1s0.1,0.1,0.1,0.1s0,0.1-0.1,0.1
		H95.5L95.5,119.8z">
  </path>
  <path class="st9" d="M96.1,119.8c-0.1,0-0.1-0.1-0.1-0.2v-0.1h0.1c0,0,0.1,0,0.2,0.1s0.2,0.1,0.2,0.1c0.1,0,0.3-0.1,0.4-0.2
		s0.2-0.3,0.2-0.5s-0.1-0.4-0.2-0.5s-0.3-0.1-0.5-0.1v-0.1l0.4-0.7h0.9l-0.1,0.2h-0.8l-0.1,0.3c0.2,0,0.4,0.1,0.6,0.2
		s0.2,0.3,0.2,0.5s-0.1,0.5-0.3,0.7c-0.2,0.2-0.4,0.3-0.7,0.3C96.2,119.9,96.2,119.8,96.1,119.8z">
  </path>
  <path class="st9" d="M99.5,117.7c-0.1,0.1-0.2,0.2-0.2,0.3c-0.1,0.2-0.2,0.4-0.3,0.6c-0.1,0.2-0.1,0.4-0.1,0.6s0,0.3,0,0.4
		c0,0.2,0,0.3,0,0.4s0.1,0.3,0.1,0.5h-0.1c-0.1-0.2-0.2-0.4-0.2-0.6c-0.1-0.2-0.1-0.4-0.1-0.6c0-0.3,0-0.5,0.1-0.7
		C98.8,118.2,99,117.9,99.5,117.7L99.5,117.7z">
  </path>
  <path class="st9" d="M99.5,119.6L99.5,119.6C99.6,119.6,99.6,119.6,99.5,119.6L99.5,119.6h0.2l0,0l0,0h0.1l0.1-0.1
		c0-0.1,0.1-0.2,0.3-0.4c0,0,0-0.1,0-0.2s-0.1-0.2-0.1-0.3s0-0.1-0.1-0.1h-0.1c0,0,0,0-0.1,0h-0.1v-0.1l0.2-0.1c0.1,0,0.1,0,0.1,0
		h0.1c0.1,0,0.1,0,0.1,0s0.1,0.1,0.1,0.3v0.2c0.1-0.1,0.2-0.2,0.2-0.3c0.1-0.1,0.1-0.1,0.1-0.1h0.1h0.1l0.1,0.1v0.1h-0.1l0,0l0,0
		l0,0l0,0l0,0c-0.1,0-0.1,0.1-0.2,0.2s-0.1,0.2-0.1,0.2s0,0.1,0,0.2s0,0.2,0.1,0.3c0,0.1,0,0.2,0.1,0.2c0,0.1,0.1,0.1,0.1,0.1
		s0.1,0,0.1-0.1s0.1-0.1,0.1-0.2l0,0c-0.1,0.1-0.1,0.2-0.1,0.2c-0.1,0.1-0.2,0.2-0.3,0.2c-0.1,0-0.1,0-0.1-0.1c0,0,0-0.1-0.1-0.1
		l-0.1-0.4l-0.3,0.4c-0.1,0.1-0.1,0.1-0.1,0.1h-0.1c-0.1,0-0.1,0-0.1-0.1v-0.1C99.4,119.7,99.4,119.6,99.5,119.6z">
  </path>
  <path class="st9" d="M101,120.4c0.1-0.1,0.2-0.2,0.3-0.3c0.1-0.2,0.2-0.3,0.2-0.6c0.1-0.2,0.1-0.4,0.1-0.5s0-0.3,0-0.5
		s0-0.4-0.1-0.5s-0.1-0.3-0.1-0.4h0.1c0.1,0.2,0.2,0.4,0.2,0.6c0.1,0.2,0.1,0.4,0.1,0.6s0,0.5-0.1,0.6
		C101.7,119.8,101.5,120.1,101,120.4L101,120.4z">
  </path>
  <path class="st9" d="M167.6,117.7c-0.1,0.1-0.2,0.2-0.2,0.3c-0.1,0.2-0.2,0.4-0.3,0.6s-0.1,0.4-0.1,0.6s0,0.3,0,0.4
		c0,0.2,0,0.3,0,0.4s0.1,0.3,0.1,0.5H167c-0.1-0.2-0.2-0.4-0.2-0.6c-0.1-0.2-0.1-0.4-0.1-0.6c0-0.3,0-0.5,0.1-0.7
		C166.9,118.2,167.2,117.9,167.6,117.7L167.6,117.7z">
  </path>
  <path class="st9" d="M167.6,120.3C167.6,120.2,167.6,120.2,167.6,120.3c0.1,0,0.1,0,0.2,0c0,0,0,0,0.1,0l0,0l0,0l0,0
		c0.1,0,0.1-0.1,0.3-0.2s0.2-0.2,0.2-0.3s0-0.2-0.1-0.4c0-0.2-0.1-0.3-0.1-0.5c-0.1-0.2-0.1-0.3-0.1-0.4s-0.1-0.1-0.2-0.1l0,0
		c0,0,0,0-0.1,0v-0.1l0.4-0.1l0,0c0,0,0.1,0.1,0.2,0.4c0.1,0.2,0.1,0.4,0.1,0.5l0.1,0.4c0.1-0.2,0.2-0.3,0.2-0.4
		c0.1-0.2,0.2-0.3,0.2-0.4c0,0,0,0,0-0.1c0,0,0,0-0.1-0.1l0,0c0,0,0,0-0.1-0.1s0-0.1,0-0.1v-0.1h0.1c0,0,0.1,0,0.1,0.1
		s0.1,0.1,0.1,0.2s-0.1,0.3-0.2,0.6c-0.1,0.2-0.2,0.4-0.3,0.6s-0.3,0.4-0.4,0.5c-0.2,0.2-0.3,0.3-0.4,0.3h-0.1l-0.1-0.1
		C167.5,120.3,167.6,120.3,167.6,120.3z">
  </path>
  <path class="st9" d="M169.2,120.4c0.1-0.1,0.2-0.2,0.3-0.3c0.1-0.2,0.2-0.3,0.2-0.6c0.1-0.2,0.1-0.4,0.1-0.5s0-0.3,0-0.5
		s0-0.4-0.1-0.5s-0.1-0.3-0.1-0.4h0.1c0.1,0.2,0.2,0.4,0.2,0.6c0.1,0.2,0.1,0.4,0.1,0.6s0,0.5-0.1,0.6
		C169.8,119.8,169.6,120.1,169.2,120.4L169.2,120.4z">
  </path>
  <path class="st9" d="M-15.4,51.7C-15.3,51.7-15.3,51.8-15.4,51.7l0.2,0.1l0.1,0.1h0.1c0.1,0,0.2-0.1,0.3-0.2
		c0.1-0.1,0.1-0.2,0.1-0.4s0-0.3-0.1-0.4c-0.1-0.1-0.2-0.1-0.4-0.1l0,0l0,0v-0.1c0.3,0,0.5-0.1,0.6-0.2s0.2-0.2,0.2-0.3
		s0-0.1-0.1-0.2c0-0.1-0.1-0.1-0.2-0.1c-0.1,0-0.1,0-0.2,0.1c-0.1,0-0.1,0.1-0.2,0.2l0,0c0.1-0.1,0.1-0.2,0.2-0.3
		c0.1-0.1,0.2-0.1,0.3-0.1s0.3,0,0.4,0.1s0.1,0.2,0.1,0.3s0,0.2-0.2,0.3c-0.1,0.1-0.2,0.1-0.4,0.2l0,0c0.1,0,0.1,0.1,0.2,0.1
		c0.1,0.1,0.1,0.2,0.1,0.4s-0.1,0.4-0.3,0.6s-0.4,0.3-0.7,0.3c-0.1,0-0.2,0-0.2,0c-0.1,0-0.1-0.1-0.1-0.2v-0.1
		C-15.5,51.7-15.5,51.7-15.4,51.7L-15.4,51.7z">
  </path>
  <path class="st9" d="M-12.9,49.8c-0.1,0.1-0.2,0.2-0.2,0.3c-0.1,0.2-0.2,0.3-0.3,0.6c-0.1,0.2-0.1,0.4-0.1,0.6c0,0.2,0,0.3,0,0.4
		c0,0.2,0,0.3,0,0.4c0,0.1,0.1,0.3,0.1,0.5h-0.1c-0.1-0.2-0.2-0.4-0.2-0.6s-0.1-0.4-0.1-0.6c0-0.3,0-0.5,0.1-0.7
		C-13.6,50.4-13.3,50.1-12.9,49.8L-12.9,49.8z">
  </path>
  <path class="st9" d="M-12.9,52.5C-12.9,52.4-12.9,52.4-12.9,52.5c0.1,0,0.1,0,0.2,0c0,0,0,0,0.1,0l0,0l0,0l0,0
		c0.1,0,0.1-0.1,0.3-0.2s0.2-0.2,0.2-0.3s0-0.2-0.1-0.4s-0.1-0.3-0.1-0.5s-0.1-0.3-0.1-0.4c0-0.1-0.1-0.1-0.2-0.1l0,0c0,0,0,0-0.1,0
		v-0.1l0.4-0.1l0,0c0,0,0.1,0.1,0.2,0.4C-12,51-12,51.2-12,51.3l0.1,0.4c0.1-0.2,0.2-0.3,0.2-0.4c0.1-0.2,0.2-0.3,0.2-0.4
		c0,0,0,0,0-0.1c0,0,0,0,0-0.1l0,0c0,0,0,0-0.1-0.1v-0.1v-0.1c0,0,0,0,0.1,0s0.1,0,0.1,0.1c0,0,0,0.1,0,0.2c0,0.1-0.1,0.3-0.2,0.6
		c-0.1,0.2-0.2,0.4-0.3,0.6c-0.2,0.2-0.3,0.4-0.4,0.5c-0.2,0.2-0.3,0.3-0.4,0.3h-0.1v-0.1C-13,52.5-12.9,52.5-12.9,52.5z">
  </path>
  <path class="st9" d="M-11.3,52.6c0.1-0.1,0.2-0.2,0.3-0.3c0.1-0.2,0.2-0.3,0.2-0.6c0.1-0.2,0.1-0.4,0.1-0.5s0-0.3,0-0.5
		s0-0.4,0-0.5s-0.1-0.3-0.1-0.4h0.1c0.1,0.2,0.2,0.3,0.2,0.6s0.1,0.4,0.1,0.6c0,0.2,0,0.5-0.1,0.6C-10.7,52-10.9,52.3-11.3,52.6
		L-11.3,52.6z">
  </path>
  <line class="st6" x1="85.6" y1="-44.6" x2="85.6" y2="141.3">
  </line>
  <line class="st6" x1="108.1" y1="141.3" x2="108.1" y2="-44.6">
  </line>
  <path class="st9" d="M288.5,132.6h0.3v1h1.2v-1h0.3v2.2H290v-1h-1.2v1h-0.3V132.6z">
  </path>
  <path class="st9" d="M290.6,134c0-0.5,0.3-0.9,0.7-0.9c0.3,0,0.7,0.2,0.7,0.8v0.1h-1.2c0,0.4,0.2,0.5,0.5,0.5
		c0.2,0,0.4-0.1,0.4-0.3l0.2,0.1c-0.1,0.2-0.3,0.4-0.6,0.4C290.9,134.8,290.6,134.5,290.6,134z M291.8,133.8c0-0.3-0.2-0.5-0.5-0.5
		s-0.5,0.2-0.5,0.5H291.8z">
  </path>
  <path class="st9" d="M292.4,132.7c0-0.1,0.1-0.2,0.2-0.2s0.2,0.1,0.2,0.2s-0.1,0.2-0.2,0.2S292.4,132.8,292.4,132.7z M292.5,133.1
		h0.2v1.6h-0.2V133.1z">
  </path>
  <path class="st9" d="M293.2,135.1l0.2-0.1c0.1,0.1,0.2,0.2,0.5,0.2s0.5-0.1,0.5-0.4v-0.3l0,0c-0.1,0.1-0.2,0.3-0.5,0.3
		c-0.4,0-0.7-0.3-0.7-0.8s0.3-0.8,0.7-0.8c0.3,0,0.4,0.2,0.5,0.3l0,0v-0.3h0.2v1.7c0,0.4-0.3,0.6-0.7,0.6
		C293.5,135.4,293.3,135.3,293.2,135.1z M294.3,133.9c0-0.4-0.2-0.6-0.5-0.6s-0.5,0.3-0.5,0.6s0.2,0.6,0.5,0.6
		C294.1,134.5,294.3,134.3,294.3,133.9z">
  </path>
  <path class="st9" d="M295.2,134.8H295v-2.2h0.2v0.8l0,0c0.1-0.2,0.2-0.3,0.5-0.3s0.6,0.2,0.6,0.6v1h-0.2v-1c0-0.3-0.1-0.4-0.4-0.4
		c-0.2,0-0.4,0.2-0.4,0.4v1.1H295.2z">
  </path>
  <path class="st9" d="M297.5,133.3h-0.4v1c0,0.2,0.1,0.2,0.2,0.2s0.1,0,0.1,0v0.2c0,0-0.1,0-0.2,0c-0.2,0-0.4-0.1-0.4-0.4v-1h-0.2
		v-0.2h0.2v-0.4h0.2v0.4h0.4L297.5,133.3L297.5,133.3z">
  </path>
  <path class="st9" d="M298.6,134c0-0.5,0.3-0.9,0.7-0.9s0.7,0.3,0.7,0.9c0,0.5-0.3,0.9-0.7,0.9S298.6,134.5,298.6,134z M299.9,134
		c0-0.3-0.1-0.6-0.5-0.6s-0.5,0.3-0.5,0.6s0.1,0.6,0.5,0.6C299.7,134.6,299.9,134.3,299.9,134z">
  </path>
  <path class="st9" d="M301.2,133.3h-0.4v1.4h-0.2v-1.4h-0.3v-0.2h0.3v-0.2c0-0.3,0.2-0.4,0.5-0.4c0.1,0,0.2,0,0.2,0l-0.1,0.2h-0.1
		c-0.2,0-0.2,0.1-0.2,0.2v0.2h0.4L301.2,133.3L301.2,133.3z">
  </path>
  <path class="st9" d="M302.3,133.4c0-0.5,0.4-0.9,0.9-0.9s0.9,0.4,0.9,0.9s-0.4,0.9-0.9,0.9C302.7,134.3,302.3,133.9,302.3,133.4z
		 M303.9,133.4c0-0.4-0.3-0.6-0.6-0.6s-0.6,0.3-0.6,0.6s0.3,0.6,0.6,0.6S303.9,133.8,303.9,133.4z M302.9,133h0.4
		c0.1,0,0.2,0.1,0.2,0.2c0,0.1-0.1,0.2-0.1,0.2l0.2,0.3h-0.2l-0.1-0.3h-0.2v0.3h-0.2L302.9,133L302.9,133z M303.2,133.4l0.1-0.1
		c0-0.1-0.1-0.1-0.1-0.1H303v0.3L303.2,133.4L303.2,133.4z">
  </path>
  <path class="st9" d="M288.6,137.1h1.3v0.2h-1.3V137.1z M288.6,137.7h1.3v0.2h-1.3V137.7z">
  </path>
  <path class="st9" d="M291.6,138.4h-0.2v-2.2h0.2v0.8l0,0c0.1-0.2,0.2-0.3,0.5-0.3s0.6,0.2,0.6,0.6v1h-0.2v-1c0-0.3-0.1-0.4-0.4-0.4
		c-0.2,0-0.4,0.2-0.4,0.4L291.6,138.4L291.6,138.4z">
  </path>
  <path class="st9" d="M293,137.6c0-0.5,0.3-0.9,0.7-0.9c0.3,0,0.7,0.2,0.7,0.8v0.1h-1.2c0,0.4,0.2,0.5,0.5,0.5
		c0.2,0,0.4-0.1,0.4-0.3l0.2,0.1c-0.1,0.2-0.3,0.4-0.6,0.4C293.3,138.4,293,138.1,293,137.6z M294.2,137.4c0-0.3-0.2-0.5-0.5-0.5
		s-0.5,0.2-0.5,0.5H294.2z">
  </path>
  <path class="st9" d="M294.8,136.3c0-0.1,0.1-0.2,0.2-0.2s0.2,0.1,0.2,0.2s-0.1,0.2-0.2,0.2S294.8,136.4,294.8,136.3z M294.8,136.7
		h0.2v1.6h-0.2V136.7z">
  </path>
  <path class="st9" d="M295.5,138.7l0.2-0.1c0.1,0.1,0.2,0.2,0.5,0.2s0.5-0.1,0.5-0.4v-0.3l0,0c-0.1,0.1-0.2,0.3-0.5,0.3
		c-0.4,0-0.7-0.3-0.7-0.8s0.3-0.8,0.7-0.8c0.3,0,0.4,0.2,0.5,0.3l0,0v-0.3h0.2v1.7c0,0.4-0.3,0.6-0.7,0.6
		C295.8,139,295.6,138.9,295.5,138.7z M296.7,137.5c0-0.4-0.2-0.6-0.5-0.6s-0.5,0.3-0.5,0.6s0.2,0.6,0.5,0.6
		S296.7,137.9,296.7,137.5z">
  </path>
  <path class="st9" d="M297.6,138.4h-0.2v-2.2h0.2v0.8l0,0c0.1-0.2,0.2-0.3,0.5-0.3s0.6,0.2,0.6,0.6v1h-0.2v-1c0-0.3-0.1-0.4-0.4-0.4
		c-0.2,0-0.4,0.2-0.4,0.4v1.1H297.6z">
  </path>
  <path class="st9" d="M299.9,136.9h-0.4v1c0,0.2,0.1,0.2,0.2,0.2s0.1,0,0.1,0v0.2c0,0-0.1,0-0.2,0c-0.2,0-0.4-0.1-0.4-0.4v-1H299
		v-0.2h0.2v-0.4h0.2v0.4h0.4L299.9,136.9L299.9,136.9z">
  </path>
  <path class="st9" d="M301,137.6c0-0.5,0.3-0.9,0.7-0.9s0.7,0.3,0.7,0.9c0,0.5-0.3,0.9-0.7,0.9S301,138.1,301,137.6z M302.2,137.6
		c0-0.3-0.1-0.6-0.5-0.6s-0.5,0.3-0.5,0.6s0.1,0.6,0.5,0.6C302.1,138.2,302.2,137.9,302.2,137.6z">
  </path>
  <path class="st9" d="M303.6,136.9h-0.4v1.4H303v-1.4h-0.3v-0.2h0.3v-0.2c0-0.3,0.2-0.4,0.5-0.4c0.1,0,0.2,0,0.2,0l-0.1,0.2h-0.1
		c-0.2,0-0.2,0.1-0.2,0.2v0.2h0.4L303.6,136.9L303.6,136.9z">
  </path>
  <path class="st9" d="M305.5,136.9h-0.4v1c0,0.2,0.1,0.2,0.2,0.2s0.1,0,0.1,0v0.2c0,0-0.1,0-0.2,0c-0.2,0-0.4-0.1-0.4-0.4v-1h-0.2
		v-0.2h0.2v-0.4h0.2v0.4h0.4L305.5,136.9L305.5,136.9z">
  </path>
  <path class="st9" d="M306.2,138.4H306v-2.2h0.2v0.8l0,0c0.1-0.2,0.2-0.3,0.5-0.3s0.6,0.2,0.6,0.6v1H307v-1c0-0.3-0.1-0.4-0.4-0.4
		c-0.2,0-0.4,0.2-0.4,0.4V138.4z">
  </path>
  <path class="st9" d="M307.6,137.6c0-0.5,0.3-0.9,0.7-0.9c0.3,0,0.7,0.2,0.7,0.8v0.1h-1.2c0,0.4,0.2,0.5,0.5,0.5
		c0.2,0,0.4-0.1,0.4-0.3l0.2,0.1c-0.1,0.2-0.3,0.4-0.6,0.4C307.9,138.4,307.6,138.1,307.6,137.6z M308.8,137.4
		c0-0.3-0.2-0.5-0.5-0.5s-0.5,0.2-0.5,0.5H308.8z">
  </path>
  <path class="st9" d="M310.2,136.3c0-0.1,0.1-0.2,0.2-0.2s0.2,0.1,0.2,0.2s-0.1,0.2-0.2,0.2C310.3,136.5,310.2,136.4,310.2,136.3z
		 M310.3,136.7h0.2v1.6h-0.2V136.7z">
  </path>
  <path class="st9" d="M311.2,136.4c0,0.2-0.1,0.4-0.3,0.5l-0.1-0.1c0.1-0.1,0.2-0.3,0.2-0.4v-0.2h0.2L311.2,136.4L311.2,136.4z">
  </path>
  <path class="st9" d="M312.2,137.2c0-0.1-0.1-0.2-0.4-0.2c-0.2,0-0.4,0.1-0.4,0.2c0,0.1,0.1,0.2,0.3,0.2l0.2,0.1
		c0.3,0.1,0.4,0.2,0.4,0.4c0,0.3-0.3,0.5-0.6,0.5c-0.3,0-0.6-0.1-0.6-0.4l0.2-0.1c0,0.2,0.2,0.3,0.4,0.3c0.2,0,0.4-0.1,0.4-0.3
		c0-0.1-0.1-0.2-0.2-0.2l-0.3-0.1c-0.3-0.1-0.4-0.2-0.4-0.4c0-0.3,0.3-0.5,0.6-0.5c0.3,0,0.5,0.2,0.6,0.4L312.2,137.2z">
  </path>
  <path class="st9" d="M313.6,137.6c0-0.5,0.3-0.9,0.7-0.9c0.3,0,0.4,0.2,0.5,0.3l0,0v-0.8h0.2v2.2h-0.2v-0.2l0,0
		c-0.1,0.1-0.2,0.3-0.5,0.3C313.9,138.4,313.6,138.1,313.6,137.6z M314.9,137.5c0-0.4-0.2-0.6-0.5-0.6s-0.5,0.3-0.5,0.6
		c0,0.4,0.2,0.6,0.5,0.6C314.7,138.2,314.9,137.9,314.9,137.5z">
  </path>
  <path class="st9" d="M315.5,137.6c0-0.5,0.3-0.9,0.7-0.9s0.7,0.3,0.7,0.9c0,0.5-0.3,0.9-0.7,0.9S315.5,138.1,315.5,137.6z
		 M316.8,137.6c0-0.3-0.1-0.6-0.5-0.6s-0.5,0.3-0.5,0.6s0.1,0.6,0.5,0.6S316.8,137.9,316.8,137.6z">
  </path>
  <path class="st9" d="M318.1,136.9h-0.4v1c0,0.2,0.1,0.2,0.2,0.2s0.1,0,0.1,0v0.2c0,0-0.1,0-0.2,0c-0.2,0-0.4-0.1-0.4-0.4v-1h-0.2
		v-0.2h0.2v-0.4h0.2v0.4h0.4L318.1,136.9L318.1,136.9z">
  </path>
  <path class="st9" d="M187.9,119.1c0.1-0.1,0.2-0.3,0.3-0.4s0.3-0.1,0.4-0.1s0.2,0.1,0.3,0.1c0.1,0.1,0.1,0.2,0.1,0.4
		c0,0.2-0.1,0.4-0.2,0.6s-0.4,0.3-0.6,0.3c-0.2,0-0.3-0.1-0.5-0.2c-0.1-0.1-0.2-0.3-0.2-0.6c0-0.4,0.1-0.7,0.4-1s0.6-0.5,0.9-0.5
		c0.1,0,0.3,0,0.4,0.1L189,118c-0.1-0.1-0.3-0.1-0.4-0.1c-0.2,0-0.4,0.1-0.6,0.3c-0.1,0.1-0.2,0.3-0.2,0.4
		C188,118.7,187.9,118.9,187.9,119.1L187.9,119.1L187.9,119.1z M188,119.2c0.1,0.4,0.2,0.5,0.5,0.5c0.1,0,0.2-0.1,0.3-0.1
		s0.1-0.2,0.1-0.3c0-0.2,0-0.3-0.1-0.4s-0.2-0.1-0.3-0.1C188.2,118.8,188,118.9,188,119.2z">
  </path>
  <line class="st6" x1="146.9" y1="141.2" x2="146.9" y2="-44.6">
  </line>
  <path class="st9" d="M147.5,119.8h0.1c0.1,0,0.1,0,0.2-0.1l0.1-0.1l0.4-1.6v-0.1c0,0,0,0,0-0.1v-0.1h-0.1H148v-0.1l0,0
		c0,0,0.1,0,0.2-0.1s0.2,0,0.3-0.1h0.1l0,0l0,0l0,0l0,0l-0.5,2l0,0l0,0c0,0,0,0.1,0.1,0.1s0.1,0,0.2,0v0.1L147.5,119.8L147.5,119.8
		L147.5,119.8z">
  </path>
  <path class="st9" d="M149.8,117.6h0.2l-0.8,2.2H149L149.8,117.6z">
  </path>
  <path class="st9" d="M148.6,121.6c-0.1,0.1-0.2,0.2-0.2,0.3c-0.1,0.2-0.2,0.4-0.3,0.6s-0.1,0.4-0.1,0.6s0,0.3,0,0.4
		c0,0.2,0,0.3,0,0.4s0.1,0.3,0.1,0.5H148c-0.1-0.2-0.2-0.4-0.2-0.6c-0.1-0.2-0.1-0.4-0.1-0.6c0-0.3,0-0.5,0.1-0.7
		C148,122.2,148.2,121.9,148.6,121.6L148.6,121.6z">
  </path>
  <path class="st9" d="M148.7,124.3C148.7,124.2,148.7,124.2,148.7,124.3c0.1,0,0.1,0,0.2,0c0,0,0,0,0.1,0l0,0l0,0l0,0
		c0.1,0,0.1-0.1,0.3-0.2s0.2-0.2,0.2-0.3s0-0.2-0.1-0.4c0-0.2-0.1-0.3-0.1-0.5c-0.1-0.2-0.1-0.3-0.1-0.4s-0.1-0.1-0.2-0.1l0,0
		c0,0,0,0-0.1,0v-0.1l0.4-0.1l0,0c0,0,0.1,0.1,0.2,0.4c0.1,0.2,0.1,0.4,0.1,0.5l0.1,0.4c0.1-0.2,0.2-0.3,0.2-0.4
		c0.1-0.2,0.2-0.3,0.2-0.4c0,0,0,0,0-0.1c0,0,0,0-0.1-0.1l0,0c0,0,0,0-0.1-0.1s0-0.1,0-0.1v-0.1h0.1c0,0,0.1,0,0.1,0.1
		s0.1,0.1,0.1,0.2s-0.1,0.3-0.2,0.6c-0.1,0.2-0.2,0.4-0.3,0.6s-0.3,0.4-0.4,0.5c-0.2,0.2-0.3,0.3-0.4,0.3h-0.1l-0.1-0.1
		C148.6,124.3,148.6,124.3,148.7,124.3z">
  </path>
  <path class="st9" d="M150.2,124.4c0.1-0.1,0.2-0.2,0.3-0.3c0.1-0.2,0.2-0.3,0.2-0.6c0.1-0.2,0.1-0.4,0.1-0.5s0-0.3,0-0.5
		s0-0.4-0.1-0.5s-0.1-0.3-0.1-0.4h0.1c0.1,0.2,0.2,0.4,0.2,0.6c0.1,0.2,0.1,0.4,0.1,0.6s0,0.5-0.1,0.6
		C150.9,123.8,150.6,124.1,150.2,124.4L150.2,124.4z">
  </path>
  <path class="st9" d="M150.3,119.1c0.1-0.1,0.2-0.3,0.3-0.4s0.3-0.1,0.4-0.1s0.2,0.1,0.3,0.1c0.1,0.1,0.1,0.2,0.1,0.4
		c0,0.2-0.1,0.4-0.2,0.6s-0.4,0.3-0.6,0.3c-0.2,0-0.3-0.1-0.5-0.2c-0.1-0.1-0.2-0.3-0.2-0.6c0-0.4,0.1-0.7,0.4-1s0.6-0.5,0.9-0.5
		c0.1,0,0.3,0,0.4,0.1l-0.2,0.2c-0.1-0.1-0.3-0.1-0.4-0.1c-0.2,0-0.4,0.1-0.6,0.3c-0.1,0.1-0.2,0.3-0.2,0.4
		C150.3,118.7,150.3,118.9,150.3,119.1L150.3,119.1L150.3,119.1z M150.3,119.2c0.1,0.4,0.2,0.5,0.5,0.5c0.1,0,0.2-0.1,0.3-0.1
		s0.1-0.2,0.1-0.3c0-0.2,0-0.3-0.1-0.4s-0.2-0.1-0.3-0.1C150.6,118.8,150.4,118.9,150.3,119.2z">
  </path>
  <line class="st5" x1="0" y1="141.3" x2="0" y2="-44.6">
  </line>
  <path class="st10" d="M108.1-17.2v-27.4h11.5v27.8c0,4.5,2.3,7.6,8,7.6c5.3,0,7.9-3.2,7.9-7.8v-27.6H147v27.4
		C147-6.5,140.6,0,127.6,0C114.5,0,108.1-6.4,108.1-17.2z">
  </path>
  <path class="st10" d="M146.9,113.9v27.4h-11.5v-27.8c0-4.6-2.3-7.6-8-7.6c-5.3,0-7.9,3.2-7.9,7.8v27.6H108v-27.4
		c0-10.7,6.4-17.2,19.4-17.2C140.4,96.6,146.9,103,146.9,113.9z">
  </path>
  <path class="st10" d="M-17.2,69h-27.4V57.5h27.8c4.5,0,7.6-2.3,7.6-8c0-5.3-3.2-7.9-7.8-7.9h-27.6V30.1h27.4
		C-6.5,30.1,0,36.6,0,49.5C0,62.5-6.4,69-17.2,69z">
  </path>
  <path class="st10" d="M294.8,30.1h27.4v11.5h-27.8c-4.5,0-7.6,2.3-7.6,8c0,5.3,3.2,7.9,7.8,7.9h27.6V69h-27.4
		c-10.7,0-17.2-6.4-17.2-19.3C277.6,36.6,284,30.1,294.8,30.1z">
  </path>
  <line class="st11" x1="-44.6" y1="0" x2="320.1" y2="0">
  </line>
  <line class="st11" x1="-44.6" y1="96.6" x2="322.2" y2="96.6">
  </line>
 </g>
</svg>