<svg xmlns="http://www.w3.org/2000/svg" fill="none" viewBox="0 0 16 16" width="100%" height="100%"><g clip-path="url(#a)"><path fill="currentColor" d="M5 6a1 1 0 1 1-2 0 1 1 0 0 1 2 0m0 4a1 1 0 1 1-2 0 1 1 0 0 1 2 0m4-4a1 1 0 1 1-2 0 1 1 0 0 1 2 0m0 4a1 1 0 1 1-2 0 1 1 0 0 1 2 0m4-4a1 1 0 1 1-2 0 1 1 0 0 1 2 0m0 4a1 1 0 1 1-2 0 1 1 0 0 1 2 0" vector-effect="non-scaling-stroke"/></g><defs><clipPath id="a"><path fill="currentColor" d="M0 0h16v16H0z" vector-effect="non-scaling-stroke"/></clipPath></defs></svg>