<svg xmlns="http://www.w3.org/2000/svg" fill="none" viewBox="0 0 16 16" width="100%" height="100%"><path stroke="currentColor" stroke-width="1.5" d="M3.5 2.75h9A2.25 2.25 0 0 1 14.75 5v6a2.25 2.25 0 0 1-2.25 2.25h-9A2.25 2.25 0 0 1 1.25 11V5A2.25 2.25 0 0 1 3.5 2.75Z" vector-effect="non-scaling-stroke"/><path fill="currentColor" d="M3.5 5h1.286v1.125H3.5zm1.286 2.25h1.286v1.125H4.786zM3.5 9.5h1.286v1.125H3.5zm2 0h5v1.13h-5zM6.071 5h1.286v1.125H6.071zm1.286 2.25h1.286v1.125H7.357zM8.643 5h1.286v1.125H8.643zm1.286 2.25h1.286v1.125H9.929zm1.285 2.25H12.5v1.125h-1.286zm0-4.5H12.5v1.125h-1.286z" vector-effect="non-scaling-stroke"/></svg>