<svg xmlns="http://www.w3.org/2000/svg" fill="none" viewBox="0 0 16 16" width="100%" height="100%"><path stroke="currentColor" stroke-width="1.5" d="M5 12H4a2 2 0 0 1-2-2V7a2 2 0 0 1 2-2h5a2 2 0 0 1 2 2v1.5" vector-effect="non-scaling-stroke"/><path stroke="currentColor" stroke-width="1.5" d="M5 11a2 2 0 0 1 2-2h6a2 2 0 0 1 2 2v2a2 2 0 0 1-2 2H7a2 2 0 0 1-2-2z" vector-effect="non-scaling-stroke"/><circle cx="7.857" cy="11.857" r=".857" fill="currentColor" vector-effect="non-scaling-stroke"/><circle cx="10" cy="11.857" r=".857" fill="currentColor" vector-effect="non-scaling-stroke"/><circle cx="12.143" cy="11.857" r=".857" fill="currentColor" vector-effect="non-scaling-stroke"/><path stroke="currentColor" stroke-width="1.5" d="M9.5 5V4a3 3 0 0 0-6 0v1" vector-effect="non-scaling-stroke"/></svg>