<svg xmlns="http://www.w3.org/2000/svg" fill="none" viewBox="0 0 16 16" width="100%" height="100%"><path stroke="currentColor" stroke-width="1.5" d="M13.47 2.829c.602.18 1.076.712 1.237 1.389C15 5.443 15 8 15 8s0 2.557-.293 3.782c-.161.677-.635 1.208-1.238 1.39C12.38 13.5 8 13.5 8 13.5s-4.378 0-5.47-.329c-.602-.18-1.076-.712-1.237-1.389C1 10.557 1 8 1 8s0-2.557.293-3.782c.161-.677.635-1.208 1.237-1.39C3.622 2.5 8 2.5 8 2.5s4.378 0 5.47.329Z" clip-rule="evenodd" vector-effect="non-scaling-stroke"/><path fill="currentColor" fill-rule="evenodd" d="m11 8-5 3V5z" clip-rule="evenodd" vector-effect="non-scaling-stroke"/></svg>