<svg width="56" height="54" viewBox="0 0 56 54" fill="none" xmlns="http://www.w3.org/2000/svg">
<g opacity="0.8">
<path fill-rule="evenodd" clip-rule="evenodd" d="M14.086 52.0879V39.1311H18.5052V50.7376H26.6367V48.0103H21.2325V39.1311H26.6367V36.4038H21.2325V28.4292H26.6367V25.7019H18.5052V36.4038H14.086V16.3206H17.091C21.3587 16.3206 24.8184 12.8609 24.8184 8.59321C24.8184 4.32549 21.3587 0.865822 17.091 0.865822H7.99997C3.73225 0.865822 0.272583 4.32549 0.272583 8.59321C0.272583 12.8609 3.73225 16.3206 7.99997 16.3206H11.3587V52.0879H14.086ZM12.5455 10.0264L17.1725 12.1085C17.7741 12.3792 18.4547 11.9392 18.4547 11.2795V5.90955C18.4547 5.24985 17.7741 4.8098 17.1725 5.08052L12.5455 7.16267L7.91848 5.08052C7.31689 4.8098 6.63631 5.24985 6.63631 5.90955V11.2795C6.63631 11.9392 7.31689 12.3792 7.91848 12.1085L12.5455 10.0264Z" fill="var(--clr-theme-scale-pop-30)"/>
<path d="M38.9099 0.863281C34.6422 0.863281 31.1825 4.32295 31.1825 8.59067C31.1825 12.8584 34.6422 16.3181 38.9099 16.3181H39.3231L32.0916 53.1367H54.8192L47.5877 16.3181H48.0009C52.2687 16.3181 55.7283 12.8584 55.7283 8.59067C55.7283 4.32295 52.2687 0.863281 48.0009 0.863281H38.9099Z" fill="var(--clr-theme-scale-pop-30)"/>
</g>
</svg>
