<svg width="46" height="44" viewBox="0 0 46 44" fill="none" xmlns="http://www.w3.org/2000/svg">
<path d="M1 1.56287H32.5895L45 13.6072V42.5629H1V1.56287Z" fill="#242423"/>
<path d="M33 15.0629V4.26997C33 3.82452 33.5386 3.60144 33.8536 3.91642L44.1464 14.2093C44.4614 14.5243 44.2383 15.0629 43.7929 15.0629H33Z" fill="#242423"/>
<path d="M1 2.06287H6.62791V7.8321H1V2.06287Z" fill="#373634"/>
<path d="M17.3721 25.1398H12.2558V30.909H17.3721V25.1398Z" fill="#373634"/>
<path d="M22.4884 25.1398V30.909H28.1163V25.1398H22.4884Z" fill="#373634"/>
<path fill-rule="evenodd" clip-rule="evenodd" d="M12.2558 7.8321H6.62791V13.6013H1V19.3706H6.62791V25.1398H1V30.909H6.62791V36.6783H1V42.0629H6.62791V36.6783H12.2558V42.0629H17.3721V36.6783H22.4884V42.0629H28.1163V36.6783H33.7442V42.0629H39.3721V36.6783H45V30.909H39.3721V25.1398H45V19.3706H39.3721V14.3706H33.7442V19.3706H28.1163V13.6013H33V7.8321H28.1163V2.06287H22.4884V7.8321H17.3721V2.06287H12.2558V7.8321ZM12.2558 13.6013V7.8321H17.3721V13.6013H12.2558ZM12.2558 19.3706H6.62791V13.6013H12.2558V19.3706ZM17.3721 19.3706V13.6013H22.4884V19.3706H17.3721ZM17.3721 25.1398V19.3706H12.2558V25.1398H6.62791V30.909H12.2558V36.6783H17.3721V30.909H22.4884V36.6783H28.1163V30.909H33.7442V36.6783H39.3721V30.909H33.7442V25.1398H39.3721V19.3706H33.7442V25.1398H28.1163V19.3706H22.4884V25.1398H17.3721ZM22.4884 13.6013V7.8321H28.1163V13.6013H22.4884Z" fill="#373634"/>
<path d="M32.5895 1.56287H1V42.5629H45V14.0629M32.5895 1.56287L45 14.0629M32.5895 1.56287V14.0629H45" stroke="#51504D" stroke-width="1.2"/>
</svg>
