<svg width="38" height="37" viewBox="0 0 38 37" fill="none" xmlns="http://www.w3.org/2000/svg">
<path d="M11.8176 7.25903C8.60162 4.33541 2.49812 8.89063 7.43214 15.4453C4.85787 15.0161 3.06001 16.2698 3.06002 19.0585C3.06003 21.8473 6.87209 27.8375 15.0733 30.2138C20.0073 26.7814 25.156 26.3524 30.9481 27.2105C34.595 21.6328 34.3665 14.2674 34.038 10.1825C33.7095 6.09762 30.8778 1.18847 26.7288 4.62764C25.2668 1.99625 21.1736 1.41139 18.8347 4.9199C17.0804 2.28881 12.6948 2.87355 11.8176 7.25903Z" fill="#242423"/>
<path d="M9.7714 18.3688C5.6782 14.2756 4.50872 9.88994 6.84768 7.25872C8.7189 5.15368 11.8948 6.67386 12.9875 8.42809M11.8959 7.25872C12.1104 5.79675 12.8121 4.15951 14.4493 3.45782C16.0866 2.75613 17.9578 3.1654 20.0044 6.38149M19.1273 4.91963C19.712 3.75015 20.7061 2.52215 22.3434 2.28822C24.6823 1.95404 26.4366 4.0425 27.3137 5.79683M26.6159 4.62735C27.0213 3.75023 29.1915 3.0352 30.5298 3.45782C36.0848 5.21212 34.9153 20.123 31.6992 26.2627L15.3264 30.3559C5.97051 26.8476 2.75443 20.7078 3.04691 18.3688C3.33938 16.0298 5.67814 15.1527 7.14006 15.4451" stroke="#51504D" stroke-width="1.2"/>
<path d="M14.8586 12.8375C15.6673 14.1082 16.3109 16.0389 16.5272 17.3425M21.2944 11.5504C21.8244 12.8587 22.103 14.9499 22.103 16.2535M27.4661 10.8904C27.8951 12.1775 27.8951 14.5373 27.7301 15.8409" stroke="#51504D" stroke-width="1.2"/>
<path d="M22.5344 24.863C30.2572 23.3561 34.1187 25.9355 34.1187 29.1534C34.1186 32.3714 29.8282 34.7311 25.1087 35.5892C20.3892 36.4473 14.2906 36.6617 13.3099 33.2294C12.4518 30.2261 14.8116 26.3699 22.5344 24.863Z" fill="#242423"/>
<path d="M22.5344 24.8632C20.4303 25.2738 18.7243 25.8587 17.373 26.5533C13.7646 28.4081 12.6856 31.0446 13.3099 33.2297C14.2906 36.662 20.3892 36.4475 25.1087 35.5894C29.8282 34.7313 34.1186 32.3716 34.1187 29.1537C34.1187 26.9683 32.3376 25.0773 28.7755 24.5609" stroke="#51504D" stroke-width="1.2"/>
<path d="M18.9063 32.6739C21.0636 30.9088 25.7704 29.732 28.5875 30.3704" stroke="#51504D" stroke-width="1.2"/>
</svg>
