<svg width="44" height="44" viewBox="0 0 44 44" fill="none" xmlns="http://www.w3.org/2000/svg">
<path d="M13.6065 8.90225C9.83772 5.47615 2.6852 10.8143 8.46724 18.4955C5.45052 17.9926 3.34367 19.4617 3.34368 22.7298C3.34369 25.9978 7.81094 33.0176 17.4218 35.8023C23.2037 31.78 29.2373 31.2772 36.0249 32.2828C40.2986 25.7465 40.0308 17.1152 39.6459 12.3282C39.2609 7.54123 35.9426 1.78834 31.0804 5.81861C29.3672 2.73495 24.5705 2.04957 21.8295 6.1611C19.7738 3.07779 14.6344 3.76304 13.6065 8.90225Z" fill="#F5F5F3"/>
<path d="M11.2086 21.9214C6.41188 17.1247 5.0414 11.9853 7.78236 8.90183C9.97519 6.43499 13.697 8.21645 14.9774 10.2722M13.6983 8.90183C13.9496 7.18859 14.7718 5.26996 16.6905 4.44767C18.6092 3.62537 20.802 4.10499 23.2004 7.87383M22.1725 6.16072C22.8577 4.79023 24.0226 3.35118 25.9413 3.07704C28.6823 2.68542 30.738 5.13284 31.7659 7.18868M30.9481 5.8182C31.4233 4.79033 33.9665 3.95241 35.5347 4.44767C42.0446 6.50348 40.6741 23.9772 36.9052 31.1721L17.7183 35.9688C6.75443 31.8575 2.9856 24.6624 3.32834 21.9214C3.67108 19.1805 6.4118 18.1526 8.12499 18.4952" stroke="#C5C5C3" stroke-width="1.2"/>
<path d="M17.1702 15.4395C18.1178 16.9286 18.872 19.1912 19.1255 20.7188M24.712 13.9312C25.3331 15.4644 25.6596 17.9149 25.6596 19.4426M31.9445 13.1577C32.4473 14.6661 32.4473 17.4314 32.2538 18.9591" stroke="#C5C5C3" stroke-width="1.2"/>
<path d="M26.1651 29.5319C35.2152 27.766 39.7404 30.7888 39.7404 34.5597C39.7403 38.3307 34.7125 41.096 29.1818 42.1016C23.6512 43.1072 16.5044 43.3585 15.3552 39.3363C14.3496 35.8167 17.115 31.2978 26.1651 29.5319Z" fill="#F5F5F3"/>
<path d="M26.1651 29.532C23.6994 30.0131 21.7002 30.6986 20.1166 31.5126C15.888 33.6861 14.6236 36.7758 15.3552 39.3364C16.5044 43.3586 23.6512 43.1073 29.1818 42.1017C34.7125 41.0962 39.7403 38.3308 39.7404 34.5599C39.7404 31.9988 37.6532 29.7829 33.4789 29.1777" stroke="#C5C5C3" stroke-width="1.2"/>
<path d="M21.9133 38.6851C24.4414 36.6167 29.9571 35.2377 33.2584 35.9857" stroke="#C5C5C3" stroke-width="1.2"/>
</svg>
