<svg width="46" height="56" viewBox="0 0 46 56" fill="none" xmlns="http://www.w3.org/2000/svg">
<path d="M1 1.5H29.6499L45 16.2649V54.5H1V1.5Z" fill="#F5F5F3"/>
<path d="M29.1658 5.92114V17.3025H41.9698" stroke="#C5C5C3" stroke-width="1.2"/>
<path d="M1.5 51.9333H3.54762V54H1.5V51.9333Z" fill="#DBDAD7"/>
<path d="M5.59524 51.9333H7.64286V54H5.59524V51.9333Z" fill="#DBDAD7"/>
<path d="M9.69048 51.9333H11.7381V54H9.69048V51.9333Z" fill="#DBDAD7"/>
<path d="M7.64286 49.8667H9.69048V51.9333H7.64286V49.8667Z" fill="#DBDAD7"/>
<path d="M15.8333 49.8667H17.881V51.9333H15.8333V49.8667Z" fill="#DBDAD7"/>
<path d="M24.0238 49.8667H26.0714V51.9333H24.0238V49.8667Z" fill="#DBDAD7"/>
<path d="M32.2143 49.8667H34.2619V51.9333H32.2143V49.8667Z" fill="#DBDAD7"/>
<path d="M40.4048 49.8667H42.4524V51.9333H40.4048V49.8667Z" fill="#DBDAD7"/>
<path d="M38.3571 47.8H40.4048V49.8667H38.3571V47.8Z" fill="#DBDAD7"/>
<path d="M42.4524 47.8H44.5V49.8667H42.4524V47.8Z" fill="#DBDAD7"/>
<path d="M34.2619 47.8H36.3095V49.8667H34.2619V47.8Z" fill="#DBDAD7"/>
<path d="M30.1667 47.8H32.2143V49.8667H30.1667V47.8Z" fill="#DBDAD7"/>
<path d="M26.0714 47.8H28.119V49.8667H26.0714V47.8Z" fill="#DBDAD7"/>
<path d="M21.9762 47.8H24.0238V49.8667H21.9762V47.8Z" fill="#DBDAD7"/>
<path d="M17.881 47.8H19.9286V49.8667H17.881V47.8Z" fill="#DBDAD7"/>
<path d="M13.7857 47.8H15.8333V49.8667H13.7857V47.8Z" fill="#DBDAD7"/>
<path d="M9.69048 47.8H11.7381V49.8667H9.69048V47.8Z" fill="#DBDAD7"/>
<path d="M5.59524 47.8H7.64286V49.8667H5.59524V47.8Z" fill="#DBDAD7"/>
<path d="M1.5 47.8H3.54762V49.8667H1.5V47.8Z" fill="#DBDAD7"/>
<path d="M3.54762 45.7333H5.59524V47.8H3.54762V45.7333Z" fill="#DBDAD7"/>
<path d="M5.59524 43.6667H7.64286V45.7333H5.59524V43.6667Z" fill="#DBDAD7"/>
<path d="M5.59524 39.5333H7.64286V41.6H5.59524V39.5333Z" fill="#DBDAD7"/>
<path d="M13.7857 39.5333H15.8333V41.6H13.7857V39.5333Z" fill="#DBDAD7"/>
<path d="M21.9762 39.5333H24.0238V41.6H21.9762V39.5333Z" fill="#DBDAD7"/>
<path d="M30.1667 39.5333H32.2143V41.6H30.1667V39.5333Z" fill="#DBDAD7"/>
<path d="M9.69048 43.6667H11.7381V45.7333H9.69048V43.6667Z" fill="#DBDAD7"/>
<path d="M13.7857 43.6667H15.8333V45.7333H13.7857V43.6667Z" fill="#DBDAD7"/>
<path d="M17.881 43.6667H19.9286V45.7333H17.881V43.6667Z" fill="#DBDAD7"/>
<path d="M21.9762 43.6667H24.0238V45.7333H21.9762V43.6667Z" fill="#DBDAD7"/>
<path d="M26.0714 43.6667H28.119V45.7333H26.0714V43.6667Z" fill="#DBDAD7"/>
<path d="M30.1667 43.6667H32.2143V45.7333H30.1667V43.6667Z" fill="#DBDAD7"/>
<path d="M34.2619 43.6667H36.3095V45.7333H34.2619V43.6667Z" fill="#DBDAD7"/>
<path d="M38.3571 43.6667H40.4048V45.7333H38.3571V43.6667Z" fill="#DBDAD7"/>
<path d="M42.4524 43.6667H44.5V45.7333H42.4524V43.6667Z" fill="#DBDAD7"/>
<path d="M1.5 43.6667H3.54762V45.7333H1.5V43.6667Z" fill="#DBDAD7"/>
<path d="M1.5 39.5333H3.54762V41.6H1.5V39.5333Z" fill="#DBDAD7"/>
<path d="M1.5 35.4H3.54762V37.4667H1.5V35.4Z" fill="#DBDAD7"/>
<path d="M5.59524 31.2667H7.64286V33.3333H5.59524V31.2667Z" fill="#DBDAD7"/>
<path d="M13.7857 31.2667H15.8333V33.3333H13.7857V31.2667Z" fill="#DBDAD7"/>
<path d="M21.9762 31.2667H24.0238V33.3333H21.9762V31.2667Z" fill="#DBDAD7"/>
<path d="M30.1667 31.2667H32.2143V33.3333H30.1667V31.2667Z" fill="#DBDAD7"/>
<path d="M38.3571 31.2667H40.4048V33.3333H38.3571V31.2667Z" fill="#DBDAD7"/>
<path d="M9.69048 27.1333H11.7381V29.2H9.69048V27.1333Z" fill="#DBDAD7"/>
<path d="M13.7857 23H15.8333V25.0667H13.7857V23Z" fill="#DBDAD7"/>
<path d="M9.69048 35.4H11.7381V37.4667H9.69048V35.4Z" fill="#DBDAD7"/>
<path d="M17.881 35.4H19.9286V37.4667H17.881V35.4Z" fill="#DBDAD7"/>
<path d="M26.0714 35.4H28.119V37.4667H26.0714V35.4Z" fill="#DBDAD7"/>
<path d="M34.2619 35.4H36.3095V37.4667H34.2619V35.4Z" fill="#DBDAD7"/>
<path d="M9.69048 39.5333H11.7381V41.6H9.69048V39.5333Z" fill="#DBDAD7"/>
<path d="M17.881 39.5333H19.9286V41.6H17.881V39.5333Z" fill="#DBDAD7"/>
<path d="M26.0714 39.5333H28.119V41.6H26.0714V39.5333Z" fill="#DBDAD7"/>
<path d="M38.3571 39.5333H40.4048V41.6H38.3571V39.5333Z" fill="#DBDAD7"/>
<path d="M11.7381 45.7333H13.7857V47.8H11.7381V45.7333Z" fill="#DBDAD7"/>
<path d="M19.9286 45.7333H21.9762V47.8H19.9286V45.7333Z" fill="#DBDAD7"/>
<path d="M28.119 45.7333H30.1667V47.8H28.119V45.7333Z" fill="#DBDAD7"/>
<path d="M36.3095 45.7333H38.3571V47.8H36.3095V45.7333Z" fill="#DBDAD7"/>
<path d="M13.7857 51.9333H15.8333V54H13.7857V51.9333Z" fill="#DBDAD7"/>
<path d="M17.881 51.9333H19.9286V54H17.881V51.9333Z" fill="#DBDAD7"/>
<path d="M21.9762 51.9333H24.0238V54H21.9762V51.9333Z" fill="#DBDAD7"/>
<path d="M26.0714 51.9333H28.119V54H26.0714V51.9333Z" fill="#DBDAD7"/>
<path d="M30.1667 51.9333H32.2143V54H30.1667V51.9333Z" fill="#DBDAD7"/>
<path d="M34.2619 51.9333H36.3095V54H34.2619V51.9333Z" fill="#DBDAD7"/>
<path d="M38.3571 51.9333H40.4048V54H38.3571V51.9333Z" fill="#DBDAD7"/>
<path d="M42.4524 51.9333H44.5V54H42.4524V51.9333Z" fill="#DBDAD7"/>
<path d="M1 1.5H29.6499L45 16.2649V54.5H1V1.5Z" stroke="#C5C5C3" stroke-width="1.2"/>
</svg>
