<svg width="46" height="56" viewBox="0 0 46 56" fill="none" xmlns="http://www.w3.org/2000/svg">
<path d="M1 1.49988H29.6499L45 16.2648V54.4999H1V1.49988Z" fill="#242423"/>
<path d="M29.1658 5.92114V17.3025H41.9698" stroke="#51504D" stroke-width="1.2"/>
<path d="M1.5 51.9332H3.54762V53.9999H1.5V51.9332Z" fill="#373634"/>
<path d="M5.59524 51.9332H7.64286V53.9999H5.59524V51.9332Z" fill="#373634"/>
<path d="M9.69048 51.9332H11.7381V53.9999H9.69048V51.9332Z" fill="#373634"/>
<path d="M7.64286 49.8665H9.69048V51.9332H7.64286V49.8665Z" fill="#373634"/>
<path d="M15.8333 49.8665H17.881V51.9332H15.8333V49.8665Z" fill="#373634"/>
<path d="M24.0238 49.8665H26.0714V51.9332H24.0238V49.8665Z" fill="#373634"/>
<path d="M32.2143 49.8665H34.2619V51.9332H32.2143V49.8665Z" fill="#373634"/>
<path d="M40.4048 49.8665H42.4524V51.9332H40.4048V49.8665Z" fill="#373634"/>
<path d="M38.3571 47.7999H40.4048V49.8665H38.3571V47.7999Z" fill="#373634"/>
<path d="M42.4524 47.7999H44.5V49.8665H42.4524V47.7999Z" fill="#373634"/>
<path d="M34.2619 47.7999H36.3095V49.8665H34.2619V47.7999Z" fill="#373634"/>
<path d="M30.1667 47.7999H32.2143V49.8665H30.1667V47.7999Z" fill="#373634"/>
<path d="M26.0714 47.7999H28.119V49.8665H26.0714V47.7999Z" fill="#373634"/>
<path d="M21.9762 47.7999H24.0238V49.8665H21.9762V47.7999Z" fill="#373634"/>
<path d="M17.881 47.7999H19.9286V49.8665H17.881V47.7999Z" fill="#373634"/>
<path d="M13.7857 47.7999H15.8333V49.8665H13.7857V47.7999Z" fill="#373634"/>
<path d="M9.69048 47.7999H11.7381V49.8665H9.69048V47.7999Z" fill="#373634"/>
<path d="M5.59524 47.7999H7.64286V49.8665H5.59524V47.7999Z" fill="#373634"/>
<path d="M1.5 47.7999H3.54762V49.8665H1.5V47.7999Z" fill="#373634"/>
<path d="M3.54762 45.7332H5.59524V47.7999H3.54762V45.7332Z" fill="#373634"/>
<path d="M5.59524 43.6665H7.64286V45.7332H5.59524V43.6665Z" fill="#373634"/>
<path d="M5.59524 39.5332H7.64286V41.5999H5.59524V39.5332Z" fill="#373634"/>
<path d="M13.7857 39.5332H15.8333V41.5999H13.7857V39.5332Z" fill="#373634"/>
<path d="M21.9762 39.5332H24.0238V41.5999H21.9762V39.5332Z" fill="#373634"/>
<path d="M30.1667 39.5332H32.2143V41.5999H30.1667V39.5332Z" fill="#373634"/>
<path d="M9.69048 43.6665H11.7381V45.7332H9.69048V43.6665Z" fill="#373634"/>
<path d="M13.7857 43.6665H15.8333V45.7332H13.7857V43.6665Z" fill="#373634"/>
<path d="M17.881 43.6665H19.9286V45.7332H17.881V43.6665Z" fill="#373634"/>
<path d="M21.9762 43.6665H24.0238V45.7332H21.9762V43.6665Z" fill="#373634"/>
<path d="M26.0714 43.6665H28.119V45.7332H26.0714V43.6665Z" fill="#373634"/>
<path d="M30.1667 43.6665H32.2143V45.7332H30.1667V43.6665Z" fill="#373634"/>
<path d="M34.2619 43.6665H36.3095V45.7332H34.2619V43.6665Z" fill="#373634"/>
<path d="M38.3571 43.6665H40.4048V45.7332H38.3571V43.6665Z" fill="#373634"/>
<path d="M42.4524 43.6665H44.5V45.7332H42.4524V43.6665Z" fill="#373634"/>
<path d="M1.5 43.6665H3.54762V45.7332H1.5V43.6665Z" fill="#373634"/>
<path d="M1.5 39.5332H3.54762V41.5999H1.5V39.5332Z" fill="#373634"/>
<path d="M1.5 35.3999H3.54762V37.4665H1.5V35.3999Z" fill="#373634"/>
<path d="M5.59524 31.2665H7.64286V33.3332H5.59524V31.2665Z" fill="#373634"/>
<path d="M13.7857 31.2665H15.8333V33.3332H13.7857V31.2665Z" fill="#373634"/>
<path d="M21.9762 31.2665H24.0238V33.3332H21.9762V31.2665Z" fill="#373634"/>
<path d="M30.1667 31.2665H32.2143V33.3332H30.1667V31.2665Z" fill="#373634"/>
<path d="M38.3571 31.2665H40.4048V33.3332H38.3571V31.2665Z" fill="#373634"/>
<path d="M9.69048 27.1332H11.7381V29.1999H9.69048V27.1332Z" fill="#373634"/>
<path d="M13.7857 22.9999H15.8333V25.0665H13.7857V22.9999Z" fill="#373634"/>
<path d="M9.69048 35.3999H11.7381V37.4665H9.69048V35.3999Z" fill="#373634"/>
<path d="M17.881 35.3999H19.9286V37.4665H17.881V35.3999Z" fill="#373634"/>
<path d="M26.0714 35.3999H28.119V37.4665H26.0714V35.3999Z" fill="#373634"/>
<path d="M34.2619 35.3999H36.3095V37.4665H34.2619V35.3999Z" fill="#373634"/>
<path d="M9.69048 39.5332H11.7381V41.5999H9.69048V39.5332Z" fill="#373634"/>
<path d="M17.881 39.5332H19.9286V41.5999H17.881V39.5332Z" fill="#373634"/>
<path d="M26.0714 39.5332H28.119V41.5999H26.0714V39.5332Z" fill="#373634"/>
<path d="M38.3571 39.5332H40.4048V41.5999H38.3571V39.5332Z" fill="#373634"/>
<path d="M11.7381 45.7332H13.7857V47.7999H11.7381V45.7332Z" fill="#373634"/>
<path d="M19.9286 45.7332H21.9762V47.7999H19.9286V45.7332Z" fill="#373634"/>
<path d="M28.119 45.7332H30.1667V47.7999H28.119V45.7332Z" fill="#373634"/>
<path d="M36.3095 45.7332H38.3571V47.7999H36.3095V45.7332Z" fill="#373634"/>
<path d="M13.7857 51.9332H15.8333V53.9999H13.7857V51.9332Z" fill="#373634"/>
<path d="M17.881 51.9332H19.9286V53.9999H17.881V51.9332Z" fill="#373634"/>
<path d="M21.9762 51.9332H24.0238V53.9999H21.9762V51.9332Z" fill="#373634"/>
<path d="M26.0714 51.9332H28.119V53.9999H26.0714V51.9332Z" fill="#373634"/>
<path d="M30.1667 51.9332H32.2143V53.9999H30.1667V51.9332Z" fill="#373634"/>
<path d="M34.2619 51.9332H36.3095V53.9999H34.2619V51.9332Z" fill="#373634"/>
<path d="M38.3571 51.9332H40.4048V53.9999H38.3571V51.9332Z" fill="#373634"/>
<path d="M42.4524 51.9332H44.5V53.9999H42.4524V51.9332Z" fill="#373634"/>
<path d="M1 1.49988H29.6499L45 16.2648V54.4999H1V1.49988Z" stroke="#51504D" stroke-width="1.2"/>
</svg>
