<svg
  xmlns="http://www.w3.org/2000/svg" width="100%" height="100%" viewBox="0 0 400 400" fill="none">
  <g id="2835:8925" clip-path="url(#clip0_2835_8925)">
    <ellipse id="I2835:8925;8046:6204" opacity="0.12" cx="162.5" cy="13" rx="162.5" ry="13"
      transform="matrix(0.99863 -0.052336 -0.0348995 0.999391 50.405 378.287)"
      fill="var(--clr-art-scene-outline)" />
    <g id="Group 1948754864">
      <path id="I2835:8925;8046:6206"
        d="M113.696 234.388L163.71 217.48L156 166.251L88.7396 188.989L113.696 234.388Z"
        fill="var(--clr-art-scene-fill)" stroke="var(--clr-art-scene-outline)" stroke-width="1.2" />
      <circle id="I2835:8925;8046:6207" cx="69.2401" cy="124.982" r="17.9238"
        transform="rotate(-18.6784 69.2401 124.982)" fill="var(--clr-art-scene-fill)"
        stroke="var(--clr-art-scene-outline)" stroke-width="1.2" />
      <circle id="I2835:8925;8046:6208" cx="124.147" cy="74.7378" r="15.0065"
        transform="rotate(-18.6784 124.147 74.7378)" fill="var(--clr-art-scene-fill)"
        stroke="var(--clr-art-scene-outline)" stroke-width="1.2" />
      <circle id="I2835:8925;8046:6209" cx="80.6128" cy="52.2919" r="24.4248"
        transform="rotate(-18.6784 80.6128 52.2919)" fill="var(--clr-art-scene-fill)"
        stroke="var(--clr-art-scene-outline)" stroke-width="1.2" />
      <path id="I2835:8925;8046:6210"
        d="M115.916 156.725L109.354 137.315M76.9141 41.3561L81.0731 53.6585M100.204 110.25L109.354 137.315M100.204 110.25L119.894 80.4412M100.204 110.25L83.7533 61.5867M129.221 66.3215L123.599 74.9238M109.354 137.315L75.8321 126.464M60.0973 121.371L70.3591 124.693M119.894 80.4412L132.748 80.3605M119.894 80.4412L123.599 74.9238M123.599 74.9238L118.994 64.9048M83.7533 61.5867L95.0119 48.0324M83.7533 61.5867L81.0731 53.6585M81.0731 53.6585L68.3661 48.5107M70.3591 124.693L68.4605 113.67M70.3591 124.693L75.8321 126.464M75.8321 126.464L65.6271 134.124"
        stroke="var(--clr-art-scene-outline)" stroke-width="1.2" />
      <path id="I2835:8925;8046:6211"
        d="M81.694 168.148L148.954 145.409L156 166.251L88.7396 188.989L81.694 168.148Z"
        fill="var(--clr-art-scene-fill)" stroke="var(--clr-art-scene-outline)" stroke-width="1.2" />
    </g>
    <g id="Group 1948754865">
      <mask id="mask0_2835_8925" style="mask-type:alpha" maskUnits="userSpaceOnUse" x="48" y="130"
        width="153" height="129">
        <g id="I2835:8925;8046:6213">
          <path
            d="M86.3997 182.714L98.3775 205.496L131.784 188.262L126.67 258.163L56.0698 240.029L48.5176 198.844L86.3997 182.714Z"
            fill="#D9D9D9" />
          <path
            d="M150.467 137.179L158.777 188.885L200.685 193.352L191.629 130.627L150.467 137.179Z"
            fill="#D9D9D9" />
        </g>
      </mask>
      <g mask="url(#mask0_2835_8925)">
        <path id="I2835:8925;8046:6214"
          d="M196.017 157.235C139.994 171.383 90.7143 190.815 90.4145 203.812C90.2415 211.31 97.8587 215.801 121.722 212.536"
          stroke="var(--clr-art-scene-outline)" stroke-width="13.2" stroke-linecap="round" />
      </g>
    </g>
    <g id="Group 1948754583">
      <path id="I2835:8925;8046:6216"
        d="M224.114 28.7819C216.165 35.8572 230.29 50.759 237.232 56.6899L275.695 75.883C285.404 68.7825 298.58 51.0834 286.411 39.9338C276.747 31.0798 260.71 34.6734 252.01 41.7076C243.12 32.5225 231.269 22.4133 224.114 28.7819Z"
        fill="var(--clr-art-scene-outline)" />
      <path id="I2835:8925;8046:6217"
        d="M258.156 46.2097C261.84 43.5225 267.648 40.7304 275.033 41.1584"
        stroke="var(--clr-art-scene-fill)" stroke-width="2" />
    </g>
    <g id="Group 1948754581">
      <path id="I2835:8925;8046:6219"
        d="M296.915 379.62L199.441 377.371C204.353 337.874 233.512 331.312 247.478 332.967L248.204 301.476C161.393 278.668 164.248 233.521 209.971 181.062L227.408 183.965C188.197 252.079 203.014 265.924 290.921 270.953L296.915 379.62Z"
        fill="var(--clr-art-scene-fill)" stroke="var(--clr-art-scene-outline)" stroke-width="1.2" />
    </g>
    <g id="Group 1948754582">
      <path id="I2835:8925;8046:6226"
        d="M157.32 360.396C180.607 294.415 189.397 249.106 253.481 191.568L238.693 182.225C193.184 215.095 171.263 238.939 133.033 296.318C108.847 260.751 54.627 236.271 28.0862 282.394C17.804 300.263 149.973 381.213 157.32 360.396Z"
        fill="var(--clr-art-scene-fill)" stroke="var(--clr-art-scene-outline)" stroke-width="1.2" />
      <path id="I2835:8925;8046:6227"
        d="M28.0732 282.893C40.0714 264.441 161.59 345.757 156.809 360.883"
        stroke="var(--clr-art-scene-outline)" stroke-width="1.2" stroke-linecap="round" />
    </g>
    <g id="Group 1948754576">
      <path id="I2835:8925;8046:6235"
        d="M296.253 200.352L157.857 177.197C147.883 175.528 141.241 165.973 143.151 156.043L163.125 52.2419C165.008 42.4558 174.484 36.0621 184.263 37.9793L265.812 53.9664C274.348 55.6398 280.466 63.177 280.348 71.8741L279.929 102.763C279.837 109.564 283.586 115.837 289.62 118.976L310.727 129.956C317.185 133.315 320.984 140.235 320.352 147.487L317.155 184.162C316.243 194.623 306.609 202.085 296.253 200.352Z"
        fill="var(--clr-art-scene-fill)" stroke="var(--clr-art-scene-outline)" stroke-width="1.2" />
      <path id="I2835:8925;8046:6236" opacity="0.13"
        d="M258.825 64.2771L181.976 55.4936C176.243 54.8383 170.977 58.725 169.915 64.3971L153.24 153.41C152.108 159.451 156.147 165.248 162.206 166.279L244.042 180.207C250.222 181.259 256.031 176.94 256.803 170.718L268.493 76.5611C269.246 70.4908 264.903 64.9717 258.825 64.2771Z"
        fill="var(--clr-art-scene-outline)" />
      <g id="Group 1948754528">
        <path id="I2835:8925;8046:6238"
          d="M197.315 67.3571C179.685 65.9156 176.662 83.3727 173.726 98.8835C171.289 111.757 169.643 125.659 178.761 131.661C180.965 129.887 183.118 128.985 185.974 129.475C187.724 129.775 190.093 130.857 190.847 134.628C203.538 133.225 206.414 115.664 209.557 101.782C213.065 86.286 214.944 68.7986 197.315 67.3571Z"
          fill="var(--clr-art-scene-fill)" stroke="var(--clr-art-scene-outline)" stroke-width="1.2" />
        <path id="I2835:8925;8046:6239"
          d="M195.382 88.5406L188.873 121.378L171.867 117.113C171.575 111.455 172.559 105.051 173.727 98.8838C174.826 93.0797 175.936 87.0028 177.82 81.7458L195.382 88.5406Z"
          fill="var(--clr-art-scene-outline)" />
      </g>
      <g id="Group 1948754529">
        <path id="I2835:8925;8046:6243"
          d="M241.134 71.6473C223.504 70.2058 220.481 87.6629 217.545 103.174C215.437 114.305 213.922 126.205 219.445 133.102C224.067 133.436 228.274 134.825 230.868 138.743C246.6 140.451 249.956 121.178 253.376 106.072C256.884 90.5762 258.763 73.0888 241.134 71.6473Z"
          fill="var(--clr-art-scene-fill)" stroke="var(--clr-art-scene-outline)" stroke-width="1.2" />
        <path id="I2835:8925;8046:6244"
          d="M239.201 92.8301L232.692 125.667L215.686 121.402C215.394 115.745 216.378 109.341 217.546 103.173C218.644 97.3691 219.755 91.2923 221.639 86.0353L239.201 92.8301Z"
          fill="var(--clr-art-scene-outline)" />
      </g>
      <path id="I2835:8925;8046:6247"
        d="M275.115 145.799L298.453 141.933M274.487 151.917L297.825 148.051M273.859 158.034L297.197 154.168"
        stroke="var(--clr-art-scene-outline)" stroke-width="1.2" />
      <path id="I2835:8925;8046:6248"
        d="M186.128 196.983L196.394 162.003L213.402 176.834L237.056 167.752L227.729 205.336L210.81 188.084L186.128 196.983Z"
        fill="var(--clr-art-scene-outline)" />
      <g id="Group 1948754578">
        <path id="I2835:8925;8046:6250"
          d="M231.19 139.408C229.32 133.764 215.809 129.022 205.698 138.82L190.737 136.974C191.116 134.983 190.681 130.189 185.411 129.35C174.503 127.611 166.851 153.428 175.756 157.634C181.324 160.264 188.489 154.928 190.391 151.971L202.829 154.758"
          stroke="var(--clr-art-scene-outline)" stroke-width="1.2" />
        <ellipse id="I2835:8925;8046:6251" cx="182.333" cy="143.595" rx="3.5" ry="8"
          transform="rotate(13.6083 182.333 143.595)" fill="var(--clr-art-scene-outline)" />
      </g>
    </g>
    <g id="Group 1948754579">
      <g id="I2835:8925;8046:6253">
        <path
          d="M248.483 279.857L226.931 210.66L238.826 206.443L347.437 167.943L373.706 233.732L259.852 276.081L248.483 279.857Z"
          fill="var(--clr-art-scene-fill)" />
        <path
          d="M238.826 206.443L347.437 167.943L373.706 233.732L259.852 276.081M238.826 206.443L226.931 210.66L248.483 279.857L259.852 276.081M238.826 206.443L259.852 276.081"
          stroke="var(--clr-art-scene-outline)" stroke-width="1.2" />
      </g>
      <g id="Group 1948754580">
        <path id="I2835:8925;8046:6255"
          d="M258.958 210.382C260.765 209.777 262.882 211.237 263.688 213.642C264.494 216.048 263.682 218.488 261.876 219.093L256.18 221.001C254.373 221.606 252.255 220.146 251.45 217.741C250.644 215.335 251.455 212.895 253.262 212.29L258.958 210.382Z"
          fill="var(--clr-art-scene-fill)" stroke="var(--clr-art-scene-outline)" stroke-width="1.2" />
        <path id="I2835:8925;8046:6256"
          d="M261.877 219.094C260.07 219.699 257.953 218.24 257.147 215.834C256.341 213.429 257.153 210.988 258.959 210.383"
          stroke="var(--clr-art-scene-outline)" stroke-width="1.2" />
      </g>
      <path id="I2835:8925;8046:6257"
        d="M266.12 264.077L361.608 229.22L343.147 178.788L266.648 206.936L270.648 220.287L253.362 226.287L266.12 264.077Z"
        stroke="var(--clr-art-scene-outline)" stroke-width="1.2" />
      <path id="I2835:8925;8046:6258" d="M327.647 184.288L345.052 235.271"
        stroke="var(--clr-art-scene-outline)" stroke-width="1.2" />
      <path id="I2835:8925;8046:6259"
        d="M313.488 189.211L326.415 227.972M296.913 195.774L309.84 234.534M282.415 201.389L295.342 240.149"
        stroke="var(--clr-art-scene-outline)" stroke-width="1.2" />
      <path id="I2835:8925;8046:6260" d="M266.647 206.787L283.926 259.662"
        stroke="var(--clr-art-scene-outline)" stroke-width="1.2" />
      <path id="I2835:8925;8046:6261" d="M253.538 226.347L348.147 191.786"
        stroke="var(--clr-art-scene-outline)" stroke-width="1.2" />
      <path id="I2835:8925;8046:6262" d="M257.185 238.733L352.673 203.876"
        stroke="var(--clr-art-scene-outline)" stroke-width="1.2" />
      <path id="I2835:8925;8046:6263" d="M261.816 252.175L357.304 217.319"
        stroke="var(--clr-art-scene-outline)" stroke-width="1.2" />
    </g>
    <g id="I2835:8925;8046:6264">
      <path
        d="M319.393 229.099C297.149 233.62 303.028 244.726 307.493 246.329C296.961 247.586 280.617 253.952 278.166 260.156C274.448 269.573 284.024 273.629 287.864 273.384C284.226 279.302 291.935 291.983 306.593 285.319C312 289.445 323.519 288.711 330.691 281.374C348.359 274.28 346.6 256.568 344.483 247.183C355.13 240.927 343.01 224.299 319.393 229.099Z"
        fill="var(--clr-art-scene-fill)" />
      <path
        d="M344.483 247.183C346.6 256.568 348.359 274.28 330.691 281.374C323.519 288.711 312 289.445 306.593 285.319C291.935 291.983 284.226 279.302 287.864 273.384M344.483 247.183C355.13 240.927 343.01 224.299 319.393 229.099C297.149 233.62 303.028 244.726 307.493 246.329C296.961 247.586 280.617 253.952 278.166 260.156C274.448 269.573 284.024 273.629 287.864 273.384M344.483 247.183C342.952 248.481 336.393 250.997 330.882 251.37M287.864 273.384C291.689 273.805 301.681 272.802 311.054 265.416"
        stroke="var(--clr-art-scene-outline)" stroke-width="1.2" />
    </g>
    <path id="I2835:8925;8046:6265"
      d="M325.729 236.246C326.363 208.754 308.896 181.355 280.579 177.189"
      stroke="var(--clr-art-scene-outline)" stroke-width="13.2" stroke-linecap="round" />
    <g id="I2835:8925;8046:6267">
      <path
        d="M110.76 214.607C108.805 200.116 117.167 193.464 124.06 194.708C124.335 184.061 129.954 174.01 139.72 169.437C152.661 163.378 159.255 172.712 159.705 175.919C169.356 173.504 182.457 181.833 173.063 194.908C180.953 198.841 178.548 209.435 174.193 213.052C177.864 215.278 180.439 226.957 170.49 232.666C158.054 239.804 143.147 239.416 127.424 229.421C123.324 230.025 112.996 231.181 110.76 214.607Z"
        fill="var(--clr-art-scene-fill)" />
      <path
        d="M127.424 229.421C123.324 230.025 112.996 231.181 110.76 214.607C108.805 200.116 117.167 193.464 124.06 194.708C124.335 184.061 129.954 174.01 139.72 169.437C152.661 163.378 159.255 172.712 159.705 175.919M127.424 229.421C143.147 239.416 158.054 239.804 170.49 232.666C180.439 226.957 177.864 215.278 174.193 213.052C178.548 209.435 180.953 198.841 173.063 194.908C182.457 181.833 169.356 173.504 159.705 175.919M127.424 229.421C123.262 225.584 121.68 220.856 121.408 214.882M159.705 175.919C155.236 177.046 145.207 180.338 137.098 184.923M140.357 203.12L155.346 200.311M140.096 213.235L155.002 213.62"
        stroke="var(--clr-art-scene-outline)" stroke-width="1.2" />
    </g>
    <path id="I2835:8925;8046:6268"
      d="M196.507 15.9146L210.728 26.3087M219.731 21.1977L209.074 0.266468M231.846 0.763067L231.499 16.6776"
      stroke="var(--clr-art-scene-outline)" stroke-width="1.2" />
    <path id="I2835:8925;8046:6269"
      d="M324.139 54.4531C326.589 70.6289 330.638 76.4378 343.097 80.0884C331.316 83.7828 325.958 88.5123 320.554 105.724C318.579 88.4998 314.411 83.2593 301.597 80.0884C315.22 76.0096 320.007 70.314 324.139 54.4531Z"
      stroke="var(--clr-art-scene-outline)" stroke-width="1.2" />
    <path id="I2835:8925;8046:6270"
      d="M351.212 34.2871C352.445 43.2738 354.534 46.501 361 48.5292C354.868 50.5816 352.071 53.2091 349.22 62.7712C348.237 53.2022 346.084 50.2908 339.433 48.5292C346.523 46.2631 349.025 43.0988 351.212 34.2871Z"
      fill="var(--clr-art-scene-outline)" />
  </g>
  <defs>
    <clipPath id="clip0_2835_8925">
      <rect width="400" height="400" fill="white" />
    </clipPath>
  </defs>
</svg>