<svg xmlns="http://www.w3.org/2000/svg" fill="none" viewBox="0 0 16 16" width="100%" height="100%"><path stroke="currentColor" stroke-width="1.5" d="M5.57 15v-1.293a3 3 0 0 1 1.32-2.486l.117-.08c.078-.052.048-.173-.045-.185-1.91-.246-4.202-1.079-4.202-4.285 0-.956.35-1.738.905-2.347-.088-.217-.394-1.115.087-2.317 1.489-.097 2.424.898 2.424.898a8.6 8.6 0 0 1 4.408 0s.782-.954 2.423-.898c.482 1.202.175 2.1.088 2.317.57.609.905 1.391.905 2.347 0 3.21-2.28 4.027-4.202 4.284-.092.012-.121.133-.044.185l.119.08a3 3 0 0 1 1.317 2.484V15" vector-effect="non-scaling-stroke"/><path stroke="currentColor" stroke-linecap="round" stroke-width="1.5" d="M5 14c-2.409 0-1.83-2.248-3.372-2.248" vector-effect="non-scaling-stroke"/></svg>