<svg width="94" height="94" viewBox="0 0 94 94" fill="none" xmlns="http://www.w3.org/2000/svg">
<path d="M65.4121 0.00488281C74.6279 0.0387006 79.6973 0.309151 83.6348 2.47363C86.9605 4.302 89.698 7.03945 91.5264 10.3652C94 14.8651 94 20.8435 94 32.7998V61.2002L93.9951 65.4121C93.9613 74.6279 93.6908 79.6973 91.5264 83.6348L91.1729 84.252C89.3535 87.2996 86.7526 89.8123 83.6348 91.5264L83.209 91.751C79.3304 93.71 74.2991 93.9625 65.4121 93.9951L61.2002 94H32.7998C21.2167 94 15.2441 94.0002 10.791 91.751L10.3652 91.5264C7.03945 89.698 4.302 86.9605 2.47363 83.6348C0.309151 79.6973 0.0387007 74.6279 0.00488281 65.4121L0 61.2002V32.7998C0 21.2167 -0.000159772 15.2441 2.24902 10.791L2.47363 10.3652C4.1877 7.24736 6.70037 4.64654 9.74805 2.82715L10.3652 2.47363C14.8651 -3.59457e-05 20.8435 0 32.7998 0H61.2002L65.4121 0.00488281ZM48 92H61.2002C65.5744 92 69.0851 91.9968 72 91.8809V76H48V92ZM22 91.8809C24.9149 91.9968 28.4256 92 32.7998 92H46V76H22V91.8809ZM2.39746 76C2.7172 78.9009 3.28044 80.9509 4.22656 82.6719C5.87204 85.6649 8.33513 88.128 11.3281 89.7734C13.2331 90.8207 15.5409 91.4006 18.96 91.6982C19.2974 91.7276 19.6439 91.7524 20 91.7764V76H2.39746ZM74 91.7764C74.3561 91.7524 74.7026 91.7276 75.04 91.6982C78.4591 91.4006 80.7669 90.8207 82.6719 89.7734C85.6649 88.128 88.128 85.6649 89.7734 82.6719C90.7196 80.9509 91.2828 78.9009 91.6025 76H74V91.7764ZM74 74H91.7764C91.9968 70.7211 92 66.6245 92 61.2002V48H74V74ZM48 74H72V48H48V74ZM22 74H46V48H22V74ZM2 61.2002C2 66.6245 2.00322 70.7211 2.22363 74H20V48H2V61.2002ZM74 46H92V32.7998C92 27.3755 91.9968 23.2789 91.7764 20H74V46ZM48 46H72V20H48V46ZM22 46H46V20H22V46ZM2.22363 20C2.00322 23.2789 2 27.3755 2 32.7998V46H20V20H2.22363ZM74 18H91.6025C91.2828 15.0991 90.7196 13.0491 89.7734 11.3281C88.128 8.33513 85.6649 5.87204 82.6719 4.22656C80.7669 3.17931 78.4591 2.59944 75.04 2.30176C74.7026 2.27238 74.3561 2.24659 74 2.22266V18ZM48 18H72V2.11816C69.0851 2.0022 65.5744 2 61.2002 2H48V18ZM32.7998 2C28.4256 2 24.9149 2.0022 22 2.11816V18H46V2H32.7998ZM20 2.22266C19.6439 2.24659 19.2974 2.27238 18.96 2.30176C15.5409 2.59944 13.2331 3.17931 11.3281 4.22656C8.33513 5.87204 5.87204 8.33513 4.22656 11.3281C3.28044 13.0491 2.7172 15.0991 2.39746 18H20V2.22266Z" fill="white"/>
</svg>
