<svg xmlns="http://www.w3.org/2000/svg" fill="none" viewBox="0 0 14 14"><g stroke="var(--file-icon-blue, #0ea5e9)" stroke-linejoin="bevel" stroke-width="1.2" clip-path="url(#a)"><path d="m3.478 3.122 7.213 7.73.015.016V13H5.94l-2.344-2.447zm0 0 5.792-.07c.412 0 .712.039 1.047.385L8.361 1.395C8.19 1.215 7.831 1 7.53 1c-.26 0-.516.055-.68.158z"/><path d="m3.5 3 7.207 7.867h2.042V5.973l-2.42-2.526c-.34-.356-.643-.395-1.06-.395zm0 0L1.401 7c-.065.143-.151.392-.151.552 0 .345.145.698.378.947l1.967 2.053z"/></g><defs><clipPath id="a"><path fill="#fff" d="M0 0h14v14H0z"/></clipPath></defs></svg>