<svg xmlns="http://www.w3.org/2000/svg" fill="none" viewBox="0 0 14 14"><path fill="var(--file-icon-pink, #f472b6)" d="M7.025.5c.622 0 1.127.526 1.127 1.175q-.002.171-.047.329l2.605 1.57c.205-.225.494-.364.814-.364.622 0 1.126.527 1.126 1.176 0 .552-.367 1.014-.86 1.14v3.139c.494.125.86.588.86 1.14 0 .65-.504 1.175-1.126 1.175-.32 0-.608-.14-.813-.363l-2.605 1.568q.046.158.046.33c0 .65-.505 1.175-1.127 1.175s-1.126-.525-1.126-1.174q0-.172.045-.33l-2.606-1.569a1.1 1.1 0 0 1-.812.363c-.622 0-1.126-.526-1.126-1.174 0-.553.366-1.016.86-1.141v-3.14a1.165 1.165 0 0 1-.86-1.14c0-.648.504-1.175 1.126-1.175.32 0 .607.14.812.363l2.606-1.57a1.2 1.2 0 0 1-.045-.328C5.899 1.026 6.403.5 7.025.5m-3.418 9.634 2.605 1.57c.204-.224.493-.363.813-.363s.608.139.813.362l2.604-1.568q-.007-.025-.01-.05H3.618zm3.732-7.331a1.1 1.1 0 0 1-.63 0L3.305 8.957c.153.152.264.348.316.57h6.81c.052-.221.162-.418.315-.57zM3.607 4.057q.046.157.046.329c0 .552-.366 1.014-.858 1.14v3.139l.046.013 3.406-6.156q-.018-.017-.035-.036zm4.23-1.57-.035.036 3.407 6.155.047-.013v-3.14a1.165 1.165 0 0 1-.859-1.14q0-.172.045-.33z"/></svg>