<svg xmlns="http://www.w3.org/2000/svg" fill="none" viewBox="0 0 14 14"><path fill="var(--file-icon-blue, #0ea5e9)" d="m13.994 10.314-.374.025a2.55 2.55 0 0 1-1.495-.344 3.83 3.83 0 0 0-1.95-.535c-.685 0-1.357.184-1.95.535a2.59 2.59 0 0 1-2.65.005 3.56 3.56 0 0 0-1.944-.543 3.55 3.55 0 0 0-1.97.543 2.33 2.33 0 0 1-1.234.36h-.42c0 .455-.004.89-.007 1.288h.43a3.56 3.56 0 0 0 1.876-.54c.399-.25.861-.375 1.329-.358.464-.01.922.118 1.317.368a3.83 3.83 0 0 0 3.9 0 2.6 2.6 0 0 1 2.66 0c.667.39 1.433.566 2.2.506l.288-.021c-.002-.404-.005-.84-.006-1.289m-.002-3.632-.372.024a2.56 2.56 0 0 1-1.495-.344 3.83 3.83 0 0 0-1.95-.535c-.685 0-1.357.185-1.95.535a2.59 2.59 0 0 1-2.65.005 3.6 3.6 0 0 0-1.944-.541 3.6 3.6 0 0 0-1.97.543 2.33 2.33 0 0 1-1.235.359H.012v1.288h.42c.662 0 1.31-.187 1.875-.539a2.3 2.3 0 0 1 1.33-.359c.464-.01.922.118 1.317.368.593.351 1.265.536 1.95.536s1.357-.185 1.95-.536a2.6 2.6 0 0 1 2.66 0c.667.39 1.433.567 2.2.507l.284-.019q-.008-.642-.006-1.292m-.372-3.659a2.6 2.6 0 0 1-1.495-.344 3.83 3.83 0 0 0-1.95-.535c-.685 0-1.357.185-1.95.535a2.59 2.59 0 0 1-2.65.005 3.5 3.5 0 0 0-1.944-.54 3.5 3.5 0 0 0-1.97.542 2.33 2.33 0 0 1-1.234.359H.01v1.289h.418c.661 0 1.31-.187 1.875-.539a2.33 2.33 0 0 1 1.33-.362c.464-.01.922.118 1.316.369a3.8 3.8 0 0 0 1.95.536c.685 0 1.358-.185 1.95-.536a2.6 2.6 0 0 1 2.66 0 3.8 3.8 0 0 0 2.2.506l.284-.02q0-.66.003-1.288z"/></svg>