<svg xmlns="http://www.w3.org/2000/svg" fill="none" viewBox="0 0 14 14"><path fill="var(--file-icon-purple, #a855f7)" d="M6.993 2.058c-1.03.31-1.69 1.093-1.683 1.998.007.62.207 1.169.709 1.945.321.499.967 1.455.986 1.462a.8.8 0 0 0 .194-.09C7.882 7 8.316 6.408 8.41 5.73c.014-.1.026-.395.026-.654 0-.52.01-.564.14-.656.153-.109.339-.074.46.083l.069.085.007.476c.004.277-.003.566-.019.689a2.85 2.85 0 0 1-.458 1.23c-.15.227-.532.6-.797.777-.237.16-.702.411-.848.46a.33.33 0 0 1-.337-.077c-.061-.057-1.082-1.58-1.354-2.023-.291-.471-.514-.998-.61-1.446-.073-.34-.083-.839-.022-1.118a2.6 2.6 0 0 1 .284-.73 1 1 0 0 0 .094-.18 1.3 1.3 0 0 0-.24.03c-1.818.302-3.3 1.698-3.697 3.479-.101.443-.118.642-.104 1.178.014.524.043.706.17 1.12.142.464.337.873.652 1.365.225.353.35.596.424.83.13.39.139.477.153 1.325.01.538.023.81.042.843a.6.6 0 0 0 .101.116l.073.069h1.73l.063-.058c.131-.12.129-.108.129-1.097v-.912h1.405l.014 1.894.09.085.086.088h1.732l.063-.058c.115-.106.127-.155.153-.663.045-.896.167-1.55.434-2.312.143-.411.24-.63.544-1.236.26-.517.268-.526.331-.515.036.007.19.035.345.06.376.06.493.097.664.206.179.115.334.314.409.527.047.14.054.198.054.56 0 .391-.003.407-.057.484-.072.099-.237.173-.342.154a.6.6 0 0 1-.179-.087c-.136-.097-.33-.118-.448-.047-.136.084-1.093 1.05-1.13 1.141-.074.171-.034.3.142.465.613.573 1.59.784 2.4.522 2.165-.701 2.16-4.962 1.707-6.967a3.38 3.38 0 0 0-1.816-2.303c-.446-.22-1.024-.337-1.65-.337h-.254l-.258-.16c-.525-.318-.847-.417-1.4-.431-.355-.007-.388-.005-.587.055m3.717 3.396c.16.115.197.293.1.45-.175.275-.614.148-.614-.18 0-.254.314-.418.514-.27"/></svg>