<svg xmlns="http://www.w3.org/2000/svg" fill="none" viewBox="0 0 14 14"><path fill="var(--file-icon-yellow, #eab308)" d="M11.18 4.115a1 1 0 0 1-1 1h-.665a1 1 0 0 1-1-1v-.782a1 1 0 0 1 1-1h.665a1 1 0 0 1 1 1zm-3.139 0a1 1 0 0 1-1 1h-.665a1 1 0 0 1-1-1v-.782a1 1 0 0 1 1-1h.665a1 1 0 0 1 1 1zm-3.139 0a1 1 0 0 1-1 1h-.666a1 1 0 0 1-1-1v-.782a1 1 0 0 1 1-1h.666a1 1 0 0 1 1 1zM11.18 7.39a1 1 0 0 1-1 1h-.665a1 1 0 0 1-1-1v-.78a1 1 0 0 1 1-1h.665a1 1 0 0 1 1 1z"/><path fill="var(--file-icon-gray, #807976)" d="M8.041 7.39a1 1 0 0 1-1 1h-.665a1 1 0 0 1-1-1v-.78a1 1 0 0 1 1-1h.665a1 1 0 0 1 1 1zm0 3.277a1 1 0 0 1-1 1h-.665a1 1 0 0 1-1-1v-.782a1 1 0 0 1 1-1h.665a1 1 0 0 1 1 1zm3.139 0a1 1 0 0 1-1 1h-.665a1 1 0 0 1-1-1v-.782a1 1 0 0 1 1-1h.665a1 1 0 0 1 1 1zm-6.278 0a1 1 0 0 1-1 1h-.666a1 1 0 0 1-1-1v-.782a1 1 0 0 1 1-1h.666a1 1 0 0 1 1 1z"/></svg>