<svg xmlns="http://www.w3.org/2000/svg" fill="none" viewBox="0 0 14 14"><path fill="var(--file-icon-red, #ef4444)" fill-rule="evenodd" d="M3.049 7.68c.469-.256.47-1.086.001-1.853s-1.228-1.181-1.697-.925-.47 1.086-.002 1.853 1.228 1.181 1.698.925m.002 1.643c.469.767.468 1.596-.001 1.853s-1.23-.158-1.698-.925c-.469-.768-.468-1.597.002-1.853.469-.257 1.23.158 1.697.925M6.25 11.07c.468.767.468 1.597-.002 1.853S5.018 12.766 4.55 12s-.467-1.597.002-1.853 1.23.158 1.698.925m-.001-3.495c.468.767.468 1.596-.002 1.853s-1.23-.158-1.698-.925-.467-1.597.002-1.853 1.23.158 1.698.925" clip-rule="evenodd"/><path fill="var(--file-icon-purple, #a855f7)" fill-rule="evenodd" d="M12.647 6.757c.469-.767.468-1.597-.001-1.853s-1.23.158-1.698.925c-.469.767-.468 1.597.002 1.853.469.256 1.229-.158 1.697-.925m0 1.642c.47.256.47 1.086.002 1.853s-1.228 1.18-1.698.925c-.469-.257-.47-1.086-.001-1.853s1.228-1.182 1.698-.925M9.45 10.144c.469.257.47 1.086.001 1.853s-1.228 1.181-1.698.925c-.469-.256-.47-1.086-.001-1.853s1.228-1.18 1.698-.925M9.448 6.65c.47.256.47 1.086.002 1.853-.469.767-1.229 1.18-1.698.925-.47-.257-.47-1.086-.002-1.853s1.229-1.182 1.698-.925" clip-rule="evenodd"/><path fill="var(--file-icon-orange, #f5700b)" fill-rule="evenodd" d="M8.695 1.928c0 .512-.76.928-1.697.928-.936 0-1.696-.416-1.696-.928C5.302 1.415 6.062 1 7 1c.936 0 1.696.415 1.696.928M5.497 3.672c0 .512-.76.928-1.696.928-.937 0-1.696-.416-1.696-.928 0-.513.759-.928 1.696-.928s1.696.415 1.696.928M10.2 4.6c.936 0 1.696-.416 1.696-.928 0-.513-.76-.928-1.697-.928-.936 0-1.696.415-1.696.928 0 .512.76.928 1.697.928m-1.506.82c0 .512-.76.928-1.697.928-.936 0-1.696-.416-1.696-.928 0-.513.76-.928 1.697-.928.936 0 1.696.415 1.696.928" clip-rule="evenodd"/></svg>