<svg xmlns="http://www.w3.org/2000/svg" fill="none" viewBox="0 0 14 14"><path fill="var(--file-icon-red, #ef4444)" fill-rule="evenodd" d="M10.69 1.5c.254 0 .488.123.614.322l2.104 3.335a.59.59 0 0 1-.058.708l-5.554 6.39a.74.74 0 0 1-.542.245.74.74 0 0 1-.552-.224L.669 5.886a.59.59 0 0 1-.054-.762l2.413-3.335A.73.73 0 0 1 3.62 1.5zm-3.522 8.553 1.204-3.951H5.964zM5.34 8.867l-.842-2.765H2.73zm4.496-2.765L9.02 8.78l2.327-2.678zm-.09-1.275h1.826l-1.294-2.052h-1.46zm-7.23 0h2.071l.928-2.052H4.002zm3.597 0h2.108l-.929-2.052h-.25z" clip-rule="evenodd"/></svg>