<svg xmlns="http://www.w3.org/2000/svg" fill="none" viewBox="0 0 14 14"><mask id="a" width="10" height="13" x="2" y="0" maskUnits="userSpaceOnUse" style="mask-type:alpha"><path fill="var(--file-icon-pink, #f472b6)" d="M2.48 12.04 2.1 1.945a.615.615 0 0 1 .577-.637l8.586-.536a.615.615 0 0 1 .653.613v11a.615.615 0 0 1-.643.614l-8.207-.368a.615.615 0 0 1-.587-.591"/></mask><g mask="url(#a)"><path fill="var(--file-icon-pink, #f472b6)" d="M11.262.772a.615.615 0 0 1 .654.613v11c0 .34-.275.615-.615.615h-.028l-8.207-.369a.616.616 0 0 1-.587-.591L2.1 1.944a.615.615 0 0 1 .576-.637l6.729-.42-.057 1.386q0 .033.019.06c.03.04.088.047.129.017l.538-.408.455.358q.026.02.06.02a.093.093 0 0 0 .088-.095l-.05-1.412zm-4.069 2.08c-1.6 0-2.497.87-2.497 2.173 0 2.27 3.065 2.315 3.065 3.554 0 .347-.17.554-.545.554-.488 0-.681-.25-.659-1.097-.003-.184-1.859-.24-1.918 0-.144 2.053 1.136 2.647 2.6 2.647 1.419 0 2.53-.757 2.531-2.126 0-2.434-3.11-2.37-3.11-3.575 0-.49.363-.555.579-.555.227 0 .635.04.601.953.002.239 1.612.125 1.829-.043 0-1.629-.876-2.485-2.476-2.485"/></g></svg>