<svg width="16" height="16" viewBox="0 0 16 16" fill="none" xmlns="http://www.w3.org/2000/svg">
<g clip-path="url(#clip0_2332_18221)">
<path fill-rule="evenodd" clip-rule="evenodd" d="M4 0C1.79086 0 0 1.79086 0 4V12C0 14.2091 1.79086 16 4 16H8.33692C6.92345 15.0046 6 13.3602 6 11.5C6 8.46243 8.46243 6 11.5 6C13.3602 6 15.0046 6.92345 16 8.33692V4C16 1.79086 14.2091 0 12 0H4Z" fill="#98EFEB"/>
<path fill-rule="evenodd" clip-rule="evenodd" d="M3 3V13L6.14179 10.2538C6.41105 9.09146 7.04875 8.07033 7.9252 7.32006L3 3ZM8.68129 6.77622C9.5056 6.28329 10.4697 6 11.5 6C12.02 6 12.5232 6.07217 13 6.20703V3L8.68129 6.77622Z" fill="#0A0A0A"/>
<rect x="7" y="7" width="9" height="9" rx="4.5" fill="#4AB582"/>
<path d="M9.17188 10.8954L11.1719 12.8954L14.1719 9.89539" stroke="white" stroke-width="1.5"/>
</g>
<defs>
<clipPath id="clip0_2332_18221">
<rect width="16" height="16" fill="white"/>
</clipPath>
</defs>
</svg>
