<svg xmlns="http://www.w3.org/2000/svg" fill="none" viewBox="0 0 14 14"><path fill="var(--file-icon-orange, #f5700b)" fill-rule="evenodd" d="M7.933 3.003c1.045 1.193 1.07 2.463.073 3.842-1.087 1.502-1.244 1.8-1.244 2.348 0 .663.395 1.244 1.27 1.866l.618.441h2.517c1.782 0 2.563-.046 2.675-.158.113-.114.158-.983.158-3.078v-2.92l-.757-.72c-1.31-1.25-2.669-1.835-4.702-2.026L7.49 2.5zM6.198 3.9c-1.06 1.542-2.973 2.45-5.175 2.457-.608.002-.779.051-.889.257-.179.335-.179 4.296 0 4.631.13.242.308.255 3.382.255h3.246l-.406-.428c-.663-.7-.866-1.227-.804-2.086.056-.785.098-.865 1.306-2.516.738-1.008.824-1.774.293-2.582-.203-.308-.411-.56-.464-.56s-.273.257-.49.572" clip-rule="evenodd"/></svg>