<svg xmlns="http://www.w3.org/2000/svg" fill="none" viewBox="0 0 14 14"><path fill="var(--file-icon-purple, #a855f7)" d="M9.502 5.435 7.119 4a.19.19 0 0 0-.193 0L4.544 5.435a.2.2 0 0 0-.071.074.2.2 0 0 0-.026.1V8.48c0 .072.037.139.097.175l2.382 1.435c.06.036.133.036.193 0l2.383-1.435a.2.2 0 0 0 .096-.175V5.61a.2.2 0 0 0-.096-.175"/><path fill="var(--file-icon-violet, #5249f8)" d="m.827 6.743 2.847-5.168c.104-.187.295-.325.502-.325H9.87c.207 0 .398.138.501.325l2.847 5.157a.64.64 0 0 1 0 .61l-2.847 5.125a.56.56 0 0 1-.501.283H4.176a.55.55 0 0 1-.502-.28L.828 7.336a.6.6 0 0 1 0-.593m2.358 2.485a.22.22 0 0 0 .107.185l3.626 2.183a.2.2 0 0 0 .205 0l3.63-2.183a.22.22 0 0 0 .107-.185V4.862a.22.22 0 0 0-.107-.185L7.127 2.495a.2.2 0 0 0-.205 0l-3.63 2.182a.22.22 0 0 0-.107.185z"/></svg>