<svg xmlns="http://www.w3.org/2000/svg" fill="none" viewBox="0 0 14 14"><g clip-path="url(#a)"><path fill="var(--file-icon-red, #ef4444)" fill-rule="evenodd" d="M3.318.5q.098 0 .182.049V.548L5.96 1.91a.2.2 0 0 1 .059.044l.018.018.022.024.005.007.041.04v.022l.002.003.008.024.014.028v.01l.002.008.002.012a.4.4 0 0 1 .008.079v4.824l1.711-.957V3.585c0-.011.001-.041.01-.077v-.014l.008-.024v-.002l.001-.004.015-.037.004-.01a.2.2 0 0 1 .024-.039l.011-.012.002-.002.008-.011q.005-.009.02-.025l.039-.036.012-.007.009-.008.018-.01 2.452-1.374.043-.02a.38.38 0 0 1 .326.02l2.453 1.374.035.023.024.02.017.017.023.025.005.009.04.038v.02l.002.006q.007.016.008.024l.015.026v.012l.002.007v.003l.022.033v2.778c0 .134-.08.25-.184.31l-.003.003-2.266 1.268v2.51c0 .135-.079.25-.184.312l-.003.001-4.9 2.743-.008.004q-.02.01-.034.013l-.014.003-.024.013h-.015a.4.4 0 0 1-.174.002h-.01l-.012-.004h-.003l-.01-.004-.005-.002h-.005l-.024-.009-.026-.012-.005-.002-.004-.002-4.9-2.743A.35.35 0 0 1 .5 10.4V2.24c0-.01.001-.04.008-.073L.51 2.15l.008-.024V2.12a.2.2 0 0 1 .016-.038l.004-.007a.2.2 0 0 1 .023-.04l.012-.014.001-.001.008-.012.023-.025.036-.035.012-.007.008-.008.02-.011L3.134.549A.4.4 0 0 1 3.318.5m2.348 12.984v-.002l-.01-.001zM1.23 10.182l4.164 2.33v-1.91L3.141 9.364v-.001l-.04-.025-.01-.007-.028-.024-.02-.018-.006-.012-.011-.011a.2.2 0 0 1-.037-.053l-.004-.007-.01-.018a.2.2 0 0 1-.016-.045l-.009-.027V9.11l-.006-.021c-.004-.02-.003-.036-.003-.038V3.815l-1.103-.62h-.001l-.607-.341zm4.9.42v1.91l4.164-2.33V8.289zm-.182-2.625L4.06 9.037l1.702.94 4.162-2.313-1.709-.955zM3.683 3.808v4.618l.606-.342 1.105-.625V2.848zm8.456.732-1.104.619v1.888l1.711-.956V4.198zM8.582 6.084l1.711.962V5.159l-1.103-.62-.608-.341zm.375-2.505 1.71.955 1.71-.955-1.71-.956zM1.604 2.234l1.71.956 1.711-.961-1.71-.956z" clip-rule="evenodd"/></g><defs><clipPath id="a"><path fill="#fff" d="M0 0h14v14H0z"/></clipPath></defs></svg>