<svg xmlns="http://www.w3.org/2000/svg" fill="none" viewBox="0 0 14 14"><path fill="var(--file-icon-red, #ef4444)" d="M4.159 3.714c0 1.258.79 2.007 2.374 2.402l1.678.382c1.5.338 2.412 1.178 2.412 2.547a2.57 2.57 0 0 1-.559 1.649c0-1.366-.719-2.104-2.453-2.547l-1.648-.368c-1.32-.296-2.338-.987-2.338-2.473a2.56 2.56 0 0 1 .534-1.592"/><path fill="var(--file-icon-pink, #f472b6)" d="M5.363 9.13c.254.795.929 1.162 1.829 1.162.86 0 1.49-.353 1.732-.99.601.367.929.854 1.03 1.518-.607.665-1.597 1.036-2.749 1.036-2.059 0-3.5-.995-3.82-2.726zm1.574-6.607c2.098 0 3.31 1.089 3.61 2.621H8.645c-.21-.604-.735-1.075-1.692-1.075-.83 0-1.447.385-1.671 1.024a2.35 2.35 0 0 1-.934-1.596c.589-.61 1.5-.974 2.589-.974"/></svg>