<svg xmlns="http://www.w3.org/2000/svg" width="300" height="240" viewBox="0 0 300 240" fill="none">
<path id="6352:7527" d="M1.6 24C1.6 13.2857 10.2857 4.6 21 4.6H279C289.714 4.6 298.4 13.2857 298.4 24V216C298.4 226.714 289.714 235.4 279 235.4H21C10.2857 235.4 1.6 226.714 1.6 216V24Z" fill="var(--bg/1)" stroke="var(--clr-border-2)" stroke-width="1.2"/>
<path id="6352:7529" d="M14 31H98M14 47.6667H98M14 64.3333H98M14 81H98M14 97.6667H98M14 114.333H98M14 131H98" stroke="var(--clr-border-3)" stroke-width="1.2"/>
<rect id="6352:7530" x="13.6" y="16.6" width="83.8" height="206.8" rx="9.4" stroke="var(--clr-border-2)" stroke-width="1.2"/>
<rect id="6352:7531" x="24" y="200" width="63" height="13" rx="3" fill="var(--clr-text-3)"/>
<path id="6352:7533" opacity="0.12" d="M222 43H277C282.523 43 287 47.4772 287 53V214C287 219.523 282.523 224 277 224H222V43Z" fill="var(--clr-core-ntrl-60)"/>
<path id="6352:7576" d="M218 186H254.265V153" stroke="var(--clr-border-1)" stroke-width="1.2"/>
<path id="6352:7578" d="M218 73H254.265V106" stroke="var(--clr-border-1)" stroke-width="1.2"/>
<path id="6352:7572" d="M250.356 129.575C248.61 130.051 246.677 129.613 245.318 128.255L243.492 126.428C241.465 124.401 241.486 121.093 243.54 119.04C245.593 116.986 248.901 116.965 250.928 118.992L252.755 120.818C254.113 122.177 254.551 124.111 254.074 125.856" stroke="var(--clr-border-1)" stroke-width="1.2"/>
<path id="6352:7573" d="M252.215 131.434C251.739 133.179 252.177 135.113 253.535 136.471L255.362 138.298C257.389 140.325 260.697 140.304 262.75 138.25C264.803 136.197 264.825 132.889 262.798 130.862L260.971 129.035C259.613 127.677 257.679 127.239 255.933 127.715" stroke="var(--clr-border-1)" stroke-width="1.2"/>
<path id="6352:7574" d="M247.878 123.377L258.412 133.912" stroke="var(--clr-border-1)" stroke-width="1.2"/>
<path id="6352:7552" d="M114.5 182.75H211.5M114.5 192.75H211.5M114.5 202.75H211.5M114.5 212.75H211.5" stroke="var(--clr-border-3)" stroke-width="1.2"/>
<path id="6352:7553" d="M212 224V152C212 146.477 207.523 142 202 142H124C118.477 142 114 146.477 114 152V224" stroke="var(--clr-border-1)" stroke-width="1.2"/>
<path id="6352:7554" d="M141.861 162V153.273H145.202C145.832 153.273 146.357 153.372 146.774 153.571C147.195 153.767 147.509 154.036 147.716 154.376C147.926 154.717 148.031 155.104 148.031 155.536C148.031 155.891 147.963 156.195 147.827 156.447C147.69 156.697 147.507 156.901 147.277 157.057C147.047 157.213 146.79 157.325 146.506 157.393V157.479C146.815 157.496 147.112 157.591 147.396 157.764C147.683 157.935 147.918 158.176 148.099 158.489C148.281 158.801 148.372 159.179 148.372 159.622C148.372 160.074 148.263 160.48 148.044 160.841C147.825 161.199 147.496 161.482 147.055 161.689C146.615 161.896 146.061 162 145.393 162H141.861ZM143.442 160.679H145.142C145.716 160.679 146.129 160.57 146.382 160.351C146.638 160.129 146.766 159.845 146.766 159.499C146.766 159.24 146.702 159.007 146.574 158.8C146.446 158.589 146.264 158.425 146.028 158.305C145.793 158.183 145.511 158.122 145.185 158.122H143.442V160.679ZM143.442 156.984H145.006C145.278 156.984 145.524 156.935 145.743 156.835C145.962 156.733 146.134 156.589 146.259 156.405C146.386 156.217 146.45 155.996 146.45 155.74C146.45 155.402 146.331 155.124 146.092 154.905C145.857 154.686 145.506 154.577 145.04 154.577H143.442V156.984ZM149.679 162V155.455H151.175V156.545H151.243C151.363 156.168 151.567 155.876 151.857 155.672C152.15 155.464 152.483 155.361 152.858 155.361C152.944 155.361 153.039 155.365 153.144 155.374C153.252 155.379 153.341 155.389 153.412 155.403V156.822C153.347 156.8 153.243 156.78 153.101 156.763C152.962 156.743 152.827 156.733 152.696 156.733C152.415 156.733 152.162 156.794 151.938 156.916C151.716 157.036 151.542 157.202 151.414 157.415C151.286 157.628 151.222 157.874 151.222 158.152V162H149.679ZM156.203 162.132C155.789 162.132 155.415 162.058 155.083 161.911C154.753 161.76 154.492 161.538 154.299 161.246C154.108 160.953 154.013 160.592 154.013 160.163C154.013 159.794 154.081 159.489 154.218 159.247C154.354 159.006 154.54 158.812 154.776 158.668C155.012 158.523 155.277 158.413 155.573 158.339C155.871 158.263 156.179 158.207 156.498 158.173C156.881 158.134 157.192 158.098 157.431 158.067C157.669 158.033 157.843 157.982 157.951 157.913C158.061 157.842 158.117 157.733 158.117 157.585V157.56C158.117 157.239 158.022 156.99 157.831 156.814C157.641 156.638 157.367 156.55 157.009 156.55C156.631 156.55 156.331 156.632 156.11 156.797C155.891 156.962 155.743 157.156 155.667 157.381L154.226 157.176C154.34 156.778 154.527 156.446 154.789 156.179C155.05 155.909 155.37 155.707 155.748 155.574C156.125 155.438 156.543 155.369 157 155.369C157.316 155.369 157.63 155.406 157.942 155.48C158.255 155.554 158.54 155.676 158.799 155.847C159.057 156.014 159.265 156.243 159.421 156.533C159.58 156.822 159.659 157.185 159.659 157.619V162H158.176V161.101H158.125C158.032 161.283 157.9 161.453 157.729 161.612C157.561 161.768 157.35 161.895 157.094 161.991C156.841 162.085 156.544 162.132 156.203 162.132ZM156.604 160.999C156.914 160.999 157.182 160.937 157.409 160.815C157.637 160.69 157.811 160.526 157.934 160.321C158.059 160.116 158.121 159.893 158.121 159.652V158.881C158.073 158.92 157.99 158.957 157.874 158.991C157.76 159.026 157.632 159.055 157.49 159.081C157.348 159.107 157.208 159.129 157.069 159.149C156.929 159.169 156.809 159.186 156.706 159.2C156.476 159.232 156.27 159.283 156.088 159.354C155.907 159.425 155.763 159.524 155.658 159.652C155.553 159.777 155.5 159.939 155.5 160.138C155.5 160.422 155.604 160.636 155.811 160.781C156.019 160.926 156.283 160.999 156.604 160.999ZM162.753 158.165V162H161.211V155.455H162.685V156.567H162.762C162.912 156.2 163.152 155.909 163.482 155.693C163.814 155.477 164.225 155.369 164.713 155.369C165.165 155.369 165.559 155.466 165.894 155.659C166.232 155.852 166.493 156.132 166.678 156.499C166.865 156.865 166.958 157.31 166.955 157.832V162H165.412V158.071C165.412 157.634 165.299 157.291 165.071 157.044C164.847 156.797 164.536 156.673 164.138 156.673C163.868 156.673 163.628 156.733 163.418 156.852C163.211 156.969 163.047 157.138 162.928 157.359C162.811 157.581 162.753 157.849 162.753 158.165ZM171.378 162.128C170.725 162.128 170.164 161.984 169.695 161.697C169.229 161.411 168.87 161.014 168.617 160.509C168.367 160 168.242 159.415 168.242 158.753C168.242 158.088 168.37 157.501 168.625 156.993C168.881 156.482 169.242 156.084 169.708 155.8C170.176 155.513 170.73 155.369 171.37 155.369C171.901 155.369 172.371 155.467 172.78 155.663C173.192 155.857 173.52 156.131 173.765 156.486C174.009 156.838 174.148 157.25 174.182 157.722H172.708C172.648 157.406 172.506 157.143 172.282 156.933C172.06 156.72 171.763 156.614 171.391 156.614C171.076 156.614 170.799 156.699 170.56 156.869C170.321 157.037 170.135 157.278 170.002 157.594C169.871 157.909 169.806 158.287 169.806 158.727C169.806 159.173 169.871 159.557 170.002 159.878C170.132 160.196 170.316 160.442 170.551 160.615C170.79 160.786 171.07 160.871 171.391 160.871C171.618 160.871 171.821 160.828 172 160.743C172.182 160.655 172.334 160.528 172.456 160.364C172.578 160.199 172.662 159.999 172.708 159.763H174.182C174.145 160.226 174.009 160.636 173.773 160.994C173.537 161.349 173.216 161.628 172.81 161.83C172.404 162.028 171.926 162.128 171.378 162.128ZM176.991 158.165V162H175.449V153.273H176.957V156.567H177.034C177.188 156.197 177.425 155.906 177.746 155.693C178.07 155.477 178.482 155.369 178.982 155.369C179.436 155.369 179.832 155.464 180.17 155.655C180.509 155.845 180.77 156.124 180.955 156.49C181.142 156.857 181.236 157.304 181.236 157.832V162H179.693V158.071C179.693 157.631 179.58 157.288 179.352 157.044C179.128 156.797 178.812 156.673 178.406 156.673C178.134 156.673 177.889 156.733 177.673 156.852C177.46 156.969 177.293 157.138 177.17 157.359C177.051 157.581 176.991 157.849 176.991 158.165ZM189.075 162L190.506 153.273H191.7L190.268 162H189.075ZM185.141 159.75L185.342 158.557H192.058L191.857 159.75H185.141ZM186.006 162L187.438 153.273H188.631L187.2 162H186.006ZM185.648 156.716L185.844 155.523H192.56L192.364 156.716H185.648ZM197.04 153.273V162H195.459V154.811H195.408L193.367 156.115V154.666L195.536 153.273H197.04Z" fill="var(--clr-border-1)"/>
<circle id="6352:7561" cx="129" cy="158" r="5" fill="var(--clr-border-1)"/>
<path id="6352:7565" d="M129 131L129 157" stroke="var(--clr-border-1)" stroke-width="2.2"/>
<path id="6352:7555" d="M114.5 173.75H211.5" stroke="var(--clr-border-1)" stroke-width="1.2"/>
<path id="6352:7541" d="M178 43V26C178 20.4772 173.523 16 168 16H114C108.477 16 104 20.4772 104 26V43" stroke="var(--clr-border-2)" stroke-width="1.2"/>
<rect id="6352:7544" x="122" y="28" width="38" height="4" fill="var(--clr-text-3)"/>
<path id="6352:7534" d="M104 43H277C282.523 43 287 47.4772 287 53V214C287 219.523 282.523 224 277 224H114C108.477 224 104 219.523 104 214V43Z" stroke="var(--clr-border-2)" stroke-width="1.2"/>
<path id="6352:7569" d="M114 62C114 56.4772 118.477 52 124 52H202C207.523 52 212 56.4772 212 62V123C212 128.523 207.523 133 202 133H124C118.477 133 114 128.523 114 123V62Z" fill="var(--theme/pop/bg)"/>
<path id="6352:7536" opacity="0.19" d="M114.5 92.75H211.5M114.5 102.75H211.5M114.5 112.75H211.5M114.5 122.75H211.5" stroke="var(--clr-scale-pop-50)" stroke-width="1.2"/>
<path id="6352:7539" opacity="0.4" d="M114.5 83.75H211.5" stroke="var(--clr-scale-pop-50)" stroke-width="1.2"/>
<path id="6352:7538" d="M141.861 71V62.2727H145.202C145.832 62.2727 146.357 62.3722 146.774 62.571C147.195 62.767 147.509 63.0355 147.716 63.3764C147.926 63.7173 148.031 64.1037 148.031 64.5355C148.031 64.8906 147.963 65.1946 147.827 65.4474C147.69 65.6974 147.507 65.9006 147.277 66.0568C147.047 66.2131 146.79 66.3253 146.506 66.3935V66.4787C146.815 66.4957 147.112 66.5909 147.396 66.7642C147.683 66.9347 147.918 67.1761 148.099 67.4886C148.281 67.8011 148.372 68.179 148.372 68.6222C148.372 69.0739 148.263 69.4801 148.044 69.8409C147.825 70.1989 147.496 70.4815 147.055 70.6889C146.615 70.8963 146.061 71 145.393 71H141.861ZM143.442 69.679H145.142C145.716 69.679 146.129 69.5696 146.382 69.3509C146.638 69.1293 146.766 68.8452 146.766 68.4986C146.766 68.2401 146.702 68.0071 146.574 67.7997C146.446 67.5895 146.264 67.4247 146.028 67.3054C145.793 67.1832 145.511 67.1222 145.185 67.1222H143.442V69.679ZM143.442 65.9844H145.006C145.278 65.9844 145.524 65.9347 145.743 65.8352C145.962 65.733 146.134 65.5895 146.259 65.4048C146.386 65.2173 146.45 64.9957 146.45 64.7401C146.45 64.402 146.331 64.1236 146.092 63.9048C145.857 63.6861 145.506 63.5767 145.04 63.5767H143.442V65.9844ZM149.679 71V64.4545H151.175V65.5455H151.243C151.363 65.1676 151.567 64.8764 151.857 64.6719C152.15 64.4645 152.483 64.3608 152.858 64.3608C152.944 64.3608 153.039 64.3651 153.144 64.3736C153.252 64.3793 153.341 64.3892 153.412 64.4034V65.8224C153.347 65.7997 153.243 65.7798 153.101 65.7628C152.962 65.7429 152.827 65.733 152.696 65.733C152.415 65.733 152.162 65.794 151.938 65.9162C151.716 66.0355 151.542 66.2017 151.414 66.4148C151.286 66.6278 151.222 66.8736 151.222 67.152V71H149.679ZM156.203 71.1321C155.789 71.1321 155.415 71.0582 155.083 70.9105C154.753 70.7599 154.492 70.5384 154.299 70.2457C154.108 69.9531 154.013 69.5923 154.013 69.1634C154.013 68.794 154.081 68.4886 154.218 68.2472C154.354 68.0057 154.54 67.8125 154.776 67.6676C155.012 67.5227 155.277 67.4134 155.573 67.3395C155.871 67.2628 156.179 67.2074 156.498 67.1733C156.881 67.1335 157.192 67.098 157.431 67.0668C157.669 67.0327 157.843 66.9815 157.951 66.9134C158.061 66.8423 158.117 66.733 158.117 66.5852V66.5597C158.117 66.2386 158.022 65.9901 157.831 65.8139C157.641 65.6378 157.367 65.5497 157.009 65.5497C156.631 65.5497 156.331 65.6321 156.11 65.7969C155.891 65.9616 155.743 66.1562 155.667 66.3807L154.226 66.1761C154.34 65.7784 154.527 65.446 154.789 65.179C155.05 64.9091 155.37 64.7074 155.748 64.5739C156.125 64.4375 156.543 64.3693 157 64.3693C157.316 64.3693 157.63 64.4062 157.942 64.4801C158.255 64.554 158.54 64.6761 158.799 64.8466C159.057 65.0142 159.265 65.2429 159.421 65.5327C159.58 65.8224 159.659 66.1847 159.659 66.6193V71H158.176V70.1009H158.125C158.032 70.2827 157.9 70.4531 157.729 70.6122C157.561 70.7685 157.35 70.8949 157.094 70.9915C156.841 71.0852 156.544 71.1321 156.203 71.1321ZM156.604 69.9986C156.914 69.9986 157.182 69.9375 157.409 69.8153C157.637 69.6903 157.811 69.5256 157.934 69.321C158.059 69.1165 158.121 68.8935 158.121 68.652V67.8807C158.073 67.9205 157.99 67.9574 157.874 67.9915C157.76 68.0256 157.632 68.0554 157.49 68.081C157.348 68.1065 157.208 68.1293 157.069 68.1491C156.929 68.169 156.809 68.1861 156.706 68.2003C156.476 68.2315 156.27 68.2827 156.088 68.3537C155.907 68.4247 155.763 68.5241 155.658 68.652C155.553 68.777 155.5 68.9389 155.5 69.1378C155.5 69.4219 155.604 69.6364 155.811 69.7812C156.019 69.9261 156.283 69.9986 156.604 69.9986ZM162.753 67.1648V71H161.211V64.4545H162.685V65.5668H162.762C162.912 65.2003 163.152 64.9091 163.482 64.6932C163.814 64.4773 164.225 64.3693 164.713 64.3693C165.165 64.3693 165.559 64.4659 165.894 64.6591C166.232 64.8523 166.493 65.1321 166.678 65.4986C166.865 65.8651 166.958 66.3097 166.955 66.8324V71H165.412V67.071C165.412 66.6335 165.299 66.2912 165.071 66.044C164.847 65.7969 164.536 65.6733 164.138 65.6733C163.868 65.6733 163.628 65.733 163.418 65.8523C163.211 65.9687 163.047 66.1378 162.928 66.3594C162.811 66.581 162.753 66.8494 162.753 67.1648ZM171.378 71.1278C170.725 71.1278 170.164 70.9844 169.695 70.6974C169.229 70.4105 168.87 70.0142 168.617 69.5085C168.367 69 168.242 68.4148 168.242 67.7528C168.242 67.0881 168.37 66.5014 168.625 65.9929C168.881 65.4815 169.242 65.0838 169.708 64.7997C170.176 64.5128 170.73 64.3693 171.37 64.3693C171.901 64.3693 172.371 64.4673 172.78 64.6634C173.192 64.8565 173.52 65.1307 173.765 65.4858C174.009 65.8381 174.148 66.25 174.182 66.7216H172.708C172.648 66.4062 172.506 66.1435 172.282 65.9332C172.06 65.7202 171.763 65.6136 171.391 65.6136C171.076 65.6136 170.799 65.6989 170.56 65.8693C170.321 66.0369 170.135 66.2784 170.002 66.5938C169.871 66.9091 169.806 67.2869 169.806 67.7273C169.806 68.1733 169.871 68.5568 170.002 68.8778C170.132 69.196 170.316 69.4418 170.551 69.6151C170.79 69.7855 171.07 69.8707 171.391 69.8707C171.618 69.8707 171.821 69.8281 172 69.7429C172.182 69.6548 172.334 69.5284 172.456 69.3636C172.578 69.1989 172.662 68.9986 172.708 68.7628H174.182C174.145 69.2259 174.009 69.6364 173.773 69.9943C173.537 70.3494 173.216 70.6278 172.81 70.8295C172.404 71.0284 171.926 71.1278 171.378 71.1278ZM176.991 67.1648V71H175.449V62.2727H176.957V65.5668H177.034C177.188 65.1974 177.425 64.9062 177.746 64.6932C178.07 64.4773 178.482 64.3693 178.982 64.3693C179.436 64.3693 179.832 64.4645 180.17 64.6548C180.509 64.8452 180.77 65.1236 180.955 65.4901C181.142 65.8565 181.236 66.304 181.236 66.8324V71H179.693V67.071C179.693 66.6307 179.58 66.2884 179.352 66.044C179.128 65.7969 178.812 65.6733 178.406 65.6733C178.134 65.6733 177.889 65.733 177.673 65.8523C177.46 65.9687 177.293 66.1378 177.17 66.3594C177.051 66.581 176.991 66.8494 176.991 67.1648ZM189.075 71L190.506 62.2727H191.7L190.268 71H189.075ZM185.141 68.75L185.342 67.5568H192.058L191.857 68.75H185.141ZM186.006 71L187.438 62.2727H188.631L187.2 71H186.006ZM185.648 65.7159L185.844 64.5227H192.56L192.364 65.7159H185.648ZM193.49 71V69.858L196.52 66.8878C196.81 66.5952 197.051 66.3352 197.245 66.108C197.438 65.8807 197.583 65.6605 197.679 65.4474C197.776 65.2344 197.824 65.0071 197.824 64.7656C197.824 64.4901 197.762 64.2543 197.637 64.0582C197.512 63.8594 197.34 63.706 197.121 63.598C196.902 63.4901 196.654 63.4361 196.375 63.4361C196.088 63.4361 195.837 63.4957 195.621 63.6151C195.405 63.7315 195.238 63.8977 195.118 64.1136C195.002 64.3295 194.944 64.5866 194.944 64.8849H193.439C193.439 64.331 193.566 63.8494 193.819 63.4403C194.071 63.0312 194.419 62.7145 194.863 62.4901C195.309 62.2656 195.82 62.1534 196.397 62.1534C196.982 62.1534 197.496 62.2628 197.939 62.4815C198.382 62.7003 198.726 63 198.971 63.3807C199.218 63.7614 199.341 64.196 199.341 64.6847C199.341 65.0114 199.279 65.3324 199.154 65.6477C199.029 65.9631 198.809 66.3125 198.493 66.696C198.181 67.0795 197.742 67.544 197.176 68.0895L195.672 69.6193V69.679H199.473V71H193.49Z" fill="var(--clr-scale-pop-50)"/>
<circle id="6352:7558" cx="129" cy="67" r="5" fill="var(--clr-scale-pop-50)"/>
<path id="6352:7567" d="M129 67L129 133" stroke="var(--clr-scale-pop-50)" stroke-width="2.2"/>
<path id="6352:7537" d="M114 62C114 56.4772 118.477 52 124 52H202C207.523 52 212 56.4772 212 62V123C212 128.523 207.523 133 202 133H124C118.477 133 114 128.523 114 123V62Z" stroke="var(--clr-scale-pop-50)" stroke-width="1.2"/>
<path id="6352:7549" d="M252 43V26C252 20.4772 247.523 16 242 16H188C182.477 16 178 20.4772 178 26V43" stroke="var(--clr-border-2)" stroke-width="1.2"/>
<rect id="6352:7550" x="196" y="28" width="38" height="4" fill="var(--clr-text-3)"/>
</svg>