<svg xmlns="http://www.w3.org/2000/svg" width="260" height="160" viewBox="0 0 260 160" fill="none">
  <path
    d="M21 0.599609H239C249.714 0.599609 258.4 9.28568 258.4 20V139C258.4 149.714 249.714 158.4 239 158.4H21C10.2857 158.4 1.59961 149.714 1.59961 139V20C1.59961 9.28568 10.2857 0.599609 21 0.599609Z"
    fill="var(--clr-bg-1)" stroke="var(--clr-border-2)" stroke-width="1.2" />
  <rect opacity="0.12" x="11" y="10" width="55" height="139" rx="10" fill="var(--clr-core-ntrl-60)" />
  <rect opacity="0.12" x="72" y="10" width="72" height="139" rx="10" fill="var(--clr-core-ntrl-60)" />
  <path d="M152 78.9998H232M152 96.333H232" stroke="var(--clr-border-3)" stroke-width="1.2" />
  <rect opacity="0.17" x="152" y="112" width="80" height="23" fill="var(--clr-theme-pop-element)" />
  <path opacity="0.5" d="M152 112H232M232 135H152" stroke="var(--clr-theme-pop-element)"
    stroke-width="1.2" />
  <path
    d="M239 10H162C156.477 10 152 14.4772 152 20V139C152 144.523 156.477 149 162 149H239C244.523 149 249 144.523 249 139V20C249 14.4772 244.523 10 239 10Z"
    stroke="var(--clr-border-1)" stroke-width="1.2" />
  <path d="M232 10L232 149" stroke="var(--clr-border-1)" stroke-width="1.2" />
  <rect x="152" y="42" width="80" height="22" fill="var(--clr-theme-pop-soft-hover)"
    stroke="var(--clr-theme-pop-element)" stroke-width="1.2" />
  <text opacity="0.7" fill="var(--clr-text-2)" xml:space="preserve" style="white-space: pre"
    font-family="Inter" font-size="13" font-weight="500" letter-spacing="0em">
    <tspan x="164.101" y="30.7273">Branch</tspan>
  </text>
  <path
    d="M147.5 52.2128L125.5 52.2128C119.977 52.2128 115.5 56.6899 115.5 62.2128L115.5 113.5C115.5 119.023 119.977 123.5 125.5 123.5L178 123.5M147.5 52.2128L132.5 67.4255M147.5 52.2128L132.5 37"
    stroke="var(--clr-theme-pop-element)" stroke-width="1.2" />
  <rect x="165.616" y="57.6612" width="73.8" height="18.8" rx="3.4"
    transform="rotate(-1.58774 165.616 57.6612)" fill="var(--clr-theme-pop-bg)"
    stroke="var(--clr-theme-pop-element)" stroke-width="1.2" />
  <path opacity="0.38"
    d="M172.274 66.8803C172.228 65.2241 173.534 63.8442 175.19 63.7983L196.182 63.2165C197.838 63.1705 199.218 64.476 199.264 66.1322V66.1322C199.31 67.7884 198.005 69.1682 196.348 69.2142L175.356 69.796C173.7 69.8419 172.32 68.5365 172.274 66.8803V66.8803Z"
    fill="var(--clr-theme-pop-element)" />
  <path
    d="M225.289 75.758V82.758M229.289 75.758V82.758M233.289 75.758V82.758M222.407 90.258H228C228.188 90.258 228.376 90.2077 228.525 90.0926C229.201 89.573 229.642 88.8024 230.024 87.9767C230.361 87.2497 231.3 87.2091 231.694 87.9065C232.175 88.7564 232.724 89.5614 233.562 90.1177C233.707 90.2143 233.881 90.258 234.055 90.258H235.812C236.519 90.258 237.02 89.535 236.868 88.8439C236.662 87.9024 236.543 86.7419 236.789 85.758C237.289 83.758 240.289 82.2579 241.289 77.258C242.219 72.6067 243.045 66.9093 239.789 66.258C237.789 65.858 236.622 68.4247 236.289 69.758C236.455 67.9246 236.789 64.7579 233.789 64.2579C231.062 63.8034 230.152 66.7579 229.789 68.7579C229.789 66.7579 229.489 63.7579 226.289 63.7579C223.089 63.7579 222.955 67.4246 223.289 69.2579C222.622 67.7579 221.617 64.6485 218.289 65.7579C214.789 66.9246 217.289 71.7579 218.789 74.7579C218.122 73.4246 216.189 71.1579 213.789 72.7579C210.789 74.7579 212.789 78.7579 214.789 80.7579C216.556 82.5257 220.289 85.2581 220.789 87.258C220.921 87.7894 220.984 88.2619 221.003 88.6683C221.038 89.4109 221.663 90.258 222.407 90.258Z"
    stroke="#A19A96" fill="#FDFDFD" stroke-width="1.2" stroke-linecap="round" />
</svg>