<!-- Generated by SVGTokenizer v1.0.5 (https://github.com/FussuChalice/SVGTokenizer), 03/24/2025,
00:24:02 AM -->
<svg xmlns="http://www.w3.org/2000/svg" width="260" height="161" viewBox="0 0 260 161" fill="none">
  <g id="I5734:132441;5735:28763;5446:51311" clip-path="url(#clip0_6301_31535)">
    <path id="I5734:132441;5735:28763;5446:51311;6349:6937"
      d="M21 1.1H239C249.714 1.1 258.4 9.78568 258.4 20.5V139.5C258.4 150.214 249.714 158.9 239 158.9H21C10.2857 158.9 1.6 150.214 1.6 139.5V20.5C1.6 9.78568 10.2857 1.1 21 1.1Z"
      fill="var(--bg/1)" stroke="var(--clr-border-2)" stroke-width="1.2" />
    <g id="I5734:132441;5735:28763;5446:51311;6349:6938">
      <path id="I5734:132441;5735:28763;5446:51311;6349:6939"
        d="M12 47.2357H93M12 63.7833H93M12 80.331H93M12 96.8786H93M12 113.426H93"
        stroke="var(--clr-border-3)" stroke-width="1.2" />
      <rect id="I5734:132441;5735:28763;5446:51311;6349:6940" x="11.6" y="11.1" width="80.8"
        height="137.8" rx="9.4" stroke="var(--clr-border-1)" stroke-width="1.2" />
      <text opacity="0.7" fill="var(--clr-text-2)" xml:space="preserve" style="white-space: pre"
        font-family="Inter" font-size="13" font-weight="500" letter-spacing="0em"><tspan x="23.4131" y="33.0987">Changes</tspan></text>
    </g>
    <g id="I5734:132441;5735:28763;5446:51311;6349:6942">
      <path id="I5734:132441;5735:28763;5446:51311;6349:6943"
        d="M165.6 32.1H239C244.191 32.1 248.4 36.3085 248.4 41.5V139.5C248.4 144.691 244.191 148.9 239 148.9H175C169.809 148.9 165.6 144.691 165.6 139.5V32.1Z"
        fill="var(--bg/1)" stroke="var(--clr-border-2)" stroke-width="1.2" />
      <path id="I5734:132441;5735:28763;5446:51311;6349:6945"
        d="M174 63.1667H241M174 115.917H241M174 133.5H241" stroke="var(--clr-border-3)"
        stroke-width="1.2" />
      <rect id="I5734:132441;5735:28763;5446:51311;6349:6946" x="173.6" y="40.1" width="66.8"
        height="100.8" rx="5.4" stroke="var(--clr-border-1)" stroke-width="1.2" />

      <text opacity="0.7" fill="#867E79" xml:space="preserve" style="white-space: pre"
        font-family="Inter" font-size="13" font-weight="500" letter-spacing="0em"><tspan x="180.101" y="57.2273">Branch</tspan></text>

      <rect id="I5734:132441;5735:28763;5446:51311;6349:6948" opacity="0.17" x="174" y="80.5"
        width="66" height="18" fill="var(--clr-theme-pop-element)" />
      <path id="I5734:132441;5735:28763;5446:51311;6456:15711" opacity="0.5"
        d="M174 80.5H240M240 98.5H174" stroke="var(--clr-theme-pop-element)" stroke-width="1.2" />
      <g id="I5734:132441;5735:28763;5446:51311;6349:6949">
        <path id="I5734:132441;5735:28763;5446:51311;6349:6950"
          d="M175 11.1H192C197.191 11.1 201.4 15.3085 201.4 20.5V31.9H165.6V20.5C165.6 15.3085 169.809 11.1 175 11.1Z"
          fill="var(--bg/1)" stroke="var(--clr-border-2)" stroke-width="1.2" />
        <path id="I5734:132441;5735:28763;5446:51311;6457:15989"
          d="M211 11.1H228C233.191 11.1 237.4 15.3085 237.4 20.5V31.9H201.6V20.5C201.6 15.3085 205.809 11.1 211 11.1Z"
          fill="var(--bg/1)" stroke="var(--clr-border-2)" stroke-width="1.2" />
      </g>
    </g>
    <g id="I5734:132441;5735:28763;5446:51311;6350:7160" opacity="0.4">
      <path
        d="M18 54.5C18 53.9477 18.4477 53.5 19 53.5H23C23.5523 53.5 24 53.9477 24 54.5V56.5C24 57.0523 23.5523 57.5 23 57.5H19C18.4477 57.5 18 57.0523 18 56.5V54.5Z"
        fill="var(--clr-core-ntrl-60)" />
      <path
        d="M18 71.5C18 70.9477 18.4477 70.5 19 70.5H23C23.5523 70.5 24 70.9477 24 71.5V73.5C24 74.0523 23.5523 74.5 23 74.5H19C18.4477 74.5 18 74.0523 18 73.5V71.5Z"
        fill="var(--clr-core-ntrl-60)" />
      <path
        d="M18 88.5C18 87.9477 18.4477 87.5 19 87.5H23C23.5523 87.5 24 87.9477 24 88.5V90.5C24 91.0523 23.5523 91.5 23 91.5H19C18.4477 91.5 18 91.0523 18 90.5V88.5Z"
        fill="var(--clr-core-ntrl-60)" />
      <path
        d="M18 105.5C18 104.948 18.4477 104.5 19 104.5H23C23.5523 104.5 24 104.948 24 105.5V107.5C24 108.052 23.5523 108.5 23 108.5H19C18.4477 108.5 18 108.052 18 107.5V105.5Z"
        fill="var(--clr-core-ntrl-60)" />
      <path
        d="M28 54.5C28 53.9477 28.4477 53.5 29 53.5H53C53.5523 53.5 54 53.9477 54 54.5V56.5C54 57.0523 53.5523 57.5 53 57.5H29C28.4477 57.5 28 57.0523 28 56.5V54.5Z"
        fill="var(--clr-core-ntrl-60)" />
      <path
        d="M28 71.5C28 70.9477 28.4477 70.5 29 70.5H63C63.5523 70.5 64 70.9477 64 71.5V73.5C64 74.0523 63.5523 74.5 63 74.5H29C28.4477 74.5 28 74.0523 28 73.5V71.5Z"
        fill="var(--clr-core-ntrl-60)" />
      <path
        d="M28 88.5C28 87.9477 28.4477 87.5 29 87.5H53C53.5523 87.5 54 87.9477 54 88.5V90.5C54 91.0523 53.5523 91.5 53 91.5H29C28.4477 91.5 28 91.0523 28 90.5V88.5Z"
        fill="var(--clr-core-ntrl-60)" />
      <path
        d="M28 105.5C28 104.948 28.4477 104.5 29 104.5H73C73.5523 104.5 74 104.948 74 105.5V107.5C74 108.052 73.5523 108.5 73 108.5H29C28.4477 108.5 28 108.052 28 107.5V105.5Z"
        fill="var(--clr-core-ntrl-60)" />
    </g>

    <rect id="I5734:132441;5735:28763;5446:51311;6349:6959" opacity="0.17" x="11" y="63.5"
      width="82" height="34" fill="var(--clr-theme-pop-element)" />
    <rect id="I5734:132441;5735:28763;5446:51311;6456:15434" opacity="0.12" x="98" y="10.5"
      width="62" height="139" rx="10" fill="var(--clr-core-ntrl-60)" />
    <g id="I5734:132441;5735:28763;5446:51311;6456:15645">
      <rect id="I5734:132441;5735:28763;5446:51311;6456:15646" x="62.6" y="65.1" width="53.8"
        height="23.8" rx="5.4" fill="var(--clr-theme-pop-bg)" stroke="var(--clr-theme-pop-element)"
        stroke-width="1.2" />
      <rect id="I5734:132441;5735:28763;5446:51311;6456:15647" x="56.6" y="57.1" width="53.8"
        height="23.8" rx="5.4" fill="var(--clr-theme-pop-bg)" stroke="var(--clr-theme-pop-element)"
        stroke-width="1.2" />
      <path id="I5734:132441;5735:28763;5446:51311;6456:15648" opacity="0.38"
        d="M64 69C64 67.067 65.567 65.5 67.5 65.5H87.5C89.433 65.5 91 67.067 91 69V69C91 70.933 89.433 72.5 87.5 72.5H67.5C65.567 72.5 64 70.933 64 69V69Z"
        fill="var(--clr-theme-pop-element)" />
      <circle id="I5734:132441;5735:28763;5446:51311;6456:15649" cx="106.5" cy="59" r="9.5"
        fill="var(--clr-theme-pop-element)" />
      <path id="I5734:132441;5735:28763;5446:51311;6456:15650"
        d="M103.172 63.5V62.0597L106.538 58.9435C106.824 58.6665 107.064 58.4173 107.258 58.1957C107.455 57.9741 107.604 57.7571 107.705 57.5447C107.807 57.3293 107.858 57.0969 107.858 56.8477C107.858 56.5707 107.795 56.3321 107.669 56.1321C107.542 55.929 107.37 55.7736 107.152 55.6658C106.933 55.555 106.685 55.4996 106.408 55.4996C106.119 55.4996 105.867 55.5581 105.651 55.6751C105.436 55.792 105.27 55.9598 105.153 56.1783C105.036 56.3968 104.977 56.6568 104.977 56.9585H103.08C103.08 56.3398 103.22 55.8028 103.5 55.3473C103.78 54.8918 104.172 54.5394 104.677 54.2901C105.182 54.0408 105.763 53.9162 106.422 53.9162C107.099 53.9162 107.689 54.0362 108.19 54.2763C108.695 54.5133 109.087 54.8426 109.367 55.2642C109.647 55.6858 109.788 56.169 109.788 56.7138C109.788 57.0708 109.717 57.4232 109.575 57.771C109.437 58.1187 109.189 58.505 108.832 58.9297C108.475 59.3513 107.972 59.8576 107.322 60.4485L105.942 61.8011V61.8658H109.912V63.5H103.172Z"
        fill="var(--clr-theme-pop-on-element)" />
    </g>
    <path id="I5734:132441;5735:28763;5446:51311;6456:15654"
      d="M210 89.5V115.5C210 121.023 205.523 125.5 200 125.5H96.5C90.9772 125.5 86.5 121.023 86.5 115.5V93M210 89.5L195 104.5M210 89.5L225 104.5"
      stroke="var(--clr-theme-pop-element)" stroke-width="1.2" />
  </g>
  <g id="I5734:132441;5735:28763;5446:51311;6456:15651">
    <g id="I5734:132441;5735:28763;5446:51311;6456:15652">
      <path id="I5734:132441;5735:28763;5446:51311;6456:15653"
        d="M106 84.5001V91.5001M110 84.5001V91.5001M114 84.5001V91.5001M103.118 99.0001H108.711C108.9 99.0001 109.087 98.9498 109.237 98.8347C109.913 98.3151 110.353 97.5445 110.736 96.7188C111.073 95.9918 112.011 95.9512 112.406 96.6486C112.886 97.4985 113.435 98.3035 114.273 98.8598C114.419 98.9564 114.592 99.0001 114.767 99.0001H116.523C117.23 99.0001 117.731 98.2771 117.58 97.586C117.374 96.6445 117.254 95.484 117.5 94.5001C118 92.5001 121 91 122 86.0001C122.93 81.3488 123.757 75.6514 120.5 75.0001C118.5 74.6001 117.333 77.1668 117 78.5001C117.167 76.6667 117.5 73.5 114.5 73C111.773 72.5455 110.864 75.5 110.5 77.5C110.5 75.5 110.2 72.5 107 72.5C103.8 72.5 103.667 76.1667 104 78C103.333 76.5 102.328 73.3906 99 74.5C95.5 75.6667 98 80.5 99.5 83.5C98.8334 82.1667 96.9 79.9 94.5 81.5C91.5 83.5 93.5 87.5 95.5 89.5C97.2678 91.2678 101 94.0002 101.5 96.0001C101.633 96.5315 101.696 97.004 101.715 97.4104C101.749 98.153 102.375 99.0001 103.118 99.0001Z"
        stroke="#A19A96" fill="white" stroke-width="1.2" stroke-linecap="round" />
    </g>
  </g>


</svg>