<svg xmlns="http://www.w3.org/2000/svg" width="260" height="160" viewBox="0 0 260 160" fill="none">
  <path
    d="M21 0.599609H239C249.714 0.599609 258.4 9.28568 258.4 20V139C258.4 149.714 249.714 158.4 239 158.4H21C10.2857 158.4 1.59961 149.714 1.59961 139V20C1.59961 9.28568 10.2857 0.599609 21 0.599609Z"
    fill="var(--clr-bg-1)" stroke="var(--clr-border-2)" stroke-width="1.2" />
  <rect opacity="0.12" x="11" y="10" width="38" height="139" rx="10" fill="var(--clr-core-ntrl-60)" />
  <rect opacity="0.12" x="57" y="10" width="49" height="139" rx="10" fill="var(--clr-core-ntrl-60)" />
  <path d="M114 42H168M114 59.3333H168M114 76.3333H168M114 93.3333H168" stroke="var(--clr-border-3)"
    stroke-width="1.2" />
  <rect opacity="0.17" x="114" y="111" width="54" height="23" fill="var(--clr-theme-pop-element)" />
  <path opacity="0.5" d="M114 111H168M168 134H114" stroke="var(--clr-theme-pop-element)"
    stroke-width="1.2" />
  <path d="M168 81H249M168 98.6709H249M168 116.002H249M168 133.333H249" stroke="var(--clr-border-3)"
    stroke-width="1.2" />
  <path
    d="M239 10H124C118.477 10 114 14.4772 114 20V139C114 144.523 118.477 149 124 149H239C244.523 149 249 144.523 249 139V20C249 14.4772 244.523 10 239 10Z"
    stroke="var(--clr-border-1)" stroke-width="1.2" />
  <text opacity="0.7" fill="var(--clr-text-2)" xml:space="preserve" style="white-space: pre"
    font-family="Inter" font-size="13" font-weight="500" letter-spacing="0em">
    <tspan x="113.235" y="29.7273">anch-1</tspan>
  </text>
  <text opacity="0.7" fill="var(--clr-text-2)" xml:space="preserve" style="white-space: pre"
    font-family="Inter" font-size="13" font-weight="500" letter-spacing="0em">
    <tspan x="179.296" y="29.7273">Branch-2</tspan>
  </text>
  <path d="M168 10L168 149" stroke="var(--clr-border-1)" stroke-width="1.2" />
  <rect x="168" y="42" width="81" height="22" fill="var(--clr-theme-pop-soft-hover)"
    stroke="var(--clr-theme-pop-element)" stroke-width="1.2" />
  <rect x="132.616" y="52.6612" width="73.8" height="18.8" rx="3.4"
    transform="rotate(-1.58774 132.616 52.6612)" fill="var(--clr-theme-pop-bg)"
    stroke="var(--clr-theme-pop-element)" stroke-width="1.2" />
  <path opacity="0.38"
    d="M139.274 61.8803C139.228 60.2241 140.534 58.8442 142.19 58.7983L163.182 58.2165C164.838 58.1705 166.218 59.476 166.264 61.1322V61.1322C166.31 62.7884 165.005 64.1682 163.348 64.2142L142.356 64.796C140.7 64.8419 139.32 63.5365 139.274 61.8803V61.8803Z"
    fill="var(--clr-theme-pop-element)" />
  <path
    d="M182.289 70.7579V77.7579M186.289 70.7579V77.7579M190.289 70.7579V77.7579M179.407 85.2579H185C185.188 85.2579 185.376 85.2076 185.525 85.0925C186.201 84.5729 186.642 83.8023 187.024 82.9766C187.361 82.2496 188.3 82.209 188.694 82.9064C189.175 83.7563 189.724 84.5613 190.562 85.1176C190.707 85.2142 190.881 85.2579 191.055 85.2579H192.812C193.519 85.2579 194.02 84.535 193.868 83.8438C193.662 82.9023 193.543 81.7419 193.789 80.7579C194.289 78.7579 197.289 77.2578 198.289 72.2579C199.219 67.6066 200.045 61.9092 196.789 61.2579C194.789 60.8579 193.622 63.4246 193.289 64.7579C193.455 62.9245 193.789 59.7578 190.789 59.2578C188.062 58.8033 187.152 61.7578 186.789 63.7578C186.789 61.7578 186.489 58.7578 183.289 58.7578C180.089 58.7578 179.955 62.4245 180.289 64.2578C179.622 62.7578 178.617 59.6484 175.289 60.7578C171.789 61.9245 174.289 66.7578 175.789 69.7578C175.122 68.4245 173.189 66.1578 170.789 67.7578C167.789 69.7578 169.789 73.7578 171.789 75.7578C173.556 77.5256 177.289 80.258 177.789 82.2579C177.921 82.7893 177.984 83.2618 178.003 83.6682C178.038 84.4108 178.663 85.2579 179.407 85.2579Z"
    fill="#FDFDFD" stroke="#A19A96" stroke-width="1.2" stroke-linecap="round" />
  <path
    d="M159 122.5L215.287 122.5C220.81 122.5 225.287 118.023 225.287 112.5L225.287 70.5M225.287 70.5L210.074 85.5M225.287 70.5L240.5 85.5"
    stroke="var(--clr-theme-pop-element)" stroke-width="1.2" />
</svg>