<svg
  xmlns="http://www.w3.org/2000/svg" width="100%" height="100%" viewBox="0 0 400 400" fill="none">
  <g id="8274:19961" clip-path="url(#clip0_8274_19961)">
    <g id="Group 1948754543">
      <g id="Group 1948754544">
        <path id="8274:19966"
          d="M22 206L88 320C133.856 289.192 173 242.643 272.703 213.994L272.703 199C212.647 206.319 177.237 223.761 121.252 242.643C95 206 64.8422 199.806 22 206Z"
          fill="var(--clr-illustration-fill)" stroke="var(--clr-illustration-outline)"
          stroke-width="1.2" />
        <path id="8274:19967"
          d="M224.202 254.922L296 215L275.258 204.931C257.457 214.356 217.071 224.905 203 238C188.929 251.095 176.473 292.588 171.248 307.263C123 302 102.061 316.546 76.526 351.259L217 388L224.202 254.922Z"
          fill="var(--clr-illustration-fill)" stroke="var(--clr-illustration-outline)"
          stroke-width="1.2" />
      </g>
      <path id="8274:19968"
        d="M177.206 201.68L174.574 207.072L174.574 207.072L177.206 201.68ZM147.063 157.235C145.024 154.622 141.254 154.157 138.641 156.196C136.029 158.235 135.564 162.005 137.603 164.618L142.333 160.926L147.063 157.235ZM232.833 187.986L230.199 182.595C216.929 189.077 206.435 193.721 197.919 196.086C189.381 198.456 183.842 198.242 179.838 196.287L177.206 201.68L174.574 207.072C182.448 210.914 191.455 210.334 201.129 207.648C210.823 204.957 222.204 199.856 235.466 193.377L232.833 187.986ZM177.206 201.68L179.838 196.287C175.039 193.945 170.945 189.751 165.833 182.972C163.29 179.599 160.652 175.809 157.56 171.449C154.498 167.132 151.064 162.362 147.063 157.235L142.333 160.926L137.603 164.618C141.435 169.527 144.744 174.122 147.771 178.391C150.769 182.618 153.569 186.639 156.252 190.197C161.591 197.278 167.101 203.424 174.574 207.072L177.206 201.68Z"
        fill="#475050" />
      <path id="8274:19969"
        d="M350.726 106.472C359.992 109.911 364.752 120.178 361.389 129.472L348.923 163.918C346.893 169.53 347.775 175.783 351.279 180.613L357.13 188.677C360.61 193.475 361.506 199.678 359.524 205.264L352.15 226.055C348.795 235.513 338.354 240.401 328.942 236.921L206.442 191.621C196.975 188.12 192.237 177.521 195.941 168.132L230.462 80.6419C234.059 71.5278 244.284 66.964 253.47 70.3734L350.726 106.472Z"
        fill="var(--clr-illustration-fill)" stroke="var(--clr-illustration-outline)"
        stroke-width="1.2" />
      <path id="8274:19970"
        d="M329.451 203.856C328.492 200.684 325.143 198.891 321.971 199.85C318.799 200.809 317.005 204.158 317.965 207.33L323.708 205.593L329.451 203.856ZM316.395 301.879L321.36 305.249C337.786 281.047 343.519 265.479 342.678 250.309C342.266 242.895 340.299 235.947 337.85 228.673C335.335 221.204 332.411 213.645 329.451 203.856L323.708 205.593L317.965 207.33C320.978 217.293 324.179 225.676 326.477 232.502C328.842 239.524 330.377 245.224 330.696 250.974C331.315 262.132 327.418 274.956 311.431 298.51L316.395 301.879Z"
        fill="#475050" />
      <path id="8274:19971"
        d="M334.425 209.062L348.421 209.937M332.005 215.259L346 216.134M329.585 221.453L343.581 222.328"
        stroke="var(--clr-illustration-outline)" stroke-width="1.2" />
      <rect id="8274:19972" opacity="0.13" x="242.277" y="75.5479" width="93.5302" height="104.822"
        rx="9.86" transform="rotate(20.555 242.277 75.5479)" fill="var(--clr-illustration-outline)" />
      <g id="Group 1948754528">
        <path id="8274:19974"
          d="M235.125 120.928C228.964 135.954 223.301 152.725 235.369 159.141C247.437 165.558 255.088 146.23 261.681 131.338C268.274 116.447 274.13 99.2071 261.068 94.0693C248.006 88.9316 241.286 105.902 235.125 120.928Z"
          fill="var(--clr-illustration-fill)" stroke="var(--clr-illustration-outline)"
          stroke-width="1.2" />
        <path id="8274:19975"
          d="M254.235 115.025L240.969 146.775L229.096 138.921C230.305 133.155 232.675 126.904 235.125 120.929C237.431 115.306 239.814 109.411 242.578 104.504L254.235 115.025Z"
          fill="var(--clr-illustration-outline)" />
      </g>
      <g id="Group 1948754545">
        <path id="8274:19979"
          d="M278.774 138.318C272.613 153.344 266.95 170.115 279.018 176.531C291.085 182.948 298.737 163.62 305.33 148.728C311.922 133.837 317.779 116.597 304.717 111.459C291.655 106.322 284.935 123.292 278.774 138.318Z"
          fill="var(--clr-illustration-fill)" stroke="var(--clr-illustration-outline)"
          stroke-width="1.2" />
        <path id="8274:19980"
          d="M297.884 132.415L284.618 164.165L272.745 156.311C273.954 150.545 276.324 144.294 278.774 138.319C281.08 132.696 283.462 126.801 286.227 121.894L297.884 132.415Z"
          fill="var(--clr-illustration-outline)" />
      </g>
      <path id="8274:19983"
        d="M235.043 174.526L228.471 191.772L246.586 190.804L259.158 203.4L265.989 186.597L247.941 186.33L235.043 174.526Z"
        fill="var(--clr-illustration-outline)" />
      <g id="Group 1948754539">
        <g id="8274:19985">
          <path
            d="M257.557 298.564L270.277 283.584L251.367 267.527C258.726 259.504 271.175 258.673 279.545 265.78C287.587 272.609 289.007 284.34 283.142 292.843L340.434 341.492C347.887 334.56 359.515 334.148 367.464 340.898C375.835 348.005 377.032 360.425 370.308 368.987L351.398 352.93L338.679 367.909L357.591 383.968C350.239 392.047 337.749 392.9 329.358 385.775C321.504 379.106 319.967 367.762 325.361 359.314L267.93 310.547C260.465 317.01 249.199 317.247 241.439 310.657C233.048 303.532 231.865 291.069 238.645 282.505L257.557 298.564Z"
            fill="var(--clr-illustration-fill)" />
          <path
            d="M257.557 298.564L257.169 299.021L257.626 299.41L258.015 298.952L257.557 298.564ZM270.277 283.584L270.734 283.973L271.123 283.515L270.665 283.127L270.277 283.584ZM251.367 267.527L250.925 267.122L250.503 267.581L250.979 267.985L251.367 267.527ZM279.545 265.78L279.934 265.323L279.934 265.323L279.545 265.78ZM283.142 292.843L282.648 292.503L282.34 292.949L282.754 293.301L283.142 292.843ZM340.434 341.492L340.046 341.949L340.452 342.294L340.843 341.931L340.434 341.492ZM367.464 340.898L367.853 340.441L367.853 340.441L367.464 340.898ZM370.308 368.987L369.92 369.444L370.395 369.848L370.78 369.357L370.308 368.987ZM351.398 352.93L351.787 352.472L351.329 352.084L350.941 352.541L351.398 352.93ZM338.679 367.909L338.221 367.521L337.833 367.978L338.29 368.366L338.679 367.909ZM357.591 383.968L358.035 384.372L358.453 383.913L357.979 383.511L357.591 383.968ZM329.358 385.775L328.97 386.232L328.97 386.232L329.358 385.775ZM325.361 359.314L325.867 359.637L326.148 359.196L325.749 358.857L325.361 359.314ZM267.93 310.547L268.318 310.09L267.926 309.757L267.537 310.094L267.93 310.547ZM241.439 310.657L241.05 311.115L241.05 311.115L241.439 310.657ZM238.645 282.505L239.033 282.048L238.56 281.646L238.175 282.132L238.645 282.505ZM257.557 298.564L258.015 298.952L270.734 283.973L270.277 283.584L269.82 283.196L257.1 298.176L257.557 298.564ZM270.277 283.584L270.665 283.127L251.755 267.07L251.367 267.527L250.979 267.985L269.889 284.042L270.277 283.584ZM251.367 267.527L251.809 267.933C258.951 260.146 271.033 259.34 279.157 266.238L279.545 265.78L279.934 265.323C271.316 258.006 258.501 258.862 250.925 267.122L251.367 267.527ZM279.545 265.78L279.157 266.238C286.961 272.865 288.34 284.25 282.648 292.503L283.142 292.843L283.636 293.184C289.674 284.429 288.213 272.353 279.934 265.323L279.545 265.78ZM283.142 292.843L282.754 293.301L340.046 341.949L340.434 341.492L340.823 341.034L283.531 292.386L283.142 292.843ZM340.434 341.492L340.843 341.931C348.076 335.204 359.361 334.804 367.076 341.355L367.464 340.898L367.853 340.441C359.668 333.491 347.699 333.916 340.026 341.052L340.434 341.492ZM367.464 340.898L367.076 341.355C375.2 348.253 376.362 360.307 369.836 368.616L370.308 368.987L370.78 369.357C377.702 360.542 376.47 347.758 367.853 340.441L367.464 340.898ZM370.308 368.987L370.697 368.529L351.787 352.472L351.398 352.93L351.01 353.387L369.92 369.444L370.308 368.987ZM351.398 352.93L350.941 352.541L338.221 367.521L338.679 367.909L339.136 368.297L351.856 353.318L351.398 352.93ZM338.679 367.909L338.29 368.366L357.202 384.425L357.591 383.968L357.979 383.511L339.067 367.452L338.679 367.909ZM357.591 383.968L357.147 383.564C350.012 391.404 337.89 392.233 329.746 385.317L329.358 385.775L328.97 386.232C337.608 393.567 350.466 392.689 358.035 384.372L357.591 383.968ZM329.358 385.775L329.746 385.317C322.125 378.845 320.632 367.835 325.867 359.637L325.361 359.314L324.855 358.991C319.302 367.688 320.884 379.366 328.97 386.232L329.358 385.775ZM325.361 359.314L325.749 358.857L268.318 310.09L267.93 310.547L267.541 311.005L324.973 359.771L325.361 359.314ZM267.93 310.547L267.537 310.094C260.292 316.366 249.358 316.595 241.827 310.2L241.439 310.657L241.05 311.115C249.04 317.899 260.637 317.655 268.322 311.001L267.93 310.547ZM241.439 310.657L241.827 310.2C233.683 303.285 232.536 291.189 239.116 282.877L238.645 282.505L238.175 282.132C231.195 290.949 232.412 303.78 241.05 311.115L241.439 310.657ZM238.645 282.505L238.257 282.962L257.169 299.021L257.557 298.564L257.946 298.107L239.033 282.048L238.645 282.505Z"
            fill="var(--clr-illustration-fill)" />
        </g>
      </g>
      <path id="8274:19989"
        d="M252.233 164.087C250.275 166.437 247.447 171.847 251.805 174.685C256.162 177.522 261.023 172.486 262.908 169.614"
        stroke="var(--clr-illustration-outline)" stroke-width="1.2" />
      <g id="8274:19990">
        <path
          d="M319.149 288.995C308.01 283.874 301.899 289.807 302.166 294.971C296.311 296.292 285.963 298.988 277.165 308.253C263.905 320.862 259.907 335.036 265.472 342.516C268.288 346.3 273.171 344.535 274.359 344.128C274.501 346.882 272.23 353.041 279.674 356.799C285.443 359.711 291.95 357.2 294.028 353.986C295.301 358.58 296.321 360.288 300.189 362.988C304.057 365.688 311.844 368.082 322.672 357.166L311.293 347.397C316.707 341.939 324.016 332.58 326.238 327.494C328.461 322.408 327.741 314.96 326.031 311.941C335.603 306.786 330.288 294.115 319.149 288.995Z"
          fill="var(--clr-illustration-fill)" />
        <path
          d="M326.031 311.941C335.603 306.786 330.288 294.115 319.149 288.995C308.01 283.874 301.899 289.807 302.166 294.971C296.311 296.292 285.963 298.988 277.165 308.253C263.905 320.862 259.907 335.036 265.472 342.516C268.288 346.3 273.171 344.535 274.359 344.128C274.501 346.882 272.23 353.041 279.674 356.799C285.443 359.711 291.95 357.2 294.028 353.986C295.301 358.58 296.321 360.288 300.189 362.988C304.057 365.688 311.844 368.082 322.672 357.166L311.293 347.397C316.707 341.939 324.016 332.58 326.238 327.494C328.461 322.408 327.741 314.96 326.031 311.941ZM326.031 311.941C324.675 309.077 321.255 303.696 311.91 299.208M306.603 326.717L295.24 339.206M299.79 320.754L287.714 333.215M293.487 315.33L281.242 326.749"
          stroke="var(--clr-illustration-outline)" stroke-width="1.2" />
      </g>
      <g id="8274:19991">
        <path
          d="M145.416 169.986C137.791 176.75 126.813 174.337 125.517 168.15C115.978 172.326 110.118 168.922 105.076 162.065C96.233 162.001 86.0937 157.163 80.5203 149.999C74.2617 141.954 75.5356 133.204 81.3449 130.94C77.5565 119.389 84.3672 115.039 88.5628 113.404C86.6878 110.12 86.604 99.222 96.7064 95.9535C108.252 92.218 125.769 104.701 134.548 115.779C135.188 108.837 136.839 101.055 141.182 94.4554C150.067 80.9505 166.71 81.3589 170.249 87.7143C175.454 97.0619 159.939 105.053 155.622 120.056C153.871 126.141 153.202 136.168 149.487 146.093C156.421 151.866 154.388 162.027 145.416 169.986Z"
          fill="var(--clr-illustration-fill)" />
        <path
          d="M149.487 146.093C156.421 151.866 154.388 162.027 145.416 169.986C137.791 176.75 126.813 174.337 125.517 168.15C115.978 172.326 110.118 168.922 105.076 162.065M149.487 146.093C153.202 136.168 153.871 126.141 155.622 120.056C159.939 105.053 175.454 97.0619 170.249 87.7143C166.71 81.3589 150.067 80.9505 141.182 94.4554C136.839 101.055 135.188 108.837 134.548 115.779C125.769 104.701 108.252 92.218 96.7064 95.9535C86.604 99.222 86.6878 110.12 88.5628 113.404M149.487 146.093C148.163 150.326 143.165 159.978 133.768 164.711M88.5628 113.404C84.3672 115.039 77.5565 119.389 81.3449 130.94M88.5628 113.404C94.3685 127.263 114.855 139.421 123.882 140.333M81.3449 130.94C75.5356 133.204 74.2617 141.954 80.5203 149.999C86.0937 157.163 96.233 162.001 105.076 162.065M81.3449 130.94C87.6155 142.713 108.032 155.329 118.368 153.49C123.113 152.645 126.975 147.283 123.882 140.333M105.076 162.065C110.653 162.105 116.902 160.355 116.111 153.748M112.214 109.985C123.722 114.104 137.268 126.764 132.712 135.678C131.276 138.026 128.654 140.815 123.882 140.333"
          stroke="var(--clr-illustration-outline)" stroke-width="1.2" />
      </g>
    </g>
    <g id="Group 1948754540">
      <path id="8274:19993"
        d="M165.295 32.685L197.519 21.8417L200.354 17.7227L215.837 13.5677L220.302 26.8367L205.457 32.8872L200.709 31.3195L168.484 42.1628L165.295 32.685Z"
        fill="var(--clr-illustration-outline)" />
      <g id="8274:19994">
        <path fill-rule="evenodd" clip-rule="evenodd"
          d="M163.099 53.4707L129.178 64.8849C122.112 67.2627 114.455 63.4618 112.078 56.3953C109.7 49.3288 113.501 41.6726 120.567 39.2948L154.488 27.8807C154.382 24.8657 156.248 22.0131 159.253 21.0017C162.917 19.7688 166.887 21.7397 168.12 25.4038L175.455 47.2027C176.688 50.8669 174.718 54.8367 171.053 56.0697C168.048 57.081 164.837 55.9368 163.099 53.4707Z"
          fill="var(--clr-illustration-fill)" />
        <path
          d="M163.099 53.4707L163.59 53.1251L163.332 52.7594L162.908 52.9021L163.099 53.4707ZM154.488 27.8807L154.68 28.4493L155.104 28.3066L155.088 27.8595L154.488 27.8807ZM163.099 53.4707L162.908 52.9021L128.987 64.3162L129.178 64.8849L129.369 65.4536L163.29 54.0394L163.099 53.4707ZM129.178 64.8849L128.987 64.3162C122.234 66.5884 114.918 62.9564 112.646 56.2039L112.078 56.3953L111.509 56.5866C113.992 63.9672 121.989 67.9371 129.369 65.4536L129.178 64.8849ZM112.078 56.3953L112.646 56.2039C110.374 49.4515 114.006 42.1356 120.759 39.8635L120.567 39.2948L120.376 38.7261C112.995 41.2096 109.025 49.2061 111.509 56.5866L112.078 56.3953ZM120.567 39.2948L120.759 39.8635L154.68 28.4493L154.488 27.8807L154.297 27.312L120.376 38.7261L120.567 39.2948ZM154.488 27.8807L155.088 27.8595C154.99 25.1025 156.698 22.4948 159.445 21.5704L159.253 21.0017L159.062 20.4331C155.798 21.5313 153.773 24.6289 153.889 27.9018L154.488 27.8807ZM159.253 21.0017L159.445 21.5704C162.795 20.4432 166.424 22.2451 167.552 25.5951L168.12 25.4038L168.689 25.2124C167.35 21.2342 163.04 19.0945 159.062 20.4331L159.253 21.0017ZM168.12 25.4038L167.552 25.5951L174.887 47.3941L175.455 47.2027L176.024 47.0114L168.689 25.2124L168.12 25.4038ZM175.455 47.2027L174.887 47.3941C176.014 50.7441 174.212 54.3737 170.862 55.501L171.053 56.0697L171.245 56.6383C175.223 55.2997 177.363 50.9896 176.024 47.0114L175.455 47.2027ZM171.053 56.0697L170.862 55.501C168.115 56.4253 165.179 55.3802 163.59 53.1251L163.099 53.4707L162.609 53.8164C164.495 56.4934 167.981 57.7366 171.245 56.6383L171.053 56.0697Z"
          fill="var(--clr-illustration-fill)" />
      </g>
      <path id="8274:19997"
        d="M155.011 30.3426L161.708 50.246M122.64 45.4554L152.021 35.5689M124.873 52.0899L154.254 42.2033M156.486 48.8378L127.105 58.7244"
        stroke="var(--clr-illustration-outline)" stroke-width="1.2" />
    </g>
    <g id="Group 1948754541">
      <path id="8274:19999"
        d="M391.207 69.3495L389.907 51.2637L384.083 41.4711L366.521 37.0961L350.083 50.6274L351.239 68.8461L357.313 78.6871L374.91 83.0613L391.207 69.3495Z"
        fill="var(--clr-illustration-fill)" stroke="var(--clr-illustration-outline)"
        stroke-width="1.2" />
      <path id="8274:20000"
        d="M383.907 41.2636L385.207 59.3495L368.91 73.0612L351.313 68.687M373.042 50.4048L373.476 56.4334L368.043 61.004L362.178 59.5459L361.744 53.5173L367.177 48.9467L373.042 50.4048Z"
        stroke="var(--clr-illustration-outline)" stroke-width="1.2" />
    </g>
    <g id="Group 1948754542">
      <path id="8274:20002" fill-rule="evenodd" clip-rule="evenodd"
        d="M46.6381 378.725L59.4695 375.812L64.7687 367.989L65.7687 355.434L54.2687 345.114L41.5812 348.052L36.2269 355.434L35.0168 368.537L46.6381 378.725Z"
        fill="var(--clr-illustration-fill)" stroke="var(--clr-illustration-outline)"
        stroke-width="1.2" />
      <g id="8274:20003">
        <path fill-rule="evenodd" clip-rule="evenodd"
          d="M52.6324 362.366L56.9095 361.394L57.3129 357.027L53.4391 353.631L49.162 354.602L48.7586 358.969L52.6324 362.366Z"
          fill="var(--clr-illustration-fill)" />
        <path
          d="M64.657 368.187L51.8256 371.1L40.2044 360.912L41.4145 347.81M56.9095 361.394L52.6324 362.366L48.7586 358.969L49.162 354.602L53.4391 353.631L57.3129 357.027L56.9095 361.394Z"
          stroke="var(--clr-illustration-outline)" stroke-width="1.2" />
      </g>
    </g>
    <circle id="8274:20004" opacity="0.7" cx="313.5" cy="54.5" r="3.5" fill="var(--clr-core-pop-50)" />
    <circle id="8274:20005" opacity="0.7" cx="40.5" cy="312.5" r="3.5" fill="var(--clr-core-pop-50)" />
    <path id="8274:20006" opacity="0.7"
      d="M270 34.6562C279.229 36.0563 281.867 39.8963 282.781 51.3125C283.009 41.7502 285.225 36.0875 293.562 33.6562C284.78 31.798 284.026 29.105 282.781 18C280.787 30.1051 278.098 33.9564 270 34.6562Z"
      fill="var(--clr-core-pop-50)" />
    <path id="8274:20007" opacity="0.7"
      d="M230 376C243.71 378.101 247.628 383.865 248.985 401C249.323 386.648 252.615 378.148 265 374.499C251.955 371.71 250.834 367.668 248.985 351C246.023 369.169 242.028 374.95 230 376Z"
      fill="var(--clr-core-pop-50)" />
    <path id="8274:20008" opacity="0.7"
      d="M44.7812 72.2247C54.0719 73.6341 56.7271 77.4995 57.6473 88.9914C57.8763 79.3657 60.1068 73.6655 68.5 71.2181C59.6597 69.3475 58.8998 66.6367 57.6473 55.458C55.6395 67.6434 52.9326 71.5202 44.7812 72.2247Z"
      fill="var(--clr-core-pop-50)" />
  </g>
  <defs>
    <clipPath id="clip0_8274_19961">
      <rect width="400" height="400" fill="white" />
    </clipPath>
  </defs>
</svg>