<!-- Generated by SVGTokenizer v1.0.5 (https://github.com/FussuChalice/SVGTokenizer), 03/06/2025, 02:58:03 PM --><svg xmlns="http://www.w3.org/2000/svg" width="300" height="240" viewBox="0 0 300 240" fill="none">
<g id="6352:7580">
<path id="6352:7213" d="M1.6 24C1.6 13.2857 10.2857 4.6 21 4.6H279C289.714 4.6 298.4 13.2857 298.4 24V216C298.4 226.714 289.714 235.4 279 235.4H21C10.2857 235.4 1.6 226.714 1.6 216V24Z" fill="var(--clr-bg-1)" stroke="var(--clr-border-2)" stroke-width="1.2"/>
<g id="6352:7214">
<path id="6352:7219" d="M14 31H98M14 47.6667H98M14 64.3333H98M14 81H98M14 97.6667H98M14 114.333H98M14 131H98" stroke="var(--clr-border-3)" stroke-width="1.2"/>
<rect id="6352:7220" x="13.6" y="16.6" width="83.8" height="206.8" rx="9.4" stroke="var(--clr-border-2)" stroke-width="1.2"/>
<rect id="6352:7237" x="24" y="200" width="63" height="13" rx="3" fill="var(--clr-text-3)"/>
</g>
<g id="6352:7221">
<path id="6352:7505" opacity="0.12" d="M219 53H277C282.523 53 287 57.4772 287 63V214C287 219.523 282.523 224 277 224H219V53Z" fill="var(--clr-core-ntrl-60)"/>
<path id="6352:7222" d="M104 53H277C282.523 53 287 57.4772 287 63V214C287 219.523 282.523 224 277 224H114C108.477 224 104 219.523 104 214V53Z" stroke="var(--clr-border-2)" stroke-width="1.2"/>
<g id="6352:7521">
<path id="6352:7522" d="M115 104H208M115 114H208M115 124H208M115 134H208M115 144H208" stroke="var(--clr-border-3)" stroke-width="1.2"/>
<path id="6352:7512" d="M114.6 73C114.6 67.8085 118.809 63.6 124 63.6H199C204.191 63.6 208.4 67.8085 208.4 73V144C208.4 149.191 204.191 153.4 199 153.4H124C118.809 153.4 114.6 149.191 114.6 144V73Z" stroke="var(--clr-border-1)" stroke-width="1.2"/>
<text fill="var(--clr-border-1)" xml:space="preserve" style="white-space: pre" font-family="Inter" font-size="12" font-weight="600" letter-spacing="0em"><tspan x="127" y="83.8636">Branch #1</tspan></text>
<path id="6352:7520" d="M115 94.5H208.5" stroke="var(--clr-border-1)" stroke-width="1.2"/>
</g>
<g id="6352:7223">
<path id="6352:7228" d="M178 27.1515C178 20.9927 182.993 16 189.152 16H240.848C247.007 16 252 20.9927 252 27.1515V53H178V27.1515Z" fill="var(--clr-theme-pop-bg)" stroke="var(--clr-scale-pop-50)" stroke-width="1.2"/>
<rect id="6352:7524" x="196" y="32" width="38" height="7" fill="var(--clr-scale-pop-50)"/>
</g>
<g id="6352:7545">
<path id="6352:7546" d="M104 27.1515C104 20.9927 108.993 16 115.152 16H166.848C173.007 16 178 20.9927 178 27.1515V53H104V27.1515Z" fill="var(--clr-theme-pop-bg)" stroke="var(--clr-scale-pop-50)" stroke-width="1.2"/>
<rect id="6352:7547" x="122" y="32" width="38" height="7" fill="var(--clr-scale-pop-50)"/>
</g>
</g>
</g>
</svg>

