<svg xmlns="http://www.w3.org/2000/svg" width="223" height="152" viewBox="0 0 223 152" fill="none">
  <g id="4786:21597">
    <path id="4786:22137" opacity="0.3"
      d="M63.0388 93.1161V151M63.0388 93.1161H168.605M63.0388 93.1161V1M168.605 1H21.0125C9.95992 1 1 9.96639 1 21.027V130.973C1 142.034 9.9599 151 21.0125 151H168.605M168.605 1V24M168.605 1L190.302 1L201.987 1C203.593 1 205.155 1.18926 206.651 1.5467M168.605 93.1161V151M168.605 93.1161V24M168.605 151H201.987C213.04 151 222 142.034 222 130.973V24M168.605 24H190.302H206.651M222 24V21.027C222 11.5733 215.454 3.64956 206.651 1.5467M222 24H206.651M206.651 24V1.5467"
      stroke="var(--clr-core-ntrl-50)" stroke-width="1.2" />
    <path id="4786:21899" opacity="0.3" d="M9 34H55V52H9V34Z" fill="var(--clr-core-pop-55)" />
    <g id="6451:6184" opacity="0.4">
      <path id="6445:5812"
        d="M18.9044 9.6H45.0956C50.2289 9.6 54.4 13.8027 54.4 18.9989V105.001C54.4 110.197 50.2289 114.4 45.0956 114.4H18.9044C13.7711 114.4 9.6 110.197 9.6 105.001V18.9989C9.6 13.8027 13.7711 9.6 18.9044 9.6Z"
        stroke="var(--clr-core-ntrl-50)" stroke-width="1.2" />
      <path id="6451:6121"
        d="M9.08923 22H55.0892M9.08923 64.2329H55.0892M9.08923 77.305H55.0892M9.08923 89.9322H55.0892M9.08923 102H55.0892"
        stroke="var(--clr-core-ntrl-50)" stroke-width="1.2" />
    </g>
    <rect id="4786:21592" opacity="0.3" x="74" y="107" width="50.5632" height="6" rx="3"
      fill="var(--clr-core-ntrl-50)" />
    <g id="4786:21593" opacity="0.3">
      <rect id="4786:21594" x="74" y="125" width="26.7126" height="3" rx="1.5"
        fill="var(--clr-core-ntrl-50)" />
      <rect id="6445:5829" x="104.529" y="125" width="52.4713" height="3" rx="1.5"
        fill="var(--clr-core-ntrl-50)" />
      <rect id="4786:21595" x="74" y="134" width="46.7931" height="3" rx="1.5"
        fill="var(--clr-core-ntrl-50)" />
      <rect id="6445:5836" x="124.149" y="134" width="14.3103" height="3" rx="1.5"
        fill="var(--clr-core-ntrl-50)" />
    </g>
    <path id="4786:21804" opacity="0.4"
      d="M100.783 26L83 48.5L100.783 71M107.528 71L122.858 26M130.217 26L148 48.5L130.217 71"
      stroke="var(--clr-core-ntrl-50)" stroke-width="1.2" />
    <path id="6449:6083" opacity="0.3" d="M175 69H216V84H175V69Z" fill="var(--clr-core-ntrl-60)" />
    <g id="6451:6162" opacity="0.4">
      <path id="6449:6028" d="M216 45H175M175 58H216M175 94H215.5" stroke="var(--clr-core-ntrl-50)"
        stroke-width="1.2" />
      <path id="6451:6141"
        d="M185 31.6H206C211.191 31.6 215.4 35.8085 215.4 41V45V58V97C215.4 102.191 211.191 106.4 206 106.4H185C179.809 106.4 175.6 102.191 175.6 97V94V58V45V41C175.6 35.8085 179.809 31.6 185 31.6Z"
        stroke="var(--clr-core-ntrl-50)" stroke-width="1.2" />
    </g>
  </g>
</svg>