<svg width="300" height="240" viewBox="0 0 300 240" fill="none" xmlns="http://www.w3.org/2000/svg">
<path d="M1.6 24C1.6 13.2857 10.2857 4.6 21 4.6H279C289.714 4.6 298.4 13.2857 298.4 24V216C298.4 226.714 289.714 235.4 279 235.4H21C10.2857 235.4 1.6 226.714 1.6 216V24Z" fill="var(--clr-bg-1)" stroke="var(--clr-border-2)" stroke-width="1.2"/>
<path d="M13.6 214V47.6H180.4V109V133V155V179V223.4H23C17.8085 223.4 13.6 219.191 13.6 214Z" stroke="var(--clr-border-2)" stroke-width="1.2"/>
<path opacity="0.6" d="M179.6 47.6H277C282.191 47.6 286.4 51.8085 286.4 57V214C286.4 219.191 282.191 223.4 277 223.4H179.6V47.6Z" fill="var(--clr-bg-1)" stroke="var(--clr-border-2)" stroke-width="1.2"/>
<path d="M13.6 26C13.6 20.8085 17.8085 16.6 23 16.6H67C72.1915 16.6 76.4 20.8085 76.4 26V47.4H13.6V26Z" fill="var(--clr-bg-1)" stroke="var(--clr-border-2)" stroke-width="1.2"/>
<g opacity="0.5">
<path d="M76.6 26C76.6 20.8085 80.8085 16.6 86 16.6H130C135.191 16.6 139.4 20.8085 139.4 26V47.4H76.6V26Z" fill="var(--clr-bg-1)" stroke="var(--clr-border-2)" stroke-width="1.2"/>
<path d="M76.6 26C76.6 20.8085 80.8085 16.6 86 16.6H130C135.191 16.6 139.4 20.8085 139.4 26V47.4H76.6V26Z" stroke="var(--clr-border-2)" stroke-width="1.2"/>
<path d="M139.6 26C139.6 20.8085 143.809 16.6 149 16.6H193C198.191 16.6 202.4 20.8085 202.4 26V47.4H139.6V26Z" fill="var(--clr-bg-1)" stroke="var(--clr-border-2)" stroke-width="1.2"/>
<path d="M139.6 26C139.6 20.8085 143.809 16.6 149 16.6H193C198.191 16.6 202.4 20.8085 202.4 26V47.4H139.6V26Z" stroke="var(--clr-border-2)" stroke-width="1.2"/>
</g>
<path d="M23 67C23 61.4772 27.4772 57 33 57H161C166.523 57 171 61.4772 171 67V177C171 182.523 166.523 187 161 187H33C27.4772 187 23 182.523 23 177V67Z" fill="var(--clr-bg-1)"/>
<path d="M24 76H170M24 92H170M24 108H170M24 124H170M24 140H170M24 156H170M24 172H170" stroke="var(--clr-border-3)" stroke-width="1.2"/>
<rect opacity="0.43" x="24" y="92" width="146" height="16" fill="var(--clr-border-2)"/>
<g opacity="0.3">
<path d="M32 66.8853C32 66.3963 32.3963 66 32.8853 66H142.25C142.739 66 143.136 66.3963 143.136 66.8853C143.136 67.3742 142.739 67.7705 142.25 67.7705H32.8853C32.3963 67.7705 32 67.3742 32 66.8853Z" fill="var(--clr-core-ntrl-50)"/>
<path d="M32 83.8853C32 83.3963 32.3963 83 32.8853 83H152.25C152.739 83 153.136 83.3963 153.136 83.8853C153.136 84.3742 152.739 84.7705 152.25 84.7705H32.8853C32.3963 84.7705 32 84.3742 32 83.8853Z" fill="var(--clr-core-ntrl-50)"/>
<path d="M32 99.8853C32 99.3963 32.3963 99 32.8853 99H152.25C152.739 99 153.136 99.3963 153.136 99.8853C153.136 100.374 152.739 100.771 152.25 100.771H32.8853C32.3963 100.771 32 100.374 32 99.8853Z" fill="var(--clr-core-ntrl-50)"/>
<path d="M32 115.885C32 115.396 32.3963 115 32.8853 115H152.25C152.739 115 153.136 115.396 153.136 115.885C153.136 116.374 152.739 116.771 152.25 116.771H32.8853C32.3963 116.771 32 116.374 32 115.885Z" fill="var(--clr-core-ntrl-50)"/>
<path d="M32 131.885C32 131.396 32.3963 131 32.8853 131H102.25C102.739 131 103.136 131.396 103.136 131.885C103.136 132.374 102.739 132.771 102.25 132.771H32.8853C32.3963 132.771 32 132.374 32 131.885Z" fill="var(--clr-core-ntrl-50)"/>
<path d="M32 147.885C32 147.396 32.3963 147 32.8853 147H152.25C152.739 147 153.136 147.396 153.136 147.885C153.136 148.374 152.739 148.771 152.25 148.771H32.8853C32.3963 148.771 32 148.374 32 147.885Z" fill="var(--clr-core-ntrl-50)"/>
<path d="M32 163.885C32 163.396 32.3963 163 32.8853 163H122.25C122.739 163 123.136 163.396 123.136 163.885C123.136 164.374 122.739 164.771 122.25 164.771H32.8853C32.3963 164.771 32 164.374 32 163.885Z" fill="var(--clr-core-ntrl-50)"/>
<path d="M32 179.885C32 179.396 32.3963 179 32.8853 179H152.25C152.739 179 153.136 179.396 153.136 179.885C153.136 180.374 152.739 180.771 152.25 180.771H32.8853C32.3963 180.771 32 180.374 32 179.885Z" fill="var(--clr-core-ntrl-50)"/>
</g>
<rect x="24" y="139" width="146" height="2" fill="var(--clr-theme-pop-element)"/>
<path d="M23.6 67C23.6 61.8085 27.8085 57.6 33 57.6H161C166.191 57.6 170.4 61.8085 170.4 67V177C170.4 182.191 166.191 186.4 161 186.4H33C27.8085 186.4 23.6 182.191 23.6 177V67Z" stroke="var(--clr-border-2)" stroke-width="1.2"/>
<path d="M23.6 203C23.6 197.809 27.8085 193.6 33 193.6H161C166.191 193.6 170.4 197.809 170.4 203V223.4H23.6V203Z" fill="var(--clr-bg-1)" stroke="var(--clr-border-2)" stroke-width="1.2"/>
<path d="M55.6 100C55.6 94.8085 59.8085 90.6 65 90.6H193C198.191 90.6 202.4 94.8085 202.4 100V110C202.4 115.191 198.191 119.4 193 119.4H65C59.8085 119.4 55.6 115.191 55.6 110V100Z" fill="var(--clr-theme-pop-bg)" stroke="var(--clr-theme-pop-element)" stroke-width="1.2"/>
<rect opacity="0.38" x="66" y="102" width="124.136" height="6.77052" rx="3.38526" fill="var(--clr-theme-pop-element)"/>
<path d="M149.711 130.5H144.118C143.375 130.5 142.749 129.653 142.715 128.91C142.696 128.504 142.633 128.031 142.5 127.5C142 125.5 138.268 122.768 136.5 121C134.5 119 132.5 115 135.5 113C137.9 111.4 139.833 113.667 140.5 115C139 112 136.5 107.167 140 106C143.328 104.891 144.333 108 145 109.5C144.667 107.667 144.8 104 148 104C151.2 104 151.5 107 151.5 109C151.864 107 152.773 104.046 155.5 104.5C158.5 105 158.167 108.167 158 110C158.333 108.667 159.5 106.1 161.5 106.5C164.757 107.151 163.93 112.849 163 117.5C162 122.5 159 124 158.5 126C158.254 126.984 158.374 128.144 158.58 129.086C158.731 129.777 158.23 130.5 157.523 130.5H155.767C155.592 130.5 155.419 130.456 155.273 130.36C154.435 129.803 153.886 128.998 153.406 128.149C153.011 127.451 152.073 127.492 151.736 128.219C151.353 129.044 150.913 129.815 150.237 130.335C150.087 130.45 149.9 130.5 149.711 130.5Z" fill="white" stroke="#AAA5A2" stroke-linecap="round"/>
<path d="M147 116V123" stroke="#AAA5A2" stroke-linecap="round"/>
<path d="M151 116V123" stroke="#AAA5A2" stroke-linecap="round"/>
<path d="M155 116V123" stroke="#AAA5A2" stroke-linecap="round"/>
</svg>
