<svg width="240" height="299" viewBox="0 0 240 299" fill="none" xmlns="http://www.w3.org/2000/svg">
<g clip-path="url(#clip0_1355_111524)">
<rect width="240" height="299" fill="#D6F0EE"/>
<path d="M187.19 147.027L217.73 166.768L179.131 189.053L177.305 152.734L146.764 132.993L185.363 110.707L187.19 147.027Z" fill="var(--clr-core-pop-60)"/>
<path opacity="0.6" d="M79.0738 132.537L73.9746 152.204M73.9746 152.204L68.8754 171.87M73.9746 152.204L98.9008 158.667M73.9746 152.204L49.0484 145.741M73.9746 152.204L98.1109 147.967M73.9746 152.204L49.8383 156.44M73.9746 152.204L82.0217 172.467M73.9746 152.204L65.9275 131.94" stroke="var(--clr-scale-pop-40)" stroke-width="1.2"/>
<path opacity="0.6" d="M234.954 264.814L215.694 214L170.672 243.816L184.387 280" stroke="var(--clr-scale-pop-40)" stroke-width="1.2"/>
<path d="M182.683 244.258L162.865 257.383L188.117 295.512L234.806 264.591L219.354 241.258L192.482 259.055L182.683 244.258Z" fill="var(--clr-bg-1)"/>
<path opacity="0.5" d="M107.909 85.4038L118.478 48.4234C123.243 31.7495 113.589 14.3697 96.9153 9.60438V9.60438C80.2414 4.8391 62.8616 14.4929 58.0963 31.1668L47.5276 68.1472" stroke="var(--clr-core-pop-60)" stroke-width="8.2"/>
<rect x="24.4012" y="56.6802" width="111.573" height="52.4077" transform="rotate(15.9496 24.4012 56.6802)" fill="var(--clr-core-pop-60)"/>
<path d="M84.4996 97.0814L40.7419 77.3037L34.7707 98.1972L82.3711 104.529C82.8158 108.908 85.9959 112.837 90.6556 114.169C96.6866 115.892 102.912 112.612 104.561 106.843C106.21 101.073 102.658 94.9989 96.6269 93.2753C91.9671 91.9435 87.191 93.5987 84.4996 97.0814Z" fill="var(--clr-scale-pop-40)"/>
<path opacity="0.5" fill-rule="evenodd" clip-rule="evenodd" d="M29.0852 121.853L44.867 131.55L27.7781 156.385C27.0785 157.402 27.4577 158.804 28.5746 159.329L56.5242 172.473L47.5477 188.797L22.5052 176.345C10.6316 170.44 6.64104 155.452 14.0069 144.425L29.0852 121.853Z" stroke="var(--clr-core-pop-60)" stroke-width="9"/>
<rect x="131.105" y="213.431" width="39.9254" height="54.332" transform="rotate(18.3499 131.105 213.431)" fill="var(--clr-bg-1)"/>
<rect x="135.647" y="222.498" width="9.21356" height="3.0754" transform="rotate(18.3499 135.647 222.498)" fill="var(--clr-core-pop-60)"/>
<path opacity="0.5" d="M133.388 229.309L153.793 236.077L152.825 238.996L132.42 232.228L133.388 229.309Z" fill="var(--clr-core-pop-50)"/>
<rect opacity="0.4" x="131.129" y="236.12" width="25.5932" height="3.0754" transform="rotate(18.3499 131.129 236.12)" fill="var(--clr-core-pop-50)"/>
<rect x="128.87" y="242.931" width="16.3797" height="3.0754" transform="rotate(18.3499 128.87 242.931)" fill="var(--clr-scale-pop-40)"/>
<rect x="126.611" y="249.742" width="25.5932" height="3.0754" transform="rotate(18.3499 126.611 249.742)" fill="var(--clr-core-pop-60)"/>
<rect x="234.252" y="34.5815" width="63.6965" height="92.3826" transform="rotate(102.873 234.252 34.5815)" fill="var(--clr-bg-1)"/>
<rect x="213.845" y="79.501" width="24.7486" height="3.62742" transform="rotate(-166.495 213.845 79.501)" fill="var(--clr-core-pop-60)"/>
<path opacity="0.5" d="M215.822 71.2715L159.672 57.7859L160.519 54.2588L216.669 67.7444L215.822 71.2715Z" fill="var(--clr-core-pop-50)"/>
<rect opacity="0.4" x="217.799" y="63.041" width="68.7461" height="3.62742" transform="rotate(-166.495 217.799 63.041)" fill="var(--clr-core-pop-50)"/>
<rect x="219.775" y="54.811" width="43.9975" height="3.62742" transform="rotate(-166.495 219.775 54.811)" fill="var(--clr-scale-pop-40)"/>
<rect x="221.752" y="46.5811" width="68.7461" height="3.62742" transform="rotate(-166.495 221.752 46.5811)" fill="var(--clr-core-pop-60)"/>
<path opacity="0.6" d="M131.687 151.3L132.118 151.051L131.953 150.581C123.418 126.263 127.74 103.338 144.211 93.8289C154.905 87.6547 168.823 88.2042 182.74 94.2184C196.649 100.229 210.48 111.672 220.91 127.135C231.341 142.599 236.364 159.11 236.088 173.284C235.812 187.458 230.248 199.235 219.568 205.401C202.902 215.023 178.375 208.292 158.399 190.115L158.075 189.82L157.695 190.04L101.935 222.233L101.415 222.533L101.715 223.053L109.374 236.318L96.628 243.677L88.969 230.412L88.669 229.892L88.1494 230.192L79.8782 234.967L79.3586 235.267L79.6586 235.787L87.3176 249.053L74.5714 256.412L66.9124 243.146L66.6124 242.627L66.0928 242.927L55.0644 249.294L54.5448 249.594L54.8448 250.113L70.4628 277.165L45.7693 291.421L6.57424 223.534L131.687 151.3Z" stroke="var(--clr-scale-pop-40)" stroke-width="1.2"/>
</g>
<defs>
<clipPath id="clip0_1355_111524">
<rect width="240" height="299" fill="var(--clr-bg-1)"/>
</clipPath>
</defs>
</svg>
