<svg width="100%" height="100%" viewBox="0 0 100 80" fill="none" xmlns="http://www.w3.org/2000/svg">
  <path fill-rule="evenodd" clip-rule="evenodd"
    d="M68.7826 21.5215C63.3798 21.5215 59 25.9013 59 31.3041C59 35.7844 62.0118 39.5612 66.1212 40.7203L62.2609 58.478H80.7391L76.8788 40.7203C80.9882 39.5612 84 35.7844 84 31.3041C84 25.9013 79.6202 21.5215 74.2174 21.5215H68.7826Z"
    fill="var(--clr-art-scene-outline)" />
  <path
    d="M24.5 22.4004C30.0781 22.4004 34.5996 26.9219 34.5996 32.5V35.9004H54.0996V51.5996H46.9004V43.0996H45.0996V51.5996H37.9004V43.0996H34.5996V47.5C34.5996 53.0781 30.0781 57.5996 24.5 57.5996C18.9219 57.5996 14.4004 53.0781 14.4004 47.5V32.5C14.4004 26.9219 18.9219 22.4004 24.5 22.4004ZM24.5 29.5996C22.8984 29.5996 21.5996 30.8984 21.5996 32.5V47.5C21.5996 49.1016 22.8984 50.4004 24.5 50.4004C26.1016 50.4004 27.4004 49.1016 27.4004 47.5V32.5C27.4004 30.8984 26.1016 29.5996 24.5 29.5996Z"
    fill="var(--clr-art-scene-fill)" stroke="var(--clr-art-scene-outline)" stroke-width="1.2" />
</svg>