<svg xmlns="http://www.w3.org/2000/svg" width="404" height="158" viewBox="0 0 404 158" fill="none">
  <g clip-path="url(#clip0_10607_18926)">
    <path
      d="M250 137.911L192.871 98.2833C182.978 91.4209 180.695 77.7485 187.823 68.0445V68.0445C194.537 58.9037 207.218 56.5922 216.726 62.7763L285.709 107.647"
      stroke="var(--clr-theme-pop-element)" stroke-width="1.2" />
    <path
      d="M340 122.499L341.5 129.499L344 129.499L342.5 142.499L349 143.499L351.5 134.499L356.5 137.916L361.5 128.999L355.5 115.499L350.5 126.499C347.167 125.166 340 122.499 340 122.499Z"
      fill="var(--clr-scale-pop-60)" />
    <path
      d="M366 117.999L373.5 101.499L374.547 108.999L383 103.999L377.5 120.499L375.5 113.999L366 117.999Z"
      fill="var(--clr-scale-pop-60)" />
    <path
      d="M250.5 60.4992L245.5 66.9992L223.5 49.4991L245.5 56.4991L236.501 30.4992L256.501 48.4992L264 29.4993L268.5 46.4993L279.001 33.4993L272.001 64.9993L267 57.9992L263 63.9992L250.5 60.4992Z"
      fill="var(--clr-scale-pop-60)" />
    <path
      d="M342.5 75.499C342.5 75.999 340 48.999 340 48.499L345 40.499L347 52.999L360 42.999L357 58.999L369.5 59.999L356.5 75.499L351.5 75.999L350 66.999C350 66.999 342.5 74.999 342.5 75.499Z"
      fill="var(--clr-scale-pop-60)" />
    <path
      d="M338.998 115.5C354.804 95.4208 386.579 84.2393 392.546 93.9175C398.514 103.596 383.031 127.283 374.544 137.916C382.279 132.899 392.997 127.5 399.497 135C405.997 142.5 391.551 169.118 380.727 182.129M351.997 162C355.497 157 363.997 147.062 369.497 150.5C372.697 152.5 369.997 161.666 368.497 166"
      stroke="var(--clr-theme-pop-element)" stroke-width="1.2" />
    <path
      d="M338.783 184.5L343.891 129.843L259.323 129.843M290.54 129.273L285.431 64.9156L292.81 51.2513M320.053 101.945L317.783 61.4995L308.986 49.5433M320.053 101.945L328.567 80.3097M320.053 101.945L317.783 108.018M309.837 129.273L317.783 108.018M328.567 80.3097L331.404 42.7331L337.648 51.8426L345.026 40.4557L347.296 53.5506L360.35 42.7331L356.945 59.244L369.999 59.8134L347.296 86.0032M328.567 80.3097L341.5 84.2412M347.296 86.0032L338.783 116.91M347.296 86.0032L341.5 84.2412M335.377 129.273L338.783 116.91M270.107 73.4776L284.864 129.273M270.107 73.4776L256.486 75.755M270.107 73.4776L279.188 31.9156L268.404 46.7185L263.864 28.4995L256.486 48.9959L236.053 30.2075L245.702 56.9667L222.999 48.9959L256.486 75.755M256.486 75.755L261.594 129.273M292.81 51.2513L300.188 37.5871L308.986 49.5433M292.81 51.2513C296.031 53.3195 303.775 55.8732 308.986 49.5433M332.999 140L330.999 167.5M315.837 140L314.837 166.5M317.783 108.018L331.851 113.549M338.783 116.91L331.851 113.549M341.5 84.2412L331.851 113.549M308 64.9156L311 105.5M295.81 66.9995L297 80.4995"
      stroke="var(--clr-theme-pop-element)" stroke-width="1.2" />
    <path
      d="M172.244 30.3368C165.09 37.8882 163.847 42.9369 167.217 53.4226C160.417 46.0453 155.783 43.7732 144.819 45.9002C152.701 38.3265 153.607 33.3919 149.846 22.8144C157.611 31.414 162.494 32.9215 172.244 30.3368Z"
      stroke="var(--clr-theme-pop-element)" stroke-width="1.2" />
    <path
      d="M48.0511 4.18396C38.1772 4.62106 30.5026 12.9379 30.8588 22.8151L31.3328 35.9572C31.5382 41.6519 28.9079 47.0782 24.3102 50.4447V50.4447C19.7438 53.7883 17.1161 59.1657 17.2841 64.8229L17.3998 68.7208C17.6977 78.7514 26.1404 86.6015 36.1662 86.1698L104.251 83.2382C114.335 82.804 122.091 74.1643 121.439 64.0919L118.501 18.7151C117.868 8.93765 109.531 1.46234 99.7425 1.89566L48.0511 4.18396Z"
      fill="var(--clr-illustration-fill)" stroke="var(--clr-illustration-outline)"
      stroke-width="1.2" />
    <path
      d="M34.9403 60.9043L26.425 58.7419M35.1953 65.0648L26.68 62.9024M35.4502 69.2233L26.9349 67.0609"
      stroke="var(--clr-illustration-outline)" stroke-width="1.2" />
    <rect opacity="0.22" width="58.5996" height="65.674" rx="10"
      transform="matrix(-0.998868 0.0475678 0.0475678 0.998868 112.006 6.83789)"
      fill="var(--clr-illustration-outline)" />
    <path
      d="M82.1303 38.0273C82.7959 49.259 82.6651 61.5059 72.3662 62.8038C62.0674 64.1018 61.4084 49.7197 60.3983 38.4729C59.3882 27.2261 59.4976 14.6282 70.1914 14.3978C80.8851 14.1674 81.4646 26.7956 82.1303 38.0273Z"
      fill="var(--clr-illustration-fill)" stroke="var(--clr-illustration-outline)"
      stroke-width="1.2" />
    <path
      d="M60.0172 29.1919C59.9301 32.1982 60.1209 35.3861 60.398 38.4724C61.4081 49.7191 62.0673 64.1019 72.3659 62.8042C74.0124 62.5967 75.3979 62.1067 76.563 61.3884L75.1308 29.2058L60.0172 29.1919Z"
      fill="var(--clr-illustration-outline)" />
    <path
      d="M108.732 37.0302C109.397 48.2619 109.267 60.5088 98.9678 61.8068C88.669 63.1047 88.0099 48.7226 86.9999 37.4758C85.9898 26.229 86.0992 13.6311 96.7929 13.4007C107.487 13.1704 108.066 25.7985 108.732 37.0302Z"
      fill="var(--clr-illustration-fill)" stroke="var(--clr-illustration-outline)"
      stroke-width="1.2" />
    <path
      d="M86.6187 28.1948C86.5317 31.2013 86.7224 34.3897 86.9996 37.4763C88.0096 48.7229 88.669 63.1046 98.9674 61.8071C100.614 61.5995 102 61.1107 103.165 60.3923L101.732 28.2087L86.6187 28.1948Z"
      fill="var(--clr-illustration-outline)" />
    <path
      d="M97.5727 64.6807L98.2 78.343L87.3169 75.3017L77.1553 79.5841L76.2832 66.1762L87.368 69.2067L97.5727 64.6807Z"
      fill="var(--clr-illustration-outline)" />
    <path
      d="M64.9671 84.9209V84.9209C57.069 85.2898 50.3654 79.1902 49.9892 71.2924L47.3752 16.4262C47.0518 9.63819 52.3597 3.90516 59.1525 3.70558V3.70558"
      stroke="var(--clr-illustration-outline)" stroke-width="1.2" />
    <path
      d="M22.999 73.2158H285.509C296.223 73.2158 304.909 81.9019 304.909 92.6162V166.4H3.59863V92.6162L3.60547 92.1152C3.87118 81.6324 12.4522 73.2158 22.999 73.2158Z"
      fill="var(--clr-illustration-fill)" stroke="var(--clr-illustration-outline)"
      stroke-width="1.2" />
    <path
      d="M13.9551 104.489H65.7483M13.9551 120.426H65.7483M13.9551 136.362H65.7483M13.9551 152.298H65.7483"
      stroke="var(--clr-illustration-outline)" stroke-width="1.2" />
    <rect x="13.308" y="82.9262" width="52.2032" height="133.764" rx="9.4"
      stroke="var(--clr-illustration-outline)" stroke-width="1.2" />
    <path
      d="M191.905 82.9258H285.799C290.99 82.9258 295.198 87.1347 295.198 92.3262V207.291C295.198 212.482 290.99 216.69 285.799 216.69H191.905C186.714 216.69 182.505 212.482 182.505 207.291V92.3262C182.505 87.1347 186.714 82.9258 191.905 82.9258Z"
      fill="var(--clr-illustration-fill)" stroke="var(--clr-illustration-outline)"
      stroke-width="1.2" />
    <path d="M246.873 82.3262V217.291" stroke="var(--clr-illustration-outline)" />
    <path
      d="M254.612 118.194H295.799M254.612 132.758H295.799M254.612 147.323H295.799M254.612 161.887H295.799"
      stroke="var(--clr-illustration-outline)" stroke-width="1.2" />
    <path d="M295 91.0068H260.612C257.299 91.0068 254.612 93.6931 254.612 97.0068V176.452"
      stroke="var(--clr-illustration-outline)" stroke-width="1.2" />
    <rect x="264.322" y="102.658" width="31.4774" height="4.85483"
      fill="var(--clr-illustration-outline)" />
    <path
      d="M239.134 176.452V97.0068C239.134 93.6931 236.447 91.0068 233.134 91.0068H195.614C192.301 91.0068 189.614 93.6931 189.614 97.0068V176.452"
      stroke="var(--clr-illustration-outline)" stroke-width="1.2" />
    <path
      d="M189.614 118.194H239.134M189.614 132.758H239.134M189.614 147.323H239.134M189.614 161.887H239.134"
      stroke="var(--clr-illustration-outline)" stroke-width="1.2" />
    <rect x="199.324" y="102.659" width="30.1" height="4.85483"
      fill="var(--clr-illustration-outline)" />
    <path opacity="0.18"
      d="M73.999 92C73.999 86.4772 78.4762 82 83.999 82H163.999C169.522 82 173.999 86.4772 173.999 92V207C173.999 212.523 169.522 217 163.999 217H83.999C78.4762 217 73.999 212.523 73.999 207V92Z"
      fill="var(--clr-illustration-outline)" />
    <rect x="82.999" y="90" width="6" height="5" rx="2.5" fill="var(--clr-illustration-outline)" />
    <rect x="92.999" y="90" width="15" height="5" fill="var(--clr-illustration-outline)" />
    <path
      d="M33.999 73.689C37.9818 67.5726 44.6474 66.0038 50.5632 68.0262C55.7004 65.5807 59.2396 65.0801 63.9722 68.0262C75.4094 65.1949 81.3251 79.3517 79.7476 87.8458C78.4931 94.6005 72.7801 94.4523 70.6768 91.4861C69.593 94.3175 64.3666 95.8206 61.2115 91.8906C60.4228 95.0116 55.2958 97.9578 50.5632 94.3175C45.9296 90.7533 45.8305 78.4079 46.2249 73.689H33.999Z"
      fill="var(--clr-illustration-fill)" />
    <path
      d="M50.5632 68.0262C44.6474 66.0038 37.9818 67.5726 33.999 73.689H46.2249C45.8305 78.4079 45.9296 90.7533 50.5632 94.3175C55.2958 97.9578 60.4228 95.0116 61.2115 91.8906M50.5632 68.0262C55.7004 65.5807 59.2396 65.0801 63.9722 68.0262M50.5632 68.0262C61.2115 72.7652 62.365 87.3265 61.2115 91.8906M63.9722 68.0262C75.4094 65.1949 81.3251 79.3517 79.7476 87.8458C78.4931 94.6005 72.7801 94.4523 70.6768 91.4861M63.9722 68.0262C70.6768 73.1697 73.0431 85.3041 70.6768 91.4861M70.6768 91.4861C69.593 94.3175 64.3666 95.8206 61.2115 91.8906"
      stroke="var(--clr-illustration-outline)" stroke-width="1.2" />
    <path
      d="M92.8877 73.6472C96.8802 67.564 103.562 66.0038 109.492 68.0152C114.642 65.5829 118.19 65.0851 122.934 68.0152C134.399 65.1992 140.329 79.2791 138.747 87.727C137.49 94.445 131.763 94.2976 129.654 91.3476C128.568 94.1635 123.329 95.6585 120.166 91.7498C119.376 94.8539 114.236 97.7841 109.492 94.1635C104.847 90.6188 104.748 78.3405 105.143 73.6472H92.8877Z"
      fill="var(--clr-illustration-fill)" />
    <path
      d="M109.492 68.0152C103.562 66.0038 96.8802 67.564 92.8877 73.6472H105.143C104.748 78.3405 104.847 90.6188 109.492 94.1635C114.236 97.7841 119.376 94.8539 120.166 91.7498M109.492 68.0152C114.642 65.5829 118.19 65.0851 122.934 68.0152M109.492 68.0152C120.166 72.7284 121.322 87.2106 120.166 91.7498M122.934 68.0152C134.399 65.1992 140.329 79.2791 138.747 87.727C137.49 94.445 131.763 94.2976 129.654 91.3476M122.934 68.0152C129.654 73.1307 132.026 85.1992 129.654 91.3476M129.654 91.3476C128.568 94.1635 123.329 95.6585 120.166 91.7498"
      stroke="var(--clr-illustration-outline)" stroke-width="1.2" />
    <path
      d="M87.999 102.6H160.999C163.981 102.6 166.399 105.018 166.399 108V131C166.399 133.982 163.981 136.4 160.999 136.4H87.999C85.0167 136.4 82.5986 133.982 82.5986 131V108C82.5986 105.018 85.0167 102.6 87.999 102.6Z"
      fill="var(--clr-illustration-fill)" stroke="var(--clr-illustration-outline)"
      stroke-width="1.2" />
    <path d="M92.999 102V137" stroke="var(--clr-illustration-outline)" stroke-width="1.2" />
    <rect x="87.999" y="118" width="5" height="3" fill="var(--clr-illustration-outline)" />
    <rect x="87.999" y="111" width="5" height="3" fill="var(--clr-illustration-outline)" />
    <rect x="87.999" y="125" width="5" height="3" fill="var(--clr-illustration-outline)" />
    <rect x="100.999" y="111" width="56" height="3" fill="var(--clr-illustration-outline)" />
    <rect x="100.999" y="118" width="28" height="3" fill="var(--clr-illustration-outline)" />
    <rect x="100.999" y="125" width="39" height="3" fill="var(--clr-illustration-outline)" />
    <path
      d="M87.999 145.6H160.999C163.981 145.6 166.399 148.018 166.399 151V174C166.399 176.982 163.981 179.4 160.999 179.4H87.999C85.0167 179.4 82.5986 176.982 82.5986 174V151C82.5986 148.018 85.0167 145.6 87.999 145.6Z"
      fill="var(--clr-illustration-fill)" stroke="var(--clr-illustration-outline)"
      stroke-width="1.2" />
    <path d="M92.999 145V180" stroke="var(--clr-illustration-outline)" stroke-width="1.2" />
    <rect x="87.999" y="154" width="5" height="3" fill="var(--clr-illustration-outline)" />
    <rect x="100.999" y="154" width="56" height="3" fill="var(--clr-illustration-outline)" />
    <path
      d="M187.259 42.9828C190.859 34.8254 190.89 31.0104 186.964 25.8417C192.698 27.4278 196.168 26.7404 203.187 20.2995C199.102 28.8085 199.278 32.3942 203.482 37.4406C196.906 35.5172 193.39 36.8106 187.259 42.9828Z"
      fill="var(--clr-scale-pop-60)" />
  </g>
</svg>