<svg width="100%" height="100%" viewBox="0 0 400 400" fill="none" xmlns="http://www.w3.org/2000/svg">
<ellipse opacity="0.12" cx="199.59" cy="387.068" rx="132.59" ry="9.93566" fill="#475050"/>
<path fill-rule="evenodd" clip-rule="evenodd" d="M157.255 213.229C158.433 216.825 156.472 220.695 152.876 221.873C147.762 223.547 142.682 225.316 137.865 226.992C131.961 229.048 126.454 230.965 121.769 232.401C117.353 233.755 113.146 234.858 109.326 235.425C105.579 235.982 101.63 236.118 97.9947 235.048C94.0493 233.888 90.7797 231.387 88.7595 227.462C86.8963 223.843 86.3607 219.529 86.5045 214.98C86.7906 205.934 89.8998 193.153 95.6378 175.822L108.648 180.129C102.936 197.379 100.42 208.519 100.202 215.413C100.094 218.834 100.587 220.495 100.944 221.19C101.145 221.58 101.289 221.733 101.862 221.901C102.744 222.161 104.418 222.3 107.312 221.87C110.132 221.451 113.582 220.577 117.752 219.299C122.417 217.869 127.372 216.138 132.907 214.206C137.655 212.549 142.83 210.742 148.611 208.849C152.208 207.671 156.078 209.632 157.255 213.229Z" fill="#475050"/>
<path d="M204.217 386.723H203.306H102.579C106.89 364.234 143.047 339.243 171.913 339.243L195.426 226.039L206.732 227.752L219.066 230.15L235.856 339.514C257.069 339.514 295.729 354.565 303.348 386.723H204.217Z" fill="#FCFCF1"/>
<path d="M203.306 386.723H303.348C295.729 354.565 257.069 339.514 235.856 339.514L219.066 230.15L206.732 227.752M206.732 227.752L204.217 386.723H102.579C106.89 364.234 143.047 339.243 171.913 339.243L195.426 226.039L206.732 227.752Z" stroke="#475050" stroke-width="1.2"/>
<path d="M268.964 125.61C270.028 125.805 271.073 126.095 272.085 126.478L289 132.869C297.001 135.892 301.77 144.127 300.409 152.571L290.962 211.193C290.155 216.2 291.497 221.315 294.659 225.28L298.289 229.832C301.085 233.337 302.12 237.931 301.099 242.297C299.312 249.934 291.825 254.807 284.119 253.349L150.127 228.002C140.328 226.149 133.904 216.681 135.802 206.89L152.193 122.346C154.071 112.659 163.398 106.29 173.104 108.066L268.964 125.61Z" fill="#FCFCF1" stroke="#475050" stroke-width="1.2"/>
<path d="M236.809 244.2V244.2C244.784 245.703 252.441 240.375 253.805 232.375L268.918 143.733C270.543 134.203 264.35 125.092 254.891 123.096L254.012 122.91" stroke="#475050" stroke-width="1.2"/>
<rect opacity="0.13" x="162.368" y="115.594" width="100.912" height="100.863" rx="7.86364" transform="rotate(10.5121 162.368 115.594)" fill="#475050"/>
<rect opacity="0.2" width="9.9403" height="26.5802" transform="matrix(-0.985001 -0.172547 -0.172547 0.985001 200.751 186.181)" fill="#475050"/>
<rect opacity="0.7" width="9.9403" height="18.7625" transform="matrix(-0.985001 -0.172547 -0.172547 0.985001 189.611 192.167)" fill="#475050"/>
<rect opacity="0.2" width="9.9403" height="10.9448" transform="matrix(-0.985001 -0.172547 -0.172547 0.985001 178.471 198.152)" fill="#475050"/>
<rect opacity="0.4" width="9.9403" height="39.0886" transform="matrix(-0.985001 -0.172547 -0.172547 0.985001 173.536 168.715)" fill="#475050"/>
<path d="M175.298 226.469L172.46 240.879L186.539 237.685L198.092 245.876L201.192 231.779L187 233.994L175.298 226.469Z" fill="#475050"/>
<circle opacity="0.3" cx="228.968" cy="155.219" r="17.6051" fill="#475050"/>
<path d="M239.527 169.471C242.292 167.384 244.377 164.524 245.517 161.253C246.657 157.981 246.801 154.445 245.932 151.091C245.062 147.738 243.217 144.717 240.631 142.412C238.045 140.107 234.833 138.62 231.402 138.141L228.976 155.489L239.527 169.471Z" fill="#475050"/>
<path d="M213.034 183.488L233.388 186.996C235.359 187.335 236.683 189.209 236.343 191.181V191.181C236.003 193.153 234.129 194.476 232.157 194.136L215.698 191.3C213.547 190.93 211.503 192.373 211.132 194.524V194.524C210.762 196.675 212.205 198.72 214.356 199.09L230.815 201.927C232.787 202.266 234.11 204.14 233.77 206.112V206.112C233.43 208.084 231.556 209.407 229.584 209.067L212.801 206.175C210.829 205.836 208.955 207.159 208.615 209.131V209.131C208.275 211.103 209.599 212.977 211.57 213.316L231.924 216.824" stroke="#475050" stroke-width="2"/>
<rect x="211.416" y="179.957" width="7.47705" height="6.04684" transform="rotate(9.08743 211.416 179.957)" fill="#475050"/>
<rect x="226.179" y="213.342" width="7.9832" height="5.77427" transform="rotate(9.08743 226.179 213.342)" fill="#475050"/>
<rect x="216.259" y="196.758" width="5.77427" height="5.77427" transform="rotate(9.08743 216.259 196.758)" fill="#475050"/>
<path d="M170.332 131.047L203.915 137.287" stroke="#475050" stroke-width="3"/>
<path d="M169.113 137.604L188.003 141.114" stroke="#475050" stroke-width="3"/>
<path d="M166.677 150.717L176.122 152.472" stroke="#475050" stroke-width="3"/>
<path d="M167.895 144.16L196.231 149.425" stroke="#475050" stroke-width="3"/>
<path d="M89.7244 177.684C86.9436 175.28 88.8554 172.533 90.1589 171.246C88.8554 170.816 85.9587 169.529 84.9449 166.524C83.2069 161.373 85.8139 156.651 88.1898 153.217C77.7618 153.647 81.0343 135.189 86.6828 129.18C91.0171 124.569 95.8075 124.887 100.153 128.321C105.801 121.883 114.057 126.968 116.229 132.119C122.312 107.652 134.739 97.7593 139.258 100.85C143.777 103.94 132.306 129.895 126.657 141.628C131.437 142.916 134.478 146.35 134.478 151.071C134.478 162.232 124.485 172.104 116.229 173.821C117.533 175.538 117.369 177.846 115.795 179.401C111.45 183.694 93.2004 180.689 89.7244 177.684Z" fill="#FCFCF1"/>
<path d="M90.1589 171.246C88.8554 172.533 86.9436 175.28 89.7244 177.684C93.2004 180.689 111.45 183.694 115.795 179.401C117.369 177.846 117.533 175.538 116.229 173.821M90.1589 171.246C88.8554 170.816 85.9587 169.529 84.9449 166.524C83.2069 161.373 85.8139 156.651 88.1898 153.217M90.1589 171.246L96.242 172.533M116.229 173.821C124.485 172.104 134.478 162.232 134.478 151.071C134.478 146.35 131.437 142.916 126.657 141.628M116.229 173.821H110.309M126.657 141.628C132.306 129.895 143.777 103.94 139.258 100.85C134.739 97.7593 122.312 107.652 116.229 132.119C114.057 126.968 105.801 121.883 100.153 128.321M126.657 141.628C119.271 141.199 105.278 142.86 101.456 145.062C96.242 148.067 97.98 154.934 103.629 156.651C108.147 158.025 116.808 155.507 120.574 154.076C114.491 155.936 101.63 160.6 98.849 164.378M100.153 128.321C95.8075 124.887 91.0171 124.569 86.6828 129.18C81.0343 135.189 77.7618 153.647 88.1898 153.217M100.153 128.321C95.8075 131.755 89.6375 144.633 92.7659 149.784C94.0694 151.93 97.1147 151.93 98.4182 151.071M88.1898 153.217C89.2793 153.074 91.6736 152.101 92.5349 149.354M108.843 142.486L109.712 135.189" stroke="#475050" stroke-width="1.2"/>
<path fill-rule="evenodd" clip-rule="evenodd" d="M273.102 194.595C275.426 191.608 279.732 191.071 282.718 193.395C287.377 197.02 293.458 200.535 300.053 204.347C301.192 205.006 302.346 205.673 303.512 206.351C310.984 210.701 319.152 215.642 324.447 221.221C327.153 224.072 329.604 227.587 330.542 231.801C331.538 236.274 330.65 240.732 328.072 244.855C325.621 248.777 321.711 252.313 316.662 255.64C311.562 259.001 304.923 262.392 296.57 265.877L291.293 253.23C299.179 249.939 304.979 246.927 309.121 244.197C313.315 241.434 315.45 239.193 316.452 237.591C317.327 236.191 317.299 235.379 317.165 234.778C316.974 233.917 316.306 232.55 314.507 230.655C310.794 226.743 304.41 222.732 296.617 218.195C295.552 217.575 294.461 216.946 293.356 216.308C286.828 212.54 279.775 208.47 274.302 204.21C271.315 201.886 270.778 197.581 273.102 194.595Z" fill="#475050"/>
<path d="M292.025 248.847C289.573 246.861 285.821 246.975 284.081 248.72C279.473 242.595 263.873 247.357 254.55 256.987C246.012 265.807 248.378 276.019 253.676 277.265C252.918 282.631 256.2 287.573 261.429 289.307C262.622 294.949 266.53 298.985 273.36 299.95C281.41 301.087 292.508 291.21 295.218 286.12C297.386 282.047 292.63 279.783 289.565 280.345C290.748 279.019 291.092 276.58 291.44 274.122C292.831 274.836 295.564 275.64 297.148 272.46C300.621 265.486 296.49 252.463 292.025 248.847Z" fill="#FCFCF1"/>
<path d="M284.081 248.72C285.821 246.975 289.573 246.861 292.025 248.847C296.49 252.463 300.621 265.486 297.148 272.46C295.564 275.64 292.831 274.836 291.44 274.122M284.081 248.72C279.473 242.595 263.873 247.357 254.55 256.987C246.012 265.807 248.378 276.019 253.676 277.265M284.081 248.72L286.038 252.479M291.44 274.122C291.092 276.58 290.748 279.019 289.565 280.345M291.44 274.122C291.621 271.666 291.521 265.793 289.676 261.95M289.565 280.345C292.63 279.783 297.386 282.047 295.218 286.12C292.508 291.21 281.41 301.087 273.36 299.95C266.53 298.985 262.622 294.949 261.429 289.307M289.565 280.345C287.292 282.346 281.742 286.405 277.729 286.635M261.429 289.307C256.2 287.573 252.918 282.631 253.676 277.265M261.429 289.307C261.473 287.821 261.95 284.206 263.507 281.639M253.676 277.265C253.814 276.289 254.646 273.919 256.873 272.243M276.52 270.541L271.021 274.242M274.77 265.317L266.832 268.674M272.044 259.956L264.732 262.406" stroke="#475050" stroke-width="1.2"/>
<path d="M215.947 87.2089L212.533 104.121L239.547 109.564L243.003 92.4459C243.499 89.9896 245.892 88.4 248.348 88.895C261.851 91.6157 275.004 82.5928 277.547 69.0557C280.078 55.5772 271.341 42.3907 257.897 39.6818L221.388 32.3253C207.691 29.5654 194.382 38.5375 191.803 52.2695C189.271 65.7479 198.042 78.7584 211.486 81.4673L212.233 81.6178C214.803 82.1356 216.466 84.6392 215.947 87.2089Z" fill="#FCFCF1" stroke="#475050" stroke-width="1.2"/>
<path d="M216.381 84.2442L243.899 88.8051L214.785 91.2506L242.318 95.2351L213.674 97.6504L241.207 101.635L212.563 104.05L240.096 108.035" stroke="#475050" stroke-width="1.2"/>
<path d="M219.271 63.8942C219.218 63.9267 219.164 63.9587 219.109 63.9903C219.177 64.3337 219.271 64.6673 219.394 64.9878C220.121 66.8821 222.567 67.5627 224.391 67.6754C226.334 67.7953 228.099 67.1587 229.652 66.1243C229.244 65.428 228.994 64.6223 228.957 63.7369C228.798 59.9395 231.077 56.4694 233.774 53.9729C234.623 53.1874 236.468 51.5192 237.822 51.8857C238.756 52.1387 238.397 53.5438 238.239 54.1444C237.15 58.2851 234.298 62.139 231.139 64.9663C230.668 65.3879 230.172 65.7784 229.652 66.1243C230.645 67.816 232.578 68.8615 234.689 68.8334C237.06 68.8018 239.423 67.6747 241.466 66.1546C240.968 63.1564 241.84 59.8017 243.237 57.3038C243.75 56.3854 247.435 50.7065 249.07 52.4433C250.059 53.4948 248.761 56.4175 248.342 57.4325C247.57 59.3044 246.48 61.0656 245.181 62.6218C244.172 63.8314 242.898 65.0894 241.466 66.1546C239.423 67.6747 237.06 68.8018 234.689 68.8334C232.578 68.8615 230.645 67.816 229.652 66.1243C228.099 67.1587 226.334 67.7953 224.391 67.6754C222.567 67.5627 220.121 66.8821 219.394 64.9878C219.271 64.6673 219.177 64.3337 219.109 63.9903C218.608 61.465 219.495 58.4109 220.323 56.1602C220.841 54.7527 221.65 53.4425 222.642 52.3146C222.962 51.95 224.618 50.0197 225.277 50.8993C225.718 51.4883 225.428 52.8236 225.306 53.444C224.866 55.6758 223.888 57.8825 222.814 59.8771C221.948 61.4862 220.859 62.9298 219.271 63.8942Z" fill="#FCFCF1"/>
<path d="M208.412 61.3066C208.471 62.6425 209.348 63.6558 210.472 64.3373C213.041 65.8956 216.788 65.4023 219.271 63.8942C220.859 62.9298 221.948 61.4862 222.814 59.8771C223.888 57.8825 224.866 55.6758 225.306 53.444C225.428 52.8236 225.718 51.4883 225.277 50.8993C224.618 50.0197 222.962 51.95 222.642 52.3146C221.65 53.4425 220.841 54.7527 220.323 56.1602C219.382 58.717 218.366 62.3104 219.394 64.9878C220.121 66.8821 222.567 67.5627 224.391 67.6754C226.983 67.8354 229.259 66.6482 231.139 64.9663C234.298 62.139 237.15 58.2851 238.239 54.1444C238.397 53.5438 238.756 52.1387 237.822 51.8857C236.468 51.5192 234.623 53.1874 233.774 53.9729C231.077 56.4694 228.798 59.9395 228.957 63.7369C229.084 66.7734 231.709 68.8731 234.689 68.8334C238.722 68.7796 242.731 65.5576 245.181 62.6218C246.48 61.0656 247.57 59.3044 248.342 57.4325C248.761 56.4175 250.059 53.4948 249.07 52.4433C247.435 50.7065 243.751 56.3854 243.237 57.3038C241.243 60.8682 240.319 66.1771 242.92 69.7054C245.06 72.6092 249.329 70.7106 251.849 69.4409C256.115 67.2921 258.979 63.9381 261.686 60.1487" stroke="#475050" stroke-width="1.2"/>
<path d="M231.312 73.5742L228.976 86.1917" stroke="#475050" stroke-width="1.2"/>
<path d="M272.147 110.642L269.643 99.6692M304.702 82.9481L286.672 76.6776M304.702 32.262L278.658 36.9649M252.114 3L241.596 22.8564M193.015 5.61268L199.025 22.8564M181.495 55.7762H157.455M181.495 90.2636L193.015 82.9481" stroke="#FCFCF1" stroke-width="2"/>
</svg>
