<svg width="685" height="181" viewBox="0 0 685 181" fill="none" xmlns="http://www.w3.org/2000/svg">
<path d="M253.751 140.778C226.301 140.778 212.815 119.111 212.815 91.5779C212.815 62.6083 227.972 41.1804 253.154 41.1804C261.627 41.1804 268.311 43.4549 274.636 48.8418C276.426 50.5177 277.858 50.0389 278.097 47.7644L278.694 42.2578H281.558L283.11 76.1354H280.365C277.023 56.8623 268.788 46.4476 255.183 46.4476C237.162 46.4476 227.375 64.8828 227.375 90.0217C227.375 115.52 237.042 135.032 255.541 135.032C264.492 135.032 270.698 130.005 273.681 125.336V101.753C273.681 94.4509 270.817 92.2962 251.364 92.2962V89.4231H293.612V92.2962C287.167 92.2962 286.212 94.0918 286.212 101.753V124.737C279.41 134.434 267.953 140.778 253.751 140.778Z" fill="black"/>
<path d="M310.172 61.5309C305.637 61.5309 302.415 58.4184 302.415 54.2286C302.415 49.9191 305.637 46.8067 310.172 46.8067C314.588 46.8067 317.81 49.9191 317.81 54.2286C317.81 58.4184 314.588 61.5309 310.172 61.5309ZM316.855 74.8186V126.533C316.855 134.194 318.049 135.99 325.329 135.99V138.863H296.925V135.99C304.205 135.99 305.398 134.194 305.398 126.533V89.6625C305.398 81.642 305.279 79.9661 298.357 82.8391L297.283 80.0858L314.826 73.023L316.855 74.8186Z" fill="black"/>
<path d="M361.07 112.048H364.412C364.412 130.723 360.712 140.778 349.016 140.778C339.707 140.778 334.814 135.152 334.814 118.393V80.3253H326.46V75.896C335.172 75.6566 340.662 69.1923 341.856 57.9397H346.152V75.4172H360.473V80.3253H346.391V115.28C346.391 125.934 347.465 132.997 353.074 132.997C358.445 132.997 361.07 126.294 361.07 112.048Z" fill="black"/>
<path d="M402.52 138.863H366.359V135.99C377.458 135.99 379.009 133.835 379.009 126.533V55.4258C379.009 48.1235 377.458 45.9688 366.359 45.9688V43.0958H403.714C421.138 43.0958 432.714 50.7571 432.714 66.7982C432.714 80.0859 424.002 87.867 412.426 89.3035V89.902C427.344 90.8597 437.13 100.197 437.13 113.126C437.13 132.04 421.615 138.863 402.52 138.863ZM392.257 51.7148V86.9093C395.24 87.3881 398.343 87.3881 401.207 87.3881C410.994 87.3881 419.586 81.1632 419.586 67.277C419.586 53.6302 410.874 48.0038 401.446 48.0038C399.179 48.0038 396.672 48.1235 394.643 48.6024C392.973 48.9615 392.257 50.0389 392.257 51.7148ZM392.257 92.775V130.244C392.257 133.117 395.359 133.955 400.969 133.955C412.187 133.955 423.764 129.765 423.764 113.245C423.764 96.7254 410.516 92.2962 401.327 92.2962C398.224 92.2962 395.24 92.2962 392.257 92.775Z" fill="black"/>
<path d="M480.76 140.778L478.373 138.743L478.135 128.568L477.777 128.448C473.719 134.913 467.99 140.778 459.517 140.778C451.282 140.778 446.508 134.075 446.508 123.54V89.7823C446.508 82.0012 446.15 80.5647 438.87 82.8392L438.035 80.2056L456.414 74.2201L458.085 75.7763V122.343C458.085 129.406 460.233 132.758 464.768 132.758C469.542 132.758 474.316 128.688 478.135 123.54V89.7823C478.135 82.0012 477.896 80.5647 470.497 82.8392L469.661 80.2056L488.16 74.2201L489.711 75.7763V124.618C489.711 132.638 489.95 134.194 497.349 131.441L498.423 134.194L480.76 140.778Z" fill="black"/>
<path d="M532.311 112.048H535.653C535.653 130.723 531.953 140.778 520.258 140.778C510.949 140.778 506.056 135.152 506.056 118.393V80.3253H497.701V75.896C506.414 75.6566 511.903 69.1923 513.097 57.9397H517.393V75.4172H531.715V80.3253H517.632V115.28C517.632 125.934 518.706 132.997 524.315 132.997C529.686 132.997 532.311 126.294 532.311 112.048Z" fill="black"/>
<path d="M556.888 41.8986V126.533C556.888 134.194 557.962 135.99 565.242 135.99V138.863H536.838V135.99C544.118 135.99 545.311 134.194 545.311 126.533V57.341C545.311 49.6797 545.311 48.1235 538.151 51.7147L536.957 49.0811L555.098 40.2227L556.888 41.8986Z" fill="black"/>
<path d="M608.678 113.245H611.542C609.036 132.518 600.921 140.778 589.702 140.778C576.216 140.778 567.743 127.969 567.743 108.217C567.743 89.3033 576.097 73.2623 590.299 73.2623C604.262 73.2623 610.826 86.4303 610.826 103.908H579.319V104.147C579.319 120.428 584.332 131.92 594.237 131.92C599.608 131.92 605.814 127.73 608.678 113.245ZM590.299 78.2901C583.138 78.2901 580.155 87.0289 579.439 98.9998H599.369C599.369 87.5077 597.34 78.2901 590.299 78.2901Z" fill="black"/>
<path d="M650.843 73.2623C655.02 73.2623 657.288 75.6565 657.288 79.6069C657.288 84.2756 654.543 87.2683 651.44 87.2683C649.292 87.2683 648.337 86.4303 646.786 84.7544C645.234 83.1982 644.638 82.7194 643.205 82.7194C640.46 82.7194 637.238 86.6697 634.732 93.972V125.815C634.732 133.955 636.522 135.87 647.382 135.87V138.863H615.159V135.99C622.081 135.99 623.275 134.194 623.275 126.533V89.6625C623.275 81.642 623.275 79.966 616.114 82.9588L614.921 80.2055L624.468 76.3748L632.584 73.0229L634.732 74.8186V86.3106H635.09C638.432 79.966 644.279 73.2623 650.843 73.2623Z" fill="black"/>
<path d="M0 70.6367C0 44.3871 0 31.2622 6.4797 21.9687C8.84572 18.5753 11.777 15.6206 15.1435 13.2357C24.3631 6.7041 37.3838 6.7041 63.4251 6.7041H102.837C128.878 6.7041 141.899 6.7041 151.119 13.2357C154.485 15.6206 157.416 18.5753 159.782 21.9687C166.262 31.2622 166.262 44.3871 166.262 70.6367V110.364C166.262 136.614 166.262 149.739 159.782 159.032C157.416 162.425 154.485 165.38 151.119 167.765C141.899 174.297 128.878 174.297 102.837 174.297H63.4251C37.3838 174.297 24.3631 174.297 15.1435 167.765C11.777 165.38 8.84572 162.425 6.4797 159.032C0 149.739 0 136.614 0 110.364V70.6367Z" fill="black"/>
<path d="M71.1651 95.9663L131.049 126.718C135.005 128.749 139.66 125.794 139.66 121.252V59.7489C139.66 55.206 135.005 52.2513 131.049 54.2829L71.1651 85.0342C66.7794 87.2863 66.7794 93.7141 71.1651 95.9663Z" fill="url(#paint0_radial_293_498)"/>
<path d="M95.0974 95.9663L35.2135 126.718C31.2571 128.749 26.6021 125.794 26.6021 121.252V59.7489C26.6021 55.206 31.2571 52.2513 35.2135 54.2829L95.0974 85.0342C99.4831 87.2863 99.4831 93.7141 95.0974 95.9663Z" fill="#93EDE9"/>
<defs>
<radialGradient id="paint0_radial_293_498" cx="0" cy="0" r="1" gradientUnits="userSpaceOnUse" gradientTransform="translate(84.0153 90.5003) rotate(-179.999) scale(55.7491 59.1049)">
<stop stop-color="#86E1DC" stop-opacity="0"/>
<stop offset="1" stop-color="#93EDE9"/>
</radialGradient>
</defs>
</svg>

