<svg width="22" height="22" viewBox="0 0 22 22" fill="none" xmlns="http://www.w3.org/2000/svg">
<path d="M13.6355 18.7335C13.6682 18.7831 13.6872 18.8411 13.6905 18.9011C13.6938 18.9611 13.6812 19.021 13.6542 19.0742C13.6272 19.1273 13.5867 19.1718 13.5371 19.2028C13.4875 19.2338 13.4308 19.25 13.3729 19.2499H8.62838C8.57055 19.25 8.51378 19.2338 8.46421 19.2028C8.41463 19.1718 8.37414 19.1273 8.34711 19.0742C8.32008 19.021 8.30753 18.9611 8.31083 18.9011C8.31412 18.8411 8.33314 18.7831 8.36581 18.7335C8.65598 18.2837 9.04812 17.9152 9.50763 17.6604C9.96714 17.4055 10.4799 17.2722 11.0007 17.2722C11.5214 17.2722 12.0342 17.4055 12.4937 17.6604C12.9532 17.9152 13.3453 18.2837 13.6355 18.7335ZM19.1035 19.0115C19.0405 19.0878 18.9622 19.1487 18.874 19.1899C18.7859 19.2311 18.6901 19.2516 18.5934 19.2499H15.487C15.4217 19.2498 15.358 19.2288 15.3046 19.1896C15.2512 19.1505 15.2108 19.0952 15.1887 19.0313C14.8824 18.1307 14.3152 17.3509 13.5652 16.7995C12.8152 16.248 11.9192 15.9518 11.0007 15.9518C10.0821 15.9518 9.18614 16.248 8.43611 16.7995C7.68609 17.3509 7.11888 18.1307 6.81259 19.0313C6.79055 19.0952 6.75008 19.1505 6.6967 19.1896C6.64332 19.2288 6.57963 19.2498 6.51432 19.2499H3.40313C3.30629 19.2516 3.21031 19.2308 3.12221 19.1889C3.0341 19.1471 2.95608 19.0854 2.89385 19.0082C2.80166 18.8912 2.75088 18.7449 2.75001 18.5937C2.74914 18.4424 2.79824 18.2955 2.88909 18.1774C2.89385 18.1716 3.49515 17.3706 4.08851 15.808C4.63587 14.3659 5.28873 11.9602 5.28873 8.68997C5.28873 7.11459 5.89047 5.60374 6.96159 4.48978C8.03271 3.37582 9.48546 2.75 11.0003 2.75C12.515 2.75 13.9678 3.37582 15.0389 4.48978C16.11 5.60374 16.7118 7.11459 16.7118 8.68997C16.7118 11.9602 17.3646 14.3659 17.912 15.808C18.5054 17.3706 19.1067 18.1716 19.1122 18.1791C19.2029 18.2977 19.2516 18.4453 19.25 18.5969C19.2484 18.7485 19.1967 18.8949 19.1035 19.0115ZM7.82718 9.67996C7.82718 9.87576 7.88301 10.0672 7.98761 10.23C8.09221 10.3928 8.24088 10.5197 8.41482 10.5946C8.58876 10.6695 8.78016 10.6891 8.96482 10.6509C9.14947 10.6127 9.31909 10.5184 9.45222 10.38C9.58534 10.2415 9.67601 10.0651 9.71274 9.8731C9.74947 9.68106 9.73062 9.482 9.65857 9.3011C9.58652 9.12021 9.46451 8.96559 9.30796 8.85681C9.15142 8.74803 8.96738 8.68997 8.77911 8.68997C8.52664 8.68997 8.28452 8.79427 8.106 8.97993C7.92748 9.16559 7.82718 9.4174 7.82718 9.67996ZM14.1067 12.3546C14.0315 12.1981 13.8995 12.079 13.7399 12.0236C13.5803 11.9683 13.4061 11.9811 13.2555 12.0592L11.0003 13.2324L8.74579 12.0592C8.59515 11.981 8.4208 11.9682 8.2611 12.0237C8.1014 12.0792 7.96943 12.1983 7.89422 12.355C7.819 12.5117 7.80671 12.693 7.86004 12.8591C7.91337 13.0252 8.02796 13.1624 8.1786 13.2406L10.7171 14.5606C10.8051 14.6064 10.9022 14.6302 11.0007 14.6302C11.0991 14.6302 11.1962 14.6064 11.2842 14.5606L13.8227 13.2406C13.8973 13.2019 13.9639 13.1482 14.0185 13.0827C14.0732 13.0172 14.1149 12.9411 14.1413 12.8588C14.1677 12.7765 14.1782 12.6897 14.1723 12.6031C14.1663 12.5166 14.144 12.4322 14.1067 12.3546ZM14.1733 9.67996C14.1733 9.48416 14.1175 9.29275 14.0129 9.12995C13.9083 8.96714 13.7596 8.84025 13.5857 8.76532C13.4118 8.69039 13.2204 8.67079 13.0357 8.70899C12.851 8.74719 12.6814 8.84147 12.5483 8.97993C12.4152 9.11838 12.3245 9.29478 12.2878 9.48682C12.251 9.67886 12.2699 9.87792 12.3419 10.0588C12.414 10.2397 12.536 10.3943 12.6925 10.5031C12.8491 10.6119 13.0331 10.67 13.2214 10.67C13.4739 10.67 13.716 10.5657 13.8945 10.38C14.073 10.1943 14.1733 9.94252 14.1733 9.67996Z" fill="black"/>
</svg>
