<svg width="16" height="16" viewBox="0 0 16 16" fill="none" xmlns="http://www.w3.org/2000/svg">
<g clip-path="url(#clip0_2332_18212)">
<path fill-rule="evenodd" clip-rule="evenodd" d="M4 0C1.79086 0 0 1.79086 0 4V12C0 14.2091 1.79086 16 4 16H8.15018L6.29147 14.1338C6.10481 13.9463 6 13.6926 6 13.4281L6 9.66961C6 9.41088 6.10028 9.16222 6.27977 8.97588L8.85116 6.30627C9.03966 6.11057 9.29967 6 9.57139 6L13.3884 6C13.6577 6 13.9156 6.10861 14.1038 6.30125L16 8.24256V4C16 1.79086 14.2091 0 12 0H4Z" fill="#98EFEB"/>
<path fill-rule="evenodd" clip-rule="evenodd" d="M3 3V13L6 10.3777L6 9.66961C6 9.41088 6.10028 9.16222 6.27977 8.97588L7.89781 7.29603L3 3ZM9.56901 6C9.56981 6 9.5706 6 9.57139 6L13 6V3L9.56901 6Z" fill="#0A0A0A"/>
<path d="M9.27913 7.30627C9.46763 7.11057 9.72765 7 9.99936 7L12.9685 7C13.2378 7 13.4957 7.10861 13.6839 7.30125L15.7154 9.38105C15.8978 9.56787 16 9.81865 16 10.0798V12.9202C16 13.1813 15.8978 13.4321 15.7154 13.6189L13.6839 15.6988C13.4957 15.8914 13.2378 16 12.9685 16H9.98952C9.72361 16 9.46864 15.8941 9.28099 15.7057L7.29147 13.7081C7.10481 13.5207 7 13.2669 7 13.0024L7 10.0757C7 9.817 7.10028 9.56834 7.27977 9.382L9.27913 7.30627Z" fill="#E89910"/>
<path d="M11.5 9L11.5 12" stroke="white" stroke-width="1.5"/>
<path d="M11.5 13L11.5 14" stroke="white" stroke-width="1.5"/>
</g>
<defs>
<clipPath id="clip0_2332_18212">
<rect width="16" height="16" fill="white"/>
</clipPath>
</defs>
</svg>
