<svg width="100%" height="100%" viewBox="0 0 400 400" fill="none" xmlns="http://www.w3.org/2000/svg">
<ellipse opacity="0.12" cx="252.789" cy="375.851" rx="124.59" ry="9.93566" fill="var(--clr-theme-component-illustration-outline)"/>
<path d="M246.152 230.178H256.152H266.153L284.124 325.787C306.071 325.787 344.259 341.757 352.141 375.851H254.061H154.981C159.424 351.794 194.938 325.061 224.692 325.061L246.152 230.178Z" fill="var(--clr-theme-component-illustration-fill)"/>
<path d="M254.061 375.851H352.141C344.259 341.757 306.071 325.787 284.124 325.787L266.153 230.178H256.152M254.061 375.851H154.981C159.424 351.794 194.938 325.061 224.692 325.061L246.152 230.178H256.152M254.061 375.851L256.152 230.178" stroke="var(--clr-theme-component-illustration-outline)" stroke-width="1.2"/>
<path fill-rule="evenodd" clip-rule="evenodd" d="M208.053 176.838C208.738 180.119 206.634 183.335 203.352 184.02C195.942 185.568 187.077 189.421 178.847 193.968C171.612 197.966 165.27 202.276 161.265 205.542C161.444 205.583 161.629 205.624 161.821 205.664C167.733 206.898 176.199 206.984 180.178 206.984V219.123C176.38 219.123 166.673 219.078 159.34 217.547C157.465 217.155 155.531 216.626 153.79 215.874C152.153 215.168 150.069 214.007 148.583 212.012C146.824 209.651 146.335 206.689 147.32 203.79C148.159 201.319 149.919 199.314 151.741 197.703C156.399 193.587 164.254 188.162 172.976 183.343C181.676 178.536 191.757 174.041 200.871 172.137C204.152 171.452 207.368 173.557 208.053 176.838Z" fill="var(--clr-theme-component-illustration-outline)"/>
<path d="M180.931 227.665C177.669 228.409 174.352 226.298 173.377 223.264C169.822 212.194 176.257 202.948 185.743 202.422L217.032 213.564C220.139 219.515 220.961 224.311 214.1 228.625C216.086 232.429 215.981 234.973 214.317 238.689C209.167 250.189 185.54 247.294 187.91 235.133C186.641 234.489 182.04 232.736 180.931 227.665Z" fill="var(--clr-theme-component-illustration-fill)"/>
<path d="M187.91 235.133C186.641 234.489 182.04 232.736 180.931 227.665C177.669 228.409 174.352 226.298 173.377 223.264C169.822 212.194 176.257 202.948 185.743 202.422L217.032 213.564C220.139 219.515 220.961 224.311 214.1 228.625C216.086 232.429 215.981 234.973 214.317 238.689C209.167 250.189 185.54 247.294 187.91 235.133ZM187.91 235.133C192.211 236.973 195.794 237.656 200.147 237.779M180.665 222.86C179.879 221.182 178.662 214.708 182.902 210.154M192.723 222.191L202.1 226.491M205.138 220.314L195.022 216.242" stroke="var(--clr-theme-component-illustration-outline)" stroke-width="1.2"/>
<path d="M327.602 98.514C337.453 99.3548 344.782 107.983 344.018 117.841L340.298 165.808C339.838 171.741 342.339 177.517 346.98 181.24L354.633 187.38C359.335 191.152 361.836 197.028 361.297 203.031L360.3 214.127C359.411 224.011 350.692 231.312 340.806 230.448L195.746 217.779C185.826 216.913 178.494 208.155 179.385 198.237L187.802 104.567C188.689 94.6972 197.386 87.4006 207.26 88.2433L327.602 98.514Z" fill="var(--clr-theme-component-illustration-fill)" stroke="var(--clr-theme-component-illustration-outline)" stroke-width="1.2"/>
<path d="M224.734 210.979L222.881 229.342L240.119 223.689L255.539 232.575L257.756 214.573L240.262 219.016L224.734 210.979Z" fill="var(--clr-theme-component-illustration-outline)"/>
<path d="M285.062 225.562L289.826 226.006C299.748 226.93 308.532 219.618 309.423 209.693L317.861 115.712C318.754 105.763 311.376 96.9899 301.421 96.1642L299.922 96.0398" stroke="var(--clr-theme-component-illustration-outline)" stroke-width="1.2"/>
<rect opacity="0.13" x="198.231" y="97.8466" width="110.438" height="101.801" rx="7.86364" transform="rotate(5.13469 198.231 97.8466)" fill="var(--clr-theme-component-illustration-outline)"/>
<path d="M260.895 147.193C259.366 161.673 258.795 177.51 271.913 179.773C285.031 182.035 286.742 163.483 288.714 149.003C290.686 134.523 291.305 118.234 277.617 117.329C263.929 116.424 262.425 132.713 260.895 147.193Z" fill="var(--clr-theme-component-illustration-fill)" stroke="var(--clr-theme-component-illustration-outline)" stroke-width="1.2"/>
<path d="M277.332 117.419C276.253 125.546 274.148 146.554 272.715 156.583L287.107 158.047C287.277 156.831 288.238 152.558 288.397 151.364C288.503 150.568 288.608 149.78 288.714 149.003C290.639 134.867 291.433 118.68 277.332 117.419Z" fill="var(--clr-theme-component-illustration-outline)"/>
<path d="M207.359 142.816C205.83 157.295 205.259 173.133 218.377 175.395C231.495 177.658 233.206 159.105 235.178 144.626C237.15 130.146 237.769 113.856 224.081 112.951C210.392 112.046 208.889 128.336 207.359 142.816Z" fill="var(--clr-theme-component-illustration-fill)" stroke="var(--clr-theme-component-illustration-outline)" stroke-width="1.2"/>
<path d="M223.796 113.041C222.717 121.168 220.612 142.176 219.179 152.206L233.571 153.67C233.741 152.453 234.702 148.18 234.861 146.986C234.967 146.19 235.072 145.402 235.178 144.626C237.103 130.49 237.896 114.303 223.796 113.041Z" fill="var(--clr-theme-component-illustration-outline)"/>
<path d="M238.234 179.427C239.935 176.128 247 169.5 254.25 173" stroke="var(--clr-theme-component-illustration-outline)" stroke-width="1.2"/>
<path d="M336.879 204.115L350.563 201.051M336.284 210.741L349.968 207.677M335.689 217.364L349.372 214.3" stroke="var(--clr-theme-component-illustration-outline)" stroke-width="1.2"/>
<path fill-rule="evenodd" clip-rule="evenodd" d="M322.535 195.265C325.887 195.265 328.605 197.982 328.605 201.334C328.605 216.529 329.905 232.83 325.947 246.414C322.985 256.581 313.23 260.503 303.281 259.267C298.383 258.658 293.17 257.013 288.085 254.809C277.92 250.402 267.378 243.367 259.458 236.013L267.718 227.117C274.682 233.584 284.075 239.839 292.914 243.671C297.331 245.586 301.388 246.799 304.778 247.22C309.828 247.847 312.77 246.718 314.661 241.945C318.545 232.137 316.465 214.824 316.465 201.334C316.465 197.982 319.183 195.265 322.535 195.265Z" fill="var(--clr-theme-component-illustration-outline)"/>
<path d="M282.301 191.866C276.918 184.906 265.807 195.504 259.53 202.767C258.521 203.934 257.621 204.975 256.869 205.791C251.011 203.453 245.823 197.878 240.986 192.682C234.636 185.859 228.892 179.687 223.037 182.352C212.248 187.261 234.059 205.842 238.368 208.116C234.844 209.189 231.834 213.372 232.231 216.804C227.814 219.383 225.783 222.93 227.837 227.463C231.37 235.259 246.633 245.145 257.508 241.52C261.633 250.02 270.65 246.433 275.166 240.481C279.099 235.299 281.665 227.707 272.383 224.27C272.383 220.77 269.682 216.227 267.831 213.999C273.579 207.741 286.176 196.875 282.301 191.866Z" fill="var(--clr-theme-component-illustration-fill)"/>
<path d="M257.508 241.52C246.633 245.145 231.37 235.259 227.837 227.463C225.783 222.93 227.814 219.383 232.231 216.804C231.834 213.372 234.844 209.189 238.368 208.116C234.059 205.842 212.248 187.261 223.037 182.352C228.892 179.687 234.636 185.859 240.986 192.682C245.823 197.878 251.011 203.453 256.869 205.791C257.621 204.975 258.521 203.934 259.53 202.767C265.807 195.504 276.918 184.906 282.301 191.866C286.176 196.875 273.579 207.741 267.831 213.999C269.682 216.227 272.383 220.77 272.383 224.27M257.508 241.52C261.633 250.02 270.65 246.433 275.166 240.481C279.099 235.299 281.665 227.707 272.383 224.27M257.508 241.52C259.137 241.094 261.258 240.051 263.258 238.52M272.383 224.27C272.383 227.77 270.54 232.051 266.477 235.832" stroke="var(--clr-theme-component-illustration-outline)" stroke-width="1.2"/>
<path d="M247.91 214.754C249.67 216.51 252.536 218.96 254.632 220.427M243.268 220.382C244.959 222.151 248.224 224.964 249.778 225.91M239.187 226.084C240.432 227.178 243.619 229.731 245.446 230.884" stroke="var(--clr-theme-component-illustration-outline)" stroke-width="1.2"/>
<path d="M90 133.796V83.796H25.1056L7.5 108.796L25.1056 133.796H90Z" fill="var(--clr-theme-component-illustration-outline)" stroke="var(--clr-theme-component-illustration-outline)" stroke-width="1.2"/>
<path d="M32.1313 118.241C47.3894 118.241 59.9245 98.3447 50.5276 94.7982C42.9526 91.9393 38.2995 118.241 54.9644 118.241C63.7297 118.241 69.4603 103.146 64.266 102.231C59.0718 101.317 54.9788 117.813 70.9721 118.241" stroke="var(--clr-theme-component-illustration-fill)" stroke-width="1.2"/>
<path d="M89 10V315H109V10H89Z" fill="var(--clr-theme-component-illustration-fill)"/>
<path d="M89 315V10H109V315M89 315H109M89 315H70M109 315H127" stroke="var(--clr-theme-component-illustration-outline)" stroke-width="1.2"/>
<path d="M103 75V25H184L204 50L184 75H103Z" fill="var(--clr-theme-component-illustration-fill)" stroke="var(--clr-theme-component-illustration-outline)" stroke-width="1.2"/>
<path d="M117.375 62.5C129.625 58.0898 138.125 38.6522 133.25 37.0188C128.375 35.3854 121 59.2332 135.125 59.2332C149.25 59.2332 152.875 43.0624 149.125 42.0824C145.375 41.1024 138.875 59.2332 153.875 59.2332C168.875 59.2332 171.25 44.3692 166.625 43.2258C162 42.0824 158.875 59.2332 173.25 59.2332" stroke="var(--clr-theme-component-illustration-outline)" stroke-width="1.2"/>
</svg>
