<svg width="719" height="304" viewBox="0 0 719 304" fill="none" xmlns="http://www.w3.org/2000/svg">
	<g clip-path="url(#clip0_20_212142)">
		<path
			d="M25 10H16C14.8954 10 14 10.8954 14 12V16C14 17.1046 14.8954 18 16 18H25C26.1046 18 27 17.1046 27 16V12C27 10.8954 26.1046 10 25 10Z"
			stroke="var(--clr-btn-ntrl-outline)"
			stroke-width="1.5"
			stroke-linecap="round"
		/>
		<rect x="14" y="10" width="5" height="8" rx="2" stroke="var(--clr-btn-ntrl-outline)"
			stroke-width="1.5" />
		<path
			d="M174 15C174.552 15 175 15.4477 175 16C175 16.5523 174.552 17 174 17C173.448 17 173 16.5523 173 16C173 15.4477 173.448 15 174 15ZM178 15C178.552 15 179 15.4477 179 16C179 16.5523 178.552 17 178 17C177.448 17 177 16.5523 177 16C177 15.4477 177.448 15 178 15ZM182 15C182.552 15 183 15.4477 183 16C183 16.5523 182.552 17 182 17C181.448 17 181 16.5523 181 16C181 15.4477 181.448 15 182 15ZM186 15C186.552 15 187 15.4477 187 16C187 16.5523 186.552 17 186 17C185.448 17 185 16.5523 185 16C185 15.4477 185.448 15 186 15ZM174 11C174.552 11 175 11.4477 175 12C175 12.5523 174.552 13 174 13C173.448 13 173 12.5523 173 12C173 11.4477 173.448 11 174 11ZM178 11C178.552 11 179 11.4477 179 12C179 12.5523 178.552 13 178 13C177.448 13 177 12.5523 177 12C177 11.4477 177.448 11 178 11ZM182 11C182.552 11 183 11.4477 183 12C183 12.5523 182.552 13 182 13C181.448 13 181 12.5523 181 12C181 11.4477 181.448 11 182 11ZM186 11C186.552 11 187 11.4477 187 12C187 12.5523 186.552 13 186 13C185.448 13 185 12.5523 185 12C185 11.4477 185.448 11 186 11Z"
			fill="var(--clr-btn-ntrl-outline)"
		/>
		<g opacity="0.7">
			<path
				d="M336 14C336 14.8284 335.328 15.5 334.5 15.5C333.672 15.5 333 14.8284 333 14C333 13.1716 333.672 12.5 334.5 12.5C335.328 12.5 336 13.1716 336 14Z"
				fill="var(--clr-scale-ntrl-50)"
			/>
			<path
				d="M341.5 14C341.5 14.8284 340.828 15.5 340 15.5C339.172 15.5 338.5 14.8284 338.5 14C338.5 13.1716 339.172 12.5 340 12.5C340.828 12.5 341.5 13.1716 341.5 14Z"
				fill="var(--clr-scale-ntrl-50)"
			/>
			<path
				d="M347 14C347 14.8284 346.328 15.5 345.5 15.5C344.672 15.5 344 14.8284 344 14C344 13.1716 344.672 12.5 345.5 12.5C346.328 12.5 347 13.1716 347 14Z"
				fill="var(--clr-scale-ntrl-50)"
			/>
		</g>
		<path
			d="M22 28.5H338C343.247 28.5 347.5 32.7533 347.5 38V71.5H12.5V38C12.5 32.9174 16.4914 28.7673 21.5107 28.5127L22 28.5Z"
			fill="var(--clr-bg-2)"
		/>
		<path
			d="M22 28.5H338C343.247 28.5 347.5 32.7533 347.5 38V71.5H12.5V38C12.5 32.9174 16.4914 28.7673 21.5107 28.5127L22 28.5Z"
			stroke="var(--clr-border-2)"
		/>
		<mask id="path-9-inside-1_20_212142" fill="var(--clr-bg-1)">
			<path
				d="M17 37C17 34.7909 18.7909 33 21 33H339C341.209 33 343 34.7909 343 37V63C343 65.2091 341.209 67 339 67H21C18.7909 67 17 65.2091 17 63V37Z"
			/>
		</mask>
		<path
			d="M21 67V66.5C20.7656 66.5 20.5371 66.477 20.3164 66.4334L20.2193 66.9239L20.1223 67.4144C20.4066 67.4706 20.7001 67.5 21 67.5V67ZM18.7775 66.3263L19.0557 65.9108C18.6738 65.6551 18.3449 65.3262 18.0892 64.9443L17.6737 65.2225L17.2583 65.5006C17.5866 65.9911 18.0089 66.4134 18.4994 66.7417L18.7775 66.3263ZM17.0761 63.7806L17.5666 63.6836C17.523 63.4629 17.5 63.2344 17.5 63H17H16.5C16.5 63.2999 16.5294 63.5934 16.5856 63.8777L17.0761 63.7806ZM17 63H17.5V62.0714H17H16.5V63H17ZM17 60.2143H17.5V58.3571H17H16.5V60.2143H17ZM17 56.5H17.5V54.6429H17H16.5V56.5H17ZM17 52.7857H17.5V50.9286H17H16.5V52.7857H17ZM17 49.0714H17.5V47.2143H17H16.5V49.0714H17ZM17 45.3571H17.5V43.5H17H16.5V45.3571H17ZM17 41.6429H17.5V39.7857H17H16.5V41.6429H17ZM17 37.9286H17.5V37H17H16.5V37.9286H17ZM17 37H17.5C17.5 36.7656 17.523 36.5371 17.5666 36.3164L17.0761 36.2194L16.5856 36.1223C16.5294 36.4066 16.5 36.7001 16.5 37H17ZM17.6737 34.7775L18.0892 35.0557C18.3449 34.6738 18.6738 34.3449 19.0557 34.0892L18.7775 33.6737L18.4994 33.2583C18.0089 33.5866 17.5866 34.0089 17.2583 34.4994L17.6737 34.7775ZM20.2194 33.0761L20.3164 33.5666C20.5371 33.523 20.7656 33.5 21 33.5V33V32.5C20.7001 32.5 20.4066 32.5294 20.1223 32.5856L20.2194 33.0761ZM21 33V33.5H21.9937V33V32.5H21V33ZM23.9812 33V33.5H25.9688V33V32.5H23.9812V33ZM27.9563 33V33.5H29.9438V33V32.5H27.9563V33ZM31.9313 33V33.5H33.9188V33V32.5H31.9313V33ZM35.9063 33V33.5H37.8938V33V32.5H35.9063V33ZM39.8813 33V33.5H41.8687V33V32.5H39.8813V33ZM43.8563 33V33.5H45.8437V33V32.5H43.8563V33ZM47.8312 33V33.5H49.8187V33V32.5H47.8312V33ZM51.8062 33V33.5H53.7937V33V32.5H51.8062V33ZM55.7812 33V33.5H57.7687V33V32.5H55.7812V33ZM59.7562 33V33.5H61.7437V33V32.5H59.7562V33ZM63.7312 33V33.5H65.7187V33V32.5H63.7312V33ZM67.7062 33V33.5H69.6937V33V32.5H67.7062V33ZM71.6812 33V33.5H73.6687V33V32.5H71.6812V33ZM75.6562 33V33.5H77.6437V33V32.5H75.6562V33ZM79.6312 33V33.5H81.6187V33V32.5H79.6312V33ZM83.6062 33V33.5H85.5937V33V32.5H83.6062V33ZM87.5812 33V33.5H89.5687V33V32.5H87.5812V33ZM91.5562 33V33.5H93.5437V33V32.5H91.5562V33ZM95.5313 33V33.5H97.5188V33V32.5H95.5313V33ZM99.5063 33V33.5H101.494V33V32.5H99.5063V33ZM103.481 33V33.5H105.469V33V32.5H103.481V33ZM107.456 33V33.5H109.444V33V32.5H107.456V33ZM111.431 33V33.5H113.419V33V32.5H111.431V33ZM115.406 33V33.5H117.394V33V32.5H115.406V33ZM119.381 33V33.5H121.369V33V32.5H119.381V33ZM123.356 33V33.5H125.344V33V32.5H123.356V33ZM127.331 33V33.5H129.319V33V32.5H127.331V33ZM131.306 33V33.5H133.294V33V32.5H131.306V33ZM135.281 33V33.5H137.269V33V32.5H135.281V33ZM139.256 33V33.5H141.244V33V32.5H139.256V33ZM143.231 33V33.5H145.219V33V32.5H143.231V33ZM147.206 33V33.5H149.194V33V32.5H147.206V33ZM151.181 33V33.5H153.169V33V32.5H151.181V33ZM155.156 33V33.5H157.144V33V32.5H155.156V33ZM159.131 33V33.5H161.119V33V32.5H159.131V33ZM163.106 33V33.5H165.094V33V32.5H163.106V33ZM167.081 33V33.5H169.069V33V32.5H167.081V33ZM171.056 33V33.5H173.044V33V32.5H171.056V33ZM175.031 33V33.5H177.019V33V32.5H175.031V33ZM179.006 33V33.5H180.994V33V32.5H179.006V33ZM182.981 33V33.5H184.969V33V32.5H182.981V33ZM186.956 33V33.5H188.944V33V32.5H186.956V33ZM190.931 33V33.5H192.919V33V32.5H190.931V33ZM194.906 33V33.5H196.894V33V32.5H194.906V33ZM198.881 33V33.5H200.869V33V32.5H198.881V33ZM202.856 33V33.5H204.844V33V32.5H202.856V33ZM206.831 33V33.5H208.819V33V32.5H206.831V33ZM210.806 33V33.5H212.794V33V32.5H210.806V33ZM214.781 33V33.5H216.769V33V32.5H214.781V33ZM218.756 33V33.5H220.744V33V32.5H218.756V33ZM222.731 33V33.5H224.719V33V32.5H222.731V33ZM226.706 33V33.5H228.694V33V32.5H226.706V33ZM230.681 33V33.5H232.669V33V32.5H230.681V33ZM234.656 33V33.5H236.644V33V32.5H234.656V33ZM238.631 33V33.5H240.619V33V32.5H238.631V33ZM242.606 33V33.5H244.594V33V32.5H242.606V33ZM246.581 33V33.5H248.569V33V32.5H246.581V33ZM250.556 33V33.5H252.544V33V32.5H250.556V33ZM254.532 33V33.5H256.519V33V32.5H254.532V33ZM258.506 33V33.5H260.494V33V32.5H258.506V33ZM262.482 33V33.5H264.469V33V32.5H262.482V33ZM266.457 33V33.5H268.444V33V32.5H266.457V33ZM270.432 33V33.5H272.419V33V32.5H270.432V33ZM274.407 33V33.5H276.394V33V32.5H274.407V33ZM278.382 33V33.5H280.369V33V32.5H278.382V33ZM282.357 33V33.5H284.344V33V32.5H282.357V33ZM286.331 33V33.5H288.319V33V32.5H286.331V33ZM290.306 33V33.5H292.294V33V32.5H290.306V33ZM294.281 33V33.5H296.269V33V32.5H294.281V33ZM298.256 33V33.5H300.244V33V32.5H298.256V33ZM302.231 33V33.5H304.219V33V32.5H302.231V33ZM306.206 33V33.5H308.194V33V32.5H306.206V33ZM310.181 33V33.5H312.169V33V32.5H310.181V33ZM314.156 33V33.5H316.144V33V32.5H314.156V33ZM318.131 33V33.5H320.119V33V32.5H318.131V33ZM322.106 33V33.5H324.094V33V32.5H322.106V33ZM326.081 33V33.5H328.069V33V32.5H326.081V33ZM330.056 33V33.5H332.044V33V32.5H330.056V33ZM334.031 33V33.5H336.019V33V32.5H334.031V33ZM338.006 33V33.5H339V33V32.5H338.006V33ZM339 33V33.5C339.234 33.5 339.463 33.523 339.684 33.5666L339.781 33.0761L339.878 32.5856C339.593 32.5294 339.3 32.5 339 32.5V33ZM341.222 33.6737L340.944 34.0892C341.326 34.3449 341.655 34.6738 341.911 35.0557L342.326 34.7775L342.742 34.4994C342.413 34.0089 341.991 33.5866 341.501 33.2583L341.222 33.6737ZM342.924 36.2194L342.433 36.3164C342.477 36.5371 342.5 36.7656 342.5 37H343H343.5C343.5 36.7001 343.471 36.4066 343.414 36.1223L342.924 36.2194ZM343 37H342.5V37.9286H343H343.5V37H343ZM343 39.7857H342.5V41.6429H343H343.5V39.7857H343ZM343 43.5H342.5V45.3571H343H343.5V43.5H343ZM343 47.2143H342.5V49.0714H343H343.5V47.2143H343ZM343 50.9286H342.5V52.7857H343H343.5V50.9286H343ZM343 54.6429H342.5V56.5H343H343.5V54.6429H343ZM343 58.3571H342.5V60.2143H343H343.5V58.3571H343ZM343 62.0714H342.5V63H343H343.5V62.0714H343ZM343 63H342.5C342.5 63.2344 342.477 63.4629 342.433 63.6836L342.924 63.7806L343.414 63.8777C343.471 63.5934 343.5 63.2999 343.5 63H343ZM342.326 65.2225L341.911 64.9443C341.655 65.3262 341.326 65.6551 340.944 65.9108L341.222 66.3263L341.501 66.7417C341.991 66.4134 342.413 65.9911 342.742 65.5006L342.326 65.2225ZM339.781 66.9239L339.684 66.4334C339.463 66.477 339.234 66.5 339 66.5V67V67.5C339.3 67.5 339.593 67.4706 339.878 67.4144L339.781 66.9239ZM339 67V66.5H338.006V67V67.5H339V67ZM336.019 67V66.5H334.031V67V67.5H336.019V67ZM332.044 67V66.5H330.056V67V67.5H332.044V67ZM328.069 67V66.5H326.081V67V67.5H328.069V67ZM324.094 67V66.5H322.106V67V67.5H324.094V67ZM320.119 67V66.5H318.131V67V67.5H320.119V67ZM316.144 67V66.5H314.156V67V67.5H316.144V67ZM312.169 67V66.5H310.181V67V67.5H312.169V67ZM308.194 67V66.5H306.206V67V67.5H308.194V67ZM304.219 67V66.5H302.231V67V67.5H304.219V67ZM300.244 67V66.5H298.256V67V67.5H300.244V67ZM296.269 67V66.5H294.281V67V67.5H296.269V67ZM292.294 67V66.5H290.306V67V67.5H292.294V67ZM288.319 67V66.5H286.331V67V67.5H288.319V67ZM284.344 67V66.5H282.356V67V67.5H284.344V67ZM280.369 67V66.5H278.381V67V67.5H280.369V67ZM276.394 67V66.5H274.406V67V67.5H276.394V67ZM272.419 67V66.5H270.431V67V67.5H272.419V67ZM268.444 67V66.5H266.456V67V67.5H268.444V67ZM264.469 67V66.5H262.481V67V67.5H264.469V67ZM260.494 67V66.5H258.506V67V67.5H260.494V67ZM256.519 67V66.5H254.531V67V67.5H256.519V67ZM252.544 67V66.5H250.556V67V67.5H252.544V67ZM248.569 67V66.5H246.581V67V67.5H248.569V67ZM244.594 67V66.5H242.606V67V67.5H244.594V67ZM240.619 67V66.5H238.631V67V67.5H240.619V67ZM236.644 67V66.5H234.656V67V67.5H236.644V67ZM232.669 67V66.5H230.681V67V67.5H232.669V67ZM228.694 67V66.5H226.706V67V67.5H228.694V67ZM224.719 67V66.5H222.731V67V67.5H224.719V67ZM220.744 67V66.5H218.756V67V67.5H220.744V67ZM216.769 67V66.5H214.781V67V67.5H216.769V67ZM212.794 67V66.5H210.806V67V67.5H212.794V67ZM208.819 67V66.5H206.831V67V67.5H208.819V67ZM204.844 67V66.5H202.856V67V67.5H204.844V67ZM200.869 67V66.5H198.881V67V67.5H200.869V67ZM196.894 67V66.5H194.906V67V67.5H196.894V67ZM192.919 67V66.5H190.931V67V67.5H192.919V67ZM188.944 67V66.5H186.956V67V67.5H188.944V67ZM184.969 67V66.5H182.981V67V67.5H184.969V67ZM180.994 67V66.5H179.006V67V67.5H180.994V67ZM177.019 67V66.5H175.031V67V67.5H177.019V67ZM173.044 67V66.5H171.056V67V67.5H173.044V67ZM169.069 67V66.5H167.081V67V67.5H169.069V67ZM165.094 67V66.5H163.106V67V67.5H165.094V67ZM161.119 67V66.5H159.131V67V67.5H161.119V67ZM157.144 67V66.5H155.156V67V67.5H157.144V67ZM153.169 67V66.5H151.181V67V67.5H153.169V67ZM149.194 67V66.5H147.206V67V67.5H149.194V67ZM145.219 67V66.5H143.231V67V67.5H145.219V67ZM141.244 67V66.5H139.256V67V67.5H141.244V67ZM137.269 67V66.5H135.281V67V67.5H137.269V67ZM133.294 67V66.5H131.306V67V67.5H133.294V67ZM129.319 67V66.5H127.331V67V67.5H129.319V67ZM125.344 67V66.5H123.356V67V67.5H125.344V67ZM121.369 67V66.5H119.381V67V67.5H121.369V67ZM117.394 67V66.5H115.406V67V67.5H117.394V67ZM113.419 67V66.5H111.431V67V67.5H113.419V67ZM109.444 67V66.5H107.456V67V67.5H109.444V67ZM105.468 67V66.5H103.481V67V67.5H105.468V67ZM101.494 67V66.5H99.506V67V67.5H101.494V67ZM97.5185 67V66.5H95.531V67V67.5H97.5185V67ZM93.5435 67V66.5H91.556V67V67.5H93.5435V67ZM89.5685 67V66.5H87.581V67V67.5H89.5685V67ZM85.5935 67V66.5H83.606V67V67.5H85.5935V67ZM81.6185 67V66.5H79.631V67V67.5H81.6185V67ZM77.6435 67V66.5H75.656V67V67.5H77.6435V67ZM73.6685 67V66.5H71.681V67V67.5H73.6685V67ZM69.6935 67V66.5H67.706V67V67.5H69.6935V67ZM65.7186 67V66.5H63.7311V67V67.5H65.7186V67ZM61.7436 67V66.5H59.7561V67V67.5H61.7436V67ZM57.7686 67V66.5H55.7811V67V67.5H57.7686V67ZM53.7936 67V66.5H51.8062V67V67.5H53.7936V67ZM49.8187 67V66.5H47.8312V67V67.5H49.8187V67ZM45.8437 67V66.5H43.8562V67V67.5H45.8437V67ZM41.8687 67V66.5H39.8812V67V67.5H41.8687V67ZM37.8937 67V66.5H35.9062V67V67.5H37.8937V67ZM33.9188 67V66.5H31.9313V67V67.5H33.9188V67ZM29.9438 67V66.5H27.9563V67V67.5H29.9438V67ZM25.9688 67V66.5H23.9813V67V67.5H25.9688V67ZM21.9938 67V66.5H21V67V67.5H21.9938V67ZM21 67V66C20.7984 66 20.6023 65.9802 20.4134 65.9429L20.2193 66.9239L20.0253 67.9049C20.3413 67.9674 20.6673 68 21 68V67ZM18.7775 66.3263L19.3339 65.4953C19.0063 65.276 18.724 64.9937 18.5047 64.6661L17.6737 65.2225L16.8428 65.7788C17.2075 66.3236 17.6764 66.7925 18.2212 67.1572L18.7775 66.3263ZM17.0761 63.7806L18.0571 63.5866C18.0198 63.3977 18 63.2016 18 63H17H16C16 63.3326 16.0326 63.6587 16.0951 63.9747L17.0761 63.7806ZM17 63H18V62.0714H17H16V63H17ZM17 60.2143H18V58.3571H17H16V60.2143H17ZM17 56.5H18V54.6429H17H16V56.5H17ZM17 52.7857H18V50.9286H17H16V52.7857H17ZM17 49.0714H18V47.2143H17H16V49.0714H17ZM17 45.3571H18V43.5H17H16V45.3571H17ZM17 41.6429H18V39.7857H17H16V41.6429H17ZM17 37.9286H18V37H17H16V37.9286H17ZM17 37H18C18 36.7984 18.0198 36.6023 18.0571 36.4134L17.0761 36.2194L16.0951 36.0253C16.0326 36.3413 16 36.6674 16 37H17ZM17.6737 34.7775L18.5047 35.3339C18.724 35.0063 19.0063 34.724 19.3339 34.5047L18.7775 33.6737L18.2212 32.8428C17.6764 33.2075 17.2075 33.6764 16.8428 34.2212L17.6737 34.7775ZM20.2194 33.0761L20.4134 34.0571C20.6023 34.0198 20.7984 34 21 34V33V32C20.6674 32 20.3413 32.0326 20.0253 32.0951L20.2194 33.0761ZM21 33V34H21.9937V33V32H21V33ZM23.9812 33V34H25.9688V33V32H23.9812V33ZM27.9563 33V34H29.9438V33V32H27.9563V33ZM31.9313 33V34H33.9188V33V32H31.9313V33ZM35.9063 33V34H37.8938V33V32H35.9063V33ZM39.8813 33V34H41.8687V33V32H39.8813V33ZM43.8563 33V34H45.8437V33V32H43.8563V33ZM47.8312 33V34H49.8187V33V32H47.8312V33ZM51.8062 33V34H53.7937V33V32H51.8062V33ZM55.7812 33V34H57.7687V33V32H55.7812V33ZM59.7562 33V34H61.7437V33V32H59.7562V33ZM63.7312 33V34H65.7187V33V32H63.7312V33ZM67.7062 33V34H69.6937V33V32H67.7062V33ZM71.6812 33V34H73.6687V33V32H71.6812V33ZM75.6562 33V34H77.6437V33V32H75.6562V33ZM79.6312 33V34H81.6187V33V32H79.6312V33ZM83.6062 33V34H85.5937V33V32H83.6062V33ZM87.5812 33V34H89.5687V33V32H87.5812V33ZM91.5562 33V34H93.5437V33V32H91.5562V33ZM95.5313 33V34H97.5188V33V32H95.5313V33ZM99.5063 33V34H101.494V33V32H99.5063V33ZM103.481 33V34H105.469V33V32H103.481V33ZM107.456 33V34H109.444V33V32H107.456V33ZM111.431 33V34H113.419V33V32H111.431V33ZM115.406 33V34H117.394V33V32H115.406V33ZM119.381 33V34H121.369V33V32H119.381V33ZM123.356 33V34H125.344V33V32H123.356V33ZM127.331 33V34H129.319V33V32H127.331V33ZM131.306 33V34H133.294V33V32H131.306V33ZM135.281 33V34H137.269V33V32H135.281V33ZM139.256 33V34H141.244V33V32H139.256V33ZM143.231 33V34H145.219V33V32H143.231V33ZM147.206 33V34H149.194V33V32H147.206V33ZM151.181 33V34H153.169V33V32H151.181V33ZM155.156 33V34H157.144V33V32H155.156V33ZM159.131 33V34H161.119V33V32H159.131V33ZM163.106 33V34H165.094V33V32H163.106V33ZM167.081 33V34H169.069V33V32H167.081V33ZM171.056 33V34H173.044V33V32H171.056V33ZM175.031 33V34H177.019V33V32H175.031V33ZM179.006 33V34H180.994V33V32H179.006V33ZM182.981 33V34H184.969V33V32H182.981V33ZM186.956 33V34H188.944V33V32H186.956V33ZM190.931 33V34H192.919V33V32H190.931V33ZM194.906 33V34H196.894V33V32H194.906V33ZM198.881 33V34H200.869V33V32H198.881V33ZM202.856 33V34H204.844V33V32H202.856V33ZM206.831 33V34H208.819V33V32H206.831V33ZM210.806 33V34H212.794V33V32H210.806V33ZM214.781 33V34H216.769V33V32H214.781V33ZM218.756 33V34H220.744V33V32H218.756V33ZM222.731 33V34H224.719V33V32H222.731V33ZM226.706 33V34H228.694V33V32H226.706V33ZM230.681 33V34H232.669V33V32H230.681V33ZM234.656 33V34H236.644V33V32H234.656V33ZM238.631 33V34H240.619V33V32H238.631V33ZM242.606 33V34H244.594V33V32H242.606V33ZM246.581 33V34H248.569V33V32H246.581V33ZM250.556 33V34H252.544V33V32H250.556V33ZM254.532 33V34H256.519V33V32H254.532V33ZM258.506 33V34H260.494V33V32H258.506V33ZM262.482 33V34H264.469V33V32H262.482V33ZM266.457 33V34H268.444V33V32H266.457V33ZM270.432 33V34H272.419V33V32H270.432V33ZM274.407 33V34H276.394V33V32H274.407V33ZM278.382 33V34H280.369V33V32H278.382V33ZM282.357 33V34H284.344V33V32H282.357V33ZM286.331 33V34H288.319V33V32H286.331V33ZM290.306 33V34H292.294V33V32H290.306V33ZM294.281 33V34H296.269V33V32H294.281V33ZM298.256 33V34H300.244V33V32H298.256V33ZM302.231 33V34H304.219V33V32H302.231V33ZM306.206 33V34H308.194V33V32H306.206V33ZM310.181 33V34H312.169V33V32H310.181V33ZM314.156 33V34H316.144V33V32H314.156V33ZM318.131 33V34H320.119V33V32H318.131V33ZM322.106 33V34H324.094V33V32H322.106V33ZM326.081 33V34H328.069V33V32H326.081V33ZM330.056 33V34H332.044V33V32H330.056V33ZM334.031 33V34H336.019V33V32H334.031V33ZM338.006 33V34H339V33V32H338.006V33ZM339 33V34C339.202 34 339.398 34.0198 339.587 34.0571L339.781 33.0761L339.975 32.0951C339.659 32.0326 339.333 32 339 32V33ZM341.222 33.6737L340.666 34.5047C340.994 34.724 341.276 35.0063 341.495 35.3339L342.326 34.7775L343.157 34.2212C342.792 33.6764 342.324 33.2075 341.779 32.8428L341.222 33.6737ZM342.924 36.2194L341.943 36.4134C341.98 36.6023 342 36.7984 342 37H343H344C344 36.6674 343.967 36.3413 343.905 36.0253L342.924 36.2194ZM343 37H342V37.9286H343H344V37H343ZM343 39.7857H342V41.6429H343H344V39.7857H343ZM343 43.5H342V45.3571H343H344V43.5H343ZM343 47.2143H342V49.0714H343H344V47.2143H343ZM343 50.9286H342V52.7857H343H344V50.9286H343ZM343 54.6429H342V56.5H343H344V54.6429H343ZM343 58.3571H342V60.2143H343H344V58.3571H343ZM343 62.0714H342V63H343H344V62.0714H343ZM343 63H342C342 63.2016 341.98 63.3977 341.943 63.5866L342.924 63.7806L343.905 63.9747C343.967 63.6587 344 63.3326 344 63H343ZM342.326 65.2225L341.495 64.6661C341.276 64.9937 340.994 65.276 340.666 65.4953L341.222 66.3263L341.779 67.1572C342.324 66.7925 342.792 66.3236 343.157 65.7788L342.326 65.2225ZM339.781 66.9239L339.587 65.9429C339.398 65.9802 339.202 66 339 66V67V68C339.333 68 339.659 67.9674 339.975 67.9049L339.781 66.9239ZM339 67V66H338.006V67V68H339V67ZM336.019 67V66H334.031V67V68H336.019V67ZM332.044 67V66H330.056V67V68H332.044V67ZM328.069 67V66H326.081V67V68H328.069V67ZM324.094 67V66H322.106V67V68H324.094V67ZM320.119 67V66H318.131V67V68H320.119V67ZM316.144 67V66H314.156V67V68H316.144V67ZM312.169 67V66H310.181V67V68H312.169V67ZM308.194 67V66H306.206V67V68H308.194V67ZM304.219 67V66H302.231V67V68H304.219V67ZM300.244 67V66H298.256V67V68H300.244V67ZM296.269 67V66H294.281V67V68H296.269V67ZM292.294 67V66H290.306V67V68H292.294V67ZM288.319 67V66H286.331V67V68H288.319V67ZM284.344 67V66H282.356V67V68H284.344V67ZM280.369 67V66H278.381V67V68H280.369V67ZM276.394 67V66H274.406V67V68H276.394V67ZM272.419 67V66H270.431V67V68H272.419V67ZM268.444 67V66H266.456V67V68H268.444V67ZM264.469 67V66H262.481V67V68H264.469V67ZM260.494 67V66H258.506V67V68H260.494V67ZM256.519 67V66H254.531V67V68H256.519V67ZM252.544 67V66H250.556V67V68H252.544V67ZM248.569 67V66H246.581V67V68H248.569V67ZM244.594 67V66H242.606V67V68H244.594V67ZM240.619 67V66H238.631V67V68H240.619V67ZM236.644 67V66H234.656V67V68H236.644V67ZM232.669 67V66H230.681V67V68H232.669V67ZM228.694 67V66H226.706V67V68H228.694V67ZM224.719 67V66H222.731V67V68H224.719V67ZM220.744 67V66H218.756V67V68H220.744V67ZM216.769 67V66H214.781V67V68H216.769V67ZM212.794 67V66H210.806V67V68H212.794V67ZM208.819 67V66H206.831V67V68H208.819V67ZM204.844 67V66H202.856V67V68H204.844V67ZM200.869 67V66H198.881V67V68H200.869V67ZM196.894 67V66H194.906V67V68H196.894V67ZM192.919 67V66H190.931V67V68H192.919V67ZM188.944 67V66H186.956V67V68H188.944V67ZM184.969 67V66H182.981V67V68H184.969V67ZM180.994 67V66H179.006V67V68H180.994V67ZM177.019 67V66H175.031V67V68H177.019V67ZM173.044 67V66H171.056V67V68H173.044V67ZM169.069 67V66H167.081V67V68H169.069V67ZM165.094 67V66H163.106V67V68H165.094V67ZM161.119 67V66H159.131V67V68H161.119V67ZM157.144 67V66H155.156V67V68H157.144V67ZM153.169 67V66H151.181V67V68H153.169V67ZM149.194 67V66H147.206V67V68H149.194V67ZM145.219 67V66H143.231V67V68H145.219V67ZM141.244 67V66H139.256V67V68H141.244V67ZM137.269 67V66H135.281V67V68H137.269V67ZM133.294 67V66H131.306V67V68H133.294V67ZM129.319 67V66H127.331V67V68H129.319V67ZM125.344 67V66H123.356V67V68H125.344V67ZM121.369 67V66H119.381V67V68H121.369V67ZM117.394 67V66H115.406V67V68H117.394V67ZM113.419 67V66H111.431V67V68H113.419V67ZM109.444 67V66H107.456V67V68H109.444V67ZM105.468 67V66H103.481V67V68H105.468V67ZM101.494 67V66H99.506V67V68H101.494V67ZM97.5185 67V66H95.531V67V68H97.5185V67ZM93.5435 67V66H91.556V67V68H93.5435V67ZM89.5685 67V66H87.581V67V68H89.5685V67ZM85.5935 67V66H83.606V67V68H85.5935V67ZM81.6185 67V66H79.631V67V68H81.6185V67ZM77.6435 67V66H75.656V67V68H77.6435V67ZM73.6685 67V66H71.681V67V68H73.6685V67ZM69.6935 67V66H67.706V67V68H69.6935V67ZM65.7186 67V66H63.7311V67V68H65.7186V67ZM61.7436 67V66H59.7561V67V68H61.7436V67ZM57.7686 67V66H55.7811V67V68H57.7686V67ZM53.7936 67V66H51.8062V67V68H53.7936V67ZM49.8187 67V66H47.8312V67V68H49.8187V67ZM45.8437 67V66H43.8562V67V68H45.8437V67ZM41.8687 67V66H39.8812V67V68H41.8687V67ZM37.8937 67V66H35.9062V67V68H37.8937V67ZM33.9188 67V66H31.9313V67V68H33.9188V67ZM29.9438 67V66H27.9563V67V68H29.9438V67ZM25.9688 67V66H23.9813V67V68H25.9688V67ZM21.9938 67V66H21V67V68H21.9938V67Z"
			fill="var(--clr-border-2)"
			mask="url(#path-9-inside-1_20_212142)"
		/>
		<text
			opacity="0.7"
			fill="var(--clr-scale-ntrl-50)"
			xml:space="preserve"
			style="white-space: pre"
			font-family="Inter"
			font-size="13"
			letter-spacing="0em"
		>
			<tspan x="64.23" y="53.2273">Drop files to assign or commit directly</tspan>
		</text>
		<mask id="path-12-inside-2_20_212142" fill="var(--clr-bg-1)">
			<path
				d="M12 72H348V118C348 123.523 343.523 128 338 128H22C16.4772 128 12 123.523 12 118V72Z"
			/>
		</mask>
		<path
			d="M12 72H348V118C348 123.523 343.523 128 338 128H22C16.4772 128 12 123.523 12 118V72Z"
			fill="var(--clr-bg-1)"
		/>
		<path
			d="M12 72H348H12ZM349 118C349 124.075 344.075 129 338 129H22C15.9249 129 11 124.075 11 118H13C13 122.971 17.0294 127 22 127H338C342.971 127 347 122.971 347 118H349ZM22 129C15.9249 129 11 124.075 11 118V72H13V118C13 122.971 17.0294 127 22 127V129ZM349 72V118C349 124.075 344.075 129 338 129V127C342.971 127 347 122.971 347 118V72H349Z"
			fill="var(--clr-border-2)"
			mask="url(#path-12-inside-2_20_212142)"
		/>
		<g clip-path="url(#clip1_20_212142)">
			<text
				fill="var(--clr-btn-ntrl-outline-text)"
				xml:space="preserve"
				style="white-space: pre"
				font-family="Inter"
				font-size="12"
				font-weight="500"
				letter-spacing="0em"
			>
				<tspan x="132.5" y="104.364">Start a commit&#x2026;</tspan>
			</text>
			<path
				opacity="0.4"
				d="M32 86.5H328C331.038 86.5 333.5 88.9624 333.5 92V108C333.5 111.038 331.038 113.5 328 113.5H32C28.9624 113.5 26.5 111.038 26.5 108V92C26.5 88.9624 28.9624 86.5 32 86.5Z"
				stroke="var(--clr-scale-ntrl-50)"
			/>
		</g>
		<g clip-path="url(#clip2_20_212142)">
			<path
				d="M12 148C12 142.477 16.4772 138 22 138H338C343.523 138 348 142.477 348 148V328C348 333.523 343.523 338 338 338H22C16.4772 338 12 333.523 12 328V148Z"
				fill="var(--clr-bg-2)"
			/>
			<mask id="path-19-inside-3_20_212142" fill="var(--clr-bg-1)">
				<path
					d="M12 148C12 142.477 16.4772 138 22 138H338C343.523 138 348 142.477 348 148V208H12V148Z"
				/>
			</mask>
			<path
				d="M12 148C12 142.477 16.4772 138 22 138H338C343.523 138 348 142.477 348 148V208H12V148Z"
				fill="var(--clr-bg-1)"
			/>
			<path
				d="M11 148C11 141.925 15.9249 137 22 137H338C344.075 137 349 141.925 349 148H347C347 143.029 342.971 139 338 139H22C17.0294 139 13 143.029 13 148H11ZM348 208H12H348ZM11 208V148C11 141.925 15.9249 137 22 137V139C17.0294 139 13 143.029 13 148V208H11ZM338 137C344.075 137 349 141.925 349 148V208H347V148C347 143.029 342.971 139 338 139V137Z"
				fill="var(--clr-border-2)"
				mask="url(#path-19-inside-3_20_212142)"
			/>
			<rect x="26" y="152" width="20" height="20" rx="6" fill="var(--clr-scale-ntrl-50)" />
			<path
				d="M32.5 167.75H31V156.75H32.5V167.75ZM38.25 156.5C40.0449 156.5 41.5 157.955 41.5 159.75C41.5 161.35 40.3441 162.678 38.8223 162.948C38.3398 164.462 36.9236 165.559 35.25 165.559H35V164.059H35.25C36.1201 164.059 36.8727 163.564 37.2471 162.841C35.9432 162.418 35 161.195 35 159.75C35 157.955 36.4551 156.5 38.25 156.5ZM38.25 158C37.2835 158 36.5 158.784 36.5 159.75C36.5 160.716 37.2835 161.5 38.25 161.5C39.2165 161.5 40 160.716 40 159.75C40 158.784 39.2165 158 38.25 158Z"
				fill="white"
			/>
			<text
				fill="var(--clr-text-1)"
				xml:space="preserve"
				style="white-space: pre"
				font-family="Inter"
				font-size="15"
				font-weight="600"
				letter-spacing="0em"
			>
				<tspan x="56" y="167.455">my-feature</tspan>
			</text>
			<text
				fill="var(--clr-scale-ntrl-50)"
				xml:space="preserve"
				style="white-space: pre"
				font-family="Inter"
				font-size="12"
				letter-spacing="0em"
			>
				<tspan x="26" y="191.364">Unpushed</tspan>
			</text>
			<text
				fill="var(--clr-btn-ntrl-outline)"
				xml:space="preserve"
				style="white-space: pre"
				font-family="Inter"
				font-size="12"
				letter-spacing="0em"
			>
				<tspan x="90" y="191.364">&#x2022;</tspan>
			</text>
			<text
				fill="var(--clr-scale-ntrl-50)"
				xml:space="preserve"
				style="white-space: pre"
				font-family="Inter"
				font-size="12"
				letter-spacing="0em"
			>
				<tspan x="103" y="191.364">20 min ago</tspan>
			</text>
			<mask id="path-27-inside-4_20_212142" fill="var(--clr-bg-1)">
				<path d="M12 208H348V250H12V208Z" />
			</mask>
			<path d="M12 208H348V250H12V208Z" fill="var(--clr-bg-2)" />
			<path
				d="M12 208V207H11V208H12ZM348 208H349V207H348V208ZM12 208V209H348V208V207H12V208ZM348 208H347V250H348H349V208H348ZM12 250H13V208H12H11V250H12Z"
				fill="var(--clr-border-2)"
				mask="url(#path-27-inside-4_20_212142)"
			/>
			<g clip-path="url(#clip3_20_212142)">
				<g opacity="0.7">
					<path
						d="M36.5 222.25C38.5711 222.25 40.25 223.929 40.25 226V230C40.25 231.227 39.6608 232.316 38.75 233C39.6608 233.684 40.25 234.773 40.25 236H38.75C38.75 234.757 37.7426 233.75 36.5 233.75H31.5C30.2574 233.75 29.25 234.757 29.25 236H27.75C27.75 234.773 28.3386 233.684 29.249 233C28.3386 232.316 27.75 231.227 27.75 230L27.75 226C27.75 223.929 29.4289 222.25 31.5 222.25H36.5ZM31.5 223.75C30.2574 223.75 29.25 224.757 29.25 226L29.25 230C29.25 231.243 30.2574 232.25 31.5 232.25H36.5C37.7426 232.25 38.75 231.243 38.75 230V226C38.75 224.757 37.7426 223.75 36.5 223.75H31.5ZM34.8828 227.122H37.125V228.622H34.8828V230.88H33.3828V228.622H31.125V227.122H33.3828V224.88H34.8828V227.122Z"
						fill="var(--clr-btn-ntrl-outline-text)"
					/>
				</g>
				<path
					opacity="0.4"
					d="M28 218.5H40C43.0376 218.5 45.5 220.962 45.5 224V234C45.5 237.038 43.0376 239.5 40 239.5H28C24.9624 239.5 22.5 237.038 22.5 234V224C22.5 220.962 24.9624 218.5 28 218.5Z"
					stroke="var(--clr-scale-ntrl-50)"
				/>
			</g>
			<g clip-path="url(#clip4_20_212142)">
				<text
					fill="var(--clr-btn-ntrl-outline-text)"
					xml:space="preserve"
					style="white-space: pre"
					font-family="Inter"
					font-size="11"
					font-weight="500"
					letter-spacing="0em"
				>
					<tspan x="59" y="233">Create PR</tspan>
				</text>
				<g opacity="0.7">
					<path
						d="M119.818 223.257C120.593 223.207 121.221 223.441 121.646 223.681C121.779 223.756 121.893 223.836 121.989 223.906C123.012 223.69 124.08 223.688 125.106 223.902C125.193 223.836 125.296 223.766 125.415 223.697C125.84 223.452 126.46 223.228 127.272 223.256L127.76 223.272L127.943 223.726C128.271 224.544 128.233 225.236 128.142 225.682C128.552 226.248 128.788 226.934 128.788 227.722C128.787 229.199 128.251 230.227 127.41 230.893C126.979 231.233 126.492 231.456 126.008 231.61C126.354 232.142 126.547 232.77 126.547 233.423V234.746H125.047V233.423C125.047 232.818 124.747 232.251 124.246 231.912C123.596 231.472 123.858 230.49 124.603 230.389L124.871 230.348C125.487 230.241 126.055 230.051 126.479 229.716C126.922 229.365 127.288 228.791 127.288 227.722C127.288 227.152 127.094 226.711 126.769 226.364L126.442 226.016L126.621 225.571C126.641 225.522 126.748 225.234 126.688 224.799C126.465 224.846 126.291 224.923 126.165 224.996C126.056 225.059 125.978 225.121 125.932 225.162C125.909 225.182 125.895 225.197 125.888 225.204C125.887 225.206 125.885 225.207 125.884 225.208L125.587 225.57L125.12 225.445C124.103 225.173 123.011 225.174 121.992 225.445L121.559 225.561L121.252 225.234C121.251 225.234 121.25 225.233 121.249 225.231C121.237 225.221 121.216 225.2 121.186 225.176C121.126 225.126 121.031 225.056 120.91 224.987C120.775 224.912 120.612 224.841 120.424 224.797C120.364 225.232 120.471 225.521 120.492 225.571L120.668 226.009L120.35 226.357C120.025 226.713 119.825 227.16 119.825 227.722C119.825 228.789 120.192 229.365 120.638 229.719C121.124 230.104 121.797 230.297 122.506 230.39C123.253 230.487 123.521 231.473 122.868 231.914C122.366 232.253 122.066 232.818 122.066 233.423V234.746H120.566V234.448C120.047 234.423 119.621 234.302 119.267 234.095C118.87 233.862 118.625 233.557 118.455 233.322C118.256 233.049 118.206 232.957 118.113 232.873C118.079 232.842 118.041 232.81 117.9 232.81C117.486 232.809 117.15 232.474 117.15 232.06C117.15 231.645 117.486 231.31 117.9 231.31C118.416 231.31 118.81 231.483 119.118 231.76C119.366 231.984 119.569 232.303 119.668 232.441C119.796 232.617 119.895 232.724 120.025 232.8C120.131 232.862 120.303 232.925 120.601 232.944C120.671 232.467 120.843 232.013 121.103 231.613C120.621 231.46 120.136 231.234 119.707 230.895C118.866 230.228 118.325 229.199 118.325 227.722C118.325 226.928 118.572 226.245 118.972 225.686C118.88 225.24 118.841 224.546 119.17 223.726L119.346 223.287L119.818 223.257Z"
						fill="var(--clr-btn-ntrl-outline-text)"
					/>
				</g>
				<path
					opacity="0.4"
					d="M58 218.5H129C132.038 218.5 134.5 220.962 134.5 224V234C134.5 237.038 132.038 239.5 129 239.5H58C54.9624 239.5 52.5 237.038 52.5 234V224C52.5 220.962 54.9624 218.5 58 218.5Z"
					stroke="var(--clr-scale-ntrl-50)"
				/>
			</g>
			<path
				d="M141 227.84C141 224.253 141 222.459 141.742 221.109C142.291 220.112 143.112 219.291 144.109 218.742C145.459 218 147.253 218 150.84 218H188.16C191.747 218 193.541 218 194.891 218.742C195.888 219.291 196.709 220.112 197.258 221.109C198 222.459 198 224.253 198 227.84V230.16C198 233.747 198 235.541 197.258 236.891C196.709 237.888 195.888 238.709 194.891 239.258C193.541 240 191.747 240 188.16 240H150.84C147.253 240 145.459 240 144.109 239.258C143.112 238.709 142.291 237.888 141.742 236.891C141 235.541 141 233.747 141 230.16V227.84Z"
				fill="var(--clr-theme-ntrl-element)"
			/>
			<text
				fill="var(--clr-bg-1)"
				xml:space="preserve"
				style="white-space: pre"
				font-family="Inter"
				font-size="11"
				font-weight="500"
				letter-spacing="0em"
			>
				<tspan x="148" y="233">Push</tspan>
			</text>
			<g opacity="0.8">
				<path
					d="M184.331 224.331C185.316 223.579 186.684 223.579 187.669 224.331L191.455 227.223L190.545 228.414L186.759 225.523C186.756 225.521 186.753 225.519 186.75 225.517V231C186.75 232.519 185.519 233.75 184 233.75H181V232.25H184C184.69 232.25 185.25 231.69 185.25 231V225.517C185.247 225.519 185.244 225.521 185.241 225.523L181.455 228.414L180.545 227.223L184.331 224.331Z"
					fill="var(--clr-bg-1)"
				/>
			</g>
			<g opacity="0.7">
				<path
					d="M322 229C322 229.828 321.328 230.5 320.5 230.5C319.672 230.5 319 229.828 319 229C319 228.172 319.672 227.5 320.5 227.5C321.328 227.5 322 228.172 322 229Z"
					fill="var(--clr-btn-ntrl-outline-text)"
				/>
				<path
					d="M327.5 229C327.5 229.828 326.828 230.5 326 230.5C325.172 230.5 324.5 229.828 324.5 229C324.5 228.172 325.172 227.5 326 227.5C326.828 227.5 327.5 228.172 327.5 229Z"
					fill="var(--clr-btn-ntrl-outline-text)"
				/>
				<path
					d="M333 229C333 229.828 332.328 230.5 331.5 230.5C330.672 230.5 330 229.828 330 229C330 228.172 330.672 227.5 331.5 227.5C332.328 227.5 333 228.172 333 229Z"
					fill="var(--clr-btn-ntrl-outline-text)"
				/>
			</g>
			<g clip-path="url(#clip5_20_212142)">
				<path
					d="M12 250H348V328C348 333.523 343.523 338 338 338H22C16.4772 338 12 333.523 12 328V250Z"
					fill="var(--clr-bg-1)"
				/>
				<mask id="path-42-inside-5_20_212142" fill="var(--clr-bg-1)">
					<path d="M12 250H348V294H12V250Z" />
				</mask>
				<path d="M12 250H348V294H12V250Z" fill="var(--clr-bg-1)" />
				<path
					d="M12 250V251H348V250V249H12V250Z"
					fill="var(--clr-border-2)"
					mask="url(#path-42-inside-5_20_212142)"
				/>
				<rect x="29" y="267" width="10" height="10" rx="5" fill="var(--clr-scale-ntrl-50)" />
				<path d="M35 280V294H33V280H35ZM35 264H33V250H35V264Z" fill="var(--clr-scale-ntrl-50)" />
				<text
					fill="var(--clr-text-1)"
					xml:space="preserve"
					style="white-space: pre"
					font-family="Inter"
					font-size="13"
					font-weight="500"
					letter-spacing="0em"
				>
					<tspan x="56" y="276.727">fix a bug in handling the case of remote refn</tspan>
				</text>
				<mask id="path-47-inside-6_20_212142" fill="var(--clr-bg-1)">
					<path d="M12 294H348V338H12V294Z" />
				</mask>
				<path d="M12 294H348V338H12V294Z" fill="var(--clr-bg-1)" />
				<path
					d="M12 294V295H348V294V293H12V294Z"
					fill="var(--clr-border-2)"
					mask="url(#path-47-inside-6_20_212142)"
				/>
				<path d="M35 324V338H33V324H35ZM35 308H33V294H35V308Z" fill="var(--clr-scale-ntrl-50)" />
			</g>
		</g>
		<path
			d="M22 138.5H338C343.247 138.5 347.5 142.753 347.5 148V328C347.5 333.247 343.247 337.5 338 337.5H22C16.7533 337.5 12.5 333.247 12.5 328V148C12.5 142.917 16.4914 138.767 21.5107 138.513L22 138.5Z"
			stroke="var(--clr-border-2)"
		/>
	</g>
	<rect x="0.5" y="0.5" width="359" height="699" stroke="var(--clr-border-2)" />
	<rect x="359.5" y="0.5" width="359" height="699" stroke="var(--clr-border-2)" />
	<path
		d="M384 10H375C373.895 10 373 10.8954 373 12V16C373 17.1046 373.895 18 375 18H384C385.105 18 386 17.1046 386 16V12C386 10.8954 385.105 10 384 10Z"
		stroke="var(--clr-btn-ntrl-outline)"
		stroke-width="1.5"
		stroke-linecap="round"
	/>
	<rect x="373" y="10" width="5" height="8" rx="2" stroke="var(--clr-btn-ntrl-outline)"
		stroke-width="1.5" />
	<path
		d="M533 15C533.552 15 534 15.4477 534 16C534 16.5523 533.552 17 533 17C532.448 17 532 16.5523 532 16C532 15.4477 532.448 15 533 15ZM537 15C537.552 15 538 15.4477 538 16C538 16.5523 537.552 17 537 17C536.448 17 536 16.5523 536 16C536 15.4477 536.448 15 537 15ZM541 15C541.552 15 542 15.4477 542 16C542 16.5523 541.552 17 541 17C540.448 17 540 16.5523 540 16C540 15.4477 540.448 15 541 15ZM545 15C545.552 15 546 15.4477 546 16C546 16.5523 545.552 17 545 17C544.448 17 544 16.5523 544 16C544 15.4477 544.448 15 545 15ZM533 11C533.552 11 534 11.4477 534 12C534 12.5523 533.552 13 533 13C532.448 13 532 12.5523 532 12C532 11.4477 532.448 11 533 11ZM537 11C537.552 11 538 11.4477 538 12C538 12.5523 537.552 13 537 13C536.448 13 536 12.5523 536 12C536 11.4477 536.448 11 537 11ZM541 11C541.552 11 542 11.4477 542 12C542 12.5523 541.552 13 541 13C540.448 13 540 12.5523 540 12C540 11.4477 540.448 11 541 11ZM545 11C545.552 11 546 11.4477 546 12C546 12.5523 545.552 13 545 13C544.448 13 544 12.5523 544 12C544 11.4477 544.448 11 545 11Z"
		fill="var(--clr-btn-ntrl-outline)"
	/>
	<g opacity="0.7">
		<path
			d="M695 14C695 14.8284 694.328 15.5 693.5 15.5C692.672 15.5 692 14.8284 692 14C692 13.1716 692.672 12.5 693.5 12.5C694.328 12.5 695 13.1716 695 14Z"
			fill="var(--clr-scale-ntrl-50)"
		/>
		<path
			d="M700.5 14C700.5 14.8284 699.828 15.5 699 15.5C698.172 15.5 697.5 14.8284 697.5 14C697.5 13.1716 698.172 12.5 699 12.5C699.828 12.5 700.5 13.1716 700.5 14Z"
			fill="var(--clr-scale-ntrl-50)"
		/>
		<path
			d="M706 14C706 14.8284 705.328 15.5 704.5 15.5C703.672 15.5 703 14.8284 703 14C703 13.1716 703.672 12.5 704.5 12.5C705.328 12.5 706 13.1716 706 14Z"
			fill="var(--clr-scale-ntrl-50)"
		/>
	</g>
	<g clip-path="url(#clip6_20_212142)">
		<path
			d="M371 38C371 32.4771 375.477 28 381 28H697C702.523 28 707 32.4772 707 38V210C707 215.523 702.523 220 697 220H381C375.477 220 371 215.523 371 210V38Z"
			fill="var(--clr-bg-1)"
		/>
		<g clip-path="url(#clip7_20_212142)">
			<rect x="371" y="28" width="336" height="136" fill="var(--clr-bg-1)" />
			<mask id="path-60-inside-7_20_212142" fill="var(--clr-bg-1)">
				<path d="M371 28H707V68H371V28Z" />
			</mask>
			<path d="M371 28H707V68H371V28Z" fill="var(--clr-bg-2)" />
			<path
				d="M371 28V29H707V28V27H371V28ZM707 68V67H371V68V69H707V68Z"
				fill="var(--clr-border-2)"
				mask="url(#path-60-inside-7_20_212142)"
			/>
			<text
				fill="var(--clr-scale-ntrl-0)"
				xml:space="preserve"
				style="white-space: pre"
				font-family="Inter"
				font-size="14"
				font-weight="500"
				letter-spacing="0em"
			>
				<tspan x="385" y="53.0909">Changed files</tspan>
			</text>
			<rect x="484" y="40" width="16" height="16" rx="8" fill="var(--clr-theme-ntrl-element)" />
			<text
				fill="var(--clr-bg-1)"
				xml:space="preserve"
				style="white-space: pre"
				font-family="Inter"
				font-size="11"
				font-weight="500"
				letter-spacing="0em"
			>
				<tspan x="488.815" y="52">7</tspan>
			</text>
			<text
				fill="#4AB582"
				xml:space="preserve"
				style="white-space: pre"
				font-family="Inter"
				font-size="11"
				font-weight="500"
				letter-spacing="0em"
			>
				<tspan x="508" y="52">+10</tspan>
			</text>
			<text
				fill="#DC606B"
				xml:space="preserve"
				style="white-space: pre"
				font-family="Inter"
				font-size="11"
				font-weight="500"
				letter-spacing="0em"
			>
				<tspan x="530" y="52">-239</tspan>
			</text>
			<g clip-path="url(#clip8_20_212142)">
				<path
					d="M641 43C641 39.6863 643.686 37 647 37H691C694.314 37 697 39.6863 697 43V53C697 56.3137 694.314 59 691 59H647C643.686 59 641 56.3137 641 53V43Z"
					fill="var(--clr-bg-2)"
				/>
				<path
					d="M647 37.5H663C666.038 37.5 668.5 39.9624 668.5 43V53C668.5 56.0376 666.038 58.5 663 58.5H647C643.962 58.5 641.5 56.0376 641.5 53V43C641.5 39.9624 643.962 37.5 647 37.5Z"
					fill="var(--clr-bg-1)"
				/>
				<path
					d="M647 37.5H663C666.038 37.5 668.5 39.9624 668.5 43V53C668.5 56.0376 666.038 58.5 663 58.5H647C643.962 58.5 641.5 56.0376 641.5 53V43C641.5 39.9624 643.962 37.5 647 37.5Z"
					stroke="var(--clr-border-2)"
				/>
				<path
					fill-rule="evenodd"
					clip-rule="evenodd"
					d="M649 43.25H661V44.75H649V43.25Z"
					fill="var(--clr-scale-ntrl-50)"
				/>
				<path
					fill-rule="evenodd"
					clip-rule="evenodd"
					d="M649 47.25H661V48.75H649V47.25Z"
					fill="var(--clr-scale-ntrl-50)"
				/>
				<path
					fill-rule="evenodd"
					clip-rule="evenodd"
					d="M649 51.25H661V52.75H649V51.25Z"
					fill="var(--clr-scale-ntrl-50)"
				/>
				<rect width="28" height="22" transform="translate(669 37)" fill="var(--clr-bg-2)" />
				<path
					fill-rule="evenodd"
					clip-rule="evenodd"
					d="M678.75 46.75V43H677.25V51C677.25 51.9665 678.034 52.75 679 52.75H683V51.25H679C678.862 51.25 678.75 51.1381 678.75 51V48.25H683V46.75H678.75Z"
					fill="var(--clr-scale-ntrl-50)"
				/>
				<path
					d="M684 45.5C684 45.2239 684.224 45 684.5 45H686.096C686.372 45 686.596 45.2239 686.596 45.5H688C688.552 45.5 689 45.9477 689 46.5V47.5C689 48.0523 688.552 48.5 688 48.5H685C684.448 48.5 684 48.0523 684 47.5V45.5Z"
					fill="var(--clr-scale-ntrl-50)"
				/>
				<path
					d="M684 50C684 49.7239 684.224 49.5 684.5 49.5H686.096C686.372 49.5 686.596 49.7239 686.596 50H688C688.552 50 689 50.4477 689 51V52C689 52.5523 688.552 53 688 53H685C684.448 53 684 52.5523 684 52V50Z"
					fill="var(--clr-scale-ntrl-50)"
				/>
				<path d="M697 42V54" stroke="var(--clr-border-2)" />
			</g>
			<path
				d="M647 37.5H691C694.038 37.5 696.5 39.9624 696.5 43V53C696.5 56.0376 694.038 58.5 691 58.5H647C643.962 58.5 641.5 56.0376 641.5 53V43C641.5 39.9624 643.962 37.5 647 37.5Z"
				stroke="var(--clr-border-2)"
			/>
			<mask id="path-73-inside-8_20_212142" fill="var(--clr-bg-1)">
				<path d="M371 68H707V100H371V68Z" />
			</mask>
			<path d="M371 68H707V100H371V68Z" fill="var(--clr-bg-1)" />
			<path
				d="M707 100V99H371V100V101H707V100Z"
				fill="var(--clr-border-3)"
				mask="url(#path-73-inside-8_20_212142)"
			/>
			<path
				d="M388.185 80.4445C388.185 79.4627 388.981 78.6667 389.963 78.6667C390.29 78.6667 390.556 78.9321 390.556 79.2593C390.556 79.5866 390.29 79.8519 389.963 79.8519C389.636 79.8519 389.37 80.1172 389.37 80.4445V82.7784C389.37 83.2455 389.188 83.6783 388.884 84.0001C389.188 84.3219 389.37 84.7546 389.37 85.2218V87.5556C389.37 87.8829 389.636 88.1482 389.963 88.1482C390.29 88.1482 390.556 88.4135 390.556 88.7408C390.556 89.0681 390.29 89.3334 389.963 89.3334C388.981 89.3334 388.185 88.5375 388.185 87.5556V85.2218C388.185 84.9498 388 84.7128 387.736 84.6468L387.449 84.575C387.185 84.5091 387 84.272 387 84.0001C387 83.7281 387.185 83.4911 387.449 83.4252L387.736 83.3533C388 83.2874 388.185 83.0503 388.185 82.7784V80.4445ZM397.667 80.4445C397.667 79.4627 396.871 78.6667 395.889 78.6667C395.562 78.6667 395.296 78.9321 395.296 79.2593C395.296 79.5866 395.562 79.8519 395.889 79.8519C396.216 79.8519 396.481 80.1172 396.481 80.4445V82.7784C396.481 83.2455 396.664 83.6783 396.968 84.0001C396.664 84.3219 396.481 84.7546 396.481 85.2218V87.5556C396.481 87.8829 396.216 88.1482 395.889 88.1482C395.562 88.1482 395.296 88.4135 395.296 88.7408C395.296 89.0681 395.562 89.3334 395.889 89.3334C396.871 89.3334 397.667 88.5375 397.667 87.5556V85.2218C397.667 84.9498 397.852 84.7128 398.116 84.6468L398.403 84.575C398.667 84.5091 398.852 84.272 398.852 84.0001C398.852 83.7281 398.667 83.4911 398.403 83.4252L398.116 83.3533C397.852 83.2874 397.667 83.0503 397.667 82.7784V80.4445Z"
				fill="#2563EB"
			/>
			<text
				fill="var(--clr-scale-ntrl-0)"
				xml:space="preserve"
				style="white-space: pre"
				font-family="Inter"
				font-size="12"
				font-weight="500"
				letter-spacing="0em"
			>
				<tspan x="407" y="88.3636">routes.json</tspan>
			</text>
			<text
				opacity="0.3"
				fill="var(--clr-scale-ntrl-0)"
				xml:space="preserve"
				style="white-space: pre"
				font-family="Inter"
				font-size="12"
				letter-spacing="0em"
			>
				<tspan x="477" y="88.3636">src/routes/data</tspan>
			</text>
			<mask id="path-78-inside-9_20_212142" fill="var(--clr-bg-1)">
				<path d="M371 100H707V132H371V100Z" />
			</mask>
			<path d="M371 100H707V132H371V100Z" fill="var(--clr-bg-1)" />
			<path
				d="M707 132V131H371V132V133H707V132Z"
				fill="var(--clr-border-3)"
				mask="url(#path-78-inside-9_20_212142)"
			/>
			<path
				d="M392.687 109.333C393.315 109.333 393.824 109.866 393.824 110.521C393.824 110.637 393.808 110.747 393.778 110.853L396.411 112.439C396.618 112.214 396.91 112.072 397.233 112.072C397.862 112.072 398.371 112.605 398.371 113.261C398.371 113.82 398.001 114.287 397.503 114.413V117.586C398.001 117.712 398.371 118.18 398.371 118.739C398.371 119.395 397.862 119.927 397.233 119.927C396.91 119.927 396.618 119.786 396.411 119.56L393.778 121.146C393.808 121.251 393.824 121.363 393.824 121.479C393.824 122.134 393.315 122.667 392.687 122.667C392.058 122.667 391.548 122.135 391.548 121.479C391.548 121.363 391.563 121.251 391.593 121.146L388.96 119.56C388.753 119.785 388.462 119.927 388.139 119.927C387.51 119.927 387 119.395 387 118.739C387 118.18 387.37 117.711 387.869 117.585V114.414C387.371 114.288 387 113.82 387 113.261C387 112.605 387.51 112.072 388.139 112.072C388.462 112.072 388.753 112.214 388.96 112.439L391.593 110.854C391.563 110.748 391.548 110.637 391.548 110.521C391.548 109.865 392.058 109.333 392.687 109.333ZM389.23 119.071L391.863 120.657C392.071 120.431 392.363 120.291 392.687 120.291C393.009 120.291 393.301 120.432 393.508 120.657L396.14 119.071C396.135 119.055 396.133 119.038 396.129 119.021H389.243C389.239 119.038 389.235 119.055 389.23 119.071ZM393.005 111.66C392.904 111.691 392.797 111.709 392.687 111.709C392.576 111.709 392.469 111.691 392.367 111.66L388.925 117.882C389.079 118.036 389.191 118.234 389.243 118.457H396.129C396.181 118.234 396.292 118.035 396.446 117.881L393.005 111.66ZM389.23 112.928C389.26 113.033 389.276 113.145 389.276 113.261C389.276 113.819 388.907 114.286 388.409 114.413V117.586C388.425 117.59 388.441 117.594 388.457 117.599L391.898 111.378C391.887 111.366 391.875 111.354 391.863 111.342L389.23 112.928ZM393.508 111.342C393.496 111.354 393.485 111.366 393.473 111.378L396.914 117.599C396.93 117.594 396.947 117.59 396.963 117.586V114.413C396.465 114.286 396.095 113.819 396.095 113.261C396.095 113.145 396.11 113.033 396.14 112.928L393.508 111.342Z"
				fill="#F472B6"
			/>
			<text
				fill="var(--clr-scale-ntrl-0)"
				xml:space="preserve"
				style="white-space: pre"
				font-family="Inter"
				font-size="12"
				font-weight="500"
				letter-spacing="0em"
			>
				<tspan x="407" y="120.364">queries.graphql</tspan>
			</text>
			<text
				opacity="0.3"
				fill="var(--clr-scale-ntrl-0)"
				xml:space="preserve"
				style="white-space: pre"
				font-family="Inter"
				font-size="12"
				letter-spacing="0em"
			>
				<tspan x="503" y="120.364">src/routes/[project-s&#x2026;/stories</tspan>
			</text>
			<mask id="path-83-inside-10_20_212142" fill="var(--clr-bg-1)">
				<path d="M371 132H707V164H371V132Z" />
			</mask>
			<path d="M371 132H707V164H371V132Z" fill="var(--clr-bg-1)" />
			<path
				d="M707 164V163H371V164V165H707V164Z"
				fill="var(--clr-border-3)"
				mask="url(#path-83-inside-10_20_212142)"
			/>
			<path
				d="M387.156 146.062V144.879H392.731V146.062H390.653V151.667H389.234V146.062H387.156Z"
				fill="#2563EB"
			/>
			<path
				d="M397.331 146.831C397.305 146.564 397.191 146.356 396.99 146.208C396.789 146.06 396.516 145.986 396.171 145.986C395.937 145.986 395.739 146.019 395.578 146.085C395.417 146.149 395.293 146.239 395.207 146.354C395.123 146.468 395.081 146.599 395.081 146.745C395.077 146.866 395.102 146.972 395.157 147.063C395.215 147.153 395.293 147.232 395.393 147.298C395.492 147.362 395.607 147.419 395.737 147.467C395.868 147.514 396.007 147.553 396.155 147.587L396.765 147.732C397.061 147.799 397.333 147.887 397.58 147.998C397.827 148.108 398.042 148.244 398.223 148.405C398.404 148.567 398.545 148.757 398.644 148.975C398.746 149.194 398.798 149.445 398.8 149.728C398.798 150.143 398.691 150.503 398.482 150.808C398.274 151.111 397.973 151.346 397.58 151.514C397.189 151.68 396.717 151.763 396.165 151.763C395.617 151.763 395.14 151.679 394.733 151.511C394.329 151.343 394.013 151.094 393.785 150.765C393.56 150.434 393.441 150.024 393.43 149.535H394.819C394.835 149.763 394.9 149.953 395.015 150.105C395.132 150.256 395.288 150.37 395.482 150.447C395.679 150.522 395.901 150.56 396.148 150.56C396.391 150.56 396.602 150.524 396.781 150.454C396.962 150.383 397.103 150.284 397.202 150.159C397.302 150.033 397.351 149.888 397.351 149.724C397.351 149.572 397.306 149.444 397.215 149.34C397.127 149.236 396.997 149.148 396.824 149.075C396.654 149.002 396.445 148.936 396.198 148.876L395.459 148.69C394.887 148.551 394.435 148.333 394.103 148.037C393.772 147.741 393.607 147.342 393.609 146.841C393.607 146.43 393.717 146.071 393.938 145.764C394.161 145.457 394.467 145.217 394.856 145.044C395.244 144.872 395.686 144.786 396.181 144.786C396.685 144.786 397.125 144.872 397.5 145.044C397.878 145.217 398.172 145.457 398.382 145.764C398.592 146.071 398.7 146.427 398.707 146.831H397.331Z"
				fill="#2563EB"
			/>
			<text
				fill="var(--clr-scale-ntrl-0)"
				xml:space="preserve"
				style="white-space: pre"
				font-family="Inter"
				font-size="12"
				font-weight="500"
				letter-spacing="0em"
			>
				<tspan x="407" y="152.364">post.types.ts</tspan>
			</text>
			<text
				opacity="0.3"
				fill="var(--clr-scale-ntrl-0)"
				xml:space="preserve"
				style="white-space: pre"
				font-family="Inter"
				font-size="12"
				letter-spacing="0em"
			>
				<tspan x="489" y="152.364">src/routes/stories</tspan>
			</text>
		</g>
		<rect x="371.5" y="28.5" width="335" height="135" stroke="var(--clr-border-2)" />
		<rect width="336" height="56" transform="translate(371 164)" fill="var(--clr-bg-1)" />
		<path
			d="M385 187.84C385 184.253 385 182.459 385.742 181.109C386.291 180.112 387.112 179.291 388.109 178.742C389.459 178 391.253 178 394.84 178H683.16C686.747 178 688.541 178 689.891 178.742C690.888 179.291 691.709 180.112 692.258 181.109C693 182.459 693 184.253 693 187.84V196.16C693 199.747 693 201.541 692.258 202.891C691.709 203.888 690.888 204.709 689.891 205.258C688.541 206 686.747 206 683.16 206H394.84C391.253 206 389.459 206 388.109 205.258C387.112 204.709 386.291 203.888 385.742 202.891C385 201.541 385 199.747 385 196.16V187.84Z"
			fill="var(--clr-theme-pop-element)"
		/>
		<text
			fill="var(--clr-theme-pop-on-element)"
			xml:space="preserve"
			style="white-space: pre"
			font-family="Inter"
			font-size="12"
			font-weight="500"
			letter-spacing="0em"
		>
			<tspan x="491.5" y="196.364">Start a commit&#x2026;</tspan>
		</text>
	</g>
	<path
		d="M381 28.5H697C702.247 28.5 706.5 32.7533 706.5 38V210C706.5 215.247 702.247 219.5 697 219.5H381C375.753 219.5 371.5 215.247 371.5 210V38C371.5 32.9174 375.491 28.7673 380.511 28.5127L381 28.5Z"
		stroke="var(--clr-border-2)"
	/>
	<g clip-path="url(#clip9_20_212142)">
		<path
			d="M371 240C371 234.477 375.477 230 381 230H697C702.523 230 707 234.477 707 240V332C707 337.523 702.523 342 697 342H381C375.477 342 371 337.523 371 332V240Z"
			fill="var(--clr-bg-2)"
		/>
		<mask id="path-92-inside-11_20_212142" fill="var(--clr-bg-1)">
			<path
				d="M371 240C371 234.477 375.477 230 381 230H697C702.523 230 707 234.477 707 240V300H371V240Z"
			/>
		</mask>
		<path
			d="M371 240C371 234.477 375.477 230 381 230H697C702.523 230 707 234.477 707 240V300H371V240Z"
			fill="var(--clr-bg-1)"
		/>
		<path
			d="M370 240C370 233.925 374.925 229 381 229H697C703.075 229 708 233.925 708 240H706C706 235.029 701.971 231 697 231H381C376.029 231 372 235.029 372 240H370ZM707 300H371H707ZM370 300V240C370 233.925 374.925 229 381 229V231C376.029 231 372 235.029 372 240V300H370ZM697 229C703.075 229 708 233.925 708 240V300H706V240C706 235.029 701.971 231 697 231V229Z"
			fill="var(--clr-border-2)"
			mask="url(#path-92-inside-11_20_212142)"
		/>
		<rect x="385" y="244" width="20" height="20" rx="6" fill="var(--clr-scale-ntrl-50)" />
		<path
			d="M391.5 259.75H390V248.75H391.5V259.75ZM397.25 248.5C399.045 248.5 400.5 249.955 400.5 251.75C400.5 253.35 399.344 254.678 397.822 254.948C397.34 256.462 395.924 257.559 394.25 257.559H394V256.059H394.25C395.12 256.059 395.873 255.564 396.247 254.841C394.943 254.418 394 253.195 394 251.75C394 249.955 395.455 248.5 397.25 248.5ZM397.25 250C396.284 250 395.5 250.784 395.5 251.75C395.5 252.716 396.284 253.5 397.25 253.5C398.216 253.5 399 252.716 399 251.75C399 250.784 398.216 250 397.25 250Z"
			fill="white"
		/>
		<text
			fill="var(--clr-text-1)"
			xml:space="preserve"
			style="white-space: pre"
			font-family="Inter"
			font-size="15"
			font-weight="600"
			letter-spacing="0em"
		>
			<tspan x="415" y="259.455">some-bugfix</tspan>
		</text>
		<text
			fill="var(--clr-scale-ntrl-50)"
			xml:space="preserve"
			style="white-space: pre"
			font-family="Inter"
			font-size="12"
			letter-spacing="0em"
		>
			<tspan x="385" y="283.364">Unpushed</tspan>
		</text>
		<text
			fill="var(--clr-btn-ntrl-outline)"
			xml:space="preserve"
			style="white-space: pre"
			font-family="Inter"
			font-size="12"
			letter-spacing="0em"
		>
			<tspan x="449" y="283.364">&#x2022;</tspan>
		</text>
		<text
			fill="var(--clr-scale-ntrl-50)"
			xml:space="preserve"
			style="white-space: pre"
			font-family="Inter"
			font-size="12"
			letter-spacing="0em"
		>
			<tspan x="462" y="283.364">20 min ago</tspan>
		</text>
		<mask id="path-100-inside-12_20_212142" fill="var(--clr-bg-1)">
			<path d="M371 300H707V342H371V300Z" />
		</mask>
		<path d="M371 300H707V342H371V300Z" fill="var(--clr-bg-2)" />
		<path
			d="M371 300V299H370V300H371ZM707 300H708V299H707V300ZM371 300V301H707V300V299H371V300ZM707 300H706V342H707H708V300H707ZM371 342H372V300H371H370V342H371Z"
			fill="var(--clr-border-2)"
			mask="url(#path-100-inside-12_20_212142)"
		/>
	</g>
	<path
		d="M381 230.5H697C702.247 230.5 706.5 234.753 706.5 240V332C706.5 337.247 702.247 341.5 697 341.5H381C375.753 341.5 371.5 337.247 371.5 332V240C371.5 234.917 375.491 230.767 380.511 230.513L381 230.5Z"
		stroke="var(--clr-border-2)"
	/>
	<defs>
		<clipPath id="clip0_20_212142">
			<rect width="360" height="700" fill="var(--clr-bg-1)" />
		</clipPath>
		<clipPath id="clip1_20_212142">
			<path
				d="M26 92C26 88.6863 28.6863 86 32 86H328C331.314 86 334 88.6863 334 92V108C334 111.314 331.314 114 328 114H32C28.6863 114 26 111.314 26 108V92Z"
				fill="var(--clr-bg-1)"
			/>
		</clipPath>
		<clipPath id="clip2_20_212142">
			<path
				d="M12 148C12 142.477 16.4772 138 22 138H338C343.523 138 348 142.477 348 148V328C348 333.523 343.523 338 338 338H22C16.4772 338 12 333.523 12 328V148Z"
				fill="var(--clr-bg-1)"
			/>
		</clipPath>
		<clipPath id="clip3_20_212142">
			<path
				d="M22 224C22 220.686 24.6863 218 28 218H40C43.3137 218 46 220.686 46 224V234C46 237.314 43.3137 240 40 240H28C24.6863 240 22 237.314 22 234V224Z"
				fill="var(--clr-bg-1)"
			/>
		</clipPath>
		<clipPath id="clip4_20_212142">
			<path
				d="M52 224C52 220.686 54.6863 218 58 218H129C132.314 218 135 220.686 135 224V234C135 237.314 132.314 240 129 240H58C54.6863 240 52 237.314 52 234V224Z"
				fill="var(--clr-bg-1)"
			/>
		</clipPath>
		<clipPath id="clip5_20_212142">
			<path
				d="M12 250H348V328C348 333.523 343.523 338 338 338H22C16.4772 338 12 333.523 12 328V250Z"
				fill="var(--clr-bg-1)"
			/>
		</clipPath>
		<clipPath id="clip6_20_212142">
			<path
				d="M371 38C371 32.4771 375.477 28 381 28H697C702.523 28 707 32.4772 707 38V210C707 215.523 702.523 220 697 220H381C375.477 220 371 215.523 371 210V38Z"
				fill="var(--clr-bg-1)"
			/>
		</clipPath>
		<clipPath id="clip7_20_212142">
			<rect x="371" y="28" width="336" height="136" fill="var(--clr-bg-1)" />
		</clipPath>
		<clipPath id="clip8_20_212142">
			<path
				d="M641 43C641 39.6863 643.686 37 647 37H691C694.314 37 697 39.6863 697 43V53C697 56.3137 694.314 59 691 59H647C643.686 59 641 56.3137 641 53V43Z"
				fill="var(--clr-bg-1)"
			/>
		</clipPath>
		<clipPath id="clip9_20_212142">
			<path
				d="M371 240C371 234.477 375.477 230 381 230H697C702.523 230 707 234.477 707 240V332C707 337.523 702.523 342 697 342H381C375.477 342 371 337.523 371 332V240Z"
				fill="var(--clr-bg-1)"
			/>
		</clipPath>
	</defs>
</svg>