<svg width="300" height="304" viewBox="0 0 300 304" fill="none" xmlns="http://www.w3.org/2000/svg">
  <g clip-path="url(#clip0_13_115348)">
    <path
      d="M0 10C0 4.47716 4.47715 0 10 0H290C295.523 0 300 4.47715 300 10V332C300 337.523 295.523 342 290 342H10C4.47716 342 0 337.523 0 332V10Z"
      fill="var(--clr-bg-1)" />
    <mask id="path-3-inside-1_13_115348" fill="var(--clr-bg-1)">
      <path d="M0 0H300V40H0V0Z" />
    </mask>
    <path d="M0 0H300V40H0V0Z" fill="var(--clr-bg-2)" />
    <path d="M300 40V39H0V40V41H300V40Z" fill="var(--clr-border-2)"
      mask="url(#path-3-inside-1_13_115348)" />
    <rect x="11.75" y="15.25" width="12.5" height="10.5" rx="3.25" stroke="var(--clr-text-2)"
      stroke-width="1.5" />
    <path
      d="M15 15.25H19.25V25.75H15C13.2051 25.75 11.75 24.2949 11.75 22.5V18.5C11.75 16.7051 13.2051 15.25 15 15.25Z"
      stroke="var(--clr-text-2)" stroke-width="1.5" />
    <text fill="var(--clr-text-1)" xml:space="preserve" style="white-space: pre" font-family="Inter"
      font-size="14" font-weight="500" letter-spacing="0em"><tspan x="33" y="25.0909">Rules</tspan></text>
    <g clip-path="url(#clip1_13_115348)">
      <text fill="var(--clr-btn-gray-outline-text)" xml:space="preserve" style="white-space: pre"
        font-family="Inter"
        font-size="11" font-weight="500" letter-spacing="0em"><tspan x="222" y="24">Add rule</tspan></text>
      <g opacity="0.7">
        <path fill-rule="evenodd" clip-rule="evenodd"
          d="M277.25 19.25V15H278.75V19.25H283V20.75H278.75V25H277.25V20.75H273V19.25H277.25Z"
          fill="var(--clr-btn-gray-outline-text)" />
      </g>
      <path opacity="0.4"
        d="M221 9.5H284C287.038 9.5 289.5 11.9624 289.5 15V25C289.5 28.0376 287.038 30.5 284 30.5H221C217.962 30.5 215.5 28.0376 215.5 25V15C215.5 11.9624 217.962 9.5 221 9.5Z"
        stroke="var(--clr-text-2)" />
    </g>
    <mask id="path-12-inside-2_13_115348" fill="var(--clr-bg-1)">
      <path d="M0 40H300V80H0V40Z" />
    </mask>
    <path d="M0 40H300V80H0V40Z" fill="var(--clr-bg-2)" />
    <path d="M300 80V79H0V80V81H300V80Z" fill="var(--clr-border-2)"
      mask="url(#path-12-inside-2_13_115348)" />
    <text fill="var(--clr-text-1)" xml:space="preserve" style="white-space: pre" font-family="Inter"
      font-size="14" font-weight="500" letter-spacing="0em"><tspan x="14" y="65.0909">Unassigned</tspan></text>
    <rect x="100" y="52" width="16" height="16" rx="8" fill="var(--clr-theme-gray-element)" />
    <text fill="var(--clr-bg-1)" xml:space="preserve" style="white-space: pre" font-family="Inter"
      font-size="11" font-weight="500" letter-spacing="0em"><tspan x="104.815" y="64">7</tspan></text>
    <g clip-path="url(#clip2_13_115348)">
      <path
        d="M234 55C234 51.6863 236.686 49 240 49H284C287.314 49 290 51.6863 290 55V65C290 68.3137 287.314 71 284 71H240C236.686 71 234 68.3137 234 65V55Z"
        fill="var(--clr-bg-2)" />
      <path
        d="M240 49.5H256C259.038 49.5 261.5 51.9624 261.5 55V65C261.5 68.0376 259.038 70.5 256 70.5H240C236.962 70.5 234.5 68.0376 234.5 65V55C234.5 51.9624 236.962 49.5 240 49.5Z"
        fill="var(--clr-bg-1)" />
      <path
        d="M240 49.5H256C259.038 49.5 261.5 51.9624 261.5 55V65C261.5 68.0376 259.038 70.5 256 70.5H240C236.962 70.5 234.5 68.0376 234.5 65V55C234.5 51.9624 236.962 49.5 240 49.5Z"
        stroke="var(--clr-border-2)" />
      <path fill-rule="evenodd" clip-rule="evenodd" d="M242 55.25H254V56.75H242V55.25Z"
        fill="var(--clr-text-2)" />
      <path fill-rule="evenodd" clip-rule="evenodd" d="M242 59.25H254V60.75H242V59.25Z"
        fill="var(--clr-text-2)" />
      <path fill-rule="evenodd" clip-rule="evenodd" d="M242 63.25H254V64.75H242V63.25Z"
        fill="var(--clr-text-2)" />
      <rect width="28" height="22" transform="translate(262 49)" fill="var(--clr-bg-2)" />
      <path fill-rule="evenodd" clip-rule="evenodd"
        d="M271.75 58.75V55H270.25V63C270.25 63.9665 271.034 64.75 272 64.75H276V63.25H272C271.862 63.25 271.75 63.1381 271.75 63V60.25H276V58.75H271.75Z"
        fill="var(--clr-text-2)" />
      <path
        d="M277 57.5C277 57.2239 277.224 57 277.5 57H279.096C279.372 57 279.596 57.2239 279.596 57.5H281C281.552 57.5 282 57.9477 282 58.5V59.5C282 60.0523 281.552 60.5 281 60.5H278C277.448 60.5 277 60.0523 277 59.5V57.5Z"
        fill="var(--clr-text-2)" />
      <path
        d="M277 62C277 61.7239 277.224 61.5 277.5 61.5H279.096C279.372 61.5 279.596 61.7239 279.596 62H281C281.552 62 282 62.4477 282 63V64C282 64.5523 281.552 65 281 65H278C277.448 65 277 64.5523 277 64V62Z"
        fill="var(--clr-text-2)" />
      <path d="M290 54V66" stroke="var(--clr-border-2)" />
    </g>
    <path
      d="M240 49.5H284C287.038 49.5 289.5 51.9624 289.5 55V65C289.5 68.0376 287.038 70.5 284 70.5H240C236.962 70.5 234.5 68.0376 234.5 65V55C234.5 51.9624 236.962 49.5 240 49.5Z"
      stroke="var(--clr-border-2)" />
    <mask id="path-23-inside-3_13_115348" fill="var(--clr-bg-1)">
      <path d="M0 80H300V112H0V80Z" />
    </mask>
    <path d="M0 80H300V112H0V80Z" fill="var(--clr-bg-1)" />
    <path d="M300 112V111H0V112V113H300V112Z" fill="var(--clr-border-3)"
      mask="url(#path-23-inside-3_13_115348)" />
    <path
      d="M17.1852 92.4445C17.1852 91.4627 17.9811 90.6667 18.963 90.6667C19.2902 90.6667 19.5556 90.9321 19.5556 91.2593C19.5556 91.5866 19.2902 91.8519 18.963 91.8519C18.6357 91.8519 18.3704 92.1172 18.3704 92.4445V94.7784C18.3704 95.2455 18.1883 95.6783 17.8841 96.0001C18.1883 96.3219 18.3704 96.7546 18.3704 97.2218V99.5556C18.3704 99.8829 18.6357 100.148 18.963 100.148C19.2902 100.148 19.5556 100.414 19.5556 100.741C19.5556 101.068 19.2902 101.333 18.963 101.333C17.9811 101.333 17.1852 100.538 17.1852 99.5556V97.2218C17.1852 96.9498 17.0001 96.7128 16.7363 96.6468L16.4489 96.575C16.1851 96.5091 16 96.272 16 96.0001C16 95.7281 16.1851 95.4911 16.4489 95.4252L16.7363 95.3533C17.0001 95.2874 17.1852 95.0503 17.1852 94.7784V92.4445ZM26.6667 92.4445C26.6667 91.4627 25.8708 90.6667 24.8889 90.6667C24.5616 90.6667 24.2963 90.9321 24.2963 91.2593C24.2963 91.5866 24.5616 91.8519 24.8889 91.8519C25.2162 91.8519 25.4815 92.1172 25.4815 92.4445V94.7784C25.4815 95.2455 25.6635 95.6783 25.9677 96.0001C25.6635 96.3219 25.4815 96.7546 25.4815 97.2218V99.5556C25.4815 99.8829 25.2162 100.148 24.8889 100.148C24.5616 100.148 24.2963 100.414 24.2963 100.741C24.2963 101.068 24.5616 101.333 24.8889 101.333C25.8708 101.333 26.6667 100.538 26.6667 99.5556V97.2218C26.6667 96.9498 26.8517 96.7128 27.1156 96.6468L27.403 96.575C27.6668 96.5091 27.8519 96.272 27.8519 96.0001C27.8519 95.7281 27.6668 95.4911 27.403 95.4252L27.1156 95.3533C26.8517 95.2874 26.6667 95.0503 26.6667 94.7784V92.4445Z"
      fill="#2563EB" />
    <text fill="var(--clr-text-1)" xml:space="preserve" style="white-space: pre"
      font-family="Inter"
      font-size="12" font-weight="500" letter-spacing="0em"><tspan x="36" y="100.364">tokens.json</tspan></text>
    <text opacity="0.3" fill="var(--clr-text-1)" xml:space="preserve" style="white-space: pre"
      font-family="Inter" font-size="12" letter-spacing="0em"><tspan x="108" y="100.364">src/routes</tspan></text>
    <mask id="path-28-inside-4_13_115348" fill="var(--clr-bg-1)">
      <path d="M0 112H300V144H0V112Z" />
    </mask>
    <path d="M0 112H300V144H0V112Z" fill="var(--clr-bg-1)" />
    <path d="M300 144V143H0V144V145H300V144Z" fill="var(--clr-border-3)"
      mask="url(#path-28-inside-4_13_115348)" />
    <path
      d="M22.2258 121.462C22.9859 121.256 23.7891 121.299 24.5233 121.583L24.6594 121.638C25.3281 121.927 25.8961 122.407 26.3026 123.012H26.3033C26.5772 123.413 26.7697 123.863 26.8723 124.337L26.9068 124.515C26.9764 124.932 26.9759 125.359 26.9048 125.777L26.9029 125.786C26.8747 125.945 26.8364 126.102 26.7876 126.256L26.787 126.255L26.7303 126.438C26.6474 126.702 26.4849 126.929 26.2714 127.094C26.4763 127.44 26.6255 127.817 26.7108 128.211L26.7447 128.389C26.8143 128.807 26.8139 129.234 26.7427 129.652L26.7421 129.654C26.67 130.073 26.5251 130.477 26.313 130.845L26.218 131.001C25.9536 131.41 25.6073 131.761 25.1991 132.029L25.1984 132.029L22.1229 134.074L22.1223 134.075C21.852 134.254 21.5586 134.396 21.2499 134.495L21.1164 134.535C21.1134 134.536 21.1104 134.537 21.1073 134.538C20.3947 134.731 19.6445 134.706 18.9484 134.468L18.8104 134.417C18.0825 134.136 17.4643 133.633 17.0305 132.987L17.0298 132.988C16.7559 132.587 16.5633 132.137 16.4608 131.663C16.3583 131.19 16.3476 130.7 16.4289 130.223L16.4296 130.216L17.5318 130.409L16.4302 130.216C16.4583 130.056 16.4969 129.898 16.5461 129.743L16.6027 129.562L16.66 129.411C16.7506 129.211 16.8896 129.038 17.0611 128.906C16.8869 128.612 16.7529 128.296 16.6646 127.965L16.6216 127.789C16.5191 127.315 16.5084 126.826 16.5897 126.348L16.5904 126.346L16.6255 126.167C16.7185 125.752 16.8837 125.356 17.1151 124.999L17.2186 124.848C17.4322 124.553 17.6898 124.291 17.9843 124.075L18.1346 123.971L21.2102 121.926L21.2108 121.925L21.328 121.851C21.6048 121.682 21.9037 121.552 22.2167 121.465L22.2258 121.462ZM24.0422 122.826C23.5722 122.644 23.0598 122.617 22.5747 122.749L22.4107 122.801C22.2487 122.861 22.0936 122.939 21.9484 123.036L18.8658 125.086L18.7733 125.15C18.5621 125.305 18.3798 125.499 18.2349 125.723L18.175 125.82C18.0418 126.051 17.95 126.306 17.9042 126.572C17.8515 126.882 17.8586 127.2 17.925 127.506C17.9915 127.813 18.1162 128.104 18.2915 128.36C18.5772 128.79 18.9824 129.118 19.4524 129.299C19.9222 129.481 20.4341 129.508 20.9192 129.376C21.0854 129.33 21.2462 129.265 21.3977 129.18L21.5455 129.09L22.7219 128.307C22.7803 128.269 22.8445 128.239 22.9113 128.221C23.0574 128.181 23.2119 128.189 23.3534 128.244C23.495 128.299 23.617 128.398 23.703 128.528L23.7395 128.587C23.7733 128.649 23.798 128.716 23.813 128.785C23.833 128.877 23.8353 128.973 23.8195 129.066L23.8046 129.134C23.786 129.201 23.7574 129.264 23.7199 129.322L23.6796 129.378C23.6368 129.431 23.5863 129.477 23.5298 129.514L20.4478 131.564L20.356 131.615C20.3244 131.63 20.2918 131.642 20.2583 131.651L20.1477 131.672C20.0731 131.68 19.9978 131.676 19.9244 131.66L19.8163 131.628C19.7101 131.586 19.6149 131.521 19.5376 131.435L19.4667 131.344C19.3725 131.205 19.3284 131.036 19.3423 130.866L19.3527 130.747L19.2382 130.711C18.8051 130.574 18.3976 130.362 18.0331 130.082L17.8749 129.961L17.8169 130.146C17.7858 130.245 17.7612 130.345 17.7434 130.447C17.6906 130.756 17.6977 131.074 17.7642 131.381C17.8307 131.688 17.9549 131.978 18.1301 132.234C18.4157 132.664 18.8211 132.992 19.2909 133.174C19.7022 133.333 20.1459 133.373 20.5754 133.293L20.7583 133.251C20.9246 133.205 21.0848 133.138 21.2362 133.054L21.3846 132.964L24.4673 130.915C24.6865 130.771 24.8784 130.586 25.0337 130.371L25.0982 130.277C25.2429 130.053 25.3467 129.804 25.4055 129.542L25.4283 129.428C25.4745 129.157 25.4748 128.879 25.4296 128.609L25.4074 128.493C25.3409 128.186 25.2163 127.896 25.0409 127.64C24.7909 127.264 24.4495 126.966 24.0533 126.775L23.8801 126.7C23.4102 126.519 22.8983 126.492 22.4133 126.624C22.1917 126.685 21.9804 126.782 21.787 126.911L20.6106 127.693L20.5194 127.743C20.4878 127.758 20.4552 127.77 20.4218 127.779L20.3104 127.799C20.236 127.807 20.161 127.803 20.0878 127.788L19.9797 127.756C19.8735 127.715 19.7777 127.649 19.7004 127.564L19.6294 127.472C19.5899 127.414 19.5591 127.35 19.5376 127.283L19.5194 127.215C19.4994 127.122 19.497 127.026 19.5129 126.933C19.5287 126.842 19.5628 126.755 19.6125 126.678C19.6499 126.62 19.6956 126.568 19.7479 126.525L19.8026 126.486L22.8859 124.435C22.9443 124.396 23.008 124.367 23.0747 124.349C23.2208 124.309 23.3753 124.317 23.5168 124.372C23.6583 124.426 23.7804 124.525 23.8664 124.655C23.9606 124.794 24.0046 124.964 23.9908 125.133L23.9803 125.253L24.0949 125.289L24.2564 125.344C24.6296 125.48 24.9817 125.673 25.3007 125.918L25.4582 126.039L25.5162 125.853C25.5472 125.755 25.5724 125.655 25.5904 125.553C25.6431 125.243 25.636 124.925 25.5695 124.618C25.5031 124.312 25.3782 124.022 25.203 123.766C24.9531 123.39 24.6115 123.091 24.2154 122.901L24.0422 122.826Z"
      fill="#EA580C" />
    <text fill="var(--clr-text-1)" xml:space="preserve" style="white-space: pre"
      font-family="Inter"
      font-size="12" font-weight="500" letter-spacing="0em"><tspan x="36" y="132.364">index.svelte</tspan></text>
    <text opacity="0.3" fill="var(--clr-text-1)" xml:space="preserve" style="white-space: pre"
      font-family="Inter" font-size="12" letter-spacing="0em"><tspan x="112" y="132.364">src/routes</tspan></text>
    <mask id="path-33-inside-5_13_115348" fill="var(--clr-bg-1)">
      <path d="M0 144H300V176H0V144Z" />
    </mask>
    <path d="M0 144H300V176H0V144Z" fill="var(--clr-bg-1)" />
    <path d="M300 176V175H0V176V177H300V176Z" fill="var(--clr-border-3)"
      mask="url(#path-33-inside-5_13_115348)" />
    <path
      d="M22.2258 153.462C22.9859 153.256 23.7891 153.299 24.5233 153.583L24.6594 153.638C25.3281 153.927 25.8961 154.407 26.3026 155.012H26.3033C26.5772 155.413 26.7697 155.863 26.8723 156.337L26.9068 156.515C26.9764 156.932 26.9759 157.359 26.9048 157.777L26.9029 157.786C26.8747 157.945 26.8364 158.102 26.7876 158.256L26.787 158.255L26.7303 158.438C26.6474 158.702 26.4849 158.929 26.2714 159.094C26.4763 159.44 26.6255 159.817 26.7108 160.211L26.7447 160.389C26.8143 160.807 26.8139 161.234 26.7427 161.652L26.7421 161.654C26.67 162.073 26.5251 162.477 26.313 162.845L26.218 163.001C25.9536 163.41 25.6073 163.761 25.1991 164.029L25.1984 164.029L22.1229 166.074L22.1223 166.075C21.852 166.254 21.5586 166.396 21.2499 166.495L21.1164 166.535C21.1134 166.536 21.1104 166.537 21.1073 166.538C20.3947 166.731 19.6445 166.706 18.9484 166.468L18.8104 166.417C18.0825 166.136 17.4643 165.633 17.0305 164.987L17.0298 164.988C16.7559 164.587 16.5633 164.137 16.4608 163.663C16.3583 163.19 16.3476 162.7 16.4289 162.223L16.4296 162.216L17.5318 162.409L16.4302 162.216C16.4583 162.056 16.4969 161.898 16.5461 161.743L16.6027 161.562L16.66 161.411C16.7506 161.211 16.8896 161.038 17.0611 160.906C16.8869 160.612 16.7529 160.296 16.6646 159.965L16.6216 159.789C16.5191 159.315 16.5084 158.826 16.5897 158.348L16.5904 158.346L16.6255 158.167C16.7185 157.752 16.8837 157.356 17.1151 156.999L17.2186 156.848C17.4322 156.553 17.6898 156.291 17.9843 156.075L18.1346 155.971L21.2102 153.926L21.2108 153.925L21.328 153.851C21.6048 153.682 21.9037 153.552 22.2167 153.465L22.2258 153.462ZM24.0422 154.826C23.5722 154.644 23.0598 154.617 22.5747 154.749L22.4107 154.801C22.2487 154.861 22.0936 154.939 21.9484 155.036L18.8658 157.086L18.7733 157.15C18.5621 157.305 18.3798 157.499 18.2349 157.723L18.175 157.82C18.0418 158.051 17.95 158.306 17.9042 158.572C17.8515 158.882 17.8586 159.2 17.925 159.506C17.9915 159.813 18.1162 160.104 18.2915 160.36C18.5772 160.79 18.9824 161.118 19.4524 161.299C19.9222 161.481 20.4341 161.508 20.9192 161.376C21.0854 161.33 21.2462 161.265 21.3977 161.18L21.5455 161.09L22.7219 160.307C22.7803 160.269 22.8445 160.239 22.9113 160.221C23.0574 160.181 23.2119 160.189 23.3534 160.244C23.495 160.299 23.617 160.398 23.703 160.528L23.7395 160.587C23.7733 160.649 23.798 160.716 23.813 160.785C23.833 160.877 23.8353 160.973 23.8195 161.066L23.8046 161.134C23.786 161.201 23.7574 161.264 23.7199 161.322L23.6796 161.378C23.6368 161.431 23.5863 161.477 23.5298 161.514L20.4478 163.564L20.356 163.615C20.3244 163.63 20.2918 163.642 20.2583 163.651L20.1477 163.672C20.0731 163.68 19.9978 163.676 19.9244 163.66L19.8163 163.628C19.7101 163.586 19.6149 163.521 19.5376 163.435L19.4667 163.344C19.3725 163.205 19.3284 163.036 19.3423 162.866L19.3527 162.747L19.2382 162.711C18.8051 162.574 18.3976 162.362 18.0331 162.082L17.8749 161.961L17.8169 162.146C17.7858 162.245 17.7612 162.345 17.7434 162.447C17.6906 162.756 17.6977 163.074 17.7642 163.381C17.8307 163.688 17.9549 163.978 18.1301 164.234C18.4157 164.664 18.8211 164.992 19.2909 165.174C19.7022 165.333 20.1459 165.373 20.5754 165.293L20.7583 165.251C20.9246 165.205 21.0848 165.138 21.2362 165.054L21.3846 164.964L24.4673 162.915C24.6865 162.771 24.8784 162.586 25.0337 162.371L25.0982 162.277C25.2429 162.053 25.3467 161.804 25.4055 161.542L25.4283 161.428C25.4745 161.157 25.4748 160.879 25.4296 160.609L25.4074 160.493C25.3409 160.186 25.2163 159.896 25.0409 159.64C24.7909 159.264 24.4495 158.966 24.0533 158.775L23.8801 158.7C23.4102 158.519 22.8983 158.492 22.4133 158.624C22.1917 158.685 21.9804 158.782 21.787 158.911L20.6106 159.693L20.5194 159.743C20.4878 159.758 20.4552 159.77 20.4218 159.779L20.3104 159.799C20.236 159.807 20.161 159.803 20.0878 159.788L19.9797 159.756C19.8735 159.715 19.7777 159.649 19.7004 159.564L19.6294 159.472C19.5899 159.414 19.5591 159.35 19.5376 159.283L19.5194 159.215C19.4994 159.122 19.497 159.026 19.5129 158.933C19.5287 158.842 19.5628 158.755 19.6125 158.678C19.6499 158.62 19.6956 158.568 19.7479 158.525L19.8026 158.486L22.8859 156.435C22.9443 156.396 23.008 156.367 23.0747 156.349C23.2208 156.309 23.3753 156.317 23.5168 156.372C23.6583 156.426 23.7804 156.525 23.8664 156.655C23.9606 156.794 24.0046 156.964 23.9908 157.133L23.9803 157.253L24.0949 157.289L24.2564 157.344C24.6296 157.48 24.9817 157.673 25.3007 157.918L25.4582 158.039L25.5162 157.853C25.5472 157.755 25.5724 157.655 25.5904 157.553C25.6431 157.243 25.636 156.925 25.5695 156.618C25.5031 156.312 25.3782 156.022 25.203 155.766C24.9531 155.39 24.6115 155.091 24.2154 154.901L24.0422 154.826Z"
      fill="#EA580C" />
    <text fill="var(--clr-text-1)" xml:space="preserve" style="white-space: pre"
      font-family="Inter"
      font-size="12" font-weight="500" letter-spacing="0em"><tspan x="36" y="164.364">index.svelte</tspan></text>
    <text opacity="0.3" fill="var(--clr-text-1)" xml:space="preserve" style="white-space: pre"
      font-family="Inter" font-size="12" letter-spacing="0em"><tspan x="112" y="164.364">packages/[proje&#x2026;/navigation</tspan></text>
    <mask id="path-38-inside-6_13_115348" fill="var(--clr-bg-1)">
      <path d="M0 176H300V208H0V176Z" />
    </mask>
    <path d="M0 176H300V208H0V176Z" fill="var(--clr-bg-1)" />
    <path d="M300 208V207H0V208V209H300V208Z" fill="var(--clr-border-3)"
      mask="url(#path-38-inside-6_13_115348)" />
    <path
      d="M22.2258 185.462C22.9859 185.256 23.7891 185.299 24.5233 185.583L24.6594 185.638C25.3281 185.927 25.8961 186.407 26.3026 187.012H26.3033C26.5772 187.413 26.7697 187.863 26.8723 188.337L26.9068 188.515C26.9764 188.932 26.9759 189.359 26.9048 189.777L26.9029 189.786C26.8747 189.945 26.8364 190.102 26.7876 190.256L26.787 190.255L26.7303 190.438C26.6474 190.702 26.4849 190.929 26.2714 191.094C26.4763 191.44 26.6255 191.817 26.7108 192.211L26.7447 192.389C26.8143 192.807 26.8139 193.234 26.7427 193.652L26.7421 193.654C26.67 194.073 26.5251 194.477 26.313 194.845L26.218 195.001C25.9536 195.41 25.6073 195.761 25.1991 196.029L25.1984 196.029L22.1229 198.074L22.1223 198.075C21.852 198.254 21.5586 198.396 21.2499 198.495L21.1164 198.535C21.1134 198.536 21.1104 198.537 21.1073 198.538C20.3947 198.731 19.6445 198.706 18.9484 198.468L18.8104 198.417C18.0825 198.136 17.4643 197.633 17.0305 196.987L17.0298 196.988C16.7559 196.587 16.5633 196.137 16.4608 195.663C16.3583 195.19 16.3476 194.7 16.4289 194.223L16.4296 194.216L17.5318 194.409L16.4302 194.216C16.4583 194.056 16.4969 193.898 16.5461 193.743L16.6027 193.562L16.66 193.411C16.7506 193.211 16.8896 193.038 17.0611 192.906C16.8869 192.612 16.7529 192.296 16.6646 191.965L16.6216 191.789C16.5191 191.315 16.5084 190.826 16.5897 190.348L16.5904 190.346L16.6255 190.167C16.7185 189.752 16.8837 189.356 17.1151 188.999L17.2186 188.848C17.4322 188.553 17.6898 188.291 17.9843 188.075L18.1346 187.971L21.2102 185.926L21.2108 185.925L21.328 185.851C21.6048 185.682 21.9037 185.552 22.2167 185.465L22.2258 185.462ZM24.0422 186.826C23.5722 186.644 23.0598 186.617 22.5747 186.749L22.4107 186.801C22.2487 186.861 22.0936 186.939 21.9484 187.036L18.8658 189.086L18.7733 189.15C18.5621 189.305 18.3798 189.499 18.2349 189.723L18.175 189.82C18.0418 190.051 17.95 190.306 17.9042 190.572C17.8515 190.882 17.8586 191.2 17.925 191.506C17.9915 191.813 18.1162 192.104 18.2915 192.36C18.5772 192.79 18.9824 193.118 19.4524 193.299C19.9222 193.481 20.4341 193.508 20.9192 193.376C21.0854 193.33 21.2462 193.265 21.3977 193.18L21.5455 193.09L22.7219 192.307C22.7803 192.269 22.8445 192.239 22.9113 192.221C23.0574 192.181 23.2119 192.189 23.3534 192.244C23.495 192.299 23.617 192.398 23.703 192.528L23.7395 192.587C23.7733 192.649 23.798 192.716 23.813 192.785C23.833 192.877 23.8353 192.973 23.8195 193.066L23.8046 193.134C23.786 193.201 23.7574 193.264 23.7199 193.322L23.6796 193.378C23.6368 193.431 23.5863 193.477 23.5298 193.514L20.4478 195.564L20.356 195.615C20.3244 195.63 20.2918 195.642 20.2583 195.651L20.1477 195.672C20.0731 195.68 19.9978 195.676 19.9244 195.66L19.8163 195.628C19.7101 195.586 19.6149 195.521 19.5376 195.435L19.4667 195.344C19.3725 195.205 19.3284 195.036 19.3423 194.866L19.3527 194.747L19.2382 194.711C18.8051 194.574 18.3976 194.362 18.0331 194.082L17.8749 193.961L17.8169 194.146C17.7858 194.245 17.7612 194.345 17.7434 194.447C17.6906 194.756 17.6977 195.074 17.7642 195.381C17.8307 195.688 17.9549 195.978 18.1301 196.234C18.4157 196.664 18.8211 196.992 19.2909 197.174C19.7022 197.333 20.1459 197.373 20.5754 197.293L20.7583 197.251C20.9246 197.205 21.0848 197.138 21.2362 197.054L21.3846 196.964L24.4673 194.915C24.6865 194.771 24.8784 194.586 25.0337 194.371L25.0982 194.277C25.2429 194.053 25.3467 193.804 25.4055 193.542L25.4283 193.428C25.4745 193.157 25.4748 192.879 25.4296 192.609L25.4074 192.493C25.3409 192.186 25.2163 191.896 25.0409 191.64C24.7909 191.264 24.4495 190.966 24.0533 190.775L23.8801 190.7C23.4102 190.519 22.8983 190.492 22.4133 190.624C22.1917 190.685 21.9804 190.782 21.787 190.911L20.6106 191.693L20.5194 191.743C20.4878 191.758 20.4552 191.77 20.4218 191.779L20.3104 191.799C20.236 191.807 20.161 191.803 20.0878 191.788L19.9797 191.756C19.8735 191.715 19.7777 191.649 19.7004 191.564L19.6294 191.472C19.5899 191.414 19.5591 191.35 19.5376 191.283L19.5194 191.215C19.4994 191.122 19.497 191.026 19.5129 190.933C19.5287 190.842 19.5628 190.755 19.6125 190.678C19.6499 190.62 19.6956 190.568 19.7479 190.525L19.8026 190.486L22.8859 188.435C22.9443 188.396 23.008 188.367 23.0747 188.349C23.2208 188.309 23.3753 188.317 23.5168 188.372C23.6583 188.426 23.7804 188.525 23.8664 188.655C23.9606 188.794 24.0046 188.964 23.9908 189.133L23.9803 189.253L24.0949 189.289L24.2564 189.344C24.6296 189.48 24.9817 189.673 25.3007 189.918L25.4582 190.039L25.5162 189.853C25.5472 189.755 25.5724 189.655 25.5904 189.553C25.6431 189.243 25.636 188.925 25.5695 188.618C25.5031 188.312 25.3782 188.022 25.203 187.766C24.9531 187.39 24.6115 187.091 24.2154 186.901L24.0422 186.826Z"
      fill="#EA580C" />
    <text fill="var(--clr-text-1)" xml:space="preserve" style="white-space: pre"
      font-family="Inter"
      font-size="12" font-weight="500" letter-spacing="0em"><tspan x="36" y="196.364">Icon.svelte</tspan></text>
    <text opacity="0.3" fill="var(--clr-text-1)" xml:space="preserve" style="white-space: pre"
      font-family="Inter" font-size="12" letter-spacing="0em"><tspan x="105" y="196.364">packages/&#x2026;/IconBookmarkFilled</tspan></text>
    <mask id="path-43-inside-7_13_115348" fill="var(--clr-bg-1)">
      <path d="M0 208H300V240H0V208Z" />
    </mask>
    <path d="M0 208H300V240H0V208Z" fill="var(--clr-bg-1)" />
    <path d="M300 240V239H0V240V241H300V240Z" fill="var(--clr-border-3)"
      mask="url(#path-43-inside-7_13_115348)" />
    <path d="M16.1562 222.062V220.879H21.7311V222.062H19.6529V227.667H18.2344V222.062H16.1562Z"
      fill="#2563EB" />
    <path
      d="M26.3314 222.831C26.3049 222.564 26.1911 222.356 25.9901 222.208C25.789 222.06 25.5161 221.986 25.1714 221.986C24.9372 221.986 24.7394 222.019 24.5781 222.085C24.4168 222.149 24.2931 222.239 24.2069 222.354C24.1229 222.468 24.081 222.599 24.081 222.745C24.0765 222.866 24.102 222.972 24.1572 223.063C24.2146 223.153 24.2931 223.232 24.3925 223.298C24.492 223.362 24.6068 223.419 24.7372 223.467C24.8676 223.514 25.0068 223.553 25.1548 223.587L25.7647 223.732C26.0608 223.799 26.3325 223.887 26.58 223.998C26.8275 224.108 27.0418 224.244 27.223 224.405C27.4042 224.567 27.5445 224.757 27.6439 224.975C27.7456 225.194 27.7975 225.445 27.7997 225.728C27.7975 226.143 27.6914 226.503 27.4815 226.808C27.2738 227.111 26.9733 227.346 26.58 227.514C26.1889 227.68 25.7172 227.763 25.1648 227.763C24.6168 227.763 24.1395 227.679 23.733 227.511C23.3286 227.343 23.0126 227.094 22.785 226.765C22.5597 226.434 22.4414 226.024 22.4304 225.535H23.8191C23.8346 225.763 23.8998 225.953 24.0147 226.105C24.1318 226.256 24.2876 226.37 24.482 226.447C24.6787 226.522 24.9007 226.56 25.1482 226.56C25.3913 226.56 25.6023 226.524 25.7813 226.454C25.9624 226.383 26.1027 226.284 26.2022 226.159C26.3016 226.033 26.3513 225.888 26.3513 225.724C26.3513 225.572 26.306 225.444 26.2154 225.34C26.1271 225.236 25.9967 225.148 25.8243 225.075C25.6542 225.002 25.4454 224.936 25.1979 224.876L24.4588 224.69C23.8865 224.551 23.4347 224.333 23.1032 224.037C22.7718 223.741 22.6072 223.342 22.6094 222.841C22.6072 222.43 22.7165 222.071 22.9375 221.764C23.1607 221.457 23.4667 221.217 23.8556 221.044C24.2445 220.872 24.6864 220.786 25.1813 220.786C25.6851 220.786 26.1248 220.872 26.5005 221.044C26.8783 221.217 27.1722 221.457 27.3821 221.764C27.592 222.071 27.7003 222.427 27.7069 222.831H26.3314Z"
      fill="#2563EB" />
    <text fill="var(--clr-text-1)" xml:space="preserve" style="white-space: pre"
      font-family="Inter"
      font-size="12" font-weight="500" letter-spacing="0em"><tspan x="36" y="228.364">button.stories.ts</tspan></text>
    <text opacity="0.3" fill="var(--clr-text-1)" xml:space="preserve" style="white-space: pre"
      font-family="Inter" font-size="12" letter-spacing="0em"><tspan x="137" y="228.364">packages/&#x2026;/IconBookmar</tspan></text>
    <mask id="path-48-inside-8_13_115348" fill="var(--clr-bg-1)">
      <path d="M0 240H300V272H0V240Z" />
    </mask>
    <path d="M0 240H300V272H0V240Z" fill="var(--clr-bg-1)" />
    <path d="M300 272V271H0V272V273H300V272Z" fill="var(--clr-border-3)"
      mask="url(#path-48-inside-8_13_115348)" />
    <path d="M16.1562 254.062V252.879H21.7311V254.062H19.6529V259.667H18.2344V254.062H16.1562Z"
      fill="#2563EB" />
    <path
      d="M26.3314 254.831C26.3049 254.564 26.1911 254.356 25.9901 254.208C25.789 254.06 25.5161 253.986 25.1714 253.986C24.9372 253.986 24.7394 254.019 24.5781 254.085C24.4168 254.149 24.2931 254.239 24.2069 254.354C24.1229 254.468 24.081 254.599 24.081 254.745C24.0765 254.866 24.102 254.972 24.1572 255.063C24.2146 255.153 24.2931 255.232 24.3925 255.298C24.492 255.362 24.6068 255.419 24.7372 255.467C24.8676 255.514 25.0068 255.553 25.1548 255.587L25.7647 255.732C26.0608 255.799 26.3325 255.887 26.58 255.998C26.8275 256.108 27.0418 256.244 27.223 256.405C27.4042 256.567 27.5445 256.757 27.6439 256.975C27.7456 257.194 27.7975 257.445 27.7997 257.728C27.7975 258.143 27.6914 258.503 27.4815 258.808C27.2738 259.111 26.9733 259.346 26.58 259.514C26.1889 259.68 25.7172 259.763 25.1648 259.763C24.6168 259.763 24.1395 259.679 23.733 259.511C23.3286 259.343 23.0126 259.094 22.785 258.765C22.5597 258.434 22.4414 258.024 22.4304 257.535H23.8191C23.8346 257.763 23.8998 257.953 24.0147 258.105C24.1318 258.256 24.2876 258.37 24.482 258.447C24.6787 258.522 24.9007 258.56 25.1482 258.56C25.3913 258.56 25.6023 258.524 25.7813 258.454C25.9624 258.383 26.1027 258.284 26.2022 258.159C26.3016 258.033 26.3513 257.888 26.3513 257.724C26.3513 257.572 26.306 257.444 26.2154 257.34C26.1271 257.236 25.9967 257.148 25.8243 257.075C25.6542 257.002 25.4454 256.936 25.1979 256.876L24.4588 256.69C23.8865 256.551 23.4347 256.333 23.1032 256.037C22.7718 255.741 22.6072 255.342 22.6094 254.841C22.6072 254.43 22.7165 254.071 22.9375 253.764C23.1607 253.457 23.4667 253.217 23.8556 253.044C24.2445 252.872 24.6864 252.786 25.1813 252.786C25.6851 252.786 26.1248 252.872 26.5005 253.044C26.8783 253.217 27.1722 253.457 27.3821 253.764C27.592 254.071 27.7003 254.427 27.7069 254.831H26.3314Z"
      fill="#2563EB" />
    <text fill="var(--clr-text-1)" xml:space="preserve" style="white-space: pre"
      font-family="Inter"
      font-size="12" font-weight="500" letter-spacing="0em"><tspan x="36" y="260.364">accordion.stories.ts</tspan></text>
    <text opacity="0.3" fill="var(--clr-text-1)" xml:space="preserve" style="white-space: pre"
      font-family="Inter" font-size="12" letter-spacing="0em"><tspan x="156" y="260.364">ui/src/stories</tspan></text>
    <mask id="path-53-inside-9_13_115348" fill="var(--clr-bg-1)">
      <path d="M0 272H300V304H0V272Z" />
    </mask>
    <path d="M0 272H300V304H0V272Z" fill="var(--clr-bg-1)" />
    <path d="M300 304V303H0V304V305H300V304Z" fill="var(--clr-border-3)"
      mask="url(#path-53-inside-9_13_115348)" />
    <path d="M16.1562 286.062V284.879H21.7311V286.062H19.6529V291.667H18.2344V286.062H16.1562Z"
      fill="#2563EB" />
    <path
      d="M26.3314 286.831C26.3049 286.564 26.1911 286.356 25.9901 286.208C25.789 286.06 25.5161 285.986 25.1714 285.986C24.9372 285.986 24.7394 286.019 24.5781 286.085C24.4168 286.149 24.2931 286.239 24.2069 286.354C24.1229 286.468 24.081 286.599 24.081 286.745C24.0765 286.866 24.102 286.972 24.1572 287.063C24.2146 287.153 24.2931 287.232 24.3925 287.298C24.492 287.362 24.6068 287.419 24.7372 287.467C24.8676 287.514 25.0068 287.553 25.1548 287.587L25.7647 287.732C26.0608 287.799 26.3325 287.887 26.58 287.998C26.8275 288.108 27.0418 288.244 27.223 288.405C27.4042 288.567 27.5445 288.757 27.6439 288.975C27.7456 289.194 27.7975 289.445 27.7997 289.728C27.7975 290.143 27.6914 290.503 27.4815 290.808C27.2738 291.111 26.9733 291.346 26.58 291.514C26.1889 291.68 25.7172 291.763 25.1648 291.763C24.6168 291.763 24.1395 291.679 23.733 291.511C23.3286 291.343 23.0126 291.094 22.785 290.765C22.5597 290.434 22.4414 290.024 22.4304 289.535H23.8191C23.8346 289.763 23.8998 289.953 24.0147 290.105C24.1318 290.256 24.2876 290.37 24.482 290.447C24.6787 290.522 24.9007 290.56 25.1482 290.56C25.3913 290.56 25.6023 290.524 25.7813 290.454C25.9624 290.383 26.1027 290.284 26.2022 290.159C26.3016 290.033 26.3513 289.888 26.3513 289.724C26.3513 289.572 26.306 289.444 26.2154 289.34C26.1271 289.236 25.9967 289.148 25.8243 289.075C25.6542 289.002 25.4454 288.936 25.1979 288.876L24.4588 288.69C23.8865 288.551 23.4347 288.333 23.1032 288.037C22.7718 287.741 22.6072 287.342 22.6094 286.841C22.6072 286.43 22.7165 286.071 22.9375 285.764C23.1607 285.457 23.4667 285.217 23.8556 285.044C24.2445 284.872 24.6864 284.786 25.1813 284.786C25.6851 284.786 26.1248 284.872 26.5005 285.044C26.8783 285.217 27.1722 285.457 27.3821 285.764C27.592 286.071 27.7003 286.427 27.7069 286.831H26.3314Z"
      fill="#2563EB" />
    <text fill="var(--clr-text-1)" xml:space="preserve" style="white-space: pre"
      font-family="Inter"
      font-size="12" font-weight="500" letter-spacing="0em"><tspan x="36" y="292.364">types.d.ts</tspan></text>
    <text opacity="0.3" fill="var(--clr-text-1)" xml:space="preserve" style="white-space: pre"
      font-family="Inter" font-size="12" letter-spacing="0em"><tspan x="100" y="292.364">ui/src/stories</tspan></text>
  </g>
  <path
    d="M10 0.5H290C295.247 0.500005 299.5 4.7533 299.5 10V332C299.5 337.247 295.247 341.5 290 341.5H10C4.7533 341.5 0.5 337.247 0.5 332V10C0.500001 4.7533 4.7533 0.5 10 0.5Z"
    stroke="var(--clr-border-2)" />
  <defs>
    <clipPath id="clip0_13_115348">
      <path
        d="M0 10C0 4.47716 4.47715 0 10 0H290C295.523 0 300 4.47715 300 10V332C300 337.523 295.523 342 290 342H10C4.47716 342 0 337.523 0 332V10Z"
        fill="var(--clr-bg-1)" />
    </clipPath>
    <clipPath id="clip1_13_115348">
      <path
        d="M215 15C215 11.6863 217.686 9 221 9H284C287.314 9 290 11.6863 290 15V25C290 28.3137 287.314 31 284 31H221C217.686 31 215 28.3137 215 25V15Z"
        fill="var(--clr-bg-1)" />
    </clipPath>
    <clipPath id="clip2_13_115348">
      <path
        d="M234 55C234 51.6863 236.686 49 240 49H284C287.314 49 290 51.6863 290 55V65C290 68.3137 287.314 71 284 71H240C236.686 71 234 68.3137 234 65V55Z"
        fill="var(--clr-bg-1)" />
    </clipPath>
  </defs>
</svg>