<svg xmlns="http://www.w3.org/2000/svg" width="108" height="28" viewBox="0 0 108 28" fill="none">
  <path
    d="M18 22L16 21L14 22V17H18V22ZM20 8.25C20.9665 8.25 21.75 9.0335 21.75 10V18C21.75 18.9665 20.9665 19.75 20 19.75H19V18.25H20C20.1381 18.25 20.25 18.1381 20.25 18V15.75H13C12.3096 15.75 11.75 16.3096 11.75 17C11.75 17.6904 12.3096 18.25 13 18.25V19.75C11.4812 19.75 10.25 18.5188 10.25 17V11C10.25 9.48122 11.4812 8.25 13 8.25H20ZM13 9.75C12.3096 9.75 11.75 10.3096 11.75 11V14.5527C12.1253 14.3606 12.5494 14.25 13 14.25H20.25V10C20.25 9.86193 20.1381 9.75 20 9.75H13Z"
    fill="var(--clr-text-2)" />
  <text fill="var(--clr-text-1)" xml:space="preserve" style="white-space: pre" font-family="Inter"
    font-size="12" font-weight="600" letter-spacing="0em">
    <tspan x="29.2793" y="18.3636">my-repo</tspan>
  </text>
  <path fill-rule="evenodd" clip-rule="evenodd"
    d="M92.15 17.95C92.0611 18.0167 91.9389 18.0167 91.85 17.95L88.45 15.4L87.55 16.6L90.95 19.15C91.5722 19.6167 92.4278 19.6167 93.05 19.15L96.45 16.6L95.55 15.4L92.15 17.95Z"
    fill="var(--clr-text-2)" />
  <path fill-rule="evenodd" clip-rule="evenodd"
    d="M92.15 10.05C92.0611 9.98333 91.9389 9.98333 91.85 10.05L88.45 12.6L87.55 11.4L90.95 8.85C91.5722 8.38333 92.4278 8.38333 93.05 8.85L96.45 11.4L95.55 12.6L92.15 10.05Z"
    fill="var(--clr-text-2)" />
  <path opacity="0.4"
    d="M6 0.5H102C105.038 0.500002 107.5 2.96244 107.5 6V22C107.5 25.0376 105.038 27.5 102 27.5H6C2.96244 27.5 0.5 25.0376 0.5 22V6C0.5 2.96243 2.96243 0.5 6 0.5Z"
    stroke="var(--clr-btn-gray-outline)" />
</svg>