<svg
  xmlns="http://www.w3.org/2000/svg" width="100%" height="100%" viewBox="0 0 820 420" fill="none">
  <g id="76:5655">
    <g clip-path="url(#clip0_76_5655)">
      <g id="76:5656">
        <g id="76:5657">
          <circle id="76:5658" cx="26" cy="23" r="6" fill="#FF5F57" />
          <circle id="76:5659" cx="46" cy="23" r="6" fill="#FEBC2E" />
          <circle id="76:5660" cx="66" cy="23" r="6" fill="#28C840" />
        </g>
      </g>
      <rect id="76:5661" x="359" y="17" width="443" height="445" rx="15.84"
        fill="var(--clr-art-scene-bg)" />
      <g id="76:5662" clip-path="url(#clip1_76_5655)">
        <ellipse id="I76:5662;4183:13814" opacity="0.12" cx="585.115" cy="397.593" rx="143.842"
          ry="8.82741" fill="var(--clr-art-scene-outline)" />
        <path id="I76:5662;4183:13815"
          d="M522.169 396.298C559.676 328.506 560.948 308.222 601.018 255.572L589.527 250.083L588.682 250.976C559.384 281.937 539.879 302.55 515.827 335.748C489.072 321.318 467.552 320 436.237 337.677L522.169 396.298Z"
          fill="var(--clr-art-scene-fill)" stroke="var(--clr-art-scene-outline)"
          stroke-width="1.06615" />
        <path id="I76:5662;4183:13816"
          d="M584.673 300.636L611.413 252.397L595.726 251.46C559.359 296.523 555.988 317.25 570.191 353.448C533.052 353.448 512.906 372.409 503.422 398.115H625.001C611.413 363.165 584.673 300.636 584.673 300.636Z"
          fill="var(--clr-art-scene-fill)" stroke="var(--clr-art-scene-outline)"
          stroke-width="1.06615" />
        <ellipse id="I76:5662;4183:13817" cx="472.066" cy="171.562" rx="53.4222" ry="34.0715"
          transform="rotate(-20.5917 472.066 171.562)" fill="var(--clr-art-scene-fill)"
          stroke="var(--clr-art-scene-outline)" stroke-width="1.06615" />
        <ellipse id="I76:5662;4183:13818" cx="472.066" cy="171.562" rx="40.3007" ry="34.0715"
          transform="rotate(-20.5917 472.066 171.562)" stroke="var(--clr-art-scene-outline)"
          stroke-width="1.06615" />
        <ellipse id="I76:5662;4183:13819" cx="472.067" cy="171.562" rx="19.7236" ry="34.0715"
          transform="rotate(-20.5917 472.067 171.562)" stroke="var(--clr-art-scene-outline)"
          stroke-width="1.06615" />
        <path id="I76:5662;4183:13820"
          d="M488.453 134.502C486.215 143.851 477.16 153.194 464.387 158.07C452.441 162.631 440.316 162.112 432.334 157.544"
          stroke="var(--clr-art-scene-outline)" stroke-width="1.06615" />
        <path id="I76:5662;4183:13821"
          d="M452.029 208.242C454.047 198.843 462.879 189.289 475.533 184.113C487.369 179.272 499.502 179.505 507.59 183.883"
          stroke="var(--clr-art-scene-outline)" stroke-width="1.06615" />
        <path id="I76:5662;4183:13822" d="M459.106 139.99L484.979 202.952"
          stroke="var(--clr-art-scene-outline)" stroke-width="1.06615" />
        <path id="I76:5662;4183:13823" d="M521.31 150.874L422.182 190.4"
          stroke="var(--clr-art-scene-outline)" stroke-width="1.06615" />
        <g id="I76:5662;4183:13824">
          <path
            d="M511.516 190.975C512.432 197.089 509.921 204.527 503.705 213.176C508.526 215.719 506.456 223.022 497.038 227.801C484.629 234.099 477.472 228.601 476.657 222.038C467.672 223.919 462.022 213.517 462.022 208.53C469.698 207.769 476.657 206.015 481.576 203.906C485.372 197.019 490.499 193.2 496.402 189.826C475.19 184.829 475.814 172.983 483.966 169.329C492.118 165.674 509.938 180.445 511.516 190.975Z"
            fill="var(--clr-art-scene-fill)" />
          <path
            d="M503.705 213.176C509.921 204.527 512.432 197.089 511.516 190.975C509.938 180.445 492.118 165.674 483.966 169.329C475.814 172.983 475.19 184.829 496.402 189.826C490.499 193.2 485.372 197.019 481.576 203.906M503.705 213.176C508.526 215.719 506.456 223.022 497.038 227.801C484.629 234.099 477.472 228.601 476.657 222.038C467.672 223.919 462.022 213.517 462.022 208.53C469.698 207.769 476.657 206.015 481.576 203.906M503.705 213.176C501.295 212.288 495.07 211.384 489.448 214.87M481.576 203.906L479.609 208.189"
            stroke="var(--clr-art-scene-outline)" stroke-width="1.06615" />
        </g>
        <path id="I76:5662;4183:13825"
          d="M509.203 266.274L510.934 261.232L510.934 261.232L509.203 266.274ZM498.063 223.938C497.03 221.181 493.957 219.784 491.2 220.817C488.443 221.851 487.046 224.923 488.08 227.68L493.071 225.809L498.063 223.938ZM546.829 243.281L542.807 239.782C534.643 249.168 527.263 254.998 521.429 258.206C518.51 259.811 516.079 260.705 514.207 261.107C512.276 261.52 511.262 261.345 510.934 261.232L509.203 266.274L507.472 271.316C510.252 272.27 513.379 272.187 516.44 271.531C519.56 270.863 522.972 269.525 526.567 267.548C533.759 263.593 542.083 256.859 550.851 246.779L546.829 243.281ZM509.203 266.274L510.934 261.232C508.4 260.362 507.083 259.18 506.189 257.802C505.175 256.24 504.462 254.051 503.843 250.744C502.687 244.564 502.036 234.537 498.063 223.938L493.071 225.809L488.08 227.68C491.624 237.136 491.902 244.891 493.364 252.705C494.054 256.394 495.072 260.255 497.246 263.606C499.54 267.141 502.869 269.735 507.472 271.316L509.203 266.274Z"
          fill="var(--clr-art-scene-outline)" />
        <g id="I76:5662;4394:19072">
          <path id="I76:5662;4183:13826"
            d="M640.315 152.949C648.026 154.234 653.679 160.906 653.679 168.724L653.679 205.317C653.679 209.763 655.53 214.009 658.787 217.035L666.375 224.082C670.234 227.666 672.081 232.919 671.314 238.129L668.459 257.519C667.161 266.34 658.9 272.396 650.097 270.98L535.531 252.549C526.677 251.124 520.725 242.699 522.341 233.879L537.381 151.751C538.954 143.161 547.127 137.421 555.74 138.857L640.315 152.949Z"
            fill="var(--clr-art-scene-fill)" stroke="var(--clr-art-scene-outline)"
            stroke-width="1.06615" />
          <path id="I76:5662;4183:13827"
            d="M647.457 245.957L659.614 243.234M646.928 251.844L659.085 249.121M646.399 257.728L658.556 255.006"
            stroke="var(--clr-art-scene-outline)" stroke-width="1.06615" />
          <rect id="I76:5662;4183:13828" opacity="0.13" x="546.816" y="145.211" width="83.0977"
            height="93.1296" rx="8.76019" transform="rotate(9.40007 546.816 145.211)"
            fill="var(--clr-art-scene-outline)" />
          <g id="I76:5662;4183:13829">
            <path id="I76:5662;4183:13830"
              d="M548.657 187.753C545.869 201.91 543.815 217.502 555.437 221.021C567.06 224.54 570.407 206.377 573.594 192.263C576.781 178.15 578.923 162.115 566.654 159.882C554.385 157.649 551.445 173.596 548.657 187.753Z"
              fill="var(--clr-art-scene-fill)" stroke="var(--clr-art-scene-outline)"
              stroke-width="1.06615" />
            <path id="I76:5662;4183:13831"
              d="M566.388 159.943C564.624 167.867 560.683 188.418 558.414 198.187L572.72 196.147C572.72 196.147 573.423 193.02 573.594 192.263C576.705 178.485 578.994 162.569 566.388 159.943Z"
              fill="var(--clr-art-scene-outline)" />
          </g>
          <g id="I76:5662;4183:13832">
            <path id="I76:5662;4183:13833"
              d="M589.044 193.32C586.256 207.477 584.202 223.069 595.824 226.588C607.446 230.106 610.794 211.944 613.981 197.83C617.168 183.716 619.31 167.682 607.041 165.449C594.772 163.216 591.832 179.163 589.044 193.32Z"
              fill="var(--clr-art-scene-fill)" stroke="var(--clr-art-scene-outline)"
              stroke-width="1.06615" />
            <path id="I76:5662;4183:13834"
              d="M606.775 165.51C605.011 173.434 601.069 193.985 598.801 203.754L613.107 201.714C613.107 201.714 613.81 198.587 613.981 197.83C617.092 184.052 619.381 168.136 606.775 165.51Z"
              fill="var(--clr-art-scene-outline)" />
          </g>
          <path id="I76:5662;4183:13835"
            d="M580.654 225.702C580.068 227.363 578.498 228.474 576.737 228.474C572.686 228.474 571.04 221.931 574.345 219.59C577.652 217.247 582.003 221.881 580.654 225.702Z"
            fill="var(--clr-art-scene-outline)" />
          <path id="I76:5662;4183:13836"
            d="M557.524 232.731L554.759 248.894L570.383 244.936L583.507 253.755L586.573 237.934L570.795 240.803L557.524 232.731Z"
            fill="var(--clr-art-scene-outline)" />
        </g>
        <path id="I76:5662;4183:13838"
          d="M677.531 192.933L649.758 212.619C647.506 214.215 647.854 217.657 650.379 218.77L707.514 243.967C709.887 245.013 712.642 244.684 714.702 243.108L744.141 220.58L759.014 178.51C759.665 176.668 758.708 174.646 756.871 173.983L695.801 151.933C693.946 151.263 691.9 152.233 691.243 154.093L677.531 192.933Z"
          fill="var(--clr-art-scene-fill)" stroke="var(--clr-art-scene-outline)"
          stroke-width="1.06615" />
        <path id="I76:5662;4183:13839" d="M677.505 192.489L737.227 216.54"
          stroke="var(--clr-art-scene-outline)" stroke-width="1.06615" />
        <path id="I76:5662;4183:13840"
          d="M638.407 294.241L639.954 289.14L638.407 294.241ZM640.567 235.226C640.978 232.311 638.948 229.615 636.033 229.203C633.118 228.792 630.421 230.822 630.01 233.737L635.288 234.482L640.567 235.226ZM672.803 253.936L668.377 250.964C664.481 256.768 661.028 262.431 657.926 267.519C654.79 272.661 652.062 277.13 649.502 280.777C646.899 284.487 644.774 286.893 642.979 288.204C641.364 289.385 640.558 289.323 639.954 289.14L638.407 294.241L636.86 299.343C641.581 300.775 645.826 299.329 649.269 296.813C652.533 294.428 655.476 290.825 658.229 286.901C661.027 282.915 663.946 278.124 667.028 273.07C670.144 267.961 673.481 262.489 677.229 256.907L672.803 253.936ZM638.407 294.241L639.954 289.14C638.096 288.577 636.943 287.477 636.129 285.273C635.203 282.761 634.844 279.032 635.106 273.886C635.639 263.441 638.429 250.379 640.567 235.226L635.288 234.482L630.01 233.737C628.036 247.728 625.021 262.312 624.459 273.344C624.174 278.937 624.445 284.404 626.127 288.963C627.922 293.828 631.354 297.673 636.86 299.343L638.407 294.241Z"
          fill="var(--clr-art-scene-outline)" />
        <path id="I76:5662;4183:13841"
          d="M686.509 183.575L692.739 164.239C693.972 160.412 698.13 158.369 701.912 159.731L745.792 175.534C749.409 176.837 751.335 180.781 750.137 184.435L743.337 205.181C742.061 209.075 737.765 211.086 733.958 209.573L690.649 192.36C687.172 190.978 685.361 187.137 686.509 183.575Z"
          fill="var(--clr-art-scene-outline)" />
        <g id="I76:5662;4183:13842">
          <path
            d="M656.462 225.291C655.546 231.405 656.462 237.631 662.678 246.281C657.857 248.823 660.179 257.113 665.696 260.706C677.357 268.301 684.231 263.669 685.046 257.107C694.031 258.987 702.113 249.706 703.862 242.182L677.854 230.577L670.315 226.419C688.975 215.813 686.461 204.033 677.854 203.375C669.247 202.717 658.04 214.761 656.462 225.291Z"
            fill="var(--clr-art-scene-fill)" />
          <path
            d="M662.678 246.281C656.462 237.631 655.546 231.405 656.462 225.291C658.04 214.761 669.247 202.717 677.854 203.375C686.461 204.033 688.975 215.813 670.315 226.419L677.854 230.577M662.678 246.281C657.857 248.823 660.179 257.113 665.696 260.706C677.357 268.301 684.231 263.669 685.046 257.107C694.031 258.987 702.113 249.706 703.862 242.182L677.854 230.577M662.678 246.281C665.554 250.284 669.763 253.573 674.427 255.461M677.854 230.577C680.195 232.69 684.398 240.053 682.129 246.626"
            stroke="var(--clr-art-scene-outline)" stroke-width="1.06615" />
        </g>
        <path id="I76:5662;4183:13844"
          d="M479.744 123.636C529.054 76.5478 631.226 62.3325 714.741 142.025M714.741 142.025C706.345 122.006 704.952 110.532 712.076 90.7632M714.741 142.025C693.667 135.264 681.181 137.185 662.96 142.025"
          stroke="var(--clr-art-scene-outline)" stroke-width="1.06615" />
        <g id="I76:5662;4183:13845">
          <path id="I76:5662;4183:13846"
            d="M520.733 85.2197C521.426 81.3559 525.121 78.7854 528.984 79.4784L535.214 80.5958C537.083 80.931 538.741 82.0005 539.816 83.5655L546.835 93.7759C547.895 95.3177 548.304 97.2153 547.974 99.057L546.195 108.977C545.501 112.84 541.807 115.411 537.944 114.718L523.14 112.063C519.276 111.37 516.706 107.676 517.399 103.812L520.733 85.2197Z"
            fill="var(--clr-art-scene-fill)" stroke="var(--clr-art-scene-outline)"
            stroke-width="1.06615" />
          <path id="I76:5662;4183:13847"
            d="M523.475 98.625L541.425 101.844M522.882 101.927L540.832 105.146M522.29 105.229L531.495 106.88"
            stroke="var(--clr-art-scene-outline)" stroke-width="1.06615" />
          <path id="I76:5662;4183:13848"
            d="M535.599 91.4967L537.423 81.3306L539.752 83.8807L546.804 93.9447L547.791 97.2939L538.47 95.6221C536.538 95.2756 535.253 93.4286 535.599 91.4967Z"
            fill="var(--clr-art-scene-outline)" />
        </g>
        <g id="I76:5662;4183:13849">
          <path id="I76:5662;4183:13850"
            d="M578.69 75.9587C577.756 72.146 580.09 68.298 583.903 67.364L597.659 63.9942C599.503 63.5424 601.452 63.8475 603.07 64.8415L621.065 75.8958C622.659 76.8751 623.803 78.4436 624.248 80.2608L628.931 99.3752C629.865 103.188 627.531 107.036 623.718 107.97L595.541 114.872C591.728 115.806 587.88 113.473 586.946 109.66L578.69 75.9587Z"
            fill="var(--clr-art-scene-fill)" stroke="var(--clr-art-scene-outline)"
            stroke-width="1.06615" />
          <path id="I76:5662;4183:13851"
            d="M591.234 95.7173L617.406 89.3062M592.414 100.532L618.585 94.1204M593.593 105.346L607.014 102.058"
            stroke="var(--clr-art-scene-outline)" stroke-width="1.06615" />
          <path id="I76:5662;4183:13852"
            d="M603.74 80.4708L599.705 64L604.379 66.0482L619.935 75.4125L623.276 79.3441L608.037 83.077C606.131 83.544 604.207 82.3771 603.74 80.4708Z"
            fill="var(--clr-art-scene-outline)" />
        </g>
        <g id="I76:5662;4183:13853">
          <path id="I76:5662;4183:13854"
            d="M651.334 92.0631C651.031 88.1493 653.959 84.7313 657.873 84.4289L665.519 83.8379C667.412 83.6916 669.285 84.3091 670.721 85.5527L681.213 94.6437C682.627 95.8689 683.501 97.6023 683.645 99.4678L684.548 111.153C684.851 115.067 681.923 118.485 678.009 118.787L660.632 120.13C656.718 120.433 653.3 117.505 652.998 113.591L651.334 92.0631Z"
            fill="var(--clr-art-scene-fill)" stroke="var(--clr-art-scene-outline)"
            stroke-width="1.06615" />
          <path id="I76:5662;4183:13855"
            d="M657.899 105.928L677.567 104.408M658.179 109.546L677.846 108.026M658.459 113.164L668.544 112.384"
            stroke="var(--clr-art-scene-outline)" stroke-width="1.06615" />
          <path id="I76:5662;4183:13856"
            d="M668.672 95.4519L667.789 84.0239L670.921 86.059L681.046 94.6726L682.991 97.9096L672.489 98.7213C670.533 98.8726 668.824 97.4088 668.672 95.4519Z"
            fill="var(--clr-art-scene-outline)" />
        </g>
        <text id="I76:5662;4183:13857" transform="translate(699.693 166.226) rotate(19.9287)"
          fill="var(--clr-art-scene-fill)" xml:space="preserve" style="white-space: pre"
          font-family="Sligoil" font-size="13.5312" letter-spacing="-0.03em">
          <tspan x="0.174519" y="14.9125">CLONE…</tspan>
        </text>
      </g>
      <path id="76:5663" opacity="0.8"
        d="M53 183C53 178.029 57.0294 174 62 174H224C228.971 174 233 178.029 233 183V183C233 187.971 228.971 192 224 192H62C57.0294 192 53 187.971 53 183V183Z"
        fill="var(--clr-text-3)" />
      <path id="76:5664"
        d="M59 208.5H301C304.038 208.5 306.5 210.962 306.5 214V227C306.5 230.038 304.038 232.5 301 232.5H59C55.9624 232.5 53.5 230.038 53.5 227V214L53.5068 213.717C53.6542 210.811 56.0574 208.5 59 208.5Z"
        fill="var(--clr-bg-1)" stroke="var(--clr-border-2)" />
      <path id="76:5665"
        d="M59 242.5H301C304.038 242.5 306.5 244.962 306.5 248V261C306.5 264.038 304.038 266.5 301 266.5H59C55.9624 266.5 53.5 264.038 53.5 261V248L53.5068 247.717C53.6542 244.811 56.0574 242.5 59 242.5Z"
        fill="var(--clr-bg-1)" stroke="var(--clr-border-2)" />
      <g id="76:5666">
        <g id="76:5667">
          <path id="76:5668" opacity="0.4"
            d="M161 277.5H220C223.038 277.5 225.5 279.962 225.5 283V295C225.5 298.038 223.038 300.5 220 300.5H161C157.962 300.5 155.5 298.038 155.5 295V283C155.5 279.962 157.962 277.5 161 277.5Z"
            stroke="var(--clr-btn-gray-outline)" />
          <rect id="76:5669" x="165" y="285" width="51" height="8" rx="4" fill="var(--clr-text-3)" />
        </g>
        <g id="76:5670">
          <path id="76:5671"
            d="M230 283C230 279.686 232.686 277 236 277H301C304.314 277 307 279.686 307 283V295C307 298.314 304.314 301 301 301H236C232.686 301 230 298.314 230 295V283Z"
            fill="var(--clr-theme-pop-element)" />
          <rect id="76:5672" x="243" y="285" width="51" height="8" rx="4"
            fill="var(--clr-theme-pop-on-element)" />
        </g>
      </g>
    </g>
  </g>
  <defs>
    <clipPath id="clip0_76_5655">
      <path
        d="M0 16C0 7.16344 7.16344 0 16 0H804C812.837 0 820 7.16344 820 16V404C820 412.837 812.837 420 804 420H16C7.16343 420 0 412.837 0 404V16Z"
        fill="white" />
    </clipPath>
    <clipPath id="clip1_76_5655">
      <rect width="355.383" height="355.383" fill="white" transform="translate(410 61)" />
    </clipPath>
  </defs>
</svg>