<svg xmlns="http://www.w3.org/2000/svg" width="260" height="160" viewBox="0 0 260 160" fill="none">
  <g id="I5736:29944;5735:28763;5446:51311">
    <path id="I5736:29944;5735:28763;5446:51311;6349:6971"
      d="M21 0.6H239C249.714 0.6 258.4 9.28568 258.4 20V139C258.4 149.714 249.714 158.4 239 158.4H21C10.2857 158.4 1.6 149.714 1.6 139V20C1.6 9.28568 10.2857 0.6 21 0.6Z"
      fill="var(--clr-bg-1)" stroke="var(--clr-border-2)" stroke-width="1.2" />
    <g id="I5736:29944;5735:28763;5446:51311;6349:6972">
      <rect id="I5736:29944;5735:28763;5446:51311;6349:6974" opacity="0.12" x="11" y="10" width="55"
        height="139" rx="10" fill="var(--clr-core-ntrl-60)" />
    </g>
    <g id="I5736:29944;5735:28763;5446:51311;6349:6975">
      <path id="I5736:29944;5735:28763;5446:51311;6349:6976"
        d="M152.6 31.6H240C245.191 31.6 249.4 35.8085 249.4 41V139C249.4 144.191 245.191 148.4 240 148.4H162C156.809 148.4 152.6 144.191 152.6 139V31.6Z"
        fill="var(--clr-bg-1)" stroke="var(--clr-border-2)" stroke-width="1.2" />
      <g id="I5736:29944;5735:28763;5446:51311;6349:6978">
        <path id="I5736:29944;5735:28763;5446:51311;6349:6979" d="M160 63H242"
          stroke="var(--clr-border-2)" stroke-width="1.2" />
        <path id="I5736:29944;5735:28763;5446:51311;6349:6980" d="M160 78H242"
          stroke="var(--clr-border-2)" stroke-width="1.2" />
      </g>
      <text opacity="0.7" fill="var(--clr-text-2)" xml:space="preserve" style="white-space: pre"
        font-family="Inter" font-size="13" font-weight="500" letter-spacing="0em"><tspan x="167.101" y="55.7273">Branch</tspan></text>
      <g id="I5736:29944;5735:28763;5446:51311;6349:6982">
        <path id="I5736:29944;5735:28763;5446:51311;6457:15992"
          d="M162 10.6H179C184.191 10.6 188.4 14.8085 188.4 20V31.4H152.6V20C152.6 14.8085 156.809 10.6 162 10.6Z"
          fill="var(--clr-bg-1)" stroke="var(--clr-border-2)" stroke-width="1.2" />
        <path id="I5736:29944;5735:28763;5446:51311;6457:15993"
          d="M198 10.6H215C220.191 10.6 224.4 14.8085 224.4 20V31.4H188.6V20C188.6 14.8085 192.809 10.6 198 10.6Z"
          fill="var(--clr-bg-1)" stroke="var(--clr-border-2)" stroke-width="1.2" />
      </g>
      <g id="I5736:29944;5735:28763;5446:51311;6349:6984">
        <path id="I5736:29944;5735:28763;5446:51311;6349:6985" opacity="0.5"
          d="M160 109H242M242 128H160" stroke="var(--clr-theme-pop-element)" stroke-width="1.2" />
        <path id="I5736:29944;5735:28763;5446:51311;6349:6986" opacity="0.17"
          d="M160 109H242V128H160V109Z" fill="var(--clr-theme-pop-element)" />
      </g>
      <path id="I5736:29944;5735:28763;5446:51311;6349:6987"
        d="M160 87V45C160 41.6863 162.686 39 166 39H236C239.314 39 242 41.6863 242 45V87M160 97.5V135C160 138.314 162.686 141 166 141H236C239.314 141 242 138.314 242 135V97.5"
        stroke="var(--clr-border-1)" stroke-width="1.2" />
    </g>
    <rect id="I5736:29944;5735:28763;5446:51311;6349:6989" x="156" y="91" width="90" height="2"
      rx="1" fill="var(--clr-theme-pop-element)" />
    <rect id="I5736:29944;5735:28763;5446:51311;6456:15721" opacity="0.12" x="72" y="10" width="74"
      height="139" rx="10" fill="var(--clr-core-ntrl-60)" />
    <g id="I5736:29944;5735:28763;5446:51311;6349:6990">
      <g id="I5736:29944;5735:28763;5446:51311;6349:6991">
        <g id="I5736:29944;5735:28763;5446:51311;6349:6992">
          <rect id="I5736:29944;5735:28763;5446:51311;6349:6993" x="136.616" y="103.216"
            width="73.8" height="18.8" rx="3.4" transform="rotate(-1.58774 136.616 103.216)"
            fill="var(--clr-theme-pop-bg)" stroke="var(--clr-theme-pop-element)" stroke-width="1.2" />
          <path id="I5736:29944;5735:28763;5446:51311;6349:6994" opacity="0.38"
            d="M143.274 112.435C143.228 110.778 144.534 109.399 146.19 109.353L167.182 108.771C168.838 108.725 170.218 110.03 170.264 111.687V111.687C170.31 113.343 169.004 114.723 167.348 114.769L146.356 115.35C144.7 115.396 143.32 114.091 143.274 112.435V112.435Z"
            fill="var(--clr-theme-pop-element)" />
        </g>
        <path id="I5736:29944;5735:28763;5446:51311;6349:6995"
          d="M196.289 121.312V128.312M200.289 121.312V128.312M204.289 121.312V128.312M193.407 135.812H199C199.188 135.812 199.376 135.762 199.525 135.647C200.201 135.127 200.642 134.357 201.024 133.531C201.361 132.804 202.3 132.763 202.694 133.461C203.175 134.311 203.724 135.116 204.562 135.672C204.707 135.769 204.881 135.812 205.055 135.812H206.812C207.519 135.812 208.02 135.089 207.868 134.398C207.662 133.457 207.543 132.296 207.789 131.312C208.289 129.312 211.289 127.812 212.289 122.812C213.219 118.161 214.045 112.464 210.789 111.812C208.789 111.412 207.622 113.979 207.289 115.312C207.455 113.479 207.789 110.312 204.789 109.812C202.062 109.358 201.152 112.312 200.789 114.312C200.789 112.312 200.489 109.312 197.289 109.312C194.089 109.312 193.955 112.979 194.289 114.812C193.622 113.312 192.617 110.203 189.289 111.312C185.789 112.479 188.289 117.312 189.789 120.312C189.122 118.979 187.189 116.712 184.789 118.312C181.789 120.312 183.789 124.312 185.789 126.312C187.556 128.08 191.289 130.812 191.789 132.812C191.921 133.344 191.984 133.816 192.003 134.223C192.038 134.965 192.663 135.812 193.407 135.812Z"
          stroke="#A19A96" fill="white" stroke-width="1.2" stroke-linecap="round" />
      </g>
    </g>
  </g>
</svg>