<svg xmlns="http://www.w3.org/2000/svg" width="260" height="160" viewBox="0 0 260 160" fill="none">
  <path
    d="M21 0.599609H239C249.714 0.599609 258.4 9.28568 258.4 20V139C258.4 149.714 249.714 158.4 239 158.4H21C10.2857 158.4 1.59961 149.714 1.59961 139V20C1.59961 9.28568 10.2857 0.599609 21 0.599609Z"
    fill="var(--clr-bg-1)" stroke="var(--clr-border-2)" stroke-width="1.2" />
  <path d="M12 32H66M12 48.6667H66M12 65.3333H66M12 82H66M12 98.6667H66"
    stroke="var(--clr-border-3)" stroke-width="1.2" />
  <rect x="11.6" y="10.6" width="53.8" height="137.8" rx="9.4" stroke="var(--clr-border-2)"
    stroke-width="1.2" />
  <rect opacity="0.12" x="72" y="10" width="64" height="139" rx="10" fill="var(--clr-core-ntrl-60)" />
  <path
    d="M152 10.5996H239C244.191 10.5996 248.4 14.8085 248.4 20V139C248.4 144.191 244.191 148.4 239 148.4H152C146.809 148.4 142.6 144.191 142.6 139V20C142.6 14.8085 146.809 10.5996 152 10.5996Z"
    fill="var(--clr-bg-1)" stroke="var(--clr-border-2)" stroke-width="1.2" />
  <path d="M221 49H249M221 64H249M221 79H249M221 94H249" stroke="var(--clr-border-2)"
    stroke-width="1.2" />
  <path
    d="M227 21.5996H248.4V108.4H227C224.018 108.4 221.6 105.982 221.6 103V27C221.6 24.0177 224.018 21.5996 227 21.5996Z"
    stroke="var(--clr-border-1)" stroke-width="1.2" />
  <rect x="231" y="33" width="18" height="5" fill="var(--clr-border-1)" />
  <path opacity="0.6"
    d="M142 20C142 14.4772 146.477 10 152 10H212V149H152C146.477 149 142 144.523 142 139V20Z"
    fill="var(--clr-theme-pop-bg)" />
  <path opacity="0.6"
    d="M152 10.5H211.5V148.5H152C146.753 148.5 142.5 144.247 142.5 139V20L142.513 19.5107C142.759 14.6535 146.653 10.7591 151.511 10.5127L152 10.5Z"
    stroke="var(--clr-core-pop-50)" />
  <rect x="152.6" y="21.6" width="49.8" height="86.8" rx="5.4" fill="var(--clr-theme-pop-bg-muted)"
    stroke="var(--clr-scale-pop-50)" stroke-width="1.2" />
  <path d="M152 49H203M152 64H203M152 79H203M152 94H203" stroke="var(--clr-scale-pop-50)"
    stroke-width="1.2" />
  <rect x="162" y="33" width="31" height="5" fill="var(--clr-scale-pop-50)" />
</svg>