<svg width="100%" height="100%" viewBox="0 0 16 16" fill="none" xmlns="http://www.w3.org/2000/svg"><path d="M7 1.57735C7.6188 1.22008 8.3812 1.22008 9 1.57735L13.0622 3.92265C13.681 4.27992 14.0622 4.94017 14.0622 5.6547V10.3453C14.0622 11.0598 13.681 11.7201 13.0622 12.0774L9 14.4226C8.3812 14.7799 7.6188 14.7799 7 14.4226L2.93782 12.0774C2.31902 11.7201 1.93782 11.0598 1.93782 10.3453V5.6547C1.93782 4.94017 2.31902 4.27992 2.93782 3.92265L7 1.57735Z" stroke="currentColor" stroke-width="1.5" vector-effect="non-scaling-stroke"/><path d="M7 5.57735C7.6188 5.22008 8.3812 5.22008 9 5.57735L9.59808 5.92265C10.2169 6.27992 10.5981 6.94017 10.5981 7.6547V8.3453C10.5981 9.05983 10.2169 9.72008 9.59808 10.0774L9 10.4226C8.3812 10.7799 7.6188 10.7799 7 10.4226L6.40192 10.0774C5.78312 9.72008 5.40192 9.05983 5.40192 8.3453V7.6547C5.40192 6.94017 5.78312 6.27992 6.40192 5.92265L7 5.57735Z" stroke="currentColor" stroke-width="1.5" vector-effect="non-scaling-stroke"/></svg>