<svg width="34" height="36" viewBox="0 0 34 36" fill="none" xmlns="http://www.w3.org/2000/svg">
<path d="M5.83842 14.1071C0.904406 7.55246 7.00791 2.99724 10.2239 5.92086C11.1011 1.53539 15.4867 0.950644 17.2409 3.58174C19.5799 0.0732219 23.6731 0.65808 25.135 3.28948C29.2841 -0.149694 32.1158 4.75945 32.4443 8.84436C32.7415 12.5411 32.9569 18.9244 30.2923 24.2381C31.7807 25.113 32.5249 26.4026 32.5249 27.8153C32.5249 31.0332 28.2344 33.393 23.5149 34.2511C18.7954 35.1091 12.6968 35.3236 11.7162 31.8913C11.4055 30.8041 11.5166 29.6052 12.151 28.4465C4.86586 25.8425 1.46632 20.3539 1.46631 17.7204C1.4663 14.9316 3.26415 13.6779 5.83842 14.1071Z" fill="var(--clr-theme-container-pale)"/>
<path d="M8.17765 17.0307C4.08445 12.9375 2.91497 8.55181 5.25393 5.92058C7.12515 3.81554 10.3011 5.33572 11.3937 7.08995M10.3022 5.92058C10.5166 4.45861 11.2183 2.82138 12.8556 2.11969C14.4929 1.418 16.364 1.82727 18.4107 5.04335M17.5335 3.5815C18.1183 2.41201 19.1123 1.18401 20.7496 0.950086C23.0886 0.615904 24.8428 2.70437 25.7199 4.45869M25.0221 3.28921C25.4276 2.4121 27.5978 1.69707 28.936 2.11969C34.4911 3.87399 33.7161 17.8605 30.5 24.0002M5.54631 14.107C4.08439 13.8146 1.74563 14.6917 1.45316 17.0307C1.17665 19.242 4.03621 24.8507 12.2554 28.421M13.2649 11.4996C14.0736 12.7703 14.7171 14.701 14.9334 16.0046M19.7006 10.2125C20.2306 11.5208 20.5093 13.612 20.5093 14.9156M25.8724 9.55248C26.3014 10.8396 26.3014 13.1994 26.1363 14.503M27.1818 23.2229C30.7439 23.7393 32.5249 25.6302 32.5249 27.8157C32.5249 31.0336 28.2344 33.3933 23.5149 34.2514C18.7954 35.1095 12.6968 35.324 11.7162 31.8916C11.0919 29.7066 12.1709 27.0701 15.7793 25.2153C17.1306 24.5207 18.8365 23.9358 20.9406 23.5252M27 28.5C24.5 27.8157 20.4 28.1 18 30.5" stroke="var(--clr-theme-scale-ntrl-60)" stroke-width="1.2"/>
</svg>
