<svg xmlns="http://www.w3.org/2000/svg" fill="none" viewBox="0 0 14 14"><path fill="var(--file-icon-red, #ef4444)" fill-rule="evenodd" d="M2.744 8.277c-.175.596-.262.894-.24 1.177.02.25.1.489.231.696.15.235.394.408.883.755l2.158 1.53c.435.31.653.464.889.524.208.054.425.054.634.002.236-.06.455-.213.892-.52l2.182-1.534c.493-.348.74-.52.892-.757.133-.208.213-.45.232-.701.022-.285-.069-.585-.248-1.185l-1.91-6.4c-.093-.31-.14-.465-.228-.58a.73.73 0 0 0-.294-.229C8.687 1 8.535 1 8.228 1h-2.49c-.308 0-.462 0-.592.056a.73.73 0 0 0-.295.23c-.088.116-.134.272-.225.584zm5.582-5.919c.073.097.11.23.186.49l1.64 5.734a6.6 6.6 0 0 0-1.961-.705L7.123 4.036a.15.15 0 0 0-.05-.076.134.134 0 0 0-.166 0 .15.15 0 0 0-.05.076L5.8 7.874a6.5 6.5 0 0 0-1.97.708l1.65-5.734c.075-.263.112-.394.186-.49a.6.6 0 0 1 .246-.194c.109-.046.237-.046.495-.046h1.177c.258 0 .387 0 .496.046q.146.064.246.194M7.054 9.27c.621 0 1.161-.168 1.432-.414a1.33 1.33 0 0 1-.087.978c-.173.341-.425.51-.651.663-.285.192-.53.357-.53.801 0 .147.032.287.09.41a1.07 1.07 0 0 1-.471-.411 1.17 1.17 0 0 1-.177-.62v-.028c0-.306 0-.683-.406-.683a.4.4 0 0 0-.304.133.46.46 0 0 0-.126.324c-.457-.487-.417-1.186-.417-1.186 0-.143.014-.366.074-.56.17.34.81.592 1.573.592" clip-rule="evenodd"/></svg>