<svg xmlns="http://www.w3.org/2000/svg" fill="none" viewBox="0 0 14 14"><path fill="var(--file-icon-yellow, #eab308)" d="M10.78 7.026q-.027-.144-.8-.99c-.013-.114.175-.27.545-.48l1.056-.93c.237-.3.377-.768.419-1.428l-.012-.156c-.043-.468-.382-.84-1.026-1.134q-.575-.38-2.05-.408-1.23.1-3.204.858-.547.389-1.238.768l.006.084.127-.048q.075-.008.085.066l.079-.042.042-.006.007.036c0 .042-.286.264-1.068.81l-.037.072c-.188.012-.37.15-.552.402l.049.072.151-.054.11.144q.29-.297.624-.522c.116.03.176.066.267.096.62-.45 1.232-.78 1.845-.984l.006.084c-.121.162-.194.252-.23.252l.06.138c.006.114-1.547 4.2-4.041 8.664l.049.114c.212-.048.351-.102.455-.156l.006.078.242-.018-.406 1.056.085.036a5.4 5.4 0 0 0 .789-1.128q1.518-.441 2.318-.864c.534-.048.946-.186 1.225-.42l.559-.282c.77-.588 1.347-1.002 1.741-1.248q1.212-.882 1.578-1.71zm-2.1 1.386-1.073.834c-.783.51-1.214.78-1.268.78-1.256.678-2.04 1.032-2.343 1.056l-.03.006q.038-.207 1.669-3.402.711-.055 2.25-.66l.25-.018c.515-.048.904.054 1.159.294l.018.156c-.188.54-.407.864-.631.954m.662-3.468q-.163.198-.91.666-.244.025-1.826.708l-.17-.03-.006-.072q-.02-.227.206-.57c.079-.42.17-.672.267-.72l.88-1.968c-.012-.132.176-.21.564-.276l.128-.012.006.108.703-.096c.698-.06 1.062.084 1.093.42l.079-.012-.019-.192.091-.012c.213.114.316.24.328.408q.016.163-.176.408c-.055.006-.085-.036-.09-.108l-.086.006-.018.24c-.352.522-.613.786-.77.804z"/></svg>