<svg xmlns="http://www.w3.org/2000/svg" fill="none" viewBox="0 0 14 14"><path fill="#fbf0df" stroke="#7b6d58" stroke-width=".8" d="M13.382 7.471c0 2.778-2.861 5.029-6.39 5.029C3.461 12.5.6 10.249.6 7.471c0-1.722 1.096-3.243 2.78-4.145S6.11 1.5 6.99 1.5s1.633.754 3.612 1.826c1.684.902 2.78 2.423 2.78 4.145Z"/><path fill="#000" d="M4.944 6.044a1.008 1.008 0 0 1 .732 1.373 1.008 1.008 0 0 1-1.935-.386 1.006 1.006 0 0 1 1.203-.987m4.53.001a1.008 1.008 0 0 1 .729 1.376 1.006 1.006 0 1 1-.729-1.376"/><path fill="#903131" d="M8.1 9c.22 0 .405.182.347.395a1.5 1.5 0 0 1-2.894 0C5.495 9.182 5.679 9 5.9 9z"/><path fill="#7b6d58" fill-rule="evenodd" d="M6.465 1.962a3 3 0 0 1-1.028 2.277c-.051.046-.01.133.055.108.615-.24 1.446-.955 1.096-2.4-.015-.082-.123-.06-.123.015m.415 0a2.97 2.97 0 0 1 .294 2.46c-.022.064.056.118.1.065.4-.51.749-1.526-.296-2.622-.053-.047-.135.026-.098.09zm.504-.031a3 3 0 0 1 1.25 2.147.06.06 0 0 0 .12.02c.167-.637.072-1.723-1.31-2.288-.073-.029-.12.07-.06.114zM4.013 3.83a3.1 3.1 0 0 0 1.912-1.643c.033-.066.137-.04.12.032-.316 1.461-1.373 1.766-2.03 1.726-.07.002-.068-.095-.002-.115" clip-rule="evenodd"/><path fill="#fff" fill-rule="evenodd" d="M4.435 7.095a.378.378 0 1 0 .003-.756.378.378 0 0 0-.003.756m4.523 0a.378.378 0 1 0-.004 0z" clip-rule="evenodd"/></svg>