<svg xmlns="http://www.w3.org/2000/svg" fill="none" viewBox="0 0 14 14"><path fill="var(--file-icon-blue, #0ea5e9)" d="M12 5.395H9.623a2.2 2.2 0 0 0-.265-.79 2 2 0 0 0-.516-.595 2.3 2.3 0 0 0-.727-.377 2.9 2.9 0 0 0-.884-.13q-.864 0-1.503.412-.64.409-.993 1.192-.353.78-.353 1.893 0 1.145.353 1.924.357.78.998 1.176.64.398 1.481.398.472 0 .874-.12a2.3 2.3 0 0 0 .722-.35q.315-.237.52-.57a2.2 2.2 0 0 0 .293-.764l2.377.01a4 4 0 0 1-.461 1.422q-.364.68-.982 1.219a4.7 4.7 0 0 1-1.465.846q-.847.309-1.916.309-1.486 0-2.658-.648-1.167-.649-1.845-1.877Q2 8.746 2 7q0-1.752.684-2.98.683-1.23 1.855-1.872Q5.711 1.5 7.176 1.5q.966 0 1.79.261a4.6 4.6 0 0 1 1.471.764q.64.496 1.042 1.218.407.721.521 1.652"/></svg>