<svg xmlns="http://www.w3.org/2000/svg" fill="none" viewBox="0 0 14 14"><g clip-path="url(#a)"><path stroke="var(--file-icon-purple, #a855f7)" stroke-width="1.4" d="M2.895 4.776 6.88 1.503a1 1 0 0 1 1.24-.023l3.798 2.9a1 1 0 0 1-.03 1.611L8.099 8.675a1 1 0 0 1-1.192-.027l-.904-.704a1 1 0 0 1 0-1.578l.904-.704a1 1 0 0 1 1.192-.027l3.748 2.652a1 1 0 0 1 0 1.633L8.1 12.57a1 1 0 0 1-1.193-.027L2.954 9.46a3 3 0 0 1-.059-4.684Z"/></g><defs><clipPath id="a"><path fill="#fff" d="M0 0h14v14H0z"/></clipPath></defs></svg>