<svg xmlns="http://www.w3.org/2000/svg" fill="none" viewBox="0 0 14 14"><path fill="var(--file-icon-blue, #0ea5e9)" d="M7.833 6.395h1.218v1.2H7.833v1.218H6.634V7.595h-1.21v-1.2h1.21V5.186h1.2zm4.53 0h1.218v1.2h-1.218v1.218h-1.2V7.595h-1.21v-1.2h1.21V5.186h1.2z"/><path fill="var(--file-icon-blue, #0ea5e9)" d="M6.177 1.5q.965 0 1.79.262a4.6 4.6 0 0 1 1.47.762A4 4 0 0 1 10.61 4H7.828a2.3 2.3 0 0 0-.713-.367 2.9 2.9 0 0 0-.885-.131q-.863 0-1.502.413-.64.409-.994 1.192-.352.78-.352 1.893 0 1.145.352 1.924.36.78 1 1.177.64.396 1.48.397.472 0 .874-.121.407-.12.722-.35L7.843 10h2.76q-.03.063-.064.126-.363.68-.982 1.219a4.7 4.7 0 0 1-1.465.846q-.847.309-1.915.309-1.487 0-2.66-.648-1.166-.649-1.844-1.877Q1 8.746 1 7q0-1.752.684-2.98.683-1.23 1.855-1.872Q4.711 1.5 6.177 1.5"/></svg>