<svg xmlns="http://www.w3.org/2000/svg" fill="none" viewBox="0 0 14 14"><g clip-path="url(#a)"><path fill="var(--file-icon-purple, #a855f7)" d="M11.163.872a1.96 1.96 0 0 1 1.96 1.96v8.33a1.96 1.96 0 0 1-1.96 1.96h-8.33a1.96 1.96 0 0 1-1.96-1.96V.872zM4.457 7.014C3.58 7.014 3 7.494 3 8.387v2.24C3 11.533 3.54 12 4.39 12c.877.013 1.498-.56 1.444-1.533h-.999c.027.346-.094.653-.404.653-.297-.013-.433-.213-.433-.627V8.547c0-.427.095-.653.433-.653.27-.014.43.253.404.613h.999C5.861 7.56 5.321 7 4.457 7.014M7.587 7c-.836 0-1.349.56-1.349 1.36 0 .72.257 1.08.877 1.373l.35.16c.365.174.514.36.514.694 0 .4-.108.573-.405.573s-.432-.267-.445-.693h-.93C6.211 11.413 6.696 12 7.56 12c.863 0 1.39-.507 1.39-1.427 0-.773-.297-1.187-.985-1.507l-.324-.146c-.324-.133-.446-.267-.446-.6s.136-.466.406-.466c.296 0 .377.266.377.653h.904C8.869 7.574 8.424 7 7.588 7Zm3.063 0c-.85 0-1.348.56-1.348 1.36 0 .72.242 1.08.863 1.373l.35.16c.378.174.513.36.513.694 0 .4-.121.573-.404.573s-.432-.267-.432-.693h-.945c.014.946.5 1.533 1.363 1.533.864 0 1.39-.507 1.39-1.427 0-.773-.297-1.187-.972-1.507l-.337-.146c-.323-.133-.431-.267-.431-.6s.12-.466.39-.466c.297 0 .378.266.392.653h.904C11.92 7.574 11.501 7 10.65 7"/></g><defs><clipPath id="a"><path fill="#fff" d="M0 0h14v14H0z"/></clipPath></defs></svg>