<svg xmlns="http://www.w3.org/2000/svg" fill="none" viewBox="0 0 14 14"><g fill="var(--file-icon-green, #16a34a)" clip-path="url(#a)"><path d="M4.675.93A6.47 6.47 0 0 1 9.302.925a6.57 6.57 0 0 1 3.455 3.061l.006-.002a6.6 6.6 0 0 1 .514 4.73 6.52 6.52 0 0 1-2.797 3.828l-.488-.769v-.002a5.62 5.62 0 0 0 2.406-3.295 5.68 5.68 0 0 0-.406-4h-.002a5.66 5.66 0 0 0-3.009-2.698 5.57 5.57 0 0 0-4.02.019l-.002-.004a5.6 5.6 0 0 0-2.555 2.044 5.7 5.7 0 0 0-.996 3.184q0 .602.127 1.189a5.7 5.7 0 0 0 1.99 3.151 5.6 5.6 0 0 0 3.717 1.225.29.29 0 0 0 .258-.184l.22-.537h.005L8.8 9.247l-1.778-4.37h1.039l1.268 3.201 1.262-3.2v-.003h.98L8.44 12.51l-.004-.001-.098.24a1.2 1.2 0 0 1-.422.53c-.188.131-.41.207-.639.216q-.13.007-.26.006h-.013a6.54 6.54 0 0 1-4.091-1.452 6.55 6.55 0 0 1-2.177-3.3l-.005.003A6.6 6.6 0 0 1 .5 7.02a6.63 6.63 0 0 1 1.157-3.7A6.5 6.5 0 0 1 4.674.926z"/><path d="M5.049 4.794c.438-.01.87.115 1.237.357s.654.59.823 1l.019.046-.885.302-.017-.038a1.26 1.26 0 0 0-.471-.57 1.24 1.24 0 0 0-.706-.205v.003a1.23 1.23 0 0 0-.924.384 1.34 1.34 0 0 0-.373.966 1.34 1.34 0 0 0 .373.958 1.25 1.25 0 0 0 .924.382c.25.008.497-.06.707-.199.21-.138.374-.338.468-.573l.017-.04.886.302-.018.045c-.169.41-.455.76-.823 1.001a2.16 2.16 0 0 1-1.237.357 2.2 2.2 0 0 1-1.622-.64 2.14 2.14 0 0 1-.657-1.596 2.17 2.17 0 0 1 .658-1.601 2.2 2.2 0 0 1 1.62-.64"/></g><defs><clipPath id="a"><path fill="#fff" d="M0 0h14v14H0z"/></clipPath></defs></svg>