<svg xmlns="http://www.w3.org/2000/svg" fill="none" viewBox="0 0 14 14"><path fill="var(--file-icon-gray, #807976)" fill-rule="evenodd" d="M1.376 10.072A6.2 6.2 0 0 1 .84 6.733q.04-.356.12-.698A6.25 6.25 0 0 1 2.897 2.78 6.25 6.25 0 0 1 7.05 1.2q.236 0 .475.018a6.23 6.23 0 0 1 3.572 1.47A6.26 6.26 0 0 1 13.3 7.45a6.3 6.3 0 0 1-.398 2.197 6.3 6.3 0 0 1-1.239 2.018c-.692.707-1.572 1.022-2.308 1.009a2.3 2.3 0 0 1-1.418-.534c-.517-.444-.725-.952-.797-1.52a2.6 2.6 0 0 1 .066-.79c.055-.199.194-.582.396-.749a2.4 2.4 0 0 1-.638-.431c-.024-.027-.021-.068 0-.096a.08.08 0 0 1 .092-.028c.204.07.452.14.714.183.345.058.773.13 1.207.152 1.058.052 2.163-.423 2.506-1.368s.21-1.88-1.02-2.44c-1.23-.561-1.8-1.228-2.794-1.63-.65-.263-1.372-.107-2.114.304-2 1.104-3.79 4.595-2.965 7.828a.1.1 0 0 1-.163.1 6.3 6.3 0 0 1-1.051-1.583" clip-rule="evenodd"/><path fill="var(--file-icon-gray, #807976)" fill-rule="evenodd" d="M7.056 4.188c.337-.027.631.261.682.644.068.51-.12 1.036-.735 1.048-.525.01-.684-.52-.65-.84.035-.321.3-.82.703-.852" clip-rule="evenodd"/></svg>