<svg xmlns="http://www.w3.org/2000/svg" fill="none" viewBox="0 0 14 14"><path fill="var(--file-icon-blue, #0ea5e9)" d="M13.862 5.54c-.038-.033-.393-.318-1.14-.318q-.296.002-.589.054a2.34 2.34 0 0 0-1.001-1.594l-.201-.123-.132.202a3 3 0 0 0-.357.89c-.134.602-.052 1.168.235 1.652-.347.207-.904.257-1.017.262H.438c-.24 0-.436.207-.437.464-.011.86.126 1.716.403 2.524.318.887.79 1.541 1.406 1.941.689.45 1.808.706 3.077.706a8.6 8.6 0 0 0 1.71-.165 6.9 6.9 0 0 0 2.23-.863 6.2 6.2 0 0 0 1.522-1.327c.73-.88 1.166-1.862 1.49-2.734h.128c.8 0 1.292-.34 1.563-.626.18-.183.321-.405.413-.65l.057-.18z"/><path fill="var(--file-icon-blue, #0ea5e9)" d="M1.293 6.277H2.53c.06 0 .108-.051.108-.115V4.99a.113.113 0 0 0-.108-.116H1.293c-.06 0-.108.052-.108.115v1.173c0 .064.048.115.108.115m1.703 0h1.236c.06 0 .108-.051.108-.115V4.99a.113.113 0 0 0-.108-.116H2.996c-.06 0-.108.052-.108.116v1.172c0 .064.048.115.108.115m1.729 0H5.96c.06 0 .108-.051.108-.115V4.99a.113.113 0 0 0-.108-.116H4.725c-.06 0-.108.052-.108.115v1.173c0 .064.048.115.108.115m1.708 0H7.67c.06 0 .108-.051.109-.115V4.99c0-.064-.049-.116-.109-.116H6.433c-.06 0-.108.052-.108.115v1.173c0 .064.049.115.108.115M2.996 4.59h1.236c.06 0 .108-.052.108-.115V3.302c0-.063-.049-.115-.108-.115H2.996c-.06 0-.108.052-.108.115v1.173c0 .063.048.115.108.115m1.729 0H5.96c.06 0 .108-.052.108-.115V3.302c0-.063-.049-.115-.108-.115H4.725c-.06 0-.108.052-.108.115v1.173c0 .063.048.115.108.115m1.708 0H7.67c.06 0 .108-.052.109-.115V3.302c0-.063-.05-.115-.109-.115H6.433c-.06 0-.108.052-.108.115v1.173c0 .063.049.115.108.115m0-1.687H7.67c.06 0 .108-.051.109-.115V1.615A.113.113 0 0 0 7.67 1.5H6.433c-.06 0-.108.051-.108.115v1.173c0 .064.049.115.108.115m1.724 3.374h1.236c.06 0 .108-.051.108-.115V4.99c0-.064-.048-.116-.108-.116H8.157c-.06 0-.108.052-.108.115v1.173c0 .064.048.115.108.115"/></svg>