<svg xmlns="http://www.w3.org/2000/svg" fill="none" viewBox="0 0 14 14"><path fill="var(--file-icon-green, #16a34a)" d="M3.123 6.901a.567.567 0 0 0-.23-.795.635.635 0 0 0-.84.223l-1.972 3.3a.567.567 0 0 0 .23.796c.295.158.67.058.838-.223zM7.375 4.37a.567.567 0 0 0-.23-.795.635.635 0 0 0-.838.223l-1.973 3.3a.567.567 0 0 0 .23.796c.295.158.67.058.838-.223zm6.545 0a.567.567 0 0 0-.23-.795.635.635 0 0 0-.84.223l-1.973 3.3a.567.567 0 0 0 .23.796.637.637 0 0 0 .84-.223zM9.665 6.901a.567.567 0 0 0-.23-.795.635.635 0 0 0-.838.223l-1.973 3.3a.567.567 0 0 0 .23.796c.295.158.67.058.838-.223z"/></svg>