<svg xmlns="http://www.w3.org/2000/svg" fill="none" viewBox="0 0 14 14"><path fill="var(--file-icon-gray, #807976)" d="M11 .4A2.6 2.6 0 0 1 13.6 3v8a2.6 2.6 0 0 1-2.6 2.6H3A2.6 2.6 0 0 1 .4 11V3A2.6 2.6 0 0 1 3 .4zM1.6 11A1.4 1.4 0 0 0 3 12.4h8a1.4 1.4 0 0 0 1.4-1.4V3H1.6zm4.385-6.642a1.443 1.443 0 0 0 2.045 0l.349-.353c.384.152.737.366 1.047.63l-.132.43c-.228.75.239 1.532 1.023 1.715l.38.09a3.8 3.8 0 0 1 .005 1.234l-.412.098c-.777.186-1.239.961-1.017 1.706l.14.468A3.8 3.8 0 0 1 8.367 11l-.352-.358a1.443 1.443 0 0 0-2.045 0l-.348.353a3.8 3.8 0 0 1-1.048-.629l.132-.431c.228-.75-.238-1.532-1.022-1.715l-.381-.09a3.8 3.8 0 0 1-.005-1.234l.412-.098c.777-.186 1.238-.96 1.017-1.705l-.14-.47A3.8 3.8 0 0 1 5.634 4zM7 6.476a1.023 1.023 0 1 0 .002 2.051A1.023 1.023 0 0 0 7 6.476"/></svg>