<svg xmlns="http://www.w3.org/2000/svg" fill="none" viewBox="0 0 14 14"><path fill="var(--file-icon-orange, #f5700b)" fill-rule="evenodd" d="M2.923 8.424 5.708 3.03 4.464.656a.3.3 0 0 0-.128-.127.28.28 0 0 0-.333.063.3.3 0 0 0-.077.166zm8.43 2.546-4.288 2.492a.28.28 0 0 1-.282 0l-4.136-2.404a.29.29 0 0 1-.144-.22.3.3 0 0 1 .081-.25L9.705 3.23a.29.29 0 0 1 .29-.074q.076.025.13.087a.3.3 0 0 1 .067.143l1.303 7.27a.3.3 0 0 1-.022.18.3.3 0 0 1-.12.133zM8.106 4.04l-4.86 5.02 3.435-6.652a.3.3 0 0 1 .103-.114.28.28 0 0 1 .4.105z" clip-rule="evenodd"/></svg>