<svg xmlns="http://www.w3.org/2000/svg" fill="none" viewBox="0 0 14 14"><path fill="var(--file-icon-gray, #807976)" d="M1.85 11.374H0L2.818 2.5h2.224l2.814 8.874h-1.85L3.963 4.528h-.064zm-.116-3.488h4.368v1.465H1.734zm8.818 3.614q-.585 0-1.044-.221a1.73 1.73 0 0 1-.725-.663q-.264-.443-.263-1.1 0-.554.187-.932.188-.378.51-.607.323-.23.733-.347.415-.117.87-.164.533-.06.86-.113.327-.055.475-.165.147-.108.147-.32v-.026q0-.412-.24-.637-.235-.225-.669-.225-.457 0-.73.22-.27.217-.358.547l-1.57-.14q.12-.606.47-1.048.351-.446.905-.684.558-.243 1.291-.243.51 0 .977.13.47.13.833.403.366.273.578.702.21.424.211 1.018v4.49h-1.61v-.924h-.048q-.147.313-.395.55a1.8 1.8 0 0 1-.593.369q-.348.13-.802.13m.487-1.274q.375 0 .661-.16.288-.165.45-.442.165-.278.164-.629V8.29a1 1 0 0 1-.22.104 4 4 0 0 1-.306.082q-.172.036-.343.065l-.31.048q-.3.047-.523.152a.85.85 0 0 0-.347.281.73.73 0 0 0-.123.434q0 .376.25.576.255.195.647.195"/></svg>