<svg xmlns="http://www.w3.org/2000/svg" fill="none" viewBox="0 0 14 14"><path fill="var(--file-icon-purple, #a855f7)" d="M7 1c3.3 0 6 2.7 6 6s-2.7 6-6 6-6-2.7-6-6 2.7-6 6-6M2.12 7.043c0 1.245.489 2.444 1.42 3.375a4.82 4.82 0 0 0 3.374 1.42h.402L2.12 6.64zM7 2.119c-2.31 0-4.26 1.642-4.748 3.817l-.02.088 5.789 5.79.091-.024c2.128-.532 3.769-2.481 3.769-4.79v-.167H8.548v1.19h2.008a3.72 3.72 0 0 1-2.227 2.427L3.55 5.67C4.07 4.29 5.437 3.31 7 3.31c1.229 0 2.337.615 3.037 1.561l.107.145.896-.777-.092-.124A4.9 4.9 0 0 0 7 2.12"/></svg>