<svg xmlns="http://www.w3.org/2000/svg" fill="none" viewBox="0 0 14 14"><g clip-path="url(#a)"><path fill="var(--file-icon-orange, #f5700b)" d="M13.255 6.421 7.579.745a.837.837 0 0 0-1.184 0L5.216 1.924l1.495 1.495a.994.994 0 0 1 1.26 1.268l1.44 1.44a.994.994 0 0 1 1.03 1.646.996.996 0 0 1-1.626-1.084L7.47 5.345v3.537q.143.07.263.188a.996.996 0 1 1-1.082-.217v-3.57a.996.996 0 0 1-.54-1.306L4.636 2.503.745 6.395a.837.837 0 0 0 0 1.184l5.676 5.676a.837.837 0 0 0 1.184 0l5.65-5.65a.84.84 0 0 0 0-1.184"/></g><defs><clipPath id="a"><path fill="#fff" d="M0 0h14v14H0z"/></clipPath></defs></svg>