<svg xmlns="http://www.w3.org/2000/svg" fill="none" viewBox="0 0 14 14"><path fill="var(--file-icon-gray, #807976)" fill-rule="evenodd" d="M7 1C3.685 1 1 3.753 1 7.152c0 2.722 1.717 5.021 4.103 5.836.3.054.412-.13.412-.292 0-.146-.007-.63-.007-1.146-1.508.285-1.898-.377-2.018-.723-.068-.176-.36-.722-.615-.868-.21-.116-.51-.4-.007-.408.472-.008.81.446.922.63.54.931 1.402.67 1.747.508.053-.4.21-.669.383-.823-1.335-.154-2.73-.684-2.73-3.037 0-.67.232-1.223.615-1.653-.06-.154-.27-.785.06-1.63 0 0 .502-.162 1.65.63.48-.139.99-.208 1.5-.208s1.02.07 1.5.208c1.147-.8 1.65-.63 1.65-.63.33.845.12 1.476.06 1.63.383.43.615.976.615 1.653 0 2.36-1.402 2.883-2.738 3.037.218.193.406.562.406 1.138 0 .823-.008 1.484-.008 1.692 0 .162.113.354.412.292a6.02 6.02 0 0 0 2.96-2.244A6.27 6.27 0 0 0 13 7.152C13 3.752 10.315 1 7 1" clip-rule="evenodd"/></svg>