<svg xmlns="http://www.w3.org/2000/svg" fill="none" viewBox="0 0 14 14"><path fill="var(--file-icon-blue, #0ea5e9)" fill-rule="evenodd" d="M.515 5.817q-.045-.002-.022-.04l.157-.21c.015-.024.052-.04.082-.04h1.954c.03 0 .038.024.023.047l-.127.204c-.015.023-.053.047-.075.047zm-.485.719c-.03 0-.037-.016-.023-.039l.158-.211c.014-.024.052-.04.082-.04h2.05c.03 0 .045.024.038.048l-.06.187c-.007.032-.037.047-.067.047zm1.165.719c-.03 0-.037-.023-.022-.046l.105-.196c.015-.023.045-.047.075-.047h.78c.03 0 .045.024.045.055l-.015.188c0 .03-.03.054-.053.054zm7.048-1.579c-.471.125-.793.219-1.257.344-.112.031-.12.04-.217-.078a1 1 0 0 0-.351-.297c-.471-.243-.927-.172-1.354.117-.508.344-.77.852-.762 1.486.007.625.418 1.141 1.01 1.227.508.07.934-.117 1.27-.516.068-.086.128-.18.202-.29H5.341c-.157 0-.194-.1-.142-.234.097-.242.277-.649.381-.852.023-.047.075-.125.187-.125H8.49c-.015.211-.015.422-.044.633a3.4 3.4 0 0 1-.614 1.533c-.538.743-1.241 1.204-2.131 1.33-.733.1-1.413-.048-2.012-.517q-.828-.657-.95-1.736c-.097-.852.143-1.618.636-2.29.531-.728 1.234-1.19 2.094-1.354.703-.133 1.376-.046 1.982.384.396.273.68.649.867 1.102.045.07.015.11-.074.133" clip-rule="evenodd"/><path fill="var(--file-icon-blue, #0ea5e9)" d="M10.718 10c-.68-.016-1.301-.219-1.825-.688a2.48 2.48 0 0 1-.807-1.51c-.135-.883.097-1.665.605-2.36.546-.751 1.204-1.142 2.094-1.306.763-.141 1.48-.063 2.132.398.59.423.957.993 1.054 1.744.127 1.056-.165 1.916-.86 2.65-.494.525-1.1.853-1.795 1.002-.202.039-.404.047-.598.07m1.78-3.159c-.008-.102-.008-.18-.023-.258-.134-.774-.815-1.212-1.525-1.04-.696.164-1.144.626-1.309 1.36-.135.61.15 1.228.688 1.478.411.188.823.165 1.219-.046.59-.321.912-.821.95-1.494"/></svg>