<svg xmlns="http://www.w3.org/2000/svg" fill="none" viewBox="0 0 14 14"><g clip-path="url(#a)"><path fill="var(--file-icon-orange, #f5700b)" d="M7.757 5.818a1.14 1.14 0 0 1-.207 1.654c.69 0 2.29-.94 1.078-2.233-.855-1.157-1.078-2.28.866-2.782-.866-.217-3.845.903-1.737 3.36"/><path fill="var(--file-icon-orange, #f5700b)" d="M7.025 0s2.243.85.131 2.457c-2.316 1.763-.562 3.36-.131 4.466C5.068 6.16 4.309 4.459 5.068 3.36 6.182 1.748 8.555 1.68 7.025 0"/><path fill="var(--file-icon-teal, #14b8a6)" d="M4.867 10.446s-.622.349.442.467a9.6 9.6 0 0 0 3.37-.138c.286.165.933.531 1.243.647-3.185 1.315-7.557-.302-5.055-.976M4.475 8.73s-.697.497.368.603c1.45.167 2.92.099 4.347-.2.193.173.483.75.732.836-3.851 1.085-8.203-.36-5.447-1.24"/><path fill="var(--file-icon-teal, #14b8a6)" d="M11.922 11.516s.082.326-.885.609c-1.839.536-6.478.446-8.037 0-.6-.172.065-.71.438-.703-1.36-.375-3.16 1.128-1.532 1.406 5.672.969 11.735-.375 10.016-1.312M5.164 6.95s-2.6.6-.689.846a24.5 24.5 0 0 0 6.007-.274c-.258.108-.464.736-.7.883-3.005.76-8.85-.093-7.181-.872a5.75 5.75 0 0 1 2.56-.583m5.308 2.858c1.44-.722 2.221-2.58.232-2.58.065-.088.23-.286.336-.324 1.95-.66 3.448 1.948-.63 2.98a.3.3 0 0 0 .062-.076"/><path fill="var(--file-icon-teal, #14b8a6)" d="M5.464 13.95c2.93.182 7.645.003 7.411-1.825 0 0-.177.751-2.393 1.156-2.45.406-4.56.406-7.318.254 0 0 .375.299 2.3.418"/></g><defs><clipPath id="a"><path fill="#fff" d="M0 0h14v14H0z"/></clipPath></defs></svg>