<svg xmlns="http://www.w3.org/2000/svg" fill="none" viewBox="0 0 14 14"><g clip-path="url(#a)"><mask id="b" x="0" y="0" maskUnits="userSpaceOnUse" style="mask-type:luminance"><path fill="#fff" d="M.5.5h13v13.108H.5z"/></mask><g mask="url(#b)"><path fill="#f0d6b7" fill-rule="evenodd" d="m10.137 10.825-1.126.17-1.52.17-.984.029-.957-.029-.732-.227-.647-.71-.507-1.446-.112-.312-.676-.227-.394-.653-.281-.936.31-.823.731-.256.591.284.282.624.337-.056.113-.142-.113-.653-.028-.823.169-1.135-.007-.648.514-.827.9-.653L7.576.865l1.745.255 1.52 1.107.703 1.135.45.823.113 2.043-.338 1.76-.619 1.56-.59.823" clip-rule="evenodd"/><path fill="#335061" fill-rule="evenodd" d="m9.18 15.734-4.024.17v.68l.338 2.384-.169.2-2.814-.966-.197-.34-.282-3.207-.647-1.93-.14-.453 2.25-1.56.704-.284.62.766.534.482.62.199.28.085.338 1.475.254.312.647-.227-.45.88 2.448 1.163z" clip-rule="evenodd"/><path fill="#6d6b6d" fill-rule="evenodd" d="m2.51 5.83.733-.255.59.284.282.624.338-.057.084-.34-.169-.653.17-1.56-.142-.852.507-.595L6 1.546l-.31-.426-1.547.766-.647.511-.366.795-.563.766-.169.908z" clip-rule="evenodd"/><path fill="#dcd9d8" fill-rule="evenodd" d="M3.665 3.164s.422-1.05 2.11-1.56c1.689-.512.085-.37.085-.37l-1.83.71-.703.71-.31.567zM2.82 5.632s-.59-1.986 1.66-2.27l-.084-.34-1.547.368-.45 1.476.112.965z" clip-rule="evenodd"/><path fill="#f7e4cd" fill-rule="evenodd" d="m3.72 8.27.37-.359s.166.02.194.218c.028.199.112 1.986 1.322 2.951.11.088-.9-.142-.9-.142l-.9-1.418m5.093-1.788s.066-.86.296-.794.23.298.23.298-.559.364-.526.496" clip-rule="evenodd"/><path fill="#f7e4cd" d="M11.235 4.582s-.463.099-.506.511.506.085.59.057m-3.49-.54s-.618.086-.618.483.703.369.9.199"/><path fill="#f7e4cd" fill-rule="evenodd" d="M4.002 6.455s-1.07-.653-1.182-.028c-.112.624-.366 1.078.17 1.73l-.367-.113-.337-.88-.113-.85.647-.682.732.057.422.34zm.507-1.788s.478-2.497 2.899-2.979c1.992-.397 3.039.085 3.433.54 0 0-1.773-2.129-3.461-1.476-1.69.652-2.927 1.844-2.9 2.61.049 1.305.029 1.305.029 1.305m6.53-2.157s-.817-.028-.845.71c0 0 0 .113.056.227 0 0 .648-.738 1.041-.34" clip-rule="evenodd"/><path fill="#f7e4cd" fill-rule="evenodd" d="M7.464 3.524s-.14-1.132-1.098-.474c-.619.426-.562 1.022-.45 1.135s.082.342.168.185c.085-.157.057-.667.367-.81.31-.141.817-.3 1.013-.036" clip-rule="evenodd"/><path fill="#49728b" fill-rule="evenodd" d="m4.818 11.194-2.645 1.191s1.098 4.399.535 5.76l-.394-.141-.028-1.674-.732-3.178-.31-.88 2.758-1.873zm.273 2.432.375.462v1.703h-.45s-.057-1.192-.057-1.334.056-.653.056-.653m.085 2.242-1.267.057.366.255.9.142" clip-rule="evenodd"/><path fill="#335061" fill-rule="evenodd" d="m9.715 15.762 1.576-.085s.647-1.646.647-1.73c0-.086.563-2.384.563-2.384l-1.266-1.334-.254-.227-.675.68v2.64z" clip-rule="evenodd"/><path fill="#49728b" fill-rule="evenodd" d="m10.419 15.563-.985.199.14.795c.366.17.986-.284.986-.284m-.113-5.675 1.97 1.475.056-.68-1.491-1.391z" clip-rule="evenodd"/><path fill="#fff" d="m9.651 15.535-.62-1.589-.646-.936s.14-.397.337-.397h.648l.619.227-.056 1.05z"/><path fill="#dcd9d8" fill-rule="evenodd" d="M9.772 14.996s-.788-1.532-.788-1.76c0 0 .14-.34.337-.255s.62.312.62.312v-.539l-.957-.198-.648.085 1.098 2.61.225.029" clip-rule="evenodd"/><path fill="#fff" d="m6.33 11.25-.78-.085-.732-.227v.256l.358.397 1.126.51"/><path fill="#dcd9d8" fill-rule="evenodd" d="M5.072 11.336s.872.369 1.154.284l.028.34-.788-.17-.479-.34z" clip-rule="evenodd"/><path fill="#d33833" fill-rule="evenodd" d="M10.774 12.71a5.3 5.3 0 0 1-1.287-.18c.026-.156-.023-.309.016-.421.105-.077.282-.076.44-.094a.76.76 0 0 0-.489-.055c-.004-.109-.052-.176-.08-.26.268-.097.901-.73 1.258-.52.17.099.242.669.255.946.011.23-.02.462-.114.583" clip-rule="evenodd"/><path stroke="#d33833" stroke-width=".285" d="M10.774 12.71a5.3 5.3 0 0 1-1.287-.18c.026-.156-.023-.309.016-.421.105-.077.282-.076.44-.094a.76.76 0 0 0-.489-.055c-.004-.109-.052-.176-.08-.26.268-.097.901-.73 1.258-.52.17.099.242.669.255.946.011.23-.02.462-.114.583Z"/><path fill="#d33833" fill-rule="evenodd" d="m8.49 11.922-.004.11c-.15.099-.39.098-.554.18.241.011.431.07.596.152l-.011.276c-.273.188-.523.47-.845.646-.152.084-.686.299-.848.261-.091-.021-.1-.136-.136-.244-.078-.231-.258-.6-.273-.948-.02-.44-.064-1.177.406-1.086.379.073.82.25 1.114.411.179.099.283.221.555.242" clip-rule="evenodd"/><path stroke="#d33833" stroke-width=".285" d="m8.49 11.922-.004.11c-.15.099-.39.098-.554.18.241.011.431.07.596.152l-.011.276c-.273.188-.523.47-.845.646-.152.084-.686.299-.848.261-.091-.021-.1-.136-.136-.244-.078-.231-.258-.6-.273-.948-.02-.44-.064-1.177.406-1.086.379.073.82.25 1.114.411.179.099.283.221.555.242Z"/><path fill="#d33833" fill-rule="evenodd" d="M8.761 12.447c-.041-.24-.09-.308-.071-.517.634-.426.753.732.071.517" clip-rule="evenodd"/><path stroke="#d33833" stroke-width=".285" d="M8.761 12.447c-.041-.24-.09-.308-.071-.517.634-.426.753.732.071.517Z"/><path fill="#ef3d3a" fill-rule="evenodd" d="M9.679 12.641s-.197-.284-.056-.369c.14-.085.281 0 .366-.142s0-.227.028-.397.169-.199.31-.227.534-.085.59.057l-.169-.511-.337-.113-1.07.624-.056.312v.624m-2.561 1.079q-.05-.665-.11-1.328c-.06-.66.158-.545.726-.545.087 0 .534.104.566.17.153.316-.257.246.177.484.366.201 1.012-.122.864-.57-.083-.099-.431-.03-.556-.095l-.66-.345c-.28-.147-.926-.36-1.224-.155-.756.518.048 1.813.317 2.353" clip-rule="evenodd"/><path fill="#231f20" fill-rule="evenodd" d="M7.464 3.524c-.767-.18-1.148.324-1.38.846-.208-.05-.125-.335-.073-.48.137-.38.69-.888 1.143-.819.194.03.458.209.31.453m3.738.88.036.002c.174.363.324.748.542 1.068-.146.344-1.109.648-1.094.03.208-.09.568-.018.752-.135-.107-.295-.26-.547-.236-.965m-3.345.01c.164.305.218.624.452.854.105.103.31.23.208.517-.023.068-.197.219-.297.249-.365.108-1.217.022-.928-.437.302.014.708.197.934-.024-.174-.28-.483-.833-.369-1.159m3.207 3.09c-.55.356-1.164.744-2.065.654-.193-.17-.266-.545-.08-.793.098.169.037.48.309.526.511.088 1.107-.315 1.475-.457.228-.388-.02-.53-.226-.78-.42-.511-.985-1.145-.965-1.911.17-.125.185.19.21.247.22.518.772 1.182 1.176 1.625.1.11.262.215.28.287.053.21-.136.462-.114.602M3.81 7.128c-.173-.099-.214-.536-.416-.548-.29-.018-.237.567-.236.909-.199-.183-.234-.744-.088-1.032-.166-.083-.24.09-.333.152.118-.87 1.263-.404 1.073.52m7.604.738c-.256.492-.618 1.033-1.37 1.05-.015-.16-.027-.401.001-.497.575-.056.93-.35 1.37-.553m-3.6.32c.48.253 1.36.28 2.012.261.035.144.034.322.035.498-.837.042-1.828-.167-2.047-.76m-.091.473c.331.84 1.47.743 2.431.72-.042.108-.134.237-.248.284-.307.126-1.157.222-1.584-.007-.271-.145-.445-.474-.594-.666-.072-.093-.429-.33-.005-.331" clip-rule="evenodd"/><path fill="#81b0c4" fill-rule="evenodd" d="M11.025 13.288c-.39.672-.762 1.362-1.223 1.955.193-.574.276-1.534.305-2.266.405-.191.752.043.918.311" clip-rule="evenodd"/><path fill="#f0d6b7" fill-rule="evenodd" d="M9.63 11.158c-.2.132-.37.297-.563.438-.427.021-.66-.03-.973-.277.005-.02.037-.011.038-.036.457.206 1.037-.083 1.498-.125" clip-rule="evenodd"/><path fill="#81b0c4" fill-rule="evenodd" d="M7.233 14.298c.125-.549.617-.833 1.063-1.135.461.59.742 1.349 1.05 2.08-.73-.221-1.474-.58-2.113-.946" clip-rule="evenodd"/><path fill="#231f20" fill-rule="evenodd" d="M9.797 18.678c-.019.448.044 1.167.064 1.637.296 0 .423-.065.643-.14.025-.553-.173-1.065-.23-1.57-.117-.032-.332.082-.477.073m-4.603-2.55c.195 1.807.478 3.326.995 4.926 1.15.351 2.535.382 3.55.065-.186-.903-.104-2.003-.213-2.966-.082-.724-.04-1.453-.153-2.192-1.231-.258-2.97-.06-4.179.167m4.47-.156c-.01.776.034 1.542.093 2.319.295-.045.496-.075.77-.136-.089-.748-.078-1.59-.26-2.251-.21.002-.394-.002-.603.068m1.499-.125c-.14-.032-.304-.001-.438.002.063.632.216 1.33.27 1.994.21.006.323-.094.497-.127.009-.583-.05-1.386-.33-1.869m2.27 2.091c.439-.107.715-.65.592-1.207-.082-.375-.229-1.08-.386-1.32-.116-.177-.431-.41-.683-.247-.41.264-1.13.341-1.428.66.15.503.196 1.193.258 1.83.51.031 1.14-.142 1.565.042-.297.097-.682.098-.939.239.21.102.7.081 1.02.003m-4.087-2.694c-.309-.732-.59-1.49-1.05-2.08-.446.301-.938.585-1.064 1.134.64.364 1.385.724 2.114.946m.76-2.267c-.028.732-.111 1.692-.305 2.266.462-.593.834-1.283 1.223-1.954-.166-.269-.512-.503-.917-.312m-.862-.309c-.175-.019-.323.203-.55.107-.053.058-.1.12-.153.178.502.61.73 1.476 1.118 2.193.208-.69.184-1.444.23-2.196-.286.019-.444-.26-.645-.282m-.554-.738c-.02.209.03.277.07.517.682.215.563-.943-.07-.517m-.756-.25a4.2 4.2 0 0 0-1.114-.41c-.47-.092-.426.646-.406 1.085.016.348.195.717.273.948.037.108.045.223.137.244.162.038.696-.177.848-.26.322-.178.571-.459.844-.647l.011-.276a1.4 1.4 0 0 0-.595-.151c.163-.083.404-.082.553-.18l.004-.11c-.272-.022-.375-.144-.555-.243m-2.804-.514c-.244.25.683.59.978.608-.001-.158.09-.306.071-.42-.35-.062-.81-.02-1.05-.188m3.001.117c0 .025-.032.016-.037.036.313.247.546.298.973.277.192-.141.363-.306.563-.438-.461.042-1.042.33-1.498.126m2.755.843c-.013-.277-.085-.847-.255-.947-.356-.21-.99.424-1.258.52.029.085.077.152.08.26a.76.76 0 0 1 .49.056c-.159.018-.335.017-.44.094-.04.112.009.265-.017.422.378.107.81.164 1.287.178.093-.121.125-.353.114-.583m-6.166-.718c-.077-.056-.594-.734-.665-.706-.937.372-1.813 1.016-2.595 1.625.746 1.614 1.047 3.592 1.1 5.499.855.403 1.606.984 2.766 1.044-.134-.957-.257-1.811-.333-2.713-.292-.124-.71.006-.982-.038-.003-.332.416-.146.45-.368.027-.169-.23-.181-.146-.447.213.078.325.25.553.316.207-.459-.003-1.27.027-1.653.005-.072.035-.398.195-.34.141.05-.008.868.008 1.23.014.334-.04.657.094.867a32 32 0 0 1 3.472-.287c-.267-.115-.584-.224-.931-.422-.188-.107-.782-.33-.837-.51-.086-.288.228-.44.282-.687-.566.31-.676-.298-.81-.73a6 6 0 0 1-.22-.909c-.488-.234-1.009-.471-1.428-.771m5.672-.624c.78-.382.92 1.426.615 2.008.047.174.21.24.276.396-.436.787-.92 1.521-1.364 2.298.33-.207.803-.037 1.192-.192.142-.057.245-.385.353-.648.296-.722.607-1.632.745-2.322.031-.157.116-.499.097-.639-.034-.25-.37-.436-.542-.59-.315-.286-.514-.538-.843-.805-.134.199-.42.332-.53.494M2.935 3.806c-.372.413-.294 1.186-.249 1.736.672-.427 1.564.034 1.556.759.32-.009.12-.405.062-.66-.19-.831.32-1.736.023-2.497-.576.044-1.049.281-1.392.662m2.66-2.394c-.841.24-1.92.857-2.266 1.62.268-.04.454-.176.718-.192.1-.007.23.042.346.013.228-.057.421-.574.594-.767.168-.188.37-.268.509-.439.089-.043.22-.04.225-.175-.039-.041-.08-.073-.125-.06m4.383.226c-.874-.497-2.353-.87-3.282-.403-.75.377-1.764 1-2.11 1.79.323.764-.095 1.463-.122 2.237-.014.412.192.772.208 1.22-.11.184-.448.207-.682.194-.078-.396-.216-.842-.621-.887-.574-.063-.993.415-1.02.915-.03.588.449 1.563 1.128 1.495.262-.026.326-.29.612-.288.155.312-.239.41-.28.632-.01.058.033.283.058.388.124.514.398 1.178.669 1.57.343.495 1.018.57 1.744.619.13-.282.606-.259.918-.185-.373-.149-.72-.51-1.007-.83-.33-.366-.664-.76-.681-1.238.623.872 1.138 1.634 2.272 2.017.858.29 1.86-.133 2.52-.6.273-.193.436-.501.63-.783.728-1.055 1.068-2.561.993-4.021-.03-.602-.03-1.202-.23-1.607-.209-.424-.917-.802-1.332-.42-.077-.411.345-.666.84-.518-.353-.46-.723-1.011-1.225-1.297m1.627 13.584c.683-.343 1.959-.922 2.387 0 .158.34.343.915.425 1.266.116.496-.125 1.536-.63 1.703-.446.146-.966.137-1.503.029a.8.8 0 0 1-.183-.242c-.384-.015-.743.02-1.046.18.03.285-.163.331-.342.39-.134.533.266 1.23.17 1.715-.068.346-.49.4-.8.465-.01.192.013.353.034.515-.071.264-.39.415-.691.451-.993.12-2.5.175-3.455-.171-.267-.66-.477-1.461-.699-2.214-.931.1-1.684-.405-2.394-.736-.246-.115-.586-.178-.678-.375-.09-.192-.053-.558-.075-.904-.056-.883-.104-1.735-.336-2.64-.103-.405-.285-.763-.41-1.155-.118-.362-.322-.81-.375-1.171-.079-.536.422-.566.741-.798.495-.359.883-.557 1.419-.881.158-.096.637-.34.691-.451.108-.222-.185-.534-.264-.708a2.2 2.2 0 0 1-.207-.78 1.5 1.5 0 0 1-.995-.645c-.34-.503-.577-1.434-.282-2.142.023-.056.138-.165.155-.25.033-.17-.063-.394-.07-.573-.03-.92.155-1.713.77-1.99.249-1.002 1.142-1.336 1.983-1.834.314-.186.66-.305 1.019-.437 1.284-.477 3.254-.387 4.32.425.451.345 1.173 1.073 1.432 1.6.682 1.39.634 3.714.156 5.406-.064.227-.157.561-.287.834-.09.19-.372.572-.338.74.036.174.642.638.772.765.235.227.68.53.716.818.039.306-.134.724-.221 1.02a40 40 0 0 1-.909 2.775" clip-rule="evenodd"/><path fill="#f7e4cd" fill-rule="evenodd" d="M7.05 8.4c.038-.05.242-.126.527.013 0 0-.338.057-.31.624l-.14-.028s-.146-.515-.076-.61" clip-rule="evenodd"/><path fill="#1d1919" fill-rule="evenodd" d="M9.519 13.28a.155.155 0 1 1-.31 0 .155.155 0 1 1 .31 0m.155.723a.16.16 0 0 1-.096.144.154.154 0 0 1-.214-.144q0-.065.045-.11a.154.154 0 0 1 .265.11" clip-rule="evenodd"/><path fill="#000" d="M6.633 13.417h-4.93a.07.07 0 0 0-.07.072v.156c0 .04.031.071.07.071h4.93a.07.07 0 0 0 .07-.071v-.156a.07.07 0 0 0-.07-.072m5.286 0H7.556a.07.07 0 0 0-.07.072v.156c0 .04.031.071.07.071h4.363a.07.07 0 0 0 .07-.071v-.156a.07.07 0 0 0-.07-.072"/><path fill="#000" d="M6.498 13.272H1.704a.07.07 0 0 0-.071.071v.157c0 .04.031.071.07.071h4.795a.07.07 0 0 0 .07-.071v-.157a.07.07 0 0 0-.07-.071m5.421 0H7.988a.07.07 0 0 0-.071.071v.157c0 .04.032.071.07.071h3.932a.07.07 0 0 0 .07-.071v-.157a.07.07 0 0 0-.07-.071"/></g></g><defs><clipPath id="a"><path fill="#fff" d="M0 0h14v14H0z"/></clipPath></defs></svg>