<svg xmlns="http://www.w3.org/2000/svg" fill="none" viewBox="0 0 14 14"><path fill="var(--file-icon-pink, #f472b6)" d="m9.252 4.19-.856 1.764c.281.266.48.616.558 1.013h.645c.074-.375.256-.713.516-.975z"/><path fill="var(--file-icon-pink, #f472b6)" d="m7.677 5.528 1.575-3.25 1.57 3.271q.093-.03.186-.055L12.5 1H5.999l1.488 4.482c.062.012.128.03.19.046m-.541 2.874c.574 0 1.041-.477 1.041-1.064a1.08 1.08 0 0 0-.285-.734L7.888 6.6a.8.8 0 0 0-.14-.122l-.005-.005-.045-.03c-.005 0-.005-.003-.009-.003l-.05-.03h-.003c-.017-.008-.038-.021-.054-.03h-.004q-.025-.013-.05-.02c-.004 0-.008-.005-.012-.005-.013-.004-.03-.012-.042-.017l-.016-.004c-.017-.004-.033-.013-.05-.017h-.004l-.058-.012q-.005.001-.016-.005c-.017-.004-.03-.004-.046-.008q-.01.001-.02-.004c-.013 0-.03-.005-.042-.005h-.16c-.017 0-.03.005-.046.005h-.017l-.05.008h-.012l-.058.013a1.064 1.064 0 0 0 .257 2.093m4.38-2.127h-.008l-.045-.004h-.054q-.03-.001-.066.004h-.02c-.017 0-.034.004-.05.004q-.01-.001-.017.004l-.062.013h-.004l-.058.013-.016.004a.2.2 0 0 0-.05.017l-.013.004-.057.025-.058.026-.013.004a.3.3 0 0 0-.05.03s-.003 0-.003.004a.6.6 0 0 0-.108.076l-.004.004q-.08.063-.145.14a1.1 1.1 0 0 0-.252.696c0 .586.467 1.063 1.042 1.063.574 0 1.041-.477 1.041-1.064 0-.514-.363-.949-.839-1.046-.024-.009-.058-.013-.09-.017m-8.7 2.127c.575 0 1.042-.477 1.042-1.064 0-.586-.467-1.063-1.041-1.063-.575 0-1.042.477-1.042 1.063 0 .587.467 1.064 1.042 1.064"/><path fill="var(--file-icon-pink, #f472b6)" d="M11.413 9.225c-.86 0-1.583-.604-1.79-1.414H8.93c-.206.81-.93 1.414-1.79 1.414q-.149-.002-.285-.021c-.24.375-.524.721-.86 1.042-.59.57-1.26.992-1.983 1.258l-.17.063-.156-.085c-.868-.455-1.315-1.38-1.158-2.274a1.6 1.6 0 0 1-.285-.076q-.022.045-.045.097c-.265.557-.542 1.131-.64 1.747-.108.658-.154 1.861.755 2.503.397.278.815.417 1.282.417.896 0 1.864-.49 2.889-1.008.801-.405 1.628-.827 2.488-1.043.326-.08.657-.13.975-.177.583-.084 1.136-.169 1.587-.434.48-.283.806-.756.897-1.296a1.93 1.93 0 0 0-.083-.97c-.273.16-.59.257-.934.257"/></svg>