<svg xmlns="http://www.w3.org/2000/svg" fill="none" viewBox="0 0 14 14"><path fill="var(--file-icon-yellow, #eab308)" fill-rule="evenodd" d="M3.259 1h7.482A2.26 2.26 0 0 1 13 3.259v7.482A2.26 2.26 0 0 1 10.741 13H3.26A2.26 2.26 0 0 1 1 10.741V3.26A2.26 2.26 0 0 1 3.259 1m6.606 1.277c-.662-.045-1.26.295-1.777 1.044L5.502 7.875l-.049-.046-.493 1.237q-.286.45-.483.946c-.175.49-.18.99.09 1.454.176.302.46.492.875.548.64.01 1.197-.252 1.597-1.005.364-.639.347-1.194.087-1.697a1.3 1.3 0 0 0-.338-.367 1.2 1.2 0 0 0-.438-.19c-.182.007-.32-.029-.392-.123-.096-.126-.052-.254-.009-.383l.02-.057.051-.165a.54.54 0 0 1 .312-.268q.075-.027.136-.04a.7.7 0 0 0 .248-.102.97.97 0 0 0 .354-.466zm2.5 4.29c-.288.6-.879.952-1.786 1.032L7.13 7.6l.592-1.011zm-6.898.51a.6.6 0 0 0 .194-.027l-.308.553h-.011l.003.013-.026.045-1.28-.176q-.533.028-1.06-.047c-.514-.089-.953-.335-1.22-.795-.175-.3-.202-.644-.043-1.03.307-.561.811-.914 1.66-.895.734-.001 1.209.288 1.519.762.078.147.13.307.15.472.017.161 0 .324-.048.478-.096.155-.133.292-.086.402.062.145.195.17.328.196l.059.012zM4.215 5.546c.248.21.384.504.227.816v.001a.9.9 0 0 1-.485.418 1.8 1.8 0 0 1-.58.126 1.3 1.3 0 0 1-.738-.17c-.484-.288-.666-.833-.15-1.201a1.6 1.6 0 0 1 .933-.263c.328.012.595.103.793.273m2.556 1.598a.268.268 0 1 0-.535-.033.268.268 0 0 0 .535.033M6.734 9.87c-.062-.32-.25-.582-.598-.6l-.001-.001a.9.9 0 0 0-.604.215q-.234.188-.395.443c-.144.214-.22.467-.217.725.012.563.396.99.972.723a1.6 1.6 0 0 0 .69-.677q.227-.443.153-.828" clip-rule="evenodd"/></svg>