<svg xmlns="http://www.w3.org/2000/svg" fill="none" viewBox="0 0 14 14"><path fill="var(--file-icon-gray, #807976)" d="M3.022 2.787c.389 1.303-.419 2.658-1.779 2.984l-.721.173.008 2.16.666.155c1.373.32 2.19 1.69 1.79 3.002l-.23.754 1.832 1.102.61-.62a2.525 2.525 0 0 1 3.578 0l.616.628 1.83-1.091-.244-.82c-.388-1.304.42-2.659 1.78-2.985l.72-.172-.008-2.161-.665-.155c-1.374-.32-2.19-1.69-1.79-3.002l.23-.754L9.412.883l-.609.62a2.525 2.525 0 0 1-3.579 0L4.608.874l-1.83 1.091zM7 8.793c-.988 0-1.79-.803-1.79-1.793S6.012 5.207 7 5.207 8.79 6.01 8.79 7 7.988 8.793 7 8.793"/></svg>