<svg xmlns="http://www.w3.org/2000/svg" fill="none" viewBox="0 0 14 14"><path fill="var(--file-icon-yellow, #eab308)" d="M11.174 1C12.182 1 13 1.818 13 2.826v8.348A1.826 1.826 0 0 1 11.174 13H2.826A1.827 1.827 0 0 1 1 11.174V2.826C1 1.818 1.818 1 2.826 1zM4 11h1.387V6.673c0-.631-.026-1.611-.064-2.265h.09c.075.507.226 1.34.339 1.803l.643 2.84h1.21l.643-2.84a19 19 0 0 0 .34-1.803h.089a46 46 0 0 0-.064 2.265V11H10V3H8.046l-.844 3.617a16 16 0 0 0-.164 1.014h-.076a17 17 0 0 0-.164-1.014L5.954 3H4z"/></svg>