<svg xmlns="http://www.w3.org/2000/svg" fill="none" viewBox="0 0 14 14"><path fill="var(--file-icon-yellow, #eab308)" fill-rule="evenodd" d="M8.066 1a.8.8 0 0 0-.242.044.7.7 0 0 1 .288.404c.003.022.01.037.013.06a.3.3 0 0 1 .006.055c.012.274-.071.308-.13.47a.67.67 0 0 0 .043.613q.015.034.037.068c-.118-.787.536-.905.657-1.15.01-.216-.167-.359-.307-.458A.7.7 0 0 0 8.066 1m.985.177c-.012.072-.003.053-.006.09-.003.025-.003.057-.006.081l-.022.075-.025.075-.034.071-.025.038-.018.028q-.023.032-.047.062-.025.03-.055.056v.003q-.028.025-.06.05c-.064.05-.139.087-.207.134q-.033.02-.062.046l-.059.05q-.03.027-.056.06c-.015.018-.034.04-.046.061l-.043.066-.035.071q-.014.036-.024.072-.014.041-.022.078l-.006.04-.006.037-.003.078q0 .029.003.056 0 .037.009.078l.015.075.025.074.022.044-.713-.277a8 8 0 0 0-.36-.093l-.195-.047a6 6 0 0 0-.564-.084l-.015-.003a5.5 5.5 0 0 0-1.528.056q-.07.01-.14.025a6 6 0 0 0-.278.062l-.14.037q-.069.03-.133.06l-.102.046-.016.006c-.03.016-.059.028-.087.044l-.021.01a1 1 0 0 0-.096.049l-.062.031-.028.016a2 2 0 0 0-.155.093q-.034.022-.062.044l-.01.006-.058.043-.006.007-.047.037c-.006.003-.012.01-.019.012l-.046.04c-.003.007-.01.01-.012.013q-.03.026-.056.053-.003 0-.006.006l-.056.053q-.003.005-.006.006l-.047.05-.022.019-.052.056-.013.015-.07.075-.01.01q-.075.08-.158.152-.085.075-.174.137a2 2 0 0 1-.381.212 2 2 0 0 1-.201.074c-.13.028-.264.08-.379.09-.024 0-.052.006-.077.01l-.077.018-.075.028q-.038.015-.074.034c-.022.016-.047.028-.068.044l-.062.053a.4.4 0 0 0-.062.056c-.019.022-.038.04-.053.062q-.026.036-.047.072l-.043.071q-.02.04-.034.081-.015.038-.028.081-.01.038-.015.075c0 .003-.004.006-.004.009-.006.028-.006.065-.009.084-.003.022-.006.04-.006.062q0 .02.003.04a.3.3 0 0 0 .034.116v.003q.015.028.034.056.018.028.04.056l.053.05.06.05c.074.065.092.087.188.136q.023.013.05.025l.01.003q0 .009.002.016a.6.6 0 0 0 .04.15l.025.055q.004.01.01.016.018.036.037.068l.046.066q.024.029.053.059.027.026.059.053 0 .002.006.003.028.023.056.043l.068.04a.5.5 0 0 0 .133.057q.004.003.013.006l.04.01c-.01.167-.013.326.012.382.028.062.165-.128.3-.345-.018.214-.03.466 0 .541.035.078.22-.165.382-.432 2.197-.51 4.202 1.014 4.413 3.167-.04-.336-.452-.523-.641-.476-.093.23-.251.526-.506.71a2 2 0 0 0-.03-.623 2 2 0 0 1-.385.784.86.86 0 0 1-.744-.336c-.012-.01-.015-.028-.024-.04q-.015-.033-.025-.066a.3.3 0 0 1-.019-.065q-.004-.032-.003-.069V9.27l.016-.066.021-.065c.013-.022.022-.044.037-.065.053-.15.053-.271-.043-.343a.4.4 0 0 0-.059-.03l-.04-.013-.025-.01q-.032-.01-.065-.015a.2.2 0 0 0-.065-.01l-.068-.006-.047.003a.2.2 0 0 0-.068.01q-.033.004-.065.012l-.065.022-.062.028q-.027.016-.059.031c-.722.473-.291 1.58.202 1.901-.186.034-.375.075-.428.115l-.006.006q.2.121.418.209c.198.065.41.124.502.15v.002q.386.08.781.056a2.95 2.95 0 0 0 2.702-2.526l.019.08c.01.057.022.116.028.175v.003q.009.043.012.081v.013l.006.08q.006.052.007.103v.05l.003.05-.003.056V9.4c0 .022-.003.04-.003.063q.001.017-.004.04l-.003.068q-.004.015-.003.028l-.009.072q0 .015-.003.028l-.013.09v.006l-.018.088v.009l-.019.084-.003.012-.022.084v.01q-.014.045-.024.087-.004.005-.003.006l-.028.093-.034.09-.034.09-.038.091h-.003c-.012.028-.025.06-.04.087l-.01.022-.006.01a2.94 2.94 0 0 1-.87 1.045q-.038.023-.075.053l-.021.015-.069.047.01.018h.003l.13-.018h.003q.12-.02.242-.044l.068-.015.043-.01.065-.012.056-.016c.31-.074.61-.177.899-.298A5 5 0 0 1 6.615 13a5 5 0 0 0 1.057-.184 4.96 4.96 0 0 0 2.929-2.349 5 5 0 0 1-.834 2.001A4.88 4.88 0 0 0 11.9 9.133c.106.491.137.999.09 1.5 2.238-3.134.186-6.382-.672-7.237q-.007-.009-.007-.016-.004.003-.003.006 0-.003-.003-.006 0 .056-.006.112-.014.107-.031.209a5 5 0 0 1-.053.205 3 3 0 0 1-.074.199 2 2 0 0 1-.205.367q-.06.09-.127.168a2 2 0 0 1-.145.156l-.09.077c-.025.022-.047.04-.071.063a2 2 0 0 1-.174.121c-.059.037-.12.075-.183.106l-.195.087a2 2 0 0 1-.41.112q-.106.017-.21.025-.075.005-.149.006a2.3 2.3 0 0 1-.629-.096H8.55a2.3 2.3 0 0 0 .412-.072 2.2 2.2 0 0 0 .583-.255q.09-.06.174-.125t.158-.14c.052-.046.099-.1.145-.152a3 3 0 0 0 .13-.168l.019-.031q.047-.075.09-.15a2.2 2.2 0 0 0 .22-.59c.012-.072.025-.14.03-.209q.012-.108.013-.212a2.4 2.4 0 0 0-.03-.357 2 2 0 0 0-.047-.209c-.022-.065-.044-.134-.068-.199a2 2 0 0 0-.087-.193q-.05-.094-.106-.183-.06-.089-.123-.172l-.143-.158-.08-.078a6 6 0 0 0-.431-.305l-.062-.031a1.2 1.2 0 0 0-.295-.13" clip-rule="evenodd"/></svg>