<svg xmlns="http://www.w3.org/2000/svg" fill="none" viewBox="0 0 14 14"><g clip-path="url(#a)"><path fill="var(--file-icon-blue, #0ea5e9)" d="m9.922 5.011-.005-.002-.008-.004a.04.04 0 0 1-.01-.032l.263-1.602 1.23 1.23-1.28.543-.01.002h-.006l-.007-.005a.6.6 0 0 0-.167-.13m1.784-.097 1.316 1.314c.273.273.41.41.46.567l.018.071-3.144-1.33-.005-.002c-.013-.005-.027-.01-.027-.024 0-.012.015-.019.027-.024l.004-.001zm1.74 2.374c-.067.127-.2.26-.424.484L11.54 9.253l-1.92-.399-.01-.002c-.017-.003-.035-.006-.035-.021a.58.58 0 0 0-.222-.404c-.008-.008-.006-.02-.003-.032v-.004l.361-2.213.001-.007c.002-.017.006-.037.02-.037a.6.6 0 0 0 .395-.226l.009-.009c.01-.005.024 0 .035.005zm-2.248 2.306-2.44 2.436.418-2.563v-.003l.003-.01q.006-.011.02-.015l.005-.002a.6.6 0 0 0 .236-.175q.012-.017.03-.02h.01zm-2.956 2.952-.274.274-3.04-4.387-.003-.005q-.009-.01-.01-.02.002-.008.008-.015l.004-.004.025-.042.007-.012q.008-.014.018-.021.012-.004.025 0l3.367.693q.015.003.026.011.007.008.007.015a.6.6 0 0 0 .349.398c.01.005.005.016 0 .027l-.005.015zm-.574.573c-.202.2-.322.307-.457.35a.7.7 0 0 1-.41 0c-.158-.05-.294-.187-.568-.46l-3.052-3.05.797-1.234.014-.016q.014-.008.03 0c.184.055.38.045.557-.029q.014-.006.025.001l.01.011zM2.887 9.666l-.7-.7 1.382-.589.012-.002c.011 0 .018.011.024.022l.044.062.005.005c.004.006 0 .012-.003.017zm-1.01-1.01L.99 7.773a5 5 0 0 1-.336-.354l2.693.558.01.002c.017.003.036.006.036.021 0 .017-.02.025-.037.032l-.008.003zM.5 6.964a.7.7 0 0 1 .03-.168c.05-.158.187-.294.46-.567l1.134-1.133q.784 1.135 1.57 2.268c.01.012.02.025.01.036a1 1 0 0 0-.135.179l-.017.02q-.006.004-.014.001zm1.928-2.17L3.952 3.27c.143.062.665.282 1.13.48.354.148.676.284.777.328q.017.004.023.018.004.01 0 .02a.68.68 0 0 0 .178.62c.01.01 0 .025-.009.038l-.005.007L4.5 7.175l-.015.017q-.013.006-.03 0a.8.8 0 0 0-.183-.024c-.056 0-.117.01-.178.021q-.01.003-.018-.002L4.06 7.17zm1.832-1.83L6.233.99c.274-.273.41-.41.569-.46a.7.7 0 0 1 .409 0c.158.05.295.187.568.46l.428.427L6.803 3.59l-.014.017q-.014.006-.03 0a.71.71 0 0 0-.652.125c-.009.01-.023.004-.034 0-.183-.08-1.609-.682-1.813-.769m4.245-1.247L9.8 3.01l-.313 1.932v.005l-.002.013q-.006.009-.017.01a.6.6 0 0 0-.207.107q-.008 0-.014-.002l-1.975-.838-.004-.002c-.012-.005-.027-.011-.027-.024a.75.75 0 0 0-.105-.31c-.01-.016-.02-.032-.012-.048zM7.17 4.634l1.851.783c.01.005.022.009.026.02a.04.04 0 0 1 0 .019.5.5 0 0 0-.01.089v.052c0 .013-.013.018-.025.023l-.004.002c-.293.125-4.117 1.753-4.123 1.753q-.009.001-.018-.005c-.01-.01 0-.025.01-.038l.004-.006 1.521-2.353.003-.004c.009-.015.02-.03.035-.03l.016.002q.05.008.096.009a.69.69 0 0 0 .585-.318q.017-.007.033.002M5.05 7.748l4.168-1.776q.002-.002.012.006l.06.052.01.006q.015.006.018.019l-.001.008-.357 2.191-.001.01c-.003.016-.005.035-.021.035a.59.59 0 0 0-.466.288l-.002.002q-.006.013-.017.02-.011.004-.024 0l-3.323-.685c-.004 0-.052-.176-.056-.176"/></g><defs><clipPath id="a"><path fill="#fff" d="M0 0h14v14H0z"/></clipPath></defs></svg>