<svg xmlns="http://www.w3.org/2000/svg" fill="none" viewBox="0 0 14 14"><path fill="var(--file-icon-blue, #0ea5e9)" d="m4.289 1-.796.001-.39.667.909 1.563-1.83-.004-.77 1.349H8.23L7.44 3.23l-1.86-.002zM7.89 1l-1.568.014 3.41 5.838.783-1.349-.928-1.594 1.307-2.219-.399-.681h-.779L8.8 2.568zm4.017 2.418-3.41 5.837 1.573-.005.934-1.59 2.597.008.398-.682-.389-.667-1.825-.004.918-1.563zM5.502 4.743l-1.573.005-.934 1.591-2.597-.01L0 7.012l.389.667 1.825.005-.918 1.562.796 1.335zm-1.226 2.4-.004.007v-.003l-.784 1.35.928 1.593-1.307 2.22.4.68h.778l.003-.003.915-1.555L6.113 13l1.568-.015-.002-.003h.006zM5.763 9.41l.79 1.345 1.862.003 1.292 2.228.795-.001.39-.666-.908-1.564 1.83.004.77-1.349z"/></svg>