<svg xmlns="http://www.w3.org/2000/svg" fill="none" viewBox="0 0 14 14"><path fill="var(--file-icon-green, #16a34a)" d="M7 .5a.6.6 0 0 0-.297.082L1.796 3.525a.6.6 0 0 0-.217.226.63.63 0 0 0-.079.307v5.886c0 .108.027.214.08.308a.6.6 0 0 0 .216.225l4.907 2.94a.57.57 0 0 0 .593 0l4.908-2.94a.6.6 0 0 0 .217-.225.64.64 0 0 0 .079-.308V4.06a.63.63 0 0 0-.08-.308.6.6 0 0 0-.216-.225L7.296.583A.6.6 0 0 0 6.999.5M3.792 3.017s.568 1.653 1.71 1.598l1.336-.798a.34.34 0 0 1 .165-.05h.03a.34.34 0 0 1 .165.05l1.337.798c1.141.055 1.71-1.598 1.71-1.598.251 1.159.05 1.934-.286 2.45l.219.13c.111.066.18.19.18.325l-.006 4.794a.19.19 0 0 1-.09.161.17.17 0 0 1-.18 0l-1.77-1.053a.38.38 0 0 1-.18-.324V7.26a.4.4 0 0 0-.048-.187.4.4 0 0 0-.132-.136l-.754-.45a.34.34 0 0 0-.36 0l-.754.45a.38.38 0 0 0-.18.323V9.5a.38.38 0 0 1-.18.324l-1.77 1.053a.17.17 0 0 1-.18 0 .18.18 0 0 1-.09-.161l-.006-4.794q0-.1.048-.188a.4.4 0 0 1 .132-.137l.22-.13c-.337-.516-.539-1.291-.286-2.45"/></svg>