<svg xmlns="http://www.w3.org/2000/svg" fill="none" viewBox="0 0 14 14"><path fill="var(--file-icon-green, #16a34a)" d="M6.482.628c.314-.17.731-.17 1.042 0L12.48 3.38c.157.088.29.215.38.367s.14.325.14.5v5.498a1 1 0 0 1-.52.868l-4.956 2.752a1.1 1.1 0 0 1-.522.133l-.135-.006a1.1 1.1 0 0 1-.385-.125l-1.654-.941c-.247-.133-.127-.18-.046-.207a3.4 3.4 0 0 0 .75-.328c.036-.02.085-.013.122.008l1.272.725c.046.024.11.024.153 0l4.956-2.75a.15.15 0 0 0 .076-.129V4.248a.15.15 0 0 0-.077-.13L7.08 1.368a.16.16 0 0 0-.152 0L1.974 4.117a.15.15 0 0 0-.078.13v5.497c0 .052.029.103.076.128l1.357.754c.737.354 1.188-.064 1.188-.483V4.717c0-.078.063-.137.143-.137h.628a.14.14 0 0 1 .143.137v5.428c0 .945-.536 1.487-1.468 1.487-.287 0-.513 0-1.143-.298l-1.3-.72a1.03 1.03 0 0 1-.38-.368A1 1 0 0 1 1 9.744V4.247c0-.358.2-.692.52-.868zm1.849 3.808c1.587 0 2.373.53 2.473 1.667a.14.14 0 0 1-.007.057.14.14 0 0 1-.08.082.2.2 0 0 1-.057.012h-.643a.14.14 0 0 1-.14-.108c-.155-.659-.53-.87-1.548-.87-1.14 0-1.273.382-1.273.668 0 .347.157.448 1.695.644 1.524.194 2.247.469 2.247 1.498 0 1.037-.901 1.633-2.472 1.633l-.38-.017C6.31 9.594 5.91 8.705 5.91 7.953a.14.14 0 0 1 .144-.137h.64c.07 0 .13.05.141.117.097.627.385.943 1.696.943 1.045 0 1.49-.227 1.49-.759 0-.306-.128-.535-1.75-.687-1.358-.13-2.197-.416-2.197-1.46 0-.96.844-1.533 2.257-1.534"/></svg>