<svg xmlns="http://www.w3.org/2000/svg" fill="none" viewBox="0 0 14 14"><path fill="var(--file-icon-teal, #14b8a6)" d="M6.925 1c.502 0 .917.275 1.225.568.317.3.598.692.84 1.08.243.394.463.811.65 1.176q.219.432.368.717l.365-.1a.574.574 0 0 1 .687.343l.018.056 1.901 6.87a.57.57 0 0 1-.4.702l-2.074.568a.575.575 0 0 1-.704-.399L7.9 5.71a.57.57 0 0 1 .344-.683l.055-.018.576-.158c-.083-.161-.17-.336-.26-.51-.183-.36-.385-.742-.603-1.094-.22-.355-.44-.653-.654-.855-.22-.21-.364-.252-.434-.252-.062 0-.184.034-.372.231-.184.194-.37.484-.551.836-.304.592-.524 1.203-.715 1.69l.413.112.055.018a.57.57 0 0 1 .345.683L4.2 12.58a.575.575 0 0 1-.706.399l-2.073-.568a.57.57 0 0 1-.4-.701l1.9-6.871.019-.056c.105-.27.4-.42.687-.342l.546.15c.175-.443.47-1.245.808-1.903.2-.392.445-.791.739-1.1C6.01 1.284 6.413 1 6.925 1"/></svg>