<svg xmlns="http://www.w3.org/2000/svg" fill="none" viewBox="0 0 14 14"><path fill="var(--file-icon-green, #16a34a)" d="M7.854 11.5h5.205a1 1 0 0 0 .47-.12.9.9 0 0 0 .345-.33.87.87 0 0 0 0-.9l-3.495-5.786a.9.9 0 0 0-.345-.329.98.98 0 0 0-.942 0 .9.9 0 0 0-.344.33l-.894 1.48L6.107 2.95a.9.9 0 0 0-.345-.33.98.98 0 0 0-.942 0 .9.9 0 0 0-.344.33l-4.35 7.2a.87.87 0 0 0 0 .9.9.9 0 0 0 .345.33c.144.079.306.12.47.12h3.267c1.295 0 2.25-.543 2.906-1.603l1.595-2.64.854-1.412 2.563 4.243H8.71zm-3.699-1.414h-2.28l3.418-5.657 1.705 2.828-1.142 1.89c-.436.688-.931.94-1.7.94"/></svg>