<svg xmlns="http://www.w3.org/2000/svg" fill="none" viewBox="0 0 14 14"><path fill="var(--file-icon-yellow, #eab308)" d="M11.174 1C12.182 1 13 1.818 13 2.826v8.348A1.826 1.826 0 0 1 11.174 13H2.826A1.827 1.827 0 0 1 1 11.174V2.826C1 1.818 1.818 1 2.826 1zM9.292 3.107c-.786-.22-1.587-.25-2.403-.18a5.4 5.4 0 0 0-1.32.292c-.915.336-1.603.92-2.013 1.798-.294.629-.4 1.298-.411 1.984-.012.725.08 1.44.228 2.148.134.643.311 1.273.565 1.881.025.058.055.078.12.077l2.413-.002h.714l.057-.002.034-.001-.012-.032-.023-.051-.177-.365c-.128-.263-.257-.526-.374-.794-.353-.813-.624-1.65-.707-2.537-.036-.39-.03-.78.08-1.16.127-.436.4-.744.85-.873a2.13 2.13 0 0 1 1.245.014q.554.175.71.73c.077.282.078.568.019.853a1.1 1.1 0 0 1-.303.579c-.296.287-.666.353-1.063.33q-.106-.005-.214-.019l-.104-.01.002.03a.3.3 0 0 0 .006.05l.049.2a7 7 0 0 0 .128.48q.147.465.341.908c.922-.07 1.771-.295 2.672-.825l.039-.023c.386-.236.7-.542.915-.938.35-.64.419-1.324.315-2.03a2.83 2.83 0 0 0-1.017-1.82 3.6 3.6 0 0 0-1.361-.692"/></svg>