<svg xmlns="http://www.w3.org/2000/svg" fill="none" viewBox="0 0 14 14"><path fill="var(--file-icon-orange, #f5700b)" d="m1.588 8.36.923-.923 4.052 4.052-.923.923a2.007 2.007 0 0 1-2.839 0L1.588 11.2a2.007 2.007 0 0 1 0-2.839m10.824-2.72-.923.923-4.052-4.052.923-.923a2.007 2.007 0 0 1 2.839 0l1.213 1.213a2.007 2.007 0 0 1 0 2.84m-4.052 6.77a2.007 2.007 0 0 0 2.839 0l1.213-1.213a2.007 2.007 0 0 0 0-2.84L5.64 1.589a2.007 2.007 0 0 0-2.839 0L1.588 2.8a2.007 2.007 0 0 0 0 2.839zM5.147 6.537a.463.463 0 1 1 0 .926.463.463 0 0 1 0-.926m2.316 2.316a.463.463 0 1 1-.926 0 .463.463 0 0 1 .926 0m0-1.853a.463.463 0 1 1-.926 0 .463.463 0 0 1 .926 0M7 4.684a.463.463 0 1 1 0 .926.463.463 0 0 1 0-.926M9.316 7a.463.463 0 1 1-.926 0 .463.463 0 0 1 .926 0"/></svg>