<svg xmlns="http://www.w3.org/2000/svg" fill="none" viewBox="0 0 14 14"><path fill="var(--file-icon-red, #ef4444)" d="M6.983.9a2.6 2.6 0 0 1 1.77.695l3.017 2.8a2.6 2.6 0 0 1 .83 1.906V10.5a2.6 2.6 0 0 1-2.6 2.6H4a2.6 2.6 0 0 1-2.6-2.6v-7A2.6 2.6 0 0 1 4 .9zm-.401 2.353-.14.017c-.37.064-.719.272-.901.658-.159.336-.135.69-.08.953.089.428.319.893.593 1.33-.149.468-.342.957-.559 1.412-.594.217-1.165.48-1.567.786-.226.172-.497.43-.617.784a1.1 1.1 0 0 0-.027.638c.057.22.174.4.309.54.296.309.697.439 1.11.354.35-.073.636-.285.846-.483.364-.344.704-.85 1.002-1.39a13 13 0 0 1 1.548-.374c.32.238.673.443 1.025.536.237.062.538.09.843-.022.326-.12.553-.366.685-.655a1 1 0 0 0 .091-.544.94.94 0 0 0-.267-.552c-.237-.239-.552-.314-.744-.345-.335-.056-.753-.044-1.186.001a8 8 0 0 1-.86-.958c.122-.513.195-1.026.155-1.452-.024-.256-.098-.597-.34-.869a1.1 1.1 0 0 0-.919-.365"/></svg>