<svg xmlns="http://www.w3.org/2000/svg" fill="none" viewBox="0 0 14 14"><path fill="var(--file-icon-purple, #a855f7)" d="M4.916 1c-.197.03-.366.124-.552.18-.393.228-.708.579-.79 1.001-.245.715-.969 1.185-1.221 1.894-.208.455-.58.813-.928 1.178-.24.27-.213.634-.319.95-.105.086-.18.284.017.305-.005.161-.127.34.001.494.1.336.277.658.451.97.035.113.25.244.282.062.026-.261.15-.57-.052-.8-.13-.295-.023-.606.038-.9a.74.74 0 0 1 .15-.533c.112.054.074.237.118.335.107.705.139 1.438-.058 2.133-.074.273.047.561-.024.829-.253.249-.057.607-.035.896.123.537.056 1.095-.122 1.609-.004.184-.075.352-.118.529.071.222.408.3.633.247.14-.085.407.078.473-.125.02-.22-.217-.385-.198-.61-.148-.613-.26-1.253-.116-1.88.075-.363.045-.752.159-1.103.25-.284.42-.62.527-.971.149-.292.24-.648.331-.926.388.564.62 1.24.52 1.914.013.262-.169.57.075.777.296.419.669.813.818 1.296.012.202-.288.205-.368.368-.177.232-.158.528-.178.797.167.058.412.214.553.027.137-.131.196-.361.34-.462.088.15.005.396.233.47a2.05 2.05 0 0 0 1.04.062c.175-.136-.063-.329-.21-.381-.245-.066-.389-.238-.473-.447-.076-.115-.131-.25.019-.34.353-.386.838-.643 1.212-1.006.225-.283.166-.678.08-.998-.105-.187-.182-.383-.124-.595.039-.183-.1-.372-.091-.534.198-.011.429-.005.605.055.048.29-.023.597.07.877.149.13.22.334.23.52.14.155.051.384.09.574-.09.31.037.616.142.91.192.559.11 1.162.275 1.723.125.16-.085.425.16.53.377.128.882.165 1.204-.092.098-.178-.192-.28-.33-.336-.197-.038-.345-.162-.387-.345-.297-.556-.443-1.18-.339-1.8a3.7 3.7 0 0 1 .146-.877c.04-.29.045-.59.138-.865.056-.388-.038-.798.082-1.175.194.111.403.224.633.24.15.103.31 0 .391-.123.12-.15.264.25.374.047.136-.14.312-.24.466-.349.088-.129.267-.125.393-.184.088-.103-.056-.266.105-.346.055-.132.195.042.26-.083.067-.137.057-.325.238-.384.33-.237.23-.668.29-1.003-.004-.333.07-.687-.021-1.009-.106-.254-.28-.513-.35-.766.322-.232.89-.04 1.108-.421.095-.28-.203-.518-.4-.695-.19-.163-.491-.085-.725-.165-.18-.056-.463.006-.51-.217-.076-.177-.314-.175-.44-.309-.204-.095-.389.122-.59.14-.222.14-.478.278-.62.492-.061.14-.009.323-.175.41-.279.29-.162.719-.188 1.071.003.161-.002.324.1.455.015.198.213.327.178.53-.028.134.102.42-.142.357-.075-.112-.064-.303-.133-.435-.204-.568-.513-1.183-1.131-1.468a2.5 2.5 0 0 1-.929-1.165c-.17-.231-.486-.374-.62-.624-.178-.068-.391-.044-.567-.134-.219-.087-.417-.246-.678-.218-.173.011-.332-.043-.496-.055m.32 6.372c.15.045.104.259.159.37.07.155.01.431.211.51.113.17.043.398.157.555-.026.11-.066.318.125.321.17-.013.218.16.338.237.111.141.236.34.063.49-.166.183-.28.47-.588.478-.127.012-.302.191-.36.007-.218-.334-.405-.69-.362-1.089.003-.625.16-1.24.24-1.856q-.005-.025.016-.023"/></svg>