<svg xmlns="http://www.w3.org/2000/svg" fill="none" viewBox="0 0 14 14"><g clip-path="url(#a)"><path fill="var(--file-icon-green, #16a34a)" d="M6.167 1.828a5 5 0 0 1 1.728.01L9.066.527a6.6 6.6 0 0 1 1.555.761l-.317 1.73h-.001c.433.387.795.847 1.07 1.359l1.755.098c.2.544.325 1.113.375 1.69l-1.55.831a5 5 0 0 1-.397 1.682l1.018 1.435c-.3.496-.666.95-1.087 1.348l-1.617-.695a4.9 4.9 0 0 1-1.561.74l-.486 1.691a6.5 6.5 0 0 1-1.731-.01l-.465-1.698a5 5 0 0 1-1.553-.76l-1.626.674a6.6 6.6 0 0 1-1.07-1.361L2.414 8.62a5 5 0 0 1-.373-1.686L.5 6.082a6.5 6.5 0 0 1 .396-1.686l1.757-.076a5 5 0 0 1 1.086-1.344L3.444 1.24A6.5 6.5 0 0 1 5.01.5zm.935.726a4.112 4.112 0 1 0 0 8.223 4.112 4.112 0 0 0 0-8.223M4.194 8.602c-1.17-2.026-.946-4.376 2.274-2.11.246.174.41.443.45.741.518 3.845-1.65 3.225-2.724 1.369m3.492-2.06c3.07-2.371 3.616-.184 2.545 1.674-1.168 2.026-3.316 3.01-2.962-.912a1.08 1.08 0 0 1 .417-.762M6.877 3.18c2.34-.001 4.264 1.368.69 3.022a1.08 1.08 0 0 1-.866.02c-3.587-1.473-1.966-3.04.178-3.041z"/></g><defs><clipPath id="a"><path fill="#fff" d="M0 0h14v14H0z"/></clipPath></defs></svg>