<svg xmlns="http://www.w3.org/2000/svg" fill="none" viewBox="0 0 14 14"><path fill="var(--file-icon-gray, #807976)" d="M7 1.5c3.866 0 7 2.139 7 4.776 0 .847-.324 1.641-.89 2.33V7.291q.068-.31.069-.658c0-2.265-2.169-3.266-5.107-3.266S2.752 4.83 2.751 6.633c0 1.102.89 2.075 2.254 2.667v1.555C2.11 10.27 0 8.442 0 6.276 0 3.64 3.134 1.5 7 1.5"/><path fill="var(--file-icon-dark-blue, #0e7ce9)" fill-rule="evenodd" d="M10.661 8.899s.424.13.67.257c.085.044.233.132.34.247a1 1 0 0 1 .155.227l1.67 2.869-2.699.001-1.262-2.415s-.258-.452-.417-.583c-.133-.11-.19-.149-.32-.149h-.642v3.145l-2.388.001V4.466h4.796s2.184.04 2.184 2.158-2.087 2.275-2.087 2.275m-1.039-2.69-1.445-.001-.001 1.366h1.446s.67-.003.67-.696c0-.706-.67-.67-.67-.67" clip-rule="evenodd"/></svg>