<svg xmlns="http://www.w3.org/2000/svg" fill="none" viewBox="0 0 14 14"><path fill="var(--file-icon-teal, #14b8a6)" d="M7 8.8c.486 0 .9-.18 1.266-.534C8.62 7.9 8.8 7.486 8.8 7s-.18-.9-.534-1.266C7.9 5.38 7.486 5.2 7 5.2s-.9.18-1.266.534C5.38 6.1 5.2 6.514 5.2 7s.18.9.534 1.266C6.1 8.62 6.514 8.8 7 8.8M7 1c1.65 0 3.06.6 4.23 1.77S13 5.35 13 7v.87c0 .6-.21 1.11-.6 1.53-.42.402-.9.6-1.5.6-.72 0-1.314-.3-1.764-.9-.6.6-1.308.9-2.136.9-.822 0-1.53-.3-2.124-.876C4.3 8.53 4 7.828 4 7c0-.822.3-1.53.876-2.124C5.47 4.3 6.178 4 7 4c.828 0 1.53.3 2.124.876C9.7 5.47 10 6.178 10 7v.87a.9.9 0 0 0 .276.648.85.85 0 0 0 1.266 0 .9.9 0 0 0 .258-.648V7c0-1.314-.462-2.442-1.41-3.39S8.314 2.2 7 2.2s-2.442.462-3.39 1.41S2.2 5.686 2.2 7s.462 2.442 1.41 3.39S5.686 11.8 7 11.8h3V13H7c-1.65 0-3.06-.6-4.23-1.77S1 8.65 1 7s.6-3.06 1.77-4.23S5.35 1 7 1"/></svg>