<svg xmlns="http://www.w3.org/2000/svg" fill="none" viewBox="0 0 14 14"><path fill="var(--file-icon-red, #ef4444)" d="M5.55 4.15c-.417 0-.627 0-.786.08a.75.75 0 0 0-.326.327c-.08.158-.08.368-.08.787v3.65c0 .347 0 .522.056.659.076.182.22.327.403.402.136.056.312.056.658.056.348 0 .521 0 .658-.056a.75.75 0 0 0 .402-.403c.057-.136.057-.311.057-.658V4.15zm3.417.044a1.314 1.314 0 0 0 0 2.628h.002a1.313 1.313 0 0 0-.002-2.628"/><path stroke="var(--file-icon-red, #ef4444)" stroke-width="1.2" d="M4.842 1.6h4.313c.814 0 1.376 0 1.807.047.42.046.642.13.803.247q.149.107.267.246l.075.094c.117.161.2.384.245.801.046.43.048.992.048 1.806v4.314c0 .814 0 1.376-.048 1.807-.045.42-.128.642-.246.803a1.6 1.6 0 0 1-.248.267l-.093.074c-.162.118-.384.201-.803.246-.43.047-.993.048-1.807.048H4.842c-.814 0-1.376 0-1.807-.048-.417-.045-.639-.128-.8-.245a1.6 1.6 0 0 1-.266-.246l-.075-.095c-.118-.162-.201-.385-.247-.804-.046-.43-.047-.993-.047-1.807v-4.31c0-.815 0-1.379.047-1.81.046-.42.13-.642.247-.803q.142-.196.337-.337l.001-.001c.161-.118.384-.201.803-.247.43-.046.993-.047 1.807-.047Z"/></svg>