<svg xmlns="http://www.w3.org/2000/svg" fill="none" viewBox="0 0 14 14"><path fill="var(--file-icon-gray, #807976)" d="M10.534 1.004c.661.01 1.063.053 1.388.222.365.19.663.487.852.852.21.405.224.928.225 1.922h1.251v5H13v.78l-.004.754c-.01.661-.053 1.063-.222 1.388-.19.365-.487.663-.852.852-.325.17-.727.212-1.388.222L9.78 13H4.22c-.996 0-1.557 0-1.972-.15l-.17-.076a2 2 0 0 1-.776-.718l-.076-.134c-.17-.325-.212-.727-.222-1.388L1 9.78V9H0V4h1.001c0-.86.01-1.369.15-1.752l.075-.17a2 2 0 0 1 .718-.776l.134-.076C2.512 1 3.081 1 4.22 1h5.56zM4.22 2.2c-.59 0-.959 0-1.237.024-.263.022-.335.057-.352.066a.8.8 0 0 0-.341.34c-.009.018-.044.09-.066.353C2.2 3.261 2.2 3.63 2.2 4.22v5.56c0 .59 0 .959.024 1.237.022.263.057.335.066.352a.8.8 0 0 0 .34.341c.018.009.09.044.353.066.278.023.647.024 1.237.024h5.56c.59 0 .959 0 1.237-.024.263-.021.335-.057.352-.066a.8.8 0 0 0 .341-.34c.009-.018.044-.09.066-.353.023-.278.024-.647.024-1.237V4.22c0-.59 0-.959-.024-1.237-.021-.263-.057-.335-.066-.352a.8.8 0 0 0-.34-.341c-.018-.009-.09-.044-.353-.066C10.739 2.2 10.37 2.2 9.78 2.2zm6.021 6.878a8 8 0 0 1-6.482 0L4.24 7.98a6.8 6.8 0 0 0 5.518 0zM5.401 4c.505 0 .913.41.913.914v1.172a.914.914 0 1 1-1.827 0V4.914c0-.505.41-.914.914-.914M8.6 4c.504 0 .914.41.914.914v1.172a.914.914 0 0 1-1.827 0V4.914c0-.504.408-.914.913-.914"/></svg>