<svg xmlns="http://www.w3.org/2000/svg" fill="none" viewBox="0 0 14 14"><path fill="var(--file-icon-gray, #807976)" d="M5.711 3.105a.313.313 0 0 1-.148.419l-.029.014c-1.597.566-2.735 2.03-2.735 3.746a.32.32 0 0 1-.318.318H1.315A.315.315 0 0 1 1 7.286c0-2.433 1.595-4.509 3.845-5.334.15-.056.32.012.39.16zM1 9.1a.9.9 0 0 1 1.799 0v3.001a.9.9 0 1 1-1.799 0zm12-1.815a.315.315 0 0 1-.315.316h-1.168a.315.315 0 0 1-.316-.316c0-1.718-1.138-3.182-2.735-3.748a.33.33 0 0 1-.18-.161.32.32 0 0 1-.016-.221l.012-.04.01-.022.47-.984a.313.313 0 0 1 .39-.158C11.406 2.777 13 4.852 13 7.286m-1.799 1.815A.9.9 0 1 1 13 9.1v3.001a.9.9 0 1 1-1.799 0z"/><path fill="var(--file-icon-yellow, #eab308)" d="M8.143 1.078c.1.014.187.072.233.16.049.09.051.196.01.287l-.087.179-.668 1.4a.32.32 0 0 1-.306.179 7 7 0 0 0-.65 0 .32.32 0 0 1-.306-.178L5.7 1.704l-.087-.179a.317.317 0 0 1 .243-.447 8.5 8.5 0 0 1 2.286 0M10.6 7.286V13H8.8V7.286c0-.948-.808-1.716-1.801-1.716s-1.801.768-1.801 1.716V13H3.4V7.286c0-1.894 1.612-3.43 3.6-3.43s3.6 1.536 3.6 3.43"/></svg>