<svg xmlns="http://www.w3.org/2000/svg" fill="none" viewBox="0 0 14 14"><path fill="var(--file-icon-red, #ef4444)" fill-rule="evenodd" d="M9.784 1.728c-2.118.514-5.479.805-7.29.805v2.905q.002.016.013.027c1.236 0 5.05-.34 7.352-.871a10 10 0 0 0 1.178-.329c.281-.106.463-.218.463-.335V1c-.003.276-.858.52-1.716.728m0 3.768c-1.268.307-2.979.536-4.537.67a34 34 0 0 1-2.752.136v2.903q0 .016.012.027c1.236 0 5.05-.34 7.352-.87a10 10 0 0 0 1.178-.33c.281-.106.463-.218.463-.334v-2.93c-.003.275-.858.52-1.716.728m0 3.77c-1.268.307-2.979.535-4.537.67a34 34 0 0 1-2.755.136V13c1.223 0 5.057-.337 7.364-.87.85-.198 1.641-.422 1.641-.665v-2.93c0 .278-.855.52-1.713.73" clip-rule="evenodd"/><path stroke="var(--file-icon-red, #ef4444)" stroke-width=".8" d="M11.099 5.813V4.78c0-.35-1.668-.781-2.502-.953m-.875 2.9c-1.279-.022-3.49-.646-4.557-1.019a.4.4 0 0 1-.268-.376m8.202 4.25V8.55c0-.35-1.668-.781-2.502-.953m-.875 2.9c-1.279-.022-3.49-.646-4.557-1.019a.4.4 0 0 1-.268-.376"/></svg>