<svg xmlns="http://www.w3.org/2000/svg" fill="none" viewBox="0 0 14 14"><path stroke="var(--file-icon-gray, #807976)" stroke-width="1.2" d="M4.75 1.14 1.753 6.332a2 2 0 0 0 .72 2.724l2.63 1.544a2 2 0 0 0 2.744-.725l.988-1.711 2.98-2.945zm0 0H.097"/><path stroke="var(--file-icon-gray, #807976)" stroke-linejoin="round" stroke-width="1.2" d="M10.965 6.3H1.619"/><path fill="var(--file-icon-gray, #807976)" stroke="var(--file-icon-gray, #807976)" stroke-width="1.2" d="M11.813 8.74c.176.197.393.45.606.746.526.73.981 1.619.981 2.455 0 .772-.676 1.46-1.588 1.46-.91 0-1.587-.688-1.587-1.46 0-.836.455-1.725.981-2.455.213-.296.43-.55.607-.746Z"/></svg>