<svg xmlns="http://www.w3.org/2000/svg" fill="none" viewBox="0 0 14 14"><g fill="var(--file-icon-purple, #a855f7)" clip-path="url(#a)"><path fill-rule="evenodd" d="M7.088 13.466C8.51 8.138 8.47 8.114 9.497 4.316l.247.15c.134.08.244.014.244-.148v-1.81c.273-1.001.487-1.774.549-2.007h1.113l1.85 1.796-1.215 1.1.92 1.04-6.056 9.029c-.03.05-.07.04-.062 0z" clip-rule="evenodd"/><path fill-rule="evenodd" d="M7.75 1.984c.055 0 .1.031.1.071v.929c0 .038-.042.07-.097.07H6.258c-.055 0-.1-.032-.1-.071v-.928c0-.04.045-.071.1-.071h1.495zM9.596.956 7.95 1.95q.03.046.03.104v.929q0 .071-.05.126l1.66 1.005c.11.069.206.013.206-.124V1.08c0-.137-.096-.193-.205-.125zM6.023 2.984v-.929q0-.057.03-.104L4.408.956c-.113-.068-.206-.012-.206.124v2.91c0 .138.092.19.206.123L6.07 3.11a.2.2 0 0 1-.048-.129z" clip-rule="evenodd"/><path fill-rule="evenodd" d="M6.85 13.466h.061c-1.422-5.328-1.38-5.352-2.408-9.15l-.247.15c-.134.08-.244.014-.244-.148v-1.81C3.738 1.507 3.522.733 3.459.5H2.347L.5 2.296l1.214 1.1-.919 1.041 6.055 9.027z" clip-rule="evenodd"/><path d="M6.955 4.992a.46.46 0 0 0 .449-.47.46.46 0 0 0-.45-.47.46.46 0 0 0-.448.47c0 .26.2.47.449.47m0 2.798a.46.46 0 0 0 .449-.47.46.46 0 0 0-.45-.47.46.46 0 0 0-.448.47c0 .26.2.47.449.47m0 2.798a.46.46 0 0 0 .449-.47.46.46 0 0 0-.45-.47.46.46 0 0 0-.448.47c0 .26.2.47.449.47"/></g><defs><clipPath id="a"><path fill="#fff" d="M0 0h14v14H0z"/></clipPath></defs></svg>