<svg xmlns="http://www.w3.org/2000/svg" fill="none" viewBox="0 0 14 14"><path fill="var(--file-icon-red, #ef4444)" d="M7.527.625A3.4 3.4 0 0 1 9.7.743l.128.054c.632.282 1.169.75 1.553 1.34.259.39.441.83.538 1.291l.033.174c.066.407.065.823-.002 1.23l-.002.009a4 4 0 0 1-.109.458l-.054.178a1.3 1.3 0 0 1-.433.64c.193.337.334.705.415 1.089l.032.174c.066.407.065.823-.002 1.23v.003a3.6 3.6 0 0 1-.406 1.16l-.09.153a3.4 3.4 0 0 1-.963 1.003L7.43 12.922a3.3 3.3 0 0 1-.825.411l-.126.039-.009.002a3.4 3.4 0 0 1-2.04-.068l-.13-.049a3.6 3.6 0 0 1-1.682-1.395 3.7 3.7 0 0 1-.539-1.29 3.8 3.8 0 0 1 .08-1.873l.054-.176.055-.148c.085-.195.216-.362.379-.491a3.7 3.7 0 0 1-.375-.918l-.04-.172a3.8 3.8 0 0 1-.03-1.405v-.002l.033-.175c.088-.404.244-.79.463-1.138l.097-.147c.202-.288.446-.543.724-.754l.142-.102 2.907-1.994.11-.073a3.4 3.4 0 0 1 .84-.376zm1.717 1.33a2.16 2.16 0 0 0-1.387-.075l-.155.051q-.23.088-.437.229L4.352 4.159l-.087.062q-.301.228-.51.56l-.056.094a2.3 2.3 0 0 0-.256.733 2.46 2.46 0 0 0 .366 1.743c.27.419.653.739 1.097.916s.928.203 1.387.075q.236-.068.452-.191l.14-.088 1.11-.763a.6.6 0 0 1 .18-.085.65.65 0 0 1 .417.023c.134.053.25.15.33.277l.035.057a.73.73 0 0 1 .076.468l-.015.066a.7.7 0 0 1-.08.183l-.038.055a.6.6 0 0 1-.141.132l-2.913 2-.087.049a1 1 0 0 1-.092.035l-.105.02a.7.7 0 0 1-.21-.011l-.103-.032a.7.7 0 0 1-.263-.187l-.067-.09a.74.74 0 0 1-.118-.465l.01-.116-.108-.036a3.7 3.7 0 0 1-1.139-.613l-.15-.118-.054.18q-.045.144-.07.293a2.5 2.5 0 0 0 .02.912c.063.3.18.582.346.832.27.418.653.738 1.097.915a2.16 2.16 0 0 0 1.214.117l.173-.04a2 2 0 0 0 .451-.193l.14-.088 2.914-1.998c.207-.14.388-.32.535-.53l.06-.092c.138-.218.236-.461.291-.717l.022-.11c.043-.265.044-.535.001-.8l-.02-.112a2.4 2.4 0 0 0-.347-.832 2.37 2.37 0 0 0-.934-.843l-.163-.073a2.16 2.16 0 0 0-1.386-.075c-.21.06-.41.155-.592.28L6 6.7l-.086.05a1 1 0 0 1-.093.035l-.105.02a.7.7 0 0 1-.21-.012l-.102-.031a.7.7 0 0 1-.264-.187l-.067-.09a.7.7 0 0 1-.087-.184l-.017-.067a.8.8 0 0 1-.006-.274.68.68 0 0 1 .222-.398l.051-.039 2.914-2a.65.65 0 0 1 .596-.062.75.75 0 0 1 .448.743l-.01.117.109.036.152.053c.353.133.686.321.987.56l.15.118.054-.181a2.37 2.37 0 0 0 .05-1.204 2.4 2.4 0 0 0-.346-.832 2.37 2.37 0 0 0-.933-.843z"/></svg>