<svg xmlns="http://www.w3.org/2000/svg" fill="none" viewBox="0 0 14 14"><path fill="var(--file-icon-blue, #0ea5e9)" d="M.5 4.463V3.106h6.224v1.357h-2.32v6.427H2.82V4.463zm11.36.882a.97.97 0 0 0-.38-.715q-.337-.255-.915-.254-.392 0-.662.114a.93.93 0 0 0-.414.308.76.76 0 0 0-.141.448.65.65 0 0 0 .085.365.9.9 0 0 0 .263.27q.166.11.385.194.217.08.466.136l.68.168q.497.114.911.304t.718.467.47.654q.17.375.174.863-.003.714-.355 1.238-.348.521-1.007.81-.655.285-1.58.285-.918 0-1.599-.289a2.35 2.35 0 0 1-1.058-.855q-.378-.57-.396-1.41h1.55q.026.391.219.654.196.259.522.391.33.13.744.13.406 0 .706-.122.305-.122.47-.338a.8.8 0 0 0 .167-.498.66.66 0 0 0-.152-.441 1.15 1.15 0 0 0-.437-.304 4.4 4.4 0 0 0-.699-.228l-.825-.213q-.96-.24-1.514-.749-.555-.51-.551-1.372a2.08 2.08 0 0 1 .366-1.235q.374-.528 1.025-.825A3.55 3.55 0 0 1 10.576 3q.845 0 1.473.296.633.297.985.825.351.528.362 1.224z"/></svg>