<svg xmlns="http://www.w3.org/2000/svg" fill="none" viewBox="0 0 14 14"><path fill="var(--file-icon-gray, #807976)" d="M7 3.403a3.606 3.606 0 0 0-3.6 3.603A3.606 3.606 0 0 0 7 10.608c1.985 0 3.6-1.616 3.6-3.602A3.606 3.606 0 0 0 7 3.403M7 8.87a1.864 1.864 0 1 1 .001-3.727A1.864 1.864 0 0 1 7 8.87"/><path fill="var(--file-icon-blue, #0ea5e9)" fill-rule="evenodd" d="M7.322 2.457V1A6.007 6.007 0 0 1 13 7a6.007 6.007 0 0 1-5.678 6v-1.457A4.56 4.56 0 0 0 11.548 7a4.56 4.56 0 0 0-4.226-4.543M3.557 9.979a4.54 4.54 0 0 1-1.1-2.652H1a6 6 0 0 0 1.526 3.683zM6.669 13v-1.457a4.53 4.53 0 0 1-2.651-1.1l-1.03 1.03A5.98 5.98 0 0 0 6.667 13" clip-rule="evenodd"/></svg>