<svg xmlns="http://www.w3.org/2000/svg" fill="none" viewBox="0 0 14 14"><path fill="var(--file-icon-green, #16a34a)" d="M11.93.633C10.079.61 8.659 6.938 8.698 9.53c.613-1.745 1.547-2.822 2.533-3.01-1.635 1.475-2.112 4.08-1.946 6.563-1.048.213-1.84.3-2.099.125l.008-.913c.033.112.08.185.153.197.186-2.038-.378-3.812-2.394-4.251 1.277-.058 2.056.431 2.681 1.621C7.676 4.965 9.546.415 11.93.501c.371.014.726.226 1.07.626-.303-.279-.767-.49-1.07-.494m-8.64 9.634C2.79 9.29 1.777 8.492 1 8.437c1.164.912 2.074 2.705 2.086 4.605-.229-.468-.198-.514-.313-.77-.018.429.1.55.097 1.185.658.077 1.278.066 1.803-.166-.117-1.466-.102-2.821 1.346-2.97-.754-.054-1.105.079-1.633.403-.17-2.556-.723-5.24-1.3-7.566.12 2.793.211 5.355.205 7.11"/></svg>