<svg xmlns="http://www.w3.org/2000/svg" fill="none" viewBox="0 0 14 14"><path fill="var(--file-icon-violet, #5249f8)" d="M9.492 1c.099 0 .195.028.278.082l3.007 2.001A.5.5 0 0 1 13 3.5v7a.5.5 0 0 1-.223.417l-3 2.001a.51.51 0 0 1-.657-.09l-3.197-3.71-2.043 1.957-.035.035a.5.5 0 0 1-.345.14.5.5 0 0 1-.3-.1l-2-1.5-.084-.08A.5.5 0 0 1 1 9.25v-4.5a.5.5 0 0 1 .2-.4l2-1.5.069-.042a.5.5 0 0 1 .418-.023q.089.037.158.105l.035.035 2.043 1.958 3.192-3.708A.5.5 0 0 1 9.492 1m.503 4.213L8.13 7l1.867 1.79.003.002V5.208zm-6.933 2.99L4.1 6.997 3.062 5.795z"/></svg>