<svg xmlns="http://www.w3.org/2000/svg" fill="none" viewBox="0 0 14 14"><path stroke="var(--file-icon-purple, #a855f7)" stroke-width="1.2" d="M7.864 12.52a1 1 0 0 1-1.727 0L1.058 3.813a1 1 0 0 1 1.017-1.492l4.772.74a1 1 0 0 0 .307 0l4.771-.739a1 1 0 0 1 1.017 1.492z"/><path fill="var(--file-icon-yellow, #eab308)" d="m9.612 1.003-4.227.806a.15.15 0 0 0-.125.139L5 6.22c-.006.1.09.178.19.156l1.177-.264c.11-.025.21.07.187.177l-.35 1.665c-.023.112.085.208.197.175l.727-.215c.113-.033.221.063.197.175l-.555 2.616c-.035.164.189.253.282.113l.062-.094 3.444-6.686c.058-.112-.041-.24-.168-.216l-1.211.227A.153.153 0 0 1 9 3.859l.791-2.666c.032-.109-.065-.212-.179-.19"/></svg>