<svg xmlns="http://www.w3.org/2000/svg" fill="none" viewBox="0 0 15 14"><path fill="var(--file-icon-yellow, #eab308)" d="M10.756 4.507 7.648 8.973a.267.267 0 0 1-.486-.162l.124-2.466-2.008-.423a.27.27 0 0 1-.192-.16.26.26 0 0 1 .028-.248l3.108-4.466a.27.27 0 0 1 .305-.1.27.27 0 0 1 .181.262l-.124 2.466 2.008.423a.27.27 0 0 1 .192.16.26.26 0 0 1-.028.248"/><path fill="var(--file-icon-teal, #14b8a6)" d="M7.499 13.067a.64.64 0 0 0 .445-.18l2.936-2.879a.61.61 0 0 0 0-.87.636.636 0 0 0-.89-.002L7.5 11.578l-5.43-5.32a.636.636 0 0 0-.887.003.61.61 0 0 0-.003.869l5.873 5.756a.63.63 0 0 0 .445.18"/><path fill="var(--file-icon-teal, #14b8a6)" d="M7.501 13.067a.64.64 0 0 1-.445-.18l-2.936-2.88a.61.61 0 0 1 0-.87.636.636 0 0 1 .89-.002l2.49 2.443 5.428-5.32a.636.636 0 0 1 .887.003.61.61 0 0 1 .003.869l-5.873 5.756a.63.63 0 0 1-.445.18"/></svg>