<svg xmlns="http://www.w3.org/2000/svg" fill="none" viewBox="0 0 14 14"><path fill="var(--file-icon-teal, #14b8a6)" d="M4.14 12.268a.56.56 0 0 1-.286-.29c-.072-.072-.072-.072-.143 0-.072.145-.072.29-.143.435-.215.725-.572.942-1.286.797-.143 0-.286-.072-.43-.145q-.427-.217-.213-.652c0-.072.071-.145.071-.217-.286 0-.429-.145-.5-.363-.357-.942-.286-1.666.429-2.391.071-.145.142-.218.142-.362 0-.943.143-1.812.786-2.61.215-.29.5-.579.858-.796.143-.073.143-.145.071-.29a2.4 2.4 0 0 1-.5-1.16c-.071-.362.143-.724.286-1.087.071-.072.143-.145.214-.145.286-.072.5-.29.715-.434.5-.508 1.072-.725 1.786-.725.143 0 .215-.073.215-.145q.107-.435.428-.87l.215-.217c.143-.145.357-.145.429.072.214.363.357.725.5 1.015.071.145.143.145.214.072.5-.217.5-.217.643.29.357 1.522.143 2.971-.714 4.348-.072.145-.215.29-.286.435-.072.145-.072.218.071.362a3.87 3.87 0 0 1 1.215 2.247 6 6 0 0 1 0 1.594c-.071.29 0 .29.214.218.5-.145 1-.363 1.43-.653.5-.29.928-.58 1.5-.652.214 0 .357-.072.572 0 .214.073.357.29.357.507s-.143.363-.357.435c-.715.145-1.358.508-1.93.942-.714.508-1.572.87-2.358 1.087-.071 0-.214.073-.285.145-.286.218-.572.218-.93.29-.785.072-1.5.145-2.286.145-.214 0-.429 0-.715-.072-.214-.073-.428-.218-.5-.435q-.107-.435.215-.652c.143 0 .214-.073.285-.073"/></svg>