<svg width="75" height="75" viewBox="0 0 75 75" fill="none" xmlns="http://www.w3.org/2000/svg">
<path d="M0 28.6107C0 16.8636 0 10.9901 2.92296 6.83113C3.99026 5.31253 5.31253 3.99026 6.83113 2.92296C10.9901 0 16.8636 0 28.6107 0H46.3893C58.1364 0 64.0099 0 68.1689 2.92296C69.6875 3.99026 71.0097 5.31253 72.077 6.83113C75 10.9901 75 16.8636 75 28.6107V46.3893C75 58.1364 75 64.0099 72.077 68.1689C71.0097 69.6875 69.6875 71.0097 68.1689 72.077C64.0099 75 58.1364 75 46.3893 75H28.6107C16.8636 75 10.9901 75 6.83113 72.077C5.31253 71.0097 3.99026 69.6875 2.92296 68.1689C0 64.0099 0 58.1364 0 46.3893V28.6107Z" fill="black"/>
<path d="M16.5 60V15L37.467 34.7045L58.5 15V60L37.467 40.3636L16.5 60Z" fill="#A9F0EC"/>
</svg>
