<svg width="152" height="122" viewBox="0 0 152 122" fill="none" xmlns="http://www.w3.org/2000/svg"><path d="M80.3436 60.1802L84.5895 119.978H24.7214C27.269 110.648 34.0626 102.59 50.6218 99.6215L59.1138 69.0863L70.1533 64.6332L80.3436 60.1802Z" fill="var(--bg-2)"/><path d="M70.1533 64.6332L80.3436 60.1802L84.5895 119.978H24.7214C27.269 110.648 34.0626 102.59 50.6218 99.6215L59.1138 69.0863L70.1533 64.6332ZM70.1533 64.6332L61.6613 104.287" stroke="currentColor" stroke-width="1.5"/><path d="M103.782 60.8931L28.9292 88.3557L4.02254 20.937L57.8859 2.1928L74.8945 34.5677L90.3826 30.0305L103.782 60.8931Z" fill="var(--bg-1)" stroke="currentColor" stroke-width="1.5"/><path d="M38.0304 40.4213L38.7686 40.5543L39.2695 37.7844L37.4566 39.9388L38.0304 40.4213ZM32.1416 72.9819L31.4034 72.8489L31.1875 74.0427L32.3521 73.7016L32.1416 72.9819ZM19.1647 46.9364L18.996 47.6672C23.5475 48.7145 26.9751 48.8493 30.0378 47.7561C33.0935 46.6654 35.6676 44.3937 38.6043 40.9039L38.0304 40.4213L37.4566 39.9388C34.57 43.369 32.2074 45.3894 29.5342 46.3436C26.868 47.2953 23.7744 47.2275 19.3333 46.2056L19.1647 46.9364ZM38.0304 40.4213L37.2923 40.2883L31.4034 72.8489L32.1416 72.9819L32.8797 73.1149L38.7686 40.5543L38.0304 40.4213ZM32.1416 72.9819L32.3521 73.7016L60.5954 65.4276L60.3849 64.708L60.1744 63.9884L31.9311 72.2623L32.1416 72.9819Z" fill="currentColor"/><path d="M63.1197 32.8793L62.4535 32.535C60.4607 36.3859 57.1426 38.1855 53.7388 38.7944C50.3085 39.4081 46.8402 38.7988 44.7031 37.8719L44.4042 38.5599L44.1053 39.2479C46.502 40.2873 50.2692 40.9386 54.0022 40.2708C57.7615 39.5982 61.5343 37.5744 63.7858 33.2236L63.1197 32.8793Z" fill="currentColor"/><path d="M76.9071 88.8896L78.7226 53.3778L84.2093 52.6955L84.7225 87.468C86.4088 91.8495 90.7924 101.555 91.4335 105.556C91.9278 108.641 87.8802 107.445 87.8802 107.445C87.8378 109.788 85.9813 110.442 83.545 109.32C83.545 109.32 82.7448 112.04 80.0367 110.429C77.3286 108.818 77.0129 102.953 77.0129 102.953C77.0129 102.953 75.7094 104.644 73.8786 103.287C71.1776 101.286 76.9071 88.8896 76.9071 88.8896Z" fill="var(--bg-1)"/><path d="M76.9071 88.8896L77.5866 89.2037L77.6474 89.0723L77.6548 88.9278L76.9071 88.8896ZM73.8786 103.287L74.3244 102.686L73.8786 103.287ZM77.0129 102.953L77.7604 102.913L77.7589 102.885L77.7554 102.858L77.0129 102.953ZM91.4335 105.556L92.1727 105.438L91.4335 105.556ZM84.7225 87.468L83.9739 87.4791L83.9759 87.6124L84.0238 87.7369L84.7225 87.468ZM78.7226 53.3778L77.9749 53.3397L76.1594 88.8515L76.9071 88.8896L77.6548 88.9278L79.4703 53.416L78.7226 53.3778ZM76.9071 88.8896C76.2275 88.5756 76.2275 88.5757 76.2274 88.5759C76.2273 88.576 76.2272 88.5762 76.2271 88.5765C76.2269 88.577 76.2266 88.5776 76.2262 88.5785C76.2254 88.5802 76.2243 88.5827 76.2228 88.5859C76.2199 88.5923 76.2156 88.6016 76.21 88.6138C76.1988 88.6383 76.1824 88.6741 76.1614 88.7207C76.1192 88.814 76.058 88.9502 75.9813 89.1238C75.828 89.4711 75.6125 89.9684 75.3625 90.571C74.8633 91.7749 74.2238 93.4061 73.6684 95.1053C73.1157 96.7961 72.6338 98.5913 72.4681 100.112C72.3854 100.871 72.3765 101.602 72.498 102.235C72.6189 102.865 72.8869 103.484 73.4328 103.889L73.8786 103.287L74.3244 102.686C74.1951 102.59 74.0513 102.384 73.9685 101.953C73.8863 101.525 73.882 100.959 73.9566 100.274C74.1055 98.9079 74.5495 97.2288 75.0916 95.5704C75.6309 93.9204 76.255 92.3275 76.7456 91.1445C76.9906 90.5538 77.2016 90.067 77.351 89.7285C77.4257 89.5593 77.485 89.4273 77.5255 89.3379C77.5457 89.2932 77.5612 89.2593 77.5715 89.2367C77.5767 89.2254 77.5806 89.2169 77.5831 89.2114C77.5844 89.2086 77.5853 89.2066 77.5859 89.2053C77.5862 89.2046 77.5864 89.2042 77.5865 89.2039C77.5866 89.2038 77.5866 89.2037 77.5867 89.2037C77.5867 89.2036 77.5866 89.2037 76.9071 88.8896ZM73.8786 103.287L73.4328 103.889C73.9882 104.3 74.5429 104.508 75.0773 104.553C75.6086 104.599 76.072 104.479 76.4431 104.31C76.8104 104.142 77.0945 103.923 77.2846 103.75C77.3809 103.662 77.4564 103.583 77.5098 103.524C77.5366 103.494 77.5581 103.469 77.5741 103.45C77.5821 103.44 77.5888 103.432 77.594 103.425C77.5967 103.422 77.599 103.419 77.6009 103.416C77.6019 103.415 77.6028 103.414 77.6036 103.413C77.604 103.412 77.6044 103.412 77.6048 103.411C77.605 103.411 77.6052 103.411 77.6053 103.411C77.6055 103.41 77.6058 103.41 77.0129 102.953C76.42 102.496 76.4202 102.496 76.4204 102.495C76.4205 102.495 76.4207 102.495 76.4209 102.495C76.4211 102.495 76.4214 102.494 76.4216 102.494C76.4221 102.493 76.4226 102.493 76.4229 102.492C76.4236 102.491 76.424 102.491 76.4241 102.491C76.4244 102.49 76.4235 102.492 76.4215 102.494C76.4175 102.499 76.4092 102.509 76.3968 102.522C76.3718 102.55 76.3311 102.593 76.2766 102.643C76.1651 102.744 76.009 102.862 75.8216 102.948C75.6379 103.032 75.4322 103.081 75.2042 103.061C74.9792 103.042 74.6844 102.953 74.3244 102.686L73.8786 103.287ZM77.0129 102.953C76.2653 102.993 76.2653 102.994 76.2653 102.994C76.2653 102.994 76.2654 102.994 76.2654 102.994C76.2654 102.995 76.2654 102.995 76.2655 102.996C76.2655 102.997 76.2656 102.998 76.2657 103C76.2659 103.004 76.2662 103.009 76.2666 103.016C76.2674 103.029 76.2686 103.047 76.2702 103.071C76.2734 103.118 76.2785 103.186 76.2858 103.272C76.3004 103.444 76.3243 103.689 76.3617 103.988C76.4361 104.583 76.565 105.398 76.783 106.269C77.0002 107.136 77.3116 108.083 77.7599 108.931C78.2054 109.774 78.8145 110.573 79.6539 111.072L80.0367 110.429L80.4195 109.786C79.9048 109.479 79.4589 108.941 79.0836 108.231C78.7111 107.527 78.4357 106.705 78.2355 105.905C78.0361 105.109 77.9167 104.356 77.8474 103.802C77.8128 103.525 77.7909 103.3 77.7777 103.145C77.7711 103.067 77.7667 103.008 77.764 102.968C77.7626 102.948 77.7617 102.934 77.7611 102.924C77.7608 102.92 77.7606 102.916 77.7605 102.914C77.7605 102.913 77.7604 102.913 77.7604 102.913C77.7604 102.912 77.7604 102.912 77.7604 102.912C77.7604 102.912 77.7604 102.913 77.7604 102.913C77.7604 102.913 77.7604 102.913 77.0129 102.953ZM80.0367 110.429L79.6539 111.072C80.4226 111.53 81.1292 111.723 81.7738 111.683C82.4259 111.642 82.933 111.368 83.3036 111.038C83.6657 110.717 83.9015 110.34 84.0444 110.06C84.1172 109.918 84.1697 109.793 84.2048 109.701C84.2224 109.655 84.2358 109.616 84.2454 109.588C84.2502 109.573 84.254 109.561 84.257 109.552C84.2585 109.547 84.2597 109.543 84.2607 109.54C84.2613 109.538 84.2617 109.536 84.2621 109.535C84.2623 109.534 84.2625 109.534 84.2627 109.533C84.2628 109.533 84.2629 109.532 84.2629 109.532C84.2631 109.532 84.2632 109.532 83.545 109.32C82.8268 109.109 82.8269 109.109 82.827 109.108C82.827 109.108 82.8271 109.108 82.8272 109.108C82.8273 109.107 82.8274 109.107 82.8275 109.107C82.8277 109.106 82.8279 109.105 82.828 109.105C82.8283 109.104 82.8283 109.104 82.8282 109.104C82.8279 109.105 82.827 109.108 82.8252 109.113C82.8218 109.124 82.8154 109.142 82.8058 109.167C82.7866 109.218 82.7554 109.293 82.7109 109.38C82.6191 109.56 82.4856 109.762 82.3091 109.919C82.1411 110.068 81.9405 110.172 81.6808 110.188C81.4138 110.205 81.0049 110.134 80.4195 109.786L80.0367 110.429ZM83.545 109.32L83.2318 110C84.5363 110.601 85.8436 110.804 86.8933 110.375C88.0194 109.915 88.6037 108.839 88.6287 107.459L87.8802 107.445L87.1317 107.432C87.1143 108.395 86.7492 108.817 86.3273 108.989C85.8291 109.192 84.9899 109.161 83.8581 108.64L83.545 109.32ZM87.8802 107.445C87.668 108.163 87.6682 108.163 87.6685 108.163C87.6686 108.164 87.6689 108.164 87.6691 108.164C87.6696 108.164 87.6701 108.164 87.6706 108.164C87.6718 108.164 87.6731 108.165 87.6747 108.165C87.678 108.166 87.6822 108.167 87.6874 108.169C87.6977 108.172 87.7119 108.176 87.7295 108.181C87.7649 108.19 87.8145 108.203 87.8762 108.218C87.9994 108.248 88.1724 108.287 88.378 108.322C88.7814 108.391 89.3437 108.455 89.9101 108.403C90.4627 108.353 91.135 108.182 91.6259 107.672C92.1475 107.131 92.3209 106.363 92.1727 105.438L91.4335 105.556L90.6943 105.675C90.7933 106.293 90.646 106.532 90.5477 106.634C90.4187 106.768 90.1718 106.876 89.7743 106.912C89.3905 106.947 88.9719 106.905 88.6318 106.846C88.4656 106.818 88.3264 106.787 88.2301 106.763C88.1821 106.752 88.1452 106.742 88.1215 106.736C88.1097 106.732 88.1012 106.73 88.0962 106.729C88.0937 106.728 88.0922 106.727 88.0915 106.727C88.0912 106.727 88.0911 106.727 88.0912 106.727C88.0913 106.727 88.0914 106.727 88.0916 106.727C88.0917 106.727 88.0919 106.727 88.092 106.727C88.0922 106.727 88.0924 106.727 87.8802 107.445ZM84.7225 87.468L85.471 87.4569L84.9579 52.6843L84.2093 52.6955L83.4608 52.7066L83.9739 87.4791L84.7225 87.468ZM91.4335 105.556L92.1727 105.438C91.8365 103.339 90.5439 99.8307 89.1652 96.3769C87.7615 92.8604 86.2669 89.3966 85.4212 87.199L84.7225 87.468L84.0238 87.7369C84.8643 89.9208 86.4047 93.5003 87.7746 96.9321C89.1696 100.427 90.3895 103.772 90.6943 105.675L91.4335 105.556ZM87.8802 107.445L88.5334 107.08C87.6834 105.561 86.3276 102.469 85.2384 98.5892L84.5176 98.7917L83.7969 98.9941C84.9122 102.966 86.3095 106.173 87.227 107.811L87.8802 107.445ZM83.545 109.32L84.2135 108.983C83.3875 107.344 81.9017 103.144 81.3256 99.7667L80.5876 99.8927L79.8496 100.019C80.4499 103.537 81.9809 107.88 82.8764 109.657L83.545 109.32ZM77.0129 102.953L77.7554 102.858C77.5591 101.331 77.4711 100.393 77.4932 97.877L76.7446 97.8705L75.996 97.8639C75.9733 100.447 76.0652 101.454 76.2704 103.049L77.0129 102.953Z" fill="currentColor"/><path d="M124.946 91.3459L147.587 106.346L143.727 112.156C140.671 116.757 134.462 118.014 129.858 114.964L123.889 111.009C119.285 107.959 118.031 101.757 121.087 97.1562L124.946 91.3459Z" fill="var(--bg-1)" stroke="currentColor" stroke-width="1.5"/><path d="M131.664 95.8004L132.29 96.2146L140.035 84.5522L139.41 84.1379L138.785 83.7237L131.039 95.3861L131.664 95.8004Z" fill="currentColor"/><path d="M140.509 101.661L141.135 102.076L148.88 90.4133L148.255 89.999L147.63 89.5848L139.884 101.247L140.509 101.661Z" fill="currentColor"/><ellipse cx="2.54614" cy="2.54605" rx="2.54614" ry="2.54605" transform="matrix(0.833588 0.55228 -0.553332 0.833031 130.856 102.389)" fill="var(--bg-2)" stroke="currentColor" stroke-width="1.5"/><path d="M128.47 58.6229L127.72 58.6439L128.47 58.6229ZM110.575 88.603L110.843 87.9026L110.575 88.603ZM111.408 74.2072L111.377 73.4579L111.408 74.2072ZM106.147 98.9683L106.095 98.2202L106.147 98.9683ZM99.4221 104.953L98.6865 105.099L99.4221 104.953ZM105.219 92.9673L105.574 93.6277L105.219 92.9673ZM118.263 73.3279L118.511 74.0358L118.263 73.3279ZM99.1694 50.5613L99.6526 51.1348C103.705 47.7204 110.694 46.0453 116.725 47.0631C119.725 47.5695 122.426 48.7329 124.393 50.6159C126.346 52.4854 127.622 55.1076 127.72 58.6439L128.47 58.6229L129.22 58.6019C129.111 54.6919 127.683 51.6887 125.431 49.5323C123.192 47.3893 120.187 46.1262 116.975 45.5841C110.582 44.5051 103.128 46.2453 98.6862 49.9878L99.1694 50.5613ZM110.575 88.603L110.307 89.3035C112.858 90.2796 115.135 89.7252 116.838 88.3367C118.511 86.9736 119.605 84.8365 119.96 82.6362C120.316 80.4347 119.948 78.065 118.554 76.2634C117.139 74.4349 114.765 73.3156 111.377 73.4579L111.408 74.2072L111.44 74.9565C114.446 74.8303 116.309 75.8139 117.367 77.1814C118.446 78.5757 118.786 80.4951 118.479 82.3974C118.172 84.3008 117.231 86.0822 115.891 87.174C114.582 88.2404 112.868 88.6772 110.843 87.9026L110.575 88.603ZM111.408 74.2072L111.377 73.4579C102.138 73.8458 97.2743 80.6213 96.469 87.124C96.0674 90.3675 96.6622 93.6156 98.2888 96.0187C99.9382 98.4556 102.619 99.9697 106.2 99.7164L106.147 98.9683L106.095 98.2202C103.058 98.4349 100.887 97.1803 99.5311 95.1778C98.1528 93.1414 97.5898 90.2794 97.9577 87.308C98.6916 81.3808 103.077 75.3077 111.44 74.9565L111.408 74.2072ZM99.4221 104.953L98.6865 105.099C101.096 117.228 116.296 123.907 127.124 113.431L126.603 112.892L126.082 112.353C116.189 121.924 102.358 115.884 100.158 104.807L99.4221 104.953ZM106.147 98.9683L106.2 99.7164C108.215 99.5739 109.662 98.8826 110.536 97.8637C111.412 96.8431 111.646 95.5689 111.361 94.4353C111.078 93.3072 110.281 92.3113 109.105 91.8393C107.918 91.363 106.444 91.4567 104.864 92.3068L105.219 92.9673L105.574 93.6277C106.847 92.9431 107.853 92.9532 108.546 93.2314C109.25 93.514 109.733 94.1109 109.906 94.8005C110.078 95.4845 109.942 96.253 109.398 96.8869C108.852 97.5226 107.828 98.0976 106.095 98.2202L106.147 98.9683ZM105.219 92.9673L104.864 92.3068C101.667 94.0266 97.3098 98.1695 98.6865 105.099L99.4221 104.953L100.158 104.807C98.9607 98.781 102.688 95.1806 105.574 93.6277L105.219 92.9673ZM128.47 58.6229L127.72 58.6439C127.92 65.8345 122.744 70.9644 118.015 72.6201L118.263 73.3279L118.511 74.0358C123.712 72.2146 129.441 66.5853 129.22 58.6019L128.47 58.6229ZM118.263 73.3279L118.015 72.6201C111.564 74.8792 108.425 78.4719 107.501 81.8574C106.598 85.1701 107.862 88.3681 110.307 89.3035L110.575 88.603L110.843 87.9026C109.358 87.3346 108.172 85.0988 108.949 82.2517C109.705 79.4773 112.375 76.1841 118.511 74.0358L118.263 73.3279Z" fill="currentColor"/></svg>