<svg width="7.5rem" height="6.25rem" viewBox="0 0 120 100" fill="none"
  xmlns="http://www.w3.org/2000/svg">
  <path opacity="0.42"
    d="M34.9722 79.0018L80.0677 76.1586C86.5068 75.7527 89.7264 75.5497 92.0115 73.97C93.3533 73.0423 94.4477 71.8005 95.1995 70.3529C96.4797 67.8875 96.2767 64.6679 95.8708 58.2287L94.2907 33.1675C93.8848 26.7283 93.6818 23.5088 92.102 21.2237C91.1744 19.8819 89.9326 18.7874 88.4849 18.0357C86.0196 16.7554 82.8 16.9584 76.3608 17.3644L49.365 19.0664C47.816 19.1641 47.0415 19.2129 46.3576 19.3532C42.9544 20.0515 40.1574 22.4661 38.9699 25.731C38.7313 26.3871 38.5699 27.1462 38.2472 28.6643L35.5958 41.1387C35.1266 43.346 34.892 44.4497 34.4482 45.4323C33.796 46.8765 32.8098 48.1449 31.5711 49.1332C30.7283 49.8055 29.7026 50.3119 27.6511 51.3247C24.9729 52.647 23.6337 53.3081 22.6206 54.2119C21.0266 55.6339 19.9299 57.5291 19.4911 59.6197C19.2122 60.9483 19.3048 62.4176 19.4901 65.3562C19.7593 69.6251 19.8938 71.7596 20.6435 73.4218C21.8252 76.0422 24.0775 78.0273 26.8256 78.8706C28.5687 79.4055 30.7032 79.2709 34.9722 79.0018Z"
    fill="var(--clr-core-ntrl-70)" />
  <path opacity="0.7"
    d="M78.5756 70.5254L64.5272 71.4111C61.9401 71.5742 60.0412 71.6933 58.5415 71.6475C57.0505 71.602 56.0154 71.3938 55.1422 70.9404C54.0709 70.3841 53.152 69.5742 52.4656 68.5813C51.9061 67.772 51.5695 66.7711 51.3371 65.2977C51.1033 63.8156 50.983 61.9168 50.8199 59.3297L49.4147 37.0426C49.2516 34.4555 49.1325 32.5566 49.1783 31.0569C49.2238 29.5659 49.432 28.5307 49.8854 27.6576C50.4417 26.5863 51.2517 25.6674 52.2446 24.9809C53.0539 24.4214 54.0547 24.0849 55.5281 23.8525C57.0103 23.6187 58.9091 23.4984 61.4962 23.3353L75.5445 22.4495C78.1316 22.2864 80.0306 22.1673 81.5303 22.2131C83.0213 22.2586 84.0564 22.4668 84.9296 22.9202C86.0009 23.4765 86.9198 24.2865 87.6062 25.2794C88.1657 26.0887 88.5023 27.0895 88.7347 28.5629C88.9685 30.045 89.0888 31.9439 89.2519 34.531L90.6571 56.818C90.8202 59.4051 90.9393 61.304 90.8935 62.8038C90.848 64.2947 90.6398 65.3299 90.1864 66.203C89.6301 67.2743 88.8201 68.1932 87.8272 68.8797C87.0179 69.4392 86.0171 69.7758 84.5437 70.0082C83.0615 70.2419 81.1627 70.3623 78.5756 70.5254Z"
    fill="var(--clr-core-ntrl-100)" stroke="var(--clr-core-ntrl-50)" stroke-width="1.2" />
  <path
    d="M60.4899 41.9083L72.8154 52.7445C74.5386 54.2594 77.1802 54.0174 78.5994 52.2147L96.9324 28.9281"
    stroke="var(--clr-core-pop-50)" stroke-width="6" />
  <path opacity="0.4"
    d="M36.1051 91.1107L47.6589 78.2018L66.8837 76.9898L82.7672 88.1687L36.1051 91.1107Z"
    fill="var(--clr-core-ntrl-40)" />
  <path opacity="0.4"
    d="M1.9933 22.2746L6.56951 18.3859C9.20709 16.1446 10.6359 12.7925 10.4264 9.3376L10.0437 3.02769L14.0383 7.92713C16.2255 10.6098 19.5478 12.1065 23.0062 11.9672L29.0067 11.7257L24.4304 15.6144C21.7929 17.8557 20.364 21.2077 20.5736 24.6626L20.9563 30.9725L16.9617 26.0731C14.7745 23.3905 11.4522 21.8938 7.99373 22.033L1.9933 22.2746Z"
    fill="var(--clr-core-pop-50)" />
  <path opacity="0.4"
    d="M114.049 76.3141L119.746 88.5636L108.951 96.6858L103.254 84.4363L114.049 76.3141Z"
    fill="var(--clr-core-pop-50)" />
</svg>