<svg width="100%" height="100%" viewBox="0 0 276 206" fill="none" xmlns="http://www.w3.org/2000/svg">
<path opacity="0.38" d="M16.6 188.667V17.3333C16.6 8.09177 24.0918 0.6 33.3333 0.6H258.667C267.908 0.6 275.4 8.09177 275.4 17.3333V188.667C275.4 197.908 267.908 205.4 258.667 205.4H33.3333C24.0918 205.4 16.6 197.908 16.6 188.667Z" stroke="var(--clr-core-ntrl-50)" stroke-width="1.2"/>
<path opacity="0.38" d="M26.6 47V18C26.6 13.9131 29.9131 10.6 34 10.6H141C145.087 10.6 148.4 13.9131 148.4 18V47C148.4 51.0869 145.087 54.4 141 54.4H34C29.9131 54.4 26.6 51.0869 26.6 47Z" stroke="var(--clr-core-ntrl-50)" stroke-width="1.2"/>
<path opacity="0.38" d="M26.6 188V69C26.6 64.9131 29.9131 61.6 34 61.6H141C145.087 61.6 148.4 64.9131 148.4 69V188C148.4 192.087 145.087 195.4 141 195.4H34C29.9131 195.4 26.6 192.087 26.6 188Z" stroke="var(--clr-core-ntrl-50)" stroke-width="1.2"/>
<path opacity="0.38" d="M155.6 188V18C155.6 13.9131 158.913 10.6 163 10.6H258C262.087 10.6 265.4 13.9131 265.4 18V188C265.4 192.087 262.087 195.4 258 195.4H163C158.913 195.4 155.6 192.087 155.6 188Z" stroke="var(--clr-core-ntrl-50)" stroke-width="1.2"/>
<rect opacity="0.38" x="169" y="158" width="83" height="4" rx="2" fill="var(--clr-core-ntrl-50)"/>
<rect opacity="0.38" x="169" y="168" width="33" height="4" rx="2" fill="var(--clr-core-ntrl-50)"/>
<path opacity="0.38" d="M156 143H265" stroke="var(--clr-core-ntrl-50)" stroke-width="1.2"/>
<g opacity="0.5">
<rect x="36" y="76" width="5" height="4" rx="2" fill="var(--clr-core-ntrl-50)"/>
<rect x="36" y="90" width="5" height="4" rx="2" fill="var(--clr-core-ntrl-50)"/>
<rect x="36" y="104" width="5" height="4" rx="2" fill="var(--clr-core-ntrl-50)"/>
<rect x="36" y="118" width="5" height="4" rx="2" fill="var(--clr-core-ntrl-50)"/>
<rect x="36" y="132" width="5" height="4" rx="2" fill="var(--clr-core-ntrl-50)"/>
<rect x="36" y="146" width="5" height="4" rx="2" fill="var(--clr-core-ntrl-50)"/>
<rect x="36" y="160" width="5" height="4" rx="2" fill="var(--clr-core-ntrl-50)"/>
<rect x="36" y="174" width="5" height="4" rx="2" fill="var(--clr-core-ntrl-50)"/>
</g>
<rect opacity="0.38" x="51" y="76" width="85" height="4" rx="2" fill="var(--clr-core-ntrl-50)"/>
<rect opacity="0.38" x="61" y="90" width="35" height="4" rx="2" fill="var(--clr-core-ntrl-50)"/>
<rect opacity="0.38" x="71" y="104" width="35" height="4" rx="2" fill="var(--clr-core-ntrl-50)"/>
<rect opacity="0.38" x="61" y="118" width="65" height="4" rx="2" fill="var(--clr-core-ntrl-50)"/>
<rect opacity="0.38" x="51" y="132" width="65" height="4" rx="2" fill="var(--clr-core-ntrl-50)"/>
<rect opacity="0.38" x="61" y="146" width="65" height="4" rx="2" fill="var(--clr-core-ntrl-50)"/>
<rect opacity="0.38" x="71" y="160" width="65" height="4" rx="2" fill="var(--clr-core-ntrl-50)"/>
<rect opacity="0.38" x="61" y="174" width="25" height="4" rx="2" fill="var(--clr-core-ntrl-50)"/>
<path d="M0 122C0 117.582 3.58172 114 8 114H47C51.4183 114 55 117.582 55 122V169L38.5 159H8C3.58172 159 0 155.418 0 151V122Z" fill="var(--clr-bg-1)"/>
<path opacity="0.16" d="M0 122C0 117.582 3.58172 114 8 114H47C51.4183 114 55 117.582 55 122V169L38.5 159H8C3.58172 159 0 155.418 0 151V122Z" fill="var(--clr-core-pop-50)"/>
<path opacity="0.5" d="M54.5 122V168.112L38.7592 158.572L38.6397 158.5H38.5H8C3.85787 158.5 0.5 155.142 0.5 151V122C0.5 117.858 3.85786 114.5 8 114.5H47C51.1421 114.5 54.5 117.858 54.5 122Z" stroke="var(--clr-core-pop-50)"/>
<path opacity="0.2" d="M181 110C181 105.582 184.582 102 189 102H248C252.418 102 256 105.582 256 110V133H228.5H189C184.582 133 181 129.418 181 125V110Z" fill="var(--clr-core-pop-50)"/>
<path opacity="0.6" d="M189 102.5H248C252.142 102.5 255.5 105.858 255.5 110V132.5H228.5H189C184.858 132.5 181.5 129.142 181.5 125V110C181.5 105.858 184.858 102.5 189 102.5Z" stroke="var(--clr-core-pop-50)"/>
<path opacity="0.2" d="M181 49C181 44.5817 184.582 41 189 41H248C252.418 41 256 44.5817 256 49V62H228.5H189C184.582 62 181 58.4183 181 54V49Z" fill="var(--clr-core-pop-50)"/>
<path opacity="0.6" d="M189 41.5H248C252.142 41.5 255.5 44.8579 255.5 49V61.5H228.5H189C184.858 61.5 181.5 58.1421 181.5 54V49C181.5 44.8579 184.858 41.5 189 41.5Z" stroke="var(--clr-core-pop-50)"/>
<path opacity="0.6" d="M211 71.5H173C168.858 71.5 165.5 74.8579 165.5 79V92.5H184.8H211C215.142 92.5 218.5 89.1421 218.5 85V79C218.5 74.8579 215.142 71.5 211 71.5Z" stroke="var(--clr-core-ntrl-60)"/>
<rect x="217" y="171" width="37" height="13" rx="3" fill="var(--clr-core-pop-50)"/>
<path d="M20.8125 144.444V132.873C20.8125 132.193 21.0833 131.542 21.5649 131.062L27.6559 124.997C28.2545 124.401 29.1665 124.253 29.9227 124.63C30.7192 125.026 31.1507 125.908 30.9755 126.78L29.965 131.811H36.9977C38.4091 131.811 39.5532 132.955 39.5532 134.367V136.897C39.5532 137.263 39.4745 137.625 39.3225 137.958L35.8771 145.506C35.4615 146.416 34.5529 147 33.5523 147H23.3681C21.9567 147 20.8125 145.856 20.8125 144.444Z" fill="var(--clr-core-pop-50)"/>
<rect x="14" y="131.668" width="5.11111" height="15.3333" rx="1.7037" fill="var(--clr-core-pop-50)"/>
</svg>
