<svg xmlns="http://www.w3.org/2000/svg" viewBox="0 0 80 80" fill="none">
  <g clip-path="url(#clip0_11226_101127)">
    <path opacity="0.24"
      vector-effect="non-scaling-stroke"
      d="M1.82993 18.8041C1.32826 15.5286 3.5769 12.4666 6.85241 11.9649L23.3175 9.44316C26.593 8.94148 29.655 11.1901 30.1567 14.4656L30.612 17.4383C30.928 19.5019 32.294 21.2529 34.2187 22.0615L41.5326 25.1346C43.4573 25.9432 44.8233 27.6942 45.1394 29.7578L45.3272 30.984C45.8288 34.2595 43.5802 37.3216 40.3047 37.8232L11.4888 42.2366C8.21325 42.7383 5.15124 40.4896 4.64957 37.2141L1.82993 18.8041Z"
      fill="var(--clr-core-ntrl-60)" />
    <path vector-effect="non-scaling-stroke" opacity="0.4"
      d="M10.9725 23.378L15.3987 29.3922L25.8611 21.4691"
      stroke="var(--clr-core-ntrl-50)" stroke-width="2.08" />
    <path vector-effect="non-scaling-stroke" opacity="0.32"
      d="M25.9089 47.07C20.4496 53.5923 20.5308 62.6519 26.0902 67.3051C20.5308 62.6519 11.5985 64.167 6.13924 70.6894C11.5985 64.167 11.5173 55.1075 5.95795 50.4542C11.5173 55.1075 20.4496 53.5923 25.9089 47.07Z"
      fill="var(--clr-core-ntrl-60)" />
    <path vector-effect="non-scaling-stroke" opacity="0.28"
      d="M68.1933 19.8573L61.8689 27.7332C59.0368 31.26 53.361 29.7045 52.7227 25.2266V25.2266C52.3781 22.8092 53.7725 20.4805 56.0662 19.6428L62.8933 17.1494L49.2707 16.3002C46.382 16.1201 44.3003 13.4555 44.8246 10.6091V10.6091C45.3329 7.84934 48.0795 6.10346 50.7941 6.81461L69.2023 11.6371C72.271 12.441 74.4155 15.2081 74.4283 18.3803L74.4877 33.0892C74.4992 35.9585 72.308 38.3569 69.4494 38.6038V38.6038C65.3861 38.9548 62.3616 34.9252 63.8337 31.1217L68.1933 19.8573Z"
      fill="var(--clr-core-ntrl-60)" />
    <g opacity="0.7">
      <path vector-effect="non-scaling-stroke" opacity="0.6"
        d="M34.6622 60.1365L38.9575 49.1117C39.8515 46.8173 40.2984 45.6701 41.1358 44.9995C41.6282 44.6052 42.2069 44.333 42.8246 44.205C43.8751 43.9873 45.0439 44.3744 47.3815 45.1485L58.8452 48.9448C59.6892 46.7095 60.1112 45.5919 60.8996 44.9227C61.4409 44.4632 62.0948 44.1561 62.7941 44.0329C63.8125 43.8535 64.9421 44.2424 67.2012 45.0202L68.4787 45.4601C70.9934 46.3259 72.2507 46.7588 72.9701 47.6379C73.3921 48.1536 73.6786 48.7667 73.8035 49.4213C74.0165 50.5371 73.542 51.7794 72.5931 54.2638L67.6904 67.0997C66.6361 69.8599 66.109 71.24 65.1127 72.0746C64.5262 72.5659 63.8348 72.9161 63.0917 73.0981C61.8293 73.4074 60.4048 73.0157 57.5559 72.2322L38.0419 66.8656C35.9936 66.3023 34.9695 66.0206 34.3786 65.3535C34.0326 64.9629 33.7944 64.4888 33.6877 63.978C33.5054 63.1056 33.891 62.1159 34.6622 60.1365Z"
        fill="var(--clr-core-ntrl-60)" />
      <path vector-effect="non-scaling-stroke"
        d="M43.9353 48.5327C42.0252 47.9498 40.6354 47.5272 39.5329 47.3088C38.5736 47.1189 37.8916 47.0971 37.3233 47.2339L37.0867 47.3025C36.4035 47.5327 35.7885 47.9262 35.2951 48.4476L35.0916 48.6792C34.679 49.1816 34.4153 49.8663 34.2292 50.968C34.0889 51.7993 33.9986 52.8228 33.9064 54.1233L33.8121 55.5194L33.5203 59.8915C33.4483 60.9709 33.397 61.7435 33.4083 62.3573C33.418 62.8861 33.4743 63.2601 33.5869 63.5752L33.6387 63.7069C33.8055 64.0951 34.0431 64.4487 34.3386 64.7492L34.4684 64.874C34.744 65.126 35.1005 65.3268 35.6678 65.536C36.2437 65.7484 36.9901 65.9544 38.0332 66.2413L57.1214 71.4907C58.6165 71.9019 59.6952 72.1978 60.5484 72.343C61.2888 72.469 61.8018 72.4699 62.2218 72.3606L62.3967 72.3065C62.9113 72.1239 63.3733 71.8206 63.7446 71.4233L63.8982 71.2478C64.2013 70.875 64.4038 70.3639 64.552 69.5184C64.664 68.8792 64.7381 68.0922 64.8167 67.0865L64.8984 66.005L65.236 61.4298C65.3335 60.1098 65.4036 59.1566 65.3958 58.3958C65.3891 57.7378 65.3236 57.2598 65.183 56.8494L65.1188 56.6778C64.9134 56.1802 64.6183 55.7251 64.2495 55.3347L64.0868 55.1715C63.7347 54.836 63.2837 54.5707 62.5856 54.2918C62.2324 54.1506 61.8273 54.0098 61.3523 53.8563L59.6987 53.3429L43.9353 48.5327Z"
        fill="var(--clr-bg-1)" stroke="var(--clr-scale-ntrl-60)" stroke-width="1.2" />
    </g>
  </g>

</svg>