<svg xmlns="http://www.w3.org/2000/svg" width="7.5rem" height="6.25rem" viewBox="0 0 120 100"
  fill="none">
  <g id="6796:5986">
    <g id="6796:5967">
      <path id="6796:6064"
        d="M86 45.3444C82.241 49.022 72.4782 52.3224 59.7717 52.3224C47.0653 52.3224 37.3885 48.9289 33.307 45.2513M79.3053 55.1794C78.0143 58.3957 70.8234 61 59.9163 61C49.0093 61 41.3396 58.8338 40.0968 55.4233M76.8662 65C76.1707 68 69.0674 70 59.5 70C49.9326 70 43.2565 68 42.2792 65M108.5 30.5C82.5089 45.48 76 48.9167 76 81M43 81C43 50.1667 38.7343 45.7071 9.5 30M64.4378 86.4806C64.4378 58.1857 66.3638 49.761 70.9341 39.5M54.5622 86.4806C54.5622 58.8613 53.1907 50.4939 48.2454 39.5"
        stroke="var(--clr-scale-ntrl-70)" stroke-width="1.2" />
      <path id="6796:6058" opacity="0.7" fill-rule="evenodd" clip-rule="evenodd"
        d="M59.0656 40.9218V33.7537C55.9882 33.7722 53.0321 33.9291 50.2703 34.2032C50.6232 36.221 50.9214 38.3791 51.1708 40.7119C53.7497 40.8434 56.3855 40.9148 59.0656 40.9218ZM60.2656 40.9206C62.8937 40.9085 65.4784 40.8346 68.0082 40.7027C68.2835 38.3624 68.6056 36.203 68.9765 34.1923C66.2386 33.9242 63.3114 33.771 60.2656 33.7536V40.9206ZM49.9568 40.6454C49.711 38.3801 49.4187 36.2864 49.0745 34.3305C46.6959 34.6012 44.4759 34.9601 42.4642 35.3926C41.2191 35.6603 40.0608 35.9548 38.9984 36.2715C39.5815 37.3984 40.1113 38.5728 40.5916 39.8036C43.6039 40.1727 46.7339 40.4561 49.9568 40.6454ZM78.9255 39.7392C75.8111 40.1328 72.5682 40.4344 69.2246 40.6346C69.4958 38.3623 69.8116 36.2674 70.1734 34.3181C72.5932 34.5903 74.8503 34.9535 76.8928 35.3926C78.2043 35.6746 79.4195 35.9863 80.5277 36.3224C79.951 37.4098 79.4174 38.546 78.9255 39.7392ZM39.2298 39.6298C38.8035 38.5916 38.34 37.597 37.837 36.6394C35.9697 37.268 34.457 37.9699 33.3608 38.7145C35.2564 39.0565 37.2153 39.3625 39.2298 39.6298ZM31.7806 38.4182C23.0828 36.7248 15.8152 34.2592 10.7589 31.2908C13.5647 28.3657 18.8814 25.5597 25.8945 23.3311C30.5004 26.8031 33.976 30.2996 36.5729 34.4405C36.8058 34.8118 37.0317 35.1885 37.2508 35.571C34.8849 36.3851 33.0034 37.3429 31.7806 38.4182ZM9.71409 30.6501C12.5694 27.5595 17.878 24.7103 24.7071 22.4544C20.4367 19.3639 15.2542 16.2515 8.98226 12.6802C5.15475 15.3097 3 18.2792 3 21.4223C3 24.7606 5.4305 27.903 9.71409 30.6501ZM10.1127 11.9434C16.4777 15.5772 21.7627 18.7722 26.1214 22.0024C26.8111 21.7892 27.5149 21.582 28.2317 21.381C32.911 20.069 38.1795 19.0161 43.8164 18.3234C41.3743 13.6735 38.1701 9.30051 33.9913 4.01817C23.9255 5.779 15.5932 8.54941 10.1127 11.9434ZM35.3401 3.78999C39.4561 9.01462 42.6483 13.4217 45.0907 18.1737C49.5468 17.6741 54.2186 17.4 59 17.4L59.0656 17.4V1.92291C50.5815 1.94496 42.5424 2.61239 35.3401 3.78999ZM60.2656 1.9241V17.4074C65.022 17.4631 69.6591 17.8307 74.0715 18.443C76.5787 13.4597 79.7737 9.07562 83.7118 3.79849C76.5899 2.63097 68.6481 1.96252 60.2656 1.9241ZM85.0412 4.02386C81.0298 9.39454 77.827 13.7459 75.3249 18.6244C80.5386 19.41 85.418 20.5351 89.7836 21.8855C90.6894 22.1656 91.574 22.4558 92.4358 22.755C96.9897 19.2158 102.462 15.86 108.91 11.9578C103.436 8.5609 95.1067 5.78745 85.0412 4.02386ZM110.026 12.6857C103.622 16.5587 98.2434 19.8441 93.7794 23.2356C100.2 25.6016 105.221 28.469 108.051 31.4013C113.1 28.482 116 25.0691 116 21.4223C116 18.2813 113.848 15.3138 110.026 12.6857ZM106.962 32.0058C104.165 29.2316 99.1673 26.4287 92.658 24.1054C89.0048 27.0004 86.0026 30.0142 83.5848 33.5695C83.1311 34.2367 82.6976 34.9235 82.2841 35.6329C84.5249 36.4189 86.3181 37.336 87.5107 38.3611C95.3738 36.8089 102.052 34.6233 106.962 32.0058ZM85.9203 38.6634C84.1049 38.9955 82.2308 39.2944 80.3048 39.5578C80.7353 38.563 81.1963 37.6111 81.6883 36.6966C83.4361 37.296 84.8642 37.9603 85.9203 38.6634ZM69.2038 33.0089C66.3921 32.73 63.388 32.5713 60.2656 32.5536V18.6075C64.8268 18.6615 69.276 19.0055 73.5173 19.5784C72.5291 21.6674 71.6563 23.8767 70.8952 26.31C70.2526 28.3642 69.69 30.5763 69.2038 33.0089ZM59.0656 32.5537V18.6L59 18.6C54.4181 18.6 49.9399 18.8541 45.661 19.3181C46.8547 21.7913 47.8543 24.3799 48.6832 27.2417C49.2061 29.0469 49.6607 30.9594 50.0538 33.0188C52.8863 32.7345 55.9157 32.5724 59.0656 32.5537ZM72.0405 26.6682C72.8249 24.1606 73.7294 21.8972 74.7629 19.754C80.0615 20.5328 85.0143 21.6664 89.429 23.0319C90.0712 23.2305 90.7015 23.4339 91.3193 23.6416C87.8538 26.4561 84.9543 29.4217 82.5925 32.8947C82.0758 33.6545 81.5851 34.438 81.1201 35.2487C79.8987 34.8693 78.5669 34.5252 77.145 34.2194C75.0879 33.7772 72.8234 33.4114 70.402 33.1363C70.8755 30.7854 71.4207 28.6497 72.0405 26.6682ZM47.5306 27.5755C48.0345 29.3155 48.4746 31.1599 48.8569 33.1475C46.4723 33.4214 44.2412 33.7832 42.212 34.2194C40.8594 34.5102 39.5884 34.8358 38.4164 35.1934C38.1509 34.722 37.8754 34.2587 37.5896 33.803C35.0331 29.7265 31.6623 26.2694 27.3042 22.8978C27.7161 22.7753 28.1333 22.6548 28.5557 22.5364C33.2942 21.2079 38.6536 20.1464 44.3962 19.462C45.6462 21.9963 46.6799 24.6389 47.5306 27.5755Z"
        fill="var(--clr-scale-ntrl-70)" />
      <ellipse id="6796:5976" cx="59.5" cy="82" rx="16.5" ry="17" fill="var(--clr-core-ntrl-60)" />
    </g>
  </g>
</svg>