<svg xmlns="http://www.w3.org/2000/svg" fill="none" viewBox="0 0 14 14"><path fill="var(--file-icon-purple, #a855f7)" d="M6.177 1.5q.965 0 1.79.262a4.6 4.6 0 0 1 1.47.762q.383.298.68.676l-2.166.904a2 2 0 0 0-.11-.094 2.3 2.3 0 0 0-.726-.377 2.9 2.9 0 0 0-.885-.131q-.863 0-1.502.413-.64.409-.994 1.192-.352.78-.352 1.893 0 1.145.352 1.924.36.78 1 1.177.64.396 1.48.397.472 0 .874-.121.407-.12.722-.35.079-.06.152-.127l2.133.89q-.24.293-.538.555a4.7 4.7 0 0 1-1.465.846q-.847.309-1.915.309-1.487 0-2.66-.648-1.166-.649-1.844-1.877Q1 8.746 1 7q0-1.752.684-2.98.683-1.23 1.855-1.872Q4.711 1.5 6.177 1.5"/><path fill="var(--file-icon-purple, #a855f7)" d="M10.406 5.322h.947l.106-1.005h1.199l-.106 1.005h1.01l-.124 1.193h-1.011l-.1.942h1.011l-.125 1.192h-1.01l-.106 1.005h-1.2l.106-1.005h-.947L9.95 9.654H8.751l.106-1.005h-1.01l.125-1.192h1.01l.1-.942h-1.01l.125-1.193h1.01l.105-1.005h1.2zm-.225 2.135h.948l.099-.942h-.948z"/></svg>