<svg xmlns="http://www.w3.org/2000/svg" fill="none" viewBox="0 0 14 14"><path fill="var(--file-icon-green, #16a34a)" fill-rule="evenodd" d="M7.051.75a5.6 5.6 0 0 0-3.733 1.435 5.48 5.48 0 0 0-.715 7.373 5.56 5.56 0 0 0 3.39 2.113v1.579c3.327-.498 6.274-3.117 6.494-6.557a5.67 5.67 0 0 0-.61-2.966 5.73 5.73 0 0 0-2.054-2.24 4.6 4.6 0 0 0-.64-.32l-.106-.042c-.098-.036-.196-.076-.297-.106A5.6 5.6 0 0 0 7.05.75M8.2 2.791a.61.61 0 0 0-.53.21q-.137.19-.234.4a1.29 1.29 0 0 0 .17 1.347 1.5 1.5 0 0 0 1.081-.873c.068-.138.104-.289.107-.442A.627.627 0 0 0 8.2 2.79m-2.476.032a.65.65 0 0 0-.42.19.64.64 0 0 0-.185.42c.003.153.04.304.107.442a1.53 1.53 0 0 0 1.113.874 1.39 1.39 0 0 0-.095-1.716.6.6 0 0 0-.52-.21M4.06 4.44a.59.59 0 0 0-.536.407.575.575 0 0 0 .208.637q.19.14.403.242a1.54 1.54 0 0 0 1.432-.136 1.55 1.55 0 0 0-.923-1.043 1.2 1.2 0 0 0-.477-.107 1 1 0 0 0-.107 0m5.232 2.046a1.56 1.56 0 0 0-.88.253 1.55 1.55 0 0 0 .923 1.042c.151.067.315.103.481.106a.6.6 0 0 0 .624-.367.59.59 0 0 0-.193-.693 2.4 2.4 0 0 0-.403-.231 1.5 1.5 0 0 0-.55-.116zm-4.637.032a1.5 1.5 0 0 0-.55.116 1.2 1.2 0 0 0-.404.242.596.596 0 0 0 .467 1.041c.164 0 .327-.037.476-.107a1.43 1.43 0 0 0 .88-1.042 1.53 1.53 0 0 0-.87-.253zm1.72 1.031a1.5 1.5 0 0 0-1.083.874 1 1 0 0 0-.107.43.62.62 0 0 0 .393.596.64.64 0 0 0 .7-.152q.137-.19.234-.4a1.37 1.37 0 0 0-.137-1.347m1.262.031a1.39 1.39 0 0 0 .096 1.716.665.665 0 0 0 1.124-.4 1.1 1.1 0 0 0-.106-.443 1.53 1.53 0 0 0-1.115-.873z" clip-rule="evenodd"/></svg>