<svg xmlns="http://www.w3.org/2000/svg" fill="none" viewBox="0 0 14 14"><path fill="var(--file-icon-red, #ef4444)" d="M2.973.5C2.313.485 1.5.84 1.5.84l2.691 5.637-1.427 6.3c1.303 1.137 2.74.593 2.74.593l.66-4.875a3 3 0 0 0 .262.226c.287.21.598.37.908.493a6.6 6.6 0 0 0 1.59.408 1.6 1.6 0 0 0-.143.716c0 .024.012.049.036.061h.012c.227.124.466.223.729.284.25.05.526.074.789.037.275-.037.55-.148.765-.333s.37-.432.466-.691l.012-.013v-.012l.036-.333v-.013a3 3 0 0 0 .359-.246c.143-.124.274-.26.37-.432.096-.173.155-.383.143-.593a1.6 1.6 0 0 0-.167-.568 2.5 2.5 0 0 0-.31-.481 3.3 3.3 0 0 0-.837-.704 4.2 4.2 0 0 0-.969-.469l-.131-.037-.108-.037c-.071-.024-.131-.061-.191-.086a.75.75 0 0 1-.263-.247c-.12-.185-.132-.469-.072-.765.012-.074.036-.148.06-.222s.048-.148.072-.235a2 2 0 0 0 .032-.249l1.598-1.443c-.124-.475-1.504-.97-1.504-.97l-4.1 3.6L3.244.534a1.4 1.4 0 0 0-.27-.032m5.891 4.132q-.036.2-.035.41c.012.21.072.445.203.642.132.198.31.346.49.432q.132.069.275.111l.144.037.12.025c.31.087.609.21.884.37s.538.358.753.58c.215.223.382.507.406.79a.9.9 0 0 1-.072.47c-.06.135-.155.259-.262.37-.048.05-.108.098-.156.136a1.6 1.6 0 0 0-.084-.506c-.023-.05-.047-.112-.107-.149-.012 0-.024 0-.024.013a1.16 1.16 0 0 1-.323.456.8.8 0 0 1-.466.173 1.6 1.6 0 0 1-.526-.074q-.269-.077-.538-.173l-.024-.012a.11.11 0 0 0-.107.025c-.096.123-.168.234-.251.358a3 3 0 0 0-.156.284c-.215-.087-.418-.16-.633-.247-.3-.124-.598-.247-.873-.395a4.4 4.4 0 0 1-.8-.482 2.2 2.2 0 0 1-.449-.434l.132-.97z"/></svg>