<svg xmlns="http://www.w3.org/2000/svg" fill="none" viewBox="0 0 14 14"><path fill="var(--file-icon-yellow, #eab308)" d="M4.203 2.713h1.7V8.48q0 .8-.353 1.39a2.35 2.35 0 0 1-.974.908q-.623.32-1.45.319-.735 0-1.335-.262a2.14 2.14 0 0 1-.945-.808Q.496 9.48.5 8.657h1.712q.009.327.132.561.127.23.345.356.223.12.525.12.318 0 .536-.137a.9.9 0 0 0 .338-.411 1.7 1.7 0 0 0 .115-.667zm7.537 2.378q-.047-.487-.41-.759-.361-.27-.98-.27-.421 0-.712.12a1 1 0 0 0-.445.328.8.8 0 0 0-.15.476.7.7 0 0 0 .09.388q.104.165.283.287.179.117.413.206.234.084.5.145l.731.178q.533.12.978.323.445.201.77.497.327.294.505.694.183.4.187.917-.005.76-.381 1.316-.375.554-1.081.86-.703.303-1.697.303-.985 0-1.716-.307a2.5 2.5 0 0 1-1.136-.908q-.405-.606-.425-1.499h1.664q.028.417.235.695.21.275.56.416.354.137.799.137.436 0 .758-.129.327-.129.505-.36a.84.84 0 0 0 .179-.528.7.7 0 0 0-.163-.469 1.2 1.2 0 0 0-.469-.323 5 5 0 0 0-.75-.242l-.887-.226q-1.03-.255-1.625-.796-.596-.54-.592-1.457a2.2 2.2 0 0 1 .393-1.313 2.66 2.66 0 0 1 1.101-.876q.699-.315 1.59-.315.905 0 1.58.315.68.315 1.057.876.378.561.39 1.3h-1.65Z"/></svg>