<svg xmlns="http://www.w3.org/2000/svg" fill="none" viewBox="0 0 14 14"><path stroke="var(--file-icon-orange, #f5700b)" stroke-width="2" d="M3.517 8c1.119 0 2.016.9 2.016 2s-.897 2-2.016 2c-1.12 0-2.017-.9-2.017-2s.898-2 2.017-2Z"/><path stroke="var(--file-icon-green, #16a34a)" stroke-width="2" d="M7 2c1.119 0 2.017.9 2.017 2S8.119 6 7 6c-1.12 0-2.017-.9-2.017-2S5.881 2 7 2Z"/><path stroke="var(--file-icon-purple, #a855f7)" stroke-width="2" d="M10.483 8c1.12 0 2.017.9 2.017 2s-.898 2-2.017 2-2.016-.9-2.016-2 .897-2 2.016-2Z"/></svg>