<svg xmlns="http://www.w3.org/2000/svg" fill="none" viewBox="0 0 14 14"><path fill="var(--file-icon-yellow, #eab308)" d="M11.356 4.458c.794 0 1.257.58 1.452 1.396.261 1.096.25 1.752 0 2.802-.217.915-.912 1.397-1.706 1.397H7.347v.35h2.73v1.05c0 .796-.21 1.228-1.365 1.434A8 8 0 0 1 7.407 13a8.4 8.4 0 0 1-1.423-.113c-.74-.125-1.366-.686-1.366-1.432V8.83c0-.77.607-1.4 1.366-1.4h2.728c.926 0 1.706-.804 1.706-1.714V4.458zm-2.76 6.637a.63.63 0 0 0-.628.635c0 .35.281.635.629.635.347 0 .63-.284.63-.635a.633.633 0 0 0-.63-.635"/><path fill="var(--file-icon-blue, #0ea5e9)" fill-rule="evenodd" d="M5.289 1.113A8 8 0 0 1 6.593 1c.467-.002.954.033 1.423.112.741.126 1.366.686 1.366 1.433V5.17c0 .77-.607 1.4-1.366 1.4H5.288c-.926 0-1.706.803-1.706 1.713v1.26h-.938c-.794 0-1.258-.582-1.452-1.398-.262-1.096-.25-1.752 0-2.801.217-.916.913-1.397 1.706-1.397h3.755v-.35h-2.73V2.545c0-.796.21-1.227 1.366-1.433m.114 1.792a.63.63 0 0 0 .63-.635.63.63 0 0 0-.63-.635.63.63 0 0 0-.629.635c0 .35.282.635.63.635" clip-rule="evenodd"/></svg>