<svg xmlns="http://www.w3.org/2000/svg" fill="none" viewBox="0 0 14 14"><path fill="var(--file-icon-red, #ef4444)" d="M12.592 1.88a2.2 2.2 0 0 0-.474-.472C11.558 1 10.757 1 9.155 1H4.842C3.241 1 2.44 1 1.88 1.408q-.274.198-.472.472C1 2.44 1 3.24 1 4.844v4.311c0 1.602 0 2.402.408 2.963q.199.273.472.474C2.44 13 3.24 13 4.842 13h4.313c1.602 0 2.402 0 2.963-.408q.272-.201.473-.474c.409-.56.409-1.361.409-2.963v-4.31c0-1.604 0-2.405-.409-2.965M6.557 9.162c0 .375 0 .565-.06.713a.8.8 0 0 1-.437.437c-.148.06-.336.06-.713.06s-.566 0-.714-.06a.8.8 0 0 1-.436-.437c-.061-.148-.061-.338-.061-.713V5.205c0-.454 0-.681.087-.853a.8.8 0 0 1 .354-.354c.171-.087.399-.087.85-.087h1.13zm2.575-2.354a1.425 1.425 0 1 1 .002 0z"/></svg>