<svg xmlns="http://www.w3.org/2000/svg" width="160" height="28" viewBox="0 0 160 28" fill="none">
  <g clip-path="url(#clip0_21_215507)">
    <g opacity="0.7">
      <path fill-rule="evenodd" clip-rule="evenodd"
        d="M13.25 13.25V9H14.75V13.25H19V14.75H14.75V19H13.25V14.75H9V13.25H13.25Z"
        fill="var(--clr-btn-ntrl-outline-text)" />
    </g>
    <text fill="var(--clr-btn-ntrl-outline-text)" xml:space="preserve" style="white-space: pre"
      font-family="Inter" font-size="12" font-weight="500" letter-spacing="0em">
      <tspan x="27" y="18.3636">New branch</tspan>
    </text>
    <text opacity="0.5" fill="var(--clr-btn-ntrl-outline-text)" xml:space="preserve"
      style="white-space: pre" font-family="Inter" font-size="12" font-weight="500"
      letter-spacing="0em">
      <tspan x="102" y="18.3636">⌘B</tspan>
    </text>
    <path opacity="0.4"
      d="M6 0.5H122C125.038 0.5 127.5 2.96243 127.5 6V22C127.5 25.0376 125.038 27.5 122 27.5H6C2.96243 27.5 0.5 25.0376 0.5 22V6C0.5 2.96243 2.96243 0.5 6 0.5Z"
      stroke="var(--clr-btn-ntrl-outline)" />
  </g>
  <g clip-path="url(#clip1_21_215507)">
    <g opacity="0.7" clip-path="url(#clip2_21_215507)">
      <path
        d="M144.812 8.61608C145.055 7.88692 146.087 7.88692 146.33 8.61608L147.095 10.911C147.375 11.7504 148.01 12.4213 148.826 12.7479L148.992 12.8085L151.288 13.5731C152.016 13.8165 152.016 14.8472 151.288 15.0907L148.992 15.8563L148.826 15.9169C148.01 16.2434 147.375 16.9135 147.095 17.7528L146.33 20.0487C146.102 20.7319 145.182 20.7745 144.867 20.1766L144.812 20.0487L144.047 17.7528C143.748 16.8575 143.046 16.1549 142.15 15.8563L139.855 15.0907L139.727 15.037C139.129 14.7225 139.172 13.8012 139.855 13.5731L142.15 12.8085C142.99 12.5285 143.659 11.8931 143.986 11.077L144.047 10.911L144.812 8.61608ZM145.47 11.3856C145.023 12.729 143.968 13.7834 142.625 14.2313L142.322 14.3319L142.625 14.4335C143.968 14.8814 145.023 15.9358 145.47 17.2792L145.571 17.5809L145.672 17.2792C146.12 15.9358 147.174 14.8815 148.517 14.4335L148.82 14.3319L148.517 14.2313C147.174 13.7833 146.12 12.7289 145.672 11.3856L145.571 11.0829L145.47 11.3856ZM151.752 8.25084H154.002V9.75084H151.752V12.0008H150.252V9.75084L148.002 9.75084V8.25084L150.252 8.25084V5.99987H151.752V8.25084Z"
        fill="var(--clr-btn-ntrl-outline-text)" />
    </g>
    <path opacity="0.4"
      d="M138 0.5H154C157.038 0.5 159.5 2.96243 159.5 6V22C159.5 25.0376 157.038 27.5 154 27.5H138C134.962 27.5 132.5 25.0376 132.5 22V6C132.5 2.96243 134.962 0.5 138 0.5Z"
      stroke="var(--clr-btn-ntrl-outline)" />
  </g>
  <defs>
    <clipPath>
      <path
        d="M0 6C0 2.68629 2.68629 0 6 0H122C125.314 0 128 2.68629 128 6V22C128 25.3137 125.314 28 122 28H6C2.68629 28 0 25.3137 0 22V6Z"
        fill="white" />
    </clipPath>
    <clipPath>
      <path
        d="M132 6C132 2.68629 134.686 0 138 0H154C157.314 0 160 2.68629 160 6V22C160 25.3137 157.314 28 154 28H138C134.686 28 132 25.3137 132 22V6Z"
        fill="white" />
    </clipPath>
    <clipPath>
      <rect width="16" height="16" fill="white" transform="translate(138 6)" />
    </clipPath>
  </defs>
</svg>