<svg width="23" height="22" viewBox="0 0 23 22" fill="none" xmlns="http://www.w3.org/2000/svg">
  <path
    d="M22.8613 12.0797C22.7843 13.8048 21.8248 15.2951 20.4258 16.1198C20.1174 19.1655 17.6985 21.269 14.751 21.4772C12.922 21.6064 11.089 21.5221 9.25781 21.5221C5.84664 21.4676 2.80245 19.6804 2.43945 16.1198C0.980489 15.2594 0.000113869 13.6743 0 11.8551C3.71092e-08 9.93328 1.09328 8.2725 2.68945 7.45181C3.21085 5.71155 4.71935 4.20514 6.4668 3.68619C7.19675 2.28793 8.56393 1.2795 10.1943 1.04849C10.9889 0.936 11.8725 0.935319 12.6719 1.04849C14.3026 1.27962 15.6672 2.28848 16.3965 3.68521C18.1568 4.20742 19.6482 5.69151 20.1768 7.45279C21.7726 8.27323 22.8662 9.93299 22.8662 11.8551L22.8613 12.0797Z"
    fill="var(--clr-bg-1)" />
  <path
    d="M11.4326 3C11.9319 3 12.1823 2.99964 12.3916 3.0293C13.6651 3.20979 14.6725 4.18112 14.9131 5.43359C15.5045 5.4943 15.9569 5.606 16.3525 5.81152C17.083 6.19103 17.6791 6.78707 18.0586 7.51758C18.2634 7.91208 18.3737 8.36315 18.4346 8.95215C19.8165 9.19804 20.8662 10.4029 20.8662 11.8555C20.8661 13.286 19.848 14.4775 18.4971 14.748C18.4719 15.981 18.3832 16.7479 18.0586 17.373L17.9062 17.6406C17.528 18.2493 16.9918 18.747 16.3525 19.0791L16.1865 19.1582C15.3387 19.5293 14.204 19.5293 12.0684 19.5293H10.7988L9.29004 19.5225C8.07829 19.5031 7.30238 19.4303 6.68066 19.1582L6.51465 19.0791C5.78414 18.6996 5.1881 18.1035 4.80859 17.373C4.48397 16.7479 4.39343 15.9811 4.36816 14.748C3.01766 14.4771 2.00009 13.2857 2 11.8555C2 10.4022 3.05066 9.19622 4.43359 8.95117C4.4861 8.44359 4.57428 8.03836 4.72949 7.68359L4.80859 7.51758C5.14065 6.87834 5.63846 6.34211 6.24707 5.96387L6.51465 5.81152C6.90964 5.60638 7.36123 5.49541 7.95117 5.43457C8.19137 4.18144 9.20064 3.2098 10.4746 3.0293C10.6839 2.99965 10.9336 3 11.4326 3ZM10.7988 6.86133C9.63467 6.86133 8.85236 6.86217 8.25098 6.91211C7.66804 6.96055 7.38969 7.04722 7.20605 7.14258C6.7495 7.37977 6.37682 7.75241 6.13965 8.20898C6.04433 8.39263 5.95761 8.67118 5.90918 9.25391C5.88423 9.55444 5.87178 9.90067 5.86523 10.3164L5.8584 11.8018V13.0898C5.8584 14.2537 5.85925 15.0354 5.90918 15.6367C5.95761 16.2195 6.04432 16.498 6.13965 16.6816C6.37684 17.1382 6.74952 17.5109 7.20605 17.748C7.38969 17.8434 7.66808 17.9301 8.25098 17.9785C8.85236 18.0285 9.63468 18.0293 10.7988 18.0293H12.0684C13.2324 18.0293 14.0139 18.0284 14.6152 17.9785C15.1985 17.9301 15.4774 17.8434 15.6611 17.748C16.1176 17.5109 16.4894 17.1381 16.7266 16.6816C16.8219 16.498 16.9086 16.2197 16.957 15.6367C17.007 15.0354 17.0088 14.2537 17.0088 13.0898V11.8018C17.0088 10.6378 17.007 9.85525 16.957 9.25391C16.9086 8.67104 16.8219 8.39262 16.7266 8.20898C16.4894 7.75249 16.1176 7.37975 15.6611 7.14258C15.4775 7.04716 15.1986 6.96056 14.6152 6.91211C14.0139 6.86218 13.2324 6.86133 12.0684 6.86133H10.7988ZM13.8174 13.5664C14.1641 13.4102 14.58 13.5397 14.7744 13.876C14.9814 14.2345 14.8585 14.6932 14.5 14.9004L14.1143 15.1074C12.3074 16.0029 10.395 15.9312 8.71973 15.0918L8.36523 14.9004L8.30078 14.8584C7.99256 14.636 7.89668 14.2122 8.09082 13.876C8.28509 13.5399 8.70032 13.4107 9.04688 13.5664L9.11523 13.6016L9.38672 13.748C10.7538 14.4354 12.2883 14.4459 13.749 13.6016L13.8174 13.5664ZM9.07422 9.8252C9.7254 9.8252 10.2538 10.3539 10.2539 11.0059C10.2539 11.6579 9.72546 12.1865 9.07422 12.1865C8.42319 12.1863 7.89551 11.6578 7.89551 11.0059C7.8956 10.354 8.42325 9.82544 9.07422 9.8252ZM13.791 9.8252C14.4422 9.8252 14.9706 10.3539 14.9707 11.0059C14.9707 11.6579 14.4423 12.1865 13.791 12.1865C13.14 12.1863 12.6123 11.6578 12.6123 11.0059C12.6124 10.354 13.14 9.82544 13.791 9.8252Z"
    fill="var(--clr-text-1)" />
</svg>