<svg width="53" height="50" viewBox="0 0 53 50" fill="none" xmlns="http://www.w3.org/2000/svg">
<path d="M24.4338 4.25182C24.4338 4.25182 25.4835 3.35054 26.5554 2.49057C27.6273 1.63061 28.2247 0.430316 28.2247 0.430316L31.4607 2.46388C31.4607 2.46388 30.2566 3.96792 29.5787 4.58709C29.29 4.85074 28.7425 5.48883 28.7425 5.48883C28.7425 5.48883 27.4053 4.78349 26.684 4.57588C25.9557 4.36628 24.4338 4.25182 24.4338 4.25182Z" fill="white" stroke="black" stroke-width="0.6"/>
<path d="M27.5033 3.97573C27.5033 3.97573 28.1426 3.38571 28.4227 3.05434C28.7113 2.71287 29.2011 1.96199 29.2011 1.96199" fill="white"/>
<path d="M27.5033 3.97573C27.5033 3.97573 28.1426 3.38571 28.4227 3.05434C28.7113 2.71287 29.2011 1.96199 29.2011 1.96199" stroke="#FF0000" stroke-width="0.6"/>
<path d="M13.5849 8.66153C13.5849 8.66153 13.7459 6.96606 14.2147 6.29961C14.7612 5.52269 15.6912 4.88247 16.558 4.678C18.9039 4.12457 22.0308 4.52014 22.0308 4.52014C22.0308 4.52014 19.4055 4.91688 18.1817 5.40139C17.7523 5.5714 16.9855 6.10048 16.9855 6.10048C16.9855 6.10048 15.617 6.34717 14.5613 7.45901C13.5056 8.57084 14.4082 8.32823 14.4082 8.32823" fill="white"/>
<path d="M13.5849 8.66153C13.5849 8.66153 13.7459 6.96606 14.2147 6.29961C14.7612 5.52269 15.6912 4.88247 16.558 4.678C18.9039 4.12457 22.0308 4.52014 22.0308 4.52014C22.0308 4.52014 19.4055 4.91688 18.1817 5.40139C17.7523 5.5714 16.9855 6.10048 16.9855 6.10048C16.9855 6.10048 15.617 6.34717 14.5613 7.45901C13.5056 8.57084 14.4082 8.32823 14.4082 8.32823" stroke="black" stroke-width="0.6"/>
<path d="M22.6081 21.3231L21.1637 23.6772C21.1637 23.6772 19.711 23.4204 17.7706 24.5404C15.8302 25.6604 14.705 27.2236 14.705 27.2236L15.3708 27.0697C15.3708 27.0697 16.9647 25.6131 17.9167 25.2582C18.8688 24.9033 19.9049 24.7589 19.9049 24.7589C19.9049 24.7589 17.8348 25.8929 17.4109 26.1509C16.9063 26.458 16.2211 27.1012 16.2211 27.1012L17.1134 26.962C18.5465 26.1499 20.4716 25.1437 22.0761 25.0242C23.4212 24.9512 25.1594 26.0876 25.1594 26.0876L24.7246 25.2752C24.7246 25.2752 23.7098 24.6925 23.1745 24.2779C22.6392 23.8634 24.3972 21.8798 24.3972 21.8798C23.1431 21.7929 24.1299 21.2239 22.6081 21.3231Z" fill="#FFFF00" stroke="black" stroke-width="0.6"/>
<path d="M28.4722 23.0435L27.5001 26.0409C27.5001 26.0409 26.2408 26.0084 24.174 26.8731C22.1071 27.7378 20.5488 29.0752 20.5488 29.0752L21.4722 29.1161C21.4722 29.1161 23.0377 27.9514 23.9265 27.5711C24.5647 27.2981 25.9459 27.0625 25.9459 27.0625C25.9459 27.0625 24.286 27.8543 23.4951 28.3211C23.0582 28.5789 22.2322 29.1702 22.2322 29.1702L23.1753 29.1829C23.1753 29.1829 25.7011 27.8315 27.0825 27.5267C28.0212 27.3195 28.0618 27.1449 29.9648 27.4303C30.8548 27.5638 31.434 27.7866 31.434 27.7866L31.0871 27.3209C31.0871 27.3209 30.5766 26.9887 30.3083 26.8456C29.973 26.6669 29.273 26.3686 29.273 26.3686L30.2583 23.563C29.0547 23.2004 29.9781 23.2841 28.4722 23.0435Z" fill="#FFFF00" stroke="black" stroke-width="0.6"/>
<path d="M4.80112 13.8758C5.41892 12.0135 6.74006 10.2458 8.42144 9.23444C10.2558 8.1311 12.6849 7.81629 14.7454 8.11846C15.4738 8.59048 15.4402 6.53782 18.4571 5.26486C21.474 3.99192 26.2201 3.71278 30.8558 5.66814C35.8166 7.76062 29.2821 9.50953 31.1912 13.8296C35.1935 23.1865 26.8974 23.1936 26.8974 23.1936C26.8974 23.1936 24.5631 22.0864 23.6886 22.1098C22.8142 22.1332 19.4286 20.4688 17.4905 20.4081C15.5524 20.3473 14.5385 22.4008 8.15142 20.7327C5.9666 20.1621 4.89655 18.2508 4.89655 18.2508C4.89655 18.2508 4.34183 15.2603 4.80112 13.8758Z" fill="#0000FF" stroke="black" stroke-width="0.6"/>
<path d="M9.25896 21.0178C9.25896 21.0178 12.0784 19.9729 13.9876 19.116C15.8968 18.2591 16.6036 14.9835 19.571 14.1677C22.5383 13.3518 25.6696 15.3176 26.9801 17.3446C28.2907 19.3716 31.9158 21.5485 31.9158 21.5485C31.9158 21.5485 32.1229 22.4873 30.9044 23.2564C29.686 24.0255 30.0902 24.0255 30.0902 24.0255C30.0902 24.0255 26.2811 23.5182 24.5239 22.8729C22.7667 22.2277 19.039 21.5684 16.2449 21.2502C13.9299 20.9865 13.2776 21.8467 9.25896 21.0178Z" fill="#FF6600" stroke="black" stroke-width="0.6"/>
<path d="M34.4337 20.6558C34.4337 20.6558 36.697 28.9674 39.028 33.7831C41.359 38.5988 47.6945 48.3579 47.6945 48.3579L49.7507 45.3299L44.0655 36.5219L50.2804 44.0622L52.1158 40.7256C52.1158 40.7256 45.114 33.9293 42.5634 29.7391C40.0128 25.5489 37.697 17.0757 37.697 17.0757L34.4337 20.6558Z" fill="#0000FF" stroke="black" stroke-width="0.6"/>
<path d="M22.9036 5.73141C22.9036 5.73141 19.4776 6.60117 18.4768 9.95467C17.4761 13.3082 24.0692 19.295 25.1025 20.5907C26.1358 21.8864 27.5975 23.624 27.5975 23.624C27.5975 23.624 32.021 25.8442 35.2694 27.3259C38.2806 28.6993 41.2048 29.4476 41.2048 29.4476C41.2048 29.4476 41.2994 29.3927 41.5969 27.7303C40.3248 26.0055 37.7425 23.5945 36.1861 22.4079C38.4149 23.3508 40.197 24.3411 41.9383 26.5887C41.9383 26.5887 42.1297 24.7062 42.165 23.8854C41.8015 23.0998 37.492 19.5657 37.492 19.5657C39.344 20.0914 40.6272 21.1673 42.2601 22.8488C42.2601 22.8488 42.3102 20.9697 42.2301 19.9907C41.9429 19.4569 38.9665 17.3602 38.9665 17.3602C40.1641 17.7845 40.7719 18.0919 42.1695 19.0419C42.1695 19.0419 41.2503 13.885 35.0556 8.59201C28.8609 3.29903 22.9036 5.73141 22.9036 5.73141Z" fill="#000080" stroke="black" stroke-width="0.6"/>
<path d="M16.347 12.8545C16.347 12.8545 13.5472 10.5513 10.8705 11.3094C8.19382 12.0674 7.72238 14.6345 7.90104 15.1436C8.07971 15.6527 9.1882 16.0056 9.97862 16.247C10.769 16.4885 12.7776 15.8533 13.7952 15.1922C14.8127 14.531 16.347 12.8545 16.347 12.8545Z" fill="#FF0000" stroke="black" stroke-width="0.6"/>
<path d="M11.7527 11.5657C12.8452 11.6167 13.6894 12.5437 13.6384 13.6362C13.5873 14.7286 12.6604 15.5729 11.5679 15.5218C10.4754 15.4708 9.63118 14.5438 9.68222 13.4513L11.7527 11.5657Z" fill="#FFFF00" stroke="black" stroke-width="0.6"/>
<path d="M12.1477 13.9403C12.2251 14.549 11.7944 15.1051 11.1858 15.1824C10.5772 15.2598 10.0211 14.8291 9.94372 14.2205C9.86636 13.6119 10.297 13.0558 10.9057 12.9784C11.5143 12.901 12.0704 13.3317 12.1477 13.9403Z" fill="black"/>
<path d="M2.57564 15.928C0.0374595 18.0494 0.496415 21.0639 0.891197 21.4086C1.28598 21.7532 1.59295 21.4071 2.21313 21.1089C2.83331 20.8107 4.34846 19.9601 5.71907 19.6981C7.08967 19.4362 7.56531 19.7267 7.74277 19.397C7.92023 19.0674 7.92355 18.0579 7.72196 17.1622C7.52038 16.2665 7.38318 15.1872 6.84314 15.0803C6.30309 14.9735 3.51853 15.0623 2.57564 15.928Z" fill="#FFFF00" stroke="black" stroke-width="0.6"/>
<path d="M13.8087 8.03647C13.8087 8.03647 15.0756 9.70575 19.9013 10.0851C24.7269 10.4645 30.2323 5.45264 30.2323 5.45264L33.9676 8.33449C33.9676 8.33449 24.5807 11.755 21.3552 11.7616C18.1298 11.7683 13.8475 8.34177 13.8475 8.34177" fill="white"/>
<path d="M13.8087 8.03647C13.8087 8.03647 15.0756 9.70575 19.9013 10.0851C24.7269 10.4645 30.2323 5.45264 30.2323 5.45264L33.9676 8.33449C33.9676 8.33449 24.5807 11.755 21.3552 11.7616C18.1298 11.7683 13.8475 8.34177 13.8475 8.34177" stroke="black" stroke-width="0.6"/>
<path d="M31.2057 6.88088L28.7787 8.43728L29.4231 8.83472L31.832 7.30609L31.2057 6.88088Z" fill="#008000"/>
<path d="M5.89357 11.5796C5.89357 11.5796 5.44374 12.2702 5.26459 12.6401C5.06764 13.0467 4.77857 13.9055 4.77857 13.9055C4.77857 13.9055 8.77956 11.305 10.2285 10.5811C11.7214 9.8352 14.6764 8.12328 14.6764 8.12328C14.6764 8.12328 14.3272 8.00371 14.1452 7.98344C13.8719 7.953 13.3208 8.01282 13.3208 8.01282C13.3208 8.01282 11.1154 8.28241 9.72856 9.00225C8.3417 9.7221 5.89357 11.5796 5.89357 11.5796Z" fill="white" stroke="black" stroke-width="0.6"/>
<path d="M29.4558 6.83388L31.7957 8.51834L31.1309 8.88061L28.8076 7.22484L29.4558 6.83388Z" fill="#008000"/>
</svg>
