<svg viewBox="0 0 106 100" fill="none"
  xmlns="http://www.w3.org/2000/svg">
  <g clip-path="url(#clip0_7233_58282)">
    <path
      d="M0.772292 12.691L24.7964 18.8008C28.1508 19.6539 31.7112 18.8784 34.407 16.7074L54.3619 0.637143L47.5432 25.3345C46.622 28.6709 47.325 32.2463 49.4407 34.9857L64.5928 54.6045L40.5688 48.4947C37.2143 47.6416 33.6539 48.4172 30.9581 50.5881L11.0032 66.6584L17.8219 41.9611C18.7431 38.6246 18.0401 35.0492 15.9244 32.3098L0.772292 12.691Z"
      fill="#FFE89D" />
    <path
      d="M74.6383 76.4988L38.5017 74.2205C33.3417 73.8952 30.7618 73.7325 28.9307 72.4666C27.8555 71.7233 26.9784 70.7282 26.376 69.5681C25.3501 67.5925 25.5128 65.0125 25.8381 59.8526L27.1042 39.7701C27.4295 34.6102 27.5922 32.0302 28.8581 30.1991C29.6014 29.1239 30.5965 28.2469 31.7566 27.6445C33.7322 26.6186 36.3122 26.7812 41.4721 27.1065L63.1048 28.4704C64.3461 28.5487 64.9667 28.5878 65.5148 28.7003C68.2419 29.2598 70.4832 31.1947 71.4348 33.811C71.626 34.3368 71.7553 34.945 72.0139 36.1615L74.1386 46.1577C74.5146 47.9266 74.7025 48.811 75.0582 49.5983C75.5808 50.7556 76.3711 51.7721 77.3637 52.564C78.0391 53.1028 78.861 53.5086 80.5049 54.3202C82.6511 55.3797 83.7243 55.9095 84.536 56.6337C85.8134 57.7733 86.6922 59.2919 87.0439 60.9672C87.2673 62.0319 87.1931 63.2093 87.0446 65.5641C86.829 68.9849 86.7211 70.6954 86.1204 72.0273C85.1734 74.1271 83.3686 75.7179 81.1665 76.3936C79.7696 76.8223 78.0592 76.7145 74.6383 76.4988Z"
      fill="var(--clr-scale-pop-60)" stroke="var(--clr-theme-pop-on-soft)" stroke-width="1.2" />
    <path
      d="M86.4128 23.0329L81.549 40.5004L92.5837 38.6164L99.5665 50.4899L104.564 33.4498L93.6333 34.1027L86.4128 23.0329Z"
      fill="var(--clr-theme-pop-on-soft)" />
    <rect x="31.7954" y="31.8829" width="35.5656" height="35.9047" rx="4"
      transform="rotate(3.16189 31.7954 31.8829)" fill="white" />
    <path
      d="M60.4151 38.7517C68.3091 43.8822 55.7763 58.6149 48.5248 65.3377C38.8028 56.6056 29.4738 41.5028 38.0598 37.3792C43.4254 34.8023 48.0781 41.2863 48.4917 44.9921C49.3792 40.9782 54.4932 34.9028 60.4151 38.7517Z"
      fill="#FFB3B3" />
    <path
      d="M61.5224 48.8505C62.4835 46.7645 63.026 44.7766 62.9213 43.0436L60.6614 42.9049L60.301 48.7755L61.5224 48.8505Z"
      fill="#FF6262" />
    <path
      d="M60.1355 51.4712L60.301 48.7755L54.3895 48.4126L54.0291 54.2833L58.1289 54.535C58.8548 53.5174 59.5319 52.4905 60.1355 51.4712Z"
      fill="#FF6262" />
    <path
      d="M37.2372 37.8425C35.9262 38.7061 35.1623 39.8977 34.847 41.32L37.0156 41.4531L37.2372 37.8425Z"
      fill="#FF6262" />
    <path
      d="M55.0457 37.724C56.6745 37.3007 58.5027 37.5086 60.4151 38.7516C60.5845 38.8616 60.7445 38.9761 60.8953 39.0949L60.6614 42.9049L54.7499 42.5419L54.3895 48.4126L48.4781 48.0497L48.1176 53.9204L54.0291 54.2833L53.6737 60.0714C53.6504 60.0976 53.627 60.1238 53.6036 60.15L47.7572 59.7911L47.4761 64.3696C45.8965 62.872 44.3442 61.2211 42.8956 59.4926L47.7572 59.7911L48.1176 53.9204L42.2062 53.5574L41.9156 58.2911C40.6268 56.6673 39.4412 54.9921 38.4187 53.3249L42.2062 53.5574L42.5666 47.6868L36.6552 47.3238L36.5034 49.7955C36.099 48.9302 35.753 48.0792 35.4743 47.2513L36.6552 47.3238L37.0156 41.4531L42.927 41.8161L43.195 37.4517C45.0837 38.4054 46.6271 40.2548 47.5575 42.1004L42.927 41.8161L42.5666 47.6868L48.4781 48.0497L48.7148 44.1943C48.9293 43.5543 49.2355 42.8847 49.6217 42.2271L54.7499 42.5419L55.0457 37.724Z"
      fill="#FF6262" />
    <path d="M73.7303 86.2023L64.4718 75.858L49.0663 74.8867L36.3383 83.8448L73.7303 86.2023Z"
      stroke="var(--clr-theme-pop-on-soft)" stroke-width="1.2" />
    <path d="M97.4307 77.7516L103.127 90.0011L92.3324 98.1233L86.6359 85.8738L97.4307 77.7516Z"
      fill="#B2C4FF" />
  </g>
  <defs>
    <clipPath id="clip0_7233_58282">
      <rect width="106" height="100" fill="white" />
    </clipPath>
  </defs>
</svg>