<svg width="16" height="16" viewBox="0 0 16 16" fill="none" xmlns="http://www.w3.org/2000/svg">
<g clip-path="url(#clip0_2332_18221)">
<path fill-rule="evenodd" clip-rule="evenodd" d="M4 0C1.79086 0 0 1.79086 0 4V12C0 14.2091 1.79086 16 4 16H6.80957C5.6888 14.8321 5 13.2465 5 11.5C5 7.91015 7.91015 5 11.5 5C13.2465 5 14.8321 5.6888 16 6.80957V4C16 1.79086 14.2091 0 12 0H4Z" fill="#72F5EF"/>
<path fill-rule="evenodd" clip-rule="evenodd" d="M4 3V13L5.01178 11.8945C5.00396 11.764 5 11.6325 5 11.5C5 9.53054 5.8759 7.76567 7.2594 6.57367L4 3ZM10.014 5.17064C10.4913 5.05903 10.9887 5 11.5 5C11.6682 5 11.835 5.00639 12 5.01894V3L10.014 5.17064Z" fill="#0A0A0A"/>
<rect x="7" y="7" width="9" height="9" rx="4.5" fill="#4AB582"/>
<path d="M9.17188 10.8954L11.1719 12.8954L14.1719 9.89539" stroke="white" stroke-width="1.5"/>
</g>
<defs>
<clipPath id="clip0_2332_18221">
<rect width="16" height="16" fill="white"/>
</clipPath>
</defs>
</svg>
