<svg width="16" height="16" viewBox="0 0 16 16" fill="none" xmlns="http://www.w3.org/2000/svg">
<g clip-path="url(#clip0_2332_18212)">
<path fill-rule="evenodd" clip-rule="evenodd" d="M4 0C1.79086 0 0 1.79086 0 4V12C0 14.2091 1.79086 16 4 16H5.37001C5.09671 15.2346 5.12794 14.3514 5.57703 13.5431L8.87752 7.60218C10.0205 5.54476 12.9794 5.54475 14.1225 7.60218L16 10.9817V4C16 1.79086 14.2091 0 12 0H4Z" fill="#72F5EF"/>
<path fill-rule="evenodd" clip-rule="evenodd" d="M4 3V13L7.99372 8.63636L8.18639 8.84622L8.87752 7.60218C9.54228 6.40562 10.8212 5.90495 12 6.1002V3L7.99372 7.37879L4 3Z" fill="#0A0A0A"/>
<path d="M10.6258 8.57348C11.0068 7.88767 11.9932 7.88767 12.3742 8.57348L15.6746 14.5144C16.0449 15.1809 15.563 16 14.8005 16H8.19951C7.43703 16 6.95506 15.1809 7.32536 14.5144L10.6258 8.57348Z" fill="#E89910"/>
<path d="M11.5 11V14.5" stroke="white" stroke-width="1.5"/>
</g>
<defs>
<clipPath id="clip0_2332_18212">
<rect width="16" height="16" fill="white"/>
</clipPath>
</defs>
</svg>
