<svg width="16" height="16" viewBox="0 0 16 16" fill="none" xmlns="http://www.w3.org/2000/svg">
<g clip-path="url(#clip0_1940_37533)">
<path fill-rule="evenodd" clip-rule="evenodd" d="M2 0C0.895431 0 0 0.895431 0 2V14C0 15.1046 0.895431 16 2 16H5.37001C5.09671 15.2346 5.12794 14.3514 5.57703 13.5431L8.87752 7.60218C10.0205 5.54476 12.9794 5.54475 14.1225 7.60218L16 10.9817V2C16 0.895431 15.1046 0 14 0H2Z" fill="#8AEDE8"/>
<path fill-rule="evenodd" clip-rule="evenodd" d="M2 2V14L7.99058 8.76364L8.15343 8.90554L8.87752 7.60218C9.98175 5.61456 12.7808 5.54712 14 7.39989V2L7.99058 7.25455L2 2Z" fill="#1A1614"/>
<path d="M10.6258 8.57348C11.0068 7.88767 11.9932 7.88767 12.3742 8.57348L15.6746 14.5144C16.0449 15.1809 15.563 16 14.8005 16H8.19951C7.43703 16 6.95506 15.1809 7.32536 14.5144L10.6258 8.57348Z" fill="#E89910"/>
<path d="M11.5 11V14.5" stroke="black" stroke-width="1.5"/>
</g>
<defs>
<clipPath id="clip0_1940_37533">
<rect width="16" height="16" fill="white"/>
</clipPath>
</defs>
</svg>
