<svg width="16" height="16" viewBox="0 0 16 16" fill="none" xmlns="http://www.w3.org/2000/svg">
<g clip-path="url(#clip0_1940_37547)">
<path fill-rule="evenodd" clip-rule="evenodd" d="M2 0C0.895431 0 0 0.895431 0 2V14C0 15.1046 0.895431 16 2 16H8.25716C7.47182 15.0491 7 13.8296 7 12.5C7 9.46243 9.46243 7 12.5 7C13.8296 7 15.0491 7.47182 16 8.25716V2C16 0.895431 15.1046 0 14 0H2Z" fill="#8AEDE8"/>
<path fill-rule="evenodd" clip-rule="evenodd" d="M2 2V14L7.99058 8.76364L8.25912 8.99763C9.26793 7.77749 10.7932 7 12.5 7C13.02 7 13.5232 7.07217 14 7.20703V2L7.99058 7.25455L2 2Z" fill="#1A1614"/>
<path fill-rule="evenodd" clip-rule="evenodd" d="M12.5 9C10.567 9 9 10.567 9 12.5C9 14.433 10.567 16 12.5 16C14.433 16 16 14.433 16 12.5C16 10.567 14.433 9 12.5 9ZM12.5 11C11.6716 11 11 11.6716 11 12.5C11 13.3284 11.6716 14 12.5 14C13.3284 14 14 13.3284 14 12.5C14 11.6716 13.3284 11 12.5 11Z" fill="#B8B7B6"/>
</g>
<defs>
<clipPath id="clip0_1940_37547">
<rect width="16" height="16" fill="white"/>
</clipPath>
</defs>
</svg>
