<svg width="16" height="16" viewBox="0 0 16 16" fill="none" xmlns="http://www.w3.org/2000/svg">
<g clip-path="url(#clip0_2332_18241)">
<path fill-rule="evenodd" clip-rule="evenodd" d="M4 0C1.79086 0 0 1.79086 0 4V12C0 14.2091 1.79086 16 4 16H8.25716C7.47182 15.0491 7 13.8296 7 12.5C7 9.46243 9.46243 7 12.5 7C13.8296 7 15.0491 7.47182 16 8.25716V4C16 1.79086 14.2091 0 12 0H4Z" fill="#72F5EF"/>
<path fill-rule="evenodd" clip-rule="evenodd" d="M4 3V13L7.99372 8.63636L8.29068 8.95981C9.19892 7.88102 10.5143 7.15631 12 7.02242V3L7.99372 7.37879L4 3Z" fill="#0A0A0A"/>
<path fill-rule="evenodd" clip-rule="evenodd" d="M12.5 9C10.567 9 9 10.567 9 12.5C9 14.433 10.567 16 12.5 16C14.433 16 16 14.433 16 12.5C16 10.567 14.433 9 12.5 9ZM12.5 11C11.6716 11 11 11.6716 11 12.5C11 13.3284 11.6716 14 12.5 14C13.3284 14 14 13.3284 14 12.5C14 11.6716 13.3284 11 12.5 11Z" fill="#A4A3A2"/>
</g>
<defs>
<clipPath id="clip0_2332_18241">
<rect width="16" height="16" fill="white"/>
</clipPath>
</defs>
</svg>
