<svg width="16" height="16" viewBox="0 0 16 16" fill="none" xmlns="http://www.w3.org/2000/svg">
<g clip-path="url(#clip0_1940_37547)">
<path fill-rule="evenodd" clip-rule="evenodd" d="M2 0C0.895431 0 0 0.895431 0 2V14C0 15.1046 0.895431 16 2 16H8.25716C7.47182 15.0491 7 13.8296 7 12.5C7 9.46243 9.46243 7 12.5 7C13.8296 7 15.0491 7.47182 16 8.25716V2C16 0.895431 15.1046 0 14 0H2Z" fill="#8AEDE8"/>
<path fill-rule="evenodd" clip-rule="evenodd" d="M3 2V14L7.99215 8.76364L8.23916 9.02191C9.24775 7.78782 10.7819 7 12.5 7C12.6685 7 12.8353 7.00758 13 7.02242V2L7.99215 7.25455L3 2Z" fill="#1A1614"/>
<path d="M9 12.5C9 10.567 10.567 9 12.5 9C14.433 9 16 10.567 16 12.5C16 14.433 14.433 16 12.5 16C10.567 16 9 14.433 9 12.5Z" fill="#B8B7B6"/>
</g>
<defs>
<clipPath id="clip0_1940_37547">
<rect width="16" height="16" fill="white"/>
</clipPath>
</defs>
</svg>
