<svg width="100%" height="100%" viewBox="0 0 16 16" fill="none" xmlns="http://www.w3.org/2000/svg"><path d="M4.28684 2.2907C3.18227 2.2907 2.28684 3.18613 2.28684 4.2907L2.28683 11.7193C2.28683 12.8238 3.18227 13.7193 4.28683 13.7193H11.7154C12.82 13.7193 13.7154 12.8238 13.7154 11.7193V4.2907C13.7154 3.18613 12.82 2.2907 11.7154 2.2907L4.28684 2.2907Z" stroke="currentColor" stroke-width="1.5" vector-effect="non-scaling-stroke"/><path d="M5.71582 9.13913C5.71594 10.4013 6.73875 11.4242 8.00098 11.4243C9.18449 11.4243 10.1584 10.5252 10.2754 9.37253L10.2871 9.13913L13.7158 9.13913V11.7104C13.7158 12.815 12.8204 13.7104 11.7158 13.7104H4.28711C3.18254 13.7104 2.28711 12.815 2.28711 11.7104L2.28711 9.13913L5.71582 9.13913Z" fill="currentColor" vector-effect="non-scaling-stroke"/></svg>