<svg width="100%" height="100%" viewBox="0 0 16 16" fill="none" xmlns="http://www.w3.org/2000/svg"><path d="M5 12H4C2.89543 12 2 11.1046 2 10V7C2 5.89543 2.89543 5 4 5H9C10.1046 5 11 5.89543 11 7V9" stroke="currentColor" stroke-width="1.5" vector-effect="non-scaling-stroke"/><path d="M5 11C5 9.89543 5.89543 9 7 9H13C14.1046 9 15 9.89543 15 11V13C15 14.1046 14.1046 15 13 15H7C5.89543 15 5 14.1046 5 13V11Z" stroke="currentColor" stroke-width="1.5" vector-effect="non-scaling-stroke"/><circle cx="7.85714" cy="11.8571" r="0.857143" fill="currentColor" vector-effect="non-scaling-stroke"/><circle cx="10" cy="11.8571" r="0.857143" fill="currentColor" vector-effect="non-scaling-stroke"/><circle cx="12.1428" cy="11.8571" r="0.857143" fill="currentColor" vector-effect="non-scaling-stroke"/><path d="M9.5 5V4C9.5 2.34315 8.15685 1 6.5 1C4.84315 1 3.5 2.34315 3.5 4V5" stroke="currentColor" stroke-width="1.5" vector-effect="non-scaling-stroke"/></svg>