<svg width="100%" height="100%" viewBox="0 0 16 16" fill="none" xmlns="http://www.w3.org/2000/svg"><path d="M14.75 5V11C14.75 12.1046 13.8546 13 12.75 13H3.25C2.14543 13 1.25 12.1046 1.25 11V5C1.25 3.89543 2.14543 3 3.25 3H12.75C13.8546 3 14.75 3.89543 14.75 5Z" stroke="currentColor" stroke-width="1.5" vector-effect="non-scaling-stroke"/><path d="M9 10.5L10.0005 9.24939C10.5848 8.51895 10.5848 7.48105 10.0005 6.75061L9 5.5" stroke="currentColor" stroke-width="1.5" vector-effect="non-scaling-stroke"/><path d="M6.75 3V13H3.25C2.14543 13 1.25 12.1046 1.25 11V5C1.25 3.89543 2.14543 3 3.25 3H6.75Z" fill="currentColor" vector-effect="non-scaling-stroke"/></svg>