<svg width="100%" height="100%" viewBox="0 0 16 16" fill="none" xmlns="http://www.w3.org/2000/svg"><path d="M14.5 4.5V11.5C14.5 12.6046 13.6046 13.5 12.5 13.5H3.5C2.39543 13.5 1.5 12.6046 1.5 11.5V4.5C1.5 3.39543 2.39543 2.5 3.5 2.5H12.5C13.6046 2.5 14.5 3.39543 14.5 4.5Z" stroke="currentColor" stroke-width="1.5" vector-effect="non-scaling-stroke"/><path d="M9 10.5L10.0005 9.24939C10.5848 8.51895 10.5848 7.48105 10.0005 6.75061L9 5.5" stroke="currentColor" stroke-width="1.5" vector-effect="non-scaling-stroke"/><path d="M1.5 4.5C1.5 3.39543 2.39543 2.5 3.5 2.5H6V13.5H3.5C2.39543 13.5 1.5 12.6046 1.5 11.5V4.5Z" fill="currentColor" vector-effect="non-scaling-stroke"/></svg>