<svg width="100%" height="100%" viewBox="0 0 16 16" fill="none" xmlns="http://www.w3.org/2000/svg"><path d="M14.75 5V11C14.75 12.1046 13.8546 13 12.75 13H3.25C2.14543 13 1.25 12.1046 1.25 11V5C1.25 3.89543 2.14543 3 3.25 3H12.75C13.8546 3 14.75 3.89543 14.75 5Z" stroke="currentColor" stroke-width="1.5" vector-effect="non-scaling-stroke"/><path d="M4.56131 8L11.4388 8" stroke="currentColor" stroke-width="1.5" vector-effect="non-scaling-stroke"/><path d="M6.00003 5.5L4.99954 6.75061C4.41519 7.48105 4.41519 8.51895 4.99954 9.24939L6.00003 10.5" stroke="currentColor" stroke-width="1.5" vector-effect="non-scaling-stroke"/><path d="M10 5.5L11.0005 6.75061C11.5848 7.48105 11.5848 8.51895 11.0005 9.24939L10 10.5" stroke="currentColor" stroke-width="1.5" vector-effect="non-scaling-stroke"/></svg>