<svg width="100%" height="100%" viewBox="0 0 16 16" fill="none" xmlns="http://www.w3.org/2000/svg"><path d="M14.75 5V11C14.75 12.1046 13.8546 13 12.75 13H3.25C2.14543 13 1.25 12.1046 1.25 11V5C1.25 3.89543 2.14543 3 3.25 3H12.75C13.8546 3 14.75 3.89543 14.75 5Z" stroke="currentColor" stroke-width="1.5" vector-effect="non-scaling-stroke"/><path d="M3 7.99999L6.43875 7.99999" stroke="currentColor" stroke-width="1.5" vector-effect="non-scaling-stroke"/><path d="M9.56128 7.99999L13 7.99999" stroke="currentColor" stroke-width="1.5" vector-effect="non-scaling-stroke"/><path d="M5 10.5L6.00049 9.24938C6.58484 8.51894 6.58484 7.48103 6.00049 6.75059L5 5.49998" stroke="currentColor" stroke-width="1.5" vector-effect="non-scaling-stroke"/><path d="M11 5.49998L9.99954 6.75059C9.41519 7.48103 9.41519 8.51894 9.99954 9.24937L11 10.5" stroke="currentColor" stroke-width="1.5" vector-effect="non-scaling-stroke"/></svg>