<svg width="100%" height="100%" viewBox="0 0 400 400" fill="none" xmlns="http://www.w3.org/2000/svg">
<g clip-path="url(#clip0_5582_984)">
<ellipse opacity="0.12" cx="197.1" cy="378.851" rx="161.9" ry="9.93566" fill="var(--clr-illustration-outline)"/>
<path d="M126.252 377.393C168.468 301.09 164.046 274.441 209.146 215.181L202.067 212.821L201.116 213.826C168.14 248.675 146.186 271.875 119.114 309.241C86.1007 298.996 64.7785 291.516 29.5318 311.413L126.252 377.393Z" fill="var(--clr-illustration-fill)" stroke="var(--clr-illustration-outline)" stroke-width="1.2"/>
<path d="M191.602 269.721L221.699 215.426L209.042 214.371C168.11 265.091 164.315 288.421 180.302 329.163C137.824 334.932 115.825 350.504 105.15 379.439H236.993C221.699 340.1 191.602 269.721 191.602 269.721Z" fill="var(--clr-illustration-fill)" stroke="var(--clr-illustration-outline)" stroke-width="1.2"/>
<ellipse cx="69.8588" cy="124.443" rx="60.1291" ry="38.3491" transform="rotate(-20.5917 69.8588 124.443)" fill="var(--clr-illustration-fill)" stroke="var(--clr-illustration-outline)" stroke-width="1.2"/>
<ellipse cx="69.8588" cy="124.442" rx="45.3603" ry="38.3491" transform="rotate(-20.5917 69.8588 124.442)" stroke="var(--clr-illustration-outline)" stroke-width="1.2"/>
<ellipse cx="69.8588" cy="124.443" rx="22.1998" ry="38.3491" transform="rotate(-20.5917 69.8588 124.443)" stroke="var(--clr-illustration-outline)" stroke-width="1.2"/>
<path d="M88.303 82.7295C85.7836 93.252 75.5921 103.768 61.2151 109.257C47.7691 114.391 34.1221 113.806 25.138 108.665" stroke="var(--clr-illustration-outline)" stroke-width="1.2"/>
<path d="M47.3058 165.728C49.5763 155.149 59.5171 144.396 73.7606 138.569C87.0819 133.12 100.739 133.383 109.842 138.311" stroke="var(--clr-illustration-outline)" stroke-width="1.2"/>
<path d="M55.2711 88.9062L84.3924 159.773" stroke="var(--clr-illustration-outline)" stroke-width="1.2"/>
<path d="M125.285 101.157L13.7115 145.646" stroke="var(--clr-illustration-outline)" stroke-width="1.2"/>
<path d="M114.261 146.292C115.292 153.173 112.466 161.545 105.47 171.281C110.896 174.143 108.565 182.363 97.9657 187.742C83.9984 194.83 75.9429 188.642 75.0257 181.256C64.9126 183.372 58.5535 171.664 58.5535 166.051C67.1935 165.194 75.0257 163.22 80.563 160.847C84.8345 153.095 90.6054 148.797 97.25 145C73.375 139.375 74.0765 126.042 83.2525 121.928C92.4284 117.815 112.485 134.44 114.261 146.292Z" fill="var(--clr-illustration-fill)"/>
<path d="M105.47 171.281C112.466 161.545 115.292 153.173 114.261 146.292C112.485 134.44 92.4284 117.815 83.2525 121.928C74.0765 126.042 73.375 139.375 97.25 145C90.6054 148.797 84.8345 153.095 80.563 160.847M105.47 171.281C110.896 174.143 108.565 182.363 97.9657 187.742C83.9984 194.83 75.9429 188.642 75.0257 181.256C64.9126 183.372 58.5535 171.664 58.5535 166.051C67.1935 165.194 75.0257 163.22 80.563 160.847M105.47 171.281C102.758 170.282 95.7508 169.264 89.4225 173.187M80.563 160.847L78.3481 165.668" stroke="var(--clr-illustration-outline)" stroke-width="1.2"/>
<path d="M111.657 231.045L113.605 225.37L111.657 231.045ZM98.1226 182.467C96.9595 179.364 93.5012 177.792 90.3983 178.955C87.2955 180.118 85.7229 183.576 86.886 186.679L98.1226 182.467ZM149.48 201.227C140.291 211.791 131.984 218.353 125.418 221.965C122.133 223.771 119.396 224.778 117.289 225.229C115.116 225.695 113.975 225.497 113.605 225.37L109.709 236.72C112.838 237.794 116.357 237.701 119.803 236.963C123.314 236.21 127.155 234.705 131.2 232.48C139.295 228.028 148.665 220.449 158.534 209.103L149.48 201.227ZM113.605 225.37C110.79 224.404 109.209 223.025 108.08 221.32C106.823 219.421 105.912 216.789 105.098 212.959C103.584 205.834 102.553 194.287 98.1226 182.467L86.886 186.679C90.9171 197.434 91.429 206.364 93.3598 215.453C94.2683 219.729 95.5548 224.138 98.0731 227.943C100.719 231.941 104.491 234.929 109.709 236.72L113.605 225.37Z" fill="var(--clr-illustration-outline)"/>
<path d="M266.377 104.143C276.133 105.725 282.789 114.877 281.287 124.646L275.722 160.853C274.815 166.752 276.891 172.716 281.263 176.777L288.563 183.557C292.906 187.591 294.984 193.503 294.121 199.367L290.908 221.192C289.447 231.12 280.149 237.936 270.241 236.342L141.292 215.597C131.326 213.994 124.627 204.512 126.445 194.583L143.388 102.068C145.153 92.4302 154.302 85.9745 163.974 87.5424L266.377 104.143Z" fill="var(--clr-illustration-fill)" stroke="var(--clr-illustration-outline)" stroke-width="1.2"/>
<path d="M267.269 208.177L280.952 205.113M266.673 214.804L280.357 211.739M266.078 221.427L279.762 218.363" stroke="var(--clr-illustration-outline)" stroke-width="1.2"/>
<rect opacity="0.13" x="153.994" y="94.7842" width="93.5302" height="104.822" rx="9.86" transform="rotate(9.40007 153.994 94.7842)" fill="var(--clr-illustration-outline)"/>
<path d="M156.065 142.667C152.928 158.601 150.616 176.15 163.697 180.111C176.778 184.071 180.546 163.628 184.133 147.743C187.721 131.857 190.131 113.81 176.322 111.296C162.513 108.783 159.203 126.733 156.065 142.667Z" fill="var(--clr-illustration-fill)" stroke="var(--clr-illustration-outline)" stroke-width="1.2"/>
<path d="M176.023 111.366C174.038 120.284 169.601 143.415 167.048 154.411L183.15 152.115C183.15 152.115 183.941 148.595 184.134 147.743C187.636 132.235 190.212 114.321 176.023 111.366Z" fill="var(--clr-illustration-outline)"/>
<path d="M201.522 148.932C198.384 164.867 196.073 182.416 209.154 186.376C222.235 190.337 226.003 169.894 229.59 154.008C233.177 138.123 235.588 120.076 221.779 117.562C207.969 115.048 204.66 132.998 201.522 148.932Z" fill="var(--clr-illustration-fill)" stroke="var(--clr-illustration-outline)" stroke-width="1.2"/>
<path d="M221.48 117.631C219.495 126.55 215.058 149.681 212.505 160.677L228.606 158.38C228.606 158.38 229.398 154.861 229.59 154.009C233.092 138.501 235.669 120.587 221.48 117.631Z" fill="var(--clr-illustration-outline)"/>
<path d="M192.08 185.38C191.42 187.25 189.653 188.5 187.67 188.5C183.112 188.5 181.259 181.135 184.979 178.5C188.701 175.863 193.598 181.079 192.08 185.38Z" fill="var(--clr-illustration-outline)"/>
<path d="M166.045 193.292L162.933 211.484L180.519 207.03L195.291 216.956L198.742 199.149L180.983 202.378L166.045 193.292Z" fill="var(--clr-illustration-outline)"/>
<path d="M214.08 227.293L218.876 228.083C228.678 229.696 237.935 223.063 239.558 213.262L254.903 120.578C256.548 110.643 249.724 101.292 239.761 99.8285L238.362 99.623" stroke="var(--clr-illustration-outline)" stroke-width="1.2"/>
<path d="M301.118 148.497L264.106 174.733L339.197 207.847L376.091 179.615L393.156 129.517L316.893 101.982L301.118 148.497Z" fill="var(--clr-illustration-fill)" stroke="var(--clr-illustration-outline)" stroke-width="1.2"/>
<path d="M301.089 147.997L368.308 175.067" stroke="var(--clr-illustration-outline)" stroke-width="1.2"/>
<path d="M259.083 262.524L260.824 256.782L259.083 262.524ZM263.514 196.1C263.977 192.819 261.692 189.783 258.411 189.32C255.13 188.857 252.094 191.142 251.631 194.423L263.514 196.1ZM290.815 213.814C286.397 220.395 282.619 226.804 279.29 232.571C275.917 238.417 273.099 243.432 270.437 247.569C267.73 251.775 265.577 254.426 263.76 255.847C262.215 257.055 261.489 256.984 260.824 256.782L257.341 268.266C262.669 269.882 267.378 268.252 271.153 265.3C274.654 262.561 277.705 258.448 280.528 254.063C283.395 249.607 286.433 244.202 289.683 238.57C292.979 232.86 296.593 226.736 300.778 220.502L290.815 213.814ZM260.824 256.782C258.818 256.174 257.678 255.042 256.914 252.668C256.017 249.879 255.811 245.698 256.35 239.86C256.879 234.126 258.049 227.473 259.426 219.988C260.786 212.592 262.335 204.455 263.514 196.1L251.631 194.423C250.496 202.47 249.004 210.312 247.624 217.817C246.259 225.233 244.987 232.403 244.401 238.756C243.824 245.005 243.828 251.175 245.491 256.344C247.287 261.928 251.058 266.36 257.341 268.266L260.824 256.782Z" fill="var(--clr-illustration-outline)"/>
<path d="M307.928 145.087L319.774 108.322L384.261 131.547L371.536 170.368L307.928 145.087Z" fill="var(--clr-illustration-outline)"/>
<path d="M277.405 184.917C276.373 191.799 277.405 198.806 284.401 208.542C278.975 211.404 281.588 220.734 287.798 224.778C300.922 233.327 308.66 228.113 309.577 220.727C319.69 222.843 328.786 212.398 330.755 203.929L301.482 190.866L292.996 186.187C314 174.25 311.169 160.99 301.482 160.25C291.795 159.509 279.181 173.065 277.405 184.917Z" fill="var(--clr-illustration-fill)"/>
<path d="M284.401 208.542C277.405 198.806 276.373 191.799 277.405 184.917C279.181 173.065 291.795 159.509 301.482 160.25C311.169 160.99 314 174.25 292.996 186.187L301.482 190.866M284.401 208.542C278.975 211.404 281.588 220.734 287.798 224.778C300.922 233.327 308.66 228.113 309.577 220.727C319.69 222.843 328.786 212.398 330.755 203.929L301.482 190.866M284.401 208.542C287.638 213.047 292.375 216.75 297.625 218.875M301.482 190.866C304.117 193.245 308.848 201.532 306.294 208.931" stroke="var(--clr-illustration-outline)" stroke-width="1.2"/>
<path d="M78.5 70.4996C134 17.4995 249 1.49957 343 91.1975M343 91.1975C333.549 68.6647 331.982 55.7508 340 33.4996M343 91.1975C319.28 83.5874 305.227 85.7495 284.718 91.1975" stroke="var(--clr-illustration-outline)" stroke-width="1.2"/>
<path d="M124.635 27.2601C125.415 22.9112 129.573 20.0181 133.922 20.7981L140.934 22.0557C143.038 22.433 144.903 23.6367 146.114 25.3983L154.014 36.8905C155.207 38.6259 155.667 40.7618 155.295 42.8346L153.293 53.9996C152.513 58.3485 148.355 61.2416 144.006 60.4616L127.344 57.4731C122.995 56.6931 120.102 52.5353 120.882 48.1864L124.635 27.2601Z" fill="var(--clr-illustration-fill)" stroke="var(--clr-illustration-outline)" stroke-width="1.2"/>
<path d="M127.72 42.3486L147.924 45.9723M127.053 46.0651L147.257 49.6888M126.387 49.7815L136.747 51.6398" stroke="var(--clr-illustration-outline)" stroke-width="1.2"/>
<path d="M141.367 34.3252L143.42 22.8828L146.041 25.7531L153.979 37.0806L155.089 40.8502L144.598 38.9686C142.424 38.5786 140.977 36.4997 141.367 34.3252Z" fill="var(--clr-illustration-outline)"/>
<path d="M189.868 16.8367C188.817 12.5453 191.443 8.2142 195.735 7.16295L211.218 3.37007C213.294 2.86148 215.488 3.20491 217.309 4.32377L237.563 16.7658C239.357 17.8681 240.645 19.6335 241.146 21.6789L246.416 43.193C247.467 47.4844 244.84 51.8154 240.549 52.8667L208.834 60.6358C204.543 61.6871 200.211 59.0604 199.16 54.769L189.868 16.8367Z" fill="var(--clr-illustration-fill)" stroke="var(--clr-illustration-outline)" stroke-width="1.2"/>
<path d="M203.987 39.0762L233.444 31.8602M205.314 44.4948L234.772 37.2788M206.642 49.9135L221.748 46.213" stroke="var(--clr-illustration-outline)" stroke-width="1.2"/>
<path d="M218.063 21.9146L213.522 3.37598L218.782 5.68137L236.292 16.2212L240.051 20.6464L222.9 24.848C220.754 25.3736 218.589 24.0603 218.063 21.9146Z" fill="var(--clr-illustration-outline)"/>
<path d="M271.632 34.9625C271.292 30.5574 274.587 26.7103 278.992 26.3699L287.598 25.7047C289.729 25.54 291.837 26.2351 293.453 27.6348L305.262 37.8672C306.854 39.2462 307.837 41.1972 308 43.2968L309.016 56.449C309.357 60.8541 306.062 64.7012 301.656 65.0416L282.098 66.5533C277.692 66.8938 273.845 63.5987 273.505 59.1935L271.632 34.9625Z" fill="var(--clr-illustration-fill)" stroke="var(--clr-illustration-outline)" stroke-width="1.2"/>
<path d="M279.022 50.5684L301.158 48.8575M279.337 54.6403L301.473 52.9295M279.652 58.7123L291.003 57.8349" stroke="var(--clr-illustration-outline)" stroke-width="1.2"/>
<path d="M291.147 38.7768L290.153 25.9141L293.679 28.2047L305.074 37.8996L307.264 41.5431L295.444 42.4567C293.241 42.6269 291.318 40.9794 291.147 38.7768Z" fill="var(--clr-illustration-outline)"/>
<path d="M323.163 135.409C324.597 135.929 325.382 135.143 326.173 132.962L327.577 133.471C326.504 136.43 324.93 137.344 322.748 136.553C320.475 135.729 319.689 133.804 321.155 129.761C322.62 125.719 324.458 124.745 326.731 125.569C328.912 126.36 329.504 128.059 328.664 130.378L327.26 129.869C327.819 128.328 327.777 127.157 326.343 126.637C324.818 126.084 323.747 126.99 322.558 130.27C321.369 133.55 321.638 134.856 323.163 135.409ZM328.137 138.334L332.008 127.656L333.381 128.153L330.505 136.086L329.833 137.654L333.616 139.026L333.835 138.328L334.056 137.718L335.429 138.216L334.544 140.657L328.137 138.334ZM344.162 138.103C345.351 134.823 345.095 133.436 343.569 132.883C342.044 132.33 340.958 133.23 339.769 136.51C338.635 139.637 338.864 141.101 340.389 141.654C341.915 142.207 343.028 141.23 344.162 138.103ZM338.381 136.007C339.846 131.964 341.684 130.991 343.957 131.815C346.229 132.639 347.016 134.564 345.55 138.606C344.085 142.649 342.247 143.622 339.974 142.798C337.701 141.974 336.915 140.049 338.381 136.007ZM345.439 144.607L349.311 133.929L351.675 134.786L350.921 145.386L351.379 145.552L353.015 139.897L354.497 135.809L355.87 136.307L351.999 146.985L349.634 146.128L350.388 135.527L349.93 135.362L348.294 141.016L346.812 145.105L345.439 144.607ZM354.205 147.785L358.076 137.107L364.56 139.457L364.172 140.525L358.97 138.639L358.537 140.122L358.288 140.808L357.671 142.224L361.805 143.723L361.418 144.791L357.284 143.292L356.85 144.774L356.49 145.766L355.901 147.106L361.103 148.992L360.688 150.136L354.205 147.785ZM365.136 151.748L365.828 149.842L367.735 150.533L367.043 152.44L365.136 151.748ZM362.055 150.631L362.746 148.724L364.653 149.416L363.962 151.323L362.055 150.631ZM368.233 152.871L368.924 150.964L370.831 151.656L370.14 153.563L368.233 152.871Z" fill="var(--clr-illustration-fill)"/>
</g>
<defs>
<clipPath id="clip0_5582_984">
<rect width="400" height="400" fill="white"/>
</clipPath>
</defs>
</svg>
