<svg
  xmlns="http://www.w3.org/2000/svg" width="100%" height="100%" viewBox="0 0 400 400" fill="none">
  <g id="8275:20326" clip-path="url(#clip0_8275_20326)">
    <ellipse id="8275:20327" opacity="0.12" cx="197.1" cy="378.851" rx="161.9" ry="9.93566"
      fill="var(--clr-illustration-outline)" />
    <path id="8275:20328"
      d="M126.252 377.394C168.468 301.09 169.9 278.26 215 219L202.067 212.822L201.116 213.827C168.14 248.675 146.186 271.875 119.114 309.242C89.0001 293 64.7785 291.517 29.5318 311.413L126.252 377.394Z"
      fill="var(--clr-illustration-fill)" stroke="var(--clr-illustration-outline)"
      stroke-width="1.2" />
    <path id="8275:20329"
      d="M196.602 269.722L226.699 215.426L209.042 214.371C168.11 265.092 164.315 288.421 180.302 329.163C138.5 329.163 115.825 350.505 105.15 379.439H241.993C226.699 340.1 196.602 269.722 196.602 269.722Z"
      fill="var(--clr-illustration-fill)" stroke="var(--clr-illustration-outline)"
      stroke-width="1.2" />
    <ellipse id="8275:20330" cx="69.8588" cy="124.443" rx="60.1291" ry="38.3491"
      transform="rotate(-20.5917 69.8588 124.443)" fill="var(--clr-illustration-fill)"
      stroke="var(--clr-illustration-outline)" stroke-width="1.2" />
    <ellipse id="8275:20331" cx="69.8588" cy="124.442" rx="45.3603" ry="38.3491"
      transform="rotate(-20.5917 69.8588 124.442)" stroke="var(--clr-illustration-outline)"
      stroke-width="1.2" />
    <ellipse id="8275:20332" cx="69.8588" cy="124.442" rx="22.1998" ry="38.3491"
      transform="rotate(-20.5917 69.8588 124.442)" stroke="var(--clr-illustration-outline)"
      stroke-width="1.2" />
    <path id="8275:20333"
      d="M88.303 82.7297C85.7836 93.2521 75.5921 103.768 61.2151 109.257C47.7691 114.391 34.1221 113.806 25.138 108.665"
      stroke="var(--clr-illustration-outline)" stroke-width="1.2" />
    <path id="8275:20334"
      d="M47.3058 165.728C49.5763 155.149 59.5171 144.396 73.7606 138.569C87.0819 133.12 100.739 133.383 109.842 138.311"
      stroke="var(--clr-illustration-outline)" stroke-width="1.2" />
    <path id="8275:20335" d="M55.2711 88.9065L84.3924 159.773"
      stroke="var(--clr-illustration-outline)" stroke-width="1.2" />
    <path id="8275:20336" d="M125.285 101.157L13.7115 145.646"
      stroke="var(--clr-illustration-outline)" stroke-width="1.2" />
    <g id="8275:20337">
      <path
        d="M114.261 146.292C115.292 153.174 112.466 161.546 105.47 171.281C110.896 174.143 108.565 182.364 97.9656 187.743C83.9983 194.83 75.9428 188.642 75.0257 181.256C64.9126 183.372 58.5535 171.665 58.5535 166.052C67.1935 165.195 75.0257 163.221 80.5629 160.847C84.8345 153.095 90.6053 148.797 97.25 145C73.375 139.375 74.0765 126.042 83.2525 121.929C92.4284 117.815 112.485 134.44 114.261 146.292Z"
        fill="var(--clr-illustration-fill)" />
      <path
        d="M105.47 171.281C112.466 161.546 115.292 153.174 114.261 146.292C112.485 134.44 92.4284 117.815 83.2525 121.929C74.0765 126.042 73.375 139.375 97.25 145C90.6053 148.797 84.8345 153.095 80.5629 160.847M105.47 171.281C110.896 174.143 108.565 182.364 97.9656 187.743C83.9983 194.83 75.9428 188.642 75.0257 181.256C64.9126 183.372 58.5535 171.665 58.5535 166.052C67.1935 165.195 75.0257 163.221 80.5629 160.847M105.47 171.281C102.758 170.282 95.7508 169.264 89.4225 173.188M80.5629 160.847L78.3481 165.668"
        stroke="var(--clr-illustration-outline)" stroke-width="1.2" />
    </g>
    <path id="8275:20338"
      d="M111.657 231.045L113.605 225.37L113.605 225.37L111.657 231.045ZM98.1226 182.467C96.9595 179.364 93.5013 177.792 90.3984 178.955C87.2955 180.118 85.723 183.576 86.886 186.679L92.5043 184.573L98.1226 182.467ZM154.007 205.165L149.48 201.227C140.291 211.791 131.984 218.353 125.418 221.964C122.133 223.771 119.396 224.777 117.289 225.229C115.116 225.694 113.975 225.497 113.605 225.37L111.657 231.045L109.709 236.72C112.838 237.794 116.357 237.701 119.803 236.963C123.314 236.21 127.155 234.704 131.2 232.479C139.295 228.027 148.665 220.448 158.534 209.103L154.007 205.165ZM111.657 231.045L113.605 225.37C110.79 224.403 109.209 223.025 108.08 221.319C106.823 219.42 105.912 216.789 105.098 212.959C103.584 205.833 102.553 194.286 98.1226 182.467L92.5043 184.573L86.886 186.679C90.9171 197.433 91.429 206.364 93.3598 215.452C94.2683 219.729 95.5548 224.138 98.0731 227.943C100.719 231.941 104.491 234.928 109.709 236.72L111.657 231.045Z"
      fill="var(--clr-illustration-outline)" />
    <g id="Group 1948754546">
      <path id="8275:20340"
        d="M266.377 104.143C276.133 105.725 282.789 114.877 281.287 124.646L275.722 160.853C274.815 166.751 276.891 172.715 281.263 176.777L288.563 183.557C292.906 187.59 294.984 193.503 294.121 199.367L290.908 221.192C289.447 231.12 280.149 237.936 270.241 236.342L141.292 215.597C131.326 213.994 124.627 204.511 126.445 194.583L143.388 102.068C145.153 92.43 154.302 85.9742 163.974 87.5421L266.377 104.143Z"
        fill="var(--clr-illustration-fill)" stroke="var(--clr-illustration-outline)"
        stroke-width="1.2" />
      <path id="8275:20341"
        d="M267.269 208.177L280.952 205.113M266.673 214.804L280.357 211.739M266.078 221.427L279.762 218.362"
        stroke="var(--clr-illustration-outline)" stroke-width="1.2" />
      <rect id="8275:20342" opacity="0.13" x="153.994" y="94.7842" width="93.5302" height="104.822"
        rx="9.86" transform="rotate(9.40007 153.994 94.7842)" fill="var(--clr-illustration-outline)" />
      <g id="Group 1948754528">
        <path id="8275:20344"
          d="M156.065 142.667C152.928 158.601 150.616 176.15 163.697 180.111C176.778 184.071 180.546 163.628 184.133 147.743C187.721 131.857 190.131 113.81 176.322 111.296C162.513 108.783 159.203 126.733 156.065 142.667Z"
          fill="var(--clr-illustration-fill)" stroke="var(--clr-illustration-outline)"
          stroke-width="1.2" />
        <path id="8275:20345"
          d="M176.023 111.366C174.038 120.284 169.601 143.415 167.048 154.411L183.15 152.115C183.15 152.115 183.941 148.595 184.134 147.743C187.636 132.235 190.212 114.321 176.023 111.366Z"
          fill="var(--clr-illustration-outline)" />
      </g>
      <g id="Group 1948754529">
        <path id="8275:20347"
          d="M201.522 148.933C198.384 164.867 196.073 182.416 209.154 186.377C222.235 190.337 226.003 169.894 229.59 154.009C233.177 138.123 235.588 120.076 221.779 117.562C207.969 115.049 204.66 132.998 201.522 148.933Z"
          fill="var(--clr-illustration-fill)" stroke="var(--clr-illustration-outline)"
          stroke-width="1.2" />
        <path id="8275:20348"
          d="M221.48 117.631C219.495 126.55 215.058 149.681 212.505 160.677L228.606 158.38C228.606 158.38 229.398 154.86 229.59 154.009C233.092 138.5 235.669 120.587 221.48 117.631Z"
          fill="var(--clr-illustration-outline)" />
      </g>
      <path id="8275:20349"
        d="M192.08 185.38C191.42 187.25 189.653 188.5 187.67 188.5C183.112 188.5 181.259 181.135 184.979 178.5C188.701 175.864 193.598 181.079 192.08 185.38Z"
        fill="var(--clr-illustration-outline)" />
      <path id="8275:20350"
        d="M166.045 193.291L162.933 211.484L180.519 207.029L195.291 216.955L198.742 199.148L180.983 202.377L166.045 193.291Z"
        fill="var(--clr-illustration-outline)" />
    </g>
    <path id="8275:20351"
      d="M301.118 148.496L264.106 174.733L339.197 207.847L376.091 179.615L393.156 129.517L316.893 101.981L301.118 148.496Z"
      fill="var(--clr-illustration-fill)" stroke="var(--clr-illustration-outline)"
      stroke-width="1.2" />
    <path id="8275:20352" d="M301.089 147.997L368.308 175.067"
      stroke="var(--clr-illustration-outline)" stroke-width="1.2" />
    <path id="8275:20353"
      d="M257.083 262.524L258.824 256.782L257.083 262.524ZM259.514 196.1C259.977 192.819 257.692 189.784 254.411 189.321C251.13 188.858 248.094 191.142 247.631 194.423L253.572 195.262L259.514 196.1ZM295.797 217.158L290.815 213.814C286.43 220.346 282.544 226.72 279.052 232.447C275.522 238.235 272.452 243.264 269.571 247.369C266.641 251.545 264.249 254.253 262.229 255.729C260.411 257.058 259.503 256.988 258.824 256.782L257.083 262.524L255.341 268.266C260.655 269.878 265.433 268.25 269.308 265.418C272.982 262.734 276.294 258.679 279.393 254.263C282.542 249.776 285.827 244.384 289.297 238.695C292.804 232.944 296.56 226.786 300.778 220.502L295.797 217.158ZM257.083 262.524L258.824 256.782C256.733 256.148 255.434 254.91 254.519 252.43C253.476 249.603 253.073 245.405 253.368 239.614C253.967 227.857 257.107 213.155 259.514 196.1L253.572 195.262L247.631 194.423C245.409 210.171 242.016 226.586 241.383 239.003C241.062 245.299 241.368 251.452 243.261 256.583C245.281 262.059 249.144 266.386 255.341 268.266L257.083 262.524Z"
      fill="var(--clr-illustration-outline)" />
    <path id="8275:20354"
      d="M307.928 145.088L319.774 108.322L384.261 131.547L371.536 170.368L307.928 145.088Z"
      fill="var(--clr-illustration-outline)" />
    <g id="8275:20355">
      <path
        d="M277.405 184.918C276.373 191.799 277.405 198.807 284.401 208.542C278.975 211.404 281.588 220.734 287.798 224.779C300.922 233.327 308.66 228.114 309.577 220.728C319.69 222.844 328.786 212.398 330.755 203.929L301.482 190.867L292.996 186.187C314 174.25 311.169 160.991 301.482 160.25C291.795 159.509 279.181 173.066 277.405 184.918Z"
        fill="var(--clr-illustration-fill)" />
      <path
        d="M284.401 208.542C277.405 198.807 276.373 191.799 277.405 184.918C279.181 173.066 291.795 159.509 301.482 160.25C311.169 160.991 314 174.25 292.996 186.187L301.482 190.867M284.401 208.542C278.975 211.404 281.588 220.734 287.798 224.779C300.922 233.327 308.66 228.114 309.577 220.728C319.69 222.844 328.786 212.398 330.755 203.929L301.482 190.867M284.401 208.542C287.638 213.048 292.375 216.75 297.625 218.875M301.482 190.867C304.117 193.245 308.848 201.533 306.294 208.931"
        stroke="var(--clr-illustration-outline)" stroke-width="1.2" />
    </g>
    <path id="8275:20357"
      d="M78.5 70.4999C134 17.4999 249 1.49993 343 91.1979M343 91.1979C333.549 68.665 331.982 55.7512 340 33.5M343 91.1979C319.28 83.5878 305.227 85.7498 284.718 91.1979"
      stroke="var(--clr-illustration-outline)" stroke-width="1.2" />
    <g id="Group 1948754530">
      <path id="8275:20359"
        d="M124.635 27.2603C125.415 22.9115 129.573 20.0183 133.922 20.7983L140.934 22.0559C143.038 22.4333 144.903 23.637 146.114 25.3985L154.014 36.8908C155.207 38.6262 155.667 40.762 155.295 42.8349L153.293 53.9998C152.513 58.3487 148.355 61.2419 144.006 60.4618L127.344 57.4733C122.995 56.6933 120.102 52.5355 120.882 48.1867L124.635 27.2603Z"
        fill="var(--clr-illustration-fill)" stroke="var(--clr-illustration-outline)"
        stroke-width="1.2" />
      <path id="8275:20360"
        d="M127.72 42.3489L147.924 45.9726M127.053 46.0653L147.257 49.689M126.387 49.7818L136.747 51.64"
        stroke="var(--clr-illustration-outline)" stroke-width="1.2" />
      <path id="8275:20361"
        d="M141.367 34.3252L143.42 22.8828L146.041 25.7531L153.979 37.0806L155.089 40.8502L144.598 38.9686C142.424 38.5786 140.977 36.4997 141.367 34.3252Z"
        fill="var(--clr-illustration-outline)" />
    </g>
    <g id="Group 1948754531">
      <path id="8275:20363"
        d="M189.868 16.8367C188.817 12.5453 191.443 8.2142 195.735 7.16295L211.218 3.37007C213.294 2.86148 215.488 3.20491 217.309 4.32377L237.563 16.7658C239.357 17.8681 240.645 19.6335 241.146 21.6789L246.416 43.193C247.467 47.4844 244.84 51.8154 240.549 52.8667L208.834 60.6358C204.543 61.6871 200.211 59.0604 199.16 54.769L189.868 16.8367Z"
        fill="var(--clr-illustration-fill)" stroke="var(--clr-illustration-outline)"
        stroke-width="1.2" />
      <path id="8275:20364"
        d="M203.987 39.0758L233.444 31.8598M205.314 44.4945L234.772 37.2784M206.642 49.9131L221.748 46.2126"
        stroke="var(--clr-illustration-outline)" stroke-width="1.2" />
      <path id="8275:20365"
        d="M218.063 21.9149L213.522 3.37634L218.782 5.68174L236.292 16.2216L240.051 20.6468L222.9 24.8483C220.754 25.374 218.589 24.0606 218.063 21.9149Z"
        fill="var(--clr-illustration-outline)" />
    </g>
    <g id="Group 1948754533">
      <path id="8275:20367"
        d="M271.632 34.9628C271.292 30.5577 274.587 26.7106 278.992 26.3701L287.598 25.705C289.729 25.5403 291.837 26.2353 293.453 27.6351L305.262 37.8674C306.854 39.2465 307.837 41.1974 308 43.2971L309.016 56.4492C309.357 60.8543 306.062 64.7014 301.656 65.0419L282.098 66.5535C277.692 66.894 273.845 63.5989 273.505 59.1938L271.632 34.9628Z"
        fill="var(--clr-illustration-fill)" stroke="var(--clr-illustration-outline)"
        stroke-width="1.2" />
      <path id="8275:20368"
        d="M279.022 50.5686L301.158 48.8577M279.337 54.6406L301.473 52.9297M279.652 58.7125L291.003 57.8352"
        stroke="var(--clr-illustration-outline)" stroke-width="1.2" />
      <path id="8275:20369"
        d="M291.147 38.777L290.153 25.9143L293.679 28.2049L305.074 37.8999L307.264 41.5433L295.444 42.4569C293.241 42.6271 291.318 40.9796 291.147 38.777Z"
        fill="var(--clr-illustration-outline)" />
    </g>
    <text id="8275:20370" transform="translate(324.183 117.754) rotate(19.9287)"
      fill="var(--clr-illustration-fill)" xml:space="preserve" style="white-space: pre"
      font-family="Sligoil" font-size="16.2264" letter-spacing="-0.03em">
      <tspan x="0.02841" y="17.9906">CLONE…</tspan>
    </text>
  </g>
  <defs>
    <clipPath id="clip0_8275_20326">
      <rect width="400" height="400" fill="white" />
    </clipPath>
  </defs>
</svg>