
<svg
			width="100%"
			height="100%"
viewBox="0 0 300 241" fill="none" xmlns="http://www.w3.org/2000/svg">
<path d="M1.6 24.5C1.6 13.7857 10.2857 5.1 21 5.1H279C289.714 5.1 298.4 13.7857 298.4 24.5V216.5C298.4 227.214 289.714 235.9 279 235.9H21C10.2857 235.9 1.6 227.214 1.6 216.5V24.5Z" fill="white" stroke="#D4D0CE" stroke-width="1.2"/>
<rect x="13" y="16.5" width="105" height="208" rx="10" fill="white"/>
<rect opacity="0.13" x="14" y="142.5" width="102.831" height="50" fill="#B4AFAC"/>
<path d="M14 142.5H118M14 152.5H118M14 162.5H118M14 172.5H118M14 182.5H118M14 192.5H118" stroke="#D4D0CE" stroke-width="1.2"/>
<path d="M14 52.5H118M14 62.5H118M14 72.5H118M14 82.5H118M14 92.5H118M14 102.5H118M14 112.5H118" stroke="#EAE9E8" stroke-width="1.2"/>
<rect x="13.6" y="17.1" width="103.8" height="206.8" rx="9.4" stroke="#B4AFAC" stroke-width="1.2"/>
<path d="M124.6 48.1H277C282.191 48.1 286.4 52.3085 286.4 57.5V214.5C286.4 219.691 282.191 223.9 277 223.9H134C128.809 223.9 124.6 219.691 124.6 214.5V48.1Z" fill="white" stroke="#D4D0CE" stroke-width="1.2"/>
<path d="M124.6 26.5C124.6 21.3085 128.809 17.1 134 17.1H178C183.191 17.1 187.4 21.3085 187.4 26.5V47.9H124.6V26.5Z" fill="white" stroke="#D4D0CE" stroke-width="1.2"/>
<path opacity="0.7" d="M144.587 30.5291C144.538 30.0921 144.335 29.7536 143.978 29.5135C143.621 29.2704 143.171 29.1488 142.63 29.1488C142.242 29.1488 141.906 29.2103 141.623 29.3335C141.34 29.4535 141.12 29.6197 140.963 29.832C140.809 30.0413 140.732 30.2798 140.732 30.5476C140.732 30.7723 140.784 30.9661 140.889 31.1293C140.997 31.2924 141.137 31.4293 141.309 31.5401C141.485 31.6478 141.672 31.7386 141.872 31.8125C142.072 31.8833 142.265 31.9418 142.449 31.9879L143.373 32.228C143.674 32.3018 143.984 32.4019 144.301 32.5281C144.618 32.6542 144.912 32.8204 145.182 33.0266C145.453 33.2328 145.672 33.4883 145.838 33.793C146.007 34.0977 146.092 34.4624 146.092 34.8871C146.092 35.4226 145.953 35.8981 145.676 36.3136C145.402 36.729 145.004 37.0568 144.481 37.2969C143.961 37.5369 143.331 37.657 142.593 37.657C141.885 37.657 141.272 37.5446 140.755 37.32C140.238 37.0953 139.833 36.7768 139.541 36.3643C139.249 35.9489 139.087 35.4564 139.056 34.8871H140.487C140.515 35.2287 140.626 35.5134 140.82 35.7411C141.017 35.9658 141.268 36.1335 141.572 36.2443C141.88 36.352 142.217 36.4059 142.583 36.4059C142.987 36.4059 143.345 36.3428 143.659 36.2166C143.976 36.0874 144.225 35.9089 144.407 35.6811C144.588 35.4503 144.679 35.181 144.679 34.8732C144.679 34.5932 144.599 34.3639 144.439 34.1854C144.282 34.0069 144.068 33.8591 143.797 33.7422C143.53 33.6252 143.227 33.5221 142.888 33.4329L141.771 33.1282C141.014 32.922 140.414 32.6188 139.97 32.2188C139.53 31.8187 139.31 31.2893 139.31 30.6307C139.31 30.0859 139.458 29.6104 139.753 29.2042C140.049 28.7979 140.449 28.4825 140.954 28.2578C141.458 28.0301 142.028 27.9162 142.662 27.9162C143.302 27.9162 143.867 28.0285 144.356 28.2532C144.849 28.4779 145.236 28.7872 145.519 29.1811C145.803 29.572 145.95 30.0213 145.963 30.5291H144.587ZM150.996 30.4091V31.517H147.123V30.4091H150.996ZM148.161 28.7102H149.542V35.418C149.542 35.6857 149.582 35.8873 149.662 36.0227C149.742 36.1551 149.845 36.2459 149.971 36.2951C150.1 36.3413 150.24 36.3643 150.391 36.3643C150.502 36.3643 150.599 36.3567 150.682 36.3413C150.765 36.3259 150.83 36.3136 150.876 36.3043L151.125 37.4446C151.045 37.4754 150.931 37.5062 150.783 37.5369C150.636 37.5708 150.451 37.5893 150.229 37.5923C149.866 37.5985 149.528 37.5339 149.214 37.3984C148.9 37.263 148.646 37.0537 148.452 36.7706C148.258 36.4875 148.161 36.132 148.161 35.7042V28.7102ZM154.586 37.657C154.137 37.657 153.731 37.5739 153.367 37.4077C153.004 37.2384 152.717 36.9937 152.504 36.6737C152.295 36.3536 152.19 35.9612 152.19 35.4964C152.19 35.0964 152.267 34.767 152.421 34.5085C152.575 34.25 152.783 34.0453 153.044 33.8945C153.306 33.7437 153.598 33.6299 153.921 33.5529C154.245 33.476 154.574 33.4175 154.909 33.3775C155.334 33.3282 155.679 33.2882 155.943 33.2575C156.208 33.2236 156.4 33.1697 156.521 33.0959C156.641 33.022 156.701 32.902 156.701 32.7358V32.7035C156.701 32.3003 156.587 31.9879 156.359 31.7663C156.134 31.5447 155.799 31.4339 155.353 31.4339C154.888 31.4339 154.522 31.537 154.254 31.7433C153.989 31.9464 153.806 32.1726 153.704 32.4219L152.407 32.1264C152.561 31.6955 152.786 31.3478 153.081 31.0831C153.38 30.8153 153.723 30.6214 154.111 30.5014C154.498 30.3783 154.906 30.3168 155.334 30.3168C155.617 30.3168 155.917 30.3506 156.234 30.4183C156.554 30.483 156.853 30.603 157.13 30.7784C157.41 30.9538 157.639 31.2047 157.818 31.5309C157.996 31.854 158.085 32.2741 158.085 32.7912V37.5H156.737V36.5305H156.682C156.593 36.709 156.459 36.8845 156.28 37.0568C156.102 37.2292 155.873 37.3723 155.593 37.4862C155.313 37.6 154.977 37.657 154.586 37.657ZM154.886 36.549C155.268 36.549 155.594 36.4736 155.865 36.3228C156.139 36.172 156.347 35.975 156.488 35.7319C156.633 35.4857 156.705 35.2225 156.705 34.9425V34.0284C156.656 34.0777 156.561 34.1238 156.419 34.1669C156.28 34.2069 156.122 34.2423 155.943 34.2731C155.765 34.3008 155.591 34.3269 155.422 34.3516C155.253 34.3731 155.111 34.3916 154.997 34.407C154.729 34.4408 154.485 34.4978 154.263 34.5778C154.045 34.6578 153.869 34.7732 153.737 34.924C153.608 35.0717 153.543 35.2687 153.543 35.5149C153.543 35.8565 153.669 36.1151 153.921 36.2905C154.174 36.4628 154.495 36.549 154.886 36.549ZM162.911 37.6431C162.225 37.6431 161.634 37.4877 161.138 37.1768C160.646 36.8629 160.267 36.4305 160.002 35.8796C159.738 35.3287 159.605 34.6978 159.605 33.9869C159.605 33.2667 159.741 32.6312 160.012 32.0803C160.283 31.5263 160.664 31.0939 161.157 30.783C161.649 30.4722 162.229 30.3168 162.897 30.3168C163.436 30.3168 163.916 30.4168 164.337 30.6168C164.759 30.8138 165.099 31.0908 165.358 31.4478C165.619 31.8048 165.775 32.2218 165.824 32.6989H164.48C164.407 32.3665 164.237 32.0803 163.973 31.8402C163.711 31.6001 163.36 31.4801 162.92 31.4801C162.535 31.4801 162.198 31.5817 161.909 31.7848C161.623 31.9848 161.4 32.2711 161.24 32.6435C161.08 33.0128 161 33.4498 161 33.9545C161 34.4716 161.078 34.9179 161.235 35.2933C161.392 35.6688 161.614 35.9596 161.9 36.1658C162.189 36.372 162.529 36.4751 162.92 36.4751C163.182 36.4751 163.419 36.4274 163.631 36.332C163.846 36.2335 164.027 36.0935 164.171 35.9119C164.319 35.7304 164.422 35.5118 164.48 35.2564H165.824C165.775 35.715 165.625 36.1243 165.376 36.4844C165.127 36.8445 164.793 37.1276 164.374 37.3338C163.959 37.54 163.471 37.6431 162.911 37.6431ZM168.57 35.0948L168.56 33.4098H168.8L171.626 30.4091H173.278L170.056 33.8253H169.839L168.57 35.0948ZM167.3 37.5V28.0455H168.68V37.5H167.3ZM171.778 37.5L169.239 34.13L170.19 33.1651L173.472 37.5H171.778Z" fill="#867E79"/>
<path opacity="0.7" d="M207.587 30.5291C207.538 30.0921 207.335 29.7536 206.978 29.5135C206.621 29.2704 206.171 29.1488 205.63 29.1488C205.242 29.1488 204.906 29.2103 204.623 29.3335C204.34 29.4535 204.12 29.6197 203.963 29.832C203.809 30.0413 203.732 30.2798 203.732 30.5476C203.732 30.7723 203.784 30.9661 203.889 31.1293C203.997 31.2924 204.137 31.4293 204.309 31.5401C204.485 31.6478 204.672 31.7386 204.872 31.8125C205.072 31.8833 205.265 31.9418 205.449 31.9879L206.373 32.228C206.674 32.3018 206.984 32.4019 207.301 32.5281C207.618 32.6542 207.912 32.8204 208.182 33.0266C208.453 33.2328 208.672 33.4883 208.838 33.793C209.007 34.0977 209.092 34.4624 209.092 34.8871C209.092 35.4226 208.953 35.8981 208.676 36.3136C208.402 36.729 208.004 37.0568 207.481 37.2969C206.961 37.5369 206.331 37.657 205.593 37.657C204.885 37.657 204.272 37.5446 203.755 37.32C203.238 37.0953 202.833 36.7768 202.541 36.3643C202.249 35.9489 202.087 35.4564 202.056 34.8871H203.487C203.515 35.2287 203.626 35.5134 203.82 35.7411C204.017 35.9658 204.268 36.1335 204.572 36.2443C204.88 36.352 205.217 36.4059 205.583 36.4059C205.987 36.4059 206.345 36.3428 206.659 36.2166C206.976 36.0874 207.225 35.9089 207.407 35.6811C207.588 35.4503 207.679 35.181 207.679 34.8732C207.679 34.5932 207.599 34.3639 207.439 34.1854C207.282 34.0069 207.068 33.8591 206.797 33.7422C206.53 33.6252 206.227 33.5221 205.888 33.4329L204.771 33.1282C204.014 32.922 203.414 32.6188 202.97 32.2188C202.53 31.8187 202.31 31.2893 202.31 30.6307C202.31 30.0859 202.458 29.6104 202.753 29.2042C203.049 28.7979 203.449 28.4825 203.954 28.2578C204.458 28.0301 205.028 27.9162 205.662 27.9162C206.302 27.9162 206.867 28.0285 207.356 28.2532C207.849 28.4779 208.236 28.7872 208.519 29.1811C208.803 29.572 208.95 30.0213 208.963 30.5291H207.587ZM213.996 30.4091V31.517H210.123V30.4091H213.996ZM211.161 28.7102H212.542V35.418C212.542 35.6857 212.582 35.8873 212.662 36.0227C212.742 36.1551 212.845 36.2459 212.971 36.2951C213.1 36.3413 213.24 36.3643 213.391 36.3643C213.502 36.3643 213.599 36.3567 213.682 36.3413C213.765 36.3259 213.83 36.3136 213.876 36.3043L214.125 37.4446C214.045 37.4754 213.931 37.5062 213.783 37.5369C213.636 37.5708 213.451 37.5893 213.229 37.5923C212.866 37.5985 212.528 37.5339 212.214 37.3984C211.9 37.263 211.646 37.0537 211.452 36.7706C211.258 36.4875 211.161 36.132 211.161 35.7042V28.7102ZM217.586 37.657C217.137 37.657 216.731 37.5739 216.367 37.4077C216.004 37.2384 215.717 36.9937 215.504 36.6737C215.295 36.3536 215.19 35.9612 215.19 35.4964C215.19 35.0964 215.267 34.767 215.421 34.5085C215.575 34.25 215.783 34.0453 216.044 33.8945C216.306 33.7437 216.598 33.6299 216.921 33.5529C217.245 33.476 217.574 33.4175 217.909 33.3775C218.334 33.3282 218.679 33.2882 218.943 33.2575C219.208 33.2236 219.4 33.1697 219.521 33.0959C219.641 33.022 219.701 32.902 219.701 32.7358V32.7035C219.701 32.3003 219.587 31.9879 219.359 31.7663C219.134 31.5447 218.799 31.4339 218.353 31.4339C217.888 31.4339 217.522 31.537 217.254 31.7433C216.989 31.9464 216.806 32.1726 216.704 32.4219L215.407 32.1264C215.561 31.6955 215.786 31.3478 216.081 31.0831C216.38 30.8153 216.723 30.6214 217.111 30.5014C217.498 30.3783 217.906 30.3168 218.334 30.3168C218.617 30.3168 218.917 30.3506 219.234 30.4183C219.554 30.483 219.853 30.603 220.13 30.7784C220.41 30.9538 220.639 31.2047 220.818 31.5309C220.996 31.854 221.085 32.2741 221.085 32.7912V37.5H219.737V36.5305H219.682C219.593 36.709 219.459 36.8845 219.28 37.0568C219.102 37.2292 218.873 37.3723 218.593 37.4862C218.313 37.6 217.977 37.657 217.586 37.657ZM217.886 36.549C218.268 36.549 218.594 36.4736 218.865 36.3228C219.139 36.172 219.347 35.975 219.488 35.7319C219.633 35.4857 219.705 35.2225 219.705 34.9425V34.0284C219.656 34.0777 219.561 34.1238 219.419 34.1669C219.28 34.2069 219.122 34.2423 218.943 34.2731C218.765 34.3008 218.591 34.3269 218.422 34.3516C218.253 34.3731 218.111 34.3916 217.997 34.407C217.729 34.4408 217.485 34.4978 217.263 34.5778C217.045 34.6578 216.869 34.7732 216.737 34.924C216.608 35.0717 216.543 35.2687 216.543 35.5149C216.543 35.8565 216.669 36.1151 216.921 36.2905C217.174 36.4628 217.495 36.549 217.886 36.549ZM225.911 37.6431C225.225 37.6431 224.634 37.4877 224.138 37.1768C223.646 36.8629 223.267 36.4305 223.002 35.8796C222.738 35.3287 222.605 34.6978 222.605 33.9869C222.605 33.2667 222.741 32.6312 223.012 32.0803C223.283 31.5263 223.664 31.0939 224.157 30.783C224.649 30.4722 225.229 30.3168 225.897 30.3168C226.436 30.3168 226.916 30.4168 227.337 30.6168C227.759 30.8138 228.099 31.0908 228.358 31.4478C228.619 31.8048 228.775 32.2218 228.824 32.6989H227.48C227.407 32.3665 227.237 32.0803 226.973 31.8402C226.711 31.6001 226.36 31.4801 225.92 31.4801C225.535 31.4801 225.198 31.5817 224.909 31.7848C224.623 31.9848 224.4 32.2711 224.24 32.6435C224.08 33.0128 224 33.4498 224 33.9545C224 34.4716 224.078 34.9179 224.235 35.2933C224.392 35.6688 224.614 35.9596 224.9 36.1658C225.189 36.372 225.529 36.4751 225.92 36.4751C226.182 36.4751 226.419 36.4274 226.631 36.332C226.846 36.2335 227.027 36.0935 227.171 35.9119C227.319 35.7304 227.422 35.5118 227.48 35.2564H228.824C228.775 35.715 228.625 36.1243 228.376 36.4844C228.127 36.8445 227.793 37.1276 227.374 37.3338C226.959 37.54 226.471 37.6431 225.911 37.6431ZM231.57 35.0948L231.56 33.4098H231.8L234.626 30.4091H236.278L233.056 33.8253H232.839L231.57 35.0948ZM230.3 37.5V28.0455H231.68V37.5H230.3ZM234.778 37.5L232.239 34.13L233.19 33.1651L236.472 37.5H234.778Z" fill="#867E79"/>
<path opacity="0.12" d="M187 26.5C187 20.9772 191.477 16.5 197 16.5H241C246.523 16.5 251 20.9772 251 26.5V48.5H187V26.5Z" fill="#867E79"/>
<path d="M187.6 26.5C187.6 21.3085 191.809 17.1 197 17.1H241C246.191 17.1 250.4 21.3085 250.4 26.5V47.9H187.6V26.5Z" stroke="#D4D0CE" stroke-width="1.2"/>
<path opacity="0.7" d="M31.3044 33.12H29.8641C29.8087 32.8123 29.7056 32.5414 29.5548 32.3075C29.404 32.0736 29.2193 31.8751 29.0008 31.712C28.7823 31.5489 28.5376 31.4258 28.2668 31.3427C27.999 31.2596 27.7143 31.218 27.4127 31.218C26.868 31.218 26.3802 31.355 25.9493 31.6289C25.5215 31.9028 25.183 32.3045 24.9337 32.8338C24.6875 33.3632 24.5644 34.0095 24.5644 34.7727C24.5644 35.5421 24.6875 36.1915 24.9337 36.7209C25.183 37.2502 25.5231 37.6503 25.9539 37.9212C26.3848 38.192 26.8695 38.3274 27.4081 38.3274C27.7066 38.3274 27.9898 38.2874 28.2575 38.2074C28.5284 38.1243 28.7731 38.0027 28.9916 37.8427C29.2101 37.6826 29.3947 37.4872 29.5455 37.2564C29.6994 37.0225 29.8056 36.7547 29.8641 36.4531L31.3044 36.4577C31.2275 36.9225 31.0782 37.3503 30.8566 37.7411C30.6381 38.1289 30.3565 38.4644 30.0118 38.7475C29.6702 39.0276 29.2793 39.2446 28.8392 39.3984C28.3991 39.5523 27.919 39.6293 27.3989 39.6293C26.5802 39.6293 25.8508 39.4354 25.2107 39.0476C24.5705 38.6567 24.0658 38.0981 23.6965 37.3718C23.3302 36.6455 23.1471 35.7791 23.1471 34.7727C23.1471 33.7633 23.3318 32.8969 23.7011 32.1737C24.0704 31.4473 24.5751 30.8903 25.2153 30.5025C25.8554 30.1116 26.5833 29.9162 27.3989 29.9162C27.9005 29.9162 28.3683 29.9885 28.8023 30.1332C29.2393 30.2747 29.6317 30.484 29.9795 30.761C30.3273 31.0349 30.615 31.3704 30.8428 31.7674C31.0705 32.1613 31.2244 32.6122 31.3044 33.12ZM34.2809 35.2898V39.5H32.9006V30.0455H34.2624V33.5632H34.3501C34.5163 33.1816 34.7702 32.8784 35.1119 32.6538C35.4535 32.4291 35.8997 32.3168 36.4506 32.3168C36.9369 32.3168 37.3616 32.4168 37.7248 32.6168C38.091 32.8169 38.3742 33.1154 38.5742 33.5124C38.7773 33.9064 38.8789 34.3988 38.8789 34.9897V39.5H37.4986V35.1559C37.4986 34.6358 37.3647 34.2326 37.0969 33.9464C36.8292 33.6571 36.4568 33.5124 35.9798 33.5124C35.6535 33.5124 35.3612 33.5817 35.1026 33.7202C34.8472 33.8587 34.6456 34.0618 34.4979 34.3295C34.3532 34.5942 34.2809 34.9143 34.2809 35.2898ZM42.7844 39.657C42.3351 39.657 41.9289 39.5739 41.5657 39.4077C41.2025 39.2384 40.9148 38.9937 40.7024 38.6737C40.4931 38.3536 40.3885 37.9612 40.3885 37.4964C40.3885 37.0964 40.4654 36.767 40.6193 36.5085C40.7732 36.25 40.9809 36.0453 41.2425 35.8945C41.5041 35.7437 41.7965 35.6299 42.1197 35.5529C42.4428 35.476 42.7721 35.4175 43.1076 35.3775C43.5323 35.3282 43.877 35.2882 44.1417 35.2575C44.4064 35.2236 44.5987 35.1697 44.7188 35.0959C44.8388 35.022 44.8988 34.902 44.8988 34.7358V34.7035C44.8988 34.3003 44.7849 33.9879 44.5572 33.7663C44.3325 33.5447 43.997 33.4339 43.5508 33.4339C43.0861 33.4339 42.7198 33.537 42.4521 33.7433C42.1874 33.9464 42.0043 34.1726 41.9027 34.4219L40.6055 34.1264C40.7594 33.6955 40.984 33.3478 41.2795 33.0831C41.578 32.8153 41.9212 32.6214 42.3089 32.5014C42.6967 32.3783 43.1045 32.3168 43.5323 32.3168C43.8155 32.3168 44.1155 32.3506 44.4325 32.4183C44.7526 32.483 45.0511 32.603 45.3281 32.7784C45.6082 32.9538 45.8375 33.2047 46.016 33.5309C46.1945 33.854 46.2837 34.2741 46.2837 34.7912V39.5H44.9357V38.5305H44.8803C44.7911 38.709 44.6572 38.8845 44.4787 39.0568C44.3002 39.2292 44.0709 39.3723 43.7908 39.4862C43.5108 39.6 43.1753 39.657 42.7844 39.657ZM43.0845 38.549C43.4661 38.549 43.7924 38.4736 44.0632 38.3228C44.3371 38.172 44.5449 37.975 44.6864 37.7319C44.8311 37.4857 44.9034 37.2225 44.9034 36.9425V36.0284C44.8542 36.0777 44.7588 36.1238 44.6172 36.1669C44.4787 36.2069 44.3202 36.2423 44.1417 36.2731C43.9632 36.3008 43.7893 36.3269 43.62 36.3516C43.4508 36.3731 43.3092 36.3916 43.1953 36.407C42.9276 36.4408 42.6829 36.4978 42.4613 36.5778C42.2428 36.6578 42.0674 36.7732 41.935 36.924C41.8058 37.0717 41.7411 37.2687 41.7411 37.5149C41.7411 37.8565 41.8673 38.1151 42.1197 38.2905C42.372 38.4628 42.6937 38.549 43.0845 38.549ZM49.5026 35.2898V39.5H48.1222V32.4091H49.4472V33.5632H49.5349C49.698 33.1877 49.9535 32.8861 50.3012 32.6584C50.6521 32.4306 51.0937 32.3168 51.6262 32.3168C52.1093 32.3168 52.5325 32.4183 52.8957 32.6214C53.2588 32.8215 53.5405 33.12 53.7405 33.517C53.9405 33.9141 54.0406 34.4049 54.0406 34.9897V39.5H52.6602V35.1559C52.6602 34.6419 52.5264 34.2403 52.2586 33.951C51.9909 33.6586 51.6231 33.5124 51.1553 33.5124C50.8352 33.5124 50.5505 33.5817 50.3012 33.7202C50.055 33.8587 49.8596 34.0618 49.7149 34.3295C49.5734 34.5942 49.5026 34.9143 49.5026 35.2898ZM58.8648 42.3068C58.3016 42.3068 57.8169 42.233 57.4106 42.0852C57.0074 41.9375 56.6781 41.7421 56.4227 41.4989C56.1672 41.2558 55.9764 40.9896 55.8502 40.7003L57.0367 40.2109C57.1198 40.3464 57.2306 40.4895 57.3691 40.6403C57.5106 40.7942 57.7014 40.925 57.9415 41.0327C58.1846 41.1404 58.497 41.1942 58.8786 41.1942C59.4018 41.1942 59.8343 41.0665 60.1759 40.8111C60.5175 40.5587 60.6883 40.1555 60.6883 39.6016V38.2074H60.6006C60.5175 38.3582 60.3975 38.5259 60.2405 38.7106C60.0866 38.8952 59.8743 39.0553 59.6034 39.1907C59.3326 39.3261 58.9802 39.3938 58.5463 39.3938C57.9861 39.3938 57.4814 39.263 57.032 39.0014C56.5858 38.7367 56.2319 38.3474 55.9703 37.8335C55.7117 37.3164 55.5825 36.6809 55.5825 35.9268C55.5825 35.1728 55.7102 34.5265 55.9656 33.9879C56.2242 33.4493 56.5781 33.0369 57.0274 32.7507C57.4768 32.4614 57.9861 32.3168 58.5555 32.3168C58.9956 32.3168 59.3511 32.3906 59.6219 32.5384C59.8927 32.683 60.1035 32.8523 60.2544 33.0462C60.4082 33.2401 60.5267 33.4109 60.6098 33.5586H60.7114V32.4091H62.064V39.657C62.064 40.2663 61.9224 40.7665 61.6393 41.1573C61.3561 41.5482 60.973 41.8375 60.4898 42.0252C60.0097 42.2129 59.468 42.3068 58.8648 42.3068ZM58.8509 38.2489C59.248 38.2489 59.5834 38.1566 59.8573 37.9719C60.1343 37.7842 60.3436 37.5165 60.4852 37.1687C60.6298 36.8178 60.7021 36.3977 60.7021 35.9084C60.7021 35.4313 60.6314 35.0112 60.4898 34.6481C60.3482 34.2849 60.1405 34.0018 59.8666 33.7987C59.5927 33.5924 59.2541 33.4893 58.8509 33.4893C58.4355 33.4893 58.0892 33.5971 57.8122 33.8125C57.5352 34.0249 57.326 34.3142 57.1844 34.6804C57.0459 35.0466 56.9767 35.456 56.9767 35.9084C56.9767 36.3731 57.0474 36.7809 57.189 37.1317C57.3306 37.4826 57.5399 37.7565 57.8169 37.9535C58.0969 38.1504 58.4416 38.2489 58.8509 38.2489ZM66.9713 39.6431C66.2727 39.6431 65.671 39.4938 65.1663 39.1953C64.6646 38.8937 64.2768 38.4705 64.0029 37.9258C63.7321 37.378 63.5967 36.7363 63.5967 36.0007C63.5967 35.2744 63.7321 34.6342 64.0029 34.0803C64.2768 33.5263 64.6585 33.0939 65.1478 32.783C65.6402 32.4722 66.2158 32.3168 66.8744 32.3168C67.2745 32.3168 67.6623 32.3829 68.0377 32.5153C68.4132 32.6476 68.7502 32.8554 69.0487 33.1385C69.3473 33.4216 69.5827 33.7894 69.7551 34.2418C69.9274 34.6912 70.0136 35.2375 70.0136 35.8807V36.37H64.3769V35.3359H68.661C68.661 34.9728 68.5871 34.6512 68.4394 34.3711C68.2916 34.0879 68.0839 33.8648 67.8161 33.7017C67.5515 33.5386 67.2406 33.457 66.8836 33.457C66.4958 33.457 66.1573 33.5524 65.868 33.7433C65.5818 33.931 65.3602 34.1772 65.2032 34.4819C65.0493 34.7835 64.9724 35.1113 64.9724 35.4652V36.2731C64.9724 36.747 65.0555 37.1502 65.2217 37.4826C65.391 37.815 65.6264 38.0689 65.928 38.2443C66.2296 38.4167 66.582 38.5028 66.9852 38.5028C67.2468 38.5028 67.4853 38.4659 67.7007 38.392C67.9162 38.3151 68.1024 38.2012 68.2593 38.0504C68.4163 37.8996 68.5363 37.7134 68.6194 37.4918L69.9259 37.7273C69.8212 38.112 69.6335 38.449 69.3627 38.7383C69.0949 39.0245 68.7579 39.2476 68.3517 39.4077C67.9485 39.5646 67.4884 39.6431 66.9713 39.6431ZM76.8587 34.1403L75.6076 34.3619C75.5553 34.2018 75.4722 34.0495 75.3583 33.9048C75.2475 33.7602 75.0967 33.6417 74.9059 33.5494C74.7151 33.457 74.4766 33.4109 74.1903 33.4109C73.7995 33.4109 73.4732 33.4986 73.2116 33.674C72.95 33.8464 72.8192 34.0695 72.8192 34.3434C72.8192 34.5804 72.907 34.7712 73.0824 34.9158C73.2578 35.0605 73.541 35.179 73.9318 35.2713L75.0582 35.5298C75.7107 35.6806 76.197 35.913 76.517 36.2269C76.8371 36.5408 76.9972 36.9486 76.9972 37.4503C76.9972 37.875 76.8741 38.2536 76.6278 38.5859C76.3847 38.9152 76.0446 39.1738 75.6076 39.3615C75.1737 39.5492 74.6705 39.6431 74.098 39.6431C73.304 39.6431 72.6561 39.4738 72.1545 39.1353C71.6528 38.7937 71.3451 38.3089 71.2312 37.6811L72.5653 37.478C72.6484 37.8258 72.8192 38.0889 73.0778 38.2674C73.3363 38.4428 73.6733 38.5305 74.0888 38.5305C74.5412 38.5305 74.9028 38.4367 75.1737 38.2489C75.4445 38.0581 75.5799 37.8258 75.5799 37.5518C75.5799 37.3303 75.4968 37.1441 75.3306 36.9933C75.1675 36.8424 74.9167 36.7286 74.5781 36.6516L73.3778 36.3885C72.7161 36.2377 72.2268 35.9976 71.9098 35.6683C71.5959 35.339 71.4389 34.922 71.4389 34.4173C71.4389 33.9987 71.5559 33.6325 71.7898 33.3185C72.0237 33.0046 72.3468 32.7599 72.7592 32.5845C73.1716 32.406 73.6441 32.3168 74.1765 32.3168C74.9428 32.3168 75.546 32.483 75.9862 32.8153C76.4263 33.1446 76.7171 33.5863 76.8587 34.1403Z" fill="#867E79"/>
<path opacity="0.7" d="M26.1951 132.5H23.1344V123.045H26.2921C27.2185 123.045 28.014 123.235 28.6788 123.613C29.3436 123.989 29.8529 124.529 30.2069 125.234C30.5639 125.935 30.7424 126.777 30.7424 127.759C30.7424 128.744 30.5623 129.59 30.2022 130.298C29.8452 131.006 29.3282 131.551 28.6511 131.932C27.974 132.311 27.1554 132.5 26.1951 132.5ZM24.5609 131.254H26.1167C26.8368 131.254 27.4354 131.118 27.9125 130.847C28.3895 130.573 28.7465 130.178 28.9835 129.661C29.2205 129.141 29.339 128.507 29.339 127.759C29.339 127.017 29.2205 126.388 28.9835 125.871C28.7496 125.354 28.4003 124.961 27.9355 124.694C27.4708 124.426 26.8938 124.292 26.2044 124.292H24.5609V131.254ZM35.4616 132.643C34.7629 132.643 34.1613 132.494 33.6565 132.195C33.1549 131.894 32.7671 131.471 32.4932 130.926C32.2223 130.378 32.0869 129.736 32.0869 129.001C32.0869 128.274 32.2223 127.634 32.4932 127.08C32.7671 126.526 33.1487 126.094 33.6381 125.783C34.1305 125.472 34.706 125.317 35.3646 125.317C35.7647 125.317 36.1525 125.383 36.528 125.515C36.9034 125.648 37.2404 125.855 37.539 126.138C37.8375 126.422 38.0729 126.789 38.2453 127.242C38.4176 127.691 38.5038 128.237 38.5038 128.881V129.37H32.8671V128.336H37.1512C37.1512 127.973 37.0773 127.651 36.9296 127.371C36.7819 127.088 36.5741 126.865 36.3064 126.702C36.0417 126.539 35.7309 126.457 35.3738 126.457C34.9861 126.457 34.6475 126.552 34.3582 126.743C34.072 126.931 33.8504 127.177 33.6934 127.482C33.5396 127.783 33.4626 128.111 33.4626 128.465V129.273C33.4626 129.747 33.5457 130.15 33.7119 130.483C33.8812 130.815 34.1166 131.069 34.4182 131.244C34.7198 131.417 35.0722 131.503 35.4754 131.503C35.737 131.503 35.9755 131.466 36.191 131.392C36.4064 131.315 36.5926 131.201 36.7496 131.05C36.9065 130.9 37.0265 130.713 37.1096 130.492L38.4161 130.727C38.3115 131.112 38.1237 131.449 37.8529 131.738C37.5851 132.025 37.2481 132.248 36.8419 132.408C36.4387 132.565 35.9786 132.643 35.4616 132.643ZM40.0353 135.159V125.409H41.3833V126.559H41.4988C41.5788 126.411 41.6942 126.24 41.845 126.046C41.9958 125.852 42.2051 125.683 42.4728 125.538C42.7406 125.391 43.0945 125.317 43.5346 125.317C44.1071 125.317 44.618 125.461 45.0673 125.751C45.5166 126.04 45.869 126.457 46.1245 127.002C46.383 127.547 46.5123 128.202 46.5123 128.968C46.5123 129.735 46.3845 130.392 46.1291 130.94C45.8736 131.484 45.5228 131.904 45.0765 132.2C44.6303 132.492 44.1209 132.638 43.5485 132.638C43.1176 132.638 42.7652 132.566 42.4913 132.422C42.2205 132.277 42.0081 132.108 41.8542 131.914C41.7003 131.72 41.5819 131.547 41.4988 131.397H41.4157V135.159H40.0353ZM41.388 128.955C41.388 129.453 41.4603 129.89 41.6049 130.266C41.7496 130.641 41.9589 130.935 42.2328 131.147C42.5067 131.357 42.8422 131.461 43.2392 131.461C43.6516 131.461 43.9963 131.352 44.2733 131.134C44.5502 130.912 44.7595 130.612 44.9011 130.233C45.0458 129.855 45.1181 129.429 45.1181 128.955C45.1181 128.487 45.0473 128.067 44.9057 127.694C44.7672 127.322 44.5579 127.028 44.2779 126.812C44.0009 126.597 43.6547 126.489 43.2392 126.489C42.8391 126.489 42.5005 126.592 42.2235 126.799C41.9496 127.005 41.7419 127.293 41.6003 127.662C41.4587 128.031 41.388 128.462 41.388 128.955ZM51.1149 132.643C50.4163 132.643 49.8146 132.494 49.3098 132.195C48.8082 131.894 48.4204 131.471 48.1465 130.926C47.8757 130.378 47.7402 129.736 47.7402 129.001C47.7402 128.274 47.8757 127.634 48.1465 127.08C48.4204 126.526 48.802 126.094 49.2914 125.783C49.7838 125.472 50.3593 125.317 51.0179 125.317C51.418 125.317 51.8058 125.383 52.1813 125.515C52.5568 125.648 52.8938 125.855 53.1923 126.138C53.4908 126.422 53.7263 126.789 53.8986 127.242C54.071 127.691 54.1571 128.237 54.1571 128.881V129.37H48.5204V128.336H52.8045C52.8045 127.973 52.7306 127.651 52.5829 127.371C52.4352 127.088 52.2275 126.865 51.9597 126.702C51.695 126.539 51.3842 126.457 51.0272 126.457C50.6394 126.457 50.3008 126.552 50.0115 126.743C49.7253 126.931 49.5037 127.177 49.3468 127.482C49.1929 127.783 49.1159 128.111 49.1159 128.465V129.273C49.1159 129.747 49.199 130.15 49.3652 130.483C49.5345 130.815 49.7699 131.069 50.0716 131.244C50.3732 131.417 50.7256 131.503 51.1287 131.503C51.3903 131.503 51.6288 131.466 51.8443 131.392C52.0597 131.315 52.2459 131.201 52.4029 131.05C52.5598 130.9 52.6799 130.713 52.763 130.492L54.0694 130.727C53.9648 131.112 53.777 131.449 53.5062 131.738C53.2385 132.025 52.9015 132.248 52.4952 132.408C52.092 132.565 51.6319 132.643 51.1149 132.643ZM57.069 128.29V132.5H55.6887V125.409H57.0136V126.563H57.1013C57.2644 126.188 57.5199 125.886 57.8676 125.658C58.2185 125.431 58.6601 125.317 59.1926 125.317C59.6758 125.317 60.0989 125.418 60.4621 125.621C60.8253 125.821 61.1069 126.12 61.3069 126.517C61.507 126.914 61.607 127.405 61.607 127.99V132.5H60.2267V128.156C60.2267 127.642 60.0928 127.24 59.825 126.951C59.5573 126.659 59.1895 126.512 58.7217 126.512C58.4016 126.512 58.1169 126.582 57.8676 126.72C57.6214 126.859 57.426 127.062 57.2813 127.33C57.1398 127.594 57.069 127.914 57.069 128.29ZM66.1127 132.638C65.5402 132.638 65.0293 132.492 64.58 132.2C64.1337 131.904 63.7829 131.484 63.5274 130.94C63.2751 130.392 63.1489 129.735 63.1489 128.968C63.1489 128.202 63.2766 127.547 63.532 127.002C63.7906 126.457 64.1445 126.04 64.5938 125.751C65.0432 125.461 65.5525 125.317 66.1219 125.317C66.562 125.317 66.9159 125.391 67.1837 125.538C67.4545 125.683 67.6638 125.852 67.8115 126.046C67.9623 126.24 68.0793 126.411 68.1624 126.559H68.2455V123.045H69.6258V132.5H68.2778V131.397H68.1624C68.0793 131.547 67.9593 131.72 67.8023 131.914C67.6484 132.108 67.436 132.277 67.1652 132.422C66.8944 132.566 66.5435 132.638 66.1127 132.638ZM66.4173 131.461C66.8144 131.461 67.1498 131.357 67.4237 131.147C67.7007 130.935 67.91 130.641 68.0516 130.266C68.1962 129.89 68.2686 129.453 68.2686 128.955C68.2686 128.462 68.1978 128.031 68.0562 127.662C67.9146 127.293 67.7069 127.005 67.433 126.799C67.1591 126.592 66.8205 126.489 66.4173 126.489C66.0019 126.489 65.6556 126.597 65.3786 126.812C65.1017 127.028 64.8924 127.322 64.7508 127.694C64.6123 128.067 64.5431 128.487 64.5431 128.955C64.5431 129.429 64.6138 129.855 64.7554 130.233C64.897 130.612 65.1063 130.912 65.3833 131.134C65.6633 131.352 66.008 131.461 66.4173 131.461ZM74.652 132.643C73.9534 132.643 73.3517 132.494 72.8469 132.195C72.3453 131.894 71.9575 131.471 71.6836 130.926C71.4128 130.378 71.2773 129.736 71.2773 129.001C71.2773 128.274 71.4128 127.634 71.6836 127.08C71.9575 126.526 72.3391 126.094 72.8285 125.783C73.3209 125.472 73.8964 125.317 74.555 125.317C74.9551 125.317 75.3429 125.383 75.7184 125.515C76.0939 125.648 76.4309 125.855 76.7294 126.138C77.0279 126.422 77.2634 126.789 77.4357 127.242C77.6081 127.691 77.6942 128.237 77.6942 128.881V129.37H72.0575V128.336H76.3416C76.3416 127.973 76.2678 127.651 76.12 127.371C75.9723 127.088 75.7646 126.865 75.4968 126.702C75.2321 126.539 74.9213 126.457 74.5643 126.457C74.1765 126.457 73.8379 126.552 73.5487 126.743C73.2624 126.931 73.0408 127.177 72.8839 127.482C72.73 127.783 72.6531 128.111 72.6531 128.465V129.273C72.6531 129.747 72.7362 130.15 72.9023 130.483C73.0716 130.815 73.3071 131.069 73.6087 131.244C73.9103 131.417 74.2627 131.503 74.6658 131.503C74.9274 131.503 75.166 131.466 75.3814 131.392C75.5968 131.315 75.783 131.201 75.94 131.05C76.0969 130.9 76.217 130.713 76.3001 130.492L77.6065 130.727C77.5019 131.112 77.3142 131.449 77.0433 131.738C76.7756 132.025 76.4386 132.248 76.0323 132.408C75.6291 132.565 75.169 132.643 74.652 132.643ZM80.6061 128.29V132.5H79.2258V125.409H80.5507V126.563H80.6384C80.8015 126.188 81.057 125.886 81.4047 125.658C81.7556 125.431 82.1972 125.317 82.7297 125.317C83.2129 125.317 83.636 125.418 83.9992 125.621C84.3624 125.821 84.644 126.12 84.844 126.517C85.0441 126.914 85.1441 127.405 85.1441 127.99V132.5H83.7638V128.156C83.7638 127.642 83.6299 127.24 83.3621 126.951C83.0944 126.659 82.7266 126.512 82.2588 126.512C81.9387 126.512 81.654 126.582 81.4047 126.72C81.1585 126.859 80.9631 127.062 80.8184 127.33C80.6769 127.594 80.6061 127.914 80.6061 128.29ZM90.3053 125.409V126.517H86.4321V125.409H90.3053ZM87.4708 123.71H88.8511V130.418C88.8511 130.686 88.8911 130.887 88.9711 131.023C89.0512 131.155 89.1543 131.246 89.2805 131.295C89.4097 131.341 89.5497 131.364 89.7006 131.364C89.8113 131.364 89.9083 131.357 89.9914 131.341C90.0745 131.326 90.1391 131.314 90.1853 131.304L90.4346 132.445C90.3546 132.475 90.2407 132.506 90.093 132.537C89.9452 132.571 89.7606 132.589 89.539 132.592C89.1758 132.598 88.8373 132.534 88.5233 132.398C88.2094 132.263 87.9555 132.054 87.7616 131.771C87.5677 131.487 87.4708 131.132 87.4708 130.704V123.71Z" fill="#867E79"/>
<path d="M133.5 168.5H220.5V63.5M220.5 63.5L205.5 78.5M220.5 63.5L235.5 78.5" stroke="#B4AFAC" stroke-width="1.2"/>
<path d="M133 98.5H160V63.5M160 63.5L145 78.5M160 63.5L175 78.5" stroke="#B4AFAC" stroke-width="1.2"/>
<path d="M168.356 145.075C166.61 145.551 164.677 145.113 163.318 143.755L161.491 141.928C159.465 139.901 159.486 136.593 161.54 134.54C163.593 132.486 166.901 132.465 168.928 134.492L170.755 136.318C172.113 137.677 172.551 139.611 172.074 141.356" stroke="#B4AFAC" stroke-width="1.2"/>
<path d="M170.215 146.933C169.738 148.679 170.177 150.613 171.535 151.971L173.362 153.798C175.389 155.825 178.696 155.803 180.75 153.75C182.803 151.696 182.825 148.389 180.798 146.362L178.971 144.535C177.613 143.177 175.679 142.738 173.933 143.215" stroke="#B4AFAC" stroke-width="1.2"/>
<path d="M165.877 138.877L176.412 149.412" stroke="#B4AFAC" stroke-width="1.2"/>
</svg>
