<svg xmlns="http://www.w3.org/2000/svg" width="260" height="160" viewBox="0 0 260 160" fill="none">
  <path
    d="M21 0.599609H239C249.714 0.599609 258.4 9.28568 258.4 20V139C258.4 149.714 249.714 158.4 239 158.4H21C10.2857 158.4 1.59961 149.714 1.59961 139V20C1.59961 9.28568 10.2857 0.599609 21 0.599609Z"
    fill="var(--clr-bg-1)" stroke="var(--clr-border-2)" stroke-width="1.2" />
  <path d="M12 32H66M12 48.6667H66M12 65.3333H66M12 82H66M12 98.6667H66"
    stroke="var(--clr-border-3)" stroke-width="1.2" />
  <rect x="11.6" y="10.6" width="53.8" height="137.8" rx="9.4" stroke="var(--clr-border-2)"
    stroke-width="1.2" />
  <rect opacity="0.12" x="72" y="10" width="64" height="139" rx="10" fill="var(--clr-core-ntrl-60)" />
  <path
    d="M152 10.5996H239C244.191 10.5996 248.4 14.8085 248.4 20V139C248.4 144.191 244.191 148.4 239 148.4H152C146.809 148.4 142.6 144.191 142.6 139V20C142.6 14.8085 146.809 10.5996 152 10.5996Z"
    fill="var(--clr-bg-1)" stroke="var(--clr-border-2)" stroke-width="1.2" />
  <path
    d="M156 18.5996H235C237.982 18.5996 240.4 21.0177 240.4 24V61C240.4 63.9823 237.982 66.4004 235 66.4004H156C153.018 66.4004 150.6 63.9823 150.6 61V24C150.6 21.0177 153.018 18.5996 156 18.5996Z"
    fill="var(--clr-theme-pop-bg)" stroke="var(--clr-scale-pop-50)" stroke-width="1.2" />
  <text fill="var(--clr-theme-pop-element)" xml:space="preserve" style="white-space: pre"
    font-family="Inter" font-size="12" font-weight="500" letter-spacing="0em">
    <tspan x="173" y="34.8636">Branch #1</tspan>
  </text>
  <g opacity="0.5">
    <path d="M150 43H241" stroke="var(--clr-scale-pop-50)" stroke-width="1.2" />
    <path d="M150 55H241" stroke="var(--clr-scale-pop-50)" stroke-width="1.2" />
  </g>
  <text opacity="0.7" fill="var(--clr-text-2)" xml:space="preserve" style="white-space: pre"
    font-family="Inter" font-size="12" font-weight="500" letter-spacing="0em">
    <tspan x="173" y="88.8636">Branch #2</tspan>
  </text>
  <path d="M150 97H241" stroke="var(--clr-border-2)" stroke-width="1.2" />
  <path d="M150 109H241" stroke="var(--clr-border-2)" stroke-width="1.2" />
  <path
    d="M156 72.5996H235C237.982 72.5996 240.4 75.0177 240.4 78V114C240.4 116.982 237.982 119.4 235 119.4H156C153.018 119.4 150.6 116.982 150.6 114V78C150.6 75.0177 153.018 72.5996 156 72.5996Z"
    stroke="var(--clr-border-1)" stroke-width="1.2" />
  <circle cx="161" cy="30" r="5" fill="var(--clr-scale-pop-50)" />
  <circle cx="161" cy="85" r="5" fill="var(--clr-border-1)" />
  <path d="M161 30L161 73" stroke="var(--clr-scale-pop-50)" stroke-width="2.2" />
  <path d="M161 72L161 85" stroke="var(--clr-border-1)" stroke-width="2.2" />
  <path
    d="M100.535 66.2527C98.7888 66.7295 96.8551 66.2913 95.4967 64.9329L93.6698 63.106C91.643 61.0792 91.6647 57.7716 93.7181 55.7181C95.7716 53.6647 99.0793 53.643 101.106 55.6698L102.933 57.4967C104.291 58.8551 104.73 60.7888 104.253 62.5346"
    stroke="var(--clr-border-1)" stroke-width="1.2" />
  <path
    d="M102.394 68.1118C101.917 69.8576 102.355 71.7913 103.714 73.1497L105.54 74.9766C107.567 77.0033 110.875 76.9817 112.928 74.9283C114.982 72.8748 115.003 69.5671 112.977 67.5403L111.15 65.7135C109.791 64.3551 107.858 63.9168 106.112 64.3936"
    stroke="var(--clr-border-1)" stroke-width="1.2" />
  <path d="M98.0559 60.0558L108.591 70.5904" stroke="var(--clr-border-1)" stroke-width="1.2" />
  <path d="M146.265 102H104.265V83.6018M146.265 31H104.265V49.3982" stroke="var(--clr-border-1)"
    stroke-width="1.2" />
</svg>