<!-- Generated by SVGTokenizer v1.0.5 (https://github.com/FussuChalice/SVGTokenizer), 03/23/2025,
-1:58:35 PM -->
<svg xmlns="http://www.w3.org/2000/svg" width="260" height="160" viewBox="0 0 260 160" fill="none">
  <g id="6455:15103">
    <path id="6454:15018"
      d="M21 0.6H239C249.714 0.6 258.4 9.28568 258.4 20V139C258.4 149.714 249.714 158.4 239 158.4H21C10.2857 158.4 1.6 149.714 1.6 139V20C1.6 9.28568 10.2857 0.6 21 0.6Z"
      fill="var(--clr-bg-1)" stroke="var(--clr-border-2)" stroke-width="1.2" />
    <g id="6454:15019">
      <path id="6454:15020" d="M12 32H66M12 48.6667H66M12 65.3333H66M12 82H66M12 98.6667H66"
        stroke="var(--clr-border-3)" stroke-width="1.2" />
      <rect id="6454:15021" x="11.6" y="10.6" width="53.8" height="137.8" rx="9.4"
        stroke="var(--clr-border-2)" stroke-width="1.2" />
    </g>
    <rect id="6456:15310" opacity="0.12" x="72" y="10" width="64" height="139" rx="10"
      fill="var(--clr-core-ntrl-60)" />
    <g id="6456:15317">
      <path id="6456:15318"
        d="M142.6 31.6H248.4V139C248.4 144.191 244.191 148.4 239 148.4H152C146.809 148.4 142.6 144.191 142.6 139V31.6Z"
        fill="var(--clr-bg-1)" stroke="var(--clr-border-2)" stroke-width="1.2" />
      <g id="6456:15319">
        <g id="6456:15320">
          <path id="6456:15321"
            d="M152 10.6H176C181.191 10.6 185.4 14.8085 185.4 20V31.4H142.6V20C142.6 14.8085 146.809 10.6 152 10.6Z"
            fill="var(--clr-bg-1)" stroke="var(--clr-border-2)" stroke-width="1.2" />
        </g>
        <path id="6456:15323"
          d="M238 10.6H239C244.191 10.6 248.4 14.8085 248.4 20V31.4H228.6V20C228.6 14.8085 232.809 10.6 238 10.6Z"
          fill="var(--clr-bg-1)" stroke="var(--clr-border-2)" stroke-width="1.2" />
        <g id="6456:15324">
          <path id="6456:15325"
            d="M195 10.6H219C224.191 10.6 228.4 14.8085 228.4 20V31.4H185.6V20C185.6 14.8085 189.809 10.6 195 10.6Z"
            fill="var(--clr-bg-1)" stroke="var(--clr-border-2)" stroke-width="1.2" />
        </g>
      </g>
    </g>
    <g id="6456:15345">
      <path id="6456:15346"
        d="M156 39.6H235C237.982 39.6 240.4 42.0177 240.4 45V82C240.4 84.9823 237.982 87.4 235 87.4H156C153.018 87.4 150.6 84.9823 150.6 82V45C150.6 42.0177 153.018 39.6 156 39.6Z"
        fill="var(--clr-theme-pop-bg)" stroke="var(--clr-scale-pop-50)" stroke-width="1.2" />
      <text fill="var(--clr-theme-pop-element)" xml:space="preserve" style="white-space: pre"
        font-family="Inter"
        font-size="12" font-weight="500" letter-spacing="0em"><tspan x="173" y="55.8636">Branch #1</tspan></text>
      <g id="6456:15348" opacity="0.5">
        <path id="6456:15349" d="M150 64H241" stroke="var(--clr-scale-pop-50)" stroke-width="1.2" />
        <path id="6456:15350" d="M150 76H241" stroke="var(--clr-scale-pop-50)" stroke-width="1.2" />
      </g>
      <text opacity="0.7" fill="var(--clr-text-2)" xml:space="preserve" style="white-space: pre"
        font-family="Inter" font-size="12" font-weight="500" letter-spacing="0em"><tspan x="173" y="109.864">Branch #2</tspan></text>
      <g id="6456:15352">
        <path id="6456:15353" d="M150 118H241" stroke="var(--clr-border-2)" stroke-width="1.2" />
        <path id="6456:15354" d="M150 130H241" stroke="var(--clr-border-2)" stroke-width="1.2" />
      </g>
      <path id="6456:15355"
        d="M156 93.6H235C237.982 93.6 240.4 96.0177 240.4 99V135C240.4 137.982 237.982 140.4 235 140.4H156C153.018 140.4 150.6 137.982 150.6 135V99C150.6 96.0177 153.018 93.6 156 93.6Z"
        stroke="var(--clr-border-1)" stroke-width="1.2" />
    </g>
    <circle id="6456:15356" cx="161" cy="51" r="5" fill="var(--clr-scale-pop-50)" />
    <circle id="6456:15357" cx="161" cy="106" r="5" fill="var(--clr-border-1)" />
    <path id="6456:15358" d="M161 51L161 94" stroke="var(--clr-scale-pop-50)" stroke-width="2.2" />
    <path id="6456:15359" d="M161 93L161 106" stroke="var(--clr-border-1)" stroke-width="2.2" />
    <g id="6456:15388">
      <path id="6456:15389"
        d="M100.535 86.2527C98.7888 86.7295 96.8551 86.2913 95.4967 84.9329L93.6698 83.106C91.643 81.0792 91.6647 77.7716 93.7181 75.7181C95.7716 73.6647 99.0793 73.643 101.106 75.6698L102.933 77.4967C104.291 78.8551 104.73 80.7888 104.253 82.5346"
        stroke="var(--clr-border-1)" stroke-width="1.2" />
      <path id="6456:15390"
        d="M102.394 88.1118C101.917 89.8577 102.355 91.7914 103.713 93.1497L105.54 94.9766C107.567 97.0034 110.875 96.9818 112.928 94.9283C114.982 92.8749 115.003 89.5672 112.977 87.5404L111.15 85.7135C109.791 84.3551 107.858 83.9169 106.112 84.3937"
        stroke="var(--clr-border-1)" stroke-width="1.2" />
      <path id="6456:15391" d="M98.0559 80.0557L108.591 90.5903" stroke="var(--clr-border-1)"
        stroke-width="1.2" />
    </g>
    <path id="6456:15392" d="M146.265 122H104.265V103.602M146.265 51H104.265V69.3982"
      stroke="var(--clr-border-1)" stroke-width="1.2" />
  </g>
</svg>