<svg xmlns="http://www.w3.org/2000/svg" width="100%" height="100%" viewBox="0 0 400 400" fill="none">
  <path
    d="M234.411 197.786C237.606 198.663 240.908 196.784 241.786 193.589C242.663 190.394 240.784 187.092 237.589 186.214L234.411 197.786ZM209.276 219.739L210.203 213.811C194.893 211.417 186.902 207.753 183.636 204.778C182.886 204.095 182.508 203.556 182.325 203.209C182.154 202.884 182.146 202.717 182.145 202.672C182.145 202.662 182.116 202.072 183.262 200.95C185.743 198.519 191.674 195.757 201.008 194.677C210.087 193.627 221.616 194.272 234.411 197.786L236 192L237.589 186.214C223.422 182.324 210.345 181.517 199.628 182.757C189.165 183.968 180.108 187.24 174.864 192.378C172.147 195.04 170.072 198.618 170.147 202.883C170.222 207.161 172.437 210.809 175.556 213.649C181.542 219.103 192.52 223.192 208.349 225.667L209.276 219.739Z"
    fill="var(--clr-art-scene-outline)" />
  <path
    d="M208.346 233.711C205.009 233.948 202.053 231.355 201.553 228.208C199.73 216.725 210.414 206.367 215.733 211.237C229.76 202.683 259.451 214.149 246.177 225.29C248.339 231.646 248.419 236.512 240.98 239.727C242.361 243.789 241.868 246.288 239.657 249.706C232.81 260.285 209.902 253.814 214.103 242.158C212.946 241.327 208.668 238.893 208.346 233.711Z"
    fill="var(--clr-art-scene-fill)" />
  <path
    d="M214.103 242.158C212.946 241.327 208.668 238.893 208.346 233.711C205.009 233.948 202.053 231.355 201.553 228.208C199.73 216.725 210.414 206.367 215.733 211.237C229.76 202.683 259.451 214.149 246.177 225.29C248.339 231.646 248.419 236.512 240.98 239.727C242.361 243.789 241.868 246.288 239.657 249.706C232.81 260.285 209.902 253.814 214.103 242.158ZM214.103 242.158C218.072 244.633 221.508 245.855 225.792 246.642M208.817 228.922C208.297 227.144 208.083 220.56 212.969 216.707M220.836 230.103L229.446 235.785M233.131 229.61L223.706 225.118M227.017 220.064L235.57 223.651"
    stroke="var(--clr-art-scene-outline)" stroke-width="1.2" />
  <ellipse opacity="0.12" cx="256.09" cy="368.114" rx="125.289" ry="8.67244"
    fill="var(--clr-art-scene-outline)" />
  <path
    d="M249.522 198.095H261.205H272.887L286.489 318.429C307.854 318.429 346.004 333.977 353.677 369.114H253.328H157.979C162.304 345.694 187.01 318.697 225.71 318.697L249.522 198.095Z"
    fill="var(--clr-art-scene-fill)" />
  <path
    d="M253.328 369.114H353.677C346.004 333.977 307.854 318.429 286.489 318.429L272.887 198.095H261.205M253.328 369.114H157.979C162.304 345.694 187.01 318.697 225.71 318.697L249.522 198.095H261.205M253.328 369.114L261.205 198.095"
    stroke="var(--clr-art-scene-outline)" stroke-width="1.2" />
  <path
    d="M312.633 90.3257C322.486 90.8239 330.102 99.1603 329.71 109.018L328.065 150.372C327.824 156.436 330.654 162.212 335.593 165.738L342.641 170.769C347.643 174.34 350.478 180.216 350.159 186.354L349.772 193.79C349.254 203.743 340.748 211.381 330.797 210.828L203.37 203.747C193.469 203.196 185.878 194.742 186.393 184.839L190.693 102.157C191.209 92.2391 199.66 84.6131 209.578 85.1146L312.633 90.3257Z"
    fill="var(--clr-art-scene-fill)" stroke="var(--clr-art-scene-outline)" stroke-width="1.2" />
  <path
    d="M279.682 207.83L282.475 207.984C292.424 208.534 300.927 200.896 301.444 190.945L305.76 107.849C306.272 97.9848 298.655 89.59 288.787 89.1446V89.1446"
    stroke="var(--clr-art-scene-outline)" stroke-width="1.2" />
  <rect opacity="0.13" x="200.248" y="93.4" width="97.59" height="93.9477" rx="7.86364"
    transform="rotate(2.97753 200.248 93.4)" fill="var(--clr-art-scene-outline)" />
  <path
    d="M253.559 138.397C252.472 153.542 252.553 170.066 267.782 171.938C283.011 173.809 284.117 154.414 285.715 139.252C287.313 124.091 287.266 107.093 271.443 106.657C255.62 106.221 254.647 123.252 253.559 138.397Z"
    fill="var(--clr-art-scene-fill)" stroke="var(--clr-art-scene-outline)" stroke-width="1.2" />
  <path
    d="M271.119 106.762C270.255 115.27 268.808 137.239 267.624 147.744L284.285 148.736C284.424 147.462 285.333 142.974 285.46 141.724C285.545 140.89 285.63 140.065 285.715 139.252C287.275 124.451 287.434 107.554 271.119 106.762Z"
    fill="var(--clr-art-scene-outline)" />
  <path
    d="M206.299 135.286C205.211 150.431 205.293 166.956 220.522 168.827C235.751 170.699 236.857 151.303 238.455 136.141C240.052 120.98 240.006 103.982 224.183 103.546C208.36 103.111 207.387 120.141 206.299 135.286Z"
    fill="var(--clr-art-scene-fill)" stroke="var(--clr-art-scene-outline)" stroke-width="1.2" />
  <path
    d="M223.859 103.651C222.995 112.159 221.548 134.129 220.364 144.633L237.025 145.625C237.164 144.351 238.072 139.863 238.2 138.613C238.285 137.78 238.369 136.954 238.455 136.141C240.015 121.34 240.174 104.443 223.859 103.651Z"
    fill="var(--clr-art-scene-outline)" />
  <path d="M242.23 181.972C243.929 181.125 256.623 175.558 256.623 175.558"
    stroke="var(--clr-art-scene-outline)" stroke-width="1.2" />
  <path
    d="M330.636 185.974L339.968 183.808M330.321 192.04L339.653 189.874M330.005 198.104L339.337 195.938"
    stroke="var(--clr-art-scene-outline)" stroke-width="1.2" />
  <path
    d="M321.945 186.311C322.393 183.027 320.094 180.003 316.811 179.555C313.527 179.107 310.503 181.406 310.055 184.689L321.945 186.311ZM266.5 231.5L263.191 236.505C268.412 239.956 276.816 244.567 285.183 247.125C289.356 248.401 293.883 249.281 298.178 249.036C302.542 248.786 307.147 247.325 310.528 243.437L306 239.5L301.472 235.563C300.853 236.275 299.75 236.926 297.494 237.055C295.168 237.188 292.164 236.711 288.692 235.65C281.767 233.533 274.421 229.544 269.809 226.495L266.5 231.5ZM306 239.5L310.528 243.437C313.337 240.207 315.087 236.118 316.285 231.923C317.494 227.69 318.258 222.919 318.834 217.998C319.411 213.074 319.828 207.741 320.276 202.429C320.728 197.062 321.218 191.645 321.945 186.311L316 185.5L310.055 184.689C309.283 190.355 308.772 196.037 308.318 201.421C307.86 206.859 307.464 211.926 306.916 216.602C306.367 221.281 305.694 225.31 304.746 228.627C303.788 231.982 302.663 234.193 301.472 235.563L306 239.5Z"
    fill="var(--clr-art-scene-outline)" />
  <path
    d="M277.507 186.228C271.349 179.952 261.564 191.773 256.185 199.717C255.32 200.993 254.549 202.131 253.898 203.029C247.811 201.396 242.008 196.471 236.599 191.881C229.497 185.853 223.073 180.401 217.573 183.732C207.441 189.868 231.266 205.753 235.809 207.506C232.437 208.983 229.94 213.488 230.736 216.847C226.655 219.924 225.055 223.683 227.625 227.941C232.045 235.264 248.352 243.287 258.72 238.415C263.81 246.367 272.339 241.751 276.124 235.315C279.419 229.711 281.076 221.875 271.462 219.551C271.051 216.077 267.838 211.885 265.739 209.891C270.711 203.007 281.94 190.746 277.507 186.228Z"
    fill="var(--clr-art-scene-fill)" />
  <path
    d="M258.72 238.415C248.352 243.287 232.045 235.264 227.625 227.941C225.055 223.683 226.655 219.924 230.736 216.847C229.94 213.488 232.437 208.983 235.809 207.506C231.266 205.753 207.441 189.868 217.573 183.732C223.073 180.401 229.497 185.853 236.599 191.881C242.008 196.471 247.811 201.396 253.898 203.029C254.549 202.131 255.32 200.993 256.185 199.717C261.564 191.773 271.349 179.952 277.507 186.228C281.94 190.746 270.711 203.007 265.739 209.891C267.838 211.885 271.051 216.077 271.462 219.551M258.72 238.415C263.81 246.367 272.339 241.751 276.124 235.315C279.419 229.711 281.076 221.875 271.462 219.551M258.72 238.415C260.287 237.801 262.27 236.517 264.075 234.763M271.462 219.551C271.872 223.025 270.544 227.49 266.955 231.719"
    stroke="var(--clr-art-scene-outline)" stroke-width="1.2" />
  <path
    d="M245.897 212.942C247.752 214.594 250.75 216.878 252.924 218.224M241.582 218.819C243.37 220.489 246.785 223.111 248.39 223.968M237.833 224.738C239.136 225.76 242.459 228.128 244.348 229.175"
    stroke="var(--clr-art-scene-outline)" stroke-width="1.2" />
  <path d="M108 132.796V82.796H43.1056L25.5 107.796L43.1056 132.796H108Z"
    fill="var(--clr-art-scene-outline)" stroke="var(--clr-art-scene-outline)" stroke-width="1.2" />
  <path
    d="M50.1313 118.241C64.6038 118.241 76.4934 98.3447 67.5804 94.7982C60.3955 91.9393 55.9819 118.241 71.7887 118.241C80.1027 118.241 85.5382 103.146 80.6114 102.231C75.6846 101.317 71.8024 117.813 86.9722 118.241"
    stroke="var(--clr-art-scene-fill)" stroke-width="1.2" />
  <path d="M100.333 9V314H113.316V9H100.333Z" fill="var(--clr-art-scene-fill)" />
  <path d="M100.333 314V9H113.316V314M100.333 314H113.316M100.333 314H88M113.316 314H135"
    stroke="var(--clr-art-scene-outline)" stroke-width="1.2" />
  <path d="M107 74V24H188L208 49L188 74H107Z" fill="var(--clr-art-scene-fill)"
    stroke="var(--clr-art-scene-outline)" stroke-width="1.2" />
  <path
    d="M121.375 61.5C133.625 57.0898 142.125 37.6522 137.25 36.0188C132.375 34.3854 125 58.2332 139.125 58.2332C153.25 58.2332 156.875 42.0624 153.125 41.0824C149.375 40.1024 142.875 58.2332 157.875 58.2332C172.875 58.2332 175.25 43.3692 170.625 42.2258C166 41.0824 162.875 58.2332 177.25 58.2332"
    stroke="var(--clr-art-scene-outline)" stroke-width="1.2" />
</svg>