<svg xmlns="http://www.w3.org/2000/svg" width="260" height="160" viewBox="0 0 260 160" fill="none">
  <path
    d="M21 0.599609H239C249.714 0.599609 258.4 9.28568 258.4 20V139C258.4 149.714 249.714 158.4 239 158.4H21C10.2857 158.4 1.59961 149.714 1.59961 139V20C1.59961 9.28568 10.2857 0.599609 21 0.599609Z"
    fill="var(--clr-bg-1)" stroke="var(--clr-border-2)" stroke-width="1.2" />
  <path d="M12 46.7357H93M12 63.2833H93M12 79.831H93M12 96.3786H93M12 112.926H93"
    stroke="var(--clr-border-3)" stroke-width="1.2" />
  <rect x="11.6" y="10.6" width="80.8" height="137.8" rx="9.4" stroke="var(--clr-border-1)"
    stroke-width="1.2" />
  <text opacity="0.7" fill="var(--clr-text-2)" xml:space="preserve" style="white-space: pre"
    font-family="Inter" font-size="13" font-weight="500" letter-spacing="0em">
    <tspan x="23.4131" y="32.5987">Changes</tspan>
  </text>
  <path
    d="M165 20C165 14.4772 169.477 10 175 10H239C244.523 10 249 14.4772 249 20V139C249 144.523 244.523 149 239 149H175C169.477 149 165 144.523 165 139V20Z"
    stroke="var(--clr-border-1)" stroke-width="1.2" />
  <path d="M166 42.6667H238M166 95.4165H238M166 113H238M166 130.333H238"
    stroke="var(--clr-border-3)" stroke-width="1.2" />
  <path d="M238 10L238 149" stroke="var(--clr-border-1)" stroke-width="1.2" />
  <rect x="165" y="58" width="73" height="22" fill="var(--clr-theme-pop-soft-hover)"
    stroke="var(--clr-theme-pop-element)" stroke-width="1.2" />
  <text opacity="0.7" fill="var(--clr-text-2)" xml:space="preserve" style="white-space: pre"
    font-family="Inter" font-size="13" font-weight="500" letter-spacing="0em">
    <tspan x="177.101" y="30.7273">Branch</tspan>
  </text>
  <g opacity="0.4">
    <path
      d="M18 54C18 53.4477 18.4477 53 19 53H23C23.5523 53 24 53.4477 24 54V56C24 56.5523 23.5523 57 23 57H19C18.4477 57 18 56.5523 18 56V54Z"
      fill="var(--clr-core-ntrl-60)" />
    <path
      d="M18 71C18 70.4477 18.4477 70 19 70H23C23.5523 70 24 70.4477 24 71V73C24 73.5523 23.5523 74 23 74H19C18.4477 74 18 73.5523 18 73V71Z"
      fill="var(--clr-core-ntrl-60)" />
    <path
      d="M18 88C18 87.4477 18.4477 87 19 87H23C23.5523 87 24 87.4477 24 88V90C24 90.5523 23.5523 91 23 91H19C18.4477 91 18 90.5523 18 90V88Z"
      fill="var(--clr-core-ntrl-60)" />
    <path
      d="M18 105C18 104.448 18.4477 104 19 104H23C23.5523 104 24 104.448 24 105V107C24 107.552 23.5523 108 23 108H19C18.4477 108 18 107.552 18 107V105Z"
      fill="var(--clr-core-ntrl-60)" />
    <path
      d="M28 54C28 53.4477 28.4477 53 29 53H53C53.5523 53 54 53.4477 54 54V56C54 56.5523 53.5523 57 53 57H29C28.4477 57 28 56.5523 28 56V54Z"
      fill="var(--clr-core-ntrl-60)" />
    <path
      d="M28 71C28 70.4477 28.4477 70 29 70H63C63.5523 70 64 70.4477 64 71V73C64 73.5523 63.5523 74 63 74H29C28.4477 74 28 73.5523 28 73V71Z"
      fill="var(--clr-core-ntrl-60)" />
    <path
      d="M28 88C28 87.4477 28.4477 87 29 87H53C53.5523 87 54 87.4477 54 88V90C54 90.5523 53.5523 91 53 91H29C28.4477 91 28 90.5523 28 90V88Z"
      fill="var(--clr-core-ntrl-60)" />
    <path
      d="M28 105C28 104.448 28.4477 104 29 104H73C73.5523 104 74 104.448 74 105V107C74 107.552 73.5523 108 73 108H29C28.4477 108 28 107.552 28 107V105Z"
      fill="var(--clr-core-ntrl-60)" />
  </g>
  <rect opacity="0.17" x="11" y="63" width="82" height="34" fill="var(--clr-theme-pop-element)" />
  <rect opacity="0.12" x="98" y="10" width="62" height="139" rx="10" fill="var(--clr-core-ntrl-60)" />
  <rect x="121.6" y="76.6" width="53.8" height="23.8" rx="5.4" fill="var(--clr-theme-pop-bg)"
    stroke="var(--clr-theme-pop-element)" stroke-width="1.2" />
  <rect x="115.6" y="68.6" width="53.8" height="23.8" rx="5.4" fill="var(--clr-theme-pop-bg)"
    stroke="var(--clr-theme-pop-element)" stroke-width="1.2" />
  <path opacity="0.38"
    d="M123 80.5C123 78.567 124.567 77 126.5 77H146.5C148.433 77 150 78.567 150 80.5V80.5C150 82.433 148.433 84 146.5 84H126.5C124.567 84 123 82.433 123 80.5V80.5Z"
    fill="var(--clr-theme-pop-element)" />
  <circle cx="165.5" cy="70.5" r="9.5" fill="var(--clr-theme-pop-element)" />
  <text fill="var(--clr-theme-pop-on-element)" xml:space="preserve" style="white-space: pre"
    font-family="Inter" font-size="13" font-weight="bold" letter-spacing="0em">
    <tspan x="161.406" y="74.7273">2</tspan>
  </text>
  <path
    d="M165 96.0001V103M169 96.0001V103M173 96.0001V103M162.118 110.5H167.711C167.9 110.5 168.087 110.45 168.237 110.335C168.913 109.815 169.353 109.044 169.736 108.219C170.073 107.492 171.011 107.451 171.406 108.149C171.886 108.998 172.435 109.803 173.273 110.36C173.419 110.456 173.592 110.5 173.767 110.5H175.523C176.231 110.5 176.731 109.777 176.58 109.086C176.374 108.144 176.254 106.984 176.5 106C177 104 180 102.5 181 97.5001C181.93 92.8488 182.757 87.1514 179.5 86.5001C177.5 86.1001 176.333 88.6668 176 90.0001C176.167 88.1667 176.5 85 173.5 84.5C170.773 84.0455 169.864 87 169.5 89C169.5 87 169.2 84 166 84C162.8 84 162.667 87.6667 163 89.5C162.333 88 161.328 84.8906 158 86C154.5 87.1667 157 92 158.5 95C157.833 93.6667 155.9 91.4 153.5 93C150.5 95 152.5 99 154.5 101C156.268 102.768 160 105.5 160.5 107.5C160.633 108.031 160.696 108.504 160.715 108.91C160.749 109.653 161.375 110.5 162.118 110.5Z"
    stroke="#A19A96" fill="#FDFDFD" stroke-width="1.2" stroke-linecap="round" />
  <path
    d="M202 88V114C202 119.523 197.523 124 192 124H93.5C87.9772 124 83.5 119.523 83.5 114V89.5M202 88L187 103M202 88L217 103"
    stroke="var(--clr-theme-pop-element)" stroke-width="1.2" />
</svg>