<svg xmlns="http://www.w3.org/2000/svg" width="260" height="160" viewBox="0 0 260 160" fill="none">
  <path
    d="M21 0.599609H239C249.714 0.599609 258.4 9.28568 258.4 20V139C258.4 149.714 249.714 158.4 239 158.4H21C10.2857 158.4 1.59961 149.714 1.59961 139V20C1.59961 9.28568 10.2857 0.599609 21 0.599609Z"
    fill="var(--clr-bg-1)" stroke="var(--clr-border-2)" stroke-width="1.2" />
  <rect opacity="0.12" x="11" y="10" width="55" height="139" rx="10" fill="var(--clr-core-ntrl-60)" />
  <rect opacity="0.12" x="72" y="10" width="72" height="139" rx="10" fill="var(--clr-core-ntrl-60)" />
  <path d="M152 42.6667H232M152 77.9998H232M152 95.333H232" stroke="var(--clr-border-3)"
    stroke-width="1.2" />
  <rect opacity="0.17" x="152" y="112" width="80" height="23" fill="var(--clr-theme-pop-element)" />
  <path opacity="0.5" d="M152 112H232M232 135H152" stroke="var(--clr-theme-pop-element)"
    stroke-width="1.2" />
  <path
    d="M152 53.5V20C152 14.4772 156.477 10 162 10H239C244.523 10 249 14.4772 249 20V139C249 144.523 244.523 149 239 149H162C156.477 149 152 144.523 152 139V65.5"
    stroke="var(--clr-border-1)" stroke-width="1.2" />
  <path d="M232 10L232 53.8152M232 149L232 65.3986" stroke="var(--clr-border-1)" stroke-width="1.2" />
  <text opacity="0.7" fill="var(--clr-text-2)" xml:space="preserve" style="white-space: pre"
    font-family="Inter" font-size="13" font-weight="500" letter-spacing="0em">
    <tspan x="164.101" y="30.7273">Branch</tspan>
  </text>
  <rect x="148" y="58" width="88" height="3" rx="1.5" fill="var(--clr-theme-pop-element)" />
  <rect x="120.616" y="86.2157" width="73.8" height="18.8" rx="3.4"
    transform="rotate(-1.58774 120.616 86.2157)" fill="var(--clr-theme-pop-bg)"
    stroke="var(--clr-theme-pop-element)" stroke-width="1.2" />
  <path opacity="0.38"
    d="M127.274 95.4347C127.228 93.7785 128.534 92.3987 130.19 92.3528L151.182 91.7709C152.838 91.725 154.218 93.0304 154.264 94.6866V94.6866C154.31 96.3428 153.005 97.7227 151.348 97.7686L130.356 98.3505C128.7 98.3964 127.32 97.0909 127.274 95.4347V95.4347Z"
    fill="var(--clr-theme-pop-element)" />
  <path
    d="M180.289 104.312V111.312M184.289 104.312V111.312M188.289 104.312V111.312M177.407 118.812H183C183.188 118.812 183.376 118.762 183.525 118.647C184.201 118.127 184.642 117.357 185.024 116.531C185.361 115.804 186.3 115.764 186.694 116.461C187.175 117.311 187.724 118.116 188.562 118.672C188.707 118.769 188.881 118.812 189.055 118.812H190.812C191.519 118.812 192.02 118.089 191.868 117.398C191.662 116.457 191.543 115.296 191.789 114.312C192.289 112.312 195.289 110.812 196.289 105.812C197.219 101.161 198.045 95.4638 194.789 94.8124C192.789 94.4124 191.622 96.9791 191.289 98.3124C191.455 96.4791 191.789 93.3123 188.789 92.8123C186.062 92.3579 185.152 95.3123 184.789 97.3123C184.789 95.3123 184.489 92.3123 181.289 92.3123C178.089 92.3123 177.955 95.979 178.289 97.8123C177.622 96.3123 176.617 93.203 173.289 94.3123C169.789 95.479 172.289 100.312 173.789 103.312C173.122 101.979 171.189 99.7123 168.789 101.312C165.789 103.312 167.789 107.312 169.789 109.312C171.556 111.08 175.289 113.813 175.789 115.812C175.921 116.344 175.984 116.816 176.003 117.223C176.038 117.965 176.663 118.812 177.407 118.812Z"
    fill="#FDFDFD" stroke="#A19A96" stroke-width="1.2" stroke-linecap="round" />
  <path
    d="M201.651 126.363C216.679 113.83 218.939 85.2074 211.65 66.5552M211.65 66.5552L204.076 77.5807M211.65 66.5552L223.224 74.4755"
    stroke="var(--clr-theme-pop-element)" stroke-width="1.2" />
</svg>