<svg xmlns="http://www.w3.org/2000/svg" fill="none" viewBox="0 0 300 220">
  <rect width="65" height="67" x="135" y="149" fill="#867E79" opacity=".16" rx="17"/>
  <path fill="#B4AFAC" d="M279.974 172.912c11.553-2.385 19.026-6.181 19.026-10.456 0-7.219-21.3-13.07-47.575-13.07s-47.576 5.851-47.576 13.07c0 4.275 7.473 8.071 19.026 10.456-11.553 2.385-19.026 6.181-19.026 10.456 0 3.976 6.46 7.536 16.654 9.934-10.194 2.397-16.654 5.958-16.654 9.933 0 7.218 21.3 13.07 47.576 13.07 26.275 0 47.575-5.852 47.575-13.07 0-3.975-6.46-7.536-16.654-9.933 10.194-2.398 16.654-5.958 16.654-9.934 0-4.275-7.473-8.071-19.026-10.456" opacity=".18"/>
  <path stroke="#867E79" stroke-width="1.2" d="M203.849 182.379c0 7.187 21.3 13.012 47.576 13.012 26.275 0 47.575-5.825 47.575-13.012m-95.151-20.912c0 7.187 21.3 13.012 47.576 13.012 26.275 0 47.575-5.825 47.575-13.012" opacity=".5"/>
  <path fill="#8FD6D2" d="M134.839 44.049c0-9.389 7.611-17 17-17h41.284c9.389 0 17 7.611 17 17v13.18a17 17 0 0 0 10.108 15.54l34.156 15.148a17 17 0 0 1 10.108 15.54v24.746c0 9.389-7.611 17-17 17h-95.656c-9.389 0-17-7.611-17-17z" opacity=".3"/>
  <path fill="#3CB4AE" fill-rule="evenodd" d="M153.386 42.733a6 6 0 0 0-6 6v73.74a6 6 0 0 0 6 6h37.144a6 6 0 0 0 6-6v-73.74a6 6 0 0 0-6-6zm32.642 14.547h-20.1l-8.04 12.776h20.1zm-20.1 21.958h20.1l-8.04 12.776h-20.1zm20.1 21.958h-20.1l-8.04 12.776h20.1z" clip-rule="evenodd" opacity=".4"/>
  <path stroke="#3CB4AE" stroke-width="1.2" d="M213.26 107.561h33.459m-33.459 7.842h33.459m-33.459 7.842h33.459" opacity=".5"/>
  <path stroke="#867E79" stroke-width="1.2" d="M261 8v31m0 0v31m0-31h31m-31 0h-31m31 0 26.847-15.5M261 39l-26.847 15.5M261 39l15.5 26.847M261 39l-15.5-26.847" opacity=".4"/>
  <path fill="#867E79" d="M174.676 156.568c-.084 17.396 3.665 24.655 17.844 32.385-14.736.03-22.004 3.175-31.646 19.125.845-18.321-3.151-25.034-17.843-32.385 17.004.164 23.77-4.156 31.645-19.125" opacity=".2"/>
  <rect width="129.656" height="102.47" x="1" y="113.835" fill="#B4AFAC" opacity=".17" rx="14"/>
  <path stroke="#867E79" stroke-width="1.2" d="M49.16 141.021 32.368 165.07l16.792 24.049m7.996 0 18.39-48.098m7.996 0 16.791 24.049-16.791 24.049" opacity=".5"/>
  <path stroke="#867E79" stroke-width="1.2" d="M1.6 53.719a10.4 10.4 0 0 1 4.473-8.546L59.901 7.841a10.4 10.4 0 0 1 11.854 0l53.828 37.332a10.4 10.4 0 0 1 4.473 8.546v41.428c0 5.744-4.656 10.401-10.4 10.401H12c-5.744 0-10.4-4.657-10.4-10.4zm14.039 37.113h32.414m0 0h67.965m-67.965 0v.523m0-.523v-16.73m-32.414 0h32.414m0 0h36.596m0 0h31.369m-31.369 0v.523m0-.523v-16.73m-69.01 0h69.01m0 0h31.369" opacity=".4"/>
</svg>
