<svg width="100%" height="100%" viewBox="0 0 400 400" fill="none" xmlns="http://www.w3.org/2000/svg">
  <path
    d="M200 39.4159L207 116.336L226.133 182L254.6 179.186L250.4 171.681L282.6 167.929L267.667 155.735H317.6L278.4 135.566L336.733 110.239L294.267 103.204L340 55.8319L274.2 80.6903L269.067 23L237.333 74.1239L200 39.4159Z"
    fill="var(--clr-art-scene-fill)" />
  <path
    d="M198 78.6917L220.051 40L250.548 77.2932L279.168 51.6541L284.798 81.4887L324.678 78.6917L322.801 91.7444H290.897L335 126.241H284.798L297.935 147.218L275.884 152.346L298.873 164H266.969"
    stroke="#F77F4C" />
  <path
    d="M74.3411 216.093C79.0317 211.441 86.6883 210.273 92.121 215.122C101.505 224.821 95.5781 235.005 89.1577 236.46C86.6882 244.704 81.2555 247.129 74.835 251.009C70.2854 253.758 67.8716 259.252 65.9451 265.557C64.4634 270.406 57.1229 270.32 56.0674 264.102C55.0796 258.283 57.549 251.978 64.9573 246.644C55.0795 251.978 40.757 254.403 35.8181 254.403C27.422 254.403 27.4221 247.129 32.361 245.674C34.663 244.996 45.2019 242.764 51.1286 239.855C46.0251 240.34 32.5585 241.115 29.3976 240.34C24.9528 239.248 24.4588 232.58 30.3854 232.095C32.3542 231.934 45.202 231.125 50.6346 229.671C46.1897 229.832 34.4353 228.41 30.8793 227.246C25.4466 225.468 27.4221 219.002 32.8548 219.487C35.8467 219.754 50.1408 220.457 54.5858 219.487C58.462 218.641 65.9451 216.093 74.3411 216.093Z"
    fill="var(--clr-art-scene-fill)" />
  <path
    d="M74.3411 216.093C79.0317 211.441 86.6883 210.273 92.121 215.122C101.505 224.821 95.5781 235.005 89.1577 236.46C86.6882 244.704 81.2555 247.129 74.835 251.009C70.2854 253.758 67.8716 259.252 65.9451 265.557C64.4634 270.406 57.1229 270.32 56.0674 264.102C55.0796 258.283 57.549 251.978 64.9573 246.644C55.0795 251.978 40.757 254.403 35.8181 254.403C27.422 254.403 27.4221 247.129 32.361 245.674C34.663 244.996 45.2019 242.764 51.1286 239.855C46.0251 240.34 32.5585 241.115 29.3976 240.34C24.9528 239.248 24.4588 232.58 30.3854 232.095C32.3542 231.934 45.202 231.125 50.6346 229.671C46.1897 229.832 34.4353 228.41 30.8793 227.246C25.4466 225.468 27.4221 219.002 32.8548 219.487C35.8467 219.754 50.1408 220.457 54.5858 219.487C58.462 218.641 65.9451 216.093 74.3411 216.093ZM74.3411 216.093C70.8839 220.942 71.4765 229.767 79.7738 234.035M58.5368 239.855L66.4389 236.46M56.5612 232.58L64.9573 230.156M56.5612 225.791L64.4634 223.851"
    stroke="var(--clr-art-scene-outline)" stroke-width="1.2" />
  <path fill-rule="evenodd" clip-rule="evenodd"
    d="M126.071 197.207C115.713 213.585 97.309 224.174 89.3259 227.531C86.2713 228.815 82.7537 227.38 81.4691 224.326C80.1846 221.271 81.6195 217.754 84.6741 216.469C91.4873 213.604 107.398 204.281 115.929 190.793L126.071 197.207Z"
    fill="var(--clr-art-scene-outline)" />
  <path
    d="M198.062 343.649L186.555 207.693L197.784 208.175L220.903 302.913C244.274 300.231 269.782 299.855 284.712 334.245L198.062 343.649Z"
    fill="var(--clr-art-scene-fill)" stroke="var(--clr-art-scene-outline)" stroke-width="1.2" />
  <path
    d="M126.005 339.1L174.24 207.977L166.279 205.167L117.107 287.587C89.9462 271.197 67.9363 278.69 51.546 294.612L126.005 339.1Z"
    fill="var(--clr-art-scene-fill)" stroke="var(--clr-art-scene-outline)" stroke-width="1.2" />
  <path
    d="M111.413 75.9003C101.54 74.7364 92.5932 81.7968 91.4297 91.6698L80.8138 181.751C79.6503 191.623 86.7107 200.57 96.5835 201.734L259.721 220.959C269.594 222.122 278.54 215.062 279.704 205.189L281.347 191.248C282.052 185.262 279.714 179.319 275.119 175.419L266.05 167.72C261.465 163.828 259.127 157.904 259.817 151.93L264.431 112.022C265.571 102.162 258.515 93.2404 248.657 92.0785L111.413 75.9003Z"
    fill="var(--clr-art-scene-fill)" stroke="var(--clr-art-scene-outline)" stroke-width="1.2" />
  <path
    d="M138.785 197.084L135.681 212.848L151.082 209.354L163.721 218.314L167.111 202.892L151.587 205.316L138.785 197.084Z"
    fill="var(--clr-art-scene-outline)" />
  <path
    d="M199.708 214.013L207.551 214.944C217.444 216.118 226.409 209.033 227.553 199.137L237.969 109.061C239.097 99.3113 232.206 90.4557 222.479 89.1524L220.025 88.8236"
    stroke="var(--clr-art-scene-outline)" stroke-width="1.2" />
  <rect opacity="0.13" x="104.259" y="86.6631" width="123.29" height="102.866" rx="7.86364"
    transform="rotate(6.72122 104.259 86.6631)" fill="var(--clr-art-scene-outline)" />
  <rect x="344.699" y="184.562" width="20.605" height="19.6684" rx="9.83421"
    stroke="var(--clr-art-scene-outline)" stroke-width="1.2" />
  <rect x="337.206" y="175.196" width="35.5905" height="65.5614"
    stroke="var(--clr-art-scene-outline)" stroke-width="1.2" />
  <rect x="344.699" y="211.723" width="20.605" height="19.6684" rx="9.83421"
    stroke="var(--clr-art-scene-outline)" stroke-width="1.2" />
  <path d="M352.192 217.343L352.192 225.772M357.811 217.343L357.811 225.772"
    stroke="var(--clr-art-scene-outline)" stroke-width="1.2" />
  <path
    d="M281.011 194.397V194.397C286.184 194.397 290.377 198.59 290.377 203.762L290.377 217.811C290.377 221.173 293.102 223.899 296.465 223.899V223.899C299.827 223.899 302.553 221.173 302.553 217.811L302.553 200.719C302.553 197.227 305.383 194.397 308.875 194.397V194.397C312.366 194.397 315.197 197.227 315.197 200.719L315.197 217.811C315.197 221.173 317.922 223.899 321.284 223.899V223.899C324.647 223.899 327.372 221.173 327.372 217.811L327.372 204.397C327.372 198.874 331.849 194.397 337.372 194.397L355.002 194.397"
    stroke="var(--clr-art-scene-outline)" stroke-width="1.2" />
  <path
    d="M353.597 116.191L350.319 145.225L361.558 139.606L355.47 167.703M328.777 141.947L332.992 158.806L341.889 150.376L343.763 167.703M377.012 150.376L368.114 167.703"
    stroke="#F77F4C" stroke-width="1.2" />
  <rect x="179.087" y="106.825" width="34.1829" height="80.4056" rx="5"
    transform="rotate(6.80716 179.087 106.825)" stroke="var(--clr-art-scene-outline)"
    stroke-width="1.2" />
  <rect x="114.462" y="99.3322" width="34.1829" height="80.4056" rx="5"
    transform="rotate(6.80716 114.462 99.3322)" stroke="var(--clr-art-scene-outline)"
    stroke-width="1.2" />
  <path d="M188.024 121L201 122.742L185.244 147.129L197.756 148.871L182 172.677L194.512 175"
    stroke="var(--clr-art-scene-outline)" stroke-width="1.2" />
  <path d="M123.024 113L136 114.774L120.244 139.613L132.756 141.387L117 165.634L129.512 168"
    stroke="var(--clr-art-scene-outline)" stroke-width="1.2" />
  <path d="M146 184.565L152.118 175L157.294 175.478L162 186" stroke="var(--clr-art-scene-outline)"
    stroke-width="1.2" />
  <path fill-rule="evenodd" clip-rule="evenodd"
    d="M240.583 194.114C242.549 191.447 246.305 190.879 248.973 192.845C261.504 202.082 266.273 212.614 270.412 221.755C270.583 222.131 270.752 222.505 270.92 222.876C275.1 232.075 278.958 239.874 289.765 246.573L283.443 256.772C269.466 248.109 264.386 237.503 259.995 227.84C259.876 227.578 259.758 227.317 259.64 227.057C255.49 217.913 251.838 209.865 241.852 202.504C239.185 200.538 238.617 196.782 240.583 194.114Z"
    fill="var(--clr-art-scene-outline)" />
  <path
    d="M279.901 243.788C269.577 251.982 270.969 260.76 277.31 261.787C274.82 267.61 276.654 274.128 277.669 277.375C278.685 280.621 275.535 289.504 274.626 290.986C271.655 295.832 273.08 300.714 277.972 299.781C283.786 298.671 287.323 291.092 288.874 280.79C295.126 292.53 303.644 302.059 308.218 303.928C315.519 306.911 317.607 300.529 315.591 298.145C312.69 294.711 305.925 285.889 302.559 279.529C307.891 284.444 317.597 291.83 323.454 292.365C329.942 292.959 332.944 287.681 328.886 285.105C325 282.638 316.258 276.721 311.418 271.323C319.204 274.797 327.97 277.792 332.862 276.858C336.219 276.218 338.754 273.011 334.864 271.031C330.973 269.05 320.265 264.578 314.441 260.147L314.441 260.146C308.617 255.715 302.794 251.283 295.008 247.809C297.987 241.99 290.226 235.594 279.901 243.788Z"
    fill="var(--clr-art-scene-fill)" />
  <path
    d="M277.31 261.787C270.969 260.76 269.577 251.982 279.901 243.788C290.226 235.594 297.987 241.99 295.008 247.809C302.794 251.283 308.618 255.715 314.441 260.147C320.265 264.578 330.973 269.05 334.864 271.031C338.754 273.011 336.219 276.218 332.862 276.858C327.97 277.792 319.204 274.797 311.418 271.323C316.258 276.721 325 282.638 328.886 285.105C332.944 287.681 329.942 292.959 323.454 292.365C317.597 291.83 307.891 284.444 302.559 279.529C305.925 285.889 312.69 294.711 315.591 298.145C317.607 300.529 315.519 306.911 308.218 303.928C303.644 302.059 295.126 292.53 288.874 280.79C287.323 291.092 283.786 298.671 277.972 299.781C273.08 300.714 271.655 295.832 274.626 290.986C275.535 289.504 278.685 280.621 277.669 277.375C276.654 274.128 274.82 267.61 277.31 261.787ZM277.31 261.787C277.609 259.816 279.396 254.033 284.113 250.565M296.596 276.558L291.289 268.645M302.632 270.763L296.697 264.307M308.537 265.379L301.617 260.04"
    stroke="var(--clr-art-scene-outline)" stroke-width="1.2" />
  <path
    d="M258.094 108.491L245.631 102.21M257.325 115.018L244.862 108.737M256.556 121.546L244.093 115.264M255.787 128.073L243.324 121.792"
    stroke="var(--clr-art-scene-outline)" stroke-width="1.2" />
  <path d="M263.168 187.346L276.631 185.174M262.559 192.461L276.022 190.289"
    stroke="var(--clr-art-scene-outline)" stroke-width="1.2" />
  <ellipse opacity="0.12" cx="165.5" cy="370" rx="85.5" ry="7" fill="var(--clr-art-scene-outline)" />
</svg>