
<svg 			width="100%"
			height="100%"
 viewBox="0 0 300 241" fill="none" xmlns="http://www.w3.org/2000/svg">
<path d="M1.6 24.5C1.6 13.7857 10.2857 5.1 21 5.1H279C289.714 5.1 298.4 13.7857 298.4 24.5V216.5C298.4 227.214 289.714 235.9 279 235.9H21C10.2857 235.9 1.6 227.214 1.6 216.5V24.5Z" fill="white" stroke="#D4D0CE" stroke-width="1.2"/>
<path d="M13.6 214.5V48.1H180.4V109.5V133.5V155.5V179.5V223.9H23C17.8085 223.9 13.6 219.691 13.6 214.5Z" stroke="#D4D0CE" stroke-width="1.2"/>
<path opacity="0.6" d="M179.6 48.1H277C282.191 48.1 286.4 52.3085 286.4 57.5V214.5C286.4 219.691 282.191 223.9 277 223.9H179.6V48.1Z" fill="white" stroke="#D4D0CE" stroke-width="1.2"/>
<path d="M13.6 26.5C13.6 21.3085 17.8085 17.1 23 17.1H67C72.1915 17.1 76.4 21.3085 76.4 26.5V47.9H13.6V26.5Z" fill="white" stroke="#D4D0CE" stroke-width="1.2"/>
<g opacity="0.5">
<path d="M76.6 26.5C76.6 21.3085 80.8085 17.1 86 17.1H130C135.191 17.1 139.4 21.3085 139.4 26.5V47.9H76.6V26.5Z" fill="white" stroke="#D4D0CE" stroke-width="1.2"/>
<path d="M76.6 26.5C76.6 21.3085 80.8085 17.1 86 17.1H130C135.191 17.1 139.4 21.3085 139.4 26.5V47.9H76.6V26.5Z" stroke="#D4D0CE" stroke-width="1.2"/>
<path d="M139.6 26.5C139.6 21.3085 143.809 17.1 149 17.1H193C198.191 17.1 202.4 21.3085 202.4 26.5V47.9H139.6V26.5Z" fill="white" stroke="#D4D0CE" stroke-width="1.2"/>
<path d="M139.6 26.5C139.6 21.3085 143.809 17.1 149 17.1H193C198.191 17.1 202.4 21.3085 202.4 26.5V47.9H139.6V26.5Z" stroke="#D4D0CE" stroke-width="1.2"/>
</g>
<path d="M23 67.5C23 61.9772 27.4772 57.5 33 57.5H161C166.523 57.5 171 61.9772 171 67.5V177.5C171 183.023 166.523 187.5 161 187.5H33C27.4772 187.5 23 183.023 23 177.5V67.5Z" fill="white"/>
<path d="M24 76.5H170M24 92.5H170M24 108.5H170M24 124.5H170M24 140.5H170M24 156.5H170M24 172.5H170" stroke="#EAE9E8" stroke-width="1.2"/>
<rect opacity="0.43" x="24" y="92.5" width="146" height="16" fill="#D4D0CE"/>
<g opacity="0.3">
<path d="M32 67.3853C32 66.8963 32.3963 66.5 32.8853 66.5H142.25C142.739 66.5 143.136 66.8963 143.136 67.3853C143.136 67.8742 142.739 68.2705 142.25 68.2705H32.8853C32.3963 68.2705 32 67.8742 32 67.3853Z" fill="#867E79"/>
<path d="M32 84.3853C32 83.8963 32.3963 83.5 32.8853 83.5H152.25C152.739 83.5 153.136 83.8963 153.136 84.3853C153.136 84.8742 152.739 85.2705 152.25 85.2705H32.8853C32.3963 85.2705 32 84.8742 32 84.3853Z" fill="#867E79"/>
<path d="M32 100.385C32 99.8963 32.3963 99.5 32.8853 99.5H152.25C152.739 99.5 153.136 99.8963 153.136 100.385C153.136 100.874 152.739 101.271 152.25 101.271H32.8853C32.3963 101.271 32 100.874 32 100.385Z" fill="#867E79"/>
<path d="M32 116.385C32 115.896 32.3963 115.5 32.8853 115.5H152.25C152.739 115.5 153.136 115.896 153.136 116.385C153.136 116.874 152.739 117.271 152.25 117.271H32.8853C32.3963 117.271 32 116.874 32 116.385Z" fill="#867E79"/>
<path d="M32 132.385C32 131.896 32.3963 131.5 32.8853 131.5H102.25C102.739 131.5 103.136 131.896 103.136 132.385C103.136 132.874 102.739 133.271 102.25 133.271H32.8853C32.3963 133.271 32 132.874 32 132.385Z" fill="#867E79"/>
<path d="M32 148.385C32 147.896 32.3963 147.5 32.8853 147.5H152.25C152.739 147.5 153.136 147.896 153.136 148.385C153.136 148.874 152.739 149.271 152.25 149.271H32.8853C32.3963 149.271 32 148.874 32 148.385Z" fill="#867E79"/>
<path d="M32 164.385C32 163.896 32.3963 163.5 32.8853 163.5H122.25C122.739 163.5 123.136 163.896 123.136 164.385C123.136 164.874 122.739 165.271 122.25 165.271H32.8853C32.3963 165.271 32 164.874 32 164.385Z" fill="#867E79"/>
<path d="M32 180.385C32 179.896 32.3963 179.5 32.8853 179.5H152.25C152.739 179.5 153.136 179.896 153.136 180.385C153.136 180.874 152.739 181.271 152.25 181.271H32.8853C32.3963 181.271 32 180.874 32 180.385Z" fill="#867E79"/>
</g>
<rect x="24" y="139.5" width="146" height="2" fill="#3CB4AE"/>
<path d="M23.6 67.5C23.6 62.3085 27.8085 58.1 33 58.1H161C166.191 58.1 170.4 62.3085 170.4 67.5V177.5C170.4 182.691 166.191 186.9 161 186.9H33C27.8085 186.9 23.6 182.691 23.6 177.5V67.5Z" stroke="#D4D0CE" stroke-width="1.2"/>
<path d="M23.6 203.5C23.6 198.309 27.8085 194.1 33 194.1H161C166.191 194.1 170.4 198.309 170.4 203.5V223.9H23.6V203.5Z" fill="white" stroke="#D4D0CE" stroke-width="1.2"/>
<path d="M55.6 100.5C55.6 95.3085 59.8085 91.1 65 91.1H193C198.191 91.1 202.4 95.3085 202.4 100.5V110.5C202.4 115.691 198.191 119.9 193 119.9H65C59.8085 119.9 55.6 115.691 55.6 110.5V100.5Z" fill="#F3FCFB" stroke="#3CB4AE" stroke-width="1.2"/>
<rect opacity="0.38" x="66" y="102.5" width="124.136" height="6.77052" rx="3.38526" fill="#3CB4AE"/>
<path d="M149.711 131H144.118C143.375 131 142.749 130.153 142.715 129.41C142.696 129.004 142.633 128.531 142.5 128C142 126 138.268 123.268 136.5 121.5C134.5 119.5 132.5 115.5 135.5 113.5C137.9 111.9 139.833 114.167 140.5 115.5C139 112.5 136.5 107.667 140 106.5C143.328 105.391 144.333 108.5 145 110C144.667 108.167 144.8 104.5 148 104.5C151.2 104.5 151.5 107.5 151.5 109.5C151.864 107.5 152.773 104.546 155.5 105C158.5 105.5 158.167 108.667 158 110.5C158.333 109.167 159.5 106.6 161.5 107C164.757 107.651 163.93 113.349 163 118C162 123 159 124.5 158.5 126.5C158.254 127.484 158.374 128.644 158.58 129.586C158.731 130.277 158.23 131 157.523 131H155.767C155.592 131 155.419 130.956 155.273 130.86C154.435 130.303 153.886 129.498 153.406 128.649C153.011 127.951 152.073 127.992 151.736 128.719C151.353 129.544 150.913 130.315 150.237 130.835C150.087 130.95 149.9 131 149.711 131Z" fill="#FDFDFD" stroke="#AAA5A2" stroke-linecap="round"/>
<path d="M147 116.5V123.5" stroke="#AAA5A2" stroke-linecap="round"/>
<path d="M151 116.5V123.5" stroke="#AAA5A2" stroke-linecap="round"/>
<path d="M155 116.5V123.5" stroke="#AAA5A2" stroke-linecap="round"/>
</svg>
