<svg xmlns="http://www.w3.org/2000/svg" width="168" height="58" viewBox="0 0 168 58" fill="none">
  <path d="M155 1H87V58H165V11C165 5.47715 160.523 1 155 1Z" fill="var(--clr-bg-1)" />
  <path d="M87 1H157C162.523 1 167 5.47715 167 11V58" stroke="var(--illustration-outline)"
    stroke-width="1.2" />
  <path opacity="0.7" d="M159 58V15C159 11.6863 156.314 9 153 9H101C97.6863 9 95 11.6863 95 15V58"
    stroke="var(--illustration-outline)" stroke-width="1.2" />
  <text fill="var(--illustration-text)" xml:space="preserve" style="white-space: pre"
    font-family="Inter" font-size="12" font-weight="600" letter-spacing="0em">
    <tspan x="102" y="26.8636">Branch 1</tspan>
  </text>
  <path d="M87.0001 58V0.999977H11.0001C5.47721 0.999977 1.00006 5.47713 1.00006 11V58"
    stroke="var(--illustration-accent-outline)" stroke-width="1.2" />
  <path opacity="0.1"
    d="M9.00006 15C9.00006 11.6863 11.6863 8.99998 15.0001 8.99998H73.0001C76.3138 8.99998 79.0001 11.6863 79.0001 15V58H9.00006V15Z"
    fill="var(--illustration-accent-outline)" />
  <path
    d="M79.0001 58V15C79.0001 11.6863 76.3138 8.99998 73.0001 8.99998H15.0001C11.6863 8.99998 9.00006 11.6863 9.00006 15V58"
    stroke="var(--illustration-accent-outline)" stroke-width="1.2" />
  <text fill="var(--illustration-accent-outline)" xml:space="preserve" style="white-space: pre"
    font-family="Inter" font-size="12" font-weight="600" letter-spacing="0em">
    <tspan x="19.0001" y="26.8636">Branch 2</tspan>
  </text>
</svg>