<svg xmlns="http://www.w3.org/2000/svg" width="100%" height="100%" viewBox="0 0 400 400" fill="none">
  <g id="8647:905">
    <ellipse id="8647:906" opacity="0.1" cx="115.923" cy="13" rx="115.923" ry="13"
      transform="matrix(1 0 -0.0871557 0.996195 90.2656 355)" fill="var(--clr-art-scene-outline)" />
    <g id="Group 1948754869">
      <path id="8647:909"
        d="M282.672 106.097L253.975 64.3964C252.219 61.8448 253.904 58.3514 256.995 58.1383L298 55.3103L332.834 24.3464C335.464 22.0092 339.531 22.4253 341.632 25.2466L374.45 69.3034C376.416 71.9427 375.889 75.6732 373.269 77.6646L336.621 105.517L289.948 109.532C287.081 109.779 284.303 108.467 282.672 106.097Z"
        fill="var(--clr-art-scene-fill)" stroke="var(--clr-art-scene-outline)"
        stroke-width="1.2" />
      <path id="8647:910" opacity="0.13"
        d="M327.799 91.9433L308.338 67.0935C304.771 62.5377 305.342 55.9967 309.647 52.1292L327.591 36.0049C332.384 31.6983 339.836 32.4148 343.72 37.5558L363.904 64.2697C367.552 69.0988 366.614 75.9682 361.805 79.6423L343.137 93.9025C338.35 97.559 331.513 96.6856 327.799 91.9433Z"
        fill="var(--clr-art-scene-outline)" />
      <path id="8647:911" d="M314 59.5L320.5 60.5V54" stroke="var(--clr-art-scene-outline)"
        stroke-width="1.2" />
      <g id="Group 1948754914">
        <path id="8647:913" d="M332.757 43L356.614 72.3222" stroke="var(--clr-art-scene-outline)"
          stroke-width="1.2" />
        <path id="8647:914" d="M328.878 46.1556L340.707 60.6935"
          stroke="var(--clr-art-scene-outline)" stroke-width="1.2" />
        <path id="8647:915" d="M325 49.3112L344.848 73.7052"
          stroke="var(--clr-art-scene-outline)" stroke-width="1.2" />
      </g>
      <path id="8647:916"
        d="M325.147 98.7144L296.606 61.4177C295.796 60.3592 294.512 59.7737 293.181 59.8562L271.117 61.2258C270.332 61.2745 269.908 62.169 270.367 62.8077L297.756 100.892C298.587 102.048 299.97 102.675 301.387 102.538L324.448 100.317C325.23 100.242 325.624 99.3376 325.147 98.7144Z"
        stroke="var(--clr-art-scene-outline)" stroke-width="1.2" />
      <path id="8647:917"
        d="M321.173 93.3792L293.586 95.0344M314.552 84.5517L287.517 86.1654M307.931 75.7241L280.897 77.3379M300.759 66.8965L274.276 68.5103"
        stroke="var(--clr-art-scene-outline)" stroke-width="1.2" />
      <path id="8647:918" d="M308.695 101.803L279 61M317 101L287.621 60.2759"
        stroke="var(--clr-art-scene-outline)" stroke-width="1.2" />
    </g>
    <g id="Group 1948754571">
      <g id="Group 1948754568">
        <path id="8647:921"
          d="M264.468 283.934L205.533 223.123L216.673 215.217C240.485 227.926 293.806 269.173 283.02 295.291C272.234 321.409 213.283 300.45 183.829 286.353C171.573 307.609 157.548 313.948 139.239 312.215L168.372 248.405L264.468 283.934Z"
          fill="var(--clr-art-scene-fill)" stroke="var(--clr-art-scene-outline)"
          stroke-width="1.2" />
        <path id="8647:922"
          d="M243.033 253.901L141.679 273.907L164.04 257.763L168.301 248.545L174.143 250.564L202.706 229.786L193.249 219.93C167.474 227.944 115.484 255.475 121.176 283.153C126.868 310.832 187.704 297.921 219.28 289.603C227.329 312.782 239.915 321.641 258.223 323.374L243.033 253.901Z"
          fill="var(--clr-art-scene-fill)" stroke="var(--clr-art-scene-outline)"
          stroke-width="1.2" />
      </g>
      <g id="Group 1948754575">
        <g id="8647:924">
          <path
            d="M107.895 195.919C116.373 202.407 108.44 212.611 93.1902 214.126C77.94 215.642 69.3015 210.788 73.0344 201.406C45.231 186.782 45.5462 144.452 54.1634 142.616C64.083 140.504 59.0262 160.98 63.7115 172.678C60.1542 163.796 59.0527 127.86 72.3379 129.75C85.6231 131.64 72.1385 155.316 74.8446 169.641C74.7418 144.955 92.0083 134.156 107.572 147.902C117.004 156.233 105.778 167.078 100.243 160.95C94.507 154.6 85.006 158.12 88.0671 168.635C91.6792 181.043 103.427 185.588 108.909 180.346C115.117 174.411 102.092 167.711 110.024 160.723C117.153 154.442 128.407 167.715 125.818 178.669C123.525 188.37 116.486 193.676 107.895 195.919Z"
            fill="var(--clr-art-scene-fill)" />
          <path
            d="M73.0344 201.406C45.231 186.782 45.5462 144.452 54.1634 142.616C64.083 140.504 59.0262 160.98 63.7115 172.678C60.1542 163.796 59.0527 127.86 72.3379 129.75C85.6231 131.64 72.1385 155.316 74.8446 169.641C74.7418 144.955 92.0083 134.156 107.572 147.902C117.004 156.233 105.778 167.078 100.243 160.95C94.507 154.6 85.006 158.12 88.0671 168.635C91.6792 181.043 103.427 185.588 108.909 180.346C115.117 174.411 102.092 167.711 110.024 160.723C117.153 154.442 128.407 167.715 125.818 178.669C123.525 188.37 116.486 193.676 107.895 195.919C116.373 202.407 108.44 212.611 93.1902 214.126C77.94 215.642 69.3015 210.788 73.0344 201.406ZM73.0344 201.406C73.8356 200.347 76.1452 197.885 78.9744 196.503M81.745 206.011C85.8939 203.103 93.0741 201.56 99.5618 203.839M67.536 178.702C68.482 180.741 70.6402 185.152 71.7045 186.487M75.3554 177.311C75.9754 178.976 77.586 182.735 79.0687 184.45"
            stroke="var(--clr-art-scene-outline)" stroke-width="1.2" />
        </g>
        <path id="8647:925"
          d="M149.546 197.366C148.899 209.517 142.226 228.422 128.065 230.997C112.178 233.885 101.495 217 97.4953 203C92.4972 202.5 86.9972 203 82.9972 205.5C90.4972 227 108.23 246.442 130.147 242.458C150.145 238.822 160.243 215.843 161.182 197.928C161.551 189.041 149.913 188.473 149.546 197.366Z"
          fill="var(--clr-art-scene-outline)" />
      </g>
      <g id="Group 1948754576">
        <path id="8647:927"
          d="M273.829 228.202L146.524 221.674C136.411 221.155 128.716 212.401 129.499 202.306L136.738 108.969C137.507 99.0485 146.179 91.6343 156.098 92.4161L230.651 98.2922C239.32 98.9755 246.261 105.758 247.144 114.409L249.784 140.285C250.477 147.073 254.948 152.886 261.331 155.297L280.268 162.449C287.105 165.031 291.702 171.492 291.901 178.798L292.744 209.735C293.03 220.229 284.313 228.74 273.829 228.202Z"
          fill="var(--clr-art-scene-fill)" stroke="var(--clr-art-scene-outline)"
          stroke-width="1.2" />
        <path id="8647:928" opacity="0.13"
          d="M225.569 108.474H155.305C149.539 108.474 144.751 112.927 144.334 118.678L138.472 199.493C138.027 205.631 142.704 210.94 148.85 211.272L224.139 215.342C230.395 215.68 235.67 210.732 235.732 204.467L236.568 119.583C236.629 113.465 231.686 108.474 225.569 108.474Z"
          fill="var(--clr-art-scene-outline)" />
        <path id="8647:929"
          d="M249.98 180.883L271.092 174.945M250.046 186.509L271.158 180.571M250.112 192.135L271.224 186.196"
          stroke="var(--clr-art-scene-outline)" stroke-width="1.2" />
        <path id="8647:930"
          d="M179.972 170.954C179.972 146.974 174.993 127.535 168.852 127.535C162.711 127.535 157.733 146.974 157.733 170.954"
          stroke="var(--clr-art-scene-outline)" stroke-width="1.2" />
        <path id="8647:931"
          d="M217.036 170.954C217.036 146.974 212.058 127.535 205.917 127.535C199.776 127.535 194.797 146.974 194.797 170.954"
          stroke="var(--clr-art-scene-outline)" stroke-width="1.2" />
        <path id="8647:932" d="M181.03 182.605L191.62 196.372L209.623 178.369"
          stroke="var(--clr-art-scene-outline)" stroke-width="1.2" />
        <path id="8647:933"
          d="M170.629 235.801L176.667 195.733L193.435 213.403L214.305 201.404L208.267 241.472L191.86 223.856L170.629 235.801Z"
          fill="var(--clr-art-scene-outline)" />
      </g>
      <g id="Group 1948754577">
        <path id="8647:935"
          d="M263.863 202.952C267.03 202.312 270.107 204.187 270.882 207.17L270.95 207.462L271.191 208.603C273.992 221.387 275.275 238.581 288.599 238.24C299.75 237.067 300.875 225.976 306.96 205.146L322.422 209.972C315.57 233.43 309.015 248.215 291.075 250.102C267.742 252.557 263.542 230.131 259.382 211.14L259.11 209.856L259.058 209.561C258.6 206.514 260.696 203.593 263.863 202.952Z"
          fill="var(--clr-art-scene-outline)" />
        <g id="8647:936">
          <path
            d="M308.054 214.672C297.199 209.766 298.993 203.848 302.698 201.237C285.327 193.683 284.107 178.02 284.771 171.318C286.044 158.469 298.994 151.065 303.593 159.491C307.827 167.25 300.461 170.89 300.143 176.353C299.377 189.514 326.017 185.034 325.086 169.093C324.717 162.78 320.634 160.199 312.034 162.243C300.909 164.887 299.953 150.837 311.28 148.145C330.117 143.668 342.169 152.322 336.368 177.064C339.082 165.489 337.56 159.204 338.551 146.747C339.543 134.29 352.547 135.213 353.096 148.121C353.516 157.985 349.281 173.146 344.784 181.717C352.824 166.394 352.381 151.79 359.594 154.833C371.036 159.661 358.354 207.15 328.734 209.758C331.208 216.525 318.718 219.492 308.054 214.672Z"
            fill="var(--clr-art-scene-fill)" />
          <path
            d="M328.734 209.757C331.208 216.525 318.718 219.492 308.054 214.672C297.199 209.766 298.993 203.848 302.698 201.237C285.327 193.683 284.107 178.02 284.771 171.318C286.044 158.469 298.994 151.065 303.593 159.491C307.827 167.25 300.461 170.89 300.143 176.353C299.377 189.514 326.017 185.034 325.086 169.093C324.717 162.78 320.634 160.199 312.034 162.243C300.909 164.887 299.953 150.837 311.28 148.145C330.117 143.668 342.169 152.322 336.368 177.064C339.082 165.489 337.56 159.204 338.551 146.747C339.543 134.29 352.547 135.213 353.096 148.121C353.516 157.985 349.281 173.146 344.784 181.717C352.824 166.394 352.381 151.79 359.594 154.833C371.036 159.661 358.354 207.15 328.734 209.757ZM328.734 209.757C325.358 210.055 321.296 208.497 321.296 208.497M334.492 184.163C333.368 186.815 331.736 188.711 329.259 191.031M340.433 187.077C339.048 189.137 335.914 193.176 334.759 194.143"
            stroke="var(--clr-art-scene-outline)" stroke-width="1.2" />
        </g>
      </g>
    </g>
    <g id="8647:937">
      <path
        d="M117.665 65.626L108.323 69.7217L102.498 56.4365L100.414 57.3506L106.239 70.6357L96.8965 74.7305L91.0723 61.4453L89.3965 62.1807L93.0732 70.5684L83.7314 74.6641L80.0547 66.2764L66.9521 72.0195L68.8408 76.3271C72.5405 84.7664 68.6988 94.6077 60.2598 98.3076C51.8205 102.007 41.9793 98.1647 38.2793 89.7256L30.4082 71.7705C26.7084 63.3312 30.5501 53.491 38.9893 49.791C47.4285 46.0913 57.2688 49.9329 60.9688 58.3721L62.8564 62.6787L107.745 43L117.665 65.626ZM51.627 62.4678C50.189 59.1879 46.3649 57.6941 43.085 59.1318C39.805 60.5698 38.3113 64.3948 39.749 67.6748L47.6201 85.6299C49.0581 88.91 52.884 90.4038 56.1641 88.9658C59.4439 87.5278 60.9367 83.7028 59.499 80.4229L51.627 62.4678Z"
        fill="var(--clr-art-scene-fill)" />
      <path
        d="M117.665 65.626L117.906 66.1755L118.455 65.9346L118.215 65.3851L117.665 65.626ZM108.323 69.7217L107.774 69.9626L108.015 70.5121L108.564 70.2712L108.323 69.7217ZM102.498 56.4365L103.048 56.1956L102.807 55.646L102.257 55.8871L102.498 56.4365ZM100.414 57.3506L100.173 56.8011L99.6237 57.0421L99.8646 57.5915L100.414 57.3506ZM106.239 70.6357L106.48 71.1853L107.03 70.9444L106.789 70.3948L106.239 70.6357ZM96.8965 74.7305L96.347 74.9714L96.5879 75.5208L97.1373 75.28L96.8965 74.7305ZM91.0723 61.4453L91.6218 61.2044L91.3808 60.6547L90.8312 60.8959L91.0723 61.4453ZM89.3965 62.1807L89.1554 61.6312L88.6062 61.8722L88.847 62.4215L89.3965 62.1807ZM93.0732 70.5684L93.3142 71.1179L93.8636 70.877L93.6228 70.3275L93.0732 70.5684ZM83.7314 74.6641L83.1819 74.9049L83.4228 75.4545L83.9724 75.2136L83.7314 74.6641ZM80.0547 66.2764L80.6042 66.0355L80.3633 65.486L79.8138 65.7268L80.0547 66.2764ZM66.9521 72.0195L66.7113 71.47L66.1617 71.7109L66.4026 72.2605L66.9521 72.0195ZM68.8408 76.3271L69.3903 76.0862L69.3903 76.0862L68.8408 76.3271ZM60.2598 98.3076L60.5007 98.8571L60.5007 98.8571L60.2598 98.3076ZM38.2793 89.7256L37.7298 89.9665L37.7298 89.9665L38.2793 89.7256ZM30.4082 71.7705L30.9577 71.5296L30.9577 71.5296L30.4082 71.7705ZM38.9893 49.791L38.7484 49.2415L38.7483 49.2415L38.9893 49.791ZM60.9688 58.3721L61.5183 58.1312L61.5183 58.1312L60.9688 58.3721ZM62.8564 62.6787L62.3069 62.9196L62.5478 63.4691L63.0973 63.2282L62.8564 62.6787ZM107.745 43L108.295 42.7591L108.054 42.2096L107.504 42.4505L107.745 43ZM51.627 62.4678L51.0774 62.7087L51.0774 62.7087L51.627 62.4678ZM43.085 59.1318L42.8441 58.5823L42.8441 58.5823L43.085 59.1318ZM39.749 67.6748L39.1995 67.9157L39.1995 67.9157L39.749 67.6748ZM47.6201 85.6299L47.0706 85.8708L47.0706 85.8708L47.6201 85.6299ZM56.1641 88.9658L56.405 89.5153L56.405 89.5153L56.1641 88.9658ZM59.499 80.4229L60.0485 80.182L60.0485 80.1819L59.499 80.4229ZM117.665 65.626L117.424 65.0765L108.082 69.1722L108.323 69.7217L108.564 70.2712L117.906 66.1755L117.665 65.626ZM108.323 69.7217L108.873 69.4807L103.048 56.1956L102.498 56.4365L101.949 56.6775L107.774 69.9626L108.323 69.7217ZM102.498 56.4365L102.257 55.8871L100.173 56.8011L100.414 57.3506L100.655 57.9001L102.739 56.986L102.498 56.4365ZM100.414 57.3506L99.8646 57.5915L105.69 70.8767L106.239 70.6357L106.789 70.3948L100.964 57.1096L100.414 57.3506ZM106.239 70.6357L105.998 70.0862L96.6556 74.1809L96.8965 74.7305L97.1373 75.28L106.48 71.1853L106.239 70.6357ZM96.8965 74.7305L97.446 74.4896L91.6218 61.2044L91.0723 61.4453L90.5228 61.6862L96.347 74.9714L96.8965 74.7305ZM91.0723 61.4453L90.8312 60.8959L89.1554 61.6312L89.3965 62.1807L89.6376 62.7301L91.3134 61.9947L91.0723 61.4453ZM89.3965 62.1807L88.847 62.4215L92.5237 70.8092L93.0732 70.5684L93.6228 70.3275L89.946 61.9398L89.3965 62.1807ZM93.0732 70.5684L92.8323 70.0189L83.4905 74.1146L83.7314 74.6641L83.9724 75.2136L93.3142 71.1179L93.0732 70.5684ZM83.7314 74.6641L84.281 74.4232L80.6042 66.0355L80.0547 66.2764L79.5052 66.5173L83.1819 74.9049L83.7314 74.6641ZM80.0547 66.2764L79.8138 65.7268L66.7113 71.47L66.9521 72.0195L67.193 72.5691L80.2956 66.8259L80.0547 66.2764ZM66.9521 72.0195L66.4026 72.2605L68.2913 76.5681L68.8408 76.3271L69.3903 76.0862L67.5017 71.7786L66.9521 72.0195ZM68.8408 76.3271L68.2913 76.5681C71.8579 84.7038 68.1544 94.1912 60.0188 97.7581L60.2598 98.3076L60.5007 98.8571C69.2432 95.0241 73.223 84.8289 69.3903 76.0862L68.8408 76.3271ZM60.2598 98.3076L60.0189 97.7581C51.8831 101.325 42.3957 97.6204 38.8288 89.4847L38.2793 89.7256L37.7298 89.9665C41.5628 98.7091 51.7579 102.69 60.5007 98.8571L60.2598 98.3076ZM38.2793 89.7256L38.8288 89.4847L30.9577 71.5296L30.4082 71.7705L29.8587 72.0114L37.7298 89.9665L38.2793 89.7256ZM30.4082 71.7705L30.9577 71.5296C27.3909 63.3938 31.0945 53.9074 39.2302 50.3405L38.9893 49.791L38.7483 49.2415C30.0057 53.0745 26.0258 63.2687 29.8587 72.0114L30.4082 71.7705ZM38.9893 49.791L39.2302 50.3405C47.3659 46.7739 56.8524 50.4773 60.4192 58.613L60.9688 58.3721L61.5183 58.1312C57.6853 49.3885 47.4911 45.4088 38.7484 49.2415L38.9893 49.791ZM60.9688 58.3721L60.4192 58.6129L62.3069 62.9196L62.8564 62.6787L63.406 62.4378L61.5183 58.1312L60.9688 58.3721ZM62.8564 62.6787L63.0973 63.2282L107.986 43.5495L107.745 43L107.504 42.4505L62.6155 62.1292L62.8564 62.6787ZM107.745 43L107.196 43.2409L117.116 65.8669L117.665 65.626L118.215 65.3851L108.295 42.7591L107.745 43ZM51.627 62.4678L52.1765 62.2269C50.6055 58.6436 46.4276 57.0115 42.8441 58.5823L43.085 59.1318L43.3258 59.6814C46.3022 58.3767 49.7725 59.7322 51.0774 62.7087L51.627 62.4678ZM43.085 59.1318L42.8441 58.5823C39.2606 60.1533 37.6287 64.3322 39.1995 67.9157L39.749 67.6748L40.2985 67.4339C38.9938 64.4574 40.3493 60.9863 43.3259 59.6813L43.085 59.1318ZM39.749 67.6748L39.1995 67.9157L47.0706 85.8708L47.6201 85.6299L48.1696 85.389L40.2985 67.4339L39.749 67.6748ZM47.6201 85.6299L47.0706 85.8708C48.6417 89.4543 52.8214 91.0864 56.405 89.5153L56.1641 88.9658L55.9232 88.4163C52.9466 89.7213 49.4746 88.3656 48.1696 85.389L47.6201 85.6299ZM56.1641 88.9658L56.405 89.5153C59.9884 87.9442 61.6192 83.7653 60.0485 80.182L59.499 80.4229L58.9495 80.6637C60.2542 83.6403 58.8994 87.1114 55.9231 88.4163L56.1641 88.9658ZM59.499 80.4229L60.0485 80.1819L52.1765 62.2269L51.627 62.4678L51.0774 62.7087L58.9495 80.6638L59.499 80.4229Z"
        fill="var(--clr-art-scene-outline)" />
    </g>
    <rect id="8647:940" opacity="0.4" x="216.865" y="50.9531" width="5" height="14"
      transform="rotate(38.2096 216.865 50.9531)" fill="var(--clr-art-scene-outline)" />
    <rect id="8647:941" opacity="0.4" x="46.541" y="217.701" width="8" height="15"
      transform="rotate(122.516 46.541 217.701)" fill="var(--clr-art-scene-outline)" />
    <rect id="8647:942" opacity="0.4" x="196.884" y="329" width="4.272" height="12.1882"
      transform="rotate(63.2546 196.884 329)" fill="var(--clr-art-scene-outline)" />
    <ellipse id="8647:943" opacity="0.4" cx="164.692" cy="36.0201" rx="3.5" ry="7"
      transform="rotate(-52.7888 164.692 36.0201)" fill="var(--clr-art-scene-outline)" />
    <ellipse id="8647:944" opacity="0.4" cx="356.822" cy="224.098" rx="3.5" ry="7"
      transform="rotate(-114.63 356.822 224.098)" fill="var(--clr-art-scene-outline)" />
    <g id="Group 1948754569">
      <path id="8647:946"
        d="M303 287.167L320.894 285.235L322.569 300.748L350.572 297.726L353.993 329.422L308.095 334.376L303 287.167Z"
        fill="var(--clr-art-scene-fill)" stroke="var(--clr-art-scene-outline)"
        stroke-width="1.2" />
      <path id="8647:947" d="M317.285 272.682H335.284V288.285H363.45V320.165H317.285V272.682Z"
        fill="var(--clr-art-scene-fill)" stroke="var(--clr-art-scene-outline)"
        stroke-width="1.2" />
      <path id="8647:948"
        d="M331.409 265.931C331.987 261.551 336.005 258.468 340.386 259.045L342.367 259.306C346.747 259.883 349.831 263.902 349.253 268.283L348.26 275.821L368.254 278.455C372.634 279.032 375.717 283.051 375.14 287.432L373.065 303.176C372.488 307.556 368.469 310.639 364.089 310.062L334.183 306.122C329.802 305.545 326.719 301.526 327.296 297.145L331.409 265.931Z"
        fill="var(--clr-art-scene-fill)" stroke="var(--clr-art-scene-outline)"
        stroke-width="1.2" />
    </g>
    <g id="Group 2">
      <path id="8647:959"
        d="M25.6997 284.541C24.7896 279.094 28.4678 273.94 33.9151 273.03L51.1954 270.143C53.8599 269.698 56.5912 270.35 58.7676 271.95L88.7867 294.025C90.8837 295.567 92.2968 297.866 92.7257 300.434L95.791 318.781C96.7011 324.229 93.0229 329.382 87.5756 330.293L44.6793 337.459C39.232 338.369 34.0782 334.691 33.1682 329.244L25.6997 284.541Z"
        fill="var(--clr-art-scene-fill)" stroke="var(--clr-art-scene-outline)"
        stroke-width="1.2" />
      <path id="8647:960"
        d="M48.544 295.652L43.0853 310.799L53.1716 323.35M57.9027 322.56L60.7098 293.619M66.1168 292.716L76.2031 305.267L70.7444 320.414"
        stroke="var(--clr-art-scene-outline)" stroke-width="1.2" />
    </g>
  </g>
</svg>