<svg xmlns="http://www.w3.org/2000/svg" width="300" height="220" viewBox="0 0 300 220" fill="none">
<g id="6345:5923">
<g id="6345:5853">
<path id="6345:5854" opacity="0.16" d="M218 117C218 107.611 225.611 100 235 100H262.284C271.673 100 279.284 107.611 279.284 117V135.499C279.284 139.222 280.506 142.841 282.762 145.802L294.178 160.786C296.434 163.747 297.656 167.367 297.656 171.089V201.154C297.656 210.543 290.045 218.154 280.656 218.154H235C225.611 218.154 218 210.543 218 201.154V117Z" fill="var(--clr-core-ntrl-60)"/>
<path id="6345:6799" opacity="0.5" d="M278.5 203L289.5 197.5M278.5 197L289.5 191.5M278.5 191L289.5 185.5" stroke="var(--clr-core-ntrl-55)" stroke-width="1.2"/>
<path id="6353:5825" opacity="0.5" d="M278.5 203L289.5 197.5M278.5 197L289.5 191.5M278.5 191L289.5 185.5" stroke="var(--clr-core-ntrl-55)" stroke-width="1.2"/>
<g id="6345:5855" opacity="0.6">
<rect id="6345:5857" opacity="0.8" x="227.547" y="110.684" width="42.1439" height="95.7403" rx="7" fill="var(--clr-scale-ntrl-100)"/>
<path id="6345:5901" opacity="0.5" d="M244 206.5V193M244 126V163M244 193H258.5V175M244 193V163M244 163H258.5V145.5" stroke="var(--clr-scale-ntrl-30)" stroke-width="1.2"/>
</g>
<g id="6345:5975" opacity="0.9">
<rect id="6345:5913" x="236" y="119" width="16" height="12" fill="var(--clr-scale-ntrl-60)"/>
<rect id="6345:5915" x="253" y="143" width="11" height="7" fill="var(--clr-scale-ntrl-70)"/>
<rect id="6345:5916" x="253" y="172" width="11" height="7" fill="var(--clr-scale-ntrl-60)"/>
</g>
</g>
<g id="6345:5861">
<path id="6345:5862" opacity="0.17" d="M122 149.835C122 142.103 128.268 135.835 136 135.835H197.656C205.388 135.835 211.656 142.103 211.656 149.835V204.305C211.656 212.037 205.388 218.305 197.656 218.305H136C128.268 218.305 122 212.037 122 204.305V149.835Z" fill="var(--clr-core-ntrl-60)"/>
<path id="6345:5863" opacity="0.5" d="M154.094 156L141 177.5L154.094 199M160.329 199L174.671 156M180.906 156L194 177.5L180.906 199" stroke="var(--clr-core-ntrl-55)" stroke-width="1.2"/>
</g>
<path id="6345:5873" opacity="0.17" d="M118 61V37H80L112 217.5H7V62C7 37.6995 26.6995 18 51 18H97C115.778 18 131 33.2223 131 52V61" stroke="var(--clr-scale-ntrl-10)"/>
<path id="6345:5919" opacity="0.17" d="M61 29H52C33.2223 29 18 44.2223 18 63V84" stroke="var(--clr-scale-ntrl-10)"/>
<path id="6345:5920" opacity="0.17" d="M33 67V92" stroke="var(--clr-scale-ntrl-10)"/>
<path id="6345:5922" opacity="0.17" d="M84 127L98 207" stroke="var(--clr-scale-ntrl-10)"/>
<path id="6345:5881" opacity="0.4" d="M215 89V64H231.5C238.404 64 244 69.5964 244 76.5C244 83.4036 238.404 89 231.5 89H215Z" stroke="var(--clr-core-ntrl-55)" stroke-width="6"/>
<path id="6345:6688" opacity="0.22" fill-rule="evenodd" clip-rule="evenodd" d="M205.979 61L203.786 69.3222L190.012 69.3797L192.22 61H205.979ZM207.22 61L205.029 69.317L212 69.2878V61H207.22ZM212 84.9929V95.08L211.151 98.3016L197.377 98.3592L200.886 85.0394L212 84.9929ZM212 70.4878V83.7929L201.203 83.8381L204.712 70.5183L212 70.4878ZM212 99.7899V112.803L208.568 112.818L212 99.7899ZM212 114.003L208.251 114.019L204.831 127H212V114.003ZM203.59 127L207.009 114.024L193.235 114.082L189.831 127H203.59ZM188.59 127L191.992 114.087L178.218 114.144L174.831 127H188.59ZM173.59 127L176.976 114.15L163.201 114.207L159.831 127H173.59ZM158.59 127L161.959 114.212L154 114.246V127H158.59ZM154 113.046L162.276 113.011L165.785 99.6913L154 99.7406V113.046ZM154 98.5406L166.102 98.49L169.611 85.1702L154 85.2354V98.5406ZM154 84.0354L169.927 83.9688L173.437 70.649L154 70.7303V84.0354ZM154 69.5303V61H175.979L173.753 69.4477L154 69.5303ZM177.22 61L174.996 69.4425L188.77 69.3849L190.979 61H177.22ZM189.696 70.5811L203.47 70.5235L199.961 83.8433L186.186 83.9009L189.696 70.5811ZM185.87 85.1022L199.644 85.0446L196.135 98.3644L182.36 98.422L185.87 85.1022ZM182.044 99.6233L195.818 99.5657L192.309 112.886L178.534 112.943L182.044 99.6233ZM197.06 99.5605L193.551 112.88L207.325 112.823L210.835 99.5029L197.06 99.5605ZM180.802 99.6285L177.292 112.948L163.518 113.006L167.027 99.6861L180.802 99.6285ZM181.118 98.4272L167.344 98.4848L170.853 85.165L184.628 85.1074L181.118 98.4272ZM184.944 83.9061L171.17 83.9636L174.679 70.6439L188.453 70.5863L184.944 83.9061Z" fill="var(--clr-core-ntrl-60)"/>
<path id="6345:5870" opacity="0.9" d="M114 61H134L154 94V127H134L114 61Z" fill="var(--clr-scale-ntrl-60)"/>
<path id="6345:5871" opacity="0.4" d="M211 61V51C211 35.536 198.464 23 183 23V23C167.536 23 155 35.536 155 51V61" stroke="var(--clr-core-ntrl-55)" stroke-width="2"/>
<g id="6345:5877">
<path id="6345:5864" d="M28 218H86L96 174H18L28 218Z" fill="var(--clr-scale-pop-70)"/>
<circle id="6345:5866" cx="28" cy="116" r="13" fill="var(--clr-scale-pop-70)"/>
<circle id="6345:5867" cx="87" cy="90" r="13" fill="var(--clr-scale-pop-70)"/>
<circle id="6345:5868" cx="57.5" cy="59.5" r="16.5" fill="var(--clr-scale-pop-70)"/>
<path id="6345:5865" d="M57.5 155V137.25M57.5 49.5V60.75M57.5 112.5V137.25M57.5 112.5L81.9286 93.5M57.5 112.5V68M93.5 84.5L86.5 90M57.5 137.25L33 119.045M21.5 110.5L29 116.073M81.9286 93.5L92.5 97M81.9286 93.5L86.5 90M86.5 90L85.5 80.5M57.5 68L70.5 60M57.5 68V60.75M57.5 60.75L48.5 53M29 116.073L30.5 106.5M29 116.073L33 119.045M33 119.045L22.5 122.5" stroke="var(--clr-scale-pop-60)" stroke-width="2"/>
<path id="6345:5872" d="M18 155H96V174H18V155Z" fill="var(--clr-scale-pop-60)"/>
</g>
<path id="6345:5878" opacity="0.2" d="M237.514 14.9468C246.595 29.7977 252.836 34.07 266.082 33.4355C256.551 40.9588 253.494 47.3344 255.624 65.8178C246.549 49.7927 240.435 46.1109 227.055 47.3292C238.158 38.8166 240.273 31.6963 237.514 14.9468Z" fill="var(--clr-core-ntrl-50)"/>
<path id="6345:5880" opacity="0.3" d="M273.685 65.2455C273.551 74.5621 275.404 78.4034 282.518 82.3683C275.083 82.5658 271.399 84.3397 266.45 92.9999C266.973 83.1787 264.992 79.6327 257.617 75.8772C266.196 75.7555 269.633 73.3586 273.685 65.2455Z" fill="var(--clr-core-ntrl-50)"/>
<ellipse id="6345:5900" opacity="0.2" cx="284.297" cy="47.2224" rx="9.34988" ry="10.9614" transform="rotate(42.4492 284.297 47.2224)" fill="var(--clr-core-ntrl-60)"/>
</g>
</svg>