<svg xmlns="http://www.w3.org/2000/svg" width="120" height="100" viewBox="0 0 120 100" fill="none">
    <g id="Group 1948754517">
        <path id="8698:12588" opacity="0.33"
            d="M34.9722 79.0018L80.0676 76.1586C86.5068 75.7527 89.7264 75.5497 92.0115 73.97C93.3532 73.0423 94.4477 71.8005 95.1995 70.3529C96.4797 67.8875 96.2767 64.6679 95.8708 58.2287L94.2907 33.1675C93.8847 26.7283 93.6818 23.5088 92.102 21.2237C91.1744 19.8819 89.9326 18.7874 88.4849 18.0357C86.0196 16.7554 82.8 16.9584 76.3608 17.3644L49.365 19.0664C47.816 19.1641 47.0415 19.2129 46.3576 19.3532C42.9543 20.0515 40.1574 22.4661 38.9699 25.731C38.7312 26.3871 38.5699 27.1462 38.2472 28.6643L35.5958 41.1387C35.1266 43.346 34.892 44.4497 34.4482 45.4323C33.796 46.8765 32.8098 48.1449 31.5711 49.1332C30.7283 49.8055 29.7026 50.3119 27.6511 51.3247C24.9729 52.647 23.6337 53.3081 22.6206 54.2119C21.0266 55.6339 19.9299 57.5291 19.4911 59.6197C19.2122 60.9483 19.3048 62.4176 19.4901 65.3562C19.7593 69.6251 19.8938 71.7596 20.6435 73.4218C21.8252 76.0422 24.0775 78.0273 26.8256 78.8706C28.5687 79.4055 30.7032 79.2709 34.9722 79.0018Z"
            fill="var(--clr-core-ntrl-70)" />
        <path id="8698:12589"
            d="M50.3304 47.3764L61.1532 55.4794C62.7942 56.708 65.0983 56.4972 66.4891 54.9913L82.9404 37.1779"
            stroke="var(--clr-core-ntrl-60)" stroke-width="2" />
        <path id="8698:12590" opacity="0.3"
            d="M36.1051 91.1107L47.659 78.2018L66.8838 76.9898L82.7672 88.1687L36.1051 91.1107Z"
            fill="var(--clr-core-ntrl-50)" />
    </g>
    <path id="8698:12591" opacity="0.3"
        d="M1.99331 22.2746L6.56952 18.3859C9.20711 16.1446 10.6359 12.7925 10.4264 9.3376L10.0437 3.02769L14.0383 7.92713C16.2255 10.6098 19.5478 12.1065 23.0062 11.9672L29.0067 11.7257L24.4305 15.6144C21.7929 17.8557 20.3641 21.2077 20.5736 24.6626L20.9563 30.9725L16.9617 26.0731C14.7745 23.3905 11.4522 21.8938 7.99375 22.033L1.99331 22.2746Z"
        fill="var(--clr-core-pop-50)" />
    <path id="8698:12592" opacity="0.3"
        d="M114.049 76.3141L119.746 88.5636L108.951 96.6858L103.254 84.4363L114.049 76.3141Z"
        fill="var(--clr-core-pop-50)" />
</svg>