<svg width="100%" height="100%" viewBox="0 0 400 400" fill="none" xmlns="http://www.w3.org/2000/svg">
  <ellipse opacity="0.12" cx="226.371" cy="363.577" rx="133.506" ry="10.2992"
    fill="var(--clr-art-scene-outline)" />
  <path
    d="M291.475 362.636H149.845C162.949 325.339 197.866 301.512 231.984 297.2L253.996 164.654H262.216L280.035 238.572L291.475 362.636Z"
    fill="var(--clr-art-scene-fill)" stroke="var(--clr-art-scene-outline)" />
  <path
    d="M271.983 174.072L329.506 362.636H199.179C212.282 326.281 232.491 312.163 266.608 304.084L260.938 174.072H271.983Z"
    fill="var(--clr-art-scene-fill)" stroke="var(--clr-art-scene-outline)" />
  <path
    d="M226.002 127.399C226.374 124.106 224.006 121.136 220.713 120.764C217.42 120.393 214.449 122.761 214.078 126.054L226.002 127.399ZM129.445 154.538C135.55 169.468 143.576 181.715 152.622 190.08C161.627 198.408 172.173 203.326 182.988 202.163C193.955 200.984 203.496 193.748 210.756 181.413C217.98 169.138 223.304 151.306 226.002 127.399L214.078 126.054C211.482 149.062 206.461 165.051 200.414 175.326C194.402 185.541 187.743 189.583 181.706 190.232C175.517 190.897 168.254 188.193 160.769 181.27C153.324 174.385 146.178 163.753 140.552 149.996L129.445 154.538Z"
    fill="var(--clr-art-scene-outline)" />
  <path
    d="M309.709 49.8357C319.582 50.2731 327.257 58.5901 326.9 68.4673L325.519 106.735C325.304 112.698 328.059 118.381 332.873 121.907L341.517 128.236C346.299 131.738 349.051 137.37 348.875 143.294L348.182 166.634C347.883 176.665 339.44 184.515 329.415 184.083L194.596 178.275C184.512 177.84 176.756 169.2 177.408 159.128L183.705 61.9047C184.338 52.1273 192.675 44.6522 202.464 45.0857L309.709 49.8357Z"
    fill="var(--clr-art-scene-fill)" stroke="var(--clr-art-scene-outline)" stroke-width="1.2" />
  <path
    d="M324.439 155.718L338.017 150.964M324.622 162.541L338.201 157.787M324.805 169.36L338.384 164.607"
    stroke="var(--clr-art-scene-outline)" stroke-width="1.2" />
  <rect opacity="0.13" x="193.614" y="53.6751" width="95.9553" height="107.539" rx="9.86"
    transform="rotate(2.72776 193.614 53.6751)" fill="var(--clr-art-scene-outline)" />
  <path
    d="M223.757 155.531L222.998 170.644L236.879 165.302L249.872 171.941L250.944 157.109L236.803 161.47L223.757 155.531Z"
    fill="var(--clr-art-scene-outline)" />
  <path
    d="M270.636 181.536L276.083 181.791C286.007 182.255 294.43 174.591 294.903 164.668L299.537 67.4546C300.016 57.3964 292.151 48.9013 282.086 48.6053L280.16 48.5487"
    stroke="var(--clr-art-scene-outline)" stroke-width="1.2" />
  <rect x="101.224" y="94.4771" width="44.2646" height="30.1376" fill="var(--clr-art-scene-outline)" />
  <path
    d="M316.356 139.8C316.428 136.487 313.8 133.743 310.487 133.672C307.174 133.6 304.431 136.228 304.359 139.54L316.356 139.8ZM213.91 162.23C223.964 195.671 248.023 216.085 272.11 213.641C296.853 211.13 315.367 185.471 316.356 139.8L304.359 139.54C303.41 183.353 286.206 200.149 270.899 201.702C254.936 203.322 234.612 189.41 225.402 158.775L213.91 162.23Z"
    fill="var(--clr-art-scene-outline)" />
  <path
    d="M131.904 158.907C119.193 158.643 107.293 151.964 102.907 145.397L122.907 141.896L159.231 146.719C156.096 153.994 144.615 159.171 131.904 158.907Z"
    fill="var(--clr-art-scene-fill)" stroke="var(--clr-art-scene-outline)" stroke-width="1.2" />
  <path
    d="M132.304 71.403L81.2697 61.0432L78.3947 151.862L138.425 144.863L154.401 151.496L268.394 126.969L270.277 100.128L158.74 61.8458L132.304 71.403Z"
    fill="var(--clr-art-scene-outline)" stroke="var(--clr-art-scene-outline)" />
  <rect x="41.8909" y="60.5723" width="67.8096" height="91.3546" rx="33.9048"
    fill="var(--clr-art-scene-fill)" stroke="var(--clr-art-scene-outline)" stroke-width="1.2" />
  <path fill-rule="evenodd" clip-rule="evenodd"
    d="M58.3882 78.4682L58.3723 78.487V93.5353H71.0866V109.546H58.3723V127.911L88.5099 131.678V82.2335L58.3882 78.4682Z"
    fill="var(--clr-art-scene-outline)" />
  <rect x="115.351" y="60.5723" width="67.8096" height="91.3546" rx="33.9048"
    fill="var(--clr-art-scene-fill)" stroke="var(--clr-art-scene-outline)" stroke-width="1.2" />
  <path fill-rule="evenodd" clip-rule="evenodd"
    d="M132.79 78.4683L132.775 78.4871V93.5353H145.489V109.546H132.775V127.911L162.912 131.678V82.2335L132.79 78.4683Z"
    fill="var(--clr-art-scene-outline)" />
  <path
    d="M225.688 167.114C209.537 172.081 201.01 165.638 199.7 161.298C188.071 160.742 180.746 154.262 176.91 147.025C190.166 142.367 193.902 133.754 195.799 122.515C198.169 108.467 188.066 72.6672 200.719 69.8716C208.262 68.205 212.623 74.7544 213.754 79.404C213.52 75.6967 213.728 67.3638 221.949 67.9089C228.871 68.3679 232.914 79.7117 233.822 84.1059C233.853 80.0147 235.094 72.1515 242.017 72.6107C252.759 73.3232 254.903 109.822 249.668 130.904L261.811 128.579C257.944 139.88 251.668 148.332 239.835 152.643C242.142 155.204 237.926 163.351 225.688 167.114Z"
    fill="var(--clr-art-scene-fill)" />
  <path
    d="M199.7 161.298C201.01 165.638 209.537 172.081 225.688 167.114C237.926 163.351 242.142 155.204 239.835 152.643M199.7 161.298C188.071 160.742 180.746 154.262 176.91 147.025C190.166 142.367 193.902 133.754 195.799 122.515C198.169 108.467 188.066 72.6672 200.719 69.8716C208.262 68.205 212.623 74.7544 213.754 79.404M199.7 161.298C203.689 161.402 212.988 161.216 218.272 159.64M239.835 152.643C251.668 148.332 257.944 139.88 261.811 128.579L249.668 130.904M239.835 152.643L229.475 157.012M249.668 130.904C254.903 109.822 252.759 73.3232 242.017 72.6107C235.094 72.1515 233.853 80.0147 233.822 84.1059M249.668 130.904C248.745 132.769 247.186 135.795 245.388 137.602M233.822 84.1059C232.914 79.7117 228.871 68.3679 221.949 67.9089C213.728 67.3638 213.52 75.6967 213.754 79.404M233.822 84.1059C235.71 91.7753 235.749 112.308 232.91 123.291M213.754 79.404C216.051 89.3478 217.457 113.358 214.657 123.766M210.488 132.398C209.788 135.722 207.984 142.681 206.367 143.923M220.991 133.095C220.928 134.054 219.225 141.645 217.427 143.452M231.065 133.041C230.757 135.267 229.722 140.271 228.042 142.471"
    stroke="var(--clr-art-scene-outline)" stroke-width="1.2" />
</svg>