<svg viewBox="0 0 300 241" fill="none">
  <g opacity="0.8">
    <path d="M167 37.5H279C290.046 37.5 299 46.454 299 57.5V202.5C299 213.546 290.046 222.5 279 222.5H167V37.5ZM91 15.5C91 9.977 95.477 5.5 101 5.5H155C160.523 5.5 165 9.977 165 15.5V37.5H91V15.5ZM165 15.5C165 9.977 169.477 5.5 175 5.5H229C234.523 5.5 239 9.977 239 15.5V37.5H165V15.5Z" fill="white" stroke="#D4D0CE" stroke-width="1.2"/>
  </g>
  <path d="M17 15.5C17 9.97715 21.4772 5.5 27 5.5H81C86.5229 5.5 91 9.97715 91 15.5V37.5H17V15.5Z" fill="white" stroke="#B4AFAC" stroke-width="1.2"/>
  <path opacity="0.7" d="M42.5869 19.5291C42.5377 19.0921 42.3345 18.7536 41.9775 18.5135C41.6205 18.2704 41.1712 18.1488 40.6295 18.1488C40.2417 18.1488 39.9063 18.2103 39.6231 18.3335C39.34 18.4535 39.1199 18.6197 38.963 18.832C38.8091 19.0413 38.7322 19.2798 38.7322 19.5476C38.7322 19.7723 38.7845 19.9661 38.8891 20.1293C38.9968 20.2924 39.1369 20.4293 39.3092 20.5401C39.4846 20.6478 39.6724 20.7386 39.8724 20.8125C40.0725 20.8833 40.2648 20.9418 40.4495 20.9879L41.3728 21.228C41.6744 21.3018 41.9837 21.4019 42.3007 21.5281C42.6177 21.6542 42.9116 21.8204 43.1824 22.0266C43.4533 22.2328 43.6718 22.4883 43.838 22.793C44.0073 23.0977 44.0919 23.4624 44.0919 23.8871C44.0919 24.4226 43.9534 24.8981 43.6764 25.3136C43.4025 25.729 43.0039 26.0568 42.4807 26.2969C41.9606 26.5369 41.3312 26.657 40.5926 26.657C39.8847 26.657 39.2723 26.5446 38.7552 26.32C38.2382 26.0953 37.8335 25.7768 37.5411 25.3643C37.2487 24.9489 37.0872 24.4564 37.0564 23.8871H38.4875C38.5152 24.2287 38.626 24.5134 38.8199 24.7411C39.0168 24.9658 39.2677 25.1335 39.5724 25.2443C39.8801 25.352 40.2171 25.4059 40.5834 25.4059C40.9865 25.4059 41.3451 25.3428 41.659 25.2166C41.976 25.0874 42.2253 24.9089 42.4069 24.6811C42.5885 24.4503 42.6792 24.181 42.6792 23.8732C42.6792 23.5932 42.5992 23.3639 42.4392 23.1854C42.2822 23.0069 42.0683 22.8591 41.7975 22.7422C41.5297 22.6252 41.2266 22.5221 40.8881 22.4329L39.7709 22.1282C39.0138 21.922 38.4136 21.6188 37.9704 21.2188C37.5303 20.8187 37.3103 20.2893 37.3103 19.6307C37.3103 19.0859 37.458 18.6104 37.7535 18.2042C38.0489 17.7979 38.449 17.4825 38.9537 17.2578C39.4585 17.0301 40.0278 16.9162 40.6618 16.9162C41.302 16.9162 41.8667 17.0285 42.3561 17.2532C42.8485 17.4779 43.2363 17.7872 43.5194 18.1811C43.8026 18.572 43.9503 19.0213 43.9626 19.5291H42.5869ZM48.9957 19.4091V20.517H45.1225V19.4091H48.9957ZM46.1612 17.7102H47.5415V24.418C47.5415 24.6857 47.5816 24.8873 47.6616 25.0227C47.7416 25.1551 47.8447 25.2459 47.9709 25.2951C48.1001 25.3413 48.2402 25.3643 48.391 25.3643C48.5018 25.3643 48.5987 25.3567 48.6818 25.3413C48.7649 25.3259 48.8295 25.3136 48.8757 25.3043L49.125 26.4446C49.045 26.4754 48.9311 26.5062 48.7834 26.5369C48.6357 26.5708 48.451 26.5893 48.2294 26.5923C47.8662 26.5985 47.5277 26.5339 47.2138 26.3984C46.8999 26.263 46.646 26.0537 46.4521 25.7706C46.2582 25.4875 46.1612 25.132 46.1612 24.7042V17.7102ZM52.5862 26.657C52.1369 26.657 51.7306 26.5739 51.3675 26.4077C51.0043 26.2384 50.7165 25.9937 50.5042 25.6737C50.2949 25.3536 50.1903 24.9612 50.1903 24.4964C50.1903 24.0964 50.2672 23.767 50.4211 23.5085C50.575 23.25 50.7827 23.0453 51.0443 22.8945C51.3059 22.7437 51.5983 22.6299 51.9214 22.5529C52.2446 22.476 52.5739 22.4175 52.9094 22.3775C53.3341 22.3282 53.6788 22.2882 53.9434 22.2575C54.2081 22.2236 54.4005 22.1697 54.5205 22.0959C54.6405 22.022 54.7006 21.902 54.7006 21.7358V21.7035C54.7006 21.3003 54.5867 20.9879 54.3589 20.7663C54.1343 20.5447 53.7988 20.4339 53.3525 20.4339C52.8878 20.4339 52.5216 20.537 52.2538 20.7433C51.9891 20.9464 51.806 21.1726 51.7045 21.4219L50.4072 21.1264C50.5611 20.6955 50.7858 20.3478 51.0812 20.0831C51.3798 19.8153 51.7229 19.6214 52.1107 19.5014C52.4985 19.3783 52.9063 19.3168 53.3341 19.3168C53.6172 19.3168 53.9173 19.3506 54.2343 19.4183C54.5544 19.483 54.8529 19.603 55.1299 19.7784C55.4099 19.9538 55.6392 20.2047 55.8177 20.5309C55.9962 20.854 56.0855 21.2741 56.0855 21.7912V26.5H54.7375V25.5305H54.6821C54.5928 25.709 54.459 25.8845 54.2805 26.0568C54.1019 26.2292 53.8727 26.3723 53.5926 26.4862C53.3125 26.6 52.9771 26.657 52.5862 26.657ZM52.8863 25.549C53.2679 25.549 53.5941 25.4736 53.865 25.3228C54.1389 25.172 54.3466 24.975 54.4882 24.7319C54.6328 24.4857 54.7052 24.2225 54.7052 23.9425V23.0284C54.6559 23.0777 54.5605 23.1238 54.4189 23.1669C54.2805 23.2069 54.122 23.2423 53.9434 23.2731C53.7649 23.3008 53.5911 23.3269 53.4218 23.3516C53.2525 23.3731 53.1109 23.3916 52.9971 23.407C52.7293 23.4408 52.4846 23.4978 52.2631 23.5778C52.0445 23.6578 51.8691 23.7732 51.7368 23.924C51.6075 24.0717 51.5429 24.2687 51.5429 24.5149C51.5429 24.8565 51.6691 25.1151 51.9214 25.2905C52.1738 25.4628 52.4954 25.549 52.8863 25.549ZM60.9109 26.6431C60.2246 26.6431 59.6336 26.4877 59.1381 26.1768C58.6457 25.8629 58.2672 25.4305 58.0025 24.8796C57.7378 24.3287 57.6055 23.6978 57.6055 22.9869C57.6055 22.2667 57.7409 21.6312 58.0117 21.0803C58.2826 20.5263 58.6642 20.0939 59.1566 19.783C59.649 19.4722 60.2292 19.3168 60.897 19.3168C61.4356 19.3168 61.9157 19.4168 62.3374 19.6168C62.759 19.8138 63.0991 20.0908 63.3576 20.4478C63.6192 20.8048 63.7746 21.2218 63.8239 21.6989H62.4805C62.4066 21.3665 62.2373 21.0803 61.9727 20.8402C61.7111 20.6001 61.3602 20.4801 60.9201 20.4801C60.5354 20.4801 60.1984 20.5817 59.9091 20.7848C59.6229 20.9848 59.3997 21.2711 59.2397 21.6435C59.0797 22.0128 58.9996 22.4498 58.9996 22.9545C58.9996 23.4716 59.0781 23.9179 59.2351 24.2933C59.392 24.6688 59.6136 24.9596 59.8999 25.1658C60.1892 25.372 60.5292 25.4751 60.9201 25.4751C61.1817 25.4751 61.4187 25.4274 61.631 25.332C61.8465 25.2335 62.0265 25.0935 62.1712 24.9119C62.3189 24.7304 62.422 24.5118 62.4805 24.2564H63.8239C63.7746 24.715 63.6254 25.1243 63.3761 25.4844C63.1268 25.8445 62.7929 26.1276 62.3743 26.3338C61.9588 26.54 61.471 26.6431 60.9109 26.6431ZM66.5695 24.0948L66.5603 22.4098H66.8003L69.6256 19.4091H71.2783L68.056 22.8253H67.839L66.5695 24.0948ZM65.3 26.5V17.0455H66.6803V26.5H65.3ZM69.778 26.5L67.2389 23.13L68.1899 22.1651L71.4722 26.5H69.778Z" fill="#867E79"/>
  <path d="M17 37.5H169V222.5H37C25.9543 222.5 17 213.546 17 202.5V37.5Z" fill="white" stroke="#B4AFAC" stroke-width="1.2"/>
  <path d="M0 61.5C0 55.9772 4.47715 51.5 10 51.5H145C150.523 51.5 155 55.9772 155 61.5V117.5C155 123.023 150.523 127.5 145 127.5H10C4.47715 127.5 0 123.023 0 117.5V61.5Z" fill="white"/>
  <path opacity="0.7" d="M12.0387 74.5V65.0455H15.5011C16.172 65.0455 16.7275 65.1562 17.1676 65.3778C17.6077 65.5964 17.937 65.8933 18.1555 66.2688C18.3741 66.6412 18.4833 67.0613 18.4833 67.5291C18.4833 67.9231 18.411 68.2554 18.2663 68.5263C18.1217 68.794 17.9278 69.0095 17.6847 69.1726C17.4446 69.3326 17.1799 69.4496 16.8906 69.5234V69.6158C17.2045 69.6312 17.5108 69.7327 17.8093 69.9205C18.1109 70.1051 18.3602 70.3683 18.5572 70.7099C18.7541 71.0515 18.8526 71.467 18.8526 71.9563C18.8526 72.4395 18.7388 72.8735 18.511 73.2582C18.2863 73.6398 17.9386 73.9429 17.4677 74.1676C16.9968 74.3892 16.3951 74.5 15.6626 74.5H12.0387ZM13.4652 73.2766H15.5241C16.2074 73.2766 16.6967 73.1443 16.9922 72.8796C17.2876 72.6149 17.4354 72.2841 17.4354 71.8871C17.4354 71.5885 17.36 71.3146 17.2092 71.0653C17.0584 70.8161 16.8429 70.6175 16.5629 70.4698C16.2859 70.3221 15.9566 70.2482 15.5749 70.2482H13.4652V73.2766ZM13.4652 69.1357H15.3764C15.6965 69.1357 15.9843 69.0741 16.2397 68.951C16.4982 68.8279 16.7029 68.6555 16.8537 68.4339C17.0076 68.2093 17.0845 67.9446 17.0845 67.6399C17.0845 67.2491 16.9476 66.9213 16.6737 66.6566C16.3997 66.3919 15.9796 66.2596 15.4134 66.2596H13.4652V69.1357ZM20.4338 74.5V67.4091H21.7679V68.5355H21.8418C21.9711 68.1539 22.1988 67.8538 22.525 67.6353C22.8543 67.4137 23.2267 67.3029 23.6422 67.3029C23.7284 67.3029 23.83 67.306 23.9469 67.3121C24.0669 67.3183 24.1608 67.326 24.2285 67.3352V68.6555C24.1731 68.6402 24.0746 68.6232 23.9331 68.6048C23.7915 68.5832 23.6499 68.5724 23.5083 68.5724C23.1821 68.5724 22.8913 68.6417 22.6358 68.7802C22.3835 68.9156 22.1834 69.1049 22.0357 69.348C21.888 69.5881 21.8141 69.862 21.8141 70.1697V74.5H20.4338ZM27.4231 74.657C26.9738 74.657 26.5675 74.5739 26.2044 74.4077C25.8412 74.2384 25.5534 73.9937 25.3411 73.6737C25.1318 73.3536 25.0272 72.9612 25.0272 72.4964C25.0272 72.0964 25.1041 71.767 25.258 71.5085C25.4119 71.25 25.6196 71.0453 25.8812 70.8945C26.1428 70.7437 26.4352 70.6299 26.7583 70.5529C27.0815 70.476 27.4108 70.4175 27.7463 70.3775C28.171 70.3282 28.5157 70.2882 28.7804 70.2575C29.045 70.2236 29.2374 70.1697 29.3574 70.0959C29.4775 70.022 29.5375 69.902 29.5375 69.7358V69.7035C29.5375 69.3003 29.4236 68.9879 29.1958 68.7663C28.9712 68.5447 28.6357 68.4339 28.1895 68.4339C27.7247 68.4339 27.3585 68.537 27.0907 68.7433C26.8261 68.9464 26.6429 69.1726 26.5414 69.4219L25.2441 69.1264C25.398 68.6955 25.6227 68.3478 25.9181 68.0831C26.2167 67.8153 26.5598 67.6214 26.9476 67.5014C27.3354 67.3783 27.7432 67.3168 28.171 67.3168C28.4541 67.3168 28.7542 67.3506 29.0712 67.4183C29.3913 67.483 29.6898 67.603 29.9668 67.7784C30.2469 67.9538 30.4761 68.2047 30.6547 68.5309C30.8332 68.854 30.9224 69.2741 30.9224 69.7912V74.5H29.5744V73.5305H29.519C29.4297 73.709 29.2959 73.8845 29.1174 74.0568C28.9389 74.2292 28.7096 74.3723 28.4295 74.4862C28.1494 74.6 27.814 74.657 27.4231 74.657ZM27.7232 73.549C28.1048 73.549 28.431 73.4736 28.7019 73.3228C28.9758 73.172 29.1835 72.975 29.3251 72.7319C29.4698 72.4857 29.5421 72.2225 29.5421 71.9425V71.0284C29.4928 71.0777 29.3974 71.1238 29.2559 71.1669C29.1174 71.2069 28.9589 71.2423 28.7804 71.2731C28.6019 71.3008 28.428 71.3269 28.2587 71.3516C28.0894 71.3731 27.9479 71.3916 27.834 71.407C27.5662 71.4408 27.3216 71.4978 27.1 71.5778C26.8815 71.6578 26.706 71.7732 26.5737 71.924C26.4444 72.0717 26.3798 72.2687 26.3798 72.5149C26.3798 72.8565 26.506 73.1151 26.7583 73.2905C27.0107 73.4628 27.3323 73.549 27.7232 73.549ZM34.1412 70.2898V74.5H32.7609V67.4091H34.0858V68.5632H34.1736C34.3367 68.1877 34.5921 67.8861 34.9399 67.6584C35.2907 67.4306 35.7324 67.3168 36.2648 67.3168C36.748 67.3168 37.1712 67.4183 37.5344 67.6214C37.8975 67.8215 38.1791 68.12 38.3792 68.517C38.5792 68.9141 38.6792 69.4049 38.6792 69.9897V74.5H37.2989V70.1559C37.2989 69.6419 37.165 69.2403 36.8973 68.951C36.6295 68.6586 36.2617 68.5124 35.7939 68.5124C35.4739 68.5124 35.1892 68.5817 34.9399 68.7202C34.6937 68.8587 34.4983 69.0618 34.3536 69.3295C34.212 69.5942 34.1412 69.9143 34.1412 70.2898ZM43.5173 74.6431C42.831 74.6431 42.2401 74.4877 41.7446 74.1768C41.2522 73.8629 40.8736 73.4305 40.6089 72.8796C40.3443 72.3287 40.2119 71.6978 40.2119 70.9869C40.2119 70.2667 40.3473 69.6312 40.6182 69.0803C40.889 68.5263 41.2706 68.0939 41.7631 67.783C42.2555 67.4722 42.8356 67.3168 43.5035 67.3168C44.0421 67.3168 44.5222 67.4168 44.9438 67.6168C45.3654 67.8138 45.7055 68.0908 45.964 68.4478C46.2256 68.8048 46.3811 69.2218 46.4303 69.6989H45.0869C45.0131 69.3665 44.8438 69.0803 44.5791 68.8402C44.3175 68.6001 43.9666 68.4801 43.5265 68.4801C43.1418 68.4801 42.8048 68.5817 42.5155 68.7848C42.2293 68.9848 42.0062 69.2711 41.8461 69.6435C41.6861 70.0128 41.6061 70.4498 41.6061 70.9545C41.6061 71.4716 41.6846 71.9179 41.8415 72.2933C41.9985 72.6688 42.2201 72.9596 42.5063 73.1658C42.7956 73.372 43.1357 73.4751 43.5265 73.4751C43.7881 73.4751 44.0251 73.4274 44.2375 73.332C44.4529 73.2335 44.633 73.0935 44.7776 72.9119C44.9253 72.7304 45.0284 72.5118 45.0869 72.2564H46.4303C46.3811 72.715 46.2318 73.1243 45.9825 73.4844C45.7332 73.8445 45.3993 74.1276 44.9807 74.3338C44.5653 74.54 44.0774 74.6431 43.5173 74.6431ZM49.2868 70.2898V74.5H47.9064V65.0455H49.2683V68.5632H49.356C49.5222 68.1816 49.7761 67.8784 50.1177 67.6538C50.4593 67.4291 50.9056 67.3168 51.4565 67.3168C51.9428 67.3168 52.3675 67.4168 52.7306 67.6168C53.0969 67.8169 53.38 68.1154 53.5801 68.5124C53.7832 68.9064 53.8848 69.3988 53.8848 69.9897V74.5H52.5044V70.1559C52.5044 69.6358 52.3706 69.2326 52.1028 68.9464C51.835 68.6571 51.4627 68.5124 50.9856 68.5124C50.6594 68.5124 50.367 68.5817 50.1085 68.7202C49.853 68.8587 49.6515 69.0618 49.5037 69.3295C49.3591 69.5942 49.2868 69.9143 49.2868 70.2898ZM62.7126 74.5L64.2638 65.0455H65.3717L63.8206 74.5H62.7126ZM58.4331 71.9702L58.6132 70.8622H65.778L65.5979 71.9702H58.4331ZM59.3888 74.5L60.9399 65.0455H62.0479L60.4967 74.5H59.3888ZM58.9825 68.6832L59.1626 67.5753H66.3273L66.1473 68.6832H58.9825ZM67.426 74.5V73.4659L70.6253 70.1513C70.9669 69.7912 71.2485 69.4757 71.4701 69.2049C71.6948 68.931 71.8625 68.6709 71.9733 68.4247C72.0841 68.1785 72.1395 67.9169 72.1395 67.6399C72.1395 67.326 72.0656 67.0552 71.9179 66.8274C71.7702 66.5966 71.5686 66.4196 71.3131 66.2965C71.0577 66.1703 70.7699 66.1072 70.4498 66.1072C70.1113 66.1072 69.8158 66.1765 69.5635 66.315C69.3111 66.4535 69.1172 66.6489 68.9818 66.9013C68.8464 67.1536 68.7787 67.4491 68.7787 67.7876H67.4168C67.4168 67.2121 67.5492 66.7089 67.8138 66.2781C68.0785 65.8472 68.4417 65.5133 68.9033 65.2763C69.365 65.0362 69.8897 64.9162 70.4775 64.9162C71.0715 64.9162 71.5947 65.0347 72.0471 65.2717C72.5026 65.5056 72.8581 65.8256 73.1135 66.2319C73.369 66.6351 73.4967 67.0906 73.4967 67.5984C73.4967 67.9492 73.4305 68.2924 73.2982 68.6278C73.1689 68.9633 72.9427 69.3372 72.6196 69.7496C72.2964 70.159 71.8471 70.656 71.2716 71.2408L69.3927 73.2074V73.2766H73.6491V74.5H67.426Z" fill="#867E79"/>
  <path d="M1 87.5H154M1 97.5H154M1 107.5H154M1 117.5H154" stroke="#EAE9E8" stroke-width="1.2"/>
  <path d="M0.6 61.5C0.6 56.3085 4.80852 52.1 10 52.1H145C150.191 52.1 154.4 56.3085 154.4 61.5V117.5C154.4 122.691 150.191 126.9 145 126.9H10C4.80852 126.9 0.6 122.691 0.6 117.5V61.5Z" stroke="#B4AFAC" stroke-width="1.2"/>
  <path d="M0 148.5C0 142.977 4.47715 138.5 10 138.5H145C150.523 138.5 155 142.977 155 148.5V226.5C155 232.023 150.523 236.5 145 236.5H10C4.47715 236.5 0 232.023 0 226.5V148.5Z" fill="white"/>
  <path opacity="0.7" d="M29.0387 159.5V150.045H32.5011C33.172 150.045 33.7275 150.156 34.1676 150.378C34.6077 150.596 34.937 150.893 35.1555 151.269C35.3741 151.641 35.4833 152.061 35.4833 152.529C35.4833 152.923 35.411 153.255 35.2663 153.526C35.1217 153.794 34.9278 154.009 34.6847 154.173C34.4446 154.333 34.1799 154.45 33.8906 154.523V154.616C34.2045 154.631 34.5108 154.733 34.8093 154.92C35.1109 155.105 35.3602 155.368 35.5572 155.71C35.7541 156.051 35.8526 156.467 35.8526 156.956C35.8526 157.44 35.7388 157.873 35.511 158.258C35.2863 158.64 34.9386 158.943 34.4677 159.168C33.9968 159.389 33.3951 159.5 32.6626 159.5H29.0387ZM30.4652 158.277H32.5241C33.2074 158.277 33.6967 158.144 33.9922 157.88C34.2876 157.615 34.4354 157.284 34.4354 156.887C34.4354 156.589 34.36 156.315 34.2092 156.065C34.0584 155.816 33.8429 155.618 33.5629 155.47C33.2859 155.322 32.9566 155.248 32.5749 155.248H30.4652V158.277ZM30.4652 154.136H32.3764C32.6965 154.136 32.9843 154.074 33.2397 153.951C33.4982 153.828 33.7029 153.656 33.8537 153.434C34.0076 153.209 34.0845 152.945 34.0845 152.64C34.0845 152.249 33.9476 151.921 33.6737 151.657C33.3997 151.392 32.9796 151.26 32.4134 151.26H30.4652V154.136ZM37.4338 159.5V152.409H38.7679V153.536H38.8418C38.9711 153.154 39.1988 152.854 39.525 152.635C39.8543 152.414 40.2267 152.303 40.6422 152.303C40.7284 152.303 40.83 152.306 40.9469 152.312C41.0669 152.318 41.1608 152.326 41.2285 152.335V153.656C41.1731 153.64 41.0746 153.623 40.9331 153.605C40.7915 153.583 40.6499 153.572 40.5083 153.572C40.1821 153.572 39.8913 153.642 39.6358 153.78C39.3835 153.916 39.1834 154.105 39.0357 154.348C38.888 154.588 38.8141 154.862 38.8141 155.17V159.5H37.4338ZM44.4231 159.657C43.9738 159.657 43.5675 159.574 43.2044 159.408C42.8412 159.238 42.5534 158.994 42.3411 158.674C42.1318 158.354 42.0272 157.961 42.0272 157.496C42.0272 157.096 42.1041 156.767 42.258 156.509C42.4119 156.25 42.6196 156.045 42.8812 155.895C43.1428 155.744 43.4352 155.63 43.7583 155.553C44.0815 155.476 44.4108 155.417 44.7463 155.377C45.171 155.328 45.5157 155.288 45.7804 155.257C46.045 155.224 46.2374 155.17 46.3574 155.096C46.4775 155.022 46.5375 154.902 46.5375 154.736V154.703C46.5375 154.3 46.4236 153.988 46.1958 153.766C45.9712 153.545 45.6357 153.434 45.1895 153.434C44.7247 153.434 44.3585 153.537 44.0907 153.743C43.8261 153.946 43.6429 154.173 43.5414 154.422L42.2441 154.126C42.398 153.696 42.6227 153.348 42.9181 153.083C43.2167 152.815 43.5598 152.621 43.9476 152.501C44.3354 152.378 44.7432 152.317 45.171 152.317C45.4541 152.317 45.7542 152.351 46.0712 152.418C46.3913 152.483 46.6898 152.603 46.9668 152.778C47.2469 152.954 47.4761 153.205 47.6547 153.531C47.8332 153.854 47.9224 154.274 47.9224 154.791V159.5H46.5744V158.531H46.519C46.4297 158.709 46.2959 158.884 46.1174 159.057C45.9389 159.229 45.7096 159.372 45.4295 159.486C45.1494 159.6 44.814 159.657 44.4231 159.657ZM44.7232 158.549C45.1048 158.549 45.431 158.474 45.7019 158.323C45.9758 158.172 46.1835 157.975 46.3251 157.732C46.4698 157.486 46.5421 157.223 46.5421 156.942V156.028C46.4928 156.078 46.3974 156.124 46.2559 156.167C46.1174 156.207 45.9589 156.242 45.7804 156.273C45.6019 156.301 45.428 156.327 45.2587 156.352C45.0894 156.373 44.9479 156.392 44.834 156.407C44.5662 156.441 44.3216 156.498 44.1 156.578C43.8815 156.658 43.706 156.773 43.5737 156.924C43.4444 157.072 43.3798 157.269 43.3798 157.515C43.3798 157.857 43.506 158.115 43.7583 158.29C44.0107 158.463 44.3323 158.549 44.7232 158.549ZM51.1412 155.29V159.5H49.7609V152.409H51.0858V153.563H51.1736C51.3367 153.188 51.5921 152.886 51.9399 152.658C52.2907 152.431 52.7324 152.317 53.2648 152.317C53.748 152.317 54.1712 152.418 54.5344 152.621C54.8975 152.821 55.1791 153.12 55.3792 153.517C55.5792 153.914 55.6792 154.405 55.6792 154.99V159.5H54.2989V155.156C54.2989 154.642 54.165 154.24 53.8973 153.951C53.6295 153.659 53.2617 153.512 52.7939 153.512C52.4739 153.512 52.1892 153.582 51.9399 153.72C51.6937 153.859 51.4983 154.062 51.3536 154.33C51.212 154.594 51.1412 154.914 51.1412 155.29ZM60.5173 159.643C59.831 159.643 59.2401 159.488 58.7446 159.177C58.2522 158.863 57.8736 158.431 57.6089 157.88C57.3443 157.329 57.2119 156.698 57.2119 155.987C57.2119 155.267 57.3473 154.631 57.6182 154.08C57.889 153.526 58.2706 153.094 58.7631 152.783C59.2555 152.472 59.8356 152.317 60.5035 152.317C61.0421 152.317 61.5222 152.417 61.9438 152.617C62.3654 152.814 62.7055 153.091 62.964 153.448C63.2256 153.805 63.3811 154.222 63.4303 154.699H62.0869C62.0131 154.366 61.8438 154.08 61.5791 153.84C61.3175 153.6 60.9666 153.48 60.5265 153.48C60.1418 153.48 59.8048 153.582 59.5155 153.785C59.2293 153.985 59.0062 154.271 58.8461 154.643C58.6861 155.013 58.6061 155.45 58.6061 155.955C58.6061 156.472 58.6846 156.918 58.8415 157.293C58.9985 157.669 59.2201 157.96 59.5063 158.166C59.7956 158.372 60.1357 158.475 60.5265 158.475C60.7881 158.475 61.0251 158.427 61.2375 158.332C61.4529 158.234 61.633 158.094 61.7776 157.912C61.9253 157.73 62.0284 157.512 62.0869 157.256H63.4303C63.3811 157.715 63.2318 158.124 62.9825 158.484C62.7332 158.844 62.3993 159.128 61.9807 159.334C61.5653 159.54 61.0774 159.643 60.5173 159.643ZM66.2868 155.29V159.5H64.9064V150.045H66.2683V153.563H66.356C66.5222 153.182 66.7761 152.878 67.1177 152.654C67.4593 152.429 67.9056 152.317 68.4565 152.317C68.9428 152.317 69.3675 152.417 69.7306 152.617C70.0969 152.817 70.38 153.115 70.5801 153.512C70.7832 153.906 70.8848 154.399 70.8848 154.99V159.5H69.5044V155.156C69.5044 154.636 69.3706 154.233 69.1028 153.946C68.835 153.657 68.4627 153.512 67.9856 153.512C67.6594 153.512 67.367 153.582 67.1085 153.72C66.853 153.859 66.6515 154.062 66.5037 154.33C66.3591 154.594 66.2868 154.914 66.2868 155.29ZM79.7126 159.5L81.2638 150.045H82.3717L80.8206 159.5H79.7126ZM75.4331 156.97L75.6132 155.862H82.778L82.5979 156.97H75.4331ZM76.3888 159.5L77.9399 150.045H79.0479L77.4967 159.5H76.3888ZM75.9825 153.683L76.1626 152.575H83.3273L83.1473 153.683H75.9825ZM88.0131 150.045V159.5H86.5819V151.477H86.5265L84.2645 152.954V151.587L86.6235 150.045H88.0131Z" fill="#867E79"/>
  <path d="M0.5 210.5H154M0.5 220.5H154M0.5 230.5H154" stroke="#EAE9E8" stroke-width="1.2"/>
  <path d="M28.6 176.5C28.6 174.07 30.5699 172.1 33 172.1H133C135.43 172.1 137.4 174.07 137.4 176.5V194.5C137.4 196.93 135.43 198.9 133 198.9H33C30.5699 198.9 28.6 196.93 28.6 194.5V176.5Z" fill="#D2F4E4" stroke="#4AB582" stroke-width="1.2"/>
  <path d="M37.0387 190.5V181.045H40.4087C41.1443 181.045 41.7537 181.179 42.2369 181.447C42.7201 181.715 43.0817 182.081 43.3217 182.546C43.5618 183.007 43.6818 183.528 43.6818 184.106C43.6818 184.688 43.5603 185.211 43.3171 185.676C43.0771 186.137 42.7139 186.504 42.2276 186.775C41.7444 187.042 41.1366 187.176 40.4041 187.176H38.0866V185.967H40.2749C40.7396 185.967 41.1166 185.887 41.4059 185.727C41.6952 185.563 41.9076 185.342 42.043 185.062C42.1784 184.782 42.2461 184.463 42.2461 184.106C42.2461 183.749 42.1784 183.432 42.043 183.155C41.9076 182.878 41.6937 182.661 41.4013 182.504C41.112 182.347 40.7304 182.269 40.2564 182.269H38.4652V190.5H37.0387ZM45.3541 190.5V181.045H48.7242C49.4566 181.045 50.0645 181.172 50.5477 181.424C51.0339 181.676 51.3971 182.026 51.6372 182.472C51.8772 182.915 51.9972 183.428 51.9972 184.009C51.9972 184.588 51.8757 185.097 51.6325 185.537C51.3925 185.974 51.0293 186.314 50.5431 186.558C50.0599 186.801 49.452 186.922 48.7195 186.922H46.1666V185.694H48.5903C49.0519 185.694 49.4274 185.628 49.7167 185.496C50.0091 185.363 50.223 185.171 50.3584 184.919C50.4938 184.666 50.5615 184.363 50.5615 184.009C50.5615 183.652 50.4923 183.343 50.3538 183.081C50.2184 182.82 50.0045 182.62 49.7121 182.481C49.4228 182.34 49.0427 182.269 48.5718 182.269H46.7806V190.5H45.3541ZM50.0214 186.234L52.3573 190.5H50.7323L48.4426 186.234H50.0214Z" fill="#4AB582"/>
  <path d="M14 156.5V180.5C14 183.261 16.2386 185.5 19 185.5H29" stroke="#4AB582" stroke-width="1.2"/>
  <circle cx="14" cy="155.5" r="4" fill="#4AB582"/>
  <path d="M0.6 148.5C0.6 143.309 4.80852 139.1 10 139.1H145C150.191 139.1 154.4 143.309 154.4 148.5V226.5C154.4 231.691 150.191 235.9 145 235.9H10C4.80852 235.9 0.6 231.691 0.6 226.5V148.5Z" stroke="#B4AFAC" stroke-width="1.2"/>
  <circle cx="17.5" cy="126" r="4.5" fill="#B4AFAC"/>
  <circle cx="17.5" cy="140" r="4.5" fill="#B4AFAC"/>
  <path d="M142.951 185.5H163M142.809 190.75L160.172 204.25M142.809 180.25L160.172 166.75" stroke="#4AB582" stroke-width="1.2"/>
</svg>
