<svg xmlns="http://www.w3.org/2000/svg" fill="none" viewBox="0 0 300 241">
  <path fill="#fff" stroke="#D4D0CE" stroke-width="1.2" d="M1.6 24.5C1.6 13.786 10.286 5.1 21 5.1h258c10.714 0 19.4 8.686 19.4 19.4v192c0 10.714-8.686 19.4-19.4 19.4H21c-10.714 0-19.4-8.686-19.4-19.4z"/>
  <path stroke="#D4D0CE" stroke-width="1.2" d="M13.6 214.5V48.1h166.8v175.8H23a9.4 9.4 0 0 1-9.4-9.4Z"/>
  <path fill="#fff" stroke="#D4D0CE" stroke-width="1.2" d="M179.6 48.1H277a9.4 9.4 0 0 1 9.4 9.4v157a9.4 9.4 0 0 1-9.4 9.4h-97.4z" opacity=".6"/>
  <path fill="#fff" stroke="#D4D0CE" stroke-width="1.2" d="M13.6 26.5a9.4 9.4 0 0 1 9.4-9.4h44a9.4 9.4 0 0 1 9.4 9.4v21.4H13.6z"/>
  <g stroke="#D4D0CE" stroke-width="1.2" opacity=".5">
    <path fill="#fff" d="M76.6 26.5a9.4 9.4 0 0 1 9.4-9.4h44a9.4 9.4 0 0 1 9.4 9.4v21.4H76.6z"/>
    <path d="M76.6 26.5a9.4 9.4 0 0 1 9.4-9.4h44a9.4 9.4 0 0 1 9.4 9.4v21.4H76.6z"/>
    <path fill="#fff" d="M139.6 26.5a9.4 9.4 0 0 1 9.4-9.4h44a9.4 9.4 0 0 1 9.4 9.4v21.4h-62.8z"/>
    <path d="M139.6 26.5a9.4 9.4 0 0 1 9.4-9.4h44a9.4 9.4 0 0 1 9.4 9.4v21.4h-62.8z"/>
  </g>
  <path fill="#fff" d="M23 67.5c0-5.523 4.477-10 10-10h128c5.523 0 10 4.477 10 10v110c0 5.523-4.477 10-10 10H33c-5.523 0-10-4.477-10-10z"/>
  <path stroke="#EAE9E8" stroke-width="1.2" d="M24 76.5h146m-146 16h146m-146 16h146m-146 16h146m-146 16h146m-146 16h146m-146 16h146"/>
  <path fill="#D4D0CE" d="M24 92.5h146v16H24z" opacity=".43"/>
  <path fill="#867E79" d="M32 67.385c0-.489.396-.885.885-.885H142.25a.886.886 0 1 1 0 1.77H32.885a.885.885 0 0 1-.885-.885m0 17c0-.489.396-.885.885-.885H152.25a.886.886 0 1 1 0 1.77H32.885a.885.885 0 0 1-.885-.885m0 16c0-.489.396-.885.885-.885H152.25a.886.886 0 1 1 0 1.771H32.885a.886.886 0 0 1-.885-.886m0 16c0-.489.396-.885.885-.885H152.25a.886.886 0 1 1 0 1.771H32.885a.886.886 0 0 1-.885-.886m0 16c0-.489.396-.885.885-.885h69.365a.886.886 0 1 1 0 1.771H32.885a.886.886 0 0 1-.885-.886m0 16c0-.489.396-.885.885-.885H152.25a.886.886 0 1 1 0 1.771H32.885a.886.886 0 0 1-.885-.886m0 16c0-.489.396-.885.885-.885h89.365a.886.886 0 1 1 0 1.771H32.885a.886.886 0 0 1-.885-.886m0 16c0-.489.396-.885.885-.885H152.25a.886.886 0 1 1 0 1.771H32.885a.886.886 0 0 1-.885-.886" opacity=".3"/>
  <path fill="#3CB4AE" d="M24 139.5h146v2H24z"/>
  <path stroke="#D4D0CE" stroke-width="1.2" d="M23.6 67.5a9.4 9.4 0 0 1 9.4-9.4h128a9.4 9.4 0 0 1 9.4 9.4v110a9.4 9.4 0 0 1-9.4 9.4H33a9.4 9.4 0 0 1-9.4-9.4z"/>
  <path fill="#fff" stroke="#D4D0CE" stroke-width="1.2" d="M23.6 203.5a9.4 9.4 0 0 1 9.4-9.4h128a9.4 9.4 0 0 1 9.4 9.4v20.4H23.6z"/>
  <path fill="#F3FCFB" stroke="#3CB4AE" stroke-width="1.2" d="M55.6 100.5a9.4 9.4 0 0 1 9.4-9.4h128a9.4 9.4 0 0 1 9.4 9.4v10a9.4 9.4 0 0 1-9.4 9.4H65a9.4 9.4 0 0 1-9.4-9.4z"/>
  <rect width="124.136" height="6.771" x="66" y="102.5" fill="#3CB4AE" opacity=".38" rx="3.385"/>
  <path fill="#FDFDFD" stroke="#AAA5A2" stroke-linecap="round" d="M149.711 131h-5.593c-.743 0-1.369-.847-1.403-1.59a7.2 7.2 0 0 0-.215-1.41c-.5-2-4.232-4.732-6-6.5-2-2-4-6-1-8 2.4-1.6 4.333.667 5 2-1.5-3-4-7.833-.5-9 3.328-1.109 4.333 2 5 3.5-.333-1.833-.2-5.5 3-5.5s3.5 3 3.5 5c.364-2 1.273-4.954 4-4.5 3 .5 2.667 3.667 2.5 5.5.333-1.333 1.5-3.9 3.5-3.5 3.257.651 2.43 6.349 1.5 11-1 5-4 6.5-4.5 8.5-.246.984-.126 2.144.08 3.086.151.691-.35 1.414-1.057 1.414h-1.756a.9.9 0 0 1-.494-.14c-.838-.557-1.387-1.362-1.867-2.211-.395-.698-1.333-.657-1.67.07-.383.825-.823 1.596-1.499 2.116a.86.86 0 0 1-.526.165Z"/>
  <path stroke="#AAA5A2" stroke-linecap="round" d="M147 116.5v7m4-7v7m4-7v7"/>
</svg>
