<svg xmlns="http://www.w3.org/2000/svg" fill="none" viewBox="0 0 300 241">
  <path fill="#fff" stroke="#D4D0CE" stroke-width="1.2" d="M1.6 24.5C1.6 13.786 10.286 5.1 21 5.1h258c10.714 0 19.4 8.686 19.4 19.4v192c0 10.714-8.686 19.4-19.4 19.4H21c-10.714 0-19.4-8.686-19.4-19.4z"/>
  <rect width="105" height="208" x="13" y="16.5" fill="#fff" rx="10"/>
  <path fill="#B4AFAC" d="M14 142.5h102.831v50H14z" opacity="0.13"/>
  <path stroke="#D4D0CE" stroke-width="1.2" d="M14 142.5h104m-104 10h104m-104 10h104m-104 10h104m-104 10h104m-104 10h104"/>
  <path stroke="#EAE9E8" stroke-width="1.2" d="M14 52.5h104m-104 10h104m-104 10h104m-104 10h104m-104 10h104m-104 10h104m-104 10h104"/>
  <rect width="103.8" height="206.8" x="13.6" y="17.1" stroke="#B4AFAC" stroke-width="1.2" rx="9.4"/>
  <path fill="#fff" stroke="#D4D0CE" stroke-width="1.2" d="M124.6 48.1H277a9.4 9.4 0 0 1 9.4 9.4v157a9.4 9.4 0 0 1-9.4 9.4H134a9.4 9.4 0 0 1-9.4-9.4z"/>
  <path fill="#fff" stroke="#D4D0CE" stroke-width="1.2" d="M124.6 26.5a9.4 9.4 0 0 1 9.4-9.4h44a9.4 9.4 0 0 1 9.4 9.4v21.4h-62.8z"/>
  <path fill="#867E79" d="M144.587 30.53a1.35 1.35 0 0 0-.609-1.017q-.536-.364-1.348-.364-.582 0-1.007.184a1.55 1.55 0 0 0-.66.499q-.231.315-.231.716 0 .336.157.581.162.245.42.411.263.162.563.273.3.106.577.175l.924.24q.452.111.928.3t.881.499q.407.309.656.766.254.458.254 1.094 0 .803-.416 1.427-.41.623-1.195.983-.78.36-1.888.36-1.062 0-1.838-.337t-1.214-.956q-.438-.623-.485-1.477h1.431q.042.512.333.854.296.337.752.503.462.162 1.011.162.606 0 1.076-.19.475-.193.748-.535.272-.346.272-.808 0-.42-.24-.688a1.8 1.8 0 0 0-.642-.443 6 6 0 0 0-.909-.31l-1.117-.304q-1.135-.31-1.801-.91-.66-.6-.66-1.587 0-.817.443-1.427a2.9 2.9 0 0 1 1.201-.946q.757-.342 1.708-.342.96 0 1.694.337.739.337 1.163.928.425.586.444 1.348zm6.409-.12v1.107h-3.873v-1.108zm-2.835-1.7h1.381v6.708q0 .402.12.605.12.198.309.272.194.07.42.07.167 0 .291-.024.125-.022.194-.037l.249 1.14q-.12.047-.342.093a2.7 2.7 0 0 1-.554.055 2.4 2.4 0 0 1-1.015-.194 1.74 1.74 0 0 1-.762-.627q-.291-.425-.291-1.067zm6.425 8.947a2.9 2.9 0 0 1-1.219-.25 2.06 2.06 0 0 1-.863-.733q-.314-.48-.314-1.178 0-.6.231-.988.231-.387.623-.614.393-.225.877-.341a9 9 0 0 1 .988-.175l1.034-.12q.397-.051.578-.162t.18-.36v-.032q0-.605-.342-.938-.337-.332-1.006-.332-.697 0-1.099.31-.397.304-.55.678l-1.297-.296a2.5 2.5 0 0 1 .674-1.043 2.7 2.7 0 0 1 1.03-.582 4 4 0 0 1 1.223-.184q.424 0 .9.101.48.098.896.36.42.264.688.753.267.485.267 1.26V37.5h-1.348v-.97h-.055a2 2 0 0 1-.402.527 2.1 2.1 0 0 1-.687.43q-.42.17-1.007.17m.3-1.108q.573 0 .979-.226a1.6 1.6 0 0 0 .623-.591 1.53 1.53 0 0 0 .217-.79v-.914q-.073.075-.286.139a5 5 0 0 1-.476.106l-.521.079-.425.055q-.401.05-.734.17a1.26 1.26 0 0 0-.526.347q-.194.222-.194.59 0 .513.378.776.379.26.965.259m8.025 1.094q-1.029 0-1.773-.466a3.1 3.1 0 0 1-1.136-1.297q-.397-.827-.397-1.893 0-1.08.407-1.907a3.1 3.1 0 0 1 1.145-1.297q.738-.465 1.74-.466.808 0 1.44.3.633.296 1.021.83.392.537.466 1.252h-1.344a1.6 1.6 0 0 0-.507-.859q-.393-.36-1.053-.36-.577 0-1.011.305-.429.3-.669.859-.24.554-.24 1.31 0 .777.235 1.34.236.563.665.872.434.31 1.02.31.393 0 .711-.144a1.45 1.45 0 0 0 .54-.42q.222-.272.309-.656h1.344a2.6 2.6 0 0 1-.448 1.228q-.374.54-1.002.85-.623.31-1.463.31m5.659-2.548-.01-1.685h.24l2.826-3h1.652l-3.222 3.415h-.217zM167.3 37.5v-9.454h1.38V37.5zm4.478 0-2.539-3.37.951-.965 3.282 4.335z" opacity="0.7"/>
  <path fill="#867E79" d="M207.587 30.53a1.35 1.35 0 0 0-.609-1.017q-.536-.364-1.348-.364-.582 0-1.007.184a1.55 1.55 0 0 0-.66.499q-.231.315-.231.716 0 .336.157.581.162.245.42.411.263.162.563.273.3.106.577.175l.924.24q.452.111.928.3t.881.499q.407.309.656.766.254.458.254 1.094 0 .803-.416 1.427-.41.623-1.195.983-.78.36-1.888.36-1.062 0-1.838-.337t-1.214-.956q-.438-.623-.485-1.477h1.431q.042.512.333.854.296.337.752.503.462.162 1.011.162.606 0 1.076-.19.475-.193.748-.535.272-.346.272-.808 0-.42-.24-.688a1.8 1.8 0 0 0-.642-.443 6 6 0 0 0-.909-.31l-1.117-.304q-1.135-.31-1.801-.91-.66-.6-.66-1.587 0-.817.443-1.427a2.9 2.9 0 0 1 1.201-.946q.757-.342 1.708-.342.96 0 1.694.337.739.337 1.163.928.425.586.444 1.348zm6.409-.12v1.107h-3.873v-1.108zm-2.835-1.7h1.381v6.708q0 .402.12.605.12.198.309.272.194.07.42.07.167 0 .291-.024.125-.022.194-.037l.249 1.14q-.12.047-.342.093a2.7 2.7 0 0 1-.554.055 2.4 2.4 0 0 1-1.015-.194 1.74 1.74 0 0 1-.762-.627q-.291-.425-.291-1.067zm6.425 8.947a2.9 2.9 0 0 1-1.219-.25 2.06 2.06 0 0 1-.863-.733q-.314-.48-.314-1.178 0-.6.231-.988.231-.387.623-.614.393-.225.877-.341a9 9 0 0 1 .988-.175l1.034-.12q.397-.051.578-.162t.18-.36v-.032q0-.605-.342-.938-.337-.332-1.006-.332-.697 0-1.099.31-.397.304-.55.678l-1.297-.296a2.5 2.5 0 0 1 .674-1.043 2.7 2.7 0 0 1 1.03-.582 4 4 0 0 1 1.223-.184q.424 0 .9.101.48.098.896.36.42.264.688.753.267.485.267 1.26V37.5h-1.348v-.97h-.055a2 2 0 0 1-.402.527 2.1 2.1 0 0 1-.687.43q-.42.17-1.007.17m.3-1.108q.573 0 .979-.226a1.6 1.6 0 0 0 .623-.591 1.53 1.53 0 0 0 .217-.79v-.914q-.073.075-.286.139a5 5 0 0 1-.476.106l-.521.079-.425.055q-.401.05-.734.17a1.26 1.26 0 0 0-.526.347q-.194.222-.194.59 0 .513.378.776.379.26.965.259m8.025 1.094q-1.029 0-1.773-.466a3.1 3.1 0 0 1-1.136-1.297q-.397-.827-.397-1.893 0-1.08.407-1.907a3.1 3.1 0 0 1 1.145-1.297q.738-.465 1.74-.466.809 0 1.44.3.633.296 1.021.83.392.537.466 1.252h-1.344a1.6 1.6 0 0 0-.507-.859q-.393-.36-1.053-.36-.577 0-1.011.305-.429.3-.669.859-.24.554-.24 1.31 0 .777.235 1.34.236.563.665.872.434.31 1.02.31.393 0 .711-.144a1.45 1.45 0 0 0 .54-.42q.222-.272.309-.656h1.344a2.6 2.6 0 0 1-.448 1.228q-.373.54-1.002.85-.623.31-1.463.31m5.659-2.548-.01-1.685h.24l2.826-3h1.652l-3.222 3.415h-.217zM230.3 37.5v-9.454h1.38V37.5zm4.478 0-2.539-3.37.951-.965 3.282 4.335z" opacity="0.7"/>
  <path fill="#867E79" d="M187 26.5c0-5.523 4.477-10 10-10h44c5.523 0 10 4.477 10 10v22h-64z" opacity="0.12"/>
  <path stroke="#D4D0CE" stroke-width="1.2" d="M187.6 26.5a9.4 9.4 0 0 1 9.4-9.4h44a9.4 9.4 0 0 1 9.4 9.4v21.4h-62.8z"/>
  <path fill="#867E79" d="M31.304 33.12h-1.44a2.2 2.2 0 0 0-.863-1.408 2.4 2.4 0 0 0-.734-.37 2.9 2.9 0 0 0-.854-.124 2.67 2.67 0 0 0-1.464.41q-.642.412-1.015 1.206-.37.794-.37 1.939 0 1.154.37 1.948.374.795 1.02 1.2.645.406 1.454.406.448 0 .85-.12.405-.124.734-.364t.553-.587a2.2 2.2 0 0 0 .32-.803l1.44.005a3.9 3.9 0 0 1-.448 1.283 3.5 3.5 0 0 1-.845 1.007q-.513.42-1.173.65t-1.44.231q-1.228 0-2.188-.581-.96-.587-1.514-1.676-.55-1.09-.55-2.6 0-1.514.554-2.598.555-1.09 1.514-1.671.96-.587 2.184-.587.753 0 1.403.217.656.213 1.178.628.52.412.863 1.006.34.591.461 1.353m2.977 2.17v4.21H32.9v-9.454h1.361v3.517h.088q.249-.572.762-.91.512-.336 1.339-.336.728 0 1.274.3.55.3.85.895.304.591.304 1.478v4.51h-1.38v-4.344q0-.78-.402-1.21-.402-.434-1.117-.434-.49 0-.877.208a1.5 1.5 0 0 0-.605.61q-.217.396-.217.96m8.503 4.367q-.673 0-1.218-.25a2.05 2.05 0 0 1-.864-.733q-.313-.48-.313-1.178 0-.6.23-.988.231-.387.624-.614.391-.225.877-.341.484-.116.988-.175l1.034-.12q.397-.051.577-.162t.18-.36v-.032q0-.605-.342-.938-.336-.332-1.006-.332-.697 0-1.099.31-.397.304-.55.678l-1.297-.296q.231-.645.675-1.043a2.7 2.7 0 0 1 1.029-.582 4 4 0 0 1 1.223-.184q.426 0 .9.101.481.097.896.36.42.264.688.753.268.485.268 1.26V39.5h-1.348v-.97h-.056q-.134.269-.401.527a2.1 2.1 0 0 1-.688.43q-.42.17-1.007.17m.3-1.108q.572 0 .98-.226.41-.227.622-.591.217-.37.217-.79v-.914q-.073.075-.286.139a5 5 0 0 1-.475.106l-.522.079-.425.055a3.4 3.4 0 0 0-.734.17 1.26 1.26 0 0 0-.526.347q-.195.222-.194.59 0 .513.379.776.378.26.965.259m6.419-3.26V39.5h-1.38v-7.09h1.324v1.153h.088q.245-.563.766-.905.527-.34 1.325-.341.725 0 1.27.304.545.3.844.896.3.595.3 1.473v4.51h-1.38v-4.344q0-.771-.401-1.205-.402-.438-1.104-.439-.48 0-.854.208a1.5 1.5 0 0 0-.586.61q-.213.396-.212.96m9.362 7.018q-.845 0-1.454-.222a2.8 2.8 0 0 1-.988-.586 2.5 2.5 0 0 1-.573-.799l1.187-.49q.125.205.332.43.213.231.572.393.365.16.938.161.784 0 1.297-.383.512-.378.512-1.21v-1.394h-.087q-.125.227-.36.504a1.95 1.95 0 0 1-.638.48q-.405.203-1.057.203-.84 0-1.514-.393-.669-.397-1.062-1.167-.387-.776-.387-1.907 0-1.13.383-1.94.387-.807 1.061-1.236.675-.434 1.529-.434.66 0 1.066.221.405.217.632.508.231.291.356.513h.101v-1.15h1.353v7.248q0 .915-.425 1.5-.424.586-1.15.868a4.4 4.4 0 0 1-1.624.282m-.014-4.058q.595 0 1.006-.277.416-.282.628-.803.217-.526.217-1.26 0-.717-.212-1.26a1.87 1.87 0 0 0-.623-.85q-.411-.31-1.016-.31-.624 0-1.039.324a1.95 1.95 0 0 0-.628.867 3.5 3.5 0 0 0-.207 1.228q0 .698.212 1.224t.628.822q.42.294 1.034.295m8.12 1.394q-1.047 0-1.805-.448a3.04 3.04 0 0 1-1.163-1.27q-.406-.821-.406-1.924 0-1.09.406-1.92a3.16 3.16 0 0 1 1.145-1.298q.739-.466 1.726-.466.6 0 1.164.198.563.199 1.01.624.45.424.707 1.103.258.674.259 1.639v.489h-5.637v-1.034h4.284q0-.545-.222-.965a1.7 1.7 0 0 0-.623-.67 1.74 1.74 0 0 0-.932-.244q-.582 0-1.016.286a1.9 1.9 0 0 0-.665.739q-.23.453-.23.983v.808q0 .71.249 1.21.253.498.706.761.453.26 1.057.259.392 0 .716-.111.323-.115.558-.342.236-.226.36-.558l1.307.235a2.4 2.4 0 0 1-.563 1.011q-.402.43-1.011.67a3.8 3.8 0 0 1-1.38.235m9.888-5.503-1.251.222a1.5 1.5 0 0 0-.25-.457 1.2 1.2 0 0 0-.452-.356q-.286-.138-.716-.138-.586 0-.978.263-.393.258-.393.67 0 .354.263.572.264.217.85.355l1.126.259q.98.226 1.459.697t.48 1.223q0 .638-.37 1.136-.363.494-1.02.776-.65.28-1.509.281-1.191 0-1.944-.508-.752-.512-.923-1.454l1.334-.203q.124.521.513.79.387.263 1.01.263.68 0 1.086-.282.406-.285.406-.697a.72.72 0 0 0-.25-.559q-.243-.225-.752-.341l-1.2-.264q-.993-.225-1.468-.72-.471-.494-.471-1.25 0-.629.35-1.1.352-.47.97-.733.619-.268 1.418-.268 1.149 0 1.81.498.66.495.872 1.325" opacity="0.7"/>
  <path fill="#867E79" d="M26.195 132.5h-3.06v-9.455h3.157q1.39 0 2.387.568a3.75 3.75 0 0 1 1.528 1.621q.535 1.052.535 2.525 0 1.477-.54 2.539a3.8 3.8 0 0 1-1.55 1.634q-1.017.568-2.457.568m-1.634-1.246h1.556q1.08 0 1.796-.407a2.56 2.56 0 0 0 1.07-1.186q.357-.78.356-1.902 0-1.113-.355-1.888a2.5 2.5 0 0 0-1.049-1.177q-.696-.402-1.73-.402H24.56zm10.9 1.389q-1.047 0-1.804-.448a3.03 3.03 0 0 1-1.164-1.269q-.405-.822-.406-1.925 0-1.09.406-1.921a3.15 3.15 0 0 1 1.145-1.297q.738-.466 1.727-.466.6 0 1.163.198.563.199 1.011.623.447.425.706 1.104.26.673.259 1.639v.489h-5.637v-1.034h4.284q0-.545-.221-.965a1.7 1.7 0 0 0-.624-.669 1.74 1.74 0 0 0-.932-.245 1.8 1.8 0 0 0-1.016.286 1.9 1.9 0 0 0-.665.739 2.1 2.1 0 0 0-.23.983v.808q0 .71.249 1.21.255.498.706.761.453.26 1.057.259.392 0 .716-.111.323-.115.559-.342a1.5 1.5 0 0 0 .36-.558l1.306.235a2.36 2.36 0 0 1-.563 1.011q-.402.43-1.011.67a3.8 3.8 0 0 1-1.38.235m4.574 2.516v-9.75h1.348v1.15h.116q.12-.222.346-.513.225-.29.628-.508.401-.22 1.062-.221.858 0 1.532.434.675.434 1.057 1.251.388.817.388 1.966t-.383 1.972q-.383.816-1.052 1.26a2.73 2.73 0 0 1-1.529.438q-.645 0-1.057-.216a2 2 0 0 1-.637-.508 4 4 0 0 1-.355-.517h-.083v3.762zm1.353-6.204q0 .747.217 1.311.217.563.628.881.411.315 1.006.314.619 0 1.034-.327.415-.333.628-.901.217-.567.217-1.278 0-.702-.212-1.261a1.94 1.94 0 0 0-.628-.882q-.415-.323-1.039-.323-.6 0-1.015.31a1.9 1.9 0 0 0-.624.863q-.212.554-.212 1.293m9.727 3.688q-1.048 0-1.805-.448a3.03 3.03 0 0 1-1.163-1.269q-.407-.822-.407-1.925 0-1.09.407-1.921a3.15 3.15 0 0 1 1.144-1.297q.739-.466 1.727-.466.6 0 1.163.198.564.199 1.011.623.448.425.707 1.104.258.673.258 1.639v.489H48.52v-1.034h4.284q0-.545-.221-.965a1.67 1.67 0 0 0-.623-.669 1.74 1.74 0 0 0-.933-.245 1.8 1.8 0 0 0-1.016.286 1.9 1.9 0 0 0-.664.739q-.231.452-.231.983v.808q0 .71.25 1.21a1.8 1.8 0 0 0 .706.761q.452.26 1.057.259.392 0 .715-.111.324-.115.559-.342a1.5 1.5 0 0 0 .36-.558l1.306.235a2.36 2.36 0 0 1-.563 1.011 2.7 2.7 0 0 1-1.01.67 3.8 3.8 0 0 1-1.381.235m5.954-4.353v4.21h-1.38v-7.091h1.325v1.154h.087q.245-.563.767-.905.525-.34 1.325-.341.724 0 1.27.304.544.3.844.896t.3 1.473v4.51h-1.38v-4.344q0-.771-.402-1.205-.402-.439-1.103-.439-.48 0-.854.208a1.5 1.5 0 0 0-.587.61q-.212.396-.212.96m9.044 4.348a2.75 2.75 0 0 1-1.533-.438q-.669-.444-1.053-1.26-.378-.822-.378-1.972t.383-1.966q.388-.817 1.062-1.251.675-.435 1.528-.434.66 0 1.062.221.406.217.627.508.227.291.351.513h.084v-3.514h1.38v9.455h-1.348v-1.103h-.116q-.124.226-.36.517a2 2 0 0 1-.637.508q-.406.216-1.052.216m.304-1.177q.596 0 1.007-.314a1.94 1.94 0 0 0 .628-.881q.216-.564.217-1.311 0-.74-.213-1.293a1.9 1.9 0 0 0-.623-.863q-.411-.31-1.016-.31-.623 0-1.038.323-.416.324-.628.882a3.6 3.6 0 0 0-.208 1.261q0 .711.212 1.278.213.568.628.901.42.327 1.034.327m8.235 1.182q-1.048 0-1.805-.448a3.03 3.03 0 0 1-1.163-1.269q-.407-.822-.407-1.925 0-1.09.407-1.921a3.15 3.15 0 0 1 1.145-1.297q.738-.466 1.726-.466.6 0 1.163.198.564.199 1.011.623.448.425.707 1.104.258.673.258 1.639v.489h-5.636v-1.034h4.284q0-.545-.222-.965a1.67 1.67 0 0 0-.623-.669 1.74 1.74 0 0 0-.933-.245 1.8 1.8 0 0 0-1.015.286 1.9 1.9 0 0 0-.665.739q-.23.452-.23.983v.808q0 .71.248 1.21.255.498.707.761.452.26 1.057.259.392 0 .715-.111.324-.115.559-.342a1.5 1.5 0 0 0 .36-.558l1.306.235a2.36 2.36 0 0 1-.563 1.011 2.7 2.7 0 0 1-1.01.67 3.8 3.8 0 0 1-1.381.235m5.954-4.353v4.21h-1.38v-7.091h1.325v1.154h.087q.245-.563.767-.905.525-.34 1.325-.341.724 0 1.27.304.543.3.844.896t.3 1.473v4.51h-1.38v-4.344q0-.771-.402-1.205-.401-.439-1.103-.439-.48 0-.854.208a1.5 1.5 0 0 0-.587.61q-.212.396-.212.96m9.7-2.881v1.108h-3.874v-1.108zm-2.835-1.699h1.38v6.708q0 .401.12.605.12.198.31.272.194.069.42.069.165 0 .29-.023.125-.022.194-.037l.25 1.141q-.12.045-.342.092a2.7 2.7 0 0 1-.554.055 2.4 2.4 0 0 1-1.016-.194 1.74 1.74 0 0 1-.761-.627q-.291-.425-.291-1.067z" opacity="0.7"/>
  <path stroke="#B4AFAC" stroke-width="1.2" d="M133.5 168.5h87v-105m0 0-15 15m15-15 15 15"/>
  <path stroke="#B4AFAC" stroke-width="1.2" d="M133 98.5h27v-35m0 0-15 15m15-15 15 15"/>
  <path stroke="#B4AFAC" stroke-width="1.2" d="M168.356 145.075c-1.746.476-3.679.038-5.038-1.32l-1.827-1.827c-2.026-2.027-2.005-5.335.049-7.388s5.361-2.075 7.388-.048l1.827 1.826a5.18 5.18 0 0 1 1.319 5.038"/>
  <path stroke="#B4AFAC" stroke-width="1.2" d="M170.215 146.933c-.477 1.746-.038 3.68 1.32 5.038l1.827 1.827c2.027 2.027 5.334 2.005 7.388-.048 2.053-2.054 2.075-5.361.048-7.388l-1.827-1.827c-1.358-1.358-3.292-1.797-5.038-1.32"/>
</svg>
