<svg width="300" height="240" viewBox="0 0 300 240" fill="none" xmlns="http://www.w3.org/2000/svg">
<path d="M21 4.6H279C289.714 4.6 298.4 13.2857 298.4 24V216C298.4 226.714 289.714 235.4 279 235.4H21C10.2857 235.4 1.6 226.714 1.6 216V24C1.6 13.2857 10.2857 4.6 21 4.6Z" fill="var(--clr-bg-1)" stroke="var(--clr-border-2)" stroke-width="1.2"/>
<rect x="13" y="16" width="105" height="208" rx="10" fill="var(--clr-bg-1)"/>
<rect opacity="0.13" x="14" y="142" width="102.831" height="50" fill="var(--clr-border-1)"/>
<path d="M14 142H118M14 152H118M14 162H118M14 172H118M14 182H118M14 192H118" stroke="var(--clr-border-2)" stroke-width="1.2"/>
<path d="M14 52H118M14 62H118M14 72H118M14 82H118M14 92H118M14 102H118M14 112H118" stroke="var(--clr-border-3)" stroke-width="1.2"/>
<rect x="13.6" y="16.6" width="103.8" height="206.8" rx="9.4" stroke="var(--clr-border-1)" stroke-width="1.2"/>
<path d="M124.6 47.6H277C282.191 47.6 286.4 51.8085 286.4 57V214C286.4 219.191 282.191 223.4 277 223.4H134C128.809 223.4 124.6 219.191 124.6 214V47.6Z" fill="var(--clr-bg-1)" stroke="var(--clr-border-2)" stroke-width="1.2"/>
<path d="M134 16.6H178C183.191 16.6 187.4 20.8085 187.4 26V47.4H124.6V26C124.6 20.8085 128.809 16.6 134 16.6Z" fill="var(--clr-bg-1)" stroke="var(--clr-border-2)" stroke-width="1.2"/>
<text opacity="0.7" fill="var(--clr-text-2)" xml:space="preserve" style="white-space: pre" font-family="Inter" font-size="13" font-weight="500" letter-spacing="0em"><tspan x="138.392" y="36.7273">Stack</tspan></text>
<text opacity="0.7" fill="var(--clr-text-2)" xml:space="preserve" style="white-space: pre" font-family="Inter" font-size="13" font-weight="500" letter-spacing="0em"><tspan x="201.392" y="36.7273">Stack</tspan></text>
<path opacity="0.12" d="M187 26C187 20.4772 191.477 16 197 16H241C246.523 16 251 20.4772 251 26V48H187V26Z" fill="var(--clr-text-2)"/>
<path d="M197 16.6H241C246.191 16.6 250.4 20.8085 250.4 26V47.4H187.6V26C187.6 20.8085 191.809 16.6 197 16.6Z" stroke="var(--clr-border-2)" stroke-width="1.2"/>
<text opacity="0.7" fill="var(--clr-text-2)" xml:space="preserve" style="white-space: pre" font-family="Inter" font-size="13" font-weight="500" letter-spacing="0em"><tspan x="22.4131" y="38.7273">Changes</tspan></text>
<text opacity="0.7" fill="var(--clr-text-2)" xml:space="preserve" style="white-space: pre" font-family="Inter" font-size="13" font-weight="500" letter-spacing="0em"><tspan x="22.0957" y="131.727">Dependent</tspan></text>
<path d="M133.5 168H220.5V63M220.5 63L205.5 78M220.5 63L235.5 78" stroke="var(--clr-border-1)" stroke-width="1.2"/>
<path d="M133 98H160V63M160 63L145 78M160 63L175 78" stroke="var(--clr-border-1)" stroke-width="1.2"/>
<path d="M168.356 144.575C166.61 145.051 164.677 144.613 163.318 143.255L161.492 141.428C159.465 139.401 159.486 136.093 161.54 134.04C163.593 131.986 166.901 131.965 168.928 133.992L170.755 135.818C172.113 137.177 172.551 139.111 172.074 140.856" stroke="var(--clr-border-1)" stroke-width="1.2"/>
<path d="M170.215 146.434C169.739 148.179 170.177 150.113 171.535 151.471L173.362 153.298C175.389 155.325 178.697 155.304 180.75 153.25C182.803 151.197 182.825 147.889 180.798 145.862L178.971 144.035C177.613 142.677 175.679 142.239 173.934 142.715" stroke="var(--clr-border-1)" stroke-width="1.2"/>
<path d="M165.878 138.377L176.412 148.912" stroke="var(--clr-border-1)" stroke-width="1.2"/>
</svg>
