<svg
  xmlns="http://www.w3.org/2000/svg" width="100%" height="100%" viewBox="0 0 400 400" fill="none">
  <g id="8274:20254" clip-path="url(#clip0_8274_20254)">
    <g id="Group 1948754913">
      <path id="8274:20262" opacity="0.6"
        d="M371.904 119.776L340.013 265.495L303.837 258.018L324.388 337.144H300.754L282.77 253.908L251.427 248.256L227.658 330.979L210.838 307.857L231.255 244.934L208.782 239.521L227.658 190.919L311.556 125.174L342.957 130.57L346.391 115.361L371.904 119.776ZM321.86 164.436L336.322 167.172L341.429 140.176L326.967 137.439L321.86 164.436Z"
        fill="var(--clr-core-pop-50)" />
      <g id="Group 1948754910">
        <path id="8274:20266"
          d="M167.164 170.158C170.76 188.655 187.505 219.466 196.964 209.207C206.424 198.948 211.865 185.058 225.738 166.047"
          stroke="var(--clr-illustration-outline)" stroke-width="13.2" stroke-linecap="round" />
        <g id="Group 1948754902">
          <path id="8274:20268" d="M157.915 138.302L176.412 103.877L200.561 100.28"
            stroke="var(--clr-illustration-outline)" stroke-width="5.2" />
          <rect id="8274:20269" x="127.194" y="122.888" width="49.0635" height="55.9576"
            transform="rotate(5.37908 127.194 122.888)" fill="var(--clr-illustration-fill)"
            stroke="var(--clr-illustration-outline)" stroke-width="1.2" />
          <path id="8274:20270"
            d="M130.17 134.191L170.247 135.733L166.691 177.52L127.041 173.787L130.17 134.191Z"
            fill="var(--clr-illustration-outline)" />
          <g id="8274:20271">
            <path
              d="M179.495 165.2C184.839 169.31 183.092 175.476 171.274 179.586L172.816 157.493C166.65 161.089 151.236 165.2 147.125 154.924C142.175 142.548 180.523 132.576 187.716 142.078C193.882 150.223 187.716 159.034 179.495 165.2Z"
              fill="var(--clr-illustration-fill)" />
            <path
              d="M123.49 139.843C114.756 142.078 115.783 152.175 120.407 154.924L138.391 160.395C141.473 152.355 130.658 138.009 123.49 139.843Z"
              fill="var(--clr-illustration-fill)" />
            <path
              d="M179.495 165.2C184.839 169.31 183.092 175.476 171.274 179.586L172.816 157.493C166.65 161.089 151.236 165.2 147.125 154.924C142.175 142.548 180.523 132.576 187.716 142.078C193.882 150.223 187.716 159.034 179.495 165.2Z"
              stroke="var(--clr-illustration-outline)" stroke-width="1.2" />
            <path
              d="M123.49 139.843C114.756 142.078 115.783 152.175 120.407 154.924L138.391 160.395C141.473 152.355 130.658 138.009 123.49 139.843Z"
              stroke="var(--clr-illustration-outline)" stroke-width="1.2" />
          </g>
          <g id="8274:20272">
            <path
              d="M150.956 125.084C146.909 128.175 141.585 129.956 136.064 130.395C129.4 130.925 122.448 129.5 117.11 126.065C115.088 124.764 113.457 123.276 112.22 121.675C107.485 115.546 108.531 107.748 115.613 102.339C124.546 95.5157 139.699 95.0763 149.459 101.357C159.218 107.638 159.889 118.261 150.956 125.084Z"
              fill="var(--clr-illustration-fill)" />
            <path
              d="M149.459 101.357C139.699 95.0763 124.546 95.5157 115.613 102.339C108.531 107.748 107.485 115.546 112.22 121.675M149.459 101.357C159.218 107.638 159.889 118.261 150.956 125.084C146.909 128.175 141.585 129.956 136.064 130.395M149.459 101.357L128.136 110.456M128.136 97.4785L128.136 110.456M128.136 110.456L109.024 114.093M128.136 110.456L122.993 128.858M128.136 110.456L148.77 126.753M128.136 110.456L156.906 110.456M128.136 110.456L136.064 130.395M128.136 110.456L112.22 121.675M128.136 110.456L114.744 103.259M136.064 130.395C129.4 130.925 122.448 129.5 117.11 126.065C115.088 124.764 113.457 123.276 112.22 121.675"
              stroke="var(--clr-illustration-outline)" stroke-width="1.2" />
          </g>
        </g>
      </g>
      <g id="Group 1948754911">
        <path id="8274:20274"
          d="M9.93884 229.631L87 369.5L180 256.5L279.407 215.844L284.312 203.041L159.737 229.631L103.825 272.962C81.2645 234.897 54.1262 215.844 9.93884 229.631Z"
          fill="var(--clr-illustration-fill)" stroke="var(--clr-illustration-outline)"
          stroke-width="1.2" />
        <path id="8274:20275"
          d="M248.222 376.708H79.8165C84.712 320.858 146.395 303.548 171.852 309.101C164.998 281.666 160.103 253.251 171.852 233.655C183.601 214.058 237.778 215.365 279.553 208.179L307.947 215.038L210.037 261.09L248.222 376.708Z"
          fill="var(--clr-illustration-fill)" stroke="var(--clr-illustration-outline)"
          stroke-width="1.2" />
      </g>
      <g id="Group 1948754909">
        <path id="8274:20277"
          d="M263.012 234.314L195.858 255.302L130.922 220.235L197.672 199.812L263.012 234.314Z"
          fill="var(--clr-illustration-fill)" stroke="var(--clr-illustration-outline)"
          stroke-width="1.2" />
        <path id="8274:20278"
          d="M192.147 240.583L224.543 231.437L187.034 208.828L173.771 212.094M213.814 234.466L176.855 212.126M204.108 237.207L166.646 215.424M211.748 223.725L176.282 233.723M196.462 215.824L161.704 224.779"
          stroke="var(--clr-illustration-outline)" stroke-width="1.2" />
        <g id="8274:20279">
          <path
            d="M129.09 231.086L192.561 256.271L195.974 255.218L169.139 169.412L106.367 148.16L99.5311 149.819L129.09 231.086Z"
            fill="var(--clr-illustration-fill)" />
          <path
            d="M99.5311 149.819L129.09 231.086L192.561 256.271L195.974 255.218L169.139 169.412L106.367 148.16L99.5311 149.819ZM99.5311 149.819L164.786 172.448"
            stroke="var(--clr-illustration-outline)" stroke-width="1.2" />
        </g>
        <ellipse id="8274:20280" opacity="0.16" cx="144.39" cy="205.315" rx="7.14348" ry="9.8629"
          transform="rotate(-28.231 144.39 205.315)" fill="var(--clr-illustration-outline)" />
        <path id="8274:20281"
          d="M168.993 170.15L162.643 171.747L192.409 255.995L252.436 238.146L249.828 230.884L195.65 246.659L168.993 170.15Z"
          fill="var(--clr-illustration-fill)" stroke="var(--clr-illustration-outline)"
          stroke-width="1.2" />
      </g>
      <g id="Group 1948754907">
        <path id="8274:20283"
          d="M326.119 218.115L214.56 197.748C204.895 195.984 198.431 186.796 200.034 177.103L214.26 91.117C215.934 80.9996 225.709 74.3228 235.742 76.4444L300.742 90.1892C308.288 91.7847 313.978 98.01 314.892 105.668L318.658 137.245C319.351 143.062 322.849 148.155 327.949 151.038C332.635 153.687 336.255 155.847 340.629 158.353C346.946 161.971 350.661 168.916 349.921 176.158L347.259 202.236C346.192 212.682 336.448 220.001 326.119 218.115Z"
          fill="var(--clr-illustration-fill)" stroke="var(--clr-illustration-outline)"
          stroke-width="1.2" />
        <path id="8274:20284"
          d="M326.643 170.847L341.052 171.012M324.484 177.334L338.893 177.498M322.326 183.817L336.735 183.982"
          stroke="var(--clr-illustration-outline)" stroke-width="1.2" />
        <path id="8274:20285" opacity="0.13"
          d="M220.283 92.7148C221.175 86.9919 226.785 83.2673 232.406 84.6657L286.626 98.1557C291.574 99.3869 294.768 104.188 293.99 109.228L282.19 185.696C281.359 191.078 276.323 194.767 270.942 193.937L215.82 185.431C210.432 184.6 206.741 179.554 207.581 174.167L220.283 92.7148Z"
          fill="var(--clr-illustration-outline)" />
        <g id="Group 1948754528">
          <mask id="mask0_8274_20254" style="mask-type:alpha" maskUnits="userSpaceOnUse" x="215"
            y="95" width="36" height="73">
            <path id="8274:20287"
              d="M218.521 128.398C215.476 144.807 213.299 162.866 226.785 166.788C240.271 170.71 243.913 149.662 247.42 133.298C250.927 116.935 253.201 98.363 238.983 95.9356C224.765 93.5082 221.566 111.99 218.521 128.398Z"
              fill="var(--clr-illustration-fill)" stroke="var(--clr-illustration-outline)"
              stroke-width="1.2" />
          </mask>
          <g mask="url(#mask0_8274_20254)">
            <path id="8274:20288"
              d="M218.521 128.398C215.476 144.807 213.299 162.866 226.785 166.788C240.271 170.71 243.913 149.662 247.42 133.298C250.927 116.935 253.201 98.363 238.983 95.9356C224.765 93.5082 221.566 111.99 218.521 128.398Z"
              fill="var(--clr-illustration-fill)" stroke="var(--clr-illustration-outline)"
              stroke-width="1.2" />
            <ellipse id="8274:20289" cx="225.836" cy="129.434" rx="11.3037" ry="19.5247"
              transform="rotate(-2.92476 225.836 129.434)" fill="var(--clr-illustration-outline)" />
          </g>
        </g>
        <g id="Group 1948754906">
          <mask id="mask1_8274_20254" style="mask-type:alpha" maskUnits="userSpaceOnUse" x="250"
            y="100" width="36" height="74">
            <path id="8274:20291"
              d="M253.735 133.648C250.69 150.057 248.512 168.116 261.998 172.038C275.484 175.96 279.126 154.912 282.633 138.548C286.14 122.185 288.414 103.613 274.196 101.186C259.978 98.7582 256.779 117.24 253.735 133.648Z"
              fill="var(--clr-illustration-fill)" stroke="var(--clr-illustration-outline)"
              stroke-width="1.2" />
          </mask>
          <g mask="url(#mask1_8274_20254)">
            <path id="8274:20292"
              d="M253.735 133.648C250.69 150.057 248.512 168.116 261.998 172.038C275.484 175.96 279.126 154.912 282.633 138.548C286.14 122.185 288.414 103.613 274.196 101.186C259.978 98.7582 256.779 117.24 253.735 133.648Z"
              fill="var(--clr-illustration-fill)" stroke="var(--clr-illustration-outline)"
              stroke-width="1.2" />
            <ellipse id="8274:20293" cx="259.03" cy="133.16" rx="11.3037" ry="19.5247"
              transform="rotate(-2.92476 259.03 133.16)" fill="var(--clr-illustration-outline)" />
          </g>
        </g>
        <g id="Group 1948754905">
          <path id="8274:20295"
            d="M260.265 77.6573C263.39 76.6456 267.304 76.1404 271.474 76.1549C279.787 76.1838 289.508 78.2811 296.513 83.0268C303.126 87.5077 306.541 96.7257 308.501 106.972C310.48 117.323 311.063 129.273 311.599 139.762L308.404 139.925C307.865 129.377 307.287 117.665 305.357 107.574C303.408 97.3777 300.166 89.3688 294.718 85.6772C288.4 81.3964 279.366 79.3832 271.464 79.3557C267.526 79.342 263.967 79.8217 261.251 80.7008C260.649 80.8957 260.106 81.1063 259.618 81.3253L255.208 80.3516C256.53 79.1631 258.322 78.2863 260.265 77.6573Z"
            fill="var(--clr-illustration-outline)" />
          <g id="Group 1948754906_2">
            <rect id="8274:20299" width="33.3254" height="33.5981" rx="16.6627"
              transform="matrix(0.997353 0.0727075 -0.127515 0.991837 297.987 134.355)"
              fill="var(--clr-illustration-fill)" stroke="var(--clr-illustration-outline)"
              stroke-width="1.2" />
            <rect id="8274:20300" width="22.0341" height="20.3503" rx="10.1752"
              transform="matrix(0.997353 0.0727075 -0.127515 0.991837 303.695 141.402)"
              fill="var(--clr-illustration-outline)" stroke="var(--clr-illustration-outline)"
              stroke-width="1.2" />
          </g>
        </g>
        <g id="Group 1948754556">
          <path id="8274:20302"
            d="M225.684 133.558C214.083 128.927 203.552 130.885 202.163 137.931C200.774 144.977 209.053 154.443 220.654 159.074C229.77 162.712 238.224 162.281 242.102 158.512C246.426 163.134 256.489 165.519 267.74 164.048C282.143 162.165 293.039 154.676 292.078 147.32C291.116 139.963 278.661 135.526 264.258 137.409C254.598 138.671 246.516 142.457 242.53 147.032C239.609 141.825 233.377 136.628 225.684 133.558Z"
            fill="var(--clr-illustration-fill)" stroke="var(--clr-illustration-outline)"
            stroke-width="1.2" />
          <ellipse id="8274:20303" cx="18.826" cy="7.95134" rx="18.826" ry="7.95134"
            transform="matrix(-0.991563 0.129625 0.129625 0.991563 283.635 140.404)"
            fill="var(--clr-illustration-outline)" />
          <ellipse id="8274:20304" cx="16.0272" cy="8.21001" rx="16.0272" ry="8.21001"
            transform="matrix(-0.928751 -0.370704 -0.193431 0.981114 239.643 144.202)"
            fill="var(--clr-illustration-outline)" />
        </g>
        <path id="8274:20305" d="M238.39 170.315C233.316 184.566 246.542 187.013 252.923 172.301"
          stroke="var(--clr-illustration-outline)" stroke-width="1.2" />
      </g>
      <g id="Group 1948754908">
        <path id="8274:20307"
          d="M276.103 218.198C292.854 226.09 307.748 246.381 317.207 236.122C326.667 225.864 312.068 199.456 304.185 182.687"
          stroke="var(--clr-illustration-outline)" stroke-width="13.2" stroke-linecap="round" />
        <g id="8274:20308">
          <path
            d="M281.87 214.549C282.327 203.509 274.791 201.463 269.639 204.923C260.551 197.397 236.989 188.946 217.757 192.738C193.717 197.477 181.128 220.688 194.659 226.887C202.234 230.356 206.424 217.316 213.667 213.452C210.728 221.22 211.136 228.44 215.63 232.307C220.125 236.174 224.591 237.474 230.796 236.778C234.086 239.003 241.759 243.372 251.844 242.085C264.14 240.515 267.018 233.829 266.18 228.467C272.434 230.712 281.435 225.079 281.87 214.549Z"
            fill="var(--clr-illustration-fill)" />
          <path
            d="M266.18 228.467C272.434 230.712 281.435 225.079 281.87 214.549C282.327 203.509 274.791 201.463 269.639 204.923C260.551 197.397 236.989 188.946 217.757 192.738C193.717 197.477 181.128 220.688 194.659 226.887C202.234 230.356 206.424 217.316 213.667 213.452M266.18 228.467C267.018 233.829 264.14 240.515 251.844 242.085C241.759 243.372 234.086 239.003 230.796 236.778M266.18 228.467C265.826 227.007 264.987 225.64 263.726 224.506M230.796 236.778C224.591 237.474 220.125 236.174 215.63 232.307C211.136 228.44 210.728 221.22 213.667 213.452M230.796 236.778C219.697 226.294 225.813 209.431 242.169 206.273M213.667 213.452C215.11 209.853 220.63 202.562 228.237 201.093M241.97 224.658C252.027 219.742 259.862 221.03 263.726 224.506M263.726 224.506C264.653 224.066 267.295 221.696 268.389 219.603"
            stroke="var(--clr-illustration-outline)" stroke-width="1.2" />
        </g>
      </g>
    </g>
    <path id="8274:20309" opacity="0.5"
      d="M382.127 177.472C386.416 189.171 390.322 192.89 400.175 193.718C391.945 198.268 388.666 202.613 387.253 216.279C383.158 203.726 379.251 200.449 369.205 200.033C378.751 194.916 381.456 189.937 382.127 177.472Z"
      fill="var(--clr-core-pop-50)" />
    <g id="Group 1948754912">
      <path id="8274:20312" opacity="0.5"
        d="M194.297 19.9224C196.174 39.087 200.731 46.2115 215.744 51.447C201.051 54.8805 194.157 60.0193 186.339 79.7985C185.116 59.4404 180.374 52.9737 164.891 48.2739C181.869 44.5303 188.13 38.2142 194.297 19.9224Z"
        fill="var(--clr-core-pop-50)" />
      <ellipse id="8274:20313" opacity="0.5" cx="219.483" cy="30.5919" rx="6.16568" ry="6.78225"
        transform="rotate(3.57054 219.483 30.5919)" fill="var(--clr-core-pop-50)" />
    </g>
    <path id="8274:20314"
      d="M376.788 218.456L378.462 223.313L372.633 225.322L377.321 238.924L377.298 238.932C377.991 241.74 376.439 244.663 373.651 245.623C370.7 246.64 367.483 245.072 366.466 242.121C365.449 239.17 367.017 235.953 369.968 234.936C371.26 234.491 372.603 234.541 373.789 234.985L369.016 221.134L376.788 218.456Z"
      fill="var(--clr-illustration-outline)" />
    <path id="8274:20315"
      d="M339.903 53.9176L338.427 58.8391L332.521 57.068L328.388 70.8483L328.365 70.8413C327.289 73.526 324.323 74.9931 321.499 74.1462C318.509 73.2496 316.812 70.0989 317.709 67.109C318.605 64.1191 321.756 62.4222 324.746 63.3189C326.055 63.7114 327.116 64.5355 327.82 65.5892L332.028 51.5561L339.903 53.9176Z"
      fill="var(--clr-illustration-outline)" />
    <path id="8274:20316"
      d="M358.975 72.5346L363.539 94.8658L363.511 94.8714C363.888 98.2268 361.648 101.374 358.276 102.064C354.706 102.793 351.22 100.491 350.49 96.9206C349.761 93.3505 352.063 89.8648 355.633 89.1351C357.196 88.8157 358.743 89.077 360.049 89.7715L357.825 78.8917L342.546 82.0146L345.909 98.4692L345.881 98.4748C346.258 101.83 344.018 104.978 340.646 105.667C337.076 106.397 333.59 104.094 332.86 100.524C332.131 96.9539 334.433 93.4682 338.003 92.7385C339.566 92.4191 341.113 92.6804 342.419 93.3749L338.994 76.6185L358.975 72.5346Z"
      fill="var(--clr-illustration-outline)" />
  </g>
  <defs>
    <clipPath id="clip0_8274_20254">
      <rect width="400" height="400" fill="white" />
    </clipPath>
  </defs>
</svg>