<svg xmlns="http://www.w3.org/2000/svg" fill="none" viewBox="0 0 16 16" width="100%" height="100%"><path stroke="currentColor" stroke-width="1.5" d="M4.318 2.808c1.453 1.144 3.014 3.434 3.636 4.73h.092c.622-1.296 2.183-3.586 3.636-4.73 1.076-.847 2.818-1.502 2.818.582 0 .417-.228 3.497-.361 3.997-.464 1.738-2.155 2.182-3.66 1.913 2.63.47 3.299 2.023 1.854 3.577-2.743 2.951-3.942-.74-4.25-1.686h-.166c-.307.946-1.507 4.637-4.25 1.686C2.222 11.323 2.89 9.77 5.52 9.3c-1.504.269-3.195-.175-3.659-1.913-.133-.5-.361-3.58-.361-3.997 0-2.084 1.743-1.429 2.818-.582Z" vector-effect="non-scaling-stroke"/></svg>