<svg xmlns="http://www.w3.org/2000/svg" fill="none" viewBox="0 0 16 16" width="100%" height="100%"><path stroke="currentColor" stroke-width="1.5" d="M5.294 12.473a9.6 9.6 0 0 1-.778 1.344 11.6 11.6 0 0 1-3.632-1.953c-.254-2.858.254-5.757 2.128-8.73.93-.457 1.924-.79 2.964-.978.129.242.281.567.384.826a10.4 10.4 0 0 1 3.282 0c.103-.259.252-.584.38-.826 1.038.189 2.031.52 2.96.976 1.625 2.547 2.432 5.419 2.134 8.732a11.6 11.6 0 0 1-3.634 1.954 9.5 9.5 0 0 1-.778-1.344m-5.41-.002a7.5 7.5 0 0 1-1.225-.625m1.225.626c2.229.888 3.246.864 5.41 0m1.227-.626q-.584.369-1.227.627" vector-effect="non-scaling-stroke"/><path fill="currentColor" d="M5.562 10.077c-.79 0-1.439-.774-1.439-1.717s.634-1.72 1.439-1.72c.804 0 1.452.775 1.438 1.719.001.943-.634 1.717-1.438 1.717m4.846 0c-.79 0-1.438-.774-1.438-1.717s.634-1.719 1.438-1.719 1.453.775 1.439 1.719c0 .943-.635 1.717-1.439 1.717" vector-effect="non-scaling-stroke"/></svg>