<svg xmlns="http://www.w3.org/2000/svg" fill="none" viewBox="0 0 16 16" width="100%" height="100%"><g clip-path="url(#a)"><path stroke="currentColor" stroke-width="1.5" d="M7.929 13H12.5a2 2 0 0 0 2-2V4a2 2 0 0 0-2-2h-9a2 2 0 0 0-2 2v2.667M.5 14l5-5" vector-effect="non-scaling-stroke"/><path stroke="currentColor" stroke-width="1.5" d="M.5 9h5v5" vector-effect="non-scaling-stroke"/><path fill="currentColor" d="M1.5 3.5A1.5 1.5 0 0 1 3 2h10a1.5 1.5 0 0 1 1.5 1.5V5h-13z" vector-effect="non-scaling-stroke"/></g><defs><clipPath id="a"><path fill="currentColor" d="M0 0h16v16H0z" vector-effect="non-scaling-stroke"/></clipPath></defs></svg>