<svg xmlns="http://www.w3.org/2000/svg" fill="none" viewBox="0 0 16 16" width="100%" height="100%"><path stroke="currentColor" stroke-width="1.5" d="M5 1.75h7c.69 0 1.25.56 1.25 1.25v10c0 .69-.56 1.25-1.25 1.25H4.5a1.75 1.75 0 0 1-1.75-1.75V4A2.25 2.25 0 0 1 5 1.75Z" vector-effect="non-scaling-stroke"/><path stroke="currentColor" stroke-width="1.5" d="M4.5 10.75h8.75V13c0 .69-.56 1.25-1.25 1.25H4.5a1.75 1.75 0 1 1 0-3.5Z" vector-effect="non-scaling-stroke"/><path fill="currentColor" d="M11 1H7v7l2-1.2L11 8z" vector-effect="non-scaling-stroke"/></svg>