<svg xmlns="http://www.w3.org/2000/svg" fill="none" viewBox="0 0 16 16" width="100%" height="100%"><path stroke="currentColor" stroke-width="1.5" d="M7 1.577a2 2 0 0 1 2 0l4.062 2.346a2 2 0 0 1 1 1.732v4.69a2 2 0 0 1-1 1.732L9 14.423a2 2 0 0 1-2 0l-4.062-2.346a2 2 0 0 1-1-1.732v-4.69a2 2 0 0 1 1-1.732z" vector-effect="non-scaling-stroke"/><path stroke="currentColor" stroke-width="1.5" d="M7 5.577a2 2 0 0 1 2 0l.598.346a2 2 0 0 1 1 1.732v.69a2 2 0 0 1-1 1.732L9 10.423a2 2 0 0 1-2 0l-.598-.346a2 2 0 0 1-1-1.732v-.69a2 2 0 0 1 1-1.732z" vector-effect="non-scaling-stroke"/></svg>