<svg xmlns="http://www.w3.org/2000/svg" fill="none" viewBox="0 0 16 16" width="100%" height="100%"><g stroke="currentColor" stroke-width="1.5" clip-path="url(#a)"><path d="M3.612 16v-3.6S1.2 10 1.2 7c0-3.6 3.015-6 6.03-6 4.56 0 6.03 3.6 6.633 5.4A89 89 0 0 1 15 10.107h-2.212v3h-2.713V16" vector-effect="non-scaling-stroke"/><circle cx="7.424" cy="7.337" r="1.997" vector-effect="non-scaling-stroke"/><path d="M7.424 3.344v2.05m0 3.973v1.963m4-4h-2.05m-3.973 0H3.438m6.812-2.82L8.8 5.959M5.99 8.768l-1.388 1.388m5.657 0-1.45-1.45M6 5.896 4.612 4.51" vector-effect="non-scaling-stroke"/></g><defs><clipPath id="a"><path fill="currentColor" d="M0 0h16v16H0z" vector-effect="non-scaling-stroke"/></clipPath></defs></svg>