<svg width="16" height="16" viewBox="0 0 16 16" fill="none" xmlns="http://www.w3.org/2000/svg">
<path d="M0 6.10363C0 3.59758 0 2.34455 0.623565 1.45731C0.851255 1.13334 1.13334 0.851255 1.45731 0.623565C2.34455 0 3.59758 0 6.10363 0H9.89637C12.4024 0 13.6554 0 14.5427 0.623565C14.8667 0.851255 15.1487 1.13334 15.3764 1.45731C16 2.34455 16 3.59758 16 6.10363V9.89637C16 12.4024 16 13.6554 15.3764 14.5427C15.1487 14.8667 14.8667 15.1487 14.5427 15.3764C13.6554 16 12.4024 16 9.89637 16H6.10363C3.59758 16 2.34455 16 1.45731 15.3764C1.13334 15.1487 0.851255 14.8667 0.623565 14.5427C0 13.6554 0 12.4024 0 9.89637V6.10363Z" fill="#93EDE9"/>
<path d="M6.84845 8.52182L12.6113 11.4576C12.992 11.6516 13.44 11.3695 13.44 10.9358V5.06417C13.44 4.63045 12.992 4.34837 12.6113 4.54233L6.84845 7.47814C6.4264 7.69315 6.4264 8.30681 6.84845 8.52182Z" fill="url(#paint0_radial_257_80)"/>
<path d="M9.15155 8.52182L3.38871 11.4576C3.00797 11.6516 2.56 11.3695 2.56 10.9358V5.06417C2.56 4.63045 3.00797 4.34837 3.38871 4.54233L9.15155 7.47814C9.5736 7.69315 9.5736 8.30681 9.15155 8.52182Z" fill="black"/>
<defs>
<radialGradient id="paint0_radial_257_80" cx="0" cy="0" r="1" gradientUnits="userSpaceOnUse" gradientTransform="translate(8.08507 7.99998) rotate(-179.999) scale(5.36493 5.64272)">
<stop stop-opacity="0"/>
<stop offset="1"/>
</radialGradient>
</defs>
</svg>
