<svg
  xmlns="http://www.w3.org/2000/svg" width="100%" height="100%" viewBox="0 0 400 400" fill="none">
  <g id="2860:13154">
    <ellipse id="I2860:13154;4183:13859" opacity="0.12" cx="240.439" cy="388.746" rx="134.59" ry="10.2464" fill="var(--clr-illustration-outline)"/>
    <path id="I2860:13154;4183:13860" d="M68.7074 191L140 16L161.707 65.5L203.207 26.5L191.5 68L228.707 49.5L219.207 117.5M300.707 201L346.707 218L257.207 248" stroke="#5BC7C7" stroke-width="1.2"/>
    <path id="I2860:13154;4183:13861" d="M199.207 241.5L204.899 243.397L204.899 243.397L199.207 241.5ZM208.471 175.442C207.886 172.18 204.769 170.01 201.507 170.594C198.245 171.178 196.074 174.296 196.659 177.558L202.565 176.5L208.471 175.442ZM157.957 276V282C181.959 282 198.463 262.707 204.899 243.397L199.207 241.5L193.515 239.603C187.952 256.293 174.741 270 157.957 270V276ZM199.207 241.5L204.899 243.397C205.859 240.52 206.693 235.855 207.385 230.638C208.097 225.27 208.715 218.864 209.14 212.242C209.976 199.188 210.109 184.59 208.471 175.442L202.565 176.5L196.659 177.558C198.02 185.16 197.996 198.498 197.164 211.475C196.754 217.869 196.161 224.001 195.489 229.059C194.798 234.268 194.077 237.917 193.515 239.603L199.207 241.5Z" fill="#475050"/>
    <g id="I2860:13154;4183:13862">
      <path d="M274.272 334.848C295.485 334.848 334.145 356.9 341.764 389.057H230.633H123.995C129.305 359.569 172.463 334.577 201.328 334.577L239.842 198.374L251.148 200.087L263.482 202.485L274.272 334.848Z" fill="var(--clr-illustration-fill)"/>
      <path d="M251.148 200.087L230.633 389.057M251.148 200.087L263.482 202.485L274.272 334.848C295.485 334.848 334.145 356.9 341.764 389.057H230.633M251.148 200.087L239.842 198.374L201.328 334.577C172.463 334.577 129.305 359.569 123.995 389.057H230.633" stroke="var(--clr-illustration-outline)" stroke-width="1.2"/>
    </g>
    <g id="head">
      <path id="I2860:13154;4183:13864" d="M274.517 70.8452C283.956 69.7905 292.59 76.2506 294.241 85.6033L301.886 128.889C302.78 133.952 305.797 138.391 310.175 141.087L330.786 153.777C335.307 156.56 338.369 161.197 339.152 166.448L341.365 181.279C342.921 191.704 335.226 201.229 324.707 201.899L187.894 210.619C178.328 211.229 169.963 204.236 168.867 194.714L158.197 102.015C157.058 92.116 164.177 83.1748 174.08 82.0682L274.517 70.8452Z" fill="var(--clr-illustration-fill)" stroke="var(--clr-illustration-outline)" stroke-width="1.2"/>
      <path id="I2860:13154;8363:2347" d="M212.474 189.533L216.774 219.095L234.432 206.061L254.756 213.571L250.456 184.009L233.256 199.862L212.474 189.533Z" fill="var(--clr-illustration-outline)"/>
      <path id="I2860:13154;4183:13867" opacity="0.13" d="M171.148 103.702C170.739 99.4524 173.795 95.6522 178.033 95.1405L261.33 85.0847C265.589 84.5705 269.475 87.566 270.062 91.8166L281.848 177.213C282.442 181.516 279.436 185.485 275.133 186.078L188.467 198.04C184.04 198.651 179.994 195.453 179.565 191.005L171.148 103.702Z" fill="var(--clr-illustration-outline)"/>
      <path id="I2860:13154;4183:13868" d="M193.128 151.304C190.226 128.997 190.027 111.03 202.272 108.771C214.518 106.512 218.508 122.885 220.389 147.173" stroke="var(--clr-illustration-outline)" stroke-width="1.2"/>
      <path id="I2860:13154;4183:13869" d="M229.947 145.538C227.045 123.23 226.55 106.753 238.796 104.494C251.041 102.236 255.411 117.21 257.292 141.499" stroke="var(--clr-illustration-outline)" stroke-width="1.2"/>
      <path id="I2860:13154;4183:13870" d="M242.993 151.772C244.176 161.302 242.644 175.127 229.075 177.414C215.506 179.701 208.439 168.332 208.498 156.715" stroke="var(--clr-illustration-outline)" stroke-width="1.2"/>
      <path id="I2860:13154;4183:13871" d="M318.595 173.601L331.24 167.539M319.505 180.192L332.149 174.129M320.414 186.779L333.058 180.717" stroke="var(--clr-illustration-outline)" stroke-width="1.2"/>
    </g>
    <path id="I2860:13154;4183:13872" d="M301.5 218.5L298.037 213.601L298.037 213.601L301.5 218.5ZM304.443 167.738C303.47 164.571 300.113 162.792 296.946 163.764C293.778 164.737 291.999 168.094 292.972 171.262L298.707 169.5L304.443 167.738ZM250 210.5L251.321 216.353C259.455 214.517 266.539 218.005 275.378 222.176C283.225 225.88 294.149 231.044 304.963 223.399L301.5 218.5L298.037 213.601C293.643 216.706 289.338 215.495 280.499 211.324C272.65 207.62 261.587 201.733 248.679 204.647L250 210.5ZM301.5 218.5L304.963 223.399C311.701 218.637 312.81 210.074 312.141 201.572C311.442 192.687 308.604 181.288 304.443 167.738L298.707 169.5L292.972 171.262C297.103 184.712 299.59 195.036 300.178 202.513C300.796 210.373 299.155 212.81 298.037 213.601L301.5 218.5Z" fill="#475050"/>
    <g id="I2860:13154;4183:13873">
      <path d="M255.457 205.937C251.629 197.883 241.184 197.607 238.835 202.761C229.593 202.361 208.327 207.498 195.19 219.642C178.769 234.822 180.083 258.884 193.565 257.232C201.112 256.307 198.134 244.167 201.917 237.699C203.346 245.143 207.116 250.561 212.459 251.417C217.802 252.274 221.895 251.148 226.385 247.64C230.007 247.796 238.06 247.524 245.284 241.7C254.092 234.6 253.132 228.026 249.917 224.259C255.851 223.014 259.586 214.624 255.457 205.937Z" fill="var(--clr-illustration-fill)"/>
      <path d="M238.835 202.761C241.184 197.607 251.629 197.883 255.457 205.937C259.586 214.624 255.851 223.014 249.917 224.259M238.835 202.761C229.593 202.361 208.327 207.498 195.19 219.642C178.769 234.822 180.083 258.884 193.565 257.232C201.112 256.307 198.134 244.167 201.917 237.699M238.835 202.761C241.146 203.319 245.284 205.562 246.52 210.687M249.917 224.259C253.132 228.026 254.092 234.6 245.284 241.7C238.06 247.524 230.007 247.796 226.385 247.64M249.917 224.259C248.943 223.294 247.637 222.632 246.115 222.353M226.385 247.64C221.895 251.148 217.802 252.274 212.459 251.417C207.116 250.561 203.346 245.143 201.917 237.699M226.385 247.64C212.745 244.798 209.434 228.765 220.638 218.49M201.917 237.699C201.317 234.212 202.121 225.904 207.332 221.125M229.275 232.876C234.742 224.245 241.449 221.499 246.115 222.353M246.115 222.353C246.625 221.569 247.545 218.463 247.395 216.313" stroke="var(--clr-illustration-outline)" stroke-width="1.2"/>
    </g>
    <g id="I2860:13154;4183:13874">
      <path d="M149.032 187.085L184.717 255.101L235.961 248.858L238.974 261.969L178.941 269.161L106.472 275.425L68.2457 201.318L138.672 188.98L149.032 187.085Z" fill="var(--clr-illustration-fill)"/>
      <path d="M178.941 269.161L238.974 261.969L235.961 248.858L184.717 255.101L149.032 187.085L138.672 188.98M178.941 269.161L106.472 275.425L68.2457 201.318L138.672 188.98M178.941 269.161L138.672 188.98" stroke="var(--clr-illustration-outline)" stroke-width="1.2"/>
    </g>
    <g id="I2860:13154;4183:13875">
      <path d="M170.957 269.75C172.207 286.75 164.256 291.348 155.207 289.375C141.707 298.5 121.057 300.55 105.957 293.25C86.1249 283.662 86.0567 257.81 87.9574 253.375C89.8324 249 95.0199 249.25 96.3324 250.625C96.3324 245.625 97.8575 241.441 102.895 240.938C107.27 240.5 110.166 245.375 111.207 248.125C111.832 245.5 113.727 243.784 116.832 243.875C127.52 244.188 124.207 266.125 135.582 272.625L159.768 270.659L170.957 269.75Z" fill="var(--clr-illustration-fill)"/>
      <path d="M155.207 289.375C164.256 291.348 172.207 286.75 170.957 269.75L159.768 270.659M155.207 289.375C141.707 298.5 121.057 300.55 105.957 293.25C86.1249 283.662 86.0567 257.81 87.9574 253.375C89.8324 249 95.0199 249.25 96.3324 250.625M155.207 289.375C157.227 288.106 160.966 282.587 159.768 270.659M96.3324 250.625C96.3324 245.625 97.8575 241.441 102.895 240.938C107.27 240.5 110.166 245.375 111.207 248.125M96.3324 250.625C96.2908 256.125 97.7699 269.75 106.77 279.188M111.207 248.125C111.832 245.5 113.727 243.784 116.832 243.875C127.52 244.188 124.207 266.125 135.582 272.625L159.768 270.659M111.207 248.125C110.791 253.792 112.57 267.963 120.02 276.313M119.832 283.625C121.937 285.146 127.37 288.712 130.27 289.812M128.77 280.437C130.645 281.875 135.332 284.75 138.145 285.75M110.77 286.75C112.499 288.042 117.92 291.387 121.27 292.187" stroke="var(--clr-illustration-outline)" stroke-width="1.2"/>
    </g>
    <ellipse id="I2860:13154;4183:13876" opacity="0.16" cx="121.019" cy="235.144" rx="6.95152" ry="9.59788" transform="rotate(-27.0243 121.019 235.144)" fill="var(--clr-illustration-outline)"/>
  </g>
</svg>