<svg xmlns="http://www.w3.org/2000/svg" fill="none" viewBox="0 0 14 14"><g fill-rule="evenodd" clip-path="url(#a)" clip-rule="evenodd"><path fill="#fafafa" d="M.831 12.167c0 .255.065.53.243.628.657.369 2.958.081 3.74-.093.41-.093.742-.397 1.127-.563.867-.377 1.495-.681 2.188-1.188.503-.369 1.301-1.406 1.386-2.026l-.685-.154c-.016.697-.174.855-.794 1.017-.417.114-1.232.138-1.657.065-.563-.093-.819-.389-1.074-.725-.494-.657.11-1.115-.673-1.16-.822 1.01-2.273.284-2.91.183-.27.393-.907 2.946-.899 3.53.393-.134.64.012.993.15 1.248.482.158.907-.34.782-.341-.081-.446-.304-.645-.446m1.633-5.823c.507.097.957.308 1.386.522.701.349.827.3.892.787.008.089-.008.137.247.218.43.134-.247-.105.904-.1.684.003 2.253.279 2.76.599.21.134.17.304.883.284-.009-.84-.231-2.092-.56-2.861-.4-.933-.932-1.074-2.014-1.423-.632-.202-2.488-.425-3.063-.069-.54.337-.64.738-1.143 1.443-.146.207-.199.365-.292.6"/><path fill="#fafafa" d="M6.926 8.066c.405.166-.02 1.24-.584.98-.182-.514.252-.806.37-1.037-.244-.036-.937-.146-1.144-.069-.267.102-.328.673-.19.94.648 1.273 3.513 1.001 3.21.013-.122-.402-.236-.466-.645-.604-.328-.11-.656-.223-1.017-.223m-5.094-.142c.324.312 1.058.36 1.532.385.06-.628.113-1.098.616-1.062.247.337.117.734-.142.99.442-.005.697-.337.632-.82-.373-.267-1.503-.802-2.07-.879-.159.17-.548 1.102-.568 1.386"/><path fill="#475569" stroke="#475569" stroke-linejoin="round" stroke-width=".363" d="M1.07 11.936c.268-.024.965.178 1.021.405-.433.053-.984.012-1.02-.405Zm-.239.23c.199.143.304.366.644.447.499.125 1.589-.3.34-.782-.352-.138-.599-.284-.992-.15-.008-.584.628-3.137.9-3.53.636.101 2.087.827 2.91-.182.781.044.178.502.672 1.159.255.336.51.632 1.074.725.425.073 1.24.049 1.657-.065.62-.162.778-.32.795-1.017l.684.154c-.085.62-.883 1.657-1.386 2.026-.692.507-1.32.81-2.188 1.188-.385.166-.717.47-1.126.563-.782.174-3.084.462-3.74.093-.179-.097-.244-.373-.244-.628Zm5.67-3.354c.028-.268.13-.418.287-.527.11.235-.085.462-.288.527Zm.425-.746c.36 0 .689.113 1.017.223.41.138.523.202.644.604.304.988-2.56 1.26-3.21-.013-.137-.267-.076-.838.191-.94.207-.077.9.033 1.143.07-.117.23-.551.522-.369 1.037.564.259.99-.815.584-.981Zm-3.31.049c.003-.28-.009-.531.246-.64.094.214-.06.518-.247.64Zm-1.784-.19c.02-.285.41-1.217.567-1.387.568.077 1.698.612 2.071.88.065.482-.19.814-.632.818.26-.255.389-.652.142-.989-.503-.036-.555.434-.616 1.062-.474-.024-1.208-.073-1.532-.385ZM1.427 7.6c-.15-.413-.15-1.058.486-1.11l-.324.903c-.085.195-.085.15-.162.207Zm1.037-1.256c.093-.235.146-.393.292-.6.503-.705.604-1.106 1.143-1.443.575-.356 2.431-.133 3.063.07 1.082.348 1.613.49 2.014 1.422.329.77.552 2.022.56 2.86-.714.02-.673-.15-.884-.283-.506-.32-2.075-.596-2.76-.6-1.15-.004-.474.235-.903.101-.255-.08-.24-.13-.247-.218-.065-.487-.19-.438-.892-.787-.43-.214-.88-.425-1.386-.522Zm7.173-.199c-.077-.255.065-.239.312-.413.142-.102.255-.207.43-.304.652-.365 1.868-.426 2.386.008.211.174.555.515.503.96-.11.888-.717 1.374-1.216 1.78-.506.413-1.35.838-2.22.555-.074-.179-.017-1.31-.102-1.727-.077-.373-.036-.413.178-.636.633-.657 2.002-1.135 2.78-.571.329.243.235.336.406.522.21-.227-.183-.988-1.633-.94-.985.033-1.41.803-1.824.766Zm-5.9-2.306c.02-.563.539-1.73 1.057-2.135.628-.487 1.285-.944 2.25-.397.239.133.226.202.25.535.02.32-.007.437-.088.697-.64 2.066-1.176.879-3.226 1.37.077-.673.66-1.273.985-1.585.555-.54.956-.888 1.79-.774.232.385.256.628-.024 1.078-.372.6-.466.563-.409.972.292-.073.381-.356.515-.64.814-1.702-.369-1.909-1.094-1.597-.487.207-1.354 1.163-1.638 1.739-.056.113-.117.26-.17.385zm3.21.085c.084-.506.587-.632.587-2.192 0-.673-.827-1.276-1.909-.827-.928.381-1.07.673-1.564 1.419-.466.705-.45 1.479-.851 2.131-.118.187-.223.252-.353.438-.093.138-.162.312-.255.474-.19.312-.385.539-.539.912-.486.012-.896.02-.944.523-.065.688.26.859.26 1.118-.005.28-1.14 3.1-.823 4.782.089.462.393.466.879.523 1.171.141 2.69.093 3.74-.329l1.905-.912c.482-.271 1.293-.786 1.653-1.162.256-.264.39-.487.608-.799.3-.437.308-.43.373-1.025.397.073 1.139.247 1.386.462-.028.28-.166.146-.166.397.158.004.421-.194.486-.413-.166-.243-.34-.203-.58-.397.19-.15.535-.22.799-.329.567-.235 1.536-.948 1.775-1.596.19-.523.048-1.394-.26-1.735-.324-.356-1.078-.539-1.694-.539-.733 0-1.49.527-2.082.754-.227-.198-.244-.425-.41-.644-.19-.26-1.43-.908-2.022-1.034Z"/><path fill="#bfdbfe" d="M3.615 8.115c.187-.122.34-.426.247-.64-.255.109-.243.36-.247.64m2.885.697c.203-.065.398-.292.288-.527-.158.11-.26.26-.288.527"/><path fill="#fecaca" d="M9.637 6.145c.413.037.839-.733 1.823-.766 1.451-.048 1.844.713 1.633.94-.17-.186-.076-.28-.405-.522-.778-.564-2.148-.085-2.78.571-.214.223-.255.263-.178.636.085.418.028 1.548.101 1.727.872.283 1.715-.142 2.221-.556.498-.405 1.106-.891 1.216-1.779.052-.445-.292-.786-.503-.96-.518-.434-1.734-.373-2.387-.008-.174.097-.287.202-.43.304-.246.174-.388.158-.311.413m-5.9-2.305.198-.353c.053-.126.114-.272.17-.385.284-.576 1.151-1.532 1.638-1.739.725-.312 1.908-.105 1.094 1.597-.134.284-.223.567-.515.64-.057-.41.036-.373.41-.972.279-.45.255-.693.024-1.078-.835-.114-1.236.235-1.792.774-.324.312-.907.912-.984 1.584 2.05-.49 2.585.697 3.225-1.37a1.54 1.54 0 0 0 .09-.697c-.025-.332-.013-.4-.252-.534-.964-.547-1.62-.09-2.249.397-.518.405-1.037 1.572-1.057 2.135m-1.646 8.502c-.056-.227-.753-.43-1.02-.405.036.417.587.458 1.02.405"/></g><defs><clipPath id="a"><path fill="#fff" d="M0 0h14v14H0z"/></clipPath></defs></svg>