<svg xmlns="http://www.w3.org/2000/svg" fill="none" viewBox="0 0 14 14"><path fill="var(--file-icon-gray, #807976)" d="M5.512.9a2.6 2.6 0 0 1 2.49 1.853l.444 1.48h2.277A2.6 2.6 0 0 1 13.3 7.17l-.479 3.666a2.6 2.6 0 0 1-2.578 2.264H3a2.6 2.6 0 0 1-2.6-2.6v-7A2.6 2.6 0 0 1 3 .9zM3 2.1a1.4 1.4 0 0 0-1.4 1.4v7A1.4 1.4 0 0 0 3 11.9h7.244a1.4 1.4 0 0 0 1.388-1.22l.478-3.665a1.4 1.4 0 0 0-1.387-1.581H6.274a1.4 1.4 0 0 0-1.39 1.233l-.288 2.404-1.192-.142.288-2.406a2.6 2.6 0 0 1 2.582-2.29h.92l-.341-1.135A1.4 1.4 0 0 0 5.512 2.1z"/></svg>