<svg xmlns="http://www.w3.org/2000/svg" fill="none" viewBox="0 0 14 14"><path fill="var(--file-icon-orange, #f5700b)" d="M9.516 6.836c.508.673.325.967.328 1.612 0 .803-.089 1.249-.226 1.5l.335-.14c.015.45.02.672-.283.852a7.3 7.3 0 0 1-2.333.516c.28.2.399.622.207.973a.637.637 0 0 1-1.147-.017.76.76 0 0 1 .213-.955 7.3 7.3 0 0 1-2.347-.517c-.202-.088-.335-.26-.293-.852l.436.171c-.148-.242-.246-.691-.246-1.534 0-.642-.184-.936.325-1.609C4.974 6.177 5.913 5.53 7 5.53c1.084 0 2.024.648 2.516 1.307M.556 5.301c.567.315 1.297 1.35 1.281 1.153C1.528 2.581 5.11 2.041 5.11 2.041s-.526-.836-2.822-.378C-.03 2.125-.547 4.433.557 5.3m12.878 0c-.566.315-1.296 1.35-1.28 1.153.309-3.873-3.272-4.413-3.272-4.413s.537-.9 2.822-.378c2.799.691 2.582 3.222 1.73 3.638m-7.28 1.118c-.102.247.235.643.782.671v1.998c-.195.032-.436.15-.67.226-.253.095-.498.133-.401.15.331.015.698-.122 1.151-.115.45-.007.817.13 1.152.116.097-.014-.148-.053-.402-.15-.244-.081-.498-.204-.695-.23V7.088c.539-.033.87-.425.769-.67-.24-.493-1.532-.464-1.686 0m-2.23-1.213c0-.193-.193-.315-.347-.218a.264.264 0 0 0 0 .437c.154.096.348-.025.348-.219M3.017 6.49c-.597-.375-.597-1.318 0-1.693s1.347.096 1.347.846-.75 1.222-1.347.847M11 5.206c0-.193-.194-.315-.348-.218a.264.264 0 0 0 0 .437c.154.096.348-.025.348-.219m-.91 1.285c-.597-.375-.597-1.318 0-1.693s1.348.096 1.348.846-.75 1.222-1.348.847"/><path stroke="var(--file-icon-orange, #f5700b)" d="M1.5 4a39 39 0 0 0-.114 3.306c.017 1.683 1.432 2.998 3.114 2.998H10c1.427 0 2.665-1.066 2.684-2.492.012-.966-.05-1.96-.184-3.312M3.5 2c2.706-.957 4.24-.927 7 0"/></svg>