<svg xmlns="http://www.w3.org/2000/svg" fill="none" viewBox="0 0 14 14"><path fill="var(--file-icon-pink, #f472b6)" d="M12.052 7.817a2.76 2.76 0 0 0-1.269.31c-.131-.273-.262-.511-.284-.689-.025-.206-.055-.332-.025-.579s.167-.596.167-.625c-.003-.026-.03-.152-.312-.155-.282-.002-.525.058-.552.135a3.4 3.4 0 0 0-.118.439c-.05.27-.563 1.224-.856 1.725-.096-.195-.178-.367-.194-.504-.025-.207-.055-.333-.025-.58s.167-.595.167-.624c-.003-.026-.03-.152-.312-.155-.281-.003-.525.057-.552.135-.027.077-.057.26-.118.438-.057.178-.74 1.772-.918 2.188-.09.212-.17.38-.227.495-.058.115-.003.009-.009.02l-.076.152v.003c-.038.072-.08.14-.099.14-.013 0-.04-.191.006-.455.101-.553.347-1.416.344-1.448 0-.014.047-.166-.158-.243-.2-.078-.27.051-.287.051s-.03.046-.03.046.221-.972-.424-.972c-.405 0-.963.462-1.239.883-.175.1-.547.313-.94.54-.151.085-.307.177-.455.26l-.03-.034C2.445 7.839 1 7.22 1.06 6.045c.022-.427.164-1.554 2.778-2.918 2.141-1.118 3.856-.811 4.154-.129.424.975-.916 2.786-3.142 3.047-.848.1-1.294-.244-1.406-.373-.117-.134-.134-.14-.177-.114-.072.04-.028.16 0 .232.065.18.339.502.804.662.407.14 1.402.218 2.606-.27 1.348-.547 2.4-2.066 2.092-3.336-.315-1.293-2.36-1.717-4.294-.997-1.151.43-2.398 1.1-3.295 1.98C.113 4.873-.057 5.784.014 6.163c.249 1.35 2.024 2.23 2.735 2.88l-.099.058c-.355.183-1.709.925-2.048 1.711-.383.889.06 1.528.356 1.614.913.266 1.848-.212 2.354-1 .503-.789.443-1.812.21-2.28l-.008-.017.28-.172c.18-.111.358-.215.513-.303a3.7 3.7 0 0 0-.183.974c-.038.505.159 1.158.419 1.416a.45.45 0 0 0 .336.115c.3 0 .438-.261.588-.574.186-.38.35-.822.35-.822s-.205 1.195.355 1.195c.206 0 .41-.278.504-.421v.003l.016-.029.033-.054v-.006c.082-.15.265-.49.539-1.055.352-.728.691-1.64.691-1.64s.033.224.134.59c.06.219.192.457.293.689l-.131.189.002.003q-.099.14-.216.286c-.278.35-.612.749-.656.863-.052.135-.04.235.06.316.074.057.205.068.345.057.251-.017.426-.083.514-.123.137-.052.293-.13.443-.244.273-.212.44-.513.424-.914a1.9 1.9 0 0 0-.161-.645l.073-.115c.432-.662.766-1.39.766-1.39s.033.223.134.59c.052.187.156.39.249.59-.405.348-.66.749-.747 1.013-.161.487-.035.708.203.76.106.022.26-.03.374-.081.143-.049.315-.132.473-.255.274-.212.536-.508.523-.906a1.8 1.8 0 0 0-.118-.536c.345-.15.79-.235 1.357-.163 1.216.149 1.457.946 1.41 1.278-.046.333-.3.516-.385.573-.085.055-.112.075-.104.115.011.06.05.057.123.046.101-.017.64-.273.662-.886.033-.788-.681-1.648-1.947-1.64m-9.385 3.316c-.402.462-.968.636-1.209.487-.26-.157-.159-.837.336-1.327.301-.298.692-.573.95-.742.057-.038.144-.092.248-.158l.027-.017.063-.04c.184.7.009 1.313-.415 1.797m2.94-2.095c-.14.358-.435 1.278-.613 1.226-.153-.042-.246-.74-.03-1.427.11-.347.342-.76.478-.92.222-.258.462-.344.523-.238.07.138-.271 1.135-.359 1.359m2.425 1.215c-.06.031-.115.054-.14.037-.019-.011.025-.054.025-.054s.304-.341.424-.499c.068-.092.15-.198.238-.318v.034c0 .413-.377.688-.547.8m1.87-.447c-.043-.035-.038-.14.11-.473a1.8 1.8 0 0 1 .415-.562q.043.13.042.247c-.003.516-.353.708-.567.788"/></svg>