<svg xmlns="http://www.w3.org/2000/svg" fill="none" viewBox="0 0 14 14"><g clip-path="url(#a)"><path fill="var(--file-icon-gray, #807976)" d="m0 .5 2.398 3.803v2.41h1.539v-2.41L6.447.5H4.793L3.255 2.949 1.73.5zm7.054.015L4.447 6.728H5.68l.566-1.382H9.03l.47 1.382h1.318L8.315.515zm.661 1.31.854 2.281H6.763zM9.5 7.41v6.063H14v-1.295h-3.181V7.409zm-7.102.001v6.09h1.293V9.3l1.354 2.823h1.018l1.4-2.923v4.3h1.24V7.41H7.01l-1.503 2.754L4.075 7.41z"/></g><defs><clipPath id="a"><path fill="#fff" d="M0 0h14v14H0z"/></clipPath></defs></svg>