<svg xmlns="http://www.w3.org/2000/svg" width="405" height="28" viewBox="0 0 405 28" fill="none">
  <circle cx="6" cy="14" r="6" fill="#FF5F57" />
  <circle cx="26" cy="14" r="6" fill="#FEBC2E" />
  <circle cx="46" cy="14" r="6" fill="#28C840" />
  <g clip-path="url(#clip0_18_209414)">
    <g opacity="0.7">
      <path
        d="M86.25 18.25H87.5C88.1904 18.25 88.75 17.6904 88.75 17V15.5H90.25V17C90.25 18.4238 89.1679 19.5945 87.7812 19.7354L87.5 19.75H86.25V21.5H84.75V15.5H86.25V18.25ZM83 8.25C86.1756 8.25 88.75 10.8244 88.75 14L87.25 14C87.25 11.6528 85.3472 9.75 83 9.75C80.6528 9.75 78.75 11.6528 78.75 14C78.75 16.3472 80.6528 18.25 83 18.25V19.75C79.8244 19.75 77.25 17.1756 77.25 14C77.25 10.8244 79.8244 8.25 83 8.25ZM83 11.25C84.5188 11.25 85.75 12.4812 85.75 14H84.25C84.25 13.3096 83.6904 12.75 83 12.75C82.3096 12.75 81.75 13.3096 81.75 14C81.75 14.6904 82.3096 15.25 83 15.25V16.75C81.4812 16.75 80.25 15.5188 80.25 14C80.25 12.4812 81.4812 11.25 83 11.25Z"
        fill="var(--clr-text-2)" />
    </g>
    <text fill="var(--clr-text-2)" xml:space="preserve" style="white-space: pre" font-family="Inter"
      font-size="12" font-weight="500" letter-spacing="0em">
      <tspan x="96" y="18.3636">origin/main</tspan>
    </text>
    <path d="M170 8V20" stroke="var(--clr-border-2)" />
    <g opacity="0.7">
      <path
        d="M182.973 11.2656H180.209C179.87 11.2657 179.543 11.3881 179.286 11.6084C178.658 12.1462 178.622 13.105 179.206 13.6895L181.189 15.6738L183.348 13.5166V18.7666H178.098L180.129 16.7344L178.145 14.75C176.943 13.5476 177.018 11.5752 178.31 10.4688C178.838 10.0156 179.512 9.76664 180.209 9.76662H182.973V11.2656ZM189.894 9.18752L187.861 11.2188L189.847 13.2041C191.049 14.4064 190.974 16.3789 189.683 17.4854C189.154 17.9386 188.479 18.1875 187.782 18.1875L185.019 18.1875V16.6875H187.782C188.121 16.6875 188.449 16.566 188.706 16.3457C189.333 15.8079 189.37 14.8491 188.786 14.2647L186.801 12.2793L184.644 14.4375V9.18752H189.894Z"
        fill="var(--clr-theme-ntrl-on-soft)" />
    </g>
    <text fill="var(--clr-btn-ntrl-outline-text)" xml:space="preserve" style="white-space: pre"
      font-family="Inter" font-size="12" font-weight="500" letter-spacing="0em">
      <tspan x="197" y="18.3636">1 min ago</tspan>
    </text>
    <path opacity="0.4"
      d="M75 0.5H255C258.038 0.5 260.5 2.96243 260.5 6V22C260.5 25.0376 258.038 27.5 255 27.5H75C71.9624 27.5 69.5 25.0376 69.5 22V6C69.5 2.96243 71.9624 0.5 75 0.5Z"
      stroke="var(--clr-btn-ntrl-outline)" />
  </g>
  <path
    d="M269 9.84C269 6.25297 269 4.45946 269.742 3.10948C270.291 2.11174 271.112 1.29067 272.109 0.74216C273.459 0 275.253 0 278.84 0H395.16C398.747 0 400.541 0 401.891 0.74216C402.888 1.29067 403.709 2.11174 404.258 3.10948C405 4.45946 405 6.25297 405 9.84V18.16C405 21.747 405 23.5405 404.258 24.8905C403.709 25.8883 402.888 26.7093 401.891 27.2578C400.541 28 398.747 28 395.16 28H278.84C275.253 28 273.459 28 272.109 27.2578C271.112 26.7093 270.291 25.8883 269.742 24.8905C269 23.5405 269 21.747 269 18.16V9.84Z"
    fill="var(--clr-theme-pop-element)" />
  <text fill="var(--clr-theme-pop-on-element)" xml:space="preserve" style="white-space: pre"
    font-family="Inter" font-size="12" font-weight="500" letter-spacing="0em">
    <tspan x="278" y="18.3636">3 upstream commits</tspan>
  </text>
  <defs>
    <clipPath>
      <path
        d="M69 6C69 2.68629 71.6863 0 75 0H255C258.314 0 261 2.68629 261 6V22C261 25.3137 258.314 28 255 28H75C71.6863 28 69 25.3137 69 22V6Z"
        fill="white" />
    </clipPath>
  </defs>
</svg>