<svg xmlns="http://www.w3.org/2000/svg" fill="none" viewBox="0 0 16 16" width="100%" height="100%"><g stroke="currentColor" stroke-width="1.5" clip-path="url(#a)"><path d="M4 6v7a2 2 0 0 0 2 2h7a2 2 0 0 0 2-2V6a2 2 0 0 0-2-2H6a2 2 0 0 0-2 2Z" vector-effect="non-scaling-stroke"/><path d="M3.5 12H3a2 2 0 0 1-2-2V3a2 2 0 0 1 2-2h7a2 2 0 0 1 2 2v1.5m-6 5h7M9.5 6v7" vector-effect="non-scaling-stroke"/></g><defs><clipPath id="a"><path fill="currentColor" d="M0 0h16v16H0z" vector-effect="non-scaling-stroke"/></clipPath></defs></svg>