<svg xmlns="http://www.w3.org/2000/svg" fill="none" viewBox="0 0 16 16" width="100%" height="100%"><rect width="10.5" height="10.5" x="1.75" y="1.75" stroke="currentColor" stroke-width="1.5" rx="1.25" vector-effect="non-scaling-stroke"/><path fill="currentColor" d="M1 4.22c0-1.139 0-1.708.225-2.142a2 2 0 0 1 .853-.853C2.512 1 3.081 1 4.22 1H7v12H4.22c-1.139 0-1.708 0-2.142-.225a2 2 0 0 1-.853-.853C1 11.488 1 10.919 1 9.78z" vector-effect="non-scaling-stroke"/><path stroke="currentColor" stroke-width="1.5" d="M15 4v6.17c0 1.709 0 2.563-.338 3.213a3 3 0 0 1-1.28 1.28C12.733 15 11.88 15 10.17 15H4" vector-effect="non-scaling-stroke"/></svg>