<svg width="100" height="66" viewBox="0 0 100 66" fill="none" xmlns="http://www.w3.org/2000/svg">
<path d="M0 12C0 5.37258 5.37258 0 12 0H88C94.6274 0 100 5.37258 100 12V54C100 60.6274 94.6274 66 88 66H12C5.37258 66 0 60.6274 0 54V12Z" fill="var(--clr-illustration-bg)"/>
<path fill-rule="evenodd" clip-rule="evenodd" d="M68.7826 14.5215C63.3798 14.5215 59 18.9013 59 24.3041C59 28.7844 62.0118 32.5612 66.1212 33.7203L62.2609 51.478H80.7391L76.8788 33.7203C80.9882 32.5612 84 28.7844 84 24.3041C84 18.9013 79.6202 14.5215 74.2174 14.5215H68.7826Z" fill="var(--clr-illustration-outline)"/>
<path fill-rule="evenodd" clip-rule="evenodd" d="M28 25.5V40.5C28 42.433 26.433 44 24.5 44C22.567 44 21 42.433 21 40.5V25.5C21 23.567 22.567 22 24.5 22C26.433 22 28 23.567 28 25.5ZM15 25.5C15 20.2533 19.2533 16 24.5 16C29.7467 16 34 20.2533 34 25.5V29.5H41.5H50.5H53.5V32.5V44H47.5V35.5H44.5V44H38.5V35.5H34V40.5C34 45.7467 29.7467 50 24.5 50C19.2533 50 15 45.7467 15 40.5V25.5Z" fill="var(--clr-illustration-fill)"/>
<path d="M34 29.5H33.4V30.1H34V29.5ZM53.5 29.5H54.1V28.9H53.5V29.5ZM53.5 44V44.6H54.1V44H53.5ZM47.5 44H46.9V44.6H47.5V44ZM47.5 35.5H48.1V34.9H47.5V35.5ZM44.5 35.5V34.9H43.9V35.5H44.5ZM44.5 44V44.6H45.1V44H44.5ZM38.5 44H37.9V44.6H38.5V44ZM38.5 35.5H39.1V34.9H38.5V35.5ZM34 35.5V34.9H33.4V35.5H34ZM28.6 40.5V25.5H27.4V40.5H28.6ZM24.5 44.6C26.7644 44.6 28.6 42.7644 28.6 40.5H27.4C27.4 42.1016 26.1016 43.4 24.5 43.4V44.6ZM20.4 40.5C20.4 42.7644 22.2356 44.6 24.5 44.6V43.4C22.8984 43.4 21.6 42.1016 21.6 40.5H20.4ZM20.4 25.5V40.5H21.6V25.5H20.4ZM24.5 21.4C22.2356 21.4 20.4 23.2356 20.4 25.5H21.6C21.6 23.8984 22.8984 22.6 24.5 22.6V21.4ZM28.6 25.5C28.6 23.2356 26.7644 21.4 24.5 21.4V22.6C26.1016 22.6 27.4 23.8984 27.4 25.5H28.6ZM24.5 15.4C18.9219 15.4 14.4 19.9219 14.4 25.5H15.6C15.6 20.5847 19.5847 16.6 24.5 16.6V15.4ZM34.6 25.5C34.6 19.9219 30.0781 15.4 24.5 15.4V16.6C29.4153 16.6 33.4 20.5847 33.4 25.5H34.6ZM34.6 29.5V25.5H33.4V29.5H34.6ZM34 30.1H41.5V28.9H34V30.1ZM41.5 30.1H50.5V28.9H41.5V30.1ZM50.5 30.1H53.5V28.9H50.5V30.1ZM52.9 29.5V32.5H54.1V29.5H52.9ZM52.9 32.5V44H54.1V32.5H52.9ZM53.5 43.4H47.5V44.6H53.5V43.4ZM48.1 44V35.5H46.9V44H48.1ZM47.5 34.9H44.5V36.1H47.5V34.9ZM43.9 35.5V44H45.1V35.5H43.9ZM44.5 43.4H38.5V44.6H44.5V43.4ZM39.1 44V35.5H37.9V44H39.1ZM38.5 34.9H34V36.1H38.5V34.9ZM34.6 40.5V35.5H33.4V40.5H34.6ZM24.5 50.6C30.0781 50.6 34.6 46.0781 34.6 40.5H33.4C33.4 45.4153 29.4153 49.4 24.5 49.4V50.6ZM14.4 40.5C14.4 46.0781 18.9219 50.6 24.5 50.6V49.4C19.5847 49.4 15.6 45.4153 15.6 40.5H14.4ZM14.4 25.5V40.5H15.6V25.5H14.4Z" fill="var(--clr-illustration-outline)"/>
</svg>
