<svg width="22" height="22" viewBox="0 0 22 22" fill="none" xmlns="http://www.w3.org/2000/svg">
<path d="M14.6355 1.65039C14.6795 1.65039 14.7235 1.65039 14.7699 1.65039C14.8777 2.96915 14.3693 3.95453 13.7513 4.66811C13.145 5.37676 12.3147 6.06406 10.9718 5.95977C10.8822 4.6599 11.3915 3.7476 12.0086 3.03567C12.5809 2.37218 13.6302 1.78177 14.6355 1.65039Z" fill="black"/>
<path d="M18.7008 15.3767C18.7008 15.3898 18.7008 15.4013 18.7008 15.4136C18.3234 16.5452 17.785 17.515 17.1281 18.4149C16.5284 19.232 15.7935 20.3315 14.4813 20.3315C13.3474 20.3315 12.5942 19.6097 11.4321 19.59C10.2028 19.5703 9.52681 20.1936 8.40287 20.3504C8.2743 20.3504 8.14573 20.3504 8.01965 20.3504C7.19433 20.2321 6.52826 19.5851 6.04302 19.0021C4.61218 17.2793 3.50649 15.054 3.30078 12.2062C3.30078 11.9271 3.30078 11.6487 3.30078 11.3695C3.38788 9.33141 4.38822 7.67433 5.71787 6.87125C6.4196 6.44425 7.38428 6.08048 8.45845 6.24307C8.9188 6.31369 9.38912 6.46971 9.80136 6.62408C10.192 6.77271 10.6806 7.0363 11.1435 7.02234C11.457 7.01331 11.7689 6.85154 12.0849 6.7374C13.0106 6.40648 13.918 6.02711 15.1141 6.2053C16.5516 6.42044 17.5719 7.05272 18.2023 8.02825C16.9863 8.79438 16.0249 9.94891 16.1891 11.9205C16.3351 13.7114 17.3869 14.7592 18.7008 15.3767Z" fill="black"/>
</svg>
