<svg width="16" height="16" viewBox="0 0 16 16" fill="none" xmlns="http://www.w3.org/2000/svg">
<g clip-path="url(#clip0_1940_37547)">
<path fill-rule="evenodd" clip-rule="evenodd" d="M2 0C0.895431 0 0 0.895431 0 2V14C0 15.1046 0.895431 16 2 16H9.75777C9.27914 15.285 9 14.4251 9 13.5C9 11.0147 11.0147 9 13.5 9C14.4251 9 15.285 9.27914 16 9.75777V2C16 0.895431 15.1046 0 14 0H2Z" fill="#8AEDE8"/>
<path fill-rule="evenodd" clip-rule="evenodd" d="M2 2V14L7.99058 8.76364L10.0756 10.5804C10.9009 9.61324 12.1289 9 13.5 9C13.669 9 13.8358 9.00932 14 9.02746V2L7.99058 7.25455L2 2Z" fill="#1A1614"/>
<path d="M11 13.5C11 12.1193 12.1193 11 13.5 11C14.8807 11 16 12.1193 16 13.5C16 14.8807 14.8807 16 13.5 16C12.1193 16 11 14.8807 11 13.5Z" fill="#B8B7B6"/>
</g>
<defs>
<clipPath id="clip0_1940_37547">
<rect width="16" height="16" fill="white"/>
</clipPath>
</defs>
</svg>
