<svg width="7.5rem" height="6.25rem" viewBox="0 0 120 100" fill="none"
  xmlns="http://www.w3.org/2000/svg">
  <path opacity="0.42"
    d="M34.9722 79.0017L80.0677 76.1585C86.5068 75.7526 89.7264 75.5496 92.0115 73.9698C93.3533 73.0422 94.4477 71.8004 95.1995 70.3527C96.4797 67.8874 96.2767 64.6678 95.8708 58.2286L94.2907 33.1674C93.8848 26.7282 93.6818 23.5086 92.102 21.2236C91.1744 19.8818 89.9326 18.7873 88.4849 18.0356C86.0196 16.7553 82.8 16.9583 76.3608 17.3643L49.365 19.0663C47.816 19.1639 47.0415 19.2128 46.3576 19.3531C42.9544 20.0514 40.1574 22.466 38.9699 25.7308C38.7313 26.387 38.5699 27.146 38.2472 28.6642L35.5958 41.1386C35.1266 43.3459 34.892 44.4496 34.4482 45.4322C33.796 46.8763 32.8098 48.1448 31.5711 49.1331C30.7283 49.8054 29.7026 50.3118 27.6511 51.3246C24.9729 52.6468 23.6337 53.308 22.6206 54.2118C21.0266 55.6338 19.9299 57.5289 19.4911 59.6195C19.2122 60.9481 19.3048 62.4174 19.4901 65.356C19.7593 69.625 19.8938 71.7595 20.6435 73.4216C21.8252 76.042 24.0775 78.0271 26.8256 78.8705C28.5687 79.4054 30.7032 79.2708 34.9722 79.0017Z"
    fill="var(--clr-core-ntrl-70)" />
  <path opacity="0.7"
    d="M78.4238 67.928L58.3873 69.1913C55.8002 69.3544 53.9013 69.4735 52.4015 69.4277C50.9106 69.3822 49.8754 69.174 49.0023 68.7206C47.931 68.1643 47.0121 67.3544 46.3256 66.3614C45.7661 65.5522 45.4295 64.5513 45.1971 63.0779C44.9634 61.5958 44.843 59.6969 44.6799 57.1099L43.4147 37.0426C43.2516 34.4555 43.1325 32.5566 43.1783 31.0569C43.2238 29.5659 43.432 28.5307 43.8854 27.6576C44.4417 26.5863 45.2517 25.6674 46.2446 24.9809C47.0539 24.4214 48.0547 24.0849 49.5281 23.8525C51.0102 23.6187 52.9091 23.4984 55.4962 23.3353L75.5327 22.072C78.1198 21.9089 80.0187 21.7898 81.5184 21.8356C83.0094 21.8811 84.0445 22.0893 84.9177 22.5427C85.989 23.099 86.9079 23.9089 87.5943 24.9018C88.1538 25.7111 88.4904 26.7119 88.7228 28.1854C88.9566 29.6675 89.0769 31.5663 89.24 34.1534L90.5052 54.2207C90.6683 56.8078 90.7874 58.7067 90.7417 60.2064C90.6962 61.6974 90.4879 62.7325 90.0345 63.6057C89.4782 64.677 88.6683 65.5959 87.6754 66.2823C86.8661 66.8418 85.8653 67.1784 84.3918 67.4108C82.9097 67.6446 81.0109 67.7649 78.4238 67.928Z"
    fill="var(--clr-core-ntrl-100)" stroke="var(--clr-core-ntrl-50)" stroke-width="1.2" />
  <ellipse cx="55.027" cy="42.3295" rx="4" ry="11.5" transform="rotate(-3.7194 55.027 42.3295)"
    fill="var(--clr-core-ntrl-50)" />
  <ellipse cx="67.7858" cy="41.5" rx="4" ry="11.5" transform="rotate(-3.7194 67.7858 41.5)"
    fill="var(--clr-core-ntrl-50)" />
  <ellipse cx="80.5445" cy="40.6706" rx="4" ry="11.5" transform="rotate(-3.7194 80.5445 40.6706)"
    fill="var(--clr-core-ntrl-50)" />
  <path opacity="0.4"
    d="M36.1051 91.1105L47.6589 78.2017L66.8837 76.9896L82.7672 88.1686L36.1051 91.1105Z"
    fill="var(--clr-core-ntrl-50)" />
  <path opacity="0.4"
    d="M1.9933 22.2746L6.56951 18.3859C9.20709 16.1446 10.6359 12.7925 10.4264 9.3376L10.0437 3.02769L14.0383 7.92713C16.2255 10.6098 19.5478 12.1065 23.0062 11.9672L29.0067 11.7257L24.4304 15.6144C21.7929 17.8557 20.364 21.2077 20.5736 24.6626L20.9563 30.9725L16.9617 26.0731C14.7745 23.3905 11.4522 21.8938 7.99373 22.033L1.9933 22.2746Z"
    fill="var(--clr-core-pop-50)" />
  <path opacity="0.4"
    d="M114.049 76.3141L119.746 88.5636L108.951 96.6858L103.254 84.4363L114.049 76.3141Z"
    fill="var(--clr-core-pop-50)" />
  <path d="M60.5 57C66 63.5 75.5 61.5 77.5 55" stroke="var(--clr-core-ntrl-50)" stroke-width="2" />
</svg>