<svg width="7.5rem" height="6.25rem" viewBox="0 0 120 100" fill="none"
  xmlns="http://www.w3.org/2000/svg">
  <g clip-path="url(#clip0_2675_6517)">
    <path opacity="0.35"
      d="M25.6394 84.1079L86.198 80.2686C94.8452 79.7203 99.1688 79.4462 102.237 77.313C104.039 76.0603 105.509 74.3834 106.519 72.4285C108.238 69.0992 107.965 64.7515 107.42 56.056L105.298 22.2133C104.753 13.5179 104.48 9.17016 102.359 6.08444C101.113 4.27249 99.4457 2.79449 97.5016 1.77931C94.1909 0.0504823 89.8673 0.324597 81.2201 0.872826L43.9675 3.1712C41.8874 3.30308 40.8473 3.36902 39.9288 3.55854C35.3587 4.50153 31.6027 7.76216 30.008 12.171C29.6875 13.0571 29.4708 14.0821 29.0375 16.1322L26.4769 32.9776C25.8468 35.9584 25.5318 37.4488 24.9358 38.7757C24.0599 40.7259 22.7356 42.4389 21.0721 43.7734C19.9403 44.6813 18.5629 45.3652 15.808 46.7328C12.2114 48.5184 10.413 49.4112 9.05258 50.6317C6.91201 52.552 5.4392 55.1112 4.84991 57.9343C4.4754 59.7285 4.5998 61.7126 4.8486 65.6809C5.21004 71.4457 5.39076 74.3281 6.39743 76.5727C7.98444 80.1113 11.009 82.792 14.6994 83.9308C17.0403 84.6531 19.9067 84.4714 25.6394 84.1079Z"
      fill="var(--clr-core-ntrl-70)" />
    <path d="M43 17.75L62.6819 66.1238M57.8953 16.2082L47.7866 67.6656"
      stroke="var(--clr-core-ntrl-60)" stroke-width="1.2" />
    <path d="M69.0801 15.3652L96.7194 62.9153M91.9328 12.9998L73.8667 65.2808"
      stroke="var(--clr-core-ntrl-60)" stroke-width="1.2" />
    <path opacity="0.4"
      d="M27.16 100.459L42.6757 83.0274L68.4926 81.3906L89.8224 96.4866L27.16 100.459Z"
      fill="var(--clr-core-ntrl-50)" />
    <path opacity="0.68"
      d="M6.85742 2.85742L12.0809 11.7437L17.9258 7.52021L22.2123 16.0569M1.15333 21.0085L8.24338 26.3218L11.3964 22.1615L17.6054 25.5451"
      stroke="#F78C29" stroke-width="2" />
  </g>
</svg>